<svg xmlns="http://www.w3.org/2000/svg" fill="none" viewBox="0 0 358 209"><g clip-path="url(#a)"><path fill="#682717" d="M223.721 18.86c1.28.95 2.93 1.44 4.89 1.44 1.45 0 2.93-.27 4.41-.81 1.44-.53 2.77-1.23 3.95-2.09 1.2-.87 2.21-1.88 3-3 .86-1.22 1.29-2.53 1.29-3.88 0-1.64-.7-3.04-2.02-4.04-1.23-.93-2.93-1.4-5.06-1.4-1.44 0-2.9.24-4.36.72a16 16 0 0 0-3.96 1.91c-1.22.82-2.23 1.82-3 2.96-.82 1.22-1.24 2.54-1.24 3.94 0 1.76.73 3.23 2.11 4.25z"/><path fill="#682717" d="M114.76 52.26s.71-4.41 2.11-7.78c1.47-3.49 2.96-7.22 4.44-11.1.81-2.18 1.49-3.9 2.02-5.16-.22 1.68-.53 4.1-.94 7.24-.49 3.39-.96 6.9-1.4 10.43q-.66 5.4-1.23 9.99c-.38 3.1-.63 5.23-.74 6.35-.11 1.33-.17 2.47-.17 3.38 0 .99.07 1.73.2 2.27l.03.09c.26.78 1.04 2.09 3.33 2.09 2.69 0 4.03-1.29 4.69-2.37.71-1.17 1.86-3.1 3.47-5.83.37-.69 1.27-2.25 2.68-4.63l3.71-6.41 4.01-2.74 3.18-5.44c-.81 2.15-1.71 4.36-2.68 6.57v.02c-.53 1.26-1.01 2.26-1.41 2.97-.39.69-.76 1.22-1.08 1.6-.31.35-.62.63-.94.84-.39.26-.86.55-1.36.85-1.7.97-2.99 2.13-3.84 3.44-.82 1.28-1.42 2.86-1.78 4.71-.6 3.25.57 4.79 1.65 5.5 1.32.87 2.95 1.31 4.83 1.31 1.08 0 2.31-.09 3.64-.26 1.22-.16 2.67-.24 4.3-.24s3 .08 4.08.23c1.2.17 2.36.26 3.45.26 2.21 0 3.96-.88 5.07-2.53.82-1.24 1.46-2.67 1.93-4.26.45 1.07 1.02 2.05 1.72 2.95 1.99 2.55 4.81 3.84 8.37 3.84 2.02 0 3.85-.47 5.46-1.4 1.51-.87 2.83-1.85 3.93-2.93 1.04-1.01 1.96-1.95 2.74-2.79.39-.42.67-.63.83-.73 0 .02.01.05.02.08.11.85.3 1.8.55 2.83.29 1.19.82 2.27 1.59 3.23.9 1.13 2.37 1.7 4.35 1.7 1.67 0 3.27-.39 4.76-1.17 1.35-.71 2.61-1.46 3.76-2.27 1.63-1.18 3.13-2.47 4.46-3.82.32-.33.61-.67.86-1.01v.27c0 2.68.83 4.73 2.47 6.07 1.56 1.28 3.44 1.93 5.59 1.93 1.81 0 3.63-.41 5.43-1.22a36 36 0 0 0 5.04-2.79c1.52-1.07 2.92-2.24 4.14-3.46.06-.06.11-.12.16-.18-.2.68-.31 1.33-.31 1.95 0 1.29.53 3.09 3.03 4.36 1.73.88 3.97 1.32 6.67 1.32 3.07 0 4.93-.6 5.86-1.87.77-1.06 1.32-2.44 1.69-4.23.21-1.11.53-2.47.96-4.04s.98-3.27 1.64-5.05 1.5-3.64 2.48-5.55a37 37 0 0 1 3.52-5.54c1.56-2.03 3.21-3.71 4.92-5 1.57-1.19 2.99-1.79 4.23-1.79.5 0 .86.1 1.04.3.21.22.31.6.31 1.14 0 .95-.37 2.18-1.1 3.66-.79 1.61-2.08 3.75-3.85 6.36-1.49 2.23-2.92 4.41-4.27 6.48-1.44 2.22-2.17 4.63-2.17 7.16 0 2.68.83 4.72 2.47 6.06 1.56 1.28 3.44 1.92 5.59 1.92 1.81 0 3.64-.41 5.43-1.22 1.69-.76 3.37-1.69 5.04-2.78 1.52-1.07 2.92-2.23 4.14-3.46 1.41-1.41 2.13-2.97 2.13-4.62 0-2.31-1.43-2.89-2.05-3.04-.8-.19-1.67-.28-2.58-.28-.69 0-1.34-.09-1.95-.29-.03-.03-.13-.23-.13-.74 0-1.15.55-2.56 1.63-4.16 1.22-1.81 2.57-3.74 4.01-5.72 1.5-2 2.89-4.14 4.14-6.36 1.33-2.36 2-4.75 2-7.09s-.78-4.45-2.33-6.36c-1.61-2-4.15-3.01-7.54-3.01-2.31 0-4.5.48-6.52 1.43a23.7 23.7 0 0 0-5.36 3.46c-1.24 1.07-2.33 2.13-3.23 3.14-.27.31-.5.53-.69.69.08-.78.12-1.61.12-2.47 0-1.49-.4-2.88-1.18-4.12-.9-1.42-2.5-2.15-4.76-2.15-1.77 0-3.54.43-5.27 1.28-1.61.79-3.04 1.63-4.24 2.49a36.3 36.3 0 0 0-5.01 4.37c-1.64 1.74-2.48 3.45-2.48 5.09 0 1.97 1.18 2.72 1.88 2.98.82.32 1.66.51 2.51.57.73.05 1.31.16 1.71.32 0 0 .13.18.13.79 0 1.35-.5 3.24-1.5 5.61-1.03 2.45-2.52 5.15-4.43 8.01-1.51 2.26-2.98 4.34-4.4 6.19-.02.03-.04.07-.07.1.04-.26.06-.51.06-.78 0-2.32-1.47-2.9-2.1-3.04-.8-.18-1.65-.3-2.52-.36h-.09c-.71 0-1.36-.12-1.94-.36-.29-.12-.32-.8-.32-1.08 0-1.38.6-3.27 1.79-5.62 1.26-2.51 2.61-4.95 4.01-7.25 2.15-3.55 3.9-6.38 5.21-8.4 1.47-2.2 2.18-3.99 2.18-5.46 0-1.9-.65-3.33-1.93-4.23-1.14-.81-2.71-1.22-4.66-1.22-1.55 0-3.33.3-5.43.91-2.04.59-4 1.39-5.84 2.35-1.86.98-3.48 2.09-4.81 3.3-1.52 1.39-2.3 2.87-2.3 4.38 0 .85.29 1.63.86 2.32.57.7 1.42 1.16 2.53 1.38l.11.02c.45.05 1.04.15 1.76.31.07.01.11.03.14.04v.03c0 .61-.25 1.81-1.45 4.09-1.04 1.97-2.67 4.82-4.84 8.47a67 67 0 0 0-3.59 6.9c-.15.35-.29.69-.42 1.03-.45-1.09-1.36-1.4-1.82-1.49-.76-.15-1.61-.25-2.53-.31h-.08c-.68 0-1.27-.13-1.81-.4-.17-.08-.36-.51-.36-1.45 0-1.62.57-3.8 1.7-6.46 1.18-2.79 2.45-5.45 3.79-7.91 1.02-1.87 1.92-3.43 2.69-4.63s1.46-2.21 2.08-3.05c.57-.86 1.01-1.56 1.32-2.14.4-.73.61-1.46.61-2.17 0-1.19-.46-2.87-2.63-4.16-1.53-.9-3.08-1.36-4.62-1.36-1.15 0-2.05.24-2.74.72-.59.42-1.05.89-1.36 1.41-.26.36-.5.69-.69.96 0 0-.04.01-.13.01-.43 0-.8-.1-1.15-.31-.54-.32-1.1-.67-1.73-1.07-.71-.41-1.51-.8-2.38-1.15-.97-.39-2.17-.58-3.58-.58-2.63 0-5.51.73-8.56 2.17-3.01 1.42-5.85 3.43-8.45 5.97-1.8 1.74-3.51 3.77-5.11 6.03-1.59 2.25-3 4.63-4.19 7.04-1.2 2.43-2.18 4.94-2.91 7.46-.74 2.56-1.11 5.05-1.11 7.39v.29c-.76-.7-1.61-1.36-2.56-1.96-1.74-1.07-1.93-1.78-1.93-2.03 0-.94.13-1.94.37-2.96.64-2.46 1.44-4.94 2.37-7.37.94-2.44 1.93-4.79 2.95-6.97 1.02-2.17 2.05-4.18 3.07-5.98 1.01-1.78 1.93-3.29 2.73-4.47 1.24-1.84 2.5-3.11 3.73-3.77 1.38-.74 2.72-1.39 3.94-1.9a16.3 16.3 0 0 0 3.99-2.18c1.36-1 2.47-2.68 3.38-5.12.55-1.47.82-2.69.82-3.72 0-.51-.08-1.01-.23-1.46l-.02-.06c-.41-1.04-1.49-2.28-4.37-2.28-1.75 0-3.68.06-5.75.17-1.97.16-3.73.24-5.22.24-1.38 0-3.08-.08-5.09-.24-2.13-.11-3.75-.17-4.98-.17-1.93 0-3.56.32-4.82.95-1.34.67-2.59 2.1-3.81 4.35-.66 1.15-1.6 2.82-2.83 5-1.23 2.19-2.53 4.51-3.9 6.97-1.36 2.51-2.73 4.99-4.09 7.44-.78 1.4-1.48 2.68-2.11 3.85.1-.54.19-1.08.29-1.62.27-1.53.57-3.19.9-4.99s.71-3.87 1.15-6.25c.37-2.3.9-5.13 1.55-8.39.24-1.19.35-2.18.35-3.03 0-.67-.07-1.24-.21-1.74l-.03-.1c-.53-1.41-2.03-2.13-4.46-2.13-3.03 0-5.68.03-7.92.08-2.13.11-3.85.16-5.09.16-2.96 0-5.73-.11-8.25-.32-2.65-.22-5.03-.33-7.06-.33-4.78 0-9.02.75-12.6 2.23s-6.59 3.46-8.94 5.87-4.12 5.17-5.27 8.19c-1.14 3-1.72 6.06-1.72 9.11 0 2.75.47 5.14 1.39 7.1.92 1.95 2.11 3.58 3.55 4.85 1.43 1.25 3.06 2.19 4.85 2.79 1.76.59 3.52.89 5.23.89 3.84 0 6.98-1.26 9.32-3.76 2.32-2.47 3.5-5.35 3.5-8.56 0-2.41-.7-4.34-2.08-5.76-1.39-1.42-3.1-2.14-5.08-2.14-1.06 0-2.03.21-2.88.62-.74.35-1.4.73-1.97 1.12-.54.37-1.03.72-1.48 1.05-.21.16-.4.24-.55.24-.02 0-.07 0-.19-.13-.02-.02-.19-.24-.19-.98 0-.85.26-1.83.78-2.92.53-1.13 1.31-2.2 2.32-3.19s2.28-1.83 3.8-2.51c1.49-.67 3.24-1 5.17-1 3.03 0 5.22.79 6.52 2.33 1.37 1.64 2.04 3.6 2.04 5.99 0 1.72-.34 3.67-1.01 5.81-.69 2.2-1.55 4.37-2.55 6.47a63 63 0 0 1-3.25 5.95c-1.15 1.84-2.16 3.34-2.99 4.44-1.88 2.39-3.14 3.31-3.86 3.66-1.23.6-2.57 1.26-4.02 1.95-2.44 1.1-4.06 2.33-4.97 3.75-.89 1.4-1.34 3.09-1.34 5.03 0 2.49.58 4.19 1.76 5.19 1.1.93 2.65 1.41 4.58 1.41 1.08 0 2.32-.09 3.68-.26 1.19-.16 2.63-.24 4.26-.24s3.22.08 4.7.24c1.57.17 2.91.25 3.98.25 2.21 0 3.96-.83 5.19-2.47 1.05-1.4 1.93-3.02 2.63-4.81.5-1.3.87-2.88.87-3.87 1.01-10.79-4.14-7.06-4.14-7.06zm73.29-17.88c.62 0 1.09.14 1.43.43.27.23.42.79.42 1.58 0 .92-.3 2.14-.89 3.62-.62 1.56-1.53 3.31-2.68 5.2-.63.99-1.39 2.06-2.26 3.17-.86 1.09-1.78 2.11-2.74 3.01-.94.89-1.91 1.63-2.88 2.2-.86.51-1.68.77-2.43.77-.95 0-1.36-.34-1.59-.59-.38-.43-.58-1.23-.58-2.31 0-1.45.46-3.17 1.36-5.12a27 27 0 0 1 3.56-5.71c1.42-1.76 3.02-3.28 4.75-4.52 1.6-1.15 3.13-1.73 4.54-1.73z"/><path fill="#682717" d="M153.031 65.41c-1.09 0-2.25-.09-3.45-.26-1.08-.15-2.45-.23-4.08-.23s-3.08.08-4.3.24c-1.33.17-2.56.26-3.64.26-1.88 0-3.51-.44-4.83-1.31-1.09-.71-2.25-2.25-1.65-5.5.36-1.86.96-3.44 1.78-4.71.85-1.31 2.14-2.47 3.84-3.44.5-.3.96-.59 1.36-.85.32-.21.63-.49.94-.84.33-.37.69-.91 1.08-1.6.41-.71.88-1.71 1.4-2.97v-.02c.98-2.2 1.88-4.41 2.68-6.57.82-2.19 1.58-4.21 2.3-6.07.71-1.86 1.37-3.55 1.97-5.09.29-.81.56-1.56.82-2.22-1.66 2.97-3.44 6.12-5.33 9.45-2.09 3.68-4.06 7.12-5.86 10.24-1.83 3.17-3.43 5.92-4.79 8.27-1.41 2.38-2.31 3.94-2.68 4.63-1.61 2.72-2.76 4.65-3.47 5.83-.65 1.08-2 2.37-4.69 2.37-2.29 0-3.07-1.31-3.33-2.09l-.03-.09c-.14-.54-.2-1.28-.2-2.27 0-.91.06-2.05.17-3.38.11-1.13.36-3.26.74-6.35q.57-4.59 1.23-9.99c.43-3.53.9-7.04 1.4-10.43.41-3.14.73-5.55.94-7.24-.53 1.26-1.21 2.98-2.02 5.16-1.48 3.88-2.97 7.62-4.44 11.1-1.4 3.37-2.11 5.99-2.11 7.78 0 .55.07 1 .2 1.34.14.36.33.67.56.94.73.79 1.54 1.68 2.36 2.61.59.68.89 1.57.89 2.64 0 .98-.24 2.09-.74 3.4-.7 1.8-1.58 3.41-2.63 4.81-1.23 1.64-2.98 2.47-5.19 2.47-1.07 0-2.41-.08-3.98-.25-1.48-.16-3.05-.24-4.7-.24s-3.06.08-4.26.24c-1.37.17-2.6.26-3.68.26-1.94 0-3.48-.47-4.58-1.41-1.18-1-1.76-2.7-1.76-5.19 0-1.93.45-3.62 1.34-5.03.91-1.43 2.53-2.66 4.97-3.75 1.44-.7 2.79-1.35 4.02-1.95.72-.35 1.98-1.28 3.86-3.66.83-1.09 1.84-2.59 2.99-4.44a63 63 0 0 0 3.25-5.95c1.01-2.1 1.86-4.27 2.55-6.47.67-2.14 1.01-4.09 1.01-5.81 0-2.39-.67-4.35-2.04-5.99-1.3-1.55-3.49-2.33-6.52-2.33-1.94 0-3.68.34-5.17 1-1.52.68-2.8 1.52-3.8 2.51-1.01.99-1.79 2.06-2.32 3.19-.52 1.09-.78 2.07-.78 2.92 0 .74.17.95.19.98.11.13.16.13.19.13.15 0 .34-.08.55-.24.45-.34.94-.69 1.48-1.05.57-.39 1.23-.77 1.97-1.12.85-.41 1.82-.62 2.88-.62 1.98 0 3.69.72 5.08 2.14 1.38 1.41 2.08 3.35 2.08 5.76 0 3.21-1.18 6.09-3.5 8.56-2.34 2.49-5.47 3.76-9.32 3.76-1.71 0-3.47-.3-5.23-.89-1.79-.6-3.43-1.54-4.85-2.79-1.44-1.26-2.63-2.89-3.55-4.85s-1.39-4.35-1.39-7.1c0-3.04.58-6.11 1.72-9.11 1.15-3.02 2.92-5.78 5.27-8.19s5.35-4.38 8.94-5.87c3.58-1.48 7.82-2.23 12.6-2.23 2.04 0 4.41.11 7.06.33 2.51.21 5.29.32 8.25.32 1.25 0 2.96-.05 5.09-.16 2.24-.06 4.89-.08 7.92-.08 2.43 0 3.93.72 4.46 2.13l.03.1c.14.5.21 1.07.21 1.74 0 .85-.12 1.84-.35 3.03-.65 3.26-1.17 6.08-1.55 8.39-.44 2.37-.82 4.45-1.15 6.25s-.63 3.46-.9 4.99c-.09.54-.19 1.08-.29 1.62.62-1.16 1.33-2.45 2.11-3.85 1.36-2.45 2.72-4.93 4.09-7.44 1.37-2.47 2.67-4.79 3.9-6.97 1.23-2.19 2.17-3.85 2.83-5 1.22-2.25 2.47-3.68 3.81-4.35 1.27-.63 2.89-.95 4.82-.95 1.22 0 2.85.05 4.98.17 2.01.16 3.71.24 5.09.24 1.49 0 3.24-.08 5.22-.24 2.08-.11 4-.17 5.75-.17 2.88 0 3.97 1.24 4.37 2.28l.02.06c.15.46.23.95.23 1.46 0 1.04-.27 2.26-.82 3.72-.91 2.44-2.02 4.12-3.38 5.12-1.24.91-2.58 1.65-3.99 2.18a43 43 0 0 0-3.94 1.9c-1.23.66-2.48 1.93-3.73 3.77-.8 1.18-1.72 2.68-2.73 4.47-1.02 1.8-2.05 3.81-3.07 5.98a107 107 0 0 0-2.95 6.97c-.93 2.43-1.73 4.9-2.37 7.37-.24 1.02-.37 2.02-.37 2.96 0 .25.19.96 1.93 2.03 1.13.71 2.12 1.5 2.98 2.36 1.12 1.12 1.44 2.75.95 4.83-.48 1.9-1.2 3.58-2.14 5-1.1 1.66-2.86 2.53-5.07 2.53zm-7.53-3.03c1.75 0 3.24.09 4.44.26 1.08.15 2.13.23 3.1.23 1.38 0 2.32-.45 2.96-1.4.79-1.18 1.39-2.6 1.79-4.2.27-1.16.18-1.99-.28-2.45a15 15 0 0 0-2.52-2c-2.1-1.29-3.13-2.66-3.13-4.19 0-1.13.15-2.34.44-3.57.67-2.58 1.5-5.15 2.46-7.66.96-2.5 1.98-4.9 3.02-7.13a87 87 0 0 1 3.16-6.15c1.04-1.84 2-3.41 2.84-4.64 1.47-2.18 3.03-3.72 4.62-4.58a48 48 0 0 1 4.21-2.02 13.8 13.8 0 0 0 3.42-1.86c.94-.69 1.79-2.03 2.51-3.97.44-1.16.66-2.12.66-2.84q0-.345-.09-.63c-.25-.56-1.36-.64-2-.64-1.71 0-3.58.05-5.58.16-2.01.16-3.83.25-5.39.25-1.45 0-3.22-.08-5.26-.25-2.02-.11-3.65-.16-4.81-.16-1.54 0-2.78.23-3.69.69-.58.29-1.53 1.1-2.73 3.32-.67 1.17-1.61 2.83-2.83 5.01-1.23 2.18-2.52 4.5-3.89 6.95-1.36 2.5-2.73 4.99-4.09 7.45-1.35 2.43-2.47 4.51-3.34 6.19-.62 1.24-.88 1.66-1.03 1.86-.58.83-1.28.95-1.65.95-.88 0-1.54-.62-1.63-1.55-.03-.29-.03-.76.22-2.01.31-1.62.62-3.27.89-4.88.27-1.54.57-3.2.9-5s.71-3.88 1.15-6.23c.37-2.31.9-5.16 1.56-8.45.2-1.01.3-1.86.3-2.54 0-.39-.03-.72-.1-.97-.12-.19-.74-.46-2.07-.46-3.01 0-5.64.03-7.83.08-2.14.11-3.9.16-5.19.16-3.03 0-5.88-.11-8.46-.33-2.58-.21-4.88-.32-6.85-.32-4.45 0-8.36.69-11.63 2.04-3.26 1.35-5.99 3.13-8.09 5.29-2.11 2.16-3.69 4.62-4.72 7.32-1.03 2.71-1.55 5.47-1.55 8.2 0 2.37.39 4.4 1.15 6.03.77 1.64 1.75 2.99 2.92 4.02s2.52 1.8 3.99 2.29c1.5.5 2.99.75 4.43.75 3.16 0 5.6-.97 7.47-2.96 1.89-2.01 2.81-4.25 2.81-6.83 0-1.75-.44-3.05-1.36-3.99-.91-.93-1.98-1.38-3.27-1.38-.68 0-1.28.12-1.78.37-.62.3-1.17.61-1.63.93-.5.34-.96.67-1.39.99-.66.5-1.36.75-2.07.75-.57 0-1.39-.18-2.11-1.02-.54-.62-.8-1.48-.8-2.63 0-1.23.34-2.57 1.02-4 .66-1.39 1.62-2.71 2.84-3.91s2.75-2.22 4.55-3.02c1.82-.81 3.91-1.22 6.21-1.22 3.81 0 6.66 1.09 8.46 3.24 1.74 2.08 2.63 4.65 2.63 7.62 0 1.98-.38 4.19-1.12 6.57-.72 2.31-1.63 4.61-2.69 6.81a65 65 0 0 1-3.38 6.19c-1.19 1.91-2.25 3.47-3.14 4.65-1.79 2.27-3.34 3.7-4.75 4.39-1.23.6-2.58 1.26-4.06 1.97-1.97.89-3.28 1.83-3.9 2.82-.63.99-.95 2.22-.95 3.67 0 1.63.31 2.79.86 3.25.63.54 1.63.81 2.95.81.98 0 2.11-.08 3.36-.24 1.29-.17 2.84-.26 4.58-.26s3.4.08 4.97.25c1.48.16 2.73.24 3.71.24 1.41 0 2.42-.46 3.16-1.46.91-1.21 1.68-2.63 2.29-4.2.38-.99.57-1.83.57-2.49 0-.44-.09-.77-.26-.97-.8-.91-1.59-1.78-2.35-2.59a5.8 5.8 0 0 1-1.03-1.72c-.25-.64-.37-1.38-.37-2.26 0-2.15.75-5.02 2.31-8.75 1.46-3.46 2.94-7.17 4.41-11.02 1.39-3.74 2.38-6.13 3.02-7.31.62-1.16 1.42-2.35 2.59-2.35.5 0 .95.19 1.27.54.39.43.55 1.01.48 1.77-.06.65-.19 1.68-.42 3.15-.21 1.66-.54 4.18-.98 7.5-.49 3.39-.96 6.88-1.39 10.39q-.66 5.4-1.23 9.99c-.38 3.07-.62 5.18-.73 6.27-.1 1.24-.16 2.31-.16 3.15 0 .89.06 1.36.11 1.61.05.13.19.32.91.32 1.63 0 2.22-.66 2.52-1.15.71-1.17 1.85-3.09 3.43-5.76.37-.69 1.26-2.23 2.7-4.67 1.36-2.34 2.95-5.09 4.78-8.26 1.8-3.11 3.77-6.55 5.85-10.22 2.07-3.65 4.01-7.09 5.81-10.31.55-1 1.09-1.9 1.61-2.66.74-1.11 1.59-1.67 2.53-1.67 1.08 0 1.84.79 1.84 1.92 0 .22-.04.46-.12.79-.25.92-.64 1.97-1.22 3.25-.36.87-.82 2.09-1.35 3.59-.61 1.56-1.27 3.25-1.97 5.1-.71 1.85-1.47 3.87-2.29 6.05-.82 2.19-1.74 4.44-2.72 6.68-.57 1.37-1.07 2.43-1.54 3.24-.48.84-.93 1.5-1.37 2.01-.45.52-.94.95-1.44 1.28-.42.28-.92.59-1.48.93-1.37.78-2.36 1.66-2.98 2.63-.65 1-1.12 2.29-1.42 3.81-.28 1.5-.09 2.49.56 2.92.9.59 2.06.9 3.44.9.98 0 2.09-.08 3.32-.24 1.33-.17 2.88-.26 4.62-.26z"/><path fill="#cb2821" d="M142.639 44.66q1.47-3.36 2.7-6.63c.82-2.18 1.58-4.2 2.29-6.06.71-1.85 1.36-3.55 1.96-5.08.54-1.53 1.01-2.76 1.39-3.68.54-1.2.93-2.21 1.15-3.03.05-.22.08-.38.08-.49q0-.66-.57-.66-.735 0-1.47 1.11t-1.56 2.58c-1.8 3.22-3.74 6.66-5.81 10.32s-4.03 7.07-5.85 10.23c-1.83 3.17-3.43 5.92-4.79 8.27-1.42 2.4-2.32 3.96-2.7 4.67-1.58 2.67-2.73 4.6-3.44 5.77s-1.91 1.76-3.6 1.76q-1.725 0-2.13-1.23c-.11-.44-.16-1.09-.16-1.96s.05-1.96.16-3.27c.11-1.09.35-3.19.74-6.3q.57-4.59 1.23-9.99c.44-3.55.9-7.01 1.39-10.4.44-3.33.76-5.84.98-7.53.22-1.42.35-2.44.41-3.07.05-.63-.11-.94-.49-.94q-.57 0-1.47 1.68c-.6 1.12-1.58 3.51-2.95 7.16-1.47 3.88-2.95 7.56-4.42 11.05-1.47 3.55-2.21 6.3-2.21 8.27 0 .71.09 1.31.29 1.8.19.49.45.93.78 1.31.76.82 1.56 1.69 2.37 2.62q.57.66.57 1.8c0 .82-.22 1.8-.66 2.95q-.975 2.535-2.46 4.5c-.98 1.31-2.37 1.96-4.18 1.96-1.04 0-2.32-.08-3.85-.25-1.53-.16-3.14-.25-4.83-.25s-3.17.08-4.42.25c-1.31.16-2.48.25-3.52.25-1.64 0-2.89-.37-3.77-1.11-.87-.74-1.31-2.15-1.31-4.22 0-1.69.38-3.14 1.15-4.35.76-1.2 2.24-2.3 4.42-3.28 1.47-.71 2.82-1.37 4.05-1.97s2.66-1.94 4.3-4.02c.87-1.15 1.9-2.66 3.07-4.55s2.28-3.91 3.32-6.07 1.91-4.37 2.62-6.64 1.06-4.33 1.06-6.19c0-2.68-.78-4.95-2.33-6.81-1.56-1.86-4.05-2.79-7.49-2.79-2.13 0-4.03.37-5.69 1.11-1.67.74-3.06 1.67-4.18 2.77s-1.98 2.28-2.58 3.55-.9 2.42-.9 3.46c0 .82.16 1.42.49 1.8s.71.57 1.15.57.87-.16 1.31-.49.91-.67 1.43-1.02 1.12-.7 1.8-1.02c.68-.33 1.46-.49 2.33-.49 1.64 0 3.03.59 4.18 1.76s1.72 2.8 1.72 4.87c0 2.89-1.05 5.46-3.15 7.7s-4.9 3.36-8.39 3.36c-1.58 0-3.19-.27-4.83-.82s-3.11-1.39-4.42-2.54-2.39-2.63-3.23-4.43c-.85-1.81-1.27-3.99-1.27-6.56 0-2.9.54-5.78 1.64-8.65 1.09-2.87 2.76-5.46 4.99-7.75 2.24-2.3 5.08-4.16 8.51-5.58s7.48-2.13 12.12-2.13q3.03 0 6.96.33c2.56.22 5.35.33 8.35.33 1.26 0 2.97-.05 5.16-.16 2.18-.05 4.8-.08 7.86-.08 1.86 0 2.95.44 3.27 1.31.11.38.16.85.16 1.39 0 .76-.11 1.69-.33 2.78-.66 3.27-1.17 6.09-1.56 8.43-.44 2.35-.82 4.42-1.15 6.22s-.63 3.47-.9 4.99c-.27 1.58-.57 3.22-.9 4.91-.16.82-.23 1.36-.2 1.64.03.27.15.41.37.41s.42-.14.61-.41.5-.85.94-1.72c.87-1.69 1.99-3.77 3.36-6.22 1.36-2.46 2.73-4.94 4.09-7.45 1.36-2.46 2.66-4.78 3.89-6.96s2.17-3.85 2.82-4.99c1.09-2.02 2.18-3.3 3.27-3.85 1.09-.54 2.51-.82 4.26-.82 1.2 0 2.84.06 4.91.16 2.02.16 3.74.25 5.16.25 1.53 0 3.3-.08 5.32-.25 2.02-.11 3.9-.16 5.65-.16s2.81.49 3.19 1.47c.11.33.16.68.16 1.07 0 .88-.25 1.97-.74 3.28-.82 2.19-1.8 3.7-2.95 4.55a15 15 0 0 1-3.68 2.01c-1.31.55-2.67 1.2-4.09 1.97-1.42.76-2.81 2.16-4.18 4.18-.82 1.2-1.75 2.72-2.78 4.55-1.04 1.83-2.07 3.85-3.11 6.07-1.04 2.21-2.03 4.56-2.99 7.05s-1.76 4.99-2.42 7.5c-.27 1.15-.41 2.24-.41 3.28s.85 2.08 2.54 3.11c1.04.66 1.95 1.38 2.74 2.17s1 2.01.61 3.65c-.44 1.75-1.09 3.28-1.96 4.59s-2.21 1.97-4.01 1.97c-1.04 0-2.13-.08-3.27-.25-1.15-.16-2.57-.25-4.26-.25s-3.18.08-4.46.25c-1.28.16-2.44.25-3.48.25-1.64 0-3.02-.37-4.13-1.11-1.12-.74-1.49-2.14-1.11-4.22.33-1.69.86-3.11 1.6-4.26s1.87-2.16 3.4-3.03c.54-.33 1.02-.63 1.43-.9s.8-.63 1.19-1.06q.57-.66 1.23-1.8c.44-.76.93-1.8 1.47-3.11z"/><path fill="#682717" d="M189.601 65.41c-1.98 0-3.44-.57-4.35-1.7-.77-.96-1.3-2.05-1.59-3.23-.25-1.03-.44-1.98-.55-2.83 0-.03-.01-.05-.02-.08-.17.1-.44.31-.83.73-.78.84-1.7 1.77-2.74 2.79-1.11 1.08-2.43 2.06-3.93 2.93-1.61.93-3.45 1.4-5.46 1.4-3.56 0-6.38-1.29-8.37-3.84-1.92-2.45-2.89-5.55-2.89-9.21 0-2.34.37-4.83 1.11-7.39.73-2.52 1.7-5.03 2.91-7.46 1.2-2.42 2.61-4.79 4.19-7.04 1.59-2.27 3.31-4.3 5.11-6.03 2.59-2.54 5.44-4.55 8.45-5.97 3.05-1.44 5.93-2.17 8.56-2.17 1.41 0 2.62.2 3.58.58.87.35 1.67.73 2.38 1.15.63.4 1.2.75 1.73 1.07.35.21.72.31 1.15.31.09 0 .13-.01.13-.01.19-.28.43-.61.69-.96.31-.52.77-.99 1.36-1.41.69-.49 1.58-.72 2.74-.72 1.53 0 3.08.46 4.62 1.36 2.17 1.29 2.63 2.97 2.63 4.16 0 .7-.2 1.43-.61 2.17-.32.58-.75 1.28-1.32 2.14-.62.84-1.3 1.85-2.08 3.05-.77 1.2-1.68 2.75-2.69 4.63a89 89 0 0 0-3.79 7.91c-1.13 2.67-1.7 4.84-1.7 6.46 0 .93.2 1.36.36 1.45.53.27 1.13.4 1.81.4h.08c.92.06 1.77.16 2.53.31.63.12 2.09.66 2.09 3.01 0 1.65-.77 3.27-2.29 4.82a34.7 34.7 0 0 1-4.46 3.82c-1.15.8-2.41 1.56-3.76 2.27-1.49.77-3.09 1.17-4.76 1.17zm-6.3-10.48c.56 0 1.9.22 2.31 2.25v.08c.12.77.29 1.65.52 2.61.2.84.57 1.57 1.11 2.25.4.5 1.2.75 2.37.75 1.26 0 2.47-.3 3.59-.88 1.26-.65 2.42-1.35 3.46-2.08 1.5-1.09 2.89-2.28 4.12-3.53 1.04-1.06 1.56-2.08 1.56-3.04 0-.3-.04-.45-.06-.52-.65-.12-1.37-.21-2.15-.26-1.06 0-2.03-.23-2.9-.67-1.17-.58-1.76-1.83-1.76-3.71 0-1.99.62-4.43 1.9-7.45 1.21-2.86 2.52-5.6 3.9-8.13 1.05-1.93 1.98-3.54 2.79-4.79.8-1.24 1.52-2.3 2.13-3.13.49-.74.9-1.4 1.18-1.91.19-.35.29-.67.29-.94 0-.5-.14-1.24-1.38-1.98-1.13-.67-2.25-1.01-3.32-1.01-.79 0-1.14.16-1.27.26-.31.22-.53.44-.65.66l-.07.11c-.28.39-.54.75-.79 1.09-.34.46-.99 1-2.12 1-.89 0-1.71-.23-2.45-.67-.55-.33-1.14-.69-1.75-1.08-.56-.32-1.25-.66-2-.96-.66-.27-1.55-.4-2.64-.4-2.25 0-4.77.65-7.48 1.93-2.75 1.3-5.36 3.15-7.76 5.49-1.69 1.63-3.3 3.54-4.8 5.68a50.5 50.5 0 0 0-3.99 6.71c-1.14 2.3-2.06 4.66-2.74 7.04-.67 2.33-1.01 4.58-1.01 6.69 0 3.08.79 5.65 2.35 7.65 1.51 1.93 3.59 2.87 6.37 2.87 1.59 0 2.96-.35 4.2-1.06 1.32-.76 2.48-1.62 3.43-2.55 1.01-.99 1.91-1.89 2.66-2.7 1.02-1.1 1.97-1.63 2.89-1.63zm-7.29-3.11c-1.47 0-2.64-.49-3.49-1.45-.81-.91-1.22-2.26-1.22-3.99s.54-3.89 1.59-6.18c1.02-2.22 2.33-4.32 3.89-6.24 1.57-1.94 3.33-3.61 5.24-4.98 2.04-1.46 4.06-2.2 6.02-2.2 1.23 0 2.27.35 3.08 1.04.86.74 1.3 1.92 1.3 3.5 0 1.27-.35 2.76-1.07 4.56-.68 1.69-1.64 3.57-2.88 5.59a40 40 0 0 1-2.42 3.4c-.94 1.19-1.94 2.3-2.99 3.29-1.08 1.02-2.2 1.88-3.34 2.55-1.26.74-2.5 1.12-3.71 1.12zm12.04-22.51c-1.41 0-2.94.58-4.54 1.73-1.73 1.24-3.32 2.75-4.75 4.52a27 27 0 0 0-3.56 5.71c-.9 1.95-1.36 3.67-1.36 5.12 0 1.08.2 1.88.58 2.31.22.26.63.59 1.59.59.75 0 1.57-.26 2.43-.77.98-.57 1.95-1.32 2.88-2.2.96-.91 1.88-1.92 2.74-3.01a38 38 0 0 0 2.26-3.17c1.15-1.88 2.05-3.64 2.68-5.2.59-1.48.89-2.7.89-3.62 0-.79-.15-1.35-.42-1.58-.34-.29-.81-.43-1.43-.43z"/><path fill="#cb2821" d="M189.601 64.14q-2.37 0-3.36-1.23a6.8 6.8 0 0 1-1.35-2.74c-.25-1.01-.42-1.92-.53-2.74-.16-.82-.52-1.23-1.06-1.23s-1.2.41-1.96 1.23-1.67 1.73-2.7 2.74c-1.04 1.01-2.27 1.92-3.68 2.74q-2.13 1.23-4.83 1.23c-3.17 0-5.62-1.12-7.37-3.36s-2.62-5.05-2.62-8.43c0-2.24.36-4.58 1.06-7.04.71-2.46 1.65-4.87 2.82-7.24s2.54-4.67 4.09-6.88q2.34-3.315 4.95-5.85 3.765-3.69 8.1-5.73c2.89-1.36 5.57-2.05 8.02-2.05 1.25 0 2.29.16 3.11.49s1.56.68 2.21 1.06c.6.38 1.17.74 1.72 1.06.54.33 1.15.49 1.8.49.49 0 .86-.16 1.11-.49s.5-.68.78-1.06c.22-.38.56-.74 1.02-1.06.46-.33 1.13-.49 2.01-.49 1.31 0 2.63.4 3.97 1.19s2.01 1.82 2.01 3.07q0 .735-.45 1.56c-.3.55-.72 1.23-1.27 2.05-.6.82-1.3 1.84-2.09 3.07s-1.71 2.8-2.74 4.71a93 93 0 0 0-3.85 8.02q-1.8 4.26-1.8 6.96c0 1.36.35 2.22 1.06 2.58s1.5.53 2.37.53c.87.06 1.66.15 2.37.29s1.06.72 1.06 1.76q0 1.965-1.92 3.93a33 33 0 0 1-4.3 3.68c-1.09.76-2.29 1.49-3.6 2.17s-2.7 1.02-4.18 1.02zm-1.55-36.1c-1.69 0-3.45.65-5.28 1.96s-3.49 2.89-4.99 4.75-2.74 3.85-3.72 5.98-1.47 4.01-1.47 5.65q0 2.13.9 3.15c.6.68 1.45 1.02 2.54 1.02.98 0 2.01-.31 3.07-.94s2.1-1.42 3.11-2.37 1.96-2.01 2.87-3.15c.9-1.15 1.68-2.24 2.33-3.28 1.2-1.96 2.13-3.77 2.78-5.4.66-1.64.98-3 .98-4.09 0-1.2-.29-2.05-.86-2.54s-1.32-.74-2.25-.74z"/><path fill="#682717" d="M211.501 65.41c-2.15 0-4.03-.65-5.59-1.93-1.64-1.34-2.47-3.38-2.47-6.07 0-2.03.53-4.26 1.58-6.62 1-2.25 2.21-4.57 3.59-6.9 2.17-3.65 3.8-6.5 4.84-8.47 1.2-2.28 1.45-3.48 1.45-4.09v-.03c-.03-.01-.08-.03-.14-.04-.72-.15-1.31-.26-1.76-.31l-.11-.02c-1.11-.22-1.96-.69-2.53-1.38s-.86-1.47-.86-2.32c0-1.51.77-2.99 2.3-4.38 1.33-1.22 2.95-2.33 4.81-3.3 1.84-.96 3.81-1.75 5.84-2.35 2.1-.61 3.88-.91 5.43-.91 1.95 0 3.52.41 4.66 1.22 1.28.91 1.93 2.33 1.93 4.23 0 1.47-.71 3.26-2.18 5.46-1.31 2.02-3.06 4.85-5.21 8.4a116 116 0 0 0-4.01 7.25c-1.19 2.35-1.79 4.24-1.79 5.62 0 .29.03.97.32 1.08.58.24 1.23.36 1.94.36h.09c.88.06 1.73.18 2.52.36.63.14 2.1.72 2.1 3.04 0 1.65-.72 3.21-2.13 4.63a31 31 0 0 1-4.14 3.46c-1.67 1.1-3.35 2.02-5.04 2.79-1.8.81-3.63 1.22-5.43 1.22zm1.84-36.97c.53.06 1.17.17 1.95.34 1.34.29 2.15 1.24 2.15 2.55s-.57 3.04-1.74 5.27c-1.07 2.04-2.68 4.85-4.9 8.59a64 64 0 0 0-3.45 6.63c-.91 2.04-1.36 3.92-1.36 5.6 0 1.91.5 3.26 1.54 4.1 1.11.91 2.42 1.35 3.99 1.35 1.45 0 2.92-.33 4.39-1 1.57-.71 3.13-1.57 4.65-2.57 1.37-.97 2.65-2.04 3.77-3.16.94-.94 1.39-1.86 1.39-2.84 0-.44-.09-.57-.09-.57-.68-.14-1.39-.24-2.12-.29a7.6 7.6 0 0 1-2.85-.54c-.86-.35-1.89-1.23-1.89-3.43 0-1.8.67-4.02 2.06-6.76 1.29-2.56 2.67-5.06 4.1-7.43 2.16-3.57 3.93-6.42 5.26-8.48 1.46-2.19 1.76-3.42 1.76-4.07 0-1.56-.64-2.01-.86-2.16-1.35-.95-4.05-1.07-7.92.06-1.87.55-3.68 1.28-5.37 2.16-1.67.88-3.11 1.86-4.28 2.93-.98.89-1.47 1.74-1.47 2.51 0 .16.03.4.28.71.23.28.67.42 1.02.5zm15.27-13.22c-1.96 0-3.61-.48-4.89-1.44-1.38-1.02-2.11-2.49-2.11-4.25 0-1.4.42-2.73 1.24-3.94.77-1.14 1.78-2.14 3-2.96 1.18-.8 2.51-1.44 3.96-1.91 1.46-.48 2.93-.72 4.36-.72 2.13 0 3.83.47 5.06 1.4 1.32 1 2.02 2.4 2.02 4.04 0 1.35-.44 2.66-1.29 3.88-.79 1.12-1.8 2.13-3 3-1.18.86-2.51 1.56-3.95 2.09-1.47.54-2.96.81-4.41.81zm5.57-12.69c-1.17 0-2.37.2-3.58.59-1.22.4-2.34.94-3.33 1.61-.95.64-1.73 1.41-2.32 2.28-.54.8-.81 1.63-.81 2.52 0 .96.34 1.67 1.08 2.22.84.62 1.97.94 3.38.94 1.15 0 2.34-.22 3.53-.66 1.22-.45 2.34-1.04 3.34-1.76.97-.7 1.78-1.51 2.41-2.4.56-.8.83-1.59.83-2.42s-.32-1.5-1.01-2.02c-.78-.59-1.97-.89-3.53-.89z"/><path fill="#cb2821" d="M220.011 48.48c0 1.2.37 1.96 1.11 2.26s1.54.45 2.42.45c.82.06 1.6.17 2.33.33q1.11.24 1.11 1.8c0 1.31-.59 2.56-1.76 3.73-1.17 1.18-2.5 2.28-3.97 3.32a35 35 0 0 1-4.83 2.67c-1.64.74-3.27 1.11-4.91 1.11-1.86 0-3.45-.55-4.79-1.64s-2.01-2.79-2.01-5.08c0-1.86.49-3.9 1.47-6.11s2.16-4.47 3.52-6.77c2.18-3.66 3.81-6.5 4.87-8.53 1.06-2.02 1.6-3.58 1.6-4.68 0-.71-.38-1.15-1.15-1.31-.76-.16-1.39-.27-1.88-.33-.82-.16-1.42-.48-1.8-.94s-.57-.97-.57-1.52c0-1.15.63-2.29 1.88-3.44s2.77-2.19 4.54-3.12 3.64-1.68 5.61-2.26c1.96-.57 3.66-.86 5.08-.86 1.69 0 3 .33 3.93.98.93.66 1.39 1.72 1.39 3.2 0 1.2-.65 2.79-1.96 4.76-1.31 2.02-3.06 4.84-5.24 8.45-1.42 2.35-2.77 4.8-4.05 7.34s-1.92 4.61-1.92 6.19zm8.6-34.52c-1.69 0-3.07-.4-4.13-1.19s-1.6-1.87-1.6-3.23c0-1.15.34-2.22 1.02-3.23s1.57-1.88 2.66-2.62 2.3-1.32 3.64-1.76 2.66-.66 3.97-.66c1.85 0 3.29.38 4.3 1.15 1.01.76 1.51 1.77 1.51 3.03 0 1.09-.36 2.14-1.06 3.15q-1.065 1.515-2.7 2.7a15 15 0 0 1-3.64 1.92c-1.34.49-2.66.74-3.97.74"/><path fill="#682717" d="M259 65.41c-2.15 0-4.03-.65-5.59-1.92-1.64-1.34-2.47-3.38-2.47-6.06 0-2.53.73-4.94 2.17-7.16 1.34-2.07 2.78-4.25 4.27-6.48 1.76-2.62 3.06-4.76 3.85-6.36.73-1.48 1.1-2.71 1.1-3.66 0-.54-.1-.92-.31-1.14-.19-.2-.54-.3-1.04-.3-1.24 0-2.66.6-4.23 1.79-1.7 1.29-3.36 2.97-4.92 5a36.3 36.3 0 0 0-3.52 5.54c-.98 1.91-1.82 3.78-2.48 5.55-.66 1.78-1.22 3.48-1.64 5.05-.43 1.57-.75 2.93-.96 4.04-.37 1.8-.92 3.18-1.69 4.23-.93 1.28-2.79 1.87-5.86 1.87-2.7 0-4.94-.45-6.67-1.32-2.5-1.27-3.03-3.08-3.03-4.36 0-1.7.75-3.58 2.28-5.73 1.42-1.85 2.89-3.92 4.4-6.19 1.91-2.87 3.4-5.56 4.43-8.01.99-2.37 1.5-4.26 1.5-5.61 0-.61-.13-.79-.13-.79-.4-.16-.99-.28-1.71-.32-.85-.06-1.68-.26-2.51-.57-.7-.27-1.88-1.01-1.88-2.98 0-1.64.83-3.35 2.48-5.09 1.47-1.55 3.15-3.02 5.01-4.37 1.2-.86 2.63-1.69 4.24-2.49 1.73-.85 3.5-1.28 5.27-1.28 2.26 0 3.86.72 4.76 2.15a7.6 7.6 0 0 1 1.18 4.12c0 .86-.04 1.68-.12 2.47q.285-.24.69-.69c.9-1.01 1.98-2.07 3.23-3.14 1.61-1.38 3.41-2.54 5.36-3.46 2.02-.95 4.21-1.43 6.52-1.43 3.39 0 5.92 1.01 7.54 3.01 1.54 1.92 2.33 4.06 2.33 6.36s-.67 4.72-2 7.09a58 58 0 0 1-4.14 6.36c-1.44 1.98-2.8 3.91-4.01 5.72-1.08 1.61-1.63 3.01-1.63 4.16 0 .51.11.71.13.74.62.19 1.26.29 1.95.29.91 0 1.78.09 2.58.28.61.14 2.05.72 2.05 3.04 0 1.65-.72 3.21-2.13 4.62a31 31 0 0 1-4.14 3.46 37 37 0 0 1-5.04 2.78c-1.8.81-3.62 1.22-5.43 1.22zm1.96-35.61c1.23 0 2.2.37 2.89 1.09.66.71 1 1.67 1 2.88 0 1.36-.44 2.92-1.36 4.78-.84 1.71-2.19 3.95-4.02 6.66a462 462 0 0 0-4.24 6.45c-1.18 1.83-1.76 3.72-1.76 5.78 0 1.91.5 3.25 1.54 4.09 1.11.91 2.42 1.35 3.99 1.35 1.45 0 2.93-.33 4.39-.99 1.57-.71 3.14-1.57 4.66-2.56 1.37-.96 2.65-2.03 3.77-3.15.93-.93 1.39-1.86 1.39-2.83 0-.45-.09-.59-.09-.59-.6-.12-1.28-.19-2-.19-.94 0-1.84-.13-2.67-.38-.73-.22-1.96-.94-1.96-3.18 0-1.69.67-3.52 2.06-5.58 1.24-1.84 2.61-3.8 4.08-5.81 1.44-1.92 2.78-3.97 3.97-6.1 1.11-1.98 1.68-3.95 1.68-5.85 0-1.74-.58-3.3-1.77-4.77-1.12-1.39-2.94-2.07-5.56-2.07-1.93 0-3.76.4-5.44 1.19-1.75.82-3.36 1.86-4.79 3.09-1.15 1-2.16 1.98-2.99 2.91-1.21 1.35-2.24 1.98-3.24 1.98-.56 0-1.07-.22-1.42-.62-.45-.5-.61-1.22-.5-2.19.1-.83.16-1.71.16-2.63 0-1.02-.26-1.92-.79-2.76-.4-.64-1.28-.96-2.61-.96s-2.77.34-4.15 1.02c-1.49.73-2.79 1.5-3.87 2.27a33.5 33.5 0 0 0-4.65 4.06c-1.18 1.25-1.78 2.38-1.78 3.35 0 .52.14.57.25.62.59.23 1.19.37 1.77.41 1.01.06 1.86.24 2.57.55.74.32 1.63 1.11 1.63 3.09 0 1.72-.55 3.87-1.7 6.59-1.09 2.6-2.66 5.44-4.66 8.44-1.54 2.31-3.04 4.43-4.47 6.29-1.18 1.65-1.79 3.08-1.79 4.22 0 .55.17 1.36 1.64 2.1 1.37.7 3.23 1.05 5.52 1.05 2.97 0 3.66-.63 3.81-.83.55-.75.97-1.84 1.26-3.24.22-1.15.56-2.58 1-4.21a63 63 0 0 1 1.71-5.27c.7-1.87 1.57-3.83 2.6-5.83 1.04-2.02 2.3-4.01 3.76-5.92 1.7-2.21 3.51-4.05 5.4-5.48 2.02-1.53 3.96-2.3 5.76-2.3z"/><path fill="#cb2821" d="M249.342 17.56c1.8 0 3.03.52 3.68 1.56.66 1.04.98 2.18.98 3.44 0 .98-.05 1.91-.16 2.78-.11.93.11 1.39.66 1.39.6 0 1.36-.52 2.29-1.56.87-.98 1.91-1.99 3.11-3.03a22.3 22.3 0 0 1 5.08-3.27c1.85-.87 3.85-1.31 5.98-1.31 3 0 5.18.85 6.55 2.54 1.36 1.69 2.05 3.55 2.05 5.57 0 2.13-.61 4.29-1.84 6.47a57 57 0 0 1-4.05 6.22c-1.47 2.02-2.82 3.94-4.05 5.77s-1.84 3.45-1.84 4.87c0 1.09.35 1.75 1.06 1.96.71.22 1.47.33 2.29.33s1.58.08 2.29.25c.71.16 1.06.76 1.06 1.8 0 1.31-.59 2.55-1.76 3.72s-2.5 2.28-3.97 3.32a35 35 0 0 1-4.83 2.66c-1.64.74-3.27 1.11-4.91 1.11-1.86 0-3.45-.55-4.79-1.64s-2.01-2.78-2.01-5.08.65-4.45 1.96-6.47 2.73-4.18 4.26-6.47q2.7-4.005 3.93-6.51c.82-1.66 1.23-3.07 1.23-4.22 0-.87-.22-1.54-.65-2.01-.44-.46-1.09-.7-1.96-.7-1.53 0-3.19.68-4.99 2.05s-3.52 3.11-5.16 5.24a38.5 38.5 0 0 0-3.64 5.73 52 52 0 0 0-2.54 5.69q-1.02 2.745-1.68 5.16c-.44 1.61-.76 2.99-.98 4.13q-.495 2.37-1.47 3.72c-.65.9-2.27 1.35-4.83 1.35s-4.54-.4-6.1-1.19-2.33-1.87-2.33-3.23.68-3.08 2.05-4.99c1.42-1.85 2.89-3.93 4.42-6.22 1.96-2.95 3.48-5.69 4.54-8.23s1.6-4.57 1.6-6.1c0-1.04-.29-1.68-.86-1.92-.57-.25-1.3-.39-2.17-.45-.71-.05-1.42-.22-2.13-.49s-1.06-.87-1.06-1.8c0-1.31.71-2.71 2.13-4.22 1.42-1.5 3.03-2.91 4.83-4.22q1.725-1.23 4.05-2.37c1.56-.76 3.12-1.15 4.71-1.15z"/><path fill="#682717" d="M85.21 105.23c-.54.6-1.05 1.3-1.53 2.07-.56.91-.84 1.99-.84 3.2 0 1.85.7 3.4 2.07 4.6 1.32 1.16 3.06 1.75 5.17 1.75 1.7 0 3.31-.45 4.78-1.32 1.42-.85 2.65-1.97 3.65-3.33.97-1.33 1.75-2.85 2.31-4.52.56-1.68.84-3.4.84-5.11 0-3.2-1.06-6.01-3.14-8.37-2.13-2.4-5.27-3.62-9.34-3.62-3.59 0-7.27 1.08-10.91 3.2-3.57 2.08-6.81 4.77-9.65 8a43.7 43.7 0 0 0-6.96 10.79c-1.81 3.99-2.73 7.93-2.73 11.7 0 4.42 1.43 8.13 4.25 11.03 2.83 2.92 6.62 4.4 11.27 4.4 2.89 0 5.71-.57 8.39-1.7 2.63-1.11 4.98-2.47 6.97-4.07 2-1.6 3.56-3.39 4.85-5.16 2.02-2.76 3.89-6.26 3.89-7.84 0-1.38.59-6.92-.34-7.85s-2.21-1.39-3.8-1.39c-1.33 0-5.6 7.33-6.73 8.07-.95.62-2.13 1.46-3.52 2.51-1.07.81-2.18 1.5-3.3 2.03-1.02.49-2.13.74-3.3.74-.94 0-1.77-.27-2.53-.82-.63-.45-.95-1.37-.95-2.74 0-1.57.45-3.41 1.33-5.48.91-2.14 2.06-4.16 3.42-6.01 1.35-1.85 2.8-3.43 4.3-4.69 1.34-1.13 2.53-1.71 3.52-1.71h.12q-.045.06-.12.12c-.45.45-.92.95-1.44 1.52"/><path fill="#682717" d="m231.541 123.68-3.9-4.63c-1.08-.98-.08-2.71-1.98-2.71-2.87 0-5.3 1.08-7.21 3.21-1.87 2.09-2.82 4.66-2.82 7.64 0 3.59 1.39 6.61 4.12 8.98 2.72 2.36 7.03 3.5 13.19 3.5s11.15-1.45 14.86-4.32c3.8-2.94 5.73-6.71 5.73-11.2 0-1.94-.38-3.66-1.12-5.12-.72-1.41-1.64-2.63-2.73-3.63-1.04-.95-2.18-1.8-3.4-2.53-1.15-.69-2.24-1.31-3.21-1.85-2.01-1.15-2.83-2.03-3.16-2.56-.47-.74-.71-1.41-.71-1.99 0-.85.36-1.61 1.09-2.32s1.87-1.07 3.37-1.07c1.16 0 2.02.2 2.42.57.57.53.57.91.57 1.03 0 .48-.12.85-.41 1.22-.6.82-.9 1.76-.9 2.79 0 .89.3 2.17 1.75 3.23 1.04.76 2.45 1.15 4.19 1.15 3.18 0 5.66-1.11 7.38-3.31 1.65-2.1 2.48-4.47 2.48-7.04 0-1.34-.26-2.74-.77-4.16-.53-1.46-1.44-2.81-2.69-4.01-1.24-1.18-2.92-2.15-4.99-2.9-2.04-.73-4.61-1.1-7.63-1.1-5.83 0-10.6 1.43-14.17 4.24q-2.01 1.59-3.3 3.51c.03-.34.05-.67.05-1.01 0-1.95-.56-3.56-1.67-4.81-1.15-1.28-2.77-1.93-4.83-1.93s-4.08.66-6.03 1.98c-1.8 1.21-3.34 2.43-4.56 3.58-.71.63-1.32 1.24-1.84 1.81.29-.98.43-1.98.43-2.99 0-1.79-.79-2.8-1.46-3.33-.89-.71-2.14-1.05-3.82-1.05-1.95 0-3.95.38-5.97 1.14-1.96.74-3.76 1.63-5.35 2.65-1.4.9-2.59 1.86-3.57 2.86.05-.36.08-.72.08-1.06 0-1.45-.36-2.72-1.08-3.78-.82-1.21-2.34-1.83-4.53-1.83-1.95 0-4.01.43-6.12 1.28-2.05.83-3.93 1.86-5.59 3.06s-3.06 2.49-4.16 3.82c-.29.35-.54.68-.76 1.01.36-1.03.54-2.02.54-2.98 0-1.47-.47-2.85-1.39-4.11-1.01-1.37-2.84-2.07-5.44-2.07-1.46 0-3.16.33-5.19 1.01-1.95.65-3.88 1.51-5.71 2.56-1.86 1.06-3.48 2.26-4.8 3.55l-2.15-.17s-1.68-.88-3.3-2.71c-2.48-2.81-6.08-4.24-10.69-4.24-3.77 0-7.39.81-10.74 2.42-3.3 1.58-6.36 3.69-9.12 6.28a37.7 37.7 0 0 0-4.83 5.5c-1.45 2.01-2.72 4.11-3.75 6.25a34.5 34.5 0 0 0-2.42 6.54c-.57 2.22-.86 4.39-.86 6.45 0 4.68 1.35 8.5 4.03 11.35 2.69 2.87 6.42 4.33 11.08 4.33 3.56 0 7.03-.8 10.33-2.38 3.25-1.56 6.3-3.75 9.08-6.53 1.57-1.62 3.07-3.47 4.47-5.48 1.39-2.01 2.63-4.1 3.66-6.23 1.04-2.13 1.88-4.35 2.5-6.6.63-2.28.95-4.52.95-6.64 0-.65-.03-1.28-.08-1.9.37.67.92 1.03 1.32 1.21.79.36 1.63.58 2.48.64.59.05 1.13.13 1.61.27v.11c0 .63-.25 1.8-1.42 3.82-1.06 1.83-2.22 3.8-3.48 5.94a73 73 0 0 0-3.54 7.04c-1.13 2.58-1.7 5.13-1.7 7.59 0 3.32 1.04 5.72 3.08 7.14 1.9 1.32 3.93 1.99 6.04 1.99 1.81 0 3.51-.47 5.07-1.41 1.43-.86 2.74-1.84 3.89-2.9 1.09-1.01 2.08-1.93 2.95-2.75.71-.66 1.11-.83 1.28-.87.02.04.03.11.05.19.16.8.32 1.7.48 2.65.18 1.16.51 2.22.98 3.15.44.88 1.38 1.93 3.39 1.93 1.81 0 3.64-.41 5.43-1.22 1.69-.76 3.37-1.69 5.04-2.78 1.52-1.07 2.91-2.23 4.13-3.45a6.1 6.1 0 0 0-.36 2.02c0 2.17 1.03 3.72 2.97 4.49 1.59.63 3.52.95 5.75.95.99 0 2.06-.1 3.18-.31 1.14-.21 2.21-.55 3.17-1 1.04-.49 1.91-1.15 2.6-1.97.77-.91 1.16-2.03 1.16-3.31 0-1.88.27-4.27.8-7.12.52-2.82 1.51-5.86 2.95-9.05 1.47-3.46 3.05-6.19 4.71-8.13 1.95-2.28 3.05-2.62 3.54-2.62.07 0 .12 0 .16.01.14.77.44 1.55.88 2.32.42.69.94 1.26 1.54 1.69.69.49 1.69.72 3.06.72 1.65 0 3.2-.43 4.62-1.28 1.35-.81 2.55-1.87 3.58-3.16.39-.49.74-1.02 1.07-1.56-.02.3-.03.61-.03.92 0 3.08.83 5.63 2.47 7.57 1.54 1.83 3.4 3.37 5.54 4.58 1.94 1.1 3.48 2.12 4.56 3.02.86.72 1.26 1.54 1.26 2.59 0 .99-.4 1.79-1.26 2.51-.91.76-2.23 1.14-3.94 1.14-1.3 0-2.26-.22-2.85-.66-.32-.24-.71-.59-.71-.94q0-.525.45-1.08l.04-.06m-116.96 2.11c-1.06 0-1.52-.44-1.78-.78-.48-.61-.72-1.47-.72-2.54 0-1.84.57-4.08 1.7-6.66 1.15-2.64 2.64-5.12 4.42-7.38 1.33-1.69 2.79-3.1 4.32-4.17 1.41-.99 2.77-1.49 4.02-1.49.76 0 1.33.22 1.8.69.46.46.69 1.21.69 2.22 0 1.94-.62 4.26-1.85 6.92-1.26 2.73-2.8 5.23-4.6 7.46-1.34 1.75-2.76 3.18-4.21 4.25-1.33.98-2.6 1.47-3.79 1.47zm73.7-22.64c.64.68 1.56 1.1 2.73 1.25h.02c.97.11 1.35.36 1.49.5.21.21.32.7.32 1.35 0 .85-.2 1.9-.59 3.13a43 43 0 0 1-1.63 4.25c-.67 1.53-1.43 3.1-2.25 4.66-.86 1.62-1.69 3.17-2.47 4.58-1.24 2.16-2.35 3.91-3.3 5.22.1-.41.14-.83.14-1.26 0-2.35-1.5-2.89-2.14-3.01-.81-.15-1.68-.23-2.56-.23-.76 0-1.47-.08-2.13-.26-.03-.03-.12-.23-.12-.69 0-.73.34-2.17 1.98-4.87 1.43-2.35 3.03-4.88 4.78-7.55 1.7-2.69 3.29-5.35 4.74-7.92.08-.14.15-.28.23-.42.17.47.42.89.77 1.26zm-19.68 2.16c.31.23.62.48.91.75.03.03.13.24.13.71 0 .51-.14 1.19-.42 2-.31.89-.73 1.86-1.27 2.89-.55 1.04-1.17 2.07-1.85 3.07-.66.97-1.38 1.84-2.14 2.6a80 80 0 0 1-4.15 3.87c-1.2 1.04-2.37 1.57-3.47 1.57-.4 0-.67-.08-.8-.25-.09-.12-.31-.5-.31-1.51 0-.74.17-1.68.52-2.78.36-1.15.86-2.39 1.48-3.67.63-1.28 1.37-2.57 2.21-3.83a47 47 0 0 1 2.63-3.58c1.56-1.89 2.91-3.77 4.03-5.59.1-.16.2-.33.29-.49-.07.29-.1.57-.1.85 0 1.1.33 1.94.98 2.48.41.34.86.65 1.35.9z"/><path fill="#682717" d="M286.91 90.56c-3.86 0-7.73 1.06-11.5 3.15a38.7 38.7 0 0 0-9.95 7.91 42.7 42.7 0 0 0-7.09 10.76c-1.84 4-2.78 7.94-2.78 11.71 0 4.57 1.38 8.35 4.11 11.23 2.75 2.9 6.39 4.37 10.83 4.37 2.83 0 5.65-.57 8.38-1.69 2.69-1.1 5.11-2.48 7.21-4.1 2.11-1.63 3.85-3.41 5.18-5.31 1.4-2.01 2.11-3.91 2.11-5.64 0-1.14-.34-2.19-1.02-3.12-.53-.72-1.58-1.58-3.6-1.58-1.44 0-2.84.42-4.16 1.26-1.13.72-2.29 1.5-3.46 2.34-1.16.84-2.37 1.61-3.59 2.29-1.1.61-2.28.91-3.6.91-1.48 0-2.51-.35-3.14-1.08-.67-.78-1-1.67-1-2.73 0-.65-.14.01.13-.45.17-.29.7-.35 1.11-.35.66 0 1.56.05 2.6.15 1.2.17 2.56.26 4.03.26 2.72 0 5.67-1.75 8.21-2.82 2.52-1.06 4.78-2.49 6.71-4.24a21.8 21.8 0 0 0 4.65-5.95c1.18-2.25 1.78-4.57 1.78-6.89 0-2.67-1.01-5.09-3.01-7.18-2.02-2.11-5.09-3.17-9.14-3.17zm-3.52 12.03c.56 0 .77.12.79.15q.24.315.24.96c0 .69-.3 1.44-.89 2.22-.69.91-1.54 1.75-2.53 2.49-1 .75-2.11 1.37-3.31 1.84-1.15.46-2.18.69-3.05.69-.12 0-.21 0-.28-.01.04-.25.22-.8.88-1.78.69-1.02 1.53-2.03 2.51-3.01.97-.97 2.03-1.84 3.16-2.58.97-.64 1.83-.98 2.49-.98zM74.45 134.61c-4.65 0-8.44-1.48-11.27-4.4-2.82-2.9-4.25-6.62-4.25-11.03 0-3.77.92-7.7 2.73-11.7 1.79-3.94 4.13-7.57 6.96-10.79 2.83-3.23 6.08-5.92 9.65-8 3.65-2.12 7.32-3.2 10.91-3.2 4.07 0 7.22 1.22 9.34 3.62 2.09 2.36 3.14 5.17 3.14 8.37 0 1.71-.28 3.43-.84 5.11s-1.34 3.2-2.31 4.52c-1 1.36-2.22 2.48-3.65 3.33a9.2 9.2 0 0 1-4.78 1.32c-2.11 0-3.85-.59-5.17-1.75-1.37-1.2-2.07-2.75-2.07-4.6 0-1.22.28-2.29.84-3.2.47-.77.99-1.47 1.53-2.07.52-.57.99-1.07 1.44-1.52.05-.05.08-.09.12-.12h-.12c-1 0-2.18.57-3.52 1.71-1.5 1.27-2.95 2.85-4.3 4.69a30 30 0 0 0-3.42 6.01c-.88 2.07-1.33 3.91-1.33 5.48 0 1.36.32 2.28.95 2.74.77.56 1.6.82 2.53.82 1.17 0 2.28-.25 3.3-.74 1.12-.54 2.23-1.22 3.3-2.03 1.38-1.05 2.57-1.9 3.52-2.51 1.13-.73 2.38-1.1 3.72-1.1 1.6 0 2.87.47 3.8 1.39.93.93 1.4 2.1 1.4 3.48 0 1.58-.63 3.3-1.93 5.25-1.21 1.82-2.84 3.56-4.85 5.16-1.99 1.59-4.34 2.96-6.97 4.07-2.68 1.12-5.5 1.7-8.39 1.7zm14.73-46.58c-3.14 0-6.38.96-9.64 2.86-3.33 1.94-6.37 4.46-9.02 7.48a41 41 0 0 0-6.55 10.17c-1.66 3.66-2.51 7.25-2.51 10.65 0 3.79 1.16 6.82 3.53 9.27 2.36 2.44 5.45 3.63 9.45 3.63 2.55 0 5.04-.5 7.41-1.5 2.42-1.01 4.56-2.26 6.37-3.71 1.8-1.44 3.25-2.98 4.32-4.58 1-1.5 1.51-2.79 1.51-3.84 0-.7-.21-1.24-.65-1.68s-1.1-.65-2.01-.65c-.85 0-1.62.23-2.34.7-.9.58-2.03 1.39-3.36 2.4-1.2.92-2.46 1.69-3.74 2.3-1.37.65-2.85.98-4.39.98a6.77 6.77 0 0 1-4.02-1.3c-1.33-.96-2-2.57-2-4.79 0-1.91.52-4.09 1.53-6.47.99-2.32 2.23-4.51 3.7-6.51 1.47-2.01 3.05-3.73 4.71-5.13 1.81-1.53 3.55-2.3 5.16-2.3.68 0 1.28.16 1.78.48.67.43 1.04 1.09 1.04 1.85s-.35 1.44-1.03 2.12c-.41.41-.87.89-1.35 1.43-.44.49-.86 1.06-1.25 1.7-.31.51-.47 1.12-.47 1.87 0 1.1.39 1.98 1.2 2.69.86.75 2.01 1.12 3.51 1.12 1.25 0 2.39-.32 3.48-.97a9.6 9.6 0 0 0 2.9-2.65c.82-1.11 1.47-2.4 1.95-3.83.47-1.42.71-2.87.71-4.31 0-2.6-.82-4.79-2.51-6.69-1.65-1.86-4.08-2.77-7.44-2.77z"/><path fill="#cb2821" d="M89.181 86.76c3.71 0 6.51 1.06 8.39 3.19q2.82 3.195 2.82 7.53 0 2.37-.78 4.71c-.52 1.56-1.23 2.95-2.13 4.18s-1.99 2.22-3.27 2.99a7.97 7.97 0 0 1-4.13 1.15c-1.8 0-3.25-.48-4.34-1.43s-1.64-2.17-1.64-3.64c0-.98.22-1.83.65-2.54.44-.71.9-1.34 1.39-1.88.49-.55.95-1.04 1.39-1.47.44-.44.65-.85.65-1.23q0-.495-.45-.78c-.3-.19-.67-.29-1.1-.29-1.31 0-2.76.67-4.34 2.01s-3.08 2.97-4.5 4.91a31.4 31.4 0 0 0-3.56 6.26c-.96 2.24-1.43 4.23-1.43 5.98s.49 3.06 1.47 3.77 2.07 1.06 3.27 1.06c1.36 0 2.65-.29 3.85-.86s2.37-1.3 3.52-2.17c1.36-1.04 2.51-1.85 3.44-2.46q1.395-.9 3.03-.9 1.875 0 2.91 1.02 1.02 1.02 1.02 2.58c0 1.31-.57 2.82-1.72 4.54s-2.67 3.34-4.58 4.87-4.13 2.82-6.67 3.89c-2.54 1.06-5.17 1.6-7.9 1.6-4.31 0-7.76-1.34-10.36-4.01-2.59-2.67-3.89-6.06-3.89-10.15 0-3.6.87-7.33 2.62-11.17 1.75-3.85 4-7.34 6.75-10.48q4.14-4.71 9.33-7.74c3.47-2.02 6.89-3.03 10.27-3.03z"/><path fill="#682717" d="M112.051 134.61c-4.66 0-8.38-1.46-11.08-4.33-2.67-2.85-4.03-6.67-4.03-11.35 0-2.06.29-4.23.86-6.45.56-2.2 1.38-4.4 2.42-6.54 1.04-2.13 2.3-4.23 3.75-6.25 1.46-2.02 3.08-3.87 4.83-5.5 2.76-2.59 5.83-4.7 9.12-6.28 3.35-1.6 6.97-2.42 10.74-2.42 4.62 0 8.21 1.43 10.69 4.24 2.44 2.77 3.67 6.48 3.67 11.03 0 2.12-.32 4.36-.95 6.64-.62 2.25-1.46 4.47-2.5 6.6a46.5 46.5 0 0 1-3.66 6.23c-1.4 2.01-2.9 3.85-4.47 5.48-2.78 2.78-5.83 4.97-9.08 6.53-3.3 1.58-6.77 2.38-10.33 2.38zm16.61-46.58c-3.39 0-6.64.73-9.65 2.17-3.06 1.47-5.91 3.43-8.48 5.84a35 35 0 0 0-4.5 5.14 39 39 0 0 0-3.53 5.87c-.97 1.99-1.72 4.03-2.24 6.06-.52 2.02-.78 3.97-.78 5.83 0 4.07 1.09 7.21 3.34 9.61 2.23 2.38 5.24 3.53 9.23 3.53 3.18 0 6.28-.72 9.24-2.13 2.99-1.43 5.81-3.46 8.37-6.02 1.46-1.51 2.87-3.25 4.19-5.15s2.49-3.88 3.46-5.89a36 36 0 0 0 2.33-6.17c.57-2.06.85-4.07.85-5.97 0-3.92-1.02-7.07-3.04-9.35-2-2.27-4.88-3.38-8.79-3.38zm-14.65 36.02c-1.59 0-2.9-.61-3.79-1.76-.83-1.07-1.25-2.44-1.25-4.09 0-2.19.64-4.77 1.91-7.67 1.24-2.84 2.84-5.51 4.75-7.93 1.49-1.89 3.12-3.46 4.85-4.67 1.85-1.29 3.69-1.95 5.48-1.95 1.43 0 2.64.48 3.6 1.43.95.96 1.44 2.3 1.44 4.01 0 2.31-.7 4.99-2.08 7.98-1.35 2.92-3 5.59-4.91 7.96-1.46 1.92-3.05 3.52-4.69 4.73-1.77 1.3-3.55 1.97-5.3 1.97zm11.95-25.54c-1.26 0-2.61.5-4.02 1.49-1.53 1.07-2.98 2.47-4.32 4.17a33.2 33.2 0 0 0-4.42 7.38c-1.13 2.58-1.7 4.82-1.7 6.66 0 1.07.24 1.93.72 2.54.26.33.72.78 1.78.78 1.19 0 2.47-.5 3.79-1.47 1.45-1.07 2.87-2.5 4.21-4.25 1.8-2.23 3.35-4.73 4.6-7.46 1.23-2.66 1.85-4.98 1.85-6.92q0-1.515-.69-2.22c-.47-.47-1.05-.69-1.8-.69z"/><path fill="#cb2821" d="M109.671 95.11c2.67-2.51 5.61-4.53 8.8-6.06s6.59-2.29 10.19-2.29c4.26 0 7.5 1.27 9.74 3.81s3.36 5.94 3.36 10.19q0 3.03-.9 6.3c-.6 2.18-1.41 4.31-2.42 6.39s-2.2 4.09-3.56 6.06a42 42 0 0 1-4.34 5.32c-2.67 2.67-5.58 4.76-8.72 6.26q-4.71 2.25-9.78 2.25c-4.31 0-7.7-1.31-10.15-3.93s-3.68-6.11-3.68-10.48c0-1.96.27-4.01.82-6.14.54-2.13 1.32-4.23 2.33-6.3s2.22-4.09 3.64-6.06c1.42-1.96 2.97-3.74 4.67-5.32m20.06 6.3c0-1.36-.36-2.4-1.06-3.11-.71-.71-1.61-1.06-2.7-1.06-1.53 0-3.11.57-4.75 1.72s-3.17 2.62-4.58 4.42c-1.86 2.35-3.38 4.9-4.58 7.65-1.2 2.76-1.8 5.14-1.8 7.16 0 1.36.33 2.47.98 3.32s1.58 1.27 2.78 1.27c1.47 0 2.99-.57 4.54-1.72s3.04-2.65 4.46-4.5c1.85-2.29 3.44-4.86 4.75-7.7s1.96-5.32 1.96-7.45"/><path fill="#682717" d="M165.421 134.61c-2 0-2.95-1.05-3.39-1.93-.47-.93-.79-1.99-.98-3.15-.16-.96-.32-1.85-.48-2.65-.02-.09-.04-.15-.05-.19-.16.04-.57.21-1.28.87-.88.82-1.86 1.74-2.95 2.75a24 24 0 0 1-3.89 2.9 9.7 9.7 0 0 1-5.07 1.41c-2.11 0-4.15-.67-6.04-1.99-2.05-1.42-3.08-3.82-3.08-7.14 0-2.46.57-5.01 1.7-7.59 1.08-2.46 2.27-4.83 3.54-7.04 1.26-2.14 2.42-4.11 3.48-5.94 1.18-2.02 1.42-3.2 1.42-3.82v-.11a9 9 0 0 0-1.61-.27c-.85-.06-1.69-.28-2.48-.64-.64-.29-1.72-1.06-1.72-2.91 0-1.55.76-3.08 2.26-4.55 1.32-1.3 2.94-2.49 4.8-3.55 1.84-1.04 3.76-1.91 5.71-2.56 2.03-.68 3.73-1.01 5.19-1.01 2.6 0 4.43.7 5.44 2.07.93 1.26 1.39 2.64 1.39 4.11 0 .96-.18 1.96-.54 2.98.22-.33.47-.66.76-1.01 1.1-1.33 2.5-2.62 4.16-3.82s3.54-2.23 5.59-3.06c2.11-.85 4.17-1.28 6.12-1.28 2.18 0 3.71.61 4.53 1.83.72 1.06 1.08 2.33 1.08 3.78 0 1.88-.76 4.14-2.33 6.93-1.45 2.57-3.04 5.23-4.74 7.92-1.74 2.67-3.35 5.21-4.78 7.55-1.64 2.69-1.98 4.13-1.98 4.87 0 .45.09.65.12.69.66.17 1.37.26 2.13.26.89 0 1.75.08 2.56.23.65.12 2.14.65 2.14 3.01 0 1.65-.72 3.21-2.13 4.62a31 31 0 0 1-4.14 3.46 37 37 0 0 1-5.04 2.78c-1.8.81-3.62 1.22-5.43 1.22zm-4.83-10.48c1.27 0 2.19.84 2.47 2.25.17.83.33 1.75.5 2.74.14.91.39 1.73.74 2.42.09.18.26.53 1.12.53 1.45 0 2.93-.33 4.39-.99 1.57-.71 3.14-1.57 4.66-2.56 1.37-.96 2.65-2.03 3.77-3.15.93-.93 1.39-1.86 1.39-2.83 0-.35-.06-.51-.08-.54-.65-.09-1.36-.15-2.09-.15-.98 0-1.9-.11-2.73-.33-.77-.2-2.05-.87-2.05-3.15 0-1.56.77-3.59 2.35-6.19 1.44-2.37 3.06-4.93 4.81-7.61 1.67-2.63 3.24-5.26 4.66-7.79 1.33-2.36 2.01-4.27 2.01-5.68 0-.95-.21-1.72-.64-2.36-.31-.46-1.17-.71-2.43-.71-1.63 0-3.37.37-5.18 1.1-1.86.75-3.56 1.68-5.05 2.76s-2.73 2.22-3.7 3.38c-1.1 1.33-1.26 2.07-1.26 2.39 0 .42.09.55.09.55q.405.345.93.6l.18.11c.42.3.84.64 1.22 1 .62.58.94 1.44.94 2.57 0 .8-.18 1.73-.56 2.83-.35 1.01-.83 2.11-1.43 3.25-.59 1.13-1.26 2.24-2 3.32a20.6 20.6 0 0 1-2.44 2.96 85 85 0 0 1-4.28 3.99c-1.68 1.45-3.4 2.19-5.13 2.19-1.53 0-2.37-.67-2.8-1.23-.56-.73-.84-1.73-.84-3.07 0-1 .21-2.19.63-3.53.4-1.28.94-2.63 1.63-4.03.68-1.38 1.48-2.77 2.38-4.12.89-1.34 1.82-2.61 2.77-3.78 1.49-1.81 2.78-3.59 3.84-5.31.96-1.56 1.45-3.01 1.45-4.29 0-.93-.29-1.78-.9-2.61-.63-.86-2.2-1.04-3.4-1.04s-2.64.29-4.39.88c-1.8.6-3.57 1.39-5.26 2.35-1.67.95-3.12 2.02-4.28 3.16-1 .97-1.5 1.89-1.5 2.74 0 .5.15.56.24.61.52.24 1.06.38 1.61.42.8.06 1.53.19 2.18.37 1.11.32 1.78 1.26 1.78 2.53 0 1.39-.58 3.06-1.77 5.1q-1.605 2.745-3.48 5.94a69 69 0 0 0-3.41 6.78c-.99 2.26-1.49 4.47-1.49 6.57 0 2.47.65 4.13 1.99 5.06 1.49 1.03 2.99 1.53 4.6 1.53 1.36 0 2.59-.34 3.77-1.05a21.4 21.4 0 0 0 3.48-2.59c1.09-1.01 2.07-1.92 2.94-2.74 1.13-1.06 2.13-1.57 3.08-1.57zm5.22-27.33c-.09.16-.19.32-.29.49-1.12 1.82-2.48 3.7-4.03 5.59-.89 1.1-1.78 2.31-2.63 3.58-.84 1.26-1.58 2.54-2.21 3.83-.63 1.28-1.12 2.51-1.48 3.67-.34 1.1-.52 2.03-.52 2.78 0 1.01.21 1.4.31 1.51.13.16.4.25.8.25 1.1 0 2.27-.53 3.47-1.57 1.42-1.23 2.81-2.53 4.15-3.87.76-.76 1.48-1.64 2.14-2.6.68-.99 1.3-2.03 1.85-3.07.54-1.03.97-2 1.27-2.89.28-.82.42-1.49.42-2 0-.47-.09-.67-.13-.71-.29-.26-.59-.52-.91-.75q-.735-.375-1.35-.9c-.65-.54-.98-1.38-.98-2.48 0-.28.03-.56.1-.85z"/><path fill="#cb2821" d="M165.423 133.34q-1.635 0-2.25-1.23c-.41-.82-.7-1.75-.86-2.78-.16-.98-.33-1.88-.49-2.7q-.24-1.23-1.23-1.23c-.6 0-1.34.41-2.21 1.23s-1.86 1.73-2.95 2.74a22.4 22.4 0 0 1-3.68 2.74 8.4 8.4 0 0 1-4.42 1.23c-1.86 0-3.63-.59-5.32-1.76s-2.54-3.21-2.54-6.1c0-2.29.53-4.65 1.6-7.08 1.06-2.43 2.22-4.73 3.48-6.92 1.25-2.13 2.42-4.11 3.48-5.93 1.06-1.83 1.6-3.32 1.6-4.46 0-.71-.29-1.15-.86-1.31s-1.22-.27-1.92-.33c-.71-.05-1.39-.23-2.05-.53s-.98-.89-.98-1.76c0-1.2.63-2.41 1.88-3.64s2.77-2.35 4.54-3.36 3.6-1.83 5.48-2.46 3.48-.94 4.79-.94c2.18 0 3.66.52 4.42 1.56s1.15 2.16 1.15 3.36c0 1.53-.55 3.18-1.64 4.95s-2.4 3.59-3.93 5.44c-.93 1.15-1.83 2.37-2.7 3.68s-1.64 2.63-2.29 3.97a29 29 0 0 0-1.56 3.85q-.57 1.845-.57 3.15c0 1.04.19 1.8.57 2.29s.98.74 1.8.74c1.42 0 2.85-.63 4.3-1.88 1.45-1.26 2.85-2.57 4.22-3.93.82-.82 1.58-1.75 2.29-2.78.71-1.04 1.35-2.1 1.92-3.19s1.02-2.11 1.35-3.07c.33-.95.49-1.76.49-2.42 0-.76-.18-1.31-.53-1.64-.36-.33-.72-.63-1.1-.9-.44-.22-.83-.48-1.19-.78s-.53-.8-.53-1.51c0-.87.52-1.94 1.56-3.19s2.35-2.46 3.93-3.6c1.58-1.15 3.36-2.11 5.32-2.91 1.96-.79 3.85-1.19 5.65-1.19s2.91.42 3.48 1.27.86 1.87.86 3.07c0 1.64-.72 3.74-2.17 6.3q-2.175 3.855-4.71 7.86c-1.75 2.67-3.34 5.2-4.79 7.57s-2.17 4.22-2.17 5.53q0 1.635 1.11 1.92c.74.19 1.54.29 2.42.29.82 0 1.6.07 2.33.2.74.14 1.11.72 1.11 1.76 0 1.31-.59 2.55-1.76 3.72s-2.5 2.28-3.97 3.32a35 35 0 0 1-4.83 2.66c-1.64.74-3.27 1.11-4.91 1.11z"/><path fill="#682717" d="M188.388 134.61c-2.22 0-4.16-.32-5.75-.95-1.94-.77-2.97-2.32-2.97-4.49 0-1.53.64-3.14 1.9-4.78 1.05-1.36 2.31-3.32 3.75-5.83.78-1.41 1.62-2.95 2.47-4.58.82-1.56 1.58-3.13 2.25-4.66.66-1.5 1.21-2.93 1.63-4.25.39-1.23.59-2.28.59-3.13 0-.65-.12-1.15-.32-1.35-.14-.14-.52-.39-1.49-.49h-.02c-1.17-.15-2.09-.57-2.73-1.25-.65-.69-1-1.57-1-2.54 0-1.15.59-2.37 1.8-3.71 1.05-1.17 2.41-2.29 4.02-3.32 1.59-1.02 3.39-1.91 5.35-2.65 2.02-.76 4.03-1.14 5.97-1.14 1.67 0 2.92.34 3.82 1.05.67.53 1.46 1.54 1.46 3.33 0 1.01-.14 2.01-.43 2.99.52-.57 1.13-1.18 1.84-1.81 1.21-1.16 2.76-2.37 4.56-3.58 1.95-1.31 3.98-1.98 6.03-1.98s3.69.65 4.83 1.93c1.11 1.24 1.67 2.86 1.67 4.81 0 1.61-.3 3.25-.9 4.85a15.9 15.9 0 0 1-2.4 4.31 13.3 13.3 0 0 1-3.58 3.16 8.9 8.9 0 0 1-4.62 1.28c-1.37 0-2.38-.24-3.06-.72-.6-.43-1.12-1-1.54-1.69-.45-.77-.74-1.54-.88-2.32-.03 0-.08-.01-.16-.01-.49 0-1.59.34-3.54 2.62-1.65 1.94-3.24 4.67-4.71 8.13-1.44 3.19-2.43 6.23-2.95 9.05-.53 2.85-.8 5.25-.8 7.12 0 1.28-.39 2.4-1.16 3.31-.69.82-1.56 1.48-2.6 1.97-.96.45-2.03.79-3.17 1-1.12.2-2.18.31-3.18.31zm2.35-37.01c1.34.14 2.32.54 3 1.22.71.71 1.07 1.77 1.07 3.15 0 1.11-.24 2.42-.72 3.9a48 48 0 0 1-1.72 4.49c-.7 1.58-1.48 3.21-2.33 4.82-.86 1.64-1.71 3.2-2.51 4.64-1.53 2.66-2.82 4.66-3.95 6.12-.91 1.18-1.37 2.27-1.37 3.23 0 1.11.41 1.75 1.37 2.13 1.29.51 2.91.77 4.81.77.84 0 1.76-.09 2.72-.26.93-.17 1.79-.44 2.56-.8.7-.33 1.29-.77 1.74-1.3.38-.45.56-1 .56-1.68 0-2.03.28-4.58.84-7.59.56-3.02 1.61-6.25 3.12-9.61 1.56-3.67 3.28-6.63 5.1-8.76 2.02-2.36 3.81-3.51 5.47-3.51 1.34 0 2.32.73 2.62 1.94l.02.1c.08.5.28 1.01.58 1.53.23.38.5.69.82.91.06.04.43.26 1.6.26s2.28-.3 3.32-.92c1.09-.65 2.06-1.51 2.89-2.56.84-1.06 1.52-2.28 2.02-3.62.49-1.32.74-2.66.74-3.97s-.34-2.34-1.03-3.12c-.65-.73-1.62-1.09-2.94-1.09-1.54 0-3.09.52-4.61 1.54-1.68 1.13-3.11 2.26-4.25 3.34-.96.85-1.7 1.62-2.25 2.32-.95 1.11-1.85 1.63-2.8 1.63-1.08 0-1.84-.76-1.84-1.84 0-.53.17-1.13.53-1.84.47-1.08.7-2.2.7-3.31 0-.84-.29-1.17-.5-1.34-.29-.23-.91-.5-2.24-.5-1.64 0-3.35.33-5.08.98-1.79.68-3.44 1.49-4.88 2.41-1.43.91-2.61 1.89-3.51 2.89-1.04 1.15-1.15 1.79-1.15 2.01 0 .33.09.58.31.8.23.24.63.4 1.19.47z"/><path fill="#cb2821" d="M190.598 98.85c-.87-.11-1.531-.39-1.961-.86-.44-.46-.649-1.02-.649-1.68 0-.82.49-1.77 1.47-2.86s2.239-2.12 3.769-3.11c1.53-.98 3.231-1.82 5.121-2.53 1.88-.71 3.72-1.06 5.53-1.06q2.04 0 3.03.78c.65.52.979 1.3.979 2.33a9.5 9.5 0 0 1-.819 3.85c-.27.55-.41.98-.41 1.31q0 .57.569.57c.54 0 1.15-.38 1.8-1.15q.9-1.14 2.37-2.46 1.798-1.725 4.421-3.48c1.75-1.17 3.519-1.76 5.319-1.76 1.69 0 2.99.5 3.89 1.51q1.35 1.515 1.351 3.96.002 2.205-.821 4.41c-.55 1.47-1.279 2.79-2.209 3.96a12 12 0 0 1-3.231 2.86c-1.23.74-2.55 1.1-3.97 1.1-1.09 0-1.869-.16-2.329-.49s-.86-.76-1.19-1.31c-.38-.65-.631-1.31-.741-1.96-.16-.65-.63-.98-1.39-.98q-1.89 0-4.5 3.06c-1.75 2.04-3.38 4.86-4.91 8.46-1.47 3.27-2.48 6.37-3.03 9.32-.55 2.94-.819 5.39-.819 7.36 0 .98-.29 1.81-.86 2.49s-1.3 1.23-2.17 1.64-1.831.71-2.871.9-2.02.29-2.95.29c-2.07 0-3.83-.29-5.28-.86s-2.169-1.67-2.169-3.31c0-1.25.549-2.59 1.639-4.01s2.37-3.4 3.85-5.97c.82-1.47 1.65-3.01 2.5-4.62a73 73 0 0 0 2.29-4.74 47 47 0 0 0 1.68-4.37c.44-1.36.651-2.53.651-3.51 0-1.03-.23-1.78-.7-2.25-.46-.46-1.22-.75-2.25-.86z"/><path fill="#682717" d="M232.939 134.61c-6.16 0-10.47-1.15-13.19-3.5-2.74-2.37-4.12-5.39-4.12-8.98 0-2.98.95-5.55 2.82-7.64 1.91-2.13 4.33-3.21 7.21-3.21 1.9 0 3.41.5 4.49 1.47 1.12 1.01 1.69 2.24 1.69 3.64 0 1.2-.3 2.22-.9 3.04l-.04.06c-.3.37-.45.72-.45 1.08s.39.71.71.94c.59.44 1.55.66 2.85.66 1.71 0 3.03-.38 3.94-1.14.86-.72 1.26-1.51 1.26-2.51 0-1.05-.4-1.87-1.26-2.59-1.08-.9-2.62-1.92-4.56-3.02-2.14-1.22-4.01-2.76-5.54-4.58-1.64-1.95-2.47-4.49-2.47-7.57 0-4.43 1.86-8.14 5.52-11.02 3.57-2.82 8.34-4.24 14.17-4.24 3.02 0 5.59.37 7.63 1.1 2.07.74 3.75 1.72 4.99 2.9 1.26 1.2 2.16 2.54 2.69 4.01.51 1.42.77 2.82.77 4.16 0 2.57-.83 4.94-2.48 7.04-1.72 2.2-4.2 3.31-7.38 3.31-1.74 0-3.15-.39-4.19-1.15-1.44-1.06-1.75-2.34-1.75-3.23 0-1.03.3-1.97.9-2.79.29-.37.41-.74.41-1.22 0-.13 0-.51-.57-1.03-.4-.36-1.26-.57-2.42-.57-1.51 0-2.64.36-3.37 1.07s-1.09 1.47-1.09 2.32c0 .57.24 1.24.71 1.99.34.53 1.15 1.41 3.16 2.56.97.54 2.06 1.17 3.21 1.85 1.22.73 2.36 1.58 3.4 2.53 1.09 1 2.01 2.22 2.73 3.63.74 1.46 1.12 3.18 1.12 5.12 0 4.49-1.93 8.25-5.73 11.2-3.7 2.86-8.7 4.32-14.86 4.32zm-7.28-20.79c-2.15 0-3.89.77-5.32 2.36-1.46 1.63-2.17 3.58-2.17 5.95 0 2.86 1.06 5.17 3.25 7.06 2.21 1.91 6.09 2.88 11.53 2.88s10.06-1.27 13.31-3.79c3.19-2.47 4.75-5.48 4.75-9.19 0-1.54-.28-2.87-.84-3.97-.58-1.14-1.32-2.12-2.18-2.92-.91-.84-1.92-1.58-2.99-2.22-1.13-.67-2.19-1.29-3.16-1.82-2.02-1.16-3.34-2.28-4.06-3.42-.73-1.15-1.09-2.28-1.09-3.34 0-1.55.62-2.94 1.86-4.14 1.22-1.19 2.95-1.79 5.14-1.79 1.87 0 3.22.4 4.13 1.23.93.85 1.39 1.83 1.39 2.9s-.31 1.98-.93 2.76c-.24.34-.38.76-.38 1.25 0 .31.08.73.71 1.19.59.43 1.5.65 2.69.65 2.39 0 4.16-.76 5.39-2.34 1.31-1.67 1.94-3.46 1.94-5.48 0-1.05-.21-2.15-.62-3.29-.4-1.09-1.09-2.11-2.06-3.03-.98-.93-2.36-1.72-4.1-2.34-1.77-.63-4.05-.95-6.78-.95-5.25 0-9.49 1.24-12.6 3.7-3.06 2.42-4.55 5.37-4.55 9.03 0 2.5.61 4.44 1.87 5.94 1.34 1.6 2.97 2.95 4.85 4.01 2.07 1.18 3.73 2.28 4.93 3.28 1.44 1.2 2.18 2.73 2.18 4.53s-.73 3.25-2.18 4.45c-1.37 1.14-3.24 1.73-5.56 1.73-1.88 0-3.3-.38-4.35-1.15-1.44-1.06-1.75-2.21-1.75-2.99 0-.94.33-1.83 1-2.65.27-.38.4-.88.4-1.52s-.27-1.24-.85-1.76c-.6-.54-1.54-.82-2.79-.82z"/><path fill="#cb2821" d="M234.011 111.81a19 19 0 0 1-5.2-4.3c-1.45-1.72-2.17-3.97-2.17-6.75 0-4.04 1.68-7.38 5.03-10.03 3.36-2.65 7.82-3.97 13.39-3.97q4.335 0 7.2 1.02c1.91.68 3.42 1.56 4.54 2.62s1.91 2.24 2.37 3.52.7 2.53.7 3.72c0 2.29-.74 4.38-2.21 6.26q-2.205 2.82-6.39 2.82c-1.47 0-2.62-.3-3.44-.9s-1.23-1.34-1.23-2.21c0-.76.22-1.45.65-2.05.44-.55.66-1.2.66-1.96 0-.71-.33-1.36-.98-1.96s-1.75-.9-3.27-.9c-1.86 0-3.27.48-4.26 1.43-.98.96-1.47 2.03-1.47 3.23 0 .82.3 1.71.9 2.66.6.96 1.8 1.95 3.6 2.99.98.55 2.05 1.16 3.19 1.84 1.15.68 2.21 1.47 3.19 2.37q1.47 1.35 2.46 3.27c.65 1.28.98 2.8.98 4.54 0 4.09-1.75 7.49-5.24 10.19s-8.19 4.05-14.08 4.05-9.91-1.06-12.36-3.19c-2.46-2.13-3.68-4.8-3.68-8.02 0-2.67.83-4.94 2.5-6.8 1.66-1.85 3.75-2.78 6.26-2.78 1.58 0 2.8.38 3.64 1.15.85.76 1.27 1.67 1.27 2.7 0 .93-.22 1.69-.66 2.29-.49.6-.74 1.23-.74 1.88 0 .71.41 1.37 1.23 1.96q1.23.9 3.6.9c2.02 0 3.6-.48 4.75-1.43s1.72-2.11 1.72-3.48-.57-2.61-1.72-3.56-2.73-2.01-4.75-3.15z"/><path fill="#682717" d="M270.542 134.61c-4.44 0-8.08-1.47-10.83-4.37-2.73-2.88-4.11-6.65-4.11-11.23 0-3.77.93-7.71 2.78-11.71 1.82-3.95 4.2-7.57 7.09-10.76 2.89-3.2 6.24-5.86 9.95-7.91 3.78-2.09 7.64-3.15 11.5-3.15 4.05 0 7.13 1.07 9.14 3.17 2 2.09 3.01 4.51 3.01 7.18 0 2.32-.6 4.64-1.78 6.89-1.16 2.2-2.72 4.2-4.65 5.95-1.93 1.76-4.18 3.18-6.71 4.24a20.4 20.4 0 0 1-7.94 1.61c-1.47 0-2.82-.09-4.03-.26-1.05-.1-1.94-.15-2.6-.15-.41 0-.94.06-1.11.35-.27.46-.4 1-.4 1.65 0 1.06.33 1.95 1 2.73.63.72 1.65 1.08 3.14 1.08 1.32 0 2.5-.3 3.6-.91 1.23-.68 2.44-1.45 3.59-2.29 1.17-.84 2.34-1.62 3.46-2.34 1.32-.84 2.72-1.26 4.16-1.26 2.02 0 3.07.86 3.6 1.58a5.18 5.18 0 0 1 1.02 3.12c0 1.73-.71 3.63-2.11 5.64-1.32 1.9-3.07 3.69-5.18 5.31-2.1 1.62-4.52 3-7.21 4.1-2.73 1.12-5.55 1.69-8.38 1.69zm16.37-46.58c-3.42 0-6.88.95-10.27 2.83a36.1 36.1 0 0 0-9.29 7.39c-2.71 3-4.96 6.41-6.67 10.12-1.69 3.66-2.54 7.24-2.54 10.64 0 3.96 1.12 7.06 3.42 9.48 2.28 2.41 5.22 3.58 8.99 3.58 2.5 0 4.99-.5 7.42-1.5 2.48-1.02 4.71-2.28 6.63-3.76 1.91-1.47 3.47-3.07 4.65-4.75 1.1-1.58 1.66-2.99 1.66-4.19 0-.6-.18-1.13-.53-1.63-.1-.13-.4-.54-1.55-.54-.96 0-1.88.28-2.8.87a79 79 0 0 0-3.34 2.25c-1.23.9-2.53 1.72-3.85 2.45-1.46.81-3.09 1.22-4.83 1.22-2.23 0-3.93-.66-5.05-1.95-1.07-1.24-1.62-2.72-1.62-4.39 0-1.1.25-2.08.75-2.93.43-.73 1.35-1.61 3.3-1.61.75 0 1.7.06 2.9.17 1.14.16 2.38.24 3.73.24 2.38 0 4.72-.48 6.96-1.42 2.26-.95 4.27-2.22 5.98-3.78s3.09-3.33 4.11-5.26c.99-1.88 1.49-3.8 1.49-5.71 0-2.02-.76-3.8-2.31-5.43-1.52-1.59-3.98-2.39-7.31-2.39zm-12.28 20.38c-.85 0-1.49-.18-1.97-.56-.55-.43-.86-1.09-.86-1.86 0-.93.42-1.99 1.32-3.33.78-1.16 1.73-2.29 2.82-3.38a22.4 22.4 0 0 1 3.56-2.9c1.43-.94 2.7-1.4 3.89-1.4 1.29 0 2.24.39 2.82 1.16.49.66.74 1.49.74 2.48 0 1.26-.47 2.52-1.4 3.75a15 15 0 0 1-3.03 2.99c-1.18.88-2.49 1.61-3.9 2.17-1.45.57-2.79.87-3.99.87zm-.28-2.54c.07 0 .16.01.28.01.87 0 1.9-.23 3.05-.69 1.2-.47 2.31-1.09 3.31-1.84.99-.74 1.84-1.58 2.53-2.49.59-.78.89-1.53.89-2.22q0-.645-.24-.96c-.02-.03-.23-.15-.79-.15-.66 0-1.52.34-2.49.98-1.12.74-2.19 1.61-3.16 2.58s-1.82 1.98-2.51 3.01c-.66.98-.83 1.53-.88 1.78z"/><path fill="#cb2821" d="M292.153 117.87c0 1.47-.63 3.11-1.88 4.91s-2.89 3.48-4.91 5.03c-2.02 1.56-4.33 2.87-6.92 3.93s-5.23 1.6-7.9 1.6c-4.09 0-7.4-1.32-9.91-3.97s-3.77-6.1-3.77-10.36c0-3.6.89-7.33 2.66-11.17a41.1 41.1 0 0 1 6.88-10.44c2.81-3.11 6.02-5.66 9.62-7.65s7.23-2.99 10.89-2.99 6.45.93 8.23 2.78c1.77 1.86 2.66 3.96 2.66 6.3 0 2.13-.55 4.23-1.64 6.3q-1.635 3.105-4.38 5.61c-1.83 1.67-3.94 3-6.34 4.01s-4.89 1.51-7.45 1.51c-1.42 0-2.7-.08-3.85-.25-1.15-.11-2.07-.16-2.78-.16-1.09 0-1.83.33-2.21.98s-.57 1.42-.57 2.29c0 1.36.44 2.55 1.31 3.56s2.24 1.51 4.09 1.51c1.53 0 2.93-.35 4.22-1.06 1.28-.71 2.52-1.5 3.73-2.37 1.15-.82 2.28-1.58 3.4-2.29s2.28-1.06 3.48-1.06 2.06.36 2.58 1.06q.78 1.065.78 2.37zm-17.52-10.72c1.04 0 2.21-.26 3.52-.78q1.965-.78 3.6-2.01c1.09-.82 2.02-1.73 2.78-2.74s1.15-2.01 1.15-2.99c0-.71-.16-1.28-.49-1.72q-.495-.66-1.8-.66c-.93 0-1.99.4-3.19 1.19s-2.32 1.71-3.36 2.74-1.92 2.1-2.66 3.19-1.11 1.97-1.11 2.62c0 .38.12.67.37.86s.64.29 1.19.29z"/><path fill="#682717" d="M145.148 193.79c-.79-.32-1.75-.43-2.84-.33-.94.09-1.95.25-2.98.47l-.07.02c-.86.24-1.6.36-2.2.36-.77 0-1.47-.11-2.06-.33-.11-.04-.28-.39-.28-1.18 0-.85.17-1.83.52-2.93.37-1.18.81-2.35 1.3-3.5.5-1.16 1.05-2.31 1.63-3.4.62-1.13 1.11-2.05 1.49-2.8.95-1.85 1.95-3.23 2.97-4.1.91-.77 2.25-1.17 4.01-1.17.53 0 1.09.05 1.66.14.67.12 1.27.18 1.78.18 1.66 0 2.96-.48 3.86-1.41.77-.81 1.45-1.94 2.08-3.51.6-1.63.9-2.95.9-4.04 0-.4-.04-.78-.11-1.14l-.04-.16c-.5-1.51-1.72-2.34-3.41-2.34-.51 0-1.2.03-2.12.08-1.11.07-1.64.08-1.89.08s-.38-.03-.44-.04v-.08c0-.66.21-1.4.63-2.19.5-.94 1.07-1.94 1.69-2.92.67-1.01 1.29-2.04 1.83-3.06.61-1.16.92-2.27.92-3.29 0-.88-.33-1.77-.99-2.64-.76-1.02-2.28-1.49-4.78-1.49-1.72 0-3.2.31-4.42.91-1.28.64-2.32 1.72-3.09 3.21-.7 1.34-1.39 2.73-2.07 4.13-.62 1.3-1.56 2.87-2.77 4.66-.63.93-1.29 1.66-1.95 2.18-.53.42-1.37.63-2.49.63-.46 0-.93-.05-1.39-.14l-.14-.02c-.66-.06-1.17-.09-1.59-.09-1.12 0-2.18.42-3.16 1.24-.7.6-1.34 1.3-1.91 2.08.03-.2.05-.39.05-.58 0-1.19-.46-2.87-2.63-4.16-1.53-.9-3.08-1.36-4.62-1.36-1.15 0-2.05.24-2.74.72-.59.42-1.05.89-1.36 1.41-.25.36-.49.69-.69.96 0 0-.04.01-.13.01-.43 0-.8-.1-1.15-.31-.54-.32-1.1-.67-1.73-1.07-.71-.41-1.51-.8-2.38-1.15-.98-.39-2.15-.58-3.58-.58-2.63 0-5.51.73-8.56 2.17-3.01 1.42-5.85 3.43-8.45 5.97-1.79 1.74-3.51 3.77-5.11 6.03-1.59 2.25-3 4.62-4.19 7.04-1.2 2.43-2.18 4.94-2.91 7.46-.61 2.12-.96 4.18-1.06 6.16-.45-.53-1.02-.74-1.35-.82-.8-.18-1.67-.28-2.58-.28-.69 0-1.34-.09-1.95-.29-.03-.03-.13-.23-.13-.74 0-.61.28-1.77 1.63-3.8 1.24-1.87 2.6-3.85 4.07-5.9 1.52-2.14 2.93-4.38 4.18-6.68 1.32-2.44 2-4.78 2-6.95 0-2.32-.85-4.48-2.52-6.4-1.72-1.97-4.13-2.97-7.18-2.97-2.04 0-4.08.48-6.07 1.43-1.92.92-3.71 2.08-5.32 3.46a44 44 0 0 0-3.31 3.14c-.66.74-1.27 1.12-1.81 1.13-.05-.68-.1-1.48-.16-2.46-.19-1.97-.87-3.58-2.02-4.8-1.2-1.27-2.98-1.91-5.3-1.91s-4.41.49-6.18 1.47c-1.65.91-3.3 2.06-4.88 3.43-1.24 1.07-2.33 2.13-3.23 3.14-.27.31-.5.53-.69.69.08-.79.12-1.61.12-2.47 0-1.49-.4-2.88-1.18-4.12-.9-1.42-2.5-2.15-4.76-2.15-1.77 0-3.54.43-5.27 1.28-1.61.79-3.04 1.63-4.24 2.49a36.3 36.3 0 0 0-5.01 4.37c-1.64 1.74-2.47 3.45-2.47 5.09 0 1.97 1.18 2.72 1.87 2.98.82.32 1.66.51 2.51.57.73.05 1.31.16 1.71.32 0 0 .13.18.13.79 0 1.35-.5 3.24-1.5 5.61-1.03 2.45-2.52 5.15-4.43 8.01-1.51 2.27-2.98 4.34-4.4 6.19-1.54 2.15-2.28 4.03-2.28 5.73 0 1.29.52 3.09 3.03 4.36 1.73.88 3.97 1.32 6.67 1.32 3.06 0 4.92-.59 5.86-1.87.77-1.06 1.32-2.44 1.69-4.23.21-1.11.53-2.47.96-4.04s.98-3.27 1.64-5.05 1.5-3.65 2.48-5.55c.97-1.89 2.16-3.75 3.52-5.54 1.57-2.04 3.18-3.73 4.78-5.03 1.45-1.17 2.81-1.77 4.03-1.77.22 0 .51.03.64.18.05.06.22.32.22 1.09 0 1.46-.55 3.5-1.62 6.06-1.11 2.64-2.59 5.39-4.41 8.17-1.46 2.33-2.85 4.43-4.14 6.25-1.48 2.09-2.2 3.94-2.2 5.64 0 1.28.49 3.07 2.83 4.35 1.63.89 3.83 1.34 6.54 1.34 2.9 0 4.78-.62 5.76-1.89.8-1.04 1.47-2.41 2-4.05l1.39-4.17c.53-1.6 1.17-3.32 1.9-5.13a74 74 0 0 1 2.54-5.6c.95-1.9 2.05-3.75 3.26-5.49 1.7-2.42 3.38-4.18 4.98-5.24 1.9-1.25 3.08-1.51 3.73-1.51.5 0 .73.16.85.27.16.15.26.56.26 1.08 0 1.14-.46 2.57-1.36 4.22-.99 1.82-2.18 3.81-3.51 5.89-1.53 2.34-2.94 4.49-4.26 6.47-1.44 2.22-2.17 4.63-2.17 7.16 0 2.68.83 4.72 2.47 6.06 1.56 1.28 3.44 1.92 5.59 1.92 1.81 0 3.64-.41 5.43-1.22 1.69-.76 3.37-1.69 5.04-2.78 1.52-1.07 2.92-2.24 4.14-3.46.76-.76 1.32-1.57 1.67-2.41.41 2.3 1.27 4.32 2.6 6.02 1.99 2.55 4.8 3.84 8.37 3.84 2.02 0 3.85-.47 5.46-1.4 1.5-.87 2.83-1.85 3.94-2.93a76 76 0 0 0 2.74-2.79c.39-.42.67-.63.83-.73 0 .02.01.05.02.08.11.85.3 1.8.55 2.83.29 1.19.82 2.28 1.59 3.23.9 1.13 2.37 1.7 4.35 1.7 1.67 0 3.27-.39 4.76-1.17 1.35-.7 2.61-1.46 3.76-2.27 1.63-1.18 3.13-2.47 4.46-3.82 1.52-1.55 2.28-3.17 2.28-4.82 0-2.35-1.46-2.88-2.09-3.01-.76-.15-1.61-.25-2.53-.31h-.08c-.68 0-1.27-.13-1.81-.4-.17-.08-.36-.51-.36-1.45 0-1.62.57-3.8 1.7-6.47 1.18-2.78 2.45-5.44 3.79-7.91 1.01-1.87 1.92-3.43 2.69-4.63.76-1.18 1.44-2.18 2.05-3.01-.28.88-.43 1.64-.43 2.28 0 1.66.91 2.39 1.45 2.68.69.36 1.57.57 2.68.63q1.125.075 1.92.3c.03.07.09.25.09.64 0 .48-.18 1.39-1.03 2.94-.79 1.44-1.67 3.03-2.65 4.76a46 46 0 0 0-2.74 5.84c-.84 2.18-1.27 4.43-1.27 6.71 0 4.42 1.26 7.65 3.76 9.61 2.4 1.89 5.23 2.84 8.4 2.84 1.83 0 3.69-.34 5.52-1.02 1.8-.67 3.43-1.56 4.84-2.64 1.42-1.09 2.6-2.37 3.52-3.8.98-1.51 1.47-3.09 1.47-4.7 0-1.95-1.06-2.68-1.69-2.93zm-44.01-21.01c.62 0 1.09.14 1.43.43.27.23.42.79.42 1.58 0 .93-.3 2.14-.89 3.62-.62 1.56-1.53 3.31-2.68 5.2-.63 1-1.39 2.06-2.26 3.17-.86 1.09-1.78 2.11-2.74 3.01-.94.89-1.91 1.63-2.88 2.2-.86.51-1.68.77-2.43.77-.95 0-1.36-.34-1.59-.59-.38-.43-.58-1.23-.58-2.31 0-1.45.46-3.17 1.36-5.12a27 27 0 0 1 3.56-5.71c1.42-1.76 3.02-3.28 4.75-4.52 1.6-1.15 3.13-1.73 4.54-1.73zm141.259-15.52c1.28.95 2.93 1.44 4.89 1.44 1.45 0 2.94-.27 4.41-.81 1.44-.53 2.77-1.23 3.95-2.09 1.2-.87 2.21-1.88 3-3 .86-1.22 1.29-2.53 1.29-3.88 0-1.64-.7-3.04-2.02-4.04-1.23-.93-2.93-1.4-5.06-1.4-1.44 0-2.9.24-4.36.72a16 16 0 0 0-3.96 1.91c-1.22.82-2.23 1.82-3 2.96-.82 1.22-1.24 2.54-1.24 3.94 0 1.76.73 3.23 2.11 4.25z"/><path fill="#682717" d="M357.227 167.76c-.53-1.46-1.44-2.81-2.69-4.01-1.24-1.18-2.92-2.15-4.99-2.9-2.04-.73-4.61-1.1-7.63-1.1-5.83 0-10.6 1.43-14.17 4.24-3.66 2.89-5.52 6.6-5.52 11.02 0 3.08.83 5.63 2.47 7.57 1.53 1.83 3.4 3.37 5.54 4.58 1.94 1.1 3.48 2.12 4.56 3.02.86.72 1.26 1.54 1.26 2.59 0 .99-.4 1.79-1.26 2.51-.91.76-2.23 1.14-3.94 1.14-1.3 0-2.26-.22-2.85-.66-.32-.24-.71-.59-.71-.94q0-.525.45-1.08l.04-.06c.6-.82-1.57-1.18-1.57-2.37 0-1.4-.57-2.63-1.69-3.64-1.08-.98-.13-2.13-2.02-2.13-2.87 0-5.3 1.08-7.21 3.21a10.7 10.7 0 0 0-2.56 5.11c-.12-.04-.23-.08-.33-.1-.8-.18-1.64-.3-2.52-.35h-.08c-.7 0-1.36-.12-1.94-.36-.28-.12-.31-.79-.31-1.08 0-.86.37-2.8 2.16-7.18 1.49-3.65 3.22-7.55 5.17-11.6 1.95-4.06 3.88-7.93 5.75-11.5s3.17-6.01 3.86-7.24c1.19-2.06 2.18-3.73 2.93-4.97.88-1.45 1.33-2.88 1.33-4.26s-.56-2.62-1.63-3.54c-1.04-.9-2.64-1.33-4.88-1.33-1.73 0-3.73.26-5.97.77-2.21.5-4.33 1.17-6.3 1.99-2.01.83-3.73 1.81-5.13 2.92-1.62 1.29-2.45 2.72-2.45 4.27 0 1.44.65 2.28 1.19 2.73.55.46 1.18.9 1.85 1.28q.75.48 1.38 1.17c.27.3.41.82.41 1.53 0 1.71-.43 3.81-1.28 6.26-.88 2.54-1.98 5.23-3.27 7.99-1.29 2.77-2.71 5.6-4.22 8.41-1.53 2.84-2.92 5.43-4.18 7.78-1.24 2.32-2.39 4.59-3.42 6.76-.36-.25-.73-.36-.97-.41-.76-.15-1.61-.25-2.53-.31h-.08c-.68 0-1.27-.13-1.81-.4-.17-.08-.36-.51-.36-1.45 0-1.62.57-3.8 1.7-6.47 1.18-2.78 2.45-5.44 3.79-7.91 1.01-1.87 1.92-3.43 2.69-4.63s1.46-2.21 2.08-3.05c.58-.87 1.01-1.57 1.32-2.14.4-.73.61-1.46.61-2.17 0-1.19-.46-2.87-2.63-4.16-1.53-.9-3.08-1.36-4.62-1.36-1.15 0-2.05.24-2.74.72-.59.42-1.05.89-1.36 1.41-.25.36-.49.69-.69.96 0 0-.04.01-.13.01-.43 0-.8-.1-1.15-.31-.54-.32-1.1-.67-1.73-1.07-.71-.41-1.51-.8-2.38-1.15-.98-.39-2.15-.58-3.58-.58-2.63 0-5.51.73-8.56 2.17-3.01 1.42-5.85 3.43-8.45 5.97-1.79 1.74-3.51 3.77-5.11 6.03-1.59 2.25-3 4.62-4.19 7.04-1.2 2.43-2.18 4.94-2.91 7.46-.59 2.04-.93 4.03-1.06 5.94-.43-.39-.9-.56-1.2-.62-.8-.18-1.65-.3-2.52-.36h-.08c-.71 0-1.36-.12-1.94-.36-.29-.12-.32-.8-.32-1.08 0-1.38.6-3.27 1.79-5.62 1.26-2.5 2.61-4.94 4.01-7.25 2.14-3.54 3.9-6.37 5.21-8.4 1.46-2.2 2.18-3.99 2.18-5.46 0-1.9-.65-3.33-1.93-4.23-1.14-.81-2.71-1.22-4.66-1.22-1.55 0-3.33.3-5.43.91-2.04.6-4 1.39-5.84 2.35-1.59.83-2.98 1.77-4.19 2.77-.12-1.63-.67-3.01-1.65-4.1-1.15-1.28-2.77-1.93-4.83-1.93s-4.08.66-6.03 1.98c-1.8 1.21-3.35 2.43-4.56 3.58-.71.63-1.32 1.24-1.84 1.81.29-.98.43-1.98.43-2.99 0-1.79-.8-2.8-1.46-3.33-.89-.71-2.14-1.05-3.82-1.05-1.95 0-3.96.38-5.97 1.14-1.96.74-3.76 1.63-5.35 2.65-1.62 1.04-2.97 2.15-4.02 3.32-.39.44-.52-.32-.79.09-.38-1.9-1.52-2.47-3.01-4.03-2.02-2.11-5.09-3.18-9.14-3.18s-7.73 1.06-11.5 3.15a38.7 38.7 0 0 0-9.95 7.91 42.7 42.7 0 0 0-7.09 10.76c-1.84 4-2.78 7.93-2.78 11.71 0 4.57 1.38 8.35 4.11 11.23 2.75 2.9 6.39 4.37 10.83 4.37 2.83 0 5.65-.57 8.38-1.69 2.69-1.1 5.11-2.48 7.21-4.1 2.11-1.63 3.85-3.41 5.18-5.31 1.4-2.01 2.11-3.91 2.11-5.64 0-1.14-.34-2.19-1.02-3.12-.77-1.05-1.98-1.58-3.6-1.58-1.44 0-2.84.42-4.16 1.26-1.13.72-2.3 1.5-3.46 2.34s-2.36 1.61-3.59 2.29c-1.1.61-2.28.91-3.6.91-1.48 0-2.51-.35-3.14-1.08-.67-.78-1-1.67-1-2.73 0-.65.13-1.19.4-1.65.17-.29.38 1.25.8 1.25.66 0 1.56.05 2.6.15 1.2.17 2.56.26 4.03.26 2.72 0 5.71-2.15 8.26-3.22 2.52-1.06 4.78-2.49 6.71-4.24 1.93-1.76 3.49-3.76 4.65-5.95.73-1.38 1.23-2.79 1.51-4.2.08.11.16.23.26.33.64.68 1.56 1.1 2.73 1.25h.02c.97.1 1.35.36 1.49.5.21.21.32.7.32 1.35 0 .84-.2 1.9-.59 3.13-.42 1.31-.97 2.74-1.63 4.25-.67 1.53-1.43 3.1-2.25 4.66-.88 1.66-1.69 3.16-2.47 4.58-1.44 2.51-2.71 4.47-3.75 5.82-1.26 1.64-1.9 3.25-1.9 4.78 0 2.17 1.03 3.72 2.97 4.49 1.59.63 3.52.95 5.75.95.99 0 2.06-.1 3.18-.31 1.14-.21 2.21-.55 3.17-1 1.04-.49 1.91-1.15 2.6-1.97.77-.91 1.16-2.03 1.16-3.31 0-1.88.27-4.27.8-7.12.52-2.82 1.51-5.86 2.95-9.05 1.47-3.46 3.05-6.19 4.71-8.13 1.95-2.28 3.05-2.62 3.54-2.62.07 0 .12 0 .16.01.14.77.44 1.55.88 2.32.42.69.94 1.26 1.54 1.69.69.49 1.69.72 3.06.72 1.65 0 3.2-.43 4.62-1.28 1.35-.81 2.55-1.87 3.58-3.16.57-.72 1.07-1.51 1.51-2.34.56.53 1.3.9 2.23 1.09l.11.02c.45.05 1.04.15 1.76.31.07.01.11.03.14.04v.03c0 .61-.25 1.81-1.45 4.09-1.04 1.98-2.67 4.83-4.84 8.47a67 67 0 0 0-3.59 6.9c-1.05 2.37-1.58 4.59-1.58 6.62 0 2.68.83 4.73 2.47 6.07 1.56 1.28 3.44 1.93 5.59 1.93 1.81 0 3.64-.41 5.43-1.22a36 36 0 0 0 5.04-2.79c1.53-1.08 2.92-2.24 4.14-3.46a8 8 0 0 0 1.52-2.08c.43 2.16 1.28 4.07 2.55 5.7 1.99 2.55 4.8 3.84 8.37 3.84 2.02 0 3.85-.47 5.46-1.4 1.5-.87 2.83-1.85 3.94-2.93a76 76 0 0 0 2.74-2.79c.39-.42.67-.63.83-.73 0 .02.01.05.02.08.11.85.3 1.8.55 2.83.29 1.19.82 2.28 1.59 3.23.9 1.13 2.37 1.7 4.35 1.7 1.67 0 3.27-.39 4.76-1.17 1.35-.7 2.61-1.46 3.76-2.27 1.44-1.04 2.77-2.17 3.98-3.36.25 2.13 1.16 3.78 2.75 4.92 1.74 1.24 3.69 1.87 5.81 1.87 1.81 0 3.64-.41 5.43-1.22 1.69-.76 3.38-1.69 5.04-2.78 1.52-1.07 2.92-2.23 4.14-3.46q.45-.45.81-.93c.67 1.84 1.8 3.48 3.42 4.88 2.72 2.36 7.03 3.5 13.19 3.5s11.15-1.45 14.86-4.32c3.8-2.94 5.73-6.71 5.73-11.2 0-1.94-.38-3.66-1.12-5.12-.72-1.41-1.64-2.63-2.73-3.63-1.04-.95-2.18-1.8-3.4-2.53a130 130 0 0 0-3.21-1.85c-2.01-1.15-2.83-2.03-3.16-2.57-.47-.74-.71-1.41-.71-1.99 0-.85.36-1.61 1.09-2.32s1.87-1.07 3.37-1.07c1.16 0 2.02.2 2.42.57.57.53.57.91.57 1.03 0 .48-.12.85-.41 1.22-.6.82-.9 1.76-.9 2.79 0 .89.3 2.17 1.75 3.23 1.04.76 2.45 1.15 4.19 1.15 3.18 0 5.66-1.11 7.38-3.31 1.65-2.1 2.48-4.47 2.48-7.04 0-1.34-.26-2.74-.77-4.16zm-181.7 4.04c.56 0 .77.12.79.15q.24.315.24.96c0 .69-.3 1.44-.89 2.22-.69.91-1.54 1.75-2.53 2.49-1 .75-2.11 1.37-3.31 1.84-1.15.46-2.18.69-3.05.69-.12 0-.21 0-.28-.01.04-.25.22-.8.88-1.78.69-1.02 1.53-2.03 2.51-3.01.97-.97 2.04-1.84 3.16-2.58.97-.64 1.83-.98 2.5-.98zm99.62.98c.62 0 1.09.14 1.43.43.27.23.42.79.42 1.58 0 .93-.3 2.14-.89 3.62-.62 1.56-1.53 3.31-2.68 5.2-.63 1-1.39 2.06-2.26 3.17-.86 1.09-1.78 2.11-2.74 3.01-.94.89-1.91 1.63-2.88 2.2-.86.51-1.68.77-2.43.77-.95 0-1.36-.34-1.59-.59-.38-.43-.58-1.23-.58-2.31 0-1.45.46-3.17 1.36-5.12a27 27 0 0 1 3.56-5.71c1.42-1.76 3.02-3.28 4.75-4.52 1.6-1.15 3.13-1.73 4.54-1.73zM55.95 203.81c-2.15 0-4.03-.65-5.59-1.92-1.64-1.34-2.47-3.38-2.47-6.06 0-2.53.73-4.94 2.17-7.16 1.32-1.98 2.73-4.13 4.26-6.47 1.33-2.08 2.52-4.07 3.51-5.89.9-1.66 1.36-3.08 1.36-4.22 0-.53-.1-.93-.26-1.08-.12-.11-.35-.27-.85-.27-.65 0-1.82.26-3.73 1.51-1.6 1.05-3.28 2.81-4.98 5.24a43 43 0 0 0-3.26 5.49c-.96 1.92-1.82 3.8-2.54 5.6-.73 1.81-1.37 3.53-1.9 5.13l-1.39 4.17c-.53 1.64-1.2 3.01-2 4.05-.97 1.27-2.86 1.89-5.76 1.89-2.71 0-4.91-.45-6.54-1.34-2.34-1.28-2.83-3.07-2.83-4.35 0-1.7.72-3.55 2.2-5.64 1.28-1.82 2.68-3.92 4.14-6.25 1.82-2.78 3.3-5.52 4.41-8.17 1.07-2.56 1.62-4.6 1.62-6.06 0-.78-.17-1.03-.22-1.09-.13-.15-.42-.18-.64-.18-1.22 0-2.58.59-4.03 1.77-1.61 1.3-3.22 2.99-4.78 5.03a37 37 0 0 0-3.52 5.54c-.98 1.91-1.81 3.78-2.48 5.55-.66 1.78-1.22 3.48-1.64 5.05-.43 1.57-.75 2.93-.96 4.04-.37 1.8-.92 3.18-1.69 4.23-.93 1.28-2.79 1.87-5.86 1.87-2.7 0-4.94-.45-6.67-1.32-2.5-1.27-3.03-3.08-3.03-4.36 0-1.7.75-3.58 2.28-5.73 1.41-1.85 2.89-3.92 4.4-6.19 1.91-2.87 3.4-5.56 4.43-8.01.99-2.37 1.5-4.26 1.5-5.61 0-.61-.13-.79-.13-.79-.4-.16-.99-.28-1.71-.32-.85-.06-1.68-.26-2.51-.57-.7-.27-1.87-1.01-1.87-2.98 0-1.64.83-3.35 2.47-5.09 1.46-1.55 3.15-3.02 5.01-4.37 1.2-.86 2.62-1.69 4.24-2.49 1.72-.85 3.5-1.28 5.27-1.28 2.26 0 3.86.72 4.76 2.15a7.6 7.6 0 0 1 1.18 4.12c0 .85-.04 1.68-.12 2.47q.285-.24.69-.69c.9-1.01 1.99-2.07 3.23-3.14 1.59-1.36 3.23-2.51 4.88-3.43 1.77-.97 3.84-1.47 6.18-1.47s4.1.64 5.3 1.91c1.15 1.22 1.83 2.83 2.02 4.8.05.97.11 1.78.16 2.46.54-.01 1.15-.39 1.81-1.13.97-1.03 2.08-2.08 3.31-3.14 1.61-1.38 3.4-2.54 5.32-3.46 1.99-.95 4.04-1.43 6.07-1.43 3.04 0 5.46 1 7.18 2.97 1.67 1.92 2.52 4.07 2.52 6.4 0 2.17-.67 4.51-2 6.95-1.25 2.3-2.65 4.55-4.18 6.68-1.46 2.05-2.83 4.03-4.07 5.9-1.35 2.04-1.63 3.19-1.63 3.8 0 .51.11.71.13.74.62.19 1.27.29 1.95.29.91 0 1.78.09 2.58.28.61.14 2.05.72 2.05 3.04 0 1.65-.72 3.21-2.13 4.62a32 32 0 0 1-4.14 3.46 37 37 0 0 1-5.04 2.78c-1.8.81-3.62 1.22-5.43 1.22zm2.13-35.61c1.04 0 1.91.32 2.58.96.7.66 1.06 1.65 1.06 2.93 0 1.59-.55 3.37-1.67 5.44-1.02 1.88-2.24 3.91-3.61 6.05-1.54 2.36-2.96 4.52-4.27 6.49-1.18 1.81-1.75 3.7-1.75 5.76 0 1.91.5 3.25 1.54 4.09 1.11.91 2.42 1.35 3.99 1.35 1.45 0 2.93-.33 4.39-.99 1.57-.71 3.14-1.57 4.66-2.56 1.37-.97 2.65-2.03 3.77-3.15.93-.93 1.39-1.86 1.39-2.83 0-.45-.09-.59-.09-.59-.6-.12-1.28-.19-2-.19-.94 0-1.84-.13-2.67-.38-.73-.22-1.96-.94-1.96-3.18 0-1.41.67-3.11 2.05-5.2 1.25-1.89 2.64-3.9 4.12-5.97 1.46-2.05 2.81-4.21 4.01-6.42 1.12-2.07 1.69-4 1.69-5.74s-.62-3.27-1.9-4.73c-1.23-1.42-2.96-2.1-5.27-2.1-1.66 0-3.33.4-4.98 1.19-1.72.82-3.32 1.86-4.76 3.09-1.16 1.01-2.21 1.99-3.1 2.94-1.15 1.29-2.41 1.95-3.71 1.95-1.5 0-2.47-.89-2.49-2.28-.05-.71-.11-1.55-.16-2.52-.13-1.36-.57-2.44-1.33-3.25-.7-.74-1.87-1.12-3.46-1.12-1.9 0-3.57.39-4.95 1.15-1.5.83-3 1.88-4.45 3.13-1.15 1-2.16 1.98-2.99 2.91-1.21 1.35-2.24 1.98-3.24 1.98-.56 0-1.07-.22-1.42-.62-.45-.5-.61-1.22-.5-2.19.1-.83.16-1.71.16-2.63 0-1.02-.26-1.92-.79-2.76-.4-.64-1.28-.96-2.61-.96s-2.77.34-4.15 1.02c-1.49.73-2.79 1.5-3.87 2.27a33.5 33.5 0 0 0-4.65 4.06c-1.18 1.25-1.78 2.38-1.78 3.35 0 .52.14.57.25.62.59.23 1.19.37 1.77.41 1.01.06 1.86.24 2.57.55.74.32 1.63 1.11 1.63 3.09 0 1.71-.55 3.87-1.69 6.59-1.09 2.6-2.66 5.44-4.66 8.44-1.54 2.31-3.05 4.43-4.47 6.29-1.18 1.65-1.79 3.08-1.79 4.22 0 .55.17 1.36 1.64 2.1 1.37.7 3.23 1.05 5.53 1.05 2.97 0 3.66-.63 3.81-.83.55-.75.97-1.84 1.26-3.24.22-1.15.56-2.57 1-4.21a63 63 0 0 1 1.71-5.27c.7-1.87 1.57-3.83 2.6-5.83 1.04-2.02 2.31-4.02 3.76-5.92 1.69-2.2 3.44-4.03 5.2-5.46 1.92-1.54 3.81-2.33 5.63-2.33 1.36 0 2.14.57 2.55 1.05q.84.975.84 2.76c0 1.83-.59 4.13-1.82 7.04-1.17 2.79-2.72 5.66-4.61 8.55-1.47 2.35-2.89 4.49-4.2 6.34-1.15 1.63-1.73 3.03-1.73 4.18 0 .56.16 1.38 1.51 2.12 1.25.68 3.04 1.03 5.33 1.03 2.76 0 3.54-.63 3.74-.89.62-.81 1.16-1.92 1.6-3.3l1.4-4.19c.55-1.64 1.2-3.42 1.95-5.27s1.63-3.8 2.62-5.78c1.01-2.01 2.17-3.97 3.45-5.81 1.89-2.69 3.79-4.67 5.67-5.9 1.98-1.3 3.65-1.93 5.12-1.93z"/><path fill="#cb2821" d="M64.712 187.4c0 1.09.35 1.75 1.06 1.96.71.22 1.47.33 2.29.33s1.58.08 2.29.25c.71.16 1.06.76 1.06 1.8 0 1.31-.59 2.55-1.76 3.72s-2.5 2.28-3.97 3.32a35 35 0 0 1-4.83 2.66c-1.64.74-3.27 1.11-4.91 1.11-1.86 0-3.45-.55-4.79-1.64s-2.01-2.78-2.01-5.08.66-4.45 1.96-6.47c1.31-1.96 2.73-4.12 4.26-6.47 1.36-2.13 2.55-4.12 3.56-5.98 1.01-1.85 1.51-3.46 1.51-4.83 0-.93-.22-1.6-.65-2.01-.44-.41-1.01-.61-1.72-.61-1.2 0-2.67.57-4.42 1.72s-3.52 3-5.32 5.57a45 45 0 0 0-3.36 5.65 79 79 0 0 0-2.58 5.69c-.74 1.83-1.38 3.56-1.92 5.2-.55 1.64-1.01 3.03-1.39 4.18-.49 1.53-1.09 2.76-1.8 3.68-.71.93-2.29 1.39-4.75 1.39s-4.49-.4-5.93-1.19c-1.45-.79-2.17-1.87-2.17-3.23s.65-3.06 1.96-4.91 2.7-3.96 4.18-6.3c1.85-2.84 3.36-5.62 4.5-8.35 1.15-2.73 1.72-4.91 1.72-6.55 0-.87-.18-1.51-.53-1.92-.36-.41-.89-.61-1.6-.61-1.53 0-3.14.68-4.83 2.05s-3.36 3.11-4.99 5.24a38.5 38.5 0 0 0-3.64 5.73 52 52 0 0 0-2.54 5.69q-1.02 2.745-1.68 5.16c-.44 1.61-.76 2.99-.98 4.13q-.495 2.37-1.47 3.72-.99 1.35-4.83 1.35c-2.56 0-4.54-.4-6.1-1.19s-2.33-1.87-2.33-3.23.68-3.08 2.05-4.99c1.42-1.85 2.89-3.93 4.42-6.22 1.96-2.95 3.48-5.69 4.54-8.23s1.6-4.57 1.6-6.1c0-1.04-.29-1.68-.86-1.92-.57-.25-1.3-.39-2.17-.45-.71-.05-1.42-.22-2.13-.49s-1.06-.87-1.06-1.8c0-1.31.71-2.71 2.13-4.22 1.42-1.5 3.03-2.91 4.83-4.22q1.725-1.23 4.05-2.37c1.56-.76 3.12-1.15 4.71-1.15 1.8 0 3.03.52 3.68 1.56.66 1.04.98 2.18.98 3.44 0 .98-.06 1.91-.16 2.78-.11.93.11 1.39.65 1.39.6 0 1.36-.52 2.29-1.56.87-.98 1.91-1.99 3.11-3.03 1.53-1.31 3.08-2.4 4.67-3.27 1.58-.87 3.44-1.31 5.57-1.31 1.96 0 3.42.51 4.38 1.51q1.425 1.515 1.68 4.05c.05.98.11 1.83.16 2.54 0 .71.41 1.06 1.23 1.06.93 0 1.85-.52 2.78-1.56.93-.98 1.99-1.99 3.19-3.03q2.295-1.965 5.04-3.27c1.83-.87 3.67-1.31 5.53-1.31 2.67 0 4.75.85 6.22 2.54s2.21 3.55 2.21 5.57-.61 4.08-1.84 6.34a62 62 0 0 1-4.09 6.55c-1.5 2.1-2.87 4.08-4.09 5.94-1.23 1.86-1.84 3.36-1.84 4.5z"/><path fill="#682717" d="M102.689 203.81c-1.98 0-3.44-.57-4.35-1.7-.77-.96-1.3-2.05-1.59-3.23-.25-1.03-.44-1.98-.55-2.83 0-.03-.01-.05-.02-.08-.17.1-.44.31-.83.73-.78.83-1.7 1.77-2.74 2.79-1.11 1.08-2.43 2.06-3.94 2.93-1.61.93-3.45 1.4-5.46 1.4-3.56 0-6.38-1.29-8.37-3.84-1.92-2.45-2.89-5.55-2.89-9.21 0-2.34.37-4.83 1.11-7.39.73-2.51 1.7-5.02 2.91-7.46 1.2-2.42 2.61-4.79 4.19-7.04 1.6-2.27 3.31-4.3 5.11-6.03 2.59-2.54 5.44-4.55 8.45-5.97 3.05-1.44 5.93-2.17 8.56-2.17 1.43 0 2.6.19 3.58.58.87.35 1.67.73 2.38 1.15.63.4 1.2.75 1.73 1.07.35.21.72.31 1.15.31.09 0 .13-.01.13-.01.19-.28.43-.61.69-.96.31-.52.77-.99 1.36-1.41.69-.49 1.58-.72 2.74-.72 1.53 0 3.08.46 4.62 1.36 2.17 1.29 2.63 2.97 2.63 4.16 0 .7-.2 1.43-.61 2.17-.31.57-.75 1.27-1.32 2.14-.62.84-1.3 1.85-2.08 3.05-.77 1.2-1.68 2.76-2.69 4.63a89 89 0 0 0-3.79 7.91c-1.13 2.67-1.7 4.84-1.7 6.47 0 .93.2 1.36.36 1.45.54.27 1.13.4 1.81.4h.08c.92.06 1.77.16 2.53.31.63.12 2.09.66 2.09 3.01 0 1.65-.77 3.27-2.28 4.82a34.7 34.7 0 0 1-4.46 3.82c-1.15.81-2.41 1.56-3.76 2.27-1.49.77-3.09 1.17-4.76 1.17zm-6.3-10.47c.56 0 1.9.22 2.31 2.25v.08c.12.77.29 1.65.52 2.61.2.84.57 1.57 1.11 2.25.4.5 1.2.75 2.37.75 1.28 0 2.45-.29 3.59-.88 1.25-.65 2.42-1.35 3.46-2.08 1.5-1.09 2.89-2.28 4.12-3.53 1.04-1.06 1.56-2.08 1.56-3.04 0-.3-.04-.45-.06-.52-.65-.12-1.37-.21-2.15-.26-1.06 0-2.03-.23-2.9-.67-1.17-.58-1.76-1.83-1.76-3.71 0-1.99.62-4.43 1.9-7.45 1.21-2.85 2.52-5.59 3.9-8.13 1.04-1.93 1.98-3.54 2.79-4.79.8-1.25 1.52-2.3 2.13-3.13.5-.75.9-1.41 1.18-1.91.19-.35.29-.67.29-.94 0-.5-.14-1.24-1.38-1.98-1.13-.67-2.25-1.01-3.32-1.01-.79 0-1.14.16-1.27.26q-.465.33-.66.66l-.07.11c-.28.39-.54.75-.79 1.09-.34.45-.99 1-2.12 1-.89 0-1.71-.23-2.45-.67-.55-.33-1.14-.69-1.75-1.08-.56-.32-1.25-.66-2-.96-.66-.27-1.55-.4-2.64-.4-2.25 0-4.77.65-7.48 1.93-2.75 1.3-5.36 3.15-7.76 5.49-1.68 1.63-3.3 3.54-4.8 5.68-1.51 2.15-2.85 4.4-3.99 6.71-1.14 2.3-2.06 4.66-2.74 7.04-.67 2.33-1.01 4.58-1.01 6.69 0 3.08.79 5.65 2.35 7.65 1.51 1.93 3.59 2.87 6.37 2.87 1.59 0 2.96-.35 4.2-1.06 1.32-.76 2.48-1.62 3.43-2.55 1.02-.99 1.91-1.9 2.66-2.7 1.02-1.1 1.97-1.63 2.89-1.63zm-7.29-3.12c-1.47 0-2.64-.49-3.49-1.45-.81-.92-1.22-2.26-1.22-3.99s.53-3.89 1.59-6.18c1.02-2.22 2.33-4.32 3.89-6.24 1.57-1.94 3.33-3.61 5.24-4.98 2.04-1.46 4.06-2.2 6.02-2.2 1.23 0 2.27.35 3.08 1.04.86.74 1.3 1.92 1.3 3.5 0 1.27-.35 2.76-1.07 4.56-.68 1.69-1.64 3.57-2.88 5.59-.69 1.09-1.5 2.22-2.42 3.4-.94 1.19-1.94 2.3-2.99 3.29a18.7 18.7 0 0 1-3.34 2.54c-1.26.74-2.51 1.12-3.71 1.12m12.04-22.51c-1.41 0-2.94.58-4.54 1.73-1.73 1.24-3.32 2.75-4.75 4.52a27 27 0 0 0-3.56 5.71c-.9 1.95-1.36 3.67-1.36 5.12 0 1.08.2 1.88.58 2.31.22.26.63.59 1.59.59.75 0 1.57-.26 2.43-.77.98-.57 1.95-1.32 2.88-2.2.96-.91 1.88-1.92 2.74-3.01a38 38 0 0 0 2.26-3.17c1.15-1.88 2.05-3.64 2.68-5.2.59-1.48.89-2.7.89-3.62 0-.79-.15-1.35-.42-1.58-.34-.29-.81-.43-1.43-.43z"/><path fill="#cb2821" d="M102.69 202.54q-2.37 0-3.36-1.23a6.8 6.8 0 0 1-1.35-2.74c-.25-1.01-.42-1.92-.53-2.74-.16-.82-.52-1.23-1.06-1.23s-1.2.41-1.96 1.23-1.67 1.73-2.7 2.74c-1.04 1.01-2.27 1.92-3.68 2.74q-2.13 1.23-4.83 1.23c-3.17 0-5.62-1.12-7.37-3.36s-2.62-5.05-2.62-8.43c0-2.24.36-4.58 1.06-7.04s1.65-4.87 2.82-7.24 2.54-4.67 4.09-6.88q2.34-3.315 4.95-5.85 3.765-3.69 8.1-5.73c2.89-1.36 5.57-2.05 8.02-2.05 1.26 0 2.29.16 3.11.49s1.56.68 2.21 1.06c.6.38 1.17.74 1.72 1.06.54.33 1.15.49 1.8.49.49 0 .86-.16 1.11-.49s.5-.68.78-1.06c.22-.38.56-.74 1.02-1.06.46-.33 1.13-.49 2.01-.49 1.31 0 2.63.4 3.97 1.19s2.01 1.82 2.01 3.07q0 .735-.45 1.56c-.3.55-.72 1.23-1.27 2.05-.6.82-1.3 1.84-2.09 3.07s-1.71 2.8-2.74 4.71a93 93 0 0 0-3.85 8.02q-1.8 4.26-1.8 6.96c0 1.36.35 2.22 1.06 2.58s1.5.53 2.37.53c.87.06 1.66.15 2.37.29s1.06.72 1.06 1.76q0 1.965-1.92 3.93a33 33 0 0 1-4.3 3.68c-1.09.76-2.29 1.49-3.6 2.17s-2.7 1.02-4.18 1.02zm-1.55-36.1c-1.69 0-3.45.65-5.28 1.96s-3.49 2.89-4.99 4.75-2.74 3.85-3.72 5.98-1.47 4.01-1.47 5.65q0 2.13.9 3.15c.6.68 1.45 1.02 2.54 1.02.98 0 2.01-.31 3.07-.94s2.1-1.42 3.11-2.37 1.96-2.01 2.87-3.15c.9-1.15 1.68-2.24 2.33-3.28 1.2-1.96 2.13-3.77 2.78-5.4.66-1.64.98-3 .98-4.09 0-1.2-.29-2.05-.86-2.54s-1.32-.74-2.25-.74z"/><path fill="#682717" d="M131.488 203.81c-3.17 0-6-.96-8.4-2.84-2.49-1.96-3.76-5.19-3.76-9.61 0-2.27.43-4.53 1.27-6.71a46 46 0 0 1 2.74-5.84c.98-1.74 1.86-3.33 2.65-4.76.85-1.55 1.03-2.46 1.03-2.94 0-.39-.06-.57-.09-.64a8.7 8.7 0 0 0-1.92-.3c-1.12-.06-1.99-.27-2.68-.63-.54-.28-1.45-1.01-1.45-2.68 0-.75.18-1.64.56-2.71.36-1.03.87-2.02 1.5-2.95.63-.94 1.37-1.76 2.19-2.46.97-.83 2.03-1.24 3.16-1.24.41 0 .93.03 1.59.09l.14.02c.45.09.92.14 1.39.14 1.12 0 1.96-.21 2.49-.63.66-.52 1.31-1.25 1.95-2.18 1.21-1.79 2.14-3.36 2.77-4.66.67-1.4 1.37-2.79 2.07-4.13.78-1.49 1.82-2.57 3.09-3.21 1.21-.6 2.7-.91 4.42-.91 2.5 0 4.02.47 4.78 1.49.66.88.99 1.77.99 2.64 0 1.02-.31 2.13-.92 3.29a34 34 0 0 1-1.83 3.06c-.62.98-1.2 1.97-1.69 2.92-.42.79-.63 1.53-.63 2.19v.08c.07.02.2.04.44.04s.78-.01 1.89-.08c.92-.06 1.61-.08 2.12-.08 1.7 0 2.91.83 3.41 2.34l.04.16c.07.36.11.74.11 1.14 0 1.09-.29 2.41-.9 4.04-.63 1.56-1.3 2.7-2.08 3.51-.9.94-2.2 1.41-3.86 1.41-.51 0-1.11-.06-1.78-.18-.57-.09-1.13-.14-1.66-.14-1.75 0-3.1.39-4.01 1.17-1.02.87-2.02 2.25-2.97 4.1-.38.76-.87 1.68-1.49 2.8-.57 1.09-1.12 2.24-1.63 3.4-.5 1.15-.94 2.33-1.3 3.5-.34 1.09-.52 2.08-.52 2.93 0 .79.16 1.13.28 1.18.59.22 1.29.33 2.06.33.59 0 1.33-.12 2.2-.36l.07-.02c1.04-.23 2.04-.39 2.98-.47 1.1-.1 2.06.01 2.84.33.63.26 1.69.98 1.69 2.93 0 1.61-.5 3.19-1.47 4.7-.92 1.43-2.11 2.71-3.52 3.8-1.4 1.08-3.03 1.97-4.84 2.64-1.83.68-3.68 1.02-5.52 1.02zm-3.19-43.8c-.51 0-1.01.21-1.51.64-.65.55-1.23 1.21-1.74 1.96s-.91 1.55-1.2 2.37c-.35.98-.42 1.56-.42 1.87 0 .06 0 .38.1.43.25.13.73.29 1.65.35.97.06 1.83.2 2.55.42.69.21 1.84.88 1.84 3.05 0 1.15-.44 2.51-1.34 4.16-.79 1.45-1.68 3.04-2.67 4.79-.95 1.69-1.82 3.54-2.58 5.51-.73 1.88-1.1 3.83-1.1 5.79 0 3.6.94 6.17 2.79 7.62 1.97 1.55 4.2 2.3 6.83 2.3 1.53 0 3.09-.29 4.63-.86 1.56-.58 2.97-1.34 4.17-2.27 1.19-.91 2.18-1.98 2.94-3.16.72-1.11 1.07-2.2 1.07-3.32 0-.38-.07-.55-.1-.58-.42-.17-.98-.22-1.67-.16-.83.07-1.71.22-2.63.42-1.07.3-2.03.45-2.84.45-1.08 0-2.06-.16-2.94-.49-.88-.32-1.93-1.2-1.93-3.55 0-1.1.21-2.34.63-3.68.39-1.26.86-2.52 1.4-3.76.53-1.22 1.11-2.43 1.72-3.59.62-1.12 1.09-2.01 1.46-2.75 1.11-2.16 2.32-3.8 3.58-4.88 1.38-1.18 3.28-1.77 5.65-1.77.66 0 1.37.06 2.09.18q.81.15 1.35.15c.95 0 1.63-.21 2.03-.63.54-.56 1.05-1.46 1.54-2.66.48-1.3.73-2.36.73-3.13 0-.21-.01-.4-.04-.58-.11-.3-.29-.53-.98-.53-.45 0-1.11.03-1.97.08-.96.06-1.63.08-2.04.08-1.03 0-1.8-.28-2.29-.83-.45-.5-.69-1.13-.69-1.83 0-1.08.31-2.22.93-3.38.53-1 1.14-2.05 1.81-3.11.64-.96 1.21-1.92 1.71-2.86.42-.79.63-1.5.63-2.11 0-.32-.16-.69-.48-1.12 0 0-.4-.48-2.75-.48-1.32 0-2.43.22-3.28.64-.8.4-1.45 1.09-1.98 2.11-.68 1.31-1.37 2.68-2.03 4.06-.68 1.41-1.67 3.09-2.96 4.99-.78 1.14-1.62 2.07-2.48 2.74-.99.78-2.35 1.17-4.06 1.17-.61 0-1.22-.06-1.82-.17-.54-.05-.98-.07-1.3-.07z"/><path fill="#cb2821" d="M148.189 143.27c2.02 0 3.27.33 3.77.98.49.66.74 1.28.74 1.88q0 1.23-.78 2.7c-.52.98-1.11 1.96-1.76 2.95a45 45 0 0 0-1.76 3.03c-.52.98-.78 1.91-.78 2.78 0 .38.12.71.37.98s.7.41 1.35.41c.38 0 1.04-.03 1.96-.08.87-.05 1.56-.08 2.05-.08 1.15 0 1.88.49 2.21 1.47.05.27.08.57.08.9 0 .93-.27 2.13-.82 3.6-.55 1.36-1.15 2.39-1.8 3.07-.66.68-1.64 1.02-2.95 1.02-.44 0-.96-.05-1.56-.16-.65-.11-1.28-.16-1.88-.16q-3.105 0-4.83 1.47c-1.15.98-2.24 2.48-3.28 4.49-.38.76-.87 1.69-1.47 2.77a52 52 0 0 0-1.68 3.51q-.78 1.8-1.35 3.63c-.38 1.22-.57 2.33-.57 3.3 0 1.3.37 2.09 1.11 2.36s1.57.41 2.5.41c.71 0 1.56-.14 2.54-.41q1.47-.33 2.82-.45c.9-.08 1.65 0 2.25.25s.9.83.9 1.76c0 1.36-.42 2.7-1.27 4.01s-1.92 2.47-3.23 3.48q-1.965 1.515-4.5 2.46c-1.69.63-3.38.94-5.08.94-2.89 0-5.43-.86-7.61-2.57s-3.27-4.59-3.27-8.62c0-2.12.39-4.21 1.19-6.25.79-2.04 1.68-3.93 2.66-5.68s1.87-3.34 2.66-4.78 1.19-2.63 1.19-3.55c0-1.03-.31-1.65-.94-1.84s-1.38-.31-2.25-.37c-.93-.05-1.65-.22-2.17-.49q-.78-.405-.78-1.56c0-.6.16-1.36.49-2.29s.78-1.81 1.35-2.66 1.23-1.58 1.96-2.21c.74-.63 1.51-.94 2.33-.94.38 0 .87.03 1.47.08.54.11 1.09.16 1.64.16 1.42 0 2.51-.3 3.28-.9.76-.6 1.5-1.42 2.21-2.46 1.26-1.85 2.21-3.47 2.87-4.83s1.34-2.73 2.05-4.09c.65-1.26 1.5-2.14 2.54-2.66s2.32-.78 3.85-.78z"/><path fill="#682717" d="M162.678 203.81c-4.44 0-8.08-1.47-10.83-4.37-2.73-2.88-4.11-6.65-4.11-11.23 0-3.77.93-7.71 2.78-11.71 1.82-3.95 4.2-7.57 7.09-10.76 2.89-3.2 6.24-5.86 9.95-7.91 3.78-2.09 7.64-3.15 11.5-3.15 4.05 0 7.13 1.07 9.14 3.18 2 2.09 3.01 4.51 3.01 7.18 0 2.33-.6 4.64-1.78 6.89-1.16 2.2-2.72 4.2-4.65 5.95-1.93 1.76-4.18 3.18-6.71 4.24a20.4 20.4 0 0 1-7.94 1.61c-1.47 0-2.82-.09-4.03-.26-1.05-.1-1.94-.15-2.6-.15-.41 0-.94.06-1.11.35-.27.46-.4 1-.4 1.65 0 1.06.33 1.95 1 2.73.63.72 1.65 1.08 3.14 1.08 1.32 0 2.5-.3 3.6-.91 1.23-.68 2.44-1.45 3.59-2.29a85 85 0 0 1 3.46-2.34c1.32-.84 2.72-1.26 4.16-1.26 1.62 0 2.83.53 3.6 1.58a5.18 5.18 0 0 1 1.02 3.12c0 1.73-.71 3.63-2.11 5.64-1.32 1.9-3.07 3.69-5.18 5.31-2.1 1.62-4.52 3-7.21 4.1-2.73 1.12-5.55 1.69-8.38 1.69zm16.37-46.58c-3.42 0-6.88.95-10.27 2.83a36.1 36.1 0 0 0-9.29 7.4c-2.71 3-4.96 6.41-6.67 10.12-1.69 3.66-2.54 7.24-2.54 10.64 0 3.96 1.12 7.06 3.42 9.48 2.28 2.41 5.22 3.58 8.99 3.58 2.5 0 4.99-.5 7.42-1.5 2.48-1.02 4.71-2.28 6.63-3.76 1.91-1.47 3.47-3.07 4.65-4.75 1.1-1.58 1.66-2.99 1.66-4.19 0-.6-.18-1.13-.53-1.63-.1-.13-.4-.54-1.55-.54-.96 0-1.88.28-2.8.87a73 73 0 0 0-3.34 2.25c-1.23.9-2.53 1.72-3.85 2.45-1.47.81-3.09 1.22-4.83 1.22-2.23 0-3.93-.66-5.05-1.95-1.07-1.24-1.62-2.72-1.62-4.39 0-1.1.25-2.08.75-2.93.43-.73 1.35-1.61 3.3-1.61.75 0 1.7.06 2.9.17 1.14.16 2.38.24 3.73.24 2.38 0 4.73-.48 6.96-1.42 2.26-.95 4.27-2.22 5.98-3.78s3.09-3.33 4.11-5.26c.99-1.88 1.49-3.8 1.49-5.71 0-2.03-.76-3.8-2.31-5.43-1.52-1.59-3.98-2.39-7.31-2.39zm-12.28 20.38c-.85 0-1.49-.18-1.97-.56-.55-.43-.86-1.09-.86-1.86 0-.93.42-1.99 1.32-3.33.78-1.16 1.73-2.29 2.82-3.38a22.4 22.4 0 0 1 3.56-2.9c1.43-.94 2.7-1.4 3.89-1.4 1.29 0 2.24.39 2.81 1.16.5.66.75 1.49.75 2.48 0 1.26-.47 2.52-1.4 3.75a15 15 0 0 1-3.03 2.99c-1.18.88-2.49 1.61-3.9 2.17-1.45.57-2.79.87-3.99.87zm-.27-2.54c.07 0 .16.01.28.01.87 0 1.9-.23 3.05-.69 1.2-.47 2.31-1.09 3.31-1.84.99-.74 1.84-1.58 2.53-2.49.59-.78.89-1.53.89-2.22q0-.645-.24-.96c-.02-.03-.23-.15-.79-.15-.66 0-1.52.34-2.5.98-1.12.74-2.19 1.61-3.16 2.58s-1.82 1.98-2.51 3.01c-.66.98-.83 1.53-.88 1.78z"/><path fill="#cb2821" d="M184.29 187.07c0 1.47-.63 3.11-1.88 4.91-1.26 1.8-2.89 3.48-4.91 5.03-2.02 1.56-4.33 2.87-6.92 3.93s-5.23 1.6-7.9 1.6c-4.09 0-7.4-1.32-9.91-3.97s-3.77-6.1-3.77-10.36c0-3.6.89-7.33 2.66-11.17a41.1 41.1 0 0 1 6.88-10.44c2.81-3.11 6.02-5.66 9.62-7.65s7.23-2.99 10.89-2.99 6.45.93 8.23 2.78c1.77 1.86 2.66 3.96 2.66 6.3 0 2.13-.55 4.23-1.64 6.3q-1.635 3.105-4.38 5.61c-1.83 1.67-3.94 3-6.35 4.01-2.4 1.01-4.88 1.51-7.45 1.51-1.42 0-2.7-.08-3.85-.25-1.15-.11-2.08-.16-2.78-.16-1.09 0-1.83.33-2.21.98s-.57 1.42-.57 2.29c0 1.36.44 2.55 1.31 3.56s2.24 1.51 4.09 1.51c1.53 0 2.93-.35 4.22-1.06q1.92-1.065 3.72-2.37c1.15-.82 2.28-1.58 3.4-2.29s2.28-1.06 3.48-1.06 2.06.36 2.58 1.06q.78 1.065.78 2.37zm-17.52-10.72c1.04 0 2.21-.26 3.52-.78q1.965-.78 3.6-2.01c1.09-.82 2.02-1.73 2.78-2.74s1.15-2.01 1.15-2.99c0-.71-.16-1.28-.49-1.72q-.495-.66-1.8-.66c-.93 0-1.99.4-3.19 1.19s-2.32 1.71-3.36 2.74c-1.04 1.04-1.92 2.1-2.66 3.19s-1.11 1.97-1.11 2.62c0 .38.12.67.37.86s.64.29 1.19.29z"/><path fill="#682717" d="M191.868 203.81c-2.22 0-4.16-.32-5.75-.95-1.94-.77-2.97-2.32-2.97-4.49 0-1.53.64-3.14 1.9-4.78 1.05-1.36 2.31-3.32 3.75-5.82.79-1.41 1.6-2.92 2.47-4.58.82-1.56 1.58-3.13 2.25-4.66.66-1.51 1.21-2.94 1.63-4.25.39-1.23.59-2.28.59-3.13 0-.65-.12-1.14-.32-1.35-.14-.14-.52-.39-1.49-.49h-.02c-1.17-.15-2.09-.57-2.73-1.25-.65-.69-1-1.57-1-2.54 0-1.15.59-2.36 1.8-3.71 1.05-1.17 2.41-2.29 4.02-3.32 1.59-1.02 3.39-1.91 5.35-2.65 2.02-.76 4.03-1.14 5.97-1.14 1.67 0 2.92.34 3.82 1.05.67.53 1.46 1.54 1.46 3.33 0 1.01-.14 2.01-.43 2.99.52-.57 1.13-1.18 1.84-1.81 1.21-1.16 2.75-2.37 4.56-3.58 1.95-1.31 3.98-1.98 6.03-1.98s3.69.65 4.83 1.93c1.11 1.24 1.67 2.86 1.67 4.81 0 1.61-.3 3.25-.9 4.85a15.9 15.9 0 0 1-2.4 4.31 13.3 13.3 0 0 1-3.58 3.16 8.87 8.87 0 0 1-4.62 1.28c-1.37 0-2.38-.24-3.06-.72-.61-.43-1.13-1-1.54-1.69-.45-.77-.75-1.54-.88-2.32-.03 0-.08-.01-.16-.01-.49 0-1.59.34-3.54 2.62-1.66 1.94-3.24 4.67-4.71 8.13-1.44 3.19-2.43 6.23-2.95 9.05-.53 2.85-.8 5.25-.8 7.12 0 1.28-.39 2.4-1.16 3.31-.69.82-1.56 1.48-2.6 1.97-.96.45-2.03.79-3.17 1-1.12.2-2.18.31-3.18.31zm2.36-37.01c1.34.14 2.32.54 3 1.22.71.71 1.07 1.77 1.07 3.15 0 1.12-.23 2.4-.72 3.9-.45 1.39-1.03 2.91-1.72 4.49-.7 1.58-1.48 3.21-2.33 4.82-.88 1.68-1.71 3.2-2.51 4.64-1.53 2.66-2.82 4.66-3.95 6.12-.91 1.18-1.37 2.27-1.37 3.23 0 1.11.41 1.75 1.37 2.13 1.29.51 2.91.77 4.81.77.84 0 1.76-.09 2.72-.26.93-.17 1.79-.44 2.56-.8.7-.33 1.29-.77 1.74-1.3.38-.45.56-1 .56-1.68 0-2.03.28-4.58.84-7.59.56-3.02 1.61-6.26 3.12-9.61 1.56-3.67 3.28-6.63 5.1-8.76 2.02-2.36 3.81-3.51 5.47-3.51 1.34 0 2.32.73 2.62 1.94l.02.1c.08.5.28 1.01.58 1.53.23.38.5.69.82.91.06.04.43.26 1.6.26s2.28-.3 3.32-.92c1.09-.65 2.06-1.51 2.89-2.56.84-1.06 1.52-2.28 2.02-3.62.49-1.32.74-2.66.74-3.97s-.34-2.34-1.03-3.12c-.66-.73-1.62-1.09-2.94-1.09-1.54 0-3.09.52-4.61 1.54-1.68 1.13-3.11 2.26-4.25 3.34-.96.85-1.7 1.62-2.25 2.32-.95 1.11-1.85 1.63-2.8 1.63-1.08 0-1.84-.76-1.84-1.84 0-.52.17-1.13.53-1.84.47-1.08.7-2.2.7-3.31 0-.84-.29-1.17-.5-1.34-.29-.23-.91-.5-2.24-.5-1.64 0-3.35.33-5.08.98-1.79.68-3.43 1.49-4.88 2.41-1.43.92-2.61 1.89-3.51 2.89-1.04 1.15-1.15 1.79-1.15 2.01 0 .33.1.58.31.8.28.3.8.42 1.19.47z"/><path fill="#cb2821" d="M194.08 168.06c-.87-.11-1.53-.39-1.96-.86q-.66-.69-.66-1.68c0-.82.49-1.77 1.47-2.86s2.24-2.12 3.77-3.11c1.53-.98 3.23-1.82 5.12-2.53 1.88-.71 3.72-1.06 5.53-1.06q2.04 0 3.03.78c.66.52.98 1.3.98 2.33 0 1.31-.27 2.59-.82 3.85-.27.55-.41.98-.41 1.31q0 .57.57.57c.55 0 1.15-.38 1.8-1.15q.9-1.14 2.37-2.46c1.2-1.15 2.67-2.31 4.42-3.48s3.52-1.76 5.32-1.76c1.69 0 2.99.5 3.89 1.51q1.35 1.515 1.35 3.96c0 1.47-.27 2.94-.82 4.41s-1.28 2.79-2.21 3.96-2.01 2.13-3.23 2.86c-1.23.74-2.55 1.1-3.97 1.1-1.09 0-1.87-.16-2.33-.49s-.86-.76-1.19-1.31c-.38-.65-.63-1.31-.74-1.96-.16-.65-.63-.98-1.39-.98q-1.89 0-4.5 3.06c-1.75 2.04-3.38 4.86-4.91 8.46-1.47 3.27-2.48 6.37-3.03 9.32-.55 2.94-.82 5.39-.82 7.36 0 .98-.29 1.81-.86 2.49s-1.3 1.23-2.17 1.64-1.83.71-2.87.9-2.02.29-2.95.29c-2.08 0-3.84-.29-5.28-.86-1.45-.57-2.17-1.67-2.17-3.31 0-1.25.55-2.59 1.64-4.01s2.37-3.4 3.85-5.97c.82-1.47 1.65-3.01 2.5-4.62a73 73 0 0 0 2.29-4.74 47 47 0 0 0 1.68-4.37q.66-2.04.66-3.51c0-1.03-.23-1.78-.7-2.25-.46-.46-1.21-.75-2.25-.86z"/><path fill="#682717" d="M230.189 203.81c-2.15 0-4.03-.65-5.59-1.93-1.64-1.34-2.47-3.38-2.47-6.07 0-2.03.53-4.26 1.58-6.62 1-2.25 2.2-4.57 3.59-6.9 2.17-3.64 3.8-6.49 4.84-8.47 1.2-2.28 1.45-3.48 1.45-4.09v-.03c-.03-.01-.08-.03-.14-.04-.72-.15-1.31-.26-1.76-.31l-.11-.02c-1.11-.22-1.96-.69-2.53-1.38s-.86-1.47-.86-2.32c0-1.51.77-2.99 2.29-4.38 1.33-1.22 2.95-2.33 4.81-3.31 1.84-.96 3.81-1.75 5.84-2.35 2.1-.61 3.88-.91 5.43-.91 1.95 0 3.52.41 4.66 1.22 1.28.91 1.93 2.33 1.93 4.23 0 1.47-.71 3.26-2.18 5.46-1.31 2.03-3.07 4.86-5.21 8.4-1.4 2.31-2.74 4.75-4.01 7.25-1.19 2.35-1.79 4.24-1.79 5.62 0 .29.03.97.32 1.08.58.24 1.23.36 1.94.36h.08c.88.06 1.73.18 2.52.36.63.14 2.1.72 2.1 3.04 0 1.65-.72 3.21-2.13 4.63a31 31 0 0 1-4.14 3.46c-1.67 1.1-3.35 2.02-5.04 2.79-1.8.81-3.63 1.22-5.43 1.22zm1.83-36.96c.53.06 1.17.17 1.95.34 1.34.29 2.15 1.24 2.15 2.55s-.57 3.04-1.74 5.27c-1.08 2.05-2.68 4.86-4.9 8.59a64 64 0 0 0-3.45 6.63c-.91 2.04-1.36 3.92-1.36 5.6 0 1.91.5 3.26 1.54 4.1 1.11.91 2.42 1.35 3.99 1.35 1.45 0 2.92-.33 4.39-1a34.6 34.6 0 0 0 4.66-2.57c1.37-.97 2.65-2.04 3.77-3.16.94-.94 1.39-1.86 1.39-2.84 0-.44-.09-.57-.09-.57-.68-.14-1.39-.24-2.12-.29a7.6 7.6 0 0 1-2.85-.54c-.86-.35-1.89-1.23-1.89-3.43 0-1.8.67-4.01 2.06-6.76 1.29-2.56 2.67-5.06 4.1-7.42 2.15-3.56 3.92-6.42 5.26-8.48 1.46-2.19 1.76-3.42 1.76-4.07 0-1.56-.64-2.01-.86-2.16-1.35-.95-4.05-1.07-7.92.06-1.87.55-3.68 1.28-5.37 2.16-1.67.88-3.11 1.86-4.28 2.93-.98.89-1.47 1.74-1.47 2.51 0 .16.03.4.28.71.23.28.67.42 1.02.5zm15.28-13.22c-1.96 0-3.61-.48-4.89-1.44-1.38-1.02-2.11-2.49-2.11-4.25 0-1.4.42-2.73 1.24-3.94.77-1.14 1.78-2.14 3-2.96 1.18-.8 2.51-1.44 3.96-1.91 1.46-.48 2.93-.72 4.36-.72 2.13 0 3.83.47 5.06 1.4 1.32 1 2.02 2.4 2.02 4.04 0 1.35-.44 2.66-1.29 3.88-.79 1.12-1.8 2.13-3 3-1.18.86-2.51 1.56-3.95 2.09-1.47.54-2.96.81-4.41.81zm5.56-12.69c-1.17 0-2.37.2-3.58.59-1.22.4-2.34.94-3.33 1.61-.95.64-1.73 1.41-2.32 2.28-.54.8-.81 1.63-.81 2.52 0 .96.34 1.67 1.08 2.22.84.62 1.97.94 3.38.94 1.15 0 2.34-.22 3.53-.66 1.22-.45 2.34-1.04 3.34-1.76.97-.7 1.78-1.51 2.41-2.4.56-.8.83-1.59.83-2.42s-.32-1.5-1.01-2.02c-.78-.59-1.97-.89-3.53-.89z"/><path fill="#cb2821" d="M238.701 186.88c0 1.2.37 1.96 1.11 2.26s1.54.45 2.41.45c.82.06 1.6.17 2.33.33q1.11.24 1.11 1.8c0 1.31-.59 2.56-1.76 3.73-1.17 1.18-2.5 2.28-3.97 3.32a35 35 0 0 1-4.83 2.67c-1.64.74-3.27 1.11-4.91 1.11-1.86 0-3.45-.55-4.79-1.64s-2.01-2.79-2.01-5.08c0-1.86.49-3.9 1.47-6.11s2.16-4.47 3.52-6.77c2.18-3.66 3.81-6.5 4.87-8.53 1.06-2.02 1.6-3.58 1.6-4.68 0-.71-.38-1.15-1.15-1.31-.76-.16-1.39-.27-1.88-.33-.82-.16-1.42-.48-1.8-.94s-.57-.97-.57-1.52c0-1.15.63-2.29 1.88-3.44 1.26-1.15 2.77-2.19 4.54-3.12s3.64-1.68 5.61-2.26c1.96-.57 3.66-.86 5.08-.86 1.69 0 3 .33 3.93.98.93.66 1.39 1.72 1.39 3.2 0 1.2-.65 2.79-1.96 4.76-1.31 2.02-3.06 4.84-5.24 8.45-1.42 2.35-2.77 4.8-4.05 7.34s-1.92 4.61-1.92 6.19zm8.6-34.52c-1.69 0-3.07-.4-4.13-1.19s-1.6-1.87-1.6-3.23c0-1.15.34-2.22 1.02-3.23s1.57-1.88 2.66-2.62 2.31-1.32 3.64-1.76c1.34-.44 2.66-.66 3.97-.66 1.86 0 3.29.38 4.3 1.15 1.01.76 1.51 1.77 1.51 3.03 0 1.09-.36 2.14-1.06 3.15q-1.065 1.515-2.7 2.7a15 15 0 0 1-3.64 1.92c-1.34.49-2.66.74-3.97.74"/><path fill="#682717" d="M276.709 203.81c-1.98 0-3.44-.57-4.35-1.7-.77-.96-1.3-2.05-1.59-3.23-.25-1.03-.44-1.98-.55-2.83 0-.03-.01-.05-.02-.08-.17.1-.44.31-.83.73-.78.83-1.7 1.77-2.74 2.79-1.11 1.08-2.43 2.06-3.94 2.93-1.61.93-3.45 1.4-5.46 1.4-3.56 0-6.38-1.29-8.37-3.84-1.92-2.45-2.89-5.55-2.89-9.21 0-2.34.37-4.83 1.11-7.39.73-2.51 1.7-5.02 2.91-7.46 1.2-2.42 2.61-4.79 4.19-7.04 1.6-2.27 3.31-4.3 5.11-6.03 2.59-2.54 5.44-4.55 8.45-5.97 3.05-1.44 5.93-2.17 8.56-2.17 1.43 0 2.6.19 3.58.58.87.35 1.67.73 2.38 1.15.63.4 1.2.75 1.73 1.07.35.21.72.31 1.15.31.09 0 .13-.01.13-.01.19-.28.43-.61.69-.96.31-.52.77-.99 1.36-1.41.69-.49 1.58-.72 2.74-.72 1.53 0 3.08.46 4.62 1.36 2.17 1.29 2.63 2.97 2.63 4.16 0 .7-.2 1.43-.61 2.17-.31.57-.75 1.27-1.32 2.14-.62.84-1.3 1.85-2.08 3.05-.77 1.2-1.68 2.76-2.69 4.63a89 89 0 0 0-3.79 7.91c-1.13 2.67-1.7 4.84-1.7 6.47 0 .93.2 1.36.36 1.45.54.27 1.13.4 1.81.4h.08c.92.06 1.77.16 2.53.31.63.12 2.09.66 2.09 3.01 0 1.65-.77 3.27-2.28 4.82a34.7 34.7 0 0 1-4.46 3.82c-1.15.81-2.41 1.56-3.76 2.27-1.49.77-3.09 1.17-4.76 1.17zm-6.3-10.47c.56 0 1.9.22 2.31 2.25v.08c.12.77.29 1.65.52 2.61.2.84.57 1.57 1.11 2.25.4.5 1.2.75 2.37.75 1.28 0 2.45-.29 3.59-.88 1.25-.65 2.42-1.35 3.46-2.08 1.5-1.09 2.89-2.28 4.12-3.53 1.04-1.06 1.56-2.08 1.56-3.04 0-.3-.04-.45-.06-.52-.65-.12-1.37-.21-2.15-.26-1.06 0-2.03-.23-2.9-.67-1.17-.58-1.76-1.83-1.76-3.71 0-1.99.62-4.43 1.9-7.45 1.21-2.85 2.52-5.59 3.9-8.13 1.04-1.93 1.98-3.54 2.79-4.79.8-1.25 1.52-2.3 2.13-3.13.5-.75.9-1.41 1.18-1.91.19-.35.29-.67.29-.94 0-.5-.14-1.24-1.38-1.98-1.13-.67-2.25-1.01-3.32-1.01-.79 0-1.14.16-1.27.26q-.465.33-.66.66l-.07.11c-.28.39-.54.75-.79 1.09-.34.45-.99 1-2.12 1-.89 0-1.71-.23-2.45-.67-.55-.33-1.14-.69-1.75-1.08-.56-.32-1.25-.66-2-.96-.66-.27-1.55-.4-2.64-.4-2.25 0-4.77.65-7.48 1.93-2.75 1.3-5.36 3.15-7.76 5.49-1.68 1.63-3.3 3.54-4.8 5.68-1.51 2.15-2.85 4.4-3.99 6.71-1.14 2.3-2.06 4.66-2.74 7.04-.67 2.33-1.01 4.58-1.01 6.69 0 3.08.79 5.65 2.35 7.65 1.51 1.93 3.59 2.87 6.37 2.87 1.59 0 2.96-.35 4.2-1.06 1.32-.76 2.48-1.62 3.43-2.55 1.02-.99 1.91-1.9 2.66-2.7 1.02-1.1 1.97-1.63 2.89-1.63zm-7.29-3.12c-1.47 0-2.64-.49-3.49-1.45-.81-.92-1.22-2.26-1.22-3.99s.53-3.89 1.59-6.18c1.02-2.22 2.33-4.32 3.89-6.24 1.57-1.94 3.33-3.61 5.24-4.98 2.04-1.46 4.06-2.2 6.02-2.2 1.23 0 2.27.35 3.08 1.04.86.74 1.3 1.92 1.3 3.5 0 1.27-.35 2.76-1.07 4.56-.68 1.69-1.64 3.57-2.88 5.59-.69 1.09-1.5 2.22-2.42 3.4-.94 1.19-1.94 2.3-2.99 3.29a18.7 18.7 0 0 1-3.34 2.54c-1.26.74-2.51 1.12-3.71 1.12m12.03-22.51c-1.41 0-2.94.58-4.54 1.73-1.73 1.24-3.32 2.75-4.75 4.52a27 27 0 0 0-3.56 5.71c-.9 1.95-1.36 3.67-1.36 5.12 0 1.08.2 1.88.58 2.31.22.26.63.59 1.59.59.75 0 1.57-.26 2.43-.77.98-.57 1.95-1.32 2.88-2.2.96-.91 1.88-1.92 2.74-3.01a38 38 0 0 0 2.26-3.17c1.15-1.88 2.05-3.64 2.68-5.2.59-1.48.89-2.7.89-3.62 0-.79-.15-1.35-.42-1.58-.34-.29-.81-.43-1.43-.43z"/><path fill="#cb2821" d="M275.15 166.44c-1.69 0-3.45.65-5.28 1.96s-3.49 2.89-4.99 4.75-2.74 3.85-3.72 5.98-1.47 4.01-1.47 5.65q0 2.13.9 3.15c.6.68 1.45 1.02 2.54 1.02.98 0 2.01-.31 3.07-.94s2.1-1.42 3.11-2.37 1.96-2.01 2.87-3.15c.9-1.15 1.68-2.24 2.33-3.28 1.2-1.96 2.13-3.77 2.78-5.4.66-1.64.98-3 .98-4.09 0-1.2-.29-2.05-.86-2.54s-1.32-.74-2.25-.74zm1.56 36.1q-2.37 0-3.36-1.23a6.8 6.8 0 0 1-1.35-2.74c-.25-1.01-.42-1.92-.53-2.74-.16-.82-.52-1.23-1.06-1.23s-1.2.41-1.96 1.23-1.67 1.73-2.7 2.74c-1.04 1.01-2.27 1.92-3.68 2.74q-2.13 1.23-4.83 1.23c-3.17 0-5.62-1.12-7.37-3.36s-2.62-5.05-2.62-8.43c0-2.24.36-4.58 1.06-7.04s1.65-4.87 2.82-7.24 2.54-4.67 4.09-6.88q2.34-3.315 4.95-5.85 3.765-3.69 8.1-5.73c2.89-1.36 5.57-2.05 8.02-2.05 1.26 0 2.29.16 3.11.49s1.56.68 2.21 1.06c.6.38 1.17.74 1.72 1.06.54.33 1.15.49 1.8.49.49 0 .86-.16 1.11-.49s.5-.68.78-1.06c.22-.38.56-.74 1.02-1.06.46-.33 1.13-.49 2.01-.49 1.31 0 2.63.4 3.97 1.19s2.01 1.82 2.01 3.07q0 .735-.45 1.56c-.3.55-.72 1.23-1.27 2.05-.6.82-1.3 1.84-2.09 3.07s-1.71 2.8-2.74 4.71a93 93 0 0 0-3.85 8.02q-1.8 4.26-1.8 6.96c0 1.36.35 2.22 1.06 2.58s1.5.53 2.37.53c.87.06 1.66.15 2.37.29s1.06.72 1.06 1.76q0 1.965-1.92 3.93a33 33 0 0 1-4.3 3.68c-1.09.76-2.29 1.49-3.6 2.17s-2.7 1.02-4.18 1.02z"/><path fill="#682717" d="M297.767 203.81c-2.12 0-4.07-.63-5.81-1.87-1.87-1.34-2.82-3.39-2.82-6.11 0-2.03.56-4.26 1.68-6.6 1.04-2.2 2.21-4.5 3.47-6.85s2.65-4.94 4.18-7.78c1.51-2.81 2.93-5.64 4.22-8.41 1.29-2.76 2.39-5.45 3.27-7.99.85-2.45 1.28-4.55 1.28-6.26 0-.71-.14-1.22-.41-1.53-.41-.46-.88-.85-1.38-1.17-.67-.39-1.3-.83-1.85-1.28-.54-.45-1.19-1.3-1.19-2.73 0-1.55.82-2.98 2.45-4.27 1.4-1.11 3.12-2.09 5.13-2.92 1.97-.82 4.09-1.49 6.3-1.99 2.24-.51 4.25-.77 5.97-.77 2.24 0 3.84.44 4.88 1.33 1.07.92 1.63 2.14 1.63 3.54s-.45 2.81-1.33 4.26c-.75 1.24-1.74 2.91-2.93 4.97-.69 1.22-1.99 3.66-3.86 7.24s-3.8 7.45-5.75 11.5c-1.94 4.05-3.68 7.95-5.17 11.6-1.78 4.37-2.16 6.32-2.16 7.18 0 .29.03.96.31 1.08.58.24 1.23.36 1.94.36h.08c.88.06 1.73.18 2.52.36.63.14 2.1.72 2.1 3.04 0 1.65-.72 3.21-2.13 4.62a32 32 0 0 1-4.14 3.46 36.4 36.4 0 0 1-5.04 2.78c-1.8.81-3.62 1.22-5.43 1.22zm24.48-65.98c-1.54 0-3.36.24-5.41.71-2.07.47-4.06 1.1-5.9 1.86-1.79.74-3.32 1.61-4.53 2.57-.98.78-1.48 1.55-1.48 2.28 0 .55.2.72.28.79.44.37.96.72 1.55 1.07.74.47 1.38 1.01 1.94 1.64.7.78 1.06 1.87 1.06 3.22 0 1.99-.48 4.37-1.42 7.09-.91 2.62-2.04 5.39-3.36 8.22a162 162 0 0 1-4.29 8.54q-2.295 4.26-4.17 7.77c-1.24 2.31-2.39 4.58-3.41 6.74-.95 2-1.43 3.86-1.43 5.51 0 1.88.58 3.2 1.76 4.04 1.32.94 2.74 1.4 4.34 1.4 1.45 0 2.93-.33 4.39-.99 1.57-.71 3.14-1.57 4.66-2.56 1.37-.96 2.65-2.03 3.77-3.15.93-.93 1.39-1.86 1.39-2.83 0-.44-.09-.57-.09-.57-.68-.14-1.39-.24-2.12-.29a7.6 7.6 0 0 1-2.85-.54c-.86-.35-1.89-1.23-1.89-3.42 0-1.6.77-4.26 2.35-8.13 1.5-3.69 3.26-7.64 5.23-11.74 1.96-4.08 3.91-7.98 5.79-11.58s3.2-6.06 3.91-7.32c1.21-2.09 2.2-3.77 2.97-5.03.64-1.05.96-2.04.96-2.94 0-.66-.24-1.18-.75-1.62-.38-.33-1.25-.71-3.22-.71z"/><path fill="#cb2821" d="M327.487 140.16c0 1.15-.38 2.35-1.15 3.6-.76 1.26-1.75 2.92-2.95 4.99-.71 1.26-2.01 3.68-3.89 7.29-1.88 3.6-3.81 7.45-5.77 11.54s-3.7 7.98-5.2 11.67c-1.5 3.68-2.25 6.24-2.25 7.65q0 1.8 1.11 2.25c.74.3 1.54.45 2.41.45.82.05 1.6.16 2.33.33.74.16 1.1.76 1.1 1.8 0 1.31-.59 2.55-1.76 3.72s-2.5 2.28-3.97 3.32a35 35 0 0 1-4.83 2.66c-1.64.74-3.28 1.11-4.91 1.11-1.86 0-3.55-.55-5.08-1.64s-2.29-2.78-2.29-5.08q0-2.775 1.56-6.06c1.04-2.18 2.18-4.45 3.44-6.8s2.65-4.94 4.18-7.78 2.95-5.66 4.26-8.47 2.41-5.51 3.32-8.1c.9-2.59 1.35-4.82 1.35-6.67 0-1.04-.25-1.83-.74-2.37a8 8 0 0 0-1.64-1.39c-.66-.38-1.23-.78-1.72-1.19s-.74-1-.74-1.76c0-1.15.65-2.24 1.96-3.27 1.31-1.04 2.92-1.95 4.83-2.74s3.94-1.43 6.1-1.92 4.05-.74 5.69-.74q2.865 0 4.05 1.02c.79.68 1.19 1.54 1.19 2.58z"/><path fill="#682717" d="M329.798 203.81c-6.16 0-10.47-1.15-13.19-3.5-2.73-2.37-4.12-5.39-4.12-8.98 0-2.98.95-5.55 2.82-7.64 1.91-2.13 4.33-3.21 7.21-3.21 1.9 0 3.41.5 4.49 1.47 1.12 1.01 1.69 2.24 1.69 3.64 0 1.2-.3 2.22-.9 3.04l-.04.06c-.3.37-.45.72-.45 1.08s.39.71.71.94c.59.44 1.55.66 2.85.66 1.71 0 3.03-.38 3.94-1.14.86-.72 1.26-1.51 1.26-2.51 0-1.05-.4-1.87-1.26-2.59-1.08-.9-2.62-1.92-4.56-3.02-2.14-1.22-4.01-2.76-5.54-4.58-1.64-1.95-2.47-4.49-2.47-7.57 0-4.43 1.86-8.14 5.52-11.02 3.57-2.82 8.34-4.24 14.17-4.24 3.02 0 5.59.37 7.63 1.1 2.07.74 3.75 1.72 4.99 2.9 1.26 1.2 2.16 2.54 2.69 4.01.51 1.42.77 2.82.77 4.16 0 2.57-.83 4.94-2.48 7.04-1.72 2.2-4.2 3.31-7.38 3.31-1.74 0-3.15-.39-4.19-1.15-1.44-1.06-1.75-2.34-1.75-3.23q0-1.56.9-2.79c.29-.37.41-.74.41-1.22 0-.13 0-.51-.57-1.03-.4-.36-1.26-.57-2.42-.57-1.51 0-2.64.36-3.37 1.07s-1.09 1.47-1.09 2.32c0 .57.24 1.24.71 1.99.33.53 1.15 1.41 3.16 2.57.97.54 2.05 1.16 3.21 1.85 1.22.73 2.36 1.58 3.4 2.53 1.09 1 2.01 2.22 2.73 3.63.74 1.46 1.12 3.18 1.12 5.12 0 4.49-1.93 8.25-5.73 11.2-3.7 2.86-8.7 4.32-14.86 4.32zm-7.29-20.79c-2.15 0-3.89.77-5.32 2.36-1.46 1.63-2.17 3.58-2.17 5.95 0 2.86 1.06 5.17 3.25 7.06 2.21 1.91 6.09 2.88 11.53 2.88s10.06-1.27 13.31-3.79c3.19-2.47 4.75-5.48 4.75-9.19 0-1.53-.28-2.87-.84-3.97-.58-1.14-1.32-2.12-2.18-2.92-.91-.84-1.92-1.58-2.99-2.22a121 121 0 0 0-3.16-1.82c-2.02-1.16-3.34-2.28-4.06-3.42-.73-1.15-1.09-2.27-1.09-3.34 0-1.55.63-2.94 1.86-4.14 1.22-1.19 2.95-1.79 5.14-1.79 1.87 0 3.22.4 4.13 1.23.93.85 1.39 1.83 1.39 2.9s-.31 1.98-.93 2.76c-.24.33-.38.76-.38 1.25 0 .31.08.73.71 1.19.59.44 1.5.66 2.69.66 2.39 0 4.16-.76 5.39-2.34 1.31-1.67 1.94-3.46 1.94-5.48 0-1.05-.21-2.15-.62-3.29-.4-1.09-1.09-2.11-2.06-3.03-.98-.94-2.36-1.72-4.1-2.34-1.77-.63-4.05-.95-6.78-.95-5.25 0-9.49 1.24-12.6 3.7-3.06 2.42-4.55 5.37-4.55 9.03 0 2.5.61 4.44 1.87 5.94 1.34 1.6 2.97 2.95 4.85 4.01 2.07 1.18 3.73 2.28 4.93 3.28 1.44 1.2 2.18 2.73 2.18 4.53s-.73 3.25-2.18 4.45c-1.37 1.14-3.24 1.73-5.56 1.73-1.88 0-3.3-.38-4.35-1.15-1.44-1.06-1.75-2.21-1.75-2.99 0-.94.33-1.83 1-2.65.27-.38.4-.88.4-1.52 0-.68-.27-1.24-.85-1.76-.6-.54-1.54-.82-2.79-.82z"/><path fill="#cb2821" d="M330.857 181.01a19 19 0 0 1-5.2-4.3c-1.45-1.72-2.17-3.97-2.17-6.75 0-4.04 1.68-7.38 5.04-10.03s7.82-3.97 13.38-3.97q4.335 0 7.2 1.02c1.91.68 3.42 1.56 4.54 2.62s1.91 2.24 2.37 3.52.7 2.53.7 3.72c0 2.29-.74 4.38-2.21 6.26q-2.205 2.82-6.39 2.82c-1.47 0-2.62-.3-3.44-.9s-1.23-1.34-1.23-2.21c0-.76.22-1.45.65-2.05.44-.55.65-1.2.65-1.96 0-.71-.33-1.36-.98-1.96s-1.75-.9-3.27-.9c-1.86 0-3.28.48-4.26 1.43-.98.96-1.47 2.03-1.47 3.23 0 .82.3 1.71.9 2.66.6.96 1.8 1.95 3.6 2.99.98.55 2.05 1.16 3.19 1.84 1.15.68 2.21 1.47 3.19 2.37q1.47 1.35 2.46 3.27c.65 1.28.98 2.8.98 4.54 0 4.09-1.75 7.49-5.24 10.19s-8.19 4.05-14.08 4.05-9.91-1.06-12.36-3.19c-2.46-2.13-3.68-4.8-3.68-8.02 0-2.67.83-4.94 2.5-6.8 1.66-1.85 3.75-2.78 6.26-2.78 1.58 0 2.8.38 3.64 1.15.85.76 1.27 1.67 1.27 2.7 0 .93-.22 1.69-.65 2.29-.49.6-.74 1.23-.74 1.88 0 .71.41 1.37 1.23 1.96q1.23.9 3.6.9c2.02 0 3.6-.48 4.75-1.43s1.72-2.11 1.72-3.48-.57-2.61-1.72-3.56-2.73-2.01-4.75-3.15z"/></g><defs><clipPath id="a"><path fill="#fff" d="M0 0h358v208.88H0z"/></clipPath></defs></svg>