<svg xmlns="http://www.w3.org/2000/svg" fill="none" viewBox="0 0 276 340"><path fill="#fff8e0" stroke="#fff8e0" stroke-width=".5" d="M264.866 143.441c-1.44-1.92-3.33-3.41-5.23-4.84a65 65 0 0 0-6.32-4.19c-5.12-2.97-10.63-5.28-16.3-6.95-2.52-.74-5.11-1.41-7.71-1.79.55-1.52.61-3.18-.01-4.73-1.14-2.81-3.91-4.62-6.38-6.15-5.64-3.5-12.29-6.24-18.92-7.01-1.02-.12-2.06-.17-3.1-.16-.05-.95-.35-1.89-1-2.72-1.88-2.39-5.25-3.61-7.87-4.94-3.35-1.7-6.74-3.32-10.23-4.7-1.34-.53-2.74-1.03-4.17-1.33-.62-1.86-2.25-3.24-3.96-4.23-2.91-1.69-6.04-3.1-9.1-4.48-5.52-2.5-11.27-4.49-17.29-5.26-1.35-2.2-4.62-3.04-6.82-3.96-3.07-1.28-6.15-2.54-9.26-3.7-6.52-2.43-13.23-4.44-20.12-5.49-3.45-.5-6.92-.8-10.4-.81-3.54-.01-7.23.12-10.68.95-5.32 1.29-10.17 5.73-8.98 11.66.63 3.12 3.02 5.54 5.3 7.58 2.51 2.25 5.1 4.42 7.71 6.54 5.41 4.39 11.01 8.55 16.76 12.49 10.58 7.24 21.69 13.7 33.18 19.39-1.93 7.29-.46 14.89-1.77 22.26-.68 3.83-2.29 7.41-3.71 11.01l-4.27 10.8c-2.28-.91-4.56-1.82-6.83-2.75-.26-.11-.47-.05-.62.08-.03.02-.05.05-.08.07a.4.4 0 0 0-.07.1c-.02.03-.06.06-.08.1-5.82 12.05-8.7 25.19-11.77 38.13-3.19 13.43-7.04 26.69-12.5 39.4-4.68 10.9-10.5 21.48-18.24 30.52-6 7.01-13.1 12.79-21.21 16.92-1.06.47-2.11.93-3.17 1.4-.64.28-1.61.5-2.17 1.01-.95.38-1.92.75-2.89 1.08-7.21 2.47-14.76 3.87-22.32 4.67-8.42.89-16.94.98-25.35-.17-.07 0-.13 0-.2.01-.3-.03-.62 0-.9 0q-1.665-.03-3.33-.09c-.33-.01-.63.24-.72.55-.85 2.9-1.12 6.13-1.33 9.14-.24 3.29-.23 6.59-.07 9.88.32 6.39 1.23 12.73 2.16 19.05.04.25.3.46.52.52.16.05.34.05.52.05.05.02.09.05.14.05 6.49 1.02 13.11 1.23 19.67 1.17 7.73-.07 15.47-.57 23.16-1.46 1.41-.16 2.83-.34 4.24-.53.05 0 .11-.01.17-.02 5.31-.71 10.59-1.64 15.77-3 8.22-2.16 16.33-5.31 23.92-9.1 4.34-2.16 8.43-4.65 12.31-7.42.12-.08.24-.15.36-.23.04-.03.08-.07.12-.11 9.49-6.87 17.59-15.45 24.34-25.21 7.15-10.35 12.74-21.64 17.41-33.3.18-.08.33-.22.41-.44.82-2.2 1.63-4.41 2.45-6.61a.7.7 0 0 0 0-.4c.69-1.9 1.36-3.8 2.02-5.7.89-2.59 1.74-5.19 2.58-7.8.07-.06.15-.1.21-.17.41-.54.45-1.42.52-2.15 4.83-15.37 8.96-30.95 13.96-46.27.76-2.32 1.54-4.64 2.34-6.94.14-.4-.06-.68-.35-.82-.05-.04-.1-.08-.17-.1-2.13-.74-4.25-1.51-6.37-2.27 3.02-8.71 7.27-16.95 12.51-24.53 2.74-3.97 5.74-7.76 8.97-11.35.47-.52.95-1.03 1.42-1.54 7.18 3.7 14.94 6.39 22.61 8.87 8.63 2.78 17.42 5.25 26.32 6.99 9.22 1.8 20.42 3.61 28.49-2.51 1.87-1.42 3.44-3.36 3.76-5.75.3-2.27-.64-4.45-1.98-6.23zm-92.51-43.53c-.77.12-2.05.16-2.49-.64-.65-1.19 1.12-2.62 1.95-3.13 1.42-.89 2.99-1.06 4.55-.88.18 2.36-1.74 4.3-4 4.65zm-26.11-17.35c-.59 2.36-3.23 4.09-5.61 3.92-1.04-.07-2.22-.52-2.75-1.48-.85-1.53.47-2.96 1.86-3.45 1.98-.7 4.33-.53 6.49-.25.11.38.13.79.01 1.25zm7.19 148.06s-.05-.02-.09-.03c-7.26-.82-14.39-2.7-21.15-5.47-6.4-2.63-12.3-6.51-18.94-8.53.47-1.73.93-3.47 1.36-5.2.29-1.17.58-2.35.87-3.53.24.13.49.24.72.36.91.44 1.82.86 2.75 1.26 3.93 1.69 8.02 2.99 12.18 4.01 8.39 2.07 17.01 3.06 25.59 4.02.14.15.33.23.54.24-1.26 4.3-2.52 8.59-3.83 12.87Zm6.19-20.97c-6.94-2.01-14.29-1.78-21.36-3.04-7.11-1.27-14.03-3.47-20.55-6.59a1 1 0 0 0-.36-.09c1.2-5.11 2.44-10.22 3.91-15.26.25.18.52.35.76.51.85.57 1.7 1.12 2.58 1.64 3.76 2.28 7.74 4.19 11.83 5.83 8.17 3.28 16.72 5.47 25.24 7.6.13.22.39.34.66.35-.91 3.01-1.81 6.03-2.7 9.05zm-56.04 34.88c.32.42.87.7 1.3.97.86.54 1.73 1.05 2.62 1.55 3.73 2.08 7.65 3.79 11.67 5.24 7.97 2.89 16.27 4.74 24.54 6.54-1.93 4.8-4.02 9.54-6.31 14.17-6.39-3.3-13.57-4.67-20.21-7.37-6.63-2.7-12.88-6.28-18.6-10.58.87-1.66 1.71-3.33 2.51-5.02.86-1.82 1.68-3.65 2.48-5.5Zm-93.48 93.12c.06-.1.11-.22.11-.37.18-5.97-1.51-11.77-2.06-17.69-.57-6.21-.28-12.47.76-18.62 4.26.48 8.59.68 12.92.63-.51 2.7-.58 5.58-.61 8.29-.03 3.22.17 6.45.52 9.65.69 6.23 1.95 12.37 3.24 18.5-4.97.1-9.94 0-14.89-.4zm22.47.12a.67.67 0 0 0 .11-.38c-.18-5.99-2.23-11.69-3.14-17.57-.95-6.13-.99-12.38-.3-18.54 4.64-.36 9.26-1.01 13.8-1.93-.33.88-.18 2.07-.18 2.95-.04 3.96.31 7.91.93 11.82 1.19 7.54 3.41 14.86 5.71 22.13-5.62.74-11.27 1.24-16.92 1.53zm24.75-2.74c-.88-6.2-3.61-11.91-5.09-17.96-1.56-6.35-2.18-12.88-2.04-19.42 2.39-.66 4.72-1.43 7-2.32.02.09.05.17.07.26.27.98.59 1.95.93 2.91 1.32 3.8 3 7.47 4.9 11.01 3.85 7.17 8.59 13.82 13.33 20.42-6.22 2.2-12.61 3.89-19.09 5.1zm26.42-7.97c-3-6.06-7.74-11.05-11.32-16.76a78.3 78.3 0 0 1-8.34-18.08c2.83-1.47 5.56-3.12 8.16-4.98a55.384 55.384 0 0 0 1.36 3c1.87 3.86 4.13 7.53 6.61 11.03 4.87 6.88 10.55 13.13 16.24 19.33-.1.06-.2.13-.3.19-4 2.36-8.14 4.44-12.4 6.28zm19.39-10.91c-3.81-5.6-9.07-10.05-13.33-15.29a82.2 82.2 0 0 1-11.25-18.37.5.5 0 0 0-.16-.19c.96-.86 1.9-1.75 2.81-2.68 1.17-1.18 2.29-2.41 3.38-3.66.3.53.78 1.03 1.09 1.44.55.73 1.11 1.46 1.69 2.17 2.74 3.39 5.81 6.5 9.05 9.41 6.26 5.6 13.17 10.4 20.08 15.14v.04c-4.08 4.4-8.52 8.43-13.37 11.99zm18.82-18.33s-.02-.04-.04-.06c-5.17-5.07-11.79-8.3-17.43-12.79-5.58-4.45-10.56-9.64-14.84-15.35 1.76-2.42 3.42-4.92 4.97-7.49.25.21.53.4.76.58.78.61 1.58 1.2 2.39 1.77 3.6 2.54 7.45 4.71 11.42 6.62 7.83 3.78 16.09 6.57 24.33 9.31-.99 1.77-2.02 3.53-3.08 5.26-2.59 4.21-5.42 8.28-8.48 12.15Zm24.77-46.89c-6.55-2.49-13.67-3.05-20.38-5.01a81 81 0 0 1-19.62-8.7c-.05-.03-.1-.03-.15-.05 1.57-4.11 3-8.27 4.31-12.47.18.09.38.12.56.08 7.9 3.81 15.85 7.62 24.19 10.35 4.09 1.34 8.28 2.42 12.55 3.04.64.09 1.75.38 2.75.44-1.33 4.13-2.72 8.24-4.21 12.32Zm18.19-58.66c-6.71-3-14.14-3.76-21.1-6.01-7.06-2.29-13.76-5.56-19.96-9.63 1.09-3.06 2.31-6.07 3.71-9.02a821 821 0 0 0 40.42 15.35c-1.07 3.09-2.08 6.2-3.07 9.31Zm14.93-45.83c-5.18 6.31-9.73 13.15-13.39 20.45-1.97 3.92-3.66 7.97-5.1 12.11-8.64-3.11-17.22-6.36-25.75-9.76 1.41-3.58 2.83-7.15 4.24-10.73 1.45-3.67 3.1-7.33 3.8-11.24 1.29-7.27-.11-14.8 1.71-21.99.94.46 1.88.93 2.83 1.38.8.38 1.61.75 2.42 1.12-.34 1.3-.49 2.64-.58 3.97s-.23 2.74.21 4.03c.05.15.14.26.25.34.19.31.57.48.95.21 3.95-2.75 8.12-5.32 11.8-8.42 3.26-2.76 5.96-6.09 8.6-9.43 1.18-1.49 2.38-2.97 3.55-4.47 1.03-1.32 2.07-2.78 3.48-3.73 1.21-.81 3.07-.96 3.32.83.18 1.25-.37 2.68-.98 3.75-.02.04-.02.08-.04.12-1.1 1.24-2.11 2.58-3.08 3.88-1.7 2.27-3.31 4.61-5.1 6.8-4.08 4.98-8.96 9.21-13.81 13.41-.73.63.33 1.69 1.06 1.06 3.76-3.26 7.52-6.52 10.93-10.14 3.36-3.57 6.04-7.61 9.04-11.46.68-.88 1.39-1.73 2.13-2.56.76-.85 1.8-2.27 2.97-2.56 1.39-.34 2.07 1.42 2.19 2.5.13 1.27-.26 2.56-.77 3.71-.9 2.04-2.26 3.89-3.55 5.7a79 79 0 0 1-4.51 5.75c-3.4 3.96-7.18 7.58-11.26 10.84-.75.6.31 1.66 1.06 1.06 4.13-3.31 7.96-6.98 11.4-11.01 1.71-2 3.34-4.09 4.85-6.25 1.21-1.72 2.44-3.49 3.3-5.42 1.3.32.92 3.7.81 4.59-.32 2.4-1.52 4.54-2.99 6.43-.37.41-.69.82-.97 1.14-.02.02-.02.04-.04.06-1.8 2.08-3.78 4.01-5.69 5.98l-7.4 7.64c-.67.69.39 1.76 1.06 1.06 2.92-3.02 5.85-6.04 8.77-9.06 1.81-1.87 3.73-3.71 5.34-5.77.19-.22.39-.44.6-.63.34-.31.77-.73 1.24-.83.87-.19 1.13.65 1.21 1.35.23 1.92-.92 3.68-2.08 5.09-2.56 3.13-5.48 5.96-8.05 9.09zm-28.37-11.95c-.12-.9-.01-1.84.05-2.73.07-1.13.2-2.24.46-3.33 1.69.77 3.39 1.53 5.1 2.27-1.86 1.29-3.76 2.53-5.61 3.8zm110.78 19.7c-7.72 5.93-18.74 3.99-27.56 2.24-8.19-1.62-16.27-3.85-24.23-6.36-8.05-2.54-16.21-5.29-23.75-9.14.69-.74 1.37-1.48 2.01-2.25 1.15-1.37 2.24-2.85 2.61-4.64.31-1.52.18-4.33-1.77-4.76-.21-.05-.42-.05-.62-.04.94-1.85 1.47-3.86 1.48-5.96 0-1.62-.26-3.71-1.86-4.33.63-1.97.69-4.2-.64-5.9-1.18-1.51-2.88-1.39-4.3-.42.2-1.08.14-2.17-.4-3.07-1.46-2.44-4.51-1.22-6.16.24-1.07.95-1.93 2.1-2.81 3.23-1.15 1.48-2.33 2.93-3.49 4.39-2.42 3.06-4.88 6.11-7.79 8.72-1.41 1.27-2.92 2.43-4.47 3.55-21.12-9.09-41.24-20.71-59.41-34.83-4.32-3.36-8.66-6.8-12.64-10.56-1.83-1.73-3.68-3.8-4.06-6.38-.35-2.41.62-4.9 2.32-6.6 1.93-1.94 4.63-2.79 7.27-3.24 3-.5 6.1-.6 9.13-.57 5.79.06 11.54.91 17.15 2.31 5.33 1.33 10.52 3.14 15.63 5.15 2.44.96 4.86 1.96 7.28 2.98 1.05.44 2.67.96 3.81 1.79-2.61-.21-5.9-.34-7.82 1.69-1.72 1.81-1.17 4.58.91 5.82 2.23 1.32 5.12.79 7.1-.73 1.47-1.12 2.82-3.06 2.64-4.98h.07c2.76.4 5.48 1.07 8.14 1.93 5.11 1.66 9.95 4.02 14.75 6.42 1.77.89 4.13 1.95 5.13 3.8-1.23-.08-2.47.06-3.68.55-1.91.77-4.63 2.91-3.88 5.31.67 2.15 3.54 2.15 5.28 1.58 2.37-.77 4.15-2.87 4.25-5.41 0-.07-.01-.13-.01-.2.75.18 1.49.42 2.2.68 5.53 2.03 11.08 4.67 16.17 7.64 1.55.91 3.02 2.19 3.24 3.83-1.75.14-3.48.48-5.13 1.11-1.15.44-2.34.74-2.3 2.17.02.91.62 1.65 1.4 2.08 3.32 1.84 6.63-.79 7.34-3.93h.15c2.68-.03 5.33.43 7.9 1.16 5.44 1.53 10.77 3.88 15.38 7.17 1.94 1.39 4.09 3.31 4.05 5.9-.01.73-.19 1.46-.48 2.14-3.06-.3-6.14-.14-9.16.84-.23.07-.49.27-.52.52-.32 2.26 1.46 3.59 3.55 3.85 2.53.31 4.97-.9 6.51-2.89.17-.22.33-.46.48-.7 2.12.28 4.23.77 6.32 1.34 4.9 1.34 9.68 3.13 14.21 5.43 6.07 3.08 23.19 12.57 13.09 20.33zm-62.94-44.98c-.04.13-.09.27-.15.4-.49 1.11-1.49 2.06-2.69 2.35-.8.19-2.45.21-2.86-.72-.31-.71.61-.79 1.13-.99.53-.2 1.08-.38 1.63-.53.96-.26 1.95-.42 2.94-.51Zm20.21 18.41c2.46-.72 4.94-.88 7.41-.7-.7.9-1.63 1.62-2.68 2.01-1.22.45-4.61.58-4.73-1.31Z"/></svg>