<svg width="67" height="64" fill="none" xmlns="http://www.w3.org/2000/svg"><path fill-rule="evenodd" clip-rule="evenodd" d="m49.062 26.845-1.128 2.891h3.178l.974-2.384c.513-1.268.52-1.268.52-1.521 0-.609-.468-1.015-1.34-1.015-1.282 0-1.692.66-2.204 2.03Z" fill="#CB2821"/><path d="M33.54 10.666c18.761 0 33.269 9.84 33.269 21.504 0 11.207-14.2 21.147-33.322 21.147-17.532 0-33.321-9.18-33.321-21.199 0-12.222 15.277-21.452 33.373-21.452Zm-17.534 9.126-9.28 23.227h7.177l9.28-23.227h-7.177Zm13.476 0c-3.69 0-4.357 1.066-5.894 5.021L18.974 36.63c-.513 1.268-.718 2.18-.718 2.941 0 2.333 1.846 3.449 3.589 3.449h11.534l5.126-13.288h-7.177l-1.999 5.02h2.564l-.923 2.588h-2.82c-1.025 0-1.692-.254-1.692-.863 0-.202.103-.608.205-.862L30.2 26.74c.359-.862.718-1.014 2-1.014h7.587l2.307-5.934H29.482Zm18.25 0c-1.896 0-3.126.811-3.64 2.18L35.84 43.02h6.818l2.973-7.353h3.127L46.04 43.02h7.074l6.767-18.106c.205-.608.308-1.167.308-1.674 0-2.586-1.846-3.448-4.153-3.448h-8.305Z" fill="#CB2821"/></svg>