<svg xmlns="http://www.w3.org/2000/svg" width="74" height="299" fill="none"><path fill="#fff8e0" stroke="#cb2821" d="M47.81 281.213c2.194 6.053 6.269 11.27 11.565 14.897a606 606 0 0 0-49.287-1.442c5.192-3.388 9.287-8.28 11.658-14.03 1.306-3.158 2.037-6.514 2.226-9.922.188-3.502.323-9.148 4.899-9.723.313-.041.637-.365.648-.7.041-7.945.365-15.891.982-23.816.407-5.3 1.535-12.691-3.5-16.047 5.746 1.045 11.752 1.474 17.592.847-4.471 3.335-3.74 10.36-3.573 15.43.272 7.946.24 15.902-.062 23.847-.021.324.303.669.606.722 4.544.773 4.429 6.429 4.47 9.932.043 3.418.617 6.795 1.777 10.005Zm23.358-82.536c.063.92-.647 1.547-1.379 1.944-1.577.868-3.437.91-5.17 1.035a244 244 0 0 1-13.822.649 250 250 0 0 1-27.537-1.004 252 252 0 0 1-13.434-1.589c-1.902-.282-4.012-.387-5.788-1.171-.647-.282-1.41-.68-1.765-1.328-.596-1.087.365-1.986 1.201-2.603 7.135-5.301 16.642-7.203 25.333-5.729.376.063.627-.115.742-.387.115 1.976.24 3.952.366 5.917.041.513.46.69.856.607-.104.428.084.909.648.92 5.275.115 10.969.23 16.244.355.429.45 1.338.366 1.338-.408v-6.021c7.103.386 15 1.306 20.454 6.345.68.617 1.65 1.464 1.713 2.468ZM39.767 55.657c-.063 1.014 1.494 1.16 1.557.157.062-.994.114-1.987.177-2.97 1.734-.02 3.458.44 4.931 1.412.794.523 1.745 1.349 1.682 2.404 0 .084-.021.157-.042.24-.397-.051-.794.168-.794.67v.428a4.3 4.3 0 0 1-.825.46c-2.215.952-5.088.649-7.365.157-1.087-.23-2.424-.606-3.071-1.589-.47-.732-.376-1.913.522-2.227.397-.146.501-.47.428-.784a9.6 9.6 0 0 1 2.957-1.035zM42.012 7.71a66 66 0 0 1 2.632 7.079 68 68 0 0 1 1.703 6.868c.46 2.405.92 4.914.742 7.37-.178 2.437-1.087 4.8-3.228 6.138-2.048 1.265-4.419.888-5.881-1.046-1.494-1.965-1.505-4.579-1.265-6.92a47 47 0 0 1 1.452-7.612c.742-2.666 1.818-5.175 2.769-7.757.49-1.349.898-2.729 1.076-4.12Z"/><path fill="#fff8e0" stroke="#cb2821" d="M47.403 165.228c.02 9.828.031 19.655.042 29.482-5.16-.104-10.718-.219-15.88-.334-.051 0-.093.01-.135.02a.7.7 0 0 0 .031-.261 751 751 0 0 1-1.681-53.569A756 756 0 0 1 31.9 87.07a764 764 0 0 1 2.779-29.273 4.15 4.15 0 0 0 1.42 1.37c1.317.794 2.926 1.087 4.43 1.275 1.62.199 3.374.24 4.983-.073a7 7 0 0 0 1.766-.607l.062 51.771z"/><path fill="#cb2821" stroke="#cb2821" d="M29.78 140.569a751 751 0 0 0 1.681 53.57c0 .094-.01.177-.03.261.04-.01.083-.021.135-.021 5.16.115 10.718.23 15.879.335-.01-9.828-.021-19.655-.042-29.482q-.03-26.848-.063-53.695l-.062-51.771a7 7 0 0 1-1.766.606c-1.609.314-3.364.272-4.983.073-1.504-.188-3.113-.48-4.43-1.275a4.15 4.15 0 0 1-1.42-1.37A764 764 0 0 0 31.9 87.073a755 755 0 0 0-2.12 53.496ZM46.034 271.21c-.042-3.502.073-9.158-4.472-9.932-.303-.052-.626-.397-.606-.721.303-7.946.335-15.902.063-23.847-.167-5.071-.898-12.096 3.573-15.431-5.84.627-11.847.198-17.592-.847 5.035 3.356 3.907 10.747 3.5 16.048a330 330 0 0 0-.983 23.815c-.01.335-.334.659-.647.701-4.576.575-4.712 6.22-4.9 9.722-.188 3.409-.92 6.765-2.225 9.922-2.371 5.75-6.466 10.643-11.658 14.03a606 606 0 0 1 49.287 1.443c-5.297-3.628-9.37-8.845-11.565-14.898-1.16-3.21-1.734-6.586-1.776-10.005ZM41.5 52.845c-.063.983-.115 1.976-.178 2.969-.063 1.004-1.62.857-1.556-.157l.156-2.676a9.6 9.6 0 0 0-2.956 1.035c.073.314-.032.638-.428.784-.899.314-.993 1.495-.523 2.227.648.983 1.985 1.359 3.072 1.589 2.277.491 5.15.794 7.364-.157.272-.115.565-.272.826-.46v-.429c0-.501.397-.72.794-.669.02-.083.041-.157.041-.24.063-1.056-.888-1.882-1.682-2.405-1.472-.972-3.196-1.432-4.93-1.411ZM3.475 194.609c-.836.617-1.797 1.516-1.201 2.603.355.648 1.117 1.046 1.765 1.328 1.776.784 3.886.889 5.787 1.171a252 252 0 0 0 13.435 1.589 250 250 0 0 0 27.537 1.004c4.618-.084 9.224-.303 13.821-.648 1.734-.126 3.594-.168 5.171-1.036.731-.397 1.442-1.024 1.379-1.944-.063-1.004-1.034-1.851-1.713-2.467-5.453-5.039-13.351-5.959-20.455-6.346v6.022c0 .773-.909.857-1.337.407-5.275-.125-10.969-.24-16.244-.355-.565-.011-.753-.492-.648-.92-.397.083-.815-.094-.857-.607-.125-1.965-.25-3.941-.365-5.917-.115.272-.366.45-.742.387-8.692-1.474-18.198.429-25.333 5.729ZM40.017 51.392c.282-4.653.564-9.305.836-13.957-1.285-.105-2.539-.638-3.604-1.757-3.583-3.753-2.12-10.088-1.076-14.563.648-2.76 1.556-5.405 2.59-8.029 1.118-2.812 2.268-5.708 1.578-8.771-.01-.053 0-.105 0-.147a68 68 0 0 0-1.358-2.592c-.491-.889.93-1.537 1.42-.659a69.3 69.3 0 0 1 6.75 17.125c1.159 4.704 2.788 10.872.354 15.43-1.076 1.997-3.008 3.45-5.077 3.858-.282 4.653-.553 9.305-.835 13.957.313 0 .637 0 .95.032 2.497.23 5.662 1.421 6.811 3.836.659 1.38.303 2.562-.511 3.46l.03 29.608.064 53.705c.02 15.452.041 30.915.052 46.367 4.764.261 9.59.752 14.092 2.383 2.121.763 4.179 1.798 5.976 3.168 1.535 1.15 3.614 2.77 3.667 4.872 0 .115-.01.23-.021.345.146.177.23.418.156.7-1.483 6.022-5.338 11.166-10.28 14.835-4.543 3.377-9.704 5.332-15.095 6.273.032.324-.104.669-.49.816-2.894 1.15-4.169 4.223-4.482 7.119-.387 3.429.063 6.984.146 10.413q.267 10.35-.125 20.7c2.737.805 4.346 3.502 4.805 6.231.366 2.101.188 4.244.293 6.377.094 1.861.365 3.711.835 5.52 1.818 7.005 6.237 13.246 12.327 17.167.45.292.44.836.21 1.191.449.429.198 1.412-.606 1.349a605 605 0 0 0-51.523-1.516c-.47.011-.68-.345-.669-.711-.49-.23-.679-1.108-.042-1.474 6.258-3.649 10.949-9.691 13.07-16.602a27.3 27.3 0 0 0 1.075-5.488c.199-2.123.115-4.266.575-6.357.585-2.708 2.308-5.332 5.077-6.011.052-6.9.303-13.8.783-20.679.24-3.429.846-6.963.617-10.403-.188-2.906-1.337-6.032-4.168-7.307-.523-.23-.565-.805-.335-1.182-5.328-1.066-10.635-2.624-14.698-6.429-4.262-3.984-6.843-9.357-9.277-14.564a.71.71 0 0 1 .146-.857 2.83 2.83 0 0 1-.522-1.432c-.146-2.007 1.724-3.231 3.197-4.192 7.406-4.83 16.537-6.712 25.25-5.228a.75.75 0 0 1 .543.366 790 790 0 0 1-1.003-23.324c-.491-17.93-.345-35.88.438-53.799a755 755 0 0 1 4.273-53.632c.063-.565.564-.753.992-.648-.01-.074-.02-.136-.02-.21 0-.261.03-.512.094-.763-.345-.282-.502-.847-.084-1.233 1.609-1.495 3.677-2.395 5.83-2.687Zm-1.849-31.803a47 47 0 0 0-1.452 7.61c-.24 2.343-.23 4.956 1.264 6.922 1.463 1.934 3.834 2.31 5.882 1.045 2.141-1.338 3.05-3.7 3.228-6.137.177-2.456-.283-4.965-.742-7.37a68 68 0 0 0-1.703-6.869 66 66 0 0 0-2.633-7.077c-.177 1.39-.584 2.77-1.075 4.119-.951 2.582-2.027 5.091-2.769 7.757Z"/></svg>