<svg xmlns="http://www.w3.org/2000/svg" width="93" height="71" fill="none"><path fill="#fff8e0" stroke="#cb2821" d="M67.465 46.653c-1.462.522-2.475 1.986-2.83 3.46-.356 1.474-.157 3.126.71 4.391a5.63 5.63 0 0 0 3.604 2.352 5.2 5.2 0 0 0 3.103-.376 5.46 5.46 0 0 0 3.28-4.37c.209-1.715-.533-3.576-1.86-4.694a5.53 5.53 0 0 0-5.213-1.035.6.6 0 0 0-.25.136c-.178.02-.356.073-.544.136Zm-5.651-1.83c4.993-1.17 10.791-1.108 14.897 1.913 2.674 1.976 3.468 5.092 2.026 8.103-1.305 2.739-3.698 4.986-6.038 6.847-4.91 3.9-11.063 6.346-17.32 6.764-3.354.23-7.041-.156-9.58-2.582-2.507-2.404-2.517-5.802-1.107-8.813 2.925-6.262 9.652-10.549 16.38-11.437.47-.063.71-.429.742-.795Z"/><path fill="#fff8e0" stroke="#cb2821" d="M66.023 51.539c0-1.077.387-2.164 1.18-2.917.325-.314.753-.575 1.213-.575.062 0 .104 0 .156.01.44.063.794.366 1.076.68.784.857 1.296 2.08 1.63 3.188.324 1.025.554 2.3-.303 3.127a.8.8 0 0 0-.177.25 4 4 0 0 1-.638.084c-2.193.084-4.116-1.62-4.137-3.847ZM58.439 4.007c6.216-4.308 14.5-.648 20.141 2.917 5.286 3.334 10.102 8.196 11.721 14.396.878 3.355 1.003 7.6-1.765 10.13-2.267 2.07-5.631 2.32-8.535 1.997-7.626-.847-14.95-5.426-20.016-11.03a.7.7 0 0 0-.522-.25c-1.902-2.698-3.73-5.542-4.357-8.803-.679-3.555.272-7.225 3.333-9.357Zm7.553.669c-1.588-.44-3.343-.115-4.701.794-.68.47-1.964 1.663-2.183 2.729-.021.02-.032.052-.053.084-.815 1.442-1.358 3.126-1.117 4.798.25 1.704 1.462 2.948 3.07 3.482 3.406 1.118 7.47-.638 8.818-3.973.648-1.59.616-3.387-.167-4.924a6.02 6.02 0 0 0-3.667-2.99Z"/><path fill="#fff8e0" stroke="#cb2821" d="M67.048 13.856c-1.056.93-2.497 1.463-3.95 1.453-1.44-.01-3.081-.533-3.53-2.06-.334-1.17-.01-2.436.512-3.523.564.157 1.222-.02 1.744-.23.867-.334 1.734-.418 2.622-.146 1.818.543 2.79 2.363 2.539 4.182-.01.115.01.23.063.324Zm-56.433 1.549c1.723.46 2.632 2.174 2.402 3.878-.01.094 0 .199.053.282a5.4 5.4 0 0 1-3.47 1.308c-1.337.01-2.841-.46-3.249-1.881-.302-1.056-.02-2.206.44-3.2.459.115.992.01 1.43-.156.805-.293 1.547-.46 2.393-.23Z"/><path fill="#fff8e0" stroke="#cb2821" d="M5.652 10.229c5.788-3.65 13.205-.21 18.303 3.125 4.847 3.168 9.161 7.768 10.53 13.55.71 3.031.731 6.826-1.776 9.074-2.09 1.871-5.182 2.08-7.835 1.746-6.957-.857-13.57-5.07-18.156-10.224a.7.7 0 0 0-.491-.251c-1.776-2.551-3.458-5.238-4.001-8.322-.596-3.377.438-6.817 3.426-8.698Zm.115 4.14c-.752 1.317-1.253 2.875-1.045 4.4.21 1.642 1.317 2.866 2.884 3.388 3.186 1.046 6.895-.648 8.148-3.743 1.202-2.969-.355-6.419-3.437-7.39-1.452-.45-3.082-.179-4.367.637-.71.46-1.963 1.589-2.141 2.655-.021.01-.031.032-.042.052Z"/><path fill="#cb2821" stroke="#cb2821" d="M67.204 48.622c-.794.753-1.18 1.84-1.18 2.917.02 2.227 1.942 3.93 4.136 3.847.22-.01.429-.042.638-.083a.8.8 0 0 1 .177-.251c.857-.826.627-2.102.303-3.126-.334-1.108-.846-2.332-1.63-3.189-.282-.314-.637-.617-1.076-.68-.052-.01-.094-.01-.156-.01-.46 0-.888.262-1.212.575Zm-2.57 1.485c.355-1.474 1.369-2.938 2.831-3.46.188-.063.366-.116.543-.137a.6.6 0 0 1 .251-.136 5.53 5.53 0 0 1 5.213 1.035c1.327 1.12 2.068 2.98 1.86 4.695a5.46 5.46 0 0 1-3.28 4.37 5.2 5.2 0 0 1-3.104.376 5.63 5.63 0 0 1-3.604-2.352c-.867-1.265-1.065-2.917-.71-4.391Zm-5.066-36.856c.449 1.526 2.09 2.05 3.53 2.06 1.453.01 2.895-.523 3.95-1.454a.57.57 0 0 1-.063-.324c.25-1.819-.72-3.638-2.539-4.181-.888-.272-1.755-.189-2.622.146-.522.209-1.18.387-1.744.23-.523 1.087-.846 2.352-.512 3.523Zm1.441 3.314c-1.608-.533-2.82-1.777-3.07-3.481-.241-1.673.302-3.356 1.117-4.799.02-.031.031-.063.052-.084.22-1.066 1.504-2.258 2.184-2.728 1.358-.91 3.113-1.234 4.7-.795 1.547.429 2.936 1.558 3.667 2.99.784 1.537.815 3.335.167 4.924-1.347 3.335-5.411 5.092-8.817 3.973Z"/><path fill="#cb2821" stroke="#cb2821" d="M78.58 6.922C72.939 3.357 64.655-.302 58.439 4.005c-3.061 2.133-4.012 5.803-3.333 9.357.627 3.262 2.455 6.106 4.357 8.803a.69.69 0 0 1 .522.251c5.067 5.604 12.39 10.183 20.016 11.03 2.904.324 6.268.073 8.535-1.997 2.768-2.53 2.643-6.775 1.765-10.13-1.62-6.2-6.435-11.062-11.721-14.397Zm.48 27.977c-7.228-1.087-14.092-5.102-19.19-10.319a.8.8 0 0 1-.836-.324c-2.726-3.816-5.547-7.914-5.703-12.776-.136-4.098 1.932-7.736 5.61-9.586 7.239-3.628 16.025.491 22.063 4.767 5.777 4.077 10.655 10.015 11.345 17.281.344 3.607-.659 7.392-3.813 9.483-2.748 1.819-6.32 1.944-9.475 1.474Zm-17.246 9.923c-.032.366-.272.732-.742.794-6.728.889-13.455 5.175-16.38 11.438-1.41 3.01-1.4 6.408 1.107 8.813 2.539 2.425 6.226 2.812 9.58 2.582 6.257-.418 12.41-2.864 17.32-6.764 2.34-1.86 4.733-4.109 6.038-6.848 1.442-3.01.648-6.126-2.026-8.102-4.106-3.021-9.904-3.084-14.897-1.913Zm-3.636-.544c4.18-1.537 8.734-2.049 13.132-1.338 3.217.523 6.644 2.007 8.524 4.778 4.315 6.377-3.249 13.287-8.054 16.58-5.892 4.026-13.894 6.723-21.07 5.542-3.166-.523-6.352-2.28-7.794-5.27-1.567-3.24-.543-6.93 1.254-9.848 3.04-4.945 8.012-8.437 13.538-9.984a.76.76 0 0 1 .47-.46ZM6.79 15.788c-.46.993-.742 2.143-.439 3.199.408 1.422 1.912 1.892 3.249 1.882a5.4 5.4 0 0 0 3.468-1.307c-.052-.084-.062-.188-.052-.282.23-1.704-.679-3.419-2.403-3.879-.846-.23-1.587-.063-2.392.23-.439.167-.971.272-1.431.157Zm-2.069 2.98c-.208-1.527.293-3.085 1.045-4.402 0-.02.021-.042.042-.052.178-1.067 1.431-2.196 2.141-2.656 1.285-.815 2.915-1.087 4.367-.637 3.082.972 4.638 4.422 3.437 7.39-1.254 3.095-4.962 4.79-8.148 3.744-1.567-.523-2.675-1.746-2.884-3.388Z"/><path fill="#cb2821" stroke="#cb2821" d="M24.122 39.195c-6.644-1.003-12.944-4.767-17.582-9.586a.81.81 0 0 1-.804-.335C3.197 25.667.586 21.788.502 17.209c-.073-3.9 1.974-7.339 5.537-8.98 6.717-3.084 14.677.763 20.151 4.767 5.286 3.868 9.684 9.44 10.227 16.184.262 3.304-.7 6.743-3.572 8.656-2.528 1.694-5.82 1.799-8.723 1.36Zm-.167-25.843c-5.098-3.335-12.515-6.775-18.303-3.126-2.988 1.882-4.022 5.321-3.426 8.698.543 3.084 2.225 5.77 4 8.322.168.01.345.083.492.25 4.586 5.155 11.198 9.368 18.156 10.225 2.653.335 5.746.126 7.835-1.746 2.507-2.247 2.486-6.042 1.776-9.074-1.369-5.782-5.683-10.382-10.53-13.55Z"/></svg>