<svg xmlns="http://www.w3.org/2000/svg" width="450" height="228" fill="none"><path fill="#fff8e0" stroke="#cb2821" d="M431.076 126.754c-.992 3.189-4.816 4.496-7.897 4.516-2.894.021-9.016-.46-10.081-3.857.313-.209.522-.617.324-1.056-.011-.011-.011-.032-.011-.042.251.355.784.544 1.201.146 4.461-4.223 12.15-4.056 16.464.293Zm-187.736 7.854c.094.408.136.879.042 1.265-.073.314-.23.628-.397.837-.261.324-.46.481-.805.648-.01 0-.052.021-.156.052-.063.021-.136.032-.199.042-.01 0-.146.021-.177.021-.042 0-.074-.01-.115-.01h-.032c-.219-.063-.188-.053-.365-.168a.5.5 0 0 1-.126-.104.5.5 0 0 0-.083-.073h-.011l-.01-.011a3 3 0 0 1-.136-.251.2.2 0 0 0-.031-.052c0-.01 0-.021-.011-.042-.021-.094-.052-.178-.073-.272-.01-.042-.01-.073-.021-.115v-.042c-.062-.71.053-1.359.261-2.038a.6.6 0 0 0 .094-.073c.523-.513 1.045-1.014 1.578-1.527.324.607.616 1.234.773 1.924zm18.448-25.272a5.68 5.68 0 0 1 1.703 4.663c-1.442-.952-2.111-2.969-1.703-4.663ZM251.289 89.57c.606.91 1.65 2.352 1.076 3.47-.199.388-.596.733-.961.774a.5.5 0 0 1-.418-.115c-.251-.198-.397-.522-.533-.805-.658-1.317-.951-2.822-.888-4.286.021-.491 0-1.349.439-1.683a.9.9 0 0 1 .344-.115c.251-.021.46.02.721.136.47.209.763.658.92 1.192.031.094.052.198.073.292-.575-.052-1.17.523-.773 1.14Zm11.627 96.088c.407 1.777-1.139 2.739-2.455 3.523-9.987 5.959-20.215 11.824-31.152 15.859-5.412 2.008-11.011 3.534-16.725 4.339-5.83.805-12.474 1.317-17.906-1.38-7.939-3.931-11.324-13.507-10.541-21.913 1.097-11.646 10.301-20.574 18.418-28.196 3.134 6.545 6.508 13.246 12.212 17.93.773.638 1.891-.46 1.107-1.108-5.693-4.674-8.973-11.375-12.097-17.888a.4.4 0 0 0-.073-.115c.136-.356-.073-.742-.387-.92.387-1.412 1.411-2.603 2.727-3.272 1.891-.941 3.782-.481 5.631.324 1.661.721 3.196 1.463 5.014 1.725.972.136 2.11.177 2.998.648.669.355 1.724 1.495 1.045 2.279-.366.418-.272 1.181.345 1.317.23.052.449.105.668.167 5.015 1.245 9.444 4.109 12.693 8.145.669.825 1.316 1.662 2.204 2.258 1.066.711 2.121.481 3.26.878 1.859.648 1.483 3.251 1.002 4.924-.073.241-.146.46-.208.659-.168.491.282.993.762.993 4.628.031 9.413.272 13.79 1.913 2.131.795 4.126 1.976 5.672 3.659.815.889 1.724 2.06 1.996 3.252Zm-19.191 5.331c.982.251 1.389-1.265.418-1.516-5.255-1.359-10.499-2.728-15.754-4.087-.971-.251-1.389 1.265-.407 1.516 5.244 1.359 10.488 2.718 15.743 4.087ZM44.593 139.43c.564 4.621.762 9.294.564 13.936-.167 3.826-.178 8.322-2.017 11.792-.825 1.548-2.13 2.834-3.948 2.97-2.194.177-4.231-1.286-5.725-2.74-3.05-2.948-4.941-6.879-5.547-11.071-.084-.596-.68-.68-1.097-.429l-.637-.784c5.881-4.882 12.118-9.336 18.407-13.674Zm37.952-8.35c0 4.579-.501 9.577-2.612 13.717-.971 1.923-2.747 3.669-5.014 2.551-1.776-.878-2.915-2.813-3.834-4.475-2.58-4.663-5.077-9.367-7.605-14.04-.25-.46-.731-.471-1.065-.251l-.366-.586a232 232 0 0 1 3.698-2.289 431 431 0 0 1 15.367-8.887c.731 4.715 1.41 9.472 1.431 14.26Zm44.116-35.94c2.549 9.682 5.161 19.927 3.364 29.953-.355 1.965-.93 4.046-2.278 5.572-1.608 1.809-4.074 2.185-6.33 1.506-4.336-1.307-7.323-5.97-9.59-9.608-2.81-4.516-4.847-9.451-6.111-14.616-.126-.522-.617-.648-1.003-.512l-1.045-2.164a400 400 0 0 1 5.996-2.802c5.61-2.561 11.293-4.986 16.997-7.328Zm50.614-19.757a223 223 0 0 1-.574 12.096c-.335 4.715-.69 9.503-1.473 14.176-.512 2.99-1.661 7.193-5.245 7.611-4.293.491-7.354-4.621-9.193-7.736-2.538-4.329-4.387-9.002-5.557-13.874-.126-.522-.617-.648-1.003-.512l-.919-2.415c1.076-.418 2.141-.826 3.217-1.233 6.937-2.645 13.873-5.311 20.747-8.113Z"/><path fill="#cb2821" stroke="#cb2821" d="M447.278 119.887a11.14 11.14 0 0 1 .209 10.988c-2.058 3.805-5.965 6.387-9.809 8.133-4.492 2.039-9.266 3.126-14.145 3.701-13.33 1.6-26.785.722-40.136-.115-23.505-1.474-52.191-4.129-70.399 14.041-4.346 4.328-8.097 9.231-11.972 13.977-4.346 5.311-8.681 10.633-13.038 15.954-7.469 9.127-15.252 18.118-25.312 24.485-19.044 12.023-42.507 14.49-64.497 15.441-25.584 1.108-51.91 1.568-77.002-4.307-20.737-4.851-41.568-14.699-54.762-31.981a.54.54 0 0 1-.135-.324c-11.147 3.952-22.482 7.35-34.067 9.734-7.71 1.589-16.443 3.209-23.724-.753-2.768-1.516-5.255-3.785-6.696-6.628-1.62-3.231-1.62-6.848-.544-10.256 1.17-3.712 3.26-7.162 5.422-10.371 2.09-3.105 4.43-6.043 6.947-8.814 5.203-5.718 11.126-10.715 17.258-15.389a364 364 0 0 1 18.449-13.141c-.93-13.382 3.478-26.387 10.478-37.668 6.33-10.193 14.625-18.985 23.61-26.879 9.234-8.102 19.336-15.243 30.117-21.16 20.778-11.416 44.053-18.233 67.777-19.121a405 405 0 0 1 7.418-5.123A655 655 0 0 1 226.217.882c.157-.094.314-.177.471-.271.637-.366 1.264.24 1.149.888-.721 4.234-2.111 9.524-6.54 11.166.073.648.136 1.296.199 1.934.041.408-.387.805-.784.784-1.703-.105-4.774-.01-4.659 2.31.042.805.094 1.59-.637 2.123-.773.543-1.588.156-2.424.198-1.473.073-1.556 2.143-1.922 3.2-.272.783-.711 1.578-1.473 1.986a2.5 2.5 0 0 1-2.277.02c-.575 1.412-1.171 2.823-1.766 4.235-.146.355-.418.564-.752.564-.063 0-.125-.01-.199-.02-.062-.021-.135-.043-.198-.074-.554-.272-1.097-.544-1.651-.805a44.5 44.5 0 0 1-2.089 5.75c-.094.23-.188.45-.292.67-.262.585-1.045.428-1.348 0-.376-.523-1.222-.66-1.755-.293-.512.345-.564 1.129-.648 1.683-.115.763-.157 1.6-.637 2.248-.992 1.327-2.309.836-3.291-.053l-.595 1.506c-.052.125-.094.24-.146.366-.272.68-1.296.805-1.515 0-.324-1.16-1.922-.847-2.56-.178-.835.889-1.013 2.31-1.201 3.45-.073.502-.752.71-1.149.47l-1.567-.94a22 22 0 0 1-.899 4.85c-.188.596-.867.732-1.316.345l-.846-.721c-.313.69-.512 1.411-.648 2.185-.104.606-.929.732-1.316.345a6.4 6.4 0 0 0-1.536-1.15 10.8 10.8 0 0 0-.512 3.481c.011.607-.668.962-1.18.67-.679-.377-1.348-.743-2.027-1.13a10 10 0 0 0-.741 3.952c0 .69-.857 1.014-1.338.554l-1.441-1.38c-.24.93-.24 1.882-.011 2.844.126.554-.376 1.16-.971.962-.846-.272-1.692-.565-2.539-.837-.397.847-.658 1.715-.846 2.635-.125.627-.888.69-1.306.345-.668-.565-1.347-1.13-2.016-1.704-.345.815-.449 1.641-.376 2.593.073.815-1.076 1.014-1.452.397-.125-.188-.24-.387-.355-.575-.126.7-.199 1.4-.23 2.122a.793.793 0 0 1-1.18.68c-.46-.251-.93-.492-1.4-.743-.366.973-.46 1.976-.345 3.053.084.69-.909 1.014-1.337.554-.491-.523-.982-1.056-1.484-1.578a8.7 8.7 0 0 0-.073 1.651c-.01.074 0 .136 0 .21.052.972-1.232.95-1.535.209-.627-1.495-2.685-.419-2.017 1.003.356.774-.585 1.631-1.232.952-.042-.053-.094-.094-.136-.147-.418-.428-.825-.857-1.233-1.286-.042.398-.01.795.094 1.224.209.857-.971 1.37-1.431.595a1.4 1.4 0 0 0-.104-.156c-1.056-1.495-3.385-1.004-3.542.951-.052.7-.794 1.004-1.337.554-.407-.345-.815-.69-1.212-1.056.157.345.324.69.47 1.046.157.376.126.846-.282 1.066a5162 5162 0 0 1-16.84 9.064 4251 4251 0 0 1-60.434 31.698.806.806 0 0 1-1.075-.282 3683 3683 0 0 0-4.963-8.395.79.79 0 0 1 0-.774.7.7 0 0 1 .282-.303q8.04-4.908 16.14-9.722a1593 1593 0 0 1 58.47-33.131c.011-.01.021-.01.032-.01.052-.126.156-.23.323-.314 7.25-3.513 14.145-7.705 20.841-12.19 8.608-5.771 16.955-11.918 25.417-17.899-12.17.66-24.226 2.886-35.874 6.524-22.867 7.14-43.907 19.676-61.52 35.87-9.517 8.76-18.564 19.247-24.361 31.05-4.357 8.886-6.874 18.526-6.341 28.719 7.176-4.747 14.51-9.242 21.938-13.539 2.778-1.6 5.567-3.178 8.388-4.725a425 425 0 0 1 36.918-17.961 464 464 0 0 1 8.849-3.68c12.88-5.26 25.939-10.079 38.903-15.118a901 901 0 0 0 11.47-4.558c.011-.167.011-.324.011-.491.01-.952 1.421-1.004 1.546-.147 8.211-3.366 16.338-6.92 24.299-10.82a269 269 0 0 0 8.462-4.318c.177-.439.355-.857.522-1.254.334-.785 1.358-.335 1.421.386.647.084 1.034 1.056.313 1.443a48 48 0 0 1-1.024.544c-.773 2.049-1.358 4.328-.825 6.408.836 3.304 4.753 3.795 7.532 4.642 1.504.45 3.061.826 4.523 1.38.794.303 1.505.753 1.87 1.547.512 1.098.032 2.395.773 3.409.564.784 1.515 1.254 2.351 1.683 1.744.899 3.489 1.662 4.69 3.293 1.432 1.945 1.902 4.38 2.769 6.597 1.974 4.976 6.362 8.51 8.42 13.465 1.107 2.666 1.682 5.5 2.141 8.343.157.983.575 2.656.167 3.774.408.314.418 1.171-.229 1.443-4.169 1.746-8.347 3.492-12.515 5.238-17.07 7.161-34.15 14.312-51.231 21.463-17.07 7.161-34.15 14.312-51.23 21.474-16.579 6.942-33.084 14.072-49.799 20.679a467 467 0 0 1-14.552 5.499c.02.01.031.031.052.052 3.092 4.046 6.686 7.705 10.593 10.967 17.592 14.689 40.731 21.171 63.118 23.638 12.766 1.401 25.636 1.6 38.475 1.411 11.742-.177 23.526-.491 35.216-1.704 11.063-1.139 22.126-3.157 32.572-7.077 10.75-4.036 20.131-10.288 28.123-18.537 4.105-4.234 7.856-8.792 11.596-13.36l12.63-15.463c3.823-4.673 7.521-9.503 11.804-13.768 4.012-4.005 8.619-7.256 13.8-9.556 10.468-4.652 22.157-5.802 33.492-5.886 13.1-.094 26.158 1.265 39.238 1.767 6.591.251 13.204.293 19.796-.199 5.484-.397 10.948-1.087 16.14-2.969 4.116-1.505 8.493-3.763 11.063-7.454 2.424-3.46 2.455-7.872 0-11.333-2.685-3.795-7.344-6.011-11.617-7.496-5.474-1.902-11.324-2.812-17.049-3.565-12.724-1.672-25.615-1.725-38.412-.909-13.048.836-26.033 2.582-38.955 4.548-2.842.439-5.683.972-8.535 1.275-2.424.261-5.035.314-7.302-.7-2.184-.983-3.437-2.865-4.304-5.019-1.066-2.666-1.912-5.426-2.81-8.154-1.839-5.562-3.667-11.166-6.227-16.456-2.58-5.321-5.944-10.11-10.102-14.302-8.096-8.196-18.239-14.48-28.498-19.57-21.113-10.466-44.576-15.693-67.955-17.564-1.003-.084-1.003-1.652 0-1.569.303.021.606.053.909.074.062.01.135.01.198.02 5.411.45 10.791 1.088 16.151 1.924 23.191 3.618 46.247 11.009 65.918 24.056 9.652 6.398 18.511 14.114 23.923 24.527 2.663 5.133 4.586 10.611 6.414 16.09.95 2.853 1.87 5.718 2.873 8.551.982 2.781 2.058 5.468 5.15 6.315 2.695.742 5.631.261 8.336-.168 3.218-.501 6.435-.993 9.663-1.474 6.456-.951 12.923-1.829 19.41-2.561 13.069-1.464 26.242-2.3 39.394-1.756 6.477.271 12.954.888 19.358 1.923 5.275.847 10.562 1.872 15.492 3.963 4.022 1.693 8.149 4.14 10.436 7.987Zm-201.713-6.733c1.138-.23-1.087-8.364-1.4-9.325-.93-2.917-2.528-5.384-4.356-7.82-1.515-2.008-3.114-4.005-4.21-6.294-1.014-2.122-1.421-4.516-2.57-6.586-1.139-2.04-3.061-2.781-5.025-3.827-1.525-.805-2.967-1.892-3.26-3.711-.114-.722.074-1.506-.397-2.102-.438-.564-1.17-.68-1.828-.878a461 461 0 0 0-4.095-1.233c-2.308-.7-5.045-1.192-6.686-3.126-1.932-2.28-1.681-5.343-.856-8.165a299 299 0 0 1-6.571 3.335c-.387 4.987-.805 9.984-1.64 14.918-.408 2.426-.92 4.83-1.588 7.193-.502 1.777-.951 4.203-2.466 5.457-1.19.983-2.778.764-3.76-.386-1.181-1.39-1.379-3.492-1.703-5.196a96.4 96.4 0 0 1-1.63-15.776.8.8 0 0 1 .042-.283 465 465 0 0 1-12.714 5.395 233 233 0 0 1-.961 17.313 230 230 0 0 1-.888 8.123c-.24 1.892-.543 3.785-1.232 5.572-1.275 3.241-4.054 5.803-7.762 4.935-4.221-1.004-6.926-5.478-8.911-8.97a52 52 0 0 1-5.38-13.643c-.115-.46.157-.795.512-.93.386-.137.877-.011 1.003.511 1.17 4.872 3.019 9.545 5.557 13.874 1.839 3.115 4.9 8.227 9.193 7.736 3.583-.418 4.733-4.621 5.244-7.611.784-4.673 1.139-9.461 1.473-14.176.303-4.025.491-8.06.575-12.096-6.874 2.801-13.81 5.467-20.747 8.112-1.076.408-2.142.816-3.218 1.234-8.409 3.21-16.829 6.43-25.176 9.817 1.63 6.231 3.207 12.504 3.792 18.923.46 5.039.585 10.893-1.431 15.65-1.797 4.234-6.09 5.991-10.373 4.245-4.482-1.819-7.585-6.597-9.998-10.58-2.695-4.475-4.68-9.357-5.923-14.417-.115-.46.157-.795.512-.931.386-.135.877-.01 1.003.513 1.264 5.164 3.301 10.099 6.111 14.615 2.267 3.638 5.255 8.301 9.59 9.608 2.256.68 4.722.303 6.331-1.505 1.347-1.527 1.922-3.607 2.277-5.573 1.797-10.026-.815-20.271-3.364-29.952-5.704 2.342-11.387 4.767-16.997 7.329-2.005.92-4.011 1.85-5.996 2.801a409 409 0 0 0-21.102 10.769c.752 4.83 1.473 9.691 1.536 14.584.052 4.192-.387 8.457-1.776 12.43-1.003 2.907-2.852 6.649-6.53 6.189-3.447-.439-5.338-4.234-6.8-6.942-2.288-4.223-4.586-8.447-6.874-12.681-.23-.429-.031-.836.292-1.035.335-.219.815-.209 1.066.251 2.528 4.673 5.025 9.378 7.605 14.041.92 1.662 2.058 3.596 3.834 4.474 2.267 1.119 4.043-.627 5.014-2.551 2.11-4.14 2.622-9.137 2.612-13.716-.02-4.788-.7-9.545-1.431-14.26a431 431 0 0 0-15.367 8.886 239 239 0 0 0-3.698 2.29 384 384 0 0 0-11.168 7.171c-.094.272-.355.408-.637.419a232 232 0 0 0-4.262 2.896.9.9 0 0 1 .104.303 85.6 85.6 0 0 1 .606 15.086c-.24 5.018-.397 15.431-7.5 15.818-3.542.198-6.613-2.625-8.65-5.228a20.8 20.8 0 0 1-4.137-9.733.81.81 0 0 1 .282-.753.4.4 0 0 1 .136-.094c.418-.251 1.013-.167 1.097.429.606 4.192 2.496 8.123 5.547 11.071 1.494 1.453 3.53 2.917 5.725 2.739 1.817-.136 3.123-1.422 3.948-2.969 1.839-3.471 1.85-7.966 2.017-11.793.198-4.641 0-9.315-.564-13.936-6.29 4.339-12.526 8.793-18.408 13.675-.041.031-.083.073-.125.105-.146.115-.282.23-.418.345-5.829 4.882-11.345 10.235-15.879 16.372-2.256 3.063-4.377 6.335-5.954 9.806-1.724 3.753-2.57 8.039-.575 11.866 3.74 7.172 12.421 8.677 19.744 7.966 4.346-.418 8.66-1.38 12.912-2.342a228 228 0 0 0 12.4-3.188c16.475-4.715 32.417-11.072 48.212-17.648 16.62-6.91 33.21-13.904 49.82-20.856 16.672-6.984 33.345-13.978 50.029-20.962a91642 91642 0 0 0 48.712-20.407c-.157-.398-.031-.889.502-1.004ZM220.252 11.358c3.678-1.014 5.025-5.008 5.757-8.52a622 622 0 0 0-20.246 12.231 647 647 0 0 0-23.891 15.88 776 776 0 0 0-12.39 8.762c-11.136 7.997-22.335 16.016-34.62 22.143a.9.9 0 0 1 .292.292 33.3 33.3 0 0 0 6.759 8.218c.857-1.767 2.977-2.468 4.659-1.631.063-.502.22-1.004.439-1.527.209-.46.919-.48 1.233-.157.313.325.627.66.94.983a2.46 2.46 0 0 1 1.358-1.484 2.47 2.47 0 0 1 2.204.062 9.3 9.3 0 0 1 .387-1.882c.167-.543.888-.784 1.306-.344.386.407.773.825 1.159 1.233a8.1 8.1 0 0 1 .815-2.593c.199-.386.711-.47 1.076-.282.366.199.731.387 1.097.586a16.4 16.4 0 0 1 .606-3.085c.198-.658 1.076-.763 1.431-.188.042.063.084.136.125.199a7.1 7.1 0 0 1 .784-1.84c.282-.46.846-.481 1.233-.157.606.512 1.222 1.025 1.828 1.537.24-.826.564-1.61.95-2.384.157-.303.575-.47.888-.366q1.004.345 2.006.659c-.073-1.265.167-2.488.721-3.7.219-.471.898-.471 1.233-.158.365.356.731.7 1.097 1.056a11.6 11.6 0 0 1 1.149-3.711c.198-.387.721-.481 1.076-.282.553.303 1.107.616 1.661.92a11.6 11.6 0 0 1 .846-3.482c.209-.512.637-.68 1.149-.47a8.4 8.4 0 0 1 1.661.951 10 10 0 0 1 .94-2.206c.261-.47.857-.48 1.233-.157l.669.575c.376-1.505.564-3.032.585-4.59 0-.595.658-.992 1.18-.679.575.345 1.149.69 1.734 1.035.355-1.652 1.034-3.398 2.737-3.962.982-.335 2.09-.21 2.873.366.24-.596.47-1.192.71-1.788.251-.617 1.045-.794 1.432-.188.407.627 1.222 1.652 1.765.648.209-.387.167-1.035.24-1.474.126-.805.324-1.652.961-2.227.951-.857 2.278-.889 3.302-.303a44.4 44.4 0 0 0 2.12-6.064c.146-.522.711-.69 1.149-.47.585.282 1.16.564 1.745.836a714 714 0 0 1 1.807-4.307c.042-.115.094-.24.146-.355.251-.617 1.369-.858 1.505 0 .094.522.7.501 1.065.271.544-.334.69-1.192.847-1.756.25-.91.459-1.788 1.065-2.54.418-.513.951-.89 1.598-1.004.773-.146 1.985.512 2.09-.45.083-.784-.136-1.39.282-2.143a3.37 3.37 0 0 1 1.212-1.213c1.128-.669 2.507-.888 3.823-.888-.052-.554-.115-1.119-.167-1.683-.031-.335.271-.67.574-.753Zm-21.551 76.57c2.779-7.518 3.374-15.766 3.98-23.712a328 328 0 0 1-10.133 4.694.75.75 0 0 1 .543.722 94 94 0 0 0 1.222 13.371c.303 1.84.502 3.879 1.202 5.614.313.795.888 1.767 1.891 1.317.7-.313 1.044-1.348 1.295-2.007Zm-64.988-25.165a.7.7 0 0 1-.021-.324c-.073.042-.157.073-.23.115.083.063.167.125.251.209Z"/><path fill="#fff8e0" stroke="#cb2821" d="M445.42 119.894c2.454 3.461 2.423 7.873 0 11.333-2.57 3.691-6.947 5.949-11.063 7.454-5.192 1.882-10.656 2.572-16.14 2.969-6.592.492-13.205.45-19.797.199-13.079-.502-26.137-1.861-39.237-1.767-11.335.084-23.025 1.234-33.492 5.886-5.182 2.3-9.789 5.551-13.8 9.556-4.283 4.265-7.981 9.095-11.805 13.768l-12.63 15.463c-3.74 4.568-7.49 9.126-11.596 13.361-7.991 8.248-17.372 14.5-28.122 18.536-10.447 3.92-21.51 5.938-32.572 7.077-11.69 1.213-23.474 1.527-35.216 1.704-12.839.189-25.709-.01-38.475-1.411-22.387-2.467-45.526-8.949-63.118-23.638-3.907-3.262-7.501-6.921-10.593-10.967-.021-.021-.032-.042-.053-.052a467 467 0 0 0 14.553-5.499c16.714-6.607 33.22-13.737 49.799-20.679 17.08-7.162 34.16-14.313 51.23-21.474a78579 78579 0 0 0 51.23-21.463c4.168-1.746 8.347-3.492 12.515-5.238.648-.272.637-1.129.23-1.443.407-1.118-.01-2.791-.167-3.774-.46-2.843-1.034-5.677-2.142-8.343-2.058-4.955-6.445-8.489-8.42-13.465-.867-2.216-1.337-4.652-2.768-6.597-1.201-1.63-2.946-2.394-4.691-3.293-.835-.429-1.786-.9-2.35-1.683-.742-1.014-.261-2.31-.773-3.409-.366-.794-1.076-1.244-1.87-1.547-1.463-.554-3.019-.93-4.523-1.38-2.779-.847-6.697-1.338-7.532-4.642-.533-2.08.052-4.36.825-6.408a48 48 0 0 0 1.024-.544c.72-.387.334-1.359-.314-1.443-.063-.721-1.086-1.17-1.421-.386-.167.397-.344.815-.522 1.254-2.8 1.495-5.62 2.927-8.462 4.318-7.96 3.9-16.087 7.454-24.298 10.82-.126-.857-1.536-.805-1.547.147 0 .167 0 .324-.01.491a907 907 0 0 1-11.47 4.558c-12.965 5.04-26.023 9.859-38.904 15.118a467 467 0 0 0-8.848 3.68 425 425 0 0 0-36.918 17.961 469 469 0 0 0-8.389 4.725c-7.428 4.297-14.761 8.792-21.938 13.539-.533-10.193 1.985-19.833 6.341-28.719l.251.125a.79.79 0 0 0 0 .774c1.661 2.802 3.311 5.593 4.962 8.395.23.376.7.481 1.076.282a4256 4256 0 0 0 60.434-31.698c5.62-3.01 11.23-6.032 16.84-9.064.407-.22.439-.69.282-1.066-.146-.356-.314-.7-.47-1.046.397.366.804.711 1.212 1.056.543.45 1.284.146 1.337-.554.156-1.955 2.486-2.446 3.541-.951.042.052.073.104.105.156.459.774 1.64.262 1.431-.596a3.5 3.5 0 0 1-.094-1.223c.407.429.815.858 1.232 1.286.042.052.094.094.136.147.648.68 1.588-.178 1.233-.952-.669-1.422 1.389-2.498 2.016-1.003.303.742 1.588.763 1.536-.21 0-.073-.011-.135 0-.209a8.6 8.6 0 0 1 .073-1.651c.501.522.992 1.055 1.483 1.578.429.46 1.421.136 1.338-.554-.115-1.077-.021-2.08.344-3.053.47.251.94.492 1.4.743a.794.794 0 0 0 1.181-.68 16 16 0 0 1 .229-2.122c.115.188.23.387.356.575.376.617 1.525.418 1.452-.397-.073-.952.031-1.778.376-2.593.668.575 1.347 1.14 2.016 1.704.418.345 1.18.282 1.306-.345.188-.92.449-1.788.846-2.635.846.272 1.692.565 2.539.837.595.198 1.096-.408.971-.962a5.8 5.8 0 0 1 .01-2.844l1.442 1.38c.481.46 1.337.136 1.337-.554a10 10 0 0 1 .742-3.952c.679.387 1.348.753 2.027 1.13.512.292 1.191-.063 1.18-.67a10.8 10.8 0 0 1 .512-3.481c.564.303 1.055.67 1.536 1.15.386.387 1.211.261 1.316-.345.136-.774.334-1.495.648-2.185l.846.721c.449.387 1.128.251 1.316-.345.481-1.589.784-3.21.898-4.85l1.567.94c.397.24 1.076.032 1.15-.47.188-1.14.365-2.561 1.201-3.45.637-.67 2.236-.983 2.559.178.22.805 1.244.68 1.515 0 .052-.126.094-.24.146-.366l.596-1.506c.982.889 2.298 1.38 3.291.053.48-.649.522-1.485.637-2.248.083-.554.136-1.338.647-1.683.533-.366 1.379-.23 1.755.292.303.429 1.087.586 1.348 0 .105-.22.199-.439.293-.669a44.5 44.5 0 0 0 2.089-5.75c.554.262 1.097.533 1.651.805.062.031.135.052.198.073l-.042.492c-.303-.021-.606-.052-.909-.073-1.003-.084-1.003 1.484 0 1.568 23.38 1.871 46.843 7.098 67.956 17.563 10.258 5.092 20.402 11.375 28.498 19.571 4.158 4.193 7.522 8.98 10.102 14.302 2.559 5.29 4.387 10.894 6.226 16.456.899 2.728 1.745 5.488 2.81 8.154.867 2.154 2.121 4.036 4.304 5.019 2.267 1.014 4.879.961 7.302.7 2.852-.303 5.694-.836 8.535-1.275 12.923-1.966 25.908-3.712 38.956-4.548 12.797-.816 25.688-.763 38.412.909 5.725.753 11.575 1.663 17.049 3.565 4.273 1.485 8.932 3.701 11.617 7.496Zm-12.672 6.587c.679-3.503-1.745-6.921-4.628-8.845-3.521-2.331-8.493-3.199-12.296-1.014-3.061 1.746-4.889 5.374-4.283 8.792a.85.85 0 0 0-.125.335c-.69 5.227 5.735 6.586 9.548 6.973 4.22.429 9.35-.502 11.314-4.788.219-.481.376-.972.47-1.453Zm-167.919-11.134c.783-2.698-.199-5.698-2.33-7.475a2 2 0 0 1 .209-.241c.71-.711-.397-1.819-1.107-1.108a5 5 0 0 0-.648.794.9.9 0 0 0-.376.722c-1.275 2.896.157 6.827 3.291 7.851.397.136.846-.157.961-.543Zm-.533 72.293c.595-1.443.084-2.959-.679-4.234-1.337-2.237-3.385-3.994-5.683-5.186-4.701-2.425-10.196-2.864-15.419-2.948.449-1.725.595-3.732-.397-5.217-.533-.794-1.348-1.254-2.288-1.421-.784-.136-1.546-.084-2.256-.513-.617-.366-1.108-.982-1.557-1.526-3.604-4.391-8.107-7.642-13.612-9.075.334-1.401-.595-2.948-1.922-3.659-1.243-.669-2.685-.658-4.033-.909-1.556-.293-2.935-1.025-4.377-1.631-2.256-.962-4.554-1.317-6.821-.157-2.069 1.056-3.375 3.042-3.636 5.321-.01.053-.01.105-.01.147-7.95 7.454-16.673 15.953-18.71 27.088-1.609 8.855 1.274 19.226 8.974 24.453 5.056 3.439 11.376 3.648 17.268 3.147 6.289-.534 12.473-1.955 18.449-4.004 11.94-4.099 23.264-10.371 33.982-16.979 1.097-.669 2.226-1.474 2.727-2.697ZM253.17 94.563c.742-.732 1.014-1.725.867-2.75a4.6 4.6 0 0 0-.344-1.192v-.125c.073-1.746-.021-3.92-1.766-4.861-.689-.377-1.567-.534-2.309-.251-.898.334-1.358 1.14-1.504 2.049-.334 2.038 0 4.14.857 6 .386.848.961 1.736 1.953 1.914.826.146 1.64-.21 2.236-.784zm-9.443 43.627c.877-.742 1.316-1.872 1.264-3.011-.074-1.516-.815-2.875-1.567-4.161a.793.793 0 0 0-1.233-.157c-.669.638-1.337 1.297-2.006 1.934-.292.053-.522.272-.627.565-.637 1.829-1.013 4.61 1.233 5.509 1.024.408 2.131 0 2.936-.679Z"/><path fill="#cb2821" stroke="#cb2821" d="M428.119 117.64c2.883 1.923 5.307 5.342 4.628 8.844a6.5 6.5 0 0 1-.47 1.453c-1.964 4.287-7.094 5.217-11.314 4.789-3.813-.387-10.238-1.746-9.548-6.974a.8.8 0 0 1 .125-.334c-.606-3.419 1.222-7.046 4.283-8.792 3.803-2.185 8.775-1.318 12.296 1.014Zm-4.942 13.632c3.082-.02 6.906-1.327 7.898-4.516-4.314-4.349-12.003-4.516-16.464-.293-.418.398-.95.209-1.201-.146 0 .01 0 .031.01.042.199.439-.01.847-.324 1.045 1.066 3.408 7.188 3.889 10.081 3.868Zm-160.679-23.398c2.131 1.778 3.113 4.778 2.329 7.475-.115.387-.564.68-.961.544-3.134-1.025-4.565-4.955-3.29-7.851 0-.283.146-.565.376-.722.188-.282.397-.543.647-.794.711-.711 1.818.397 1.108 1.108a2.4 2.4 0 0 0-.209.24Zm.992 6.127a5.67 5.67 0 0 0-1.703-4.663c-.407 1.694.262 3.711 1.703 4.663Zm.126 69.407c.763 1.276 1.275 2.792.679 4.234-.501 1.224-1.629 2.029-2.726 2.698-10.719 6.607-22.043 12.88-33.983 16.978-5.976 2.049-12.16 3.471-18.449 4.004-5.892.502-12.212.293-17.268-3.147-7.699-5.227-10.583-15.598-8.974-24.453 2.037-11.134 10.76-19.634 18.71-27.088a.7.7 0 0 1 .011-.146c.261-2.279 1.566-4.266 3.635-5.322 2.267-1.16 4.565-.805 6.822.157 1.441.607 2.82 1.338 4.377 1.631 1.347.251 2.789.241 4.032.91 1.327.711 2.257 2.258 1.922 3.659 5.506 1.432 10.008 4.683 13.612 9.074.449.544.94 1.161 1.557 1.527.71.428 1.473.376 2.256.512.94.167 1.755.627 2.288 1.422.992 1.484.846 3.492.397 5.217 5.223.083 10.718.522 15.419 2.948 2.298 1.192 4.346 2.948 5.683 5.185Zm-3.155 5.771c1.317-.784 2.863-1.746 2.455-3.523-.271-1.192-1.18-2.363-1.995-3.251-1.546-1.684-3.541-2.865-5.673-3.659-4.377-1.642-9.161-1.882-13.789-1.914-.481 0-.93-.501-.763-.993.063-.198.136-.418.209-.658.481-1.673.857-4.276-1.003-4.925-1.138-.397-2.193-.167-3.259-.878-.888-.596-1.536-1.432-2.204-2.258-3.249-4.035-7.679-6.9-12.693-8.144a12 12 0 0 0-.668-.167c-.617-.136-.711-.899-.345-1.318.679-.784-.376-1.923-1.045-2.279-.888-.47-2.026-.512-2.998-.648-1.818-.261-3.353-1.004-5.014-1.725-1.849-.805-3.74-1.265-5.631-.324-1.316.669-2.34 1.861-2.727 3.272.314.178.523.565.387.92a.5.5 0 0 1 .073.115c3.123 6.513 6.404 13.215 12.097 17.888.784.648-.334 1.746-1.107 1.108-5.704-4.683-9.078-11.385-12.212-17.929-8.117 7.621-17.321 16.549-18.418 28.196-.783 8.405 2.602 17.982 10.541 21.912 5.432 2.698 12.076 2.185 17.905 1.38 5.715-.805 11.314-2.331 16.725-4.338 10.938-4.036 21.165-9.901 31.152-15.86Zm-6.424-97.363c.146 1.025-.126 2.018-.867 2.75-.596.575-1.411.93-2.236.784-.992-.178-1.567-1.066-1.954-1.913-.856-1.861-1.19-3.963-.856-6.001.146-.91.606-1.715 1.504-2.05.742-.282 1.619-.125 2.309.252 1.744.94 1.838 3.115 1.765 4.86v.126q.251.565.345 1.192zm-1.672 1.223c.575-1.118-.47-2.561-1.076-3.47-.397-.617.199-1.192.773-1.14-.021-.094-.042-.199-.073-.293-.157-.533-.449-.983-.919-1.192a1.4 1.4 0 0 0-.721-.136.9.9 0 0 0-.345.115c-.439.335-.418 1.192-.439 1.684-.062 1.463.23 2.969.888 4.286.136.282.282.606.533.805a.5.5 0 0 0 .418.115c.366-.042.763-.387.961-.774Z"/><path fill="#fff8e0" stroke="#cb2821" d="M244.165 103.828c.314.962 2.539 9.095 1.4 9.325-.533.115-.658.607-.501 1.004a91645 91645 0 0 1-48.713 20.407c-16.683 6.984-33.356 13.978-50.029 20.962-16.61 6.952-33.199 13.946-49.82 20.857-15.795 6.576-31.737 12.932-48.21 17.647a229 229 0 0 1-12.401 3.189c-4.252.962-8.566 1.923-12.912 2.342-7.323.71-16.004-.795-19.744-7.967-1.996-3.826-1.15-8.113.574-11.866 1.578-3.471 3.698-6.743 5.955-9.806 4.534-6.137 10.05-11.49 15.879-16.372.136-.115.271-.23.418-.345.041-.031.083-.073.125-.105l.637.784a.4.4 0 0 0-.136.095.81.81 0 0 0-.282.752 20.8 20.8 0 0 0 4.137 9.734c2.037 2.603 5.109 5.425 8.65 5.227 7.104-.387 7.26-10.8 7.5-15.818a85.7 85.7 0 0 0-.605-15.086.9.9 0 0 0-.105-.303c1.41-.983 2.831-1.945 4.263-2.896.282-.011.543-.146.637-.418a382 382 0 0 1 11.167-7.172l.366.585c-.324.199-.523.607-.293 1.035 2.288 4.234 4.586 8.458 6.874 12.682 1.463 2.708 3.354 6.503 6.801 6.942 3.677.46 5.526-3.283 6.53-6.189 1.389-3.973 1.827-8.239 1.775-12.431-.063-4.893-.783-9.754-1.536-14.584a408 408 0 0 1 21.103-10.768l1.044 2.164c-.355.136-.627.47-.512.93 1.244 5.06 3.228 9.943 5.924 14.417 2.413 3.983 5.515 8.761 9.997 10.58 4.283 1.746 8.577 0 10.374-4.244 2.016-4.757 1.89-10.612 1.431-15.651-.585-6.419-2.163-12.692-3.792-18.923 8.346-3.387 16.766-6.607 25.176-9.817l.919 2.415c-.355.136-.627.47-.512.93a52 52 0 0 0 5.38 13.644c1.985 3.492 4.691 7.966 8.911 8.97 3.709.868 6.488-1.694 7.762-4.934.69-1.788.993-3.68 1.233-5.573.345-2.697.637-5.405.888-8.123q.801-8.64.961-17.313a467 467 0 0 0 12.713-5.394.8.8 0 0 0-.041.282c.115 5.29.647 10.57 1.629 15.776.324 1.704.523 3.805 1.703 5.196.982 1.15 2.57 1.37 3.761.387 1.515-1.255 1.964-3.68 2.465-5.458.669-2.362 1.181-4.767 1.588-7.192.836-4.935 1.254-9.932 1.64-14.919a296 296 0 0 0 6.571-3.335c-.825 2.823-1.076 5.886.857 8.165 1.64 1.934 4.377 2.425 6.686 3.126 1.368.408 2.737.815 4.095 1.234.658.198 1.389.313 1.828.878.47.596.282 1.38.397 2.101.292 1.82 1.734 2.906 3.259 3.712 1.964 1.045 3.886 1.787 5.025 3.826 1.149 2.07 1.557 4.464 2.57 6.586 1.097 2.29 2.695 4.287 4.21 6.294 1.828 2.436 3.427 4.903 4.356 7.82Z"/><path fill="#cb2821" stroke="#cb2821" d="M244.99 135.184c.053 1.14-.386 2.269-1.264 3.011-.804.68-1.911 1.087-2.935.68-2.246-.9-1.87-3.68-1.233-5.51.105-.293.334-.512.627-.565.669-.637 1.337-1.296 2.006-1.934a.792.792 0 0 1 1.232.157c.753 1.286 1.494 2.645 1.567 4.161Zm-1.608.69c.094-.387.052-.857-.042-1.265-.157-.69-.449-1.317-.773-1.924-.533.513-1.055 1.015-1.578 1.527a.6.6 0 0 1-.094.073c-.209.68-.324 1.328-.261 2.039v.041s0 .074.021.115c.021.095.052.178.073.272a.1.1 0 0 1 .011.042s.01.011.031.052c.042.084.084.168.136.241l.01.01.011.011.083.083a.5.5 0 0 0 .126.105c.177.115.146.105.365.167h.032s.073.011.114.011c.032 0 .168-.021.178-.021.063-.011.136-.021.199-.042.104-.031.146-.052.156-.052.345-.168.543-.324.805-.648a2.2 2.2 0 0 0 .397-.837Zm.761 53.601c.972.251.565 1.767-.417 1.516-5.255-1.37-10.499-2.729-15.743-4.088-.982-.251-.565-1.767.407-1.516 5.255 1.359 10.499 2.729 15.753 4.088Z"/><path fill="#fff8e0" stroke="#cb2821" d="M226.008 2.836c-.731 3.513-2.079 7.506-5.756 8.52-.303.084-.606.419-.575.753.053.565.115 1.13.168 1.683-1.317 0-2.696.22-3.824.889a3.37 3.37 0 0 0-1.212 1.213c-.418.752-.198 1.359-.282 2.143-.104.962-1.316.303-2.089.45-.648.115-1.181.49-1.598 1.003-.606.753-.815 1.631-1.066 2.54-.157.565-.303 1.422-.846 1.757-.366.23-.972.25-1.066-.272-.135-.857-1.253-.617-1.504 0-.052.115-.104.24-.146.356a714 714 0 0 0-1.807 4.307c-.585-.272-1.16-.554-1.745-.837-.439-.22-1.003-.052-1.149.471a44 44 0 0 1-2.121 6.064c-1.024-.586-2.35-.554-3.301.303-.637.575-.836 1.422-.961 2.227-.073.439-.031 1.087-.24 1.474-.544 1.003-1.358-.021-1.766-.649-.386-.606-1.18-.428-1.431.189-.24.596-.47 1.191-.71 1.787-.784-.575-1.891-.7-2.873-.365-1.703.564-2.382 2.31-2.737 3.962-.585-.345-1.16-.69-1.734-1.035-.523-.314-1.181.084-1.181.68a20 20 0 0 1-.585 4.589l-.668-.575c-.377-.324-.972-.314-1.233.157a10 10 0 0 0-.94 2.206 8.4 8.4 0 0 0-1.661-.952c-.512-.209-.941-.041-1.149.47a11.6 11.6 0 0 0-.847 3.482c-.553-.303-1.107-.617-1.661-.92-.355-.198-.877-.104-1.076.282a11.6 11.6 0 0 0-1.149 3.712c-.365-.356-.731-.7-1.097-1.056-.334-.314-1.013-.314-1.232.157-.554 1.212-.794 2.436-.721 3.7a75 75 0 0 1-2.006-.658c-.313-.105-.731.063-.888.366-.386.773-.71 1.558-.951 2.383-.605-.512-1.222-1.024-1.828-1.536-.386-.324-.95-.303-1.232.157a7 7 0 0 0-.784 1.84c-.042-.063-.084-.136-.125-.2-.355-.574-1.233-.47-1.431.19a16.4 16.4 0 0 0-.606 3.083c-.366-.199-.732-.387-1.097-.585-.366-.188-.878-.105-1.076.282a8.1 8.1 0 0 0-.815 2.593c-.387-.408-.773-.826-1.16-1.234-.418-.439-1.138-.199-1.306.345a9.3 9.3 0 0 0-.386 1.882 2.47 2.47 0 0 0-2.204-.063 2.46 2.46 0 0 0-1.358 1.485c-.314-.324-.627-.659-.941-.983s-1.023-.303-1.232.157c-.22.523-.376 1.024-.439 1.526-1.682-.836-3.803-.136-4.659 1.631a33.3 33.3 0 0 1-6.759-8.217.9.9 0 0 0-.293-.293c12.286-6.126 23.484-14.145 34.62-22.143a780 780 0 0 1 12.39-8.76 648 648 0 0 1 23.892-15.881 622 622 0 0 1 20.245-12.232Zm-23.326 61.383c-.606 7.945-1.201 16.194-3.98 23.71-.251.66-.596 1.694-1.295 2.008-1.003.45-1.578-.523-1.891-1.317-.7-1.736-.899-3.774-1.202-5.614a94 94 0 0 1-1.222-13.372.75.75 0 0 0-.543-.721 329 329 0 0 0 10.133-4.694Zm-59.621-26.586c11.648-3.638 23.704-5.865 35.874-6.524-8.462 5.98-16.809 12.128-25.417 17.899-6.696 4.485-13.591 8.677-20.841 12.19-.167.083-.271.188-.323.313-.011 0-.021 0-.032.01a1594 1594 0 0 0-58.47 33.131q-8.1 4.815-16.14 9.723a.7.7 0 0 0-.282.303l-.25-.125c5.798-11.803 14.844-22.29 24.361-31.05 17.613-16.194 38.653-28.73 61.52-35.87Z"/></svg>