<svg xmlns="http://www.w3.org/2000/svg" width="186" height="71" fill="none"><path fill="#fff8e0" stroke="#cb2821" d="M77.659 41.95c10.613-1.558 21.499-1.527 32.113.03 11.898 1.747 23.484 5.385 34.191 10.832.899.46 1.693-.889.794-1.349-18.448-9.399-39.467-13.518-60.1-11.876-5.045.407-10.06 1.15-14.99 2.237-4.9 1.077-9.747 2.509-14.709 3.283l-.386-2.593a22 22 0 0 0 2.559-.596c3.03-.889 6.226-2.572 7.71-5.5 1.755-3.47.512-7.432-1.202-10.642a33 33 0 0 0-1.734-2.875c3.625 3.44 7.104 7.057 10.52 10.643.324.335.72.282 1.003.052 16.422-.146 32.854.941 49.109 3.335 7.961 1.171 15.9 2.603 23.746 4.433 7.417 1.735 14.855 3.91 21.687 7.35 5.829 2.937 11.407 7.004 14.573 12.859.491.899 1.024 1.913.762 2.969-.219.878-.919 1.6-1.64 2.101-1.441 1.014-3.217 1.432-4.951 1.474-3.531.073-6.947-1.213-10.196-2.457-14.897-5.718-29.293-12.765-44.576-17.47-16.224-5.007-33.952-7.265-50.436-2.132-.356.105-.512.376-.544.659-.167-.199-.418-.303-.752-.178-19.796 7.475-43.688 2.78-58.992-11.929-4.116-3.951-7.866-8.886-8.921-14.626-.084-.48-.136-.951-.178-1.422 3.27 7.11 8.681 13.006 15.033 17.575 8.002 5.76 17.864 10.047 27.725 10.946 11.147 1.024 21.896-3.544 32.782-5.134Z"/><path fill="#fff8e0" stroke="#cb2821" d="M31.182 38.665c7.397 2.446 15.535 5.185 23.39 3.847l.387 2.593q-1.05.17-2.1.292c-10.645 1.223-21.3-2.31-30.4-7.673C13.59 32.507 5.84 24.854 2.36 14.995c-.01-.02-.031-.031-.042-.052.732-3.795 3.082-7.14 6.456-9.399 10.238-6.837 24.498-2.436 34.328 3.032 3.573 1.976 6.926 4.266 10.123 6.764a1 1 0 0 0 .157.22c5.244 4.736 16.589 17.25 7.093 23.199-3.845 2.415-8.713 2.791-13.121 2.362C41.942 40.6 36.73 38.853 31.6 37.15c-.95-.314-1.368 1.202-.418 1.515Z"/><path fill="#cb2821" stroke="#cb2821" d="M181.708 57.444c1.734 2.248 4.314 5.625 2.684 8.53-1.504 2.688-5.014 3.691-7.887 3.712-3.52.021-6.926-1.181-10.164-2.425-15.514-5.938-30.484-13.34-46.446-18.055-15.503-4.58-32.301-6.513-47.97-1.631a.68.68 0 0 1-.774-.23.77.77 0 0 1-.522.7c-11.732 4.433-24.822 4.653-36.835 1.171-10.624-3.094-21.019-9.231-27.84-18.097C2.496 26.624-.19 20.958.657 15.145c.794-5.562 4.89-10.058 9.862-12.379 11.261-5.269 25.176-.48 35.174 5.49 10.457 6.24 19.106 15.022 27.453 23.773 2.08-.021 4.158-.021 6.247-.01a319 319 0 0 1 50.844 4.558c8.148 1.39 16.318 2.98 24.247 5.31 7.051 2.081 14.186 4.736 20.224 9.002 2.622 1.85 5.036 4.004 7 6.555ZM47.354 41.124c4.408.429 9.276.053 13.12-2.362 9.497-5.949-1.848-18.463-7.093-23.2a1 1 0 0 1-.156-.219c-3.197-2.498-6.55-4.788-10.123-6.764-9.83-5.468-24.09-9.869-34.328-3.032-3.374 2.259-5.724 5.604-6.456 9.4 0 .02.032.03.042.051 3.479 9.859 11.23 17.512 20.1 22.729 9.098 5.363 19.754 8.897 30.399 7.673q1.05-.124 2.1-.282c4.962-.784 9.81-2.216 14.709-3.293 4.93-1.087 9.945-1.83 14.99-2.238 20.633-1.64 41.651 2.478 60.1 11.877.898.46.104 1.809-.794 1.349-10.708-5.447-22.293-9.085-34.192-10.831-10.614-1.558-21.499-1.59-32.113-.032-10.885 1.59-21.635 6.158-32.781 5.133-9.862-.899-19.723-5.185-27.726-10.945C10.801 31.568 5.39 25.673 2.12 18.563c.042.47.094.941.177 1.422 1.055 5.74 4.806 10.674 8.922 14.626C26.523 49.321 50.414 54.015 70.21 46.54c.334-.126.585-.021.752.178.031-.283.188-.555.543-.66 16.485-5.132 34.213-2.874 50.436 2.134 15.284 4.704 29.679 11.75 44.576 17.47 3.249 1.243 6.665 2.53 10.196 2.456 1.734-.042 3.51-.46 4.952-1.474.721-.502 1.421-1.223 1.64-2.101.261-1.056-.272-2.07-.763-2.97-3.165-5.854-8.743-9.92-14.573-12.859-6.832-3.44-14.27-5.614-21.687-7.35-7.845-1.829-15.785-3.261-23.745-4.432-16.255-2.394-32.687-3.481-49.11-3.335-.282.23-.679.282-1.002-.052-3.416-3.586-6.895-7.203-10.52-10.643.627.93 1.201 1.882 1.734 2.875 1.713 3.21 2.956 7.172 1.201 10.643-1.483 2.927-4.68 4.61-7.71 5.499-.846.25-1.702.45-2.559.596-7.856 1.338-15.994-1.401-23.39-3.848-.95-.313-.532-1.829.418-1.515 5.13 1.704 10.342 3.45 15.754 3.972Z"/></svg>