<svg xmlns="http://www.w3.org/2000/svg" width="109" height="184" fill="none"><path fill="#cb2821" stroke="#cb2821" d="M16.523 9.13c-3.27 13.194-3.447 27.068-.626 40.366a89 89 0 0 0 6.34 19.027c2.717 5.855 6.007 11.73 10.468 16.435 4.356 4.59 9.924 7.485 16.234 8.123s13.142-.983 18.815-4.088c11.668-6.377 19.597-18.19 25.803-29.597a134.5 134.5 0 0 0 14.938-45.132c.147-.983-1.368-1.412-1.514-.418-1.933 13.507-5.903 26.711-11.836 39.006-2.894 6.011-6.227 11.834-10.03 17.313s-7.95 10.318-13.12 14.218c-10.029 7.559-24.79 10.59-35.278 2.164-4.868-3.91-8.295-9.388-11.168-14.856-3.06-5.802-5.432-11.96-7.114-18.306-3.782-14.291-3.96-29.482-.407-43.836.24-.983-1.264-1.401-1.515-.418z"/><path fill="#cb2821" stroke="#cb2821" d="M18.863 10.615c26.325 5.782 53.539 10.434 80.533 6.995 2.392-.304 5.672-.283 7.574-2.018 1.619-1.474 1.421-3.68.083-5.259-1.755-2.07-4.502-2.864-6.988-3.67a106 106 0 0 0-9.277-2.54C78.283 1.3 65.403.58 52.616.527 45.742.506 38.743.37 31.89.997c-5.673.523-11.47 1.966-15.545 6.21-.26.272-.282.627-.125.952a4.09 4.09 0 0 0 4.179 2.33c.992-.104 1.002-1.682 0-1.567-1.264.136-2.267-.408-2.821-1.558l-.125.951c3.572-3.732 8.639-5.133 13.643-5.676 5.432-.586 10.969-.492 16.422-.534 12.108-.104 24.288.21 36.25 2.227 5.85.983 11.637 2.373 17.258 4.297 1.838.627 6.027 2.06 5.526 4.684-.261 1.37-1.766 1.83-2.956 2.08-1.547.335-3.134.502-4.702.69C86.527 17.61 74 17.432 61.611 16.24c-14.26-1.37-28.353-4.098-42.33-7.161-.982-.22-1.4 1.296-.418 1.515zm28.739 82.83a2743 2743 0 0 0-10.217 61.023 2434 2434 0 0 0-2.664 17.481c-.146.982 1.358 1.411 1.515.418 3.04-20.397 6.31-40.763 9.82-61.086a3168 3168 0 0 1 3.06-17.407c.178-.983-1.337-1.412-1.514-.418z"/><path fill="#cb2821" stroke="#cb2821" d="M36.706 156.919c-10.175-2.593-22.189-5.269-31.372 1.578-1.765 1.318-3.666 3.074-4.523 5.155-.909 2.206.334 4.432 1.671 6.157 2.925 3.764 7.48 5.792 11.9 7.235 5.766 1.882 11.772 2.875 17.78 3.669a329 329 0 0 0 18.667 1.903c5.14.377 11.356 1.412 15.712-2.07 3.865-3.084 3.51-8.092.784-11.824-3.155-4.318-8.305-6.68-13.299-8.134-6.184-1.787-12.64-2.728-18.95-3.962-.982-.188-1.41 1.317-.418 1.516 4.993.972 10.008 1.85 14.98 2.959 4.263.951 8.556 2.185 12.223 4.631 3.5 2.331 7.908 7.214 5.36 11.699-2.665 4.694-9.048 4.098-13.602 3.805-10.77-.7-21.771-1.589-32.322-3.941-4.649-1.035-9.496-2.352-13.57-4.914-1.87-1.171-3.563-2.666-4.733-4.558-.783-1.265-1.285-2.561-.553-3.973.532-1.024 1.368-1.913 2.183-2.707 8.514-8.26 21.489-5.301 31.653-2.708.982.251 1.4-1.265.418-1.516z"/><path fill="#cb2821" d="M15.74 47.73a99.8 99.8 0 0 0 8.095 21.526C27.92 77.191 33.27 84.75 40.79 89.444c1.964 1.223 4.074 2.248 6.352 2.624 1.692.282 3.416.209 5.119.02 8.388-.92 16.474-4.516 22.836-10.161 1.034-.92 2.016-1.882 2.998-2.844a986 986 0 0 0 3.562-3.492c1.944-1.902 3.897-3.815 5.527-6 2.1-2.813 3.614-6.022 5.118-9.2.178-.387.366-.785.366-1.203 0-.439-.188-.847-.428-1.213-1.536-2.341-4.67-2.812-7.438-3.02-7.386-.586-14.814-.92-22.095-2.28-9.966-1.85-19.67-5.614-29.815-5.76-4.68-.074-9.433.627-13.988-.419-1.086-.25-2.298-.575-3.238.021l1.567 3.2"/><path stroke="#cb2821" d="M15.74 47.73a99.8 99.8 0 0 0 8.095 21.526C27.92 77.191 33.27 84.75 40.79 89.444c1.964 1.223 4.074 2.248 6.352 2.624 1.692.282 3.416.209 5.119.02 8.388-.92 16.474-4.516 22.836-10.161 1.034-.92 2.016-1.882 2.998-2.844a986 986 0 0 0 3.562-3.492c1.944-1.902 3.897-3.815 5.527-6 2.1-2.813 3.614-6.022 5.118-9.2.178-.387.366-.785.366-1.203 0-.439-.188-.847-.428-1.213-1.536-2.341-4.67-2.812-7.438-3.02-7.386-.586-14.814-.92-22.095-2.28-9.966-1.85-19.67-5.614-29.815-5.76-4.68-.074-9.433.627-13.988-.419-1.086-.25-2.298-.575-3.238.021l1.567 3.2"/><path fill="#cb2821" stroke="#cb2821" d="M14.987 47.937c1.702 6.743 4.063 13.309 7.103 19.57 2.664 5.5 5.82 10.811 9.883 15.39 3.876 4.37 9.235 9.043 15.2 9.963 3.008.46 6.163 0 9.12-.617 2.956-.616 5.944-1.61 8.754-2.874 5.87-2.645 10.488-6.66 15.043-11.124 2.539-2.488 5.182-4.903 7.375-7.716 2.11-2.707 3.646-5.781 5.12-8.876.553-1.16 1.17-2.227.647-3.512-.428-1.067-1.39-1.934-2.371-2.51-2.393-1.4-5.38-1.421-8.065-1.62-7.292-.544-14.605-.972-21.771-2.467-7.636-1.59-15.085-4.077-22.847-5.04-3.949-.49-7.845-.313-11.815-.23-2.09.042-4.2.022-6.268-.344-1.66-.293-3.207-.91-4.826-.094-.397.198-.46.71-.282 1.076l1.567 3.2c.449.91 1.797.114 1.358-.795l-1.567-3.2-.282 1.078c1.337-.67 3.405.261 4.805.439 1.65.209 3.322.25 4.983.23 3.312-.042 6.613-.282 9.925-.021 6.518.512 12.838 2.331 19.159 3.91A121.4 121.4 0 0 0 73.707 54.9c3.354.292 6.717.512 10.081.773 2.392.178 5.819.23 7.46 2.31.824 1.046.48 1.82-.043 2.907-.313.648-.616 1.297-.94 1.945-.742 1.505-1.525 2.99-2.413 4.412-1.766 2.812-4.043 5.164-6.404 7.485-4.304 4.234-8.462 8.552-13.758 11.563-5.108 2.896-10.959 4.809-16.83 5.164-6.351.387-11.752-3.47-16.056-7.788-4.492-4.506-7.887-9.974-10.729-15.63-3.28-6.523-5.798-13.403-7.584-20.49-.25-.984-1.755-.565-1.515.417z"/></svg>