<svg xmlns="http://www.w3.org/2000/svg" width="147" height="93" fill="none"><path fill="#fff8e0" stroke="#cb2821" d="M92.594 23.902c1.15 1.663 1.818 3.65 1.818 5.646a8.5 8.5 0 0 1-.46 2.791c-.93 2.729-3.175 4.914-5.954 5.688a.7.7 0 0 0-.522.522c-3.531.492-7.052 1.987-9.434 4.454-1.901-2.269-4.596-3.764-7.48-4.35 2.852-2.655 4.534-6.408 4.639-10.35a13 13 0 0 0-.23-2.916.7.7 0 0 0 .209-.146c2.371-2.332 5.338-4.099 8.587-4.883 2.455-.596 4.795-.062 6.686 1.328.084.24.261.418.543.44a9 9 0 0 1 1.598 1.776Z"/><path fill="#fff8e0" stroke="#cb2821" d="M73.602 26.858c.366 4.391-1.567 8.908-5.129 11.532a13.7 13.7 0 0 0-3.855.355c-3.102.742-5.777 2.54-7.824 4.904-.105-.063-.24-.084-.408-.074-4.951.45-7.95-4.223-8.065-8.698-.114-4.255 1.735-8.479 4.743-11.469 3.197-3.178 7.71-4.798 12.202-4.537 1.786.105 3.792.45 5.286 1.516.334.24.648.523.93.847 1.305 1.505 1.953 3.659 2.12 5.624ZM57.891 36.874c1.849-.941 2.998-3.23 2.1-5.207-.387-.857-1.212-1.526-2.11-1.777-1.014-.272-2.038.032-2.8.732-.084.084-.168.157-.251.251a.64.64 0 0 0-.408.115c-.856.606-1.755 1.296-2.214 2.269-.429.91-.512 2.007-.01 2.906 1.065 1.913 4.053 1.547 5.693.71Z"/><path fill="#fff8e0" stroke="#cb2821" d="M55.113 35.554c-.157-.177-.24-.387-.282-.69v-.146c-.01-.084 0-.157 0-.23a2.5 2.5 0 0 1 .083-.502 5 5 0 0 1 .878-1.819c.167-.23.386-.46.616-.606.293-.178.46-.21.763-.21.418 0 .982.335 1.254.722.334.47.386 1.056.23 1.641a2.76 2.76 0 0 1-1.119 1.548 4.3 4.3 0 0 1-1.9.669l-.325.031a.9.9 0 0 0-.198-.408Zm-12.192-8.328c.544.533.69 1.181.439 1.924-.292.836-.93 1.641-1.588 2.227-.397.355-.898.637-1.42.669-.899-1.401-.67-3.126-.251-4.674a17 17 0 0 1 .386-1.285c0-.021.032-.084.052-.157.178.062.408.146.44.157.689.271 1.41.606 1.942 1.14Z"/><path fill="#fff8e0" stroke="#cb2821" d="M44.332 30.7c.678-1.13.992-2.457.365-3.67-.49-.972-1.462-1.63-2.413-2.08-.491-.23-1.034-.492-1.557-.617a1.35 1.35 0 0 0-.71.01h-.094c-1.233.147-2.267.774-2.998 1.777-.721 1.015-.92 2.27-.721 3.471a5.36 5.36 0 0 0 1.901 3.21c.47.376.993.627 1.536.732.679.157 1.4.073 2.1-.261 1.107-.523 1.964-1.548 2.59-2.572Zm8.075-8.709c-3.354 3.053-5.558 7.37-5.652 12.253-.052 2.99 1.013 6.147 3.009 8.29a14.2 14.2 0 0 0-8.63-1.672c-1.42.177-2.778.564-4.063 1.118a.3.3 0 0 0-.104-.02c-3.51-.377-5.38-3.817-5.756-6.995a17.2 17.2 0 0 1 .177-5.07c.491-.21.512-.805.25-1.171a19.2 19.2 0 0 1 1.495-4.004c.731-1.433 1.619-2.854 2.841-3.91 1.442-1.244 3.239-1.558 5.077-1.704 3.427-.272 7.752-.45 10.029 2.665.324.45.909.408 1.243.126a.5.5 0 0 0 .105-.105l.094.105s-.073.063-.115.094Z"/><path fill="#fff8e0" stroke="#cb2821" d="M52.427 21.789c.188-.21.23-.512.01-.816-1.963-2.676-4.972-3.45-8.064-3.544a.82.82 0 0 0 .47-.658c.376-3.158 1.515-6.22 3.364-8.814 1.953-2.728 4.534-4.275 7.814-4.924 5.37-1.056 12.975-1.704 16.255 3.66a8.5 8.5 0 0 0-1.045 2.247c-.856 2.927-.115 5.74 1.536 7.935-.658.628-1.316 1.255-1.964 1.882-.92-.544-1.953-.91-3.06-1.14-5.61-1.129-11.22.68-15.222 4.276zm46.958-10.686c.324 1.202-.804 2.656-1.734 3.241-.23.146-.386.23-.606.303-.344-1.181-.25-2.425.345-3.513.167-.292.282-.47.533-.69.177-.146.334-.22.574-.209h.01s.168.053.189.053h.01c.136.073.23.146.293.198.209.199.313.356.386.617Z"/><path fill="#fff8e0" stroke="#cb2821" d="M100.984 11.902c.042 5.123-4.89 8.082-9.465 8.625-.01-.01-.031-.02-.042-.031-2.517-1.934-5.453-2.373-8.493-1.547-.992.26-1.953.606-2.883 1.024-.073-.22-.24-.397-.533-.47-4.23-1.004-7.803-4.736-7.01-9.336a6.8 6.8 0 0 1 1.118-2.708.74.74 0 0 0 .335-.46c.01-.01.01-.021.01-.021 1.766-2.195 4.701-3.575 7.302-4.276 3.782-1.025 7.867-.805 11.544.565 3.228 1.202 7.156 3.68 7.971 7.276-.22-.67-.68-1.265-1.327-1.59a2.31 2.31 0 0 0-2.466.21c-.23-.115-.501-.125-.71.031-.846.575-1.661 1.171-2.277 1.997-.596.805-.888 1.861-.69 2.854.303 1.485 1.703 2.258 3.103 2.248.449 0 .898-.084 1.306-.25.919-.388 1.65-1.046 2.235-1.84.491-.66.878-1.475.972-2.3Zm1.316 22.983c1.953-.721 3.217-2.666 2.883-4.757-.157-.94-.679-1.86-1.379-2.509-.669-.596-1.912-1.348-2.8-.857h-.01c-.053-.01-.105-.02-.167-.02-1.076-.032-2.006.574-2.612 1.421-.68.951-.763 2.164-.543 3.283.104.585.324 1.14.564 1.683.209.47.48.94.856 1.296.857.795 2.152.858 3.208.46Zm4.805-2.237c-1.483 1.86-2.936 4.14-3.813 6.555-4.168-.24-6.686-3.69-7.114-7.695-.073-.69-.105-1.4-.084-2.1.094-3.294 1.223-6.598 3.5-9.013 2.538-2.687 6.529-4.16 10.175-3.188 3.51.94 6.278 4.16 6.404 7.83 0 .178.052.314.135.429-3.593 1.537-6.79 4.171-9.203 7.182Z"/><path fill="#fff8e0" stroke="#cb2821" d="M102.55 28.614c.481.365.836.899 1.014 1.463.355 1.202-.188 2.457-1.306 3.116a3.5 3.5 0 0 1-.596.271.74.74 0 0 0-.229-.49c-1.129-1.15-.502-2.97.062-4.235.073-.167.22-.376.251-.544.115.053.219.073.313.126.168.073.356.188.491.292Zm24.811 16.471c2.194-1.317 3.792-3.324 4.68-5.593.021.01.042.01.063.01 2.288.063 4.44 1.182 6.519 2.05 1.421.596 2.852 1.192 4.272 1.788-5.181.585-10.352 1.17-15.534 1.745Zm-3.27-8.705c-.146.189-.136.44-.042.66-.491.198-1.034.282-1.577.198-1.275-.199-2.497-1.255-2.664-2.572-.084-.7.146-1.422.595-1.986.063.02.136.041.209.041 1.118.032 2.361.262 3.176 1.109.658.68.878 1.756.303 2.55Z"/><path fill="#fff8e0" stroke="#cb2821" d="M126.494 27.133c2.977 1.735 5.014 4.924 4.899 8.416-.136 3.889-2.695 7.58-6.33 8.96-.418.156-.565.543-.523.888-6.612.753-13.236 1.495-19.848 2.237a9 9 0 0 0-.314-.731c.126-.168.178-.387.084-.66-.7-1.986-.502-4.066.146-6.042.616-1.84 1.619-3.607 2.654-5.133a23.6 23.6 0 0 1 8.305-7.486c3.489-1.881 7.375-2.53 10.927-.45Zm1.431 6.335c-.157-1.212-1.024-2.038-1.954-2.739-1.034-.794-2.287-1.338-3.614-1.118-.71.115-1.379.46-1.86.982h-.01c-1.222.68-2.079 1.976-2.236 3.419-.229 2.112 1.379 4.014 3.312 4.62 2.048.65 4.21-.334 5.443-2.006.647-.889 1.055-2.06.919-3.158Zm-29.396 8.479c2.068 1.443 3.572 3.565 4.554 5.865-4.523.512-9.057 1.014-13.58 1.526-4.492.502-8.974 1.004-13.466 1.433a.73.73 0 0 0 .512-.7c.073-1.789.606-3.325 1.473-4.632.606.272 1.452-.377 1.003-1.087l-.063-.095c2.58-2.812 6.832-4.213 10.666-4.338 3.092-.115 6.3.22 8.9 2.028ZM61.578 51.78c-2.622.105-5.255.178-7.877.23v-.156a.715.715 0 0 0 .721-.554c1.39-5.019 5.13-9.566 10.28-10.967a12.2 12.2 0 0 1 4.074-.366c3.175.261 6.247 1.735 8.232 4.234-1.191 1.62-1.933 3.575-2.027 5.865-.021.439.272.68.595.742-4.648.44-9.318.784-13.998.972Z"/><path fill="#fff8e0" stroke="#cb2821" d="M52.908 50.885c-.167.586.324.972.794.972v.157c-6.8.136-13.602.136-20.392.178l-4.816.031v-.334c.24 0 .47-.115.627-.387.93-1.683 2.1-3.262 3.479-4.61a.76.76 0 0 0 .647-.534c.01-.041.032-.073.032-.115a16.1 16.1 0 0 1 4.095-2.707 13.7 13.7 0 0 1 3.53-1.077c4.806-.774 10.04 1.4 12.4 5.75a.74.74 0 0 0 .408.355 18.5 18.5 0 0 0-.815 2.321z"/><path fill="#fff8e0" stroke="#cb2821" d="M29.539 38.707c1.984 1.6 2.977 4.245 2.36 6.69a21.5 21.5 0 0 0-4.126 5.322c-.334.607.199 1.171.72 1.171v.335l-19.44.125a.79.79 0 0 0 .49-.46c.795-1.882 1.651-3.878 2.696-5.77.073-.022.157-.043.23-.063.574-.136.668-.722.449-1.12 1.912-3.198 4.409-5.969 8.002-7.265 2.79-1.004 6.226-.868 8.619 1.035ZM10.15 46.79a76 76 0 0 0-2.121 4.683c-.178.439.052.752.397.888-2.194.01-4.398.021-6.592.042.052-.031.104-.084.157-.136a21.7 21.7 0 0 1 8.159-5.478Zm134.572-2.095c-1.953 10.246-7.145 19.718-14.625 26.984a49.4 49.4 0 0 1-12.995 9.105c-6.091 2.928-12.704 4.674-19.264 6.19-24.173 5.572-51.084 6.387-72.823-7.277-9.779-6.147-17.99-14.97-22.335-25.739 18.417-.105 36.855.042 55.273-.48 15.388-.44 30.713-2.332 46.007-4.162a.86.86 0 0 0 .794-.094c3.081-.355 6.153-.721 9.234-1.066 10.238-1.16 20.486-2.3 30.734-3.46Z"/><path fill="#cb2821" stroke="#cb2821" d="M122.471 37.243c.543.084 1.086 0 1.577-.198-.094-.22-.104-.47.042-.659.575-.794.355-1.871-.303-2.55-.815-.848-2.058-1.078-3.176-1.109a.7.7 0 0 1-.209-.042c-.449.565-.679 1.286-.595 1.986.167 1.318 1.389 2.374 2.664 2.572Zm4.534-.617c-1.233 1.673-3.395 2.656-5.443 2.008-1.933-.606-3.541-2.51-3.312-4.621.157-1.443 1.014-2.74 2.236-3.408h.01a3.2 3.2 0 0 1 1.86-.994c1.327-.219 2.58.325 3.615 1.12.929.7 1.796 1.526 1.953 2.738.136 1.098-.272 2.269-.919 3.157Zm-23.441-6.544a3 3 0 0 0-1.013-1.463 2.6 2.6 0 0 0-.491-.293c-.094-.053-.198-.073-.313-.126-.032.168-.178.377-.251.544-.564 1.265-1.191 3.084-.063 4.234.157.157.22.324.23.491.209-.073.418-.167.595-.271 1.118-.659 1.662-1.914 1.306-3.116Zm.241-2.457c.7.648 1.222 1.569 1.379 2.51.334 2.09-.93 4.035-2.884 4.756-1.055.398-2.35.335-3.207-.46-.376-.355-.648-.826-.856-1.296-.24-.544-.46-1.098-.565-1.683-.219-1.119-.135-2.332.544-3.283.606-.847 1.535-1.453 2.611-1.422a1 1 0 0 1 .167.021h.011c.888-.491 2.131.261 2.8.857Zm-51.597 5.637c.46-.972 1.358-1.662 2.215-2.268a.64.64 0 0 1 .407-.116c.084-.094.168-.167.251-.25.763-.7 1.786-1.004 2.8-.732.898.25 1.724.92 2.11 1.777.898 1.976-.25 4.265-2.1 5.206-1.64.837-4.628 1.203-5.693-.71-.502-.9-.418-1.997.01-2.907Zm2.622 1.61c.042.303.126.512.282.69a.9.9 0 0 1 .199.408c.115-.01.22-.021.324-.032.658-.073 1.337-.292 1.901-.669a2.76 2.76 0 0 0 1.118-1.547c.157-.585.104-1.17-.23-1.641-.272-.387-.836-.711-1.254-.722-.303 0-.47.032-.762.21-.23.146-.45.376-.617.606a5 5 0 0 0-.877 1.819 2.5 2.5 0 0 0-.084.502c0 .073-.01.146 0 .23zM43.36 29.15c.25-.741.104-1.39-.44-1.923-.532-.533-1.253-.868-1.943-1.14-.03 0-.26-.093-.438-.156-.021.073-.053.136-.053.157a17 17 0 0 0-.386 1.285c-.418 1.548-.648 3.273.25 4.674.523-.032 1.024-.314 1.422-.67.658-.585 1.295-1.39 1.587-2.226Zm1.337-2.121c.626 1.212.313 2.54-.366 3.67-.627 1.024-1.484 2.048-2.59 2.57-.7.335-1.422.42-2.1.262a3.54 3.54 0 0 1-1.536-.732 5.36 5.36 0 0 1-1.902-3.21c-.198-1.201 0-2.456.721-3.47.732-1.004 1.766-1.631 2.998-1.777h.095c.208-.063.449-.073.71-.01.522.125 1.065.386 1.556.616.951.45 1.923 1.108 2.414 2.08Z"/><path fill="#cb2821" stroke="#cb2821" d="M93.953 32.338c.313-.91.46-1.85.46-2.791 0-1.997-.67-3.983-1.819-5.646a9 9 0 0 0-1.598-1.777c-.282-.02-.46-.199-.543-.439-1.89-1.39-4.231-1.924-6.686-1.328-3.249.784-6.216 2.551-8.587 4.883a.7.7 0 0 1-.209.146c.188.962.261 1.945.23 2.917-.105 3.941-1.787 7.694-4.638 10.35 2.883.585 5.578 2.08 7.48 4.349 2.381-2.467 5.902-3.962 9.433-4.454a.7.7 0 0 1 .522-.523c2.779-.773 5.025-2.958 5.954-5.687Zm3.698-17.992c.93-.586 2.058-2.039 1.734-3.241-.073-.261-.178-.418-.387-.617a1.7 1.7 0 0 0-.292-.198h-.01s-.147-.021-.189-.053h-.01a.8.8 0 0 0-.575.21c-.25.219-.365.397-.533.69-.595 1.087-.689 2.33-.344 3.512.22-.073.376-.157.606-.303Zm5.432 33.465c-.982-2.3-2.486-4.422-4.555-5.865-2.601-1.809-5.808-2.143-8.9-2.028-3.834.125-8.086 1.526-10.666 4.338l.062.094c.45.711-.397 1.36-1.003 1.088-.867 1.307-1.4 2.843-1.473 4.631a.73.73 0 0 1-.511.7c4.492-.428 8.973-.93 13.465-1.432 4.524-.512 9.058-1.014 13.581-1.526Zm4.022-15.16c2.413-3.01 5.61-5.645 9.203-7.182a.7.7 0 0 1-.136-.428c-.125-3.67-2.893-6.89-6.403-7.83-3.646-.973-7.637.501-10.175 3.188-2.278 2.415-3.406 5.719-3.5 9.012-.02.7.01 1.411.084 2.101.428 4.004 2.946 7.454 7.114 7.695.877-2.415 2.329-4.694 3.813-6.555ZM91.518 20.525c4.576-.543 9.507-3.502 9.465-8.625-.094.826-.48 1.642-.971 2.3-.585.795-1.317 1.454-2.236 1.84a3.4 3.4 0 0 1-1.306.251c-1.4.01-2.8-.763-3.102-2.247-.199-.993.094-2.05.689-2.854.616-.826 1.431-1.422 2.277-1.997.21-.157.48-.147.71-.032a2.31 2.31 0 0 1 2.466-.209c.648.324 1.107.92 1.327 1.59-.815-3.597-4.743-6.075-7.97-7.277-3.678-1.37-7.763-1.59-11.544-.565-2.602.7-5.537 2.08-7.303 4.276 0 0 0 .01-.01.021a.74.74 0 0 1-.334.46 6.8 6.8 0 0 0-1.118 2.708c-.794 4.6 2.779 8.332 7.01 9.336.292.073.46.25.532.47.93-.418 1.891-.763 2.884-1.024 3.04-.826 5.975-.387 8.493 1.547.01.01.031.021.041.032Zm33.545 23.983c3.635-1.38 6.194-5.07 6.33-8.96.115-3.491-1.922-6.68-4.899-8.415-3.552-2.08-7.438-1.433-10.927.45a23.6 23.6 0 0 0-8.305 7.485c-1.035 1.526-2.038 3.293-2.654 5.133-.648 1.976-.846 4.056-.146 6.043.094.272.042.491-.084.658.115.24.22.481.314.732 6.612-.742 13.236-1.484 19.848-2.237-.042-.345.105-.732.523-.889Zm2.298.575c5.181-.575 10.352-1.16 15.534-1.746-1.421-.596-2.852-1.191-4.273-1.787-2.079-.868-4.231-1.987-6.518-2.05-.021 0-.042 0-.063-.01-.888 2.269-2.486 4.276-4.68 5.593ZM10.15 46.786a21.7 21.7 0 0 0-8.16 5.479 1 1 0 0 1-.156.136c2.194-.021 4.398-.032 6.592-.042-.345-.136-.575-.45-.397-.889a76 76 0 0 1 2.12-4.684Zm14.865 32.912c21.74 13.664 48.65 12.848 72.824 7.276 6.56-1.516 13.173-3.262 19.263-6.19a49.4 49.4 0 0 0 12.996-9.105c7.48-7.266 12.672-16.738 14.625-26.983-10.248 1.16-20.496 2.3-30.734 3.46-3.082.345-6.153.71-9.235 1.066a.86.86 0 0 1-.794.094c-15.293 1.83-30.619 3.722-46.007 4.161-18.417.523-36.855.377-55.273.481 4.346 10.769 12.557 19.592 22.335 25.74ZM47.11 6.829c2.152-2.906 4.962-4.61 8.493-5.31C61.495.357 69.528-.135 73.31 5.396c2.236-2.405 5.683-3.858 8.733-4.475 4.628-.951 9.58-.293 13.748 1.955 4.21 2.258 7.846 6.283 6.435 11.364a9.45 9.45 0 0 1-1.692 3.346 12 12 0 0 1 2.841-1.495c3.187-1.182 6.864-.972 9.737.93 2.684 1.767 4.481 4.663 4.617 7.894.115-.042.24-.074.355-.116 3.98-1.254 8.18-.313 11.272 2.5 3.155 2.885 4.064 6.972 3.165 10.652 2.226.168 4.242 1.13 6.279 1.976 2.309.973 4.617 1.945 6.926 2.907a.8.8 0 0 1 .334.261c.303.167.439.596.387.92-2.058 12.18-8.65 23.47-18.125 31.374-9.914 8.27-22.481 11.636-34.892 14.135-13.466 2.718-27.37 3.847-41.013 1.777C30.646 87.988 9.199 75.056.967 53.843c-.501-.313-.439-1.223.188-1.4-.428-.21-.7-.827-.271-1.287 2.8-3 6.403-5.216 10.342-6.377 2.434-4.255 5.724-7.977 10.697-9.022a11.3 11.3 0 0 1 2.298-.251v-.063c-.522 0-1.065-.564-.741-1.181 1.389-2.603 3.781-4.61 6.56-5.583a21 21 0 0 1 1.745-4.757c.898-1.767 2.068-3.533 3.687-4.715 1.64-1.202 3.604-1.516 5.579-1.672a34 34 0 0 1 2.528-.116c-.209-.114-.345-.324-.303-.648.428-3.586 1.671-7.036 3.834-9.942Zm6.613 41.735a.74.74 0 0 1-.408-.356c-2.36-4.349-7.595-6.523-12.4-5.75a13.7 13.7 0 0 0-3.53 1.077c-1.495.68-2.863 1.6-4.096 2.697 0 .053-.02.084-.031.126a.76.76 0 0 1-.648.533 20 20 0 0 0-3.479 4.61c-.157.272-.386.387-.627.387-.522 0-1.055-.564-.72-1.17a21.5 21.5 0 0 1 4.126-5.322c.616-2.446-.376-5.091-2.36-6.691-2.393-1.903-5.83-2.039-8.62-1.035-3.593 1.296-6.09 4.067-8.001 7.266.219.397.125.983-.45 1.119-.073.02-.156.041-.23.062-1.044 1.893-1.9 3.89-2.695 5.771a.79.79 0 0 1-.49.46l19.44-.125 4.816-.032c6.79-.041 13.591-.041 20.392-.177 2.622-.053 5.255-.126 7.877-.23 4.68-.188 9.35-.533 13.998-.973-.324-.062-.616-.303-.595-.742.094-2.29.836-4.244 2.026-5.865-1.984-2.498-5.056-3.973-8.231-4.234a12.2 12.2 0 0 0-4.075.366c-5.15 1.4-8.89 5.949-10.28 10.967a.715.715 0 0 1-.72.554c-.47 0-.961-.387-.794-.972.22-.785.491-1.569.815-2.321zm-5.401-13.685c.115 4.474 3.113 9.147 8.064 8.698.168-.01.303.01.408.073 2.047-2.363 4.722-4.16 7.824-4.903a13.7 13.7 0 0 1 3.855-.356c3.563-2.624 5.495-7.14 5.13-11.531-.168-1.965-.815-4.12-2.121-5.625a5.5 5.5 0 0 0-.93-.846c-1.494-1.067-3.5-1.412-5.286-1.516-4.492-.262-9.005 1.359-12.202 4.537-3.008 2.99-4.857 7.214-4.742 11.469Zm4.116-13.905c.219.303.177.606-.01.816a.5.5 0 0 1-.105.104c-.335.282-.92.324-1.243-.125-2.278-3.116-6.603-2.938-10.03-2.666-1.838.146-3.635.46-5.076 1.704-1.222 1.056-2.11 2.478-2.842 3.91a19.2 19.2 0 0 0-1.494 4.004c.262.366.24.962-.25 1.17a17.2 17.2 0 0 0-.178 5.071c.376 3.178 2.246 6.618 5.756 6.994.042 0 .073.01.105.021a15 15 0 0 1 4.063-1.118c2.967-.377 6.038.23 8.63 1.672-1.996-2.143-3.062-5.3-3.01-8.29.095-4.882 2.299-9.2 5.652-12.253.042-.031.073-.073.115-.094 4.001-3.596 9.611-5.405 15.22-4.276 1.108.23 2.142.596 3.062 1.14.648-.628 1.306-1.255 1.964-1.882-1.65-2.196-2.392-5.008-1.536-7.935a8.5 8.5 0 0 1 1.045-2.248C68.996 1.33 61.39 1.978 56.02 3.034c-3.28.648-5.86 2.195-7.814 4.924-1.85 2.593-2.988 5.656-3.364 8.813a.82.82 0 0 1-.47.659c3.092.094 6.1.868 8.065 3.544Z"/></svg>