<svg xmlns="http://www.w3.org/2000/svg" width="99" height="146" fill="none"><path fill="#fff8e0" stroke="#cb2821" d="M70.947 39.289c1.996-2.384 3.197-5.405 4.555-8.165 3.218-6.503 6.425-13.006 9.632-19.519.324-.638.606-1.307.992-1.913.439-.7 2.08-1.934 2.152-.188.032.732-.501 1.568-.783 2.216l-1.097 2.446a157 157 0 0 1-4.597 9.19c-1.619 2.97-3.384 5.844-5.056 8.782-.815 1.453-1.598 2.927-2.288 4.443-.532 1.171-1.305 2.572-1.358 3.879-.041 1.024.502 1.913 1.526 2.153 1.16.283 2.172-.355 2.883-1.212 2.016-2.457 3.489-5.583 5.004-8.364 3.238-5.949 6.174-12.054 9.705-17.836.658-1.087 2.496-4.506 3.666-1.808.69 1.6-.762 3.659-1.452 5.039a963 963 0 0 1-4.732 9.263c-3.197 6.147-6.54 12.231-10.227 18.097-1.609 2.54-3.197 5.237-5.422 7.286-1.045.962-2.257 1.757-3.646 2.102-1.525.387-3.06.052-4.596-.115-1.358-.136-2.717-.115-3.95.523-1.253.637-2.266 1.756-3.227 2.76a46 46 0 0 0-5.506 6.973 45 45 0 0 0-2.507 4.453c-.95-.617-1.912-1.244-2.862-1.86.763-1.569 1.431-3.19 2.079-4.82 1.17-2.98 2.308-5.96 2.35-9.2.073-6.545-3.071-12.66-1.264-19.216 1.62-5.927 5.641-10.83 8.817-15.964 1.766-2.843 3.364-5.781 5.067-8.667a99 99 0 0 1 2.632-4.255 82 82 0 0 1 1.348-1.965c.355-.492 1.745-2.478 2.047-.962.115.554-.271 1.275-.46 1.777a140 140 0 0 1-3.197 7.465 145 145 0 0 1-4.616 9.19c-1.494 2.739-3.082 5.467-4.043 8.447-.564 1.735-1.85 5.656.783 6.419 2.675.774 3.96-2.624 4.837-4.454 1.264-2.655 2.382-5.373 3.51-8.081 2.34-5.625 4.733-11.375 8.504-16.215.438-.565.877-1.13 1.368-1.642.429-.439.94-1.181 1.703-.575.47.366.428.994.376 1.495-.177 1.631-1.18 3.398-1.786 4.914a243 243 0 0 1-4.283 9.88 245 245 0 0 1-4.565 9.43c-.784 1.526-1.64 3.032-2.393 4.579-.553 1.129-1.003 2.404-.532 3.638.344.93 1.18 1.704 2.183 1.788 1.17.094 2.037-.816 2.726-1.631Z"/><path fill="#cb2821" stroke="#cb2821" d="M74.05 53.077c2.225-2.049 3.813-4.746 5.422-7.286 3.688-5.865 7.03-11.95 10.227-18.097a959 959 0 0 0 4.733-9.263c.69-1.38 2.141-3.44 1.452-5.04-1.17-2.696-3.009.722-3.667 1.81-3.531 5.78-6.466 11.886-9.705 17.835-1.515 2.78-2.988 5.907-5.004 8.364-.71.857-1.724 1.495-2.883 1.212-1.024-.24-1.567-1.129-1.525-2.153.052-1.307.825-2.708 1.358-3.879.69-1.516 1.473-2.99 2.288-4.443 1.671-2.938 3.437-5.813 5.056-8.782a157 157 0 0 0 4.596-9.19l1.097-2.446c.282-.648.815-1.484.784-2.216-.074-1.746-1.714-.513-2.152.188-.387.606-.669 1.275-.993 1.913-3.207 6.513-6.414 13.016-9.632 19.519-1.358 2.76-2.56 5.781-4.554 8.165-.69.815-1.557 1.725-2.727 1.63-1.003-.083-1.839-.856-2.183-1.787-.47-1.234-.021-2.51.532-3.638.753-1.547 1.61-3.053 2.393-4.58a245 245 0 0 0 4.565-9.43 243 243 0 0 0 4.283-9.879c.606-1.516 1.609-3.283 1.786-4.914.053-.501.095-1.129-.376-1.495-.762-.606-1.274.136-1.702.575-.491.513-.93 1.077-1.369 1.642-3.771 4.84-6.163 10.59-8.504 16.215-1.128 2.708-2.246 5.426-3.51 8.081-.877 1.83-2.162 5.228-4.836 4.454-2.633-.763-1.348-4.684-.784-6.42.961-2.979 2.55-5.707 4.043-8.446a145 145 0 0 0 4.617-9.19A140 140 0 0 0 69.36 7.14c.344-.826.69-1.662 1.013-2.499.188-.501.575-1.223.46-1.777-.303-1.516-1.693.47-2.048.962-.46.648-.909 1.307-1.347 1.965a99 99 0 0 0-2.633 4.255c-1.703 2.886-3.301 5.824-5.067 8.667-3.175 5.133-7.197 10.037-8.816 15.964-1.808 6.555 1.337 12.671 1.264 19.216-.042 3.24-1.181 6.22-2.351 9.2-.648 1.63-1.316 3.251-2.079 4.82.95.616 1.912 1.244 2.862 1.86a45 45 0 0 1 2.508-4.453 46 46 0 0 1 5.505-6.973c.961-1.004 1.974-2.123 3.228-2.76 1.233-.638 2.59-.66 3.949-.523 1.536.167 3.071.502 4.596.115 1.39-.345 2.602-1.14 3.646-2.102Zm1.473-15.044c-.188.419-1.671 3.377.115 2.97.7-.157 1.295-1.517 1.64-2.07a111 111 0 0 0 2.466-4.151c3.426-6.032 6.393-12.305 9.882-18.296.857-1.474 1.682-3.084 2.748-4.411.647-.816 1.535-1.433 2.622-1.255 2.747.45 2.935 3.628 2.1 5.687-1.296 3.2-3.103 6.273-4.68 9.336a429 429 0 0 1-4.858 9.2 227 227 0 0 1-5.433 9.43c-1.64 2.677-3.259 5.426-5.254 7.862-1.609 1.976-3.667 3.837-6.226 4.401-3.145.712-6.519-1.306-9.214 1.056-3.97 3.492-7.167 8.04-9.496 12.839.24.156.47.303.71.46.387.25.46.669.282 1.077a399 399 0 0 1-19.347 38.075 418 418 0 0 1-9.935 16.278 486 486 0 0 1-5.192 7.851c-1.63 2.394-3.175 4.945-5.14 7.088-1.734 1.893-4.136 3.419-6.8 3.325-2.225-.084-4.116-1.401-5.119-3.377-2.549-5.06.961-10.914 2.956-15.556 2.497-5.792 5.13-11.542 8.347-16.978 2.946-4.987 6.456-9.608 10.186-14.04 7.615-9.044 16.14-17.387 22.502-27.413.25-.397.668-.428.992-.282h.01c.836-1.736 1.568-3.534 2.278-5.332 1.316-3.356 2.215-6.586 1.839-10.225-.335-3.272-1.275-6.45-1.64-9.712-.721-6.262 1.755-11.793 5.014-16.978 1.724-2.75 3.583-5.416 5.255-8.196 1.723-2.865 3.322-5.803 5.045-8.667a75 75 0 0 1 3.113-4.799c.658-.92 1.369-2.164 2.497-2.572 2.476-.888 2.862 2.185 2.32 3.806-1.045 3.178-2.57 6.293-3.991 9.325a156 156 0 0 1-4.754 9.305c-1.608 2.927-3.29 5.938-3.907 9.262-.167.868-.313 3.388 1.4 1.945.554-.45.857-1.213 1.17-1.84.71-1.4 1.369-2.833 2.006-4.276 2.476-5.624 4.544-11.448 7.605-16.8 1.4-2.436 3.02-5.03 5.046-7.015 1.86-1.82 4.555-.68 4.523 1.965-.01 1.63-.92 3.272-1.514 4.757a315 315 0 0 1-1.787 4.339 246 246 0 0 1-4.502 10.005 261 261 0 0 1-4.701 9.367c-.45.857-1.108 1.788-1.254 2.76-.094.575-.01 1.6.763 1.777.511.115.909-.376 1.201-.69 1.076-1.14 1.849-2.53 2.56-3.92 3.342-6.524 6.508-13.152 9.746-19.728.846-1.704 1.672-3.419 2.528-5.112.502-1.015 1.087-2.06 2.152-2.562 2.309-1.108 3.918 1.035 3.27 3.189-.46 1.526-1.254 3-1.922 4.443a138 138 0 0 1-2.33 4.851 163 163 0 0 1-4.9 8.99c-1.775 3.012-3.624 6.002-4.993 9.232ZM39.691 88.696a2.727 2.727 0 0 0-2.716-2.728 2.736 2.736 0 0 0-2.726 2.728 2.72 2.72 0 0 0 5.442 0ZM26.77 108.623a2.726 2.726 0 0 0-2.716-2.719 2.735 2.735 0 0 0-2.727 2.719 2.727 2.727 0 0 0 2.727 2.718 2.71 2.71 0 0 0 2.716-2.718Z"/><path fill="#fff8e0" stroke="#cb2821" d="M36.975 85.969a2.727 2.727 0 0 1 2.716 2.728 2.72 2.72 0 0 1-2.716 2.719 2.734 2.734 0 0 1-2.727-2.719 2.736 2.736 0 0 1 2.727-2.728Zm-12.922 19.937a2.725 2.725 0 0 1 2.716 2.718 2.726 2.726 0 0 1-2.716 2.719 2.73 2.73 0 0 1-2.727-2.719 2.72 2.72 0 0 1 2.727-2.718Z"/></svg>