<svg xmlns="http://www.w3.org/2000/svg" width="178" height="375" fill="none"><path fill="#fff8e0" stroke="#cb2821" d="M76.116 184.686c-3.01.261-9.956 1.442-8.609 5.405.648 1.902 2.727 2.383 4.493 2.435 2.653.063 5.327-.167 7.95-.439 2.674-.261 5.338-.616 8.002-.93 2.058-.241 4.21-.345 6.205-.993 1.63-.523 3.26-1.485 4.032-3.084.805-1.642-.083-3.053-1.744-3.492-5.13-1.391-10.917-.471-16.057.638.073-.649.146-1.286.23-1.924 2.413-.617 4.868-1.046 7.365-1.14 2.716-.104 5.62.147 8.148 1.234 2.424 1.045 4.931 3.764 3.448 6.555-1.045 1.976-3.552 2.781-5.568 3.304-.429.115-.847.209-1.275.303-2.35.533-4.743.857-7.135 1.077-5.463.501-11.324 1.181-16.777.282-1.275-.209-3.771-.418-4.304-1.83-.45-1.171.439-2.613 1.19-3.45 1.4-1.557 3.302-2.655 5.329-3.272a.67.67 0 0 0 .397-.031c.208-.073.407-.147.616-.22a12 12 0 0 1 1.577-.251.8.8 0 0 0 .71-.585 47 47 0 0 1 1.703-.596c.032.334.053.669.073 1.004Zm-3.469 106.737c4.336-13.382 4.89-27.621 4.994-41.589a304 304 0 0 0-2.654-42.456c-.438-3.314-.94-8.144-1.493-11.552 2.58.042 5.16-.136 7.73-.303 3.468-.22 6.947-.492 10.363-1.129.178-.032.355-.063.533-.105-.25 13.696-.439 27.527 2.11 41.055 2.434 12.933 7.511 25.175 12.996 37.072 11.042 23.973 25.03 49.21 22.073 76.57-.647 6.032-1.796 13.413-7.218 17.072-2.434 1.652-5.297 2.509-8.138 3.168a142 142 0 0 1-9.799 1.829c-12.452 1.934-26.044 1.798-36.553-6.074-4.356-3.272-7.845-7.778-9.318-13.068-1.902-6.817-.523-14.009 1.149-20.721a223 223 0 0 1 6.132-20.387c2.288-6.492 4.973-12.838 7.093-19.382Zm46.759 48.174c.7-6.304-.511-12.629-1.692-18.797-.188-.993-1.703-.575-1.504.408 1.118 5.886 2.256 11.887 1.682 17.898-.554 5.865-3.207 11.04-6.133 16.048-.511.867.847 1.662 1.348.784 2.998-5.112 5.641-10.371 6.299-16.341Zm19.337-220.739c-3.175 3.397-5.275 7.924-9.464 10.182-1.066.586-2.246 1.014-3.469 1.098-.762.052-3.437-.031-3.353-1.16.042-.492.533-1.161.763-1.6.303-.554.616-1.108.95-1.641a25.4 25.4 0 0 1 2.236-3.022 25.5 25.5 0 0 1 6.477-5.352.72.72 0 0 0 .365-.785c.523-.02 2.351-.083 3.437-.094.209.732.606 1.412 1.181 1.872q.407.329.877.502Zm5.055-3.92a32.3 32.3 0 0 0 8.106 6.095.6.6 0 0 0 .157.198 57.5 57.5 0 0 1 14.855 19.634c-5.756-1.683-11.617-3.555-16.433-7.203-4.669-3.555-8.211-8.991-7.96-15.013a.74.74 0 0 0-.115-.45c.199-.156.387-.355.543-.575.282-.386.46-.836.523-1.286a.87.87 0 0 0 .355-.658c.021-.251.01-.502-.031-.742Zm31.194 7.767c-7.376 1.715-15.2.617-21.865-2.802-3.489-1.787-6.884-4.547-9.506-7.548l-.053-.052c.491-.188.982-.366 1.473-.565.084 0 .167 0 .262-.021 11.271-2.99 21.478 4.005 29.689 10.988Zm-34.736-11.582a3 3 0 0 0-.073-.293.76.76 0 0 0 .418-.471c3.395-10.6 10.457-19.821 19.807-25.843.47 1.202-.23 3.125-.449 4.234a76 76 0 0 1-.92 4.244c-.731 2.886-1.671 5.74-3.165 8.333-3.353 5.791-9.193 8.227-15.221 10.36a.44.44 0 0 0-.177.105 1.3 1.3 0 0 0-.345-.042c.125-.157.177-.377.125-.627Zm-10.801-7.229c3.646.972 7.637 2.959 8.995 6.649-4.294 1.108-10.792 1.401-14.918.293a24.8 24.8 0 0 1-6.111-2.541 23 23 0 0 1-2.821-1.934c-.418-.334-.857-.679-1.222-1.056-.763-.794-.011-.899.71-1.118a28.2 28.2 0 0 1 15.367-.293Zm-20.339-41.128a4.8 4.8 0 0 0 1.181 2.153c-.262-.02-.523.084-.711.356a41.8 41.8 0 0 0-4.91 10.172.7.7 0 0 0-.323.126c-3.939 2.739-8.149 5.039-12.6 6.816 3.72-7.705 9.361-14.417 16.507-19.153.052-.042.104-.073.146-.125.282.02.585-.094.71-.345Zm4.262 3.518c2.612 1.547 1.943 6.43 1.588 8.949-.386 2.77-.794 5.54-1.347 8.28a1.3 1.3 0 0 1-.063.272v.02c-.063.356-.146.712-.22 1.067-1.305 5.938-3.395 11.793-7.375 16.456a40.2 40.2 0 0 1-1.88-11.751.66.66 0 0 0-.011-.492c-.01-8.102 2.33-16.194 6.874-23.02a.73.73 0 0 0 .126-.502c.7.47 1.504.7 2.308.72Z"/><path fill="#fff8e0" stroke="#cb2821" d="M115.27 83.241c.731-3.805 1.577-7.862 1.671-11.761.042-1.976-.501-4.109-1.755-5.541a4.76 4.76 0 0 0 2.173-1.798c2.476 2.09 5.004 4.15 7.825 5.77a26 26 0 0 0 4.826 2.144h.01a91 91 0 0 1 11.074 22.812c-7.741-4.914-15.524-10.528-19.692-18.86a49 49 0 0 0-.418-1.098.85.85 0 0 0-.303-.377c-.01-.01-.021-.02-.031-.02-.345-.387-.94-.178-1.181.25a.8.8 0 0 0-.042.743c.168.376.345.752.523 1.118 2.622 7.277 3.207 15.139 1.629 22.729-4.23-3.942-6.623-9.556-6.456-15.379.053-.24.094-.491.147-.732Zm41.388-10.69c-6.77.293-13.664.23-20.361-.69-1.817-.25-3.604-.617-5.338-1.15-1.65-.512-3.259-1.17-4.784-2.038-2.946-1.663-5.568-3.827-8.138-6.001a3.9 3.9 0 0 0-.084-2.31c5.61 2.111 11.763 1.243 17.185-1.214a1 1 0 0 0 .324.24 79.1 79.1 0 0 1 21.196 13.163Z"/><path fill="#fff8e0" stroke="#cb2821" d="M115.959 53.762v-.02l2.664-.064c0 .565.784 1.088 1.369.596 10.874-9.147 23.045-19.153 37.869-19.633-5.401 6.44-10.123 13.58-16.694 18.922a31.2 31.2 0 0 1-6.07 3.869c-5.62 2.739-12.139 3.711-17.895.92a.75.75 0 0 0-.595-.042 5.3 5.3 0 0 0-.919-.659c.198-1.328.292-2.624.271-3.889Z"/><path fill="#fff8e0" stroke="#cb2821" d="M115.958 53.737c-.031-4.83-1.504-9.253-3.792-13.382a100.7 100.7 0 0 1 15.774-24.558c2.863 12.42.042 26.074-7.908 36.11a.8.8 0 0 0-.167.429l-.982.826c-.188.156-.261.334-.261.512zm-5.097-12.424c2.559 4.872 4.095 10.287 3.343 15.797a4 4 0 0 0-1.275-.042 4.9 4.9 0 0 0-1.713.564 45.6 45.6 0 0 0-9.412-5.917.7.7 0 0 0-.126-.387 54.4 54.4 0 0 1-6.372-13.988 50 50 0 0 0 1.483-1.506c.387-.418.24-1.17-.355-1.317a67 67 0 0 0-1.974-.428 53.6 53.6 0 0 1-1.306-14.386c4.837 5.489 10.237 10.528 14.521 16.487a44 44 0 0 1 2.757 4.339.82.82 0 0 0 .429.784Zm-32.615 7.98c11.303-1.38 22.836 2.185 31.695 9.304-.888.868-1.577 2.018-2.079 3.147a.7.7 0 0 0-.397.136c-.574.387-1.149.774-1.703 1.202-10.948 1.046-21.55-4.736-27.516-13.79Zm15.304-12.44a58.5 58.5 0 0 1-16.536 11.03c-.094 0-.199.03-.293.041a.64.64 0 0 0-.428.282 59.5 59.5 0 0 1-12.254 3.754c-3.27.062-6.56.48-9.799 1.014h-2.079c-.073 0-.146 0-.209.02a7.8 7.8 0 0 0-1.514-3.48c6.591-2.363 11.585-6.87 15.304-12.41a.7.7 0 0 0 .439-.01 56.8 56.8 0 0 1 26.994-1.663c.104.48.23.951.376 1.422Zm-1.138 32.233c-10.603 2.28-22.763 4.12-32.207-2.457-.198-.136-.397-.167-.575-.115a36.4 36.4 0 0 0-4.659-4.495c-1.41-1.13-3.28-2.363-5.16-2.677 1.2-1.15 1.984-2.76 2.172-4.411.774-.136 1.547-.262 2.33-.387a58 58 0 0 0 9.977-1.046c4.314-.073 8.587.502 12.598 2.363 6.279 2.906 11.053 8.071 15.524 13.225Zm-45.391-7.569c2.497-1.903 5.683.617 7.605 2.248a35.6 35.6 0 0 1 5.673 6.084 38.2 38.2 0 0 1 6.56 14.584 36 36 0 0 1 .826 8.27c-.021 1.16.136 2.864-.293 3.941-.616 1.569-3.583-.136-4.513-.606-4.774-2.457-8.294-6.858-10.52-11.678-2.026-4.39-2.987-9.158-3.53-13.967v-.021a.55.55 0 0 0-.032-.261c-.282-2.5-.46-4.998-.616-7.465-.042-.742-.92-.94-1.337-.585l-.24-.387a.7.7 0 0 0 .417-.157Z"/><path fill="#fff8e0" stroke="#cb2821" d="M46.614 62.648c.157 2.426.366 4.966.68 7.538a.6.6 0 0 0-.032.188c-.857 11.96-7.825 23.43-18.553 28.939-1.39-8.72 1.17-16.947 5.045-24.642a104 104 0 0 0 3.197-4.715c1.536-2.425 3.28-5.018 4.158-7.81l.156-.25a.66.66 0 0 0 .084-.628c.125-.49.22-.993.261-1.495a6.43 6.43 0 0 0 4.315 1.286c.083.335.355.617.679.617l.24.387a.66.66 0 0 0-.23.585Zm-7.293-5.525a.7.7 0 0 0 .282-.146q.172.611.533 1.191c-.021.063-.021.126-.021.199.031 1.056-.136 2.09-.428 3.095-2.508 3.93-5.036 8.008-7.167 12.242a75 75 0 0 1-4.22 5.353c-4.367 5.05-9.893 9.817-16.673 10.872 1.024-13.873 10.164-27.213 23.536-31.781a.6.6 0 0 0 .282-.178 28.5 28.5 0 0 0 3.876-.847Zm.451-7.726a.73.73 0 0 0 .198.492q.013.436.167.857a.25.25 0 0 0 .063.115c-.554 1.526-.971 3.178-.857 4.746a.7.7 0 0 0-.438 0c-13.414 3.89-26.848-2.645-36.47-11.845 7.533-1.181 15.41-2.572 22.89-.544h.04c4.368 2.687 9.246 4.506 14.114 6.116.105.032.21.042.293.042zm-.764-4.83a22 22 0 0 1 .616 3.168c-4.627-1.527-9.401-3.356-13.601-5.96-4.064-2.519-7.595-5.76-9.924-10.161-1.097-2.07-1.86-4.35-2.11-6.68-.178-1.663 1.389-.67 2.287-.314a74 74 0 0 1 4.304 1.871c4.65 2.175 9.434 4.652 13.017 8.406 2.1 2.195 3.698 4.809 4.764 7.631l.03.084c.168.585.335 1.16.513 1.735.02.084.062.157.104.22ZM50.03 25.959c-.168 7.61-2.936 15.096-8.483 20.407a.71.71 0 0 0-.22.69c-.073.042-.135.104-.198.157-.157-1.098-.407-2.165-.7-3.23-.01-.022 0-.032-.01-.053-.136-.44-.261-.878-.397-1.317 0 0 0-.032-.021-.053-2.006-6.774-3.886-13.727-3.771-20.825.052-3.827.762-7.663 2.34-11.166 1.368-3.052 3.311-5.792 5.474-8.342 3.196 6.983 5.808 14.448 5.975 22.184a19 19 0 0 1 0 1.547z"/><path fill="#fff8e0" stroke="#cb2821" d="M74.245 3.805c-1.19 9.336-2.59 18.933-6.832 27.433a41 41 0 0 1-2.497 4.338c-3.687 5.625-8.827 10.35-15.283 12.567a.7.7 0 0 0-.293.188 8.9 8.9 0 0 0-2.319-1.495c-.96-.418-2.047-.69-3.113-.648 4.92-5.374 7.438-12.546 7.679-19.822.02-.554.02-1.098 0-1.642a54.07 54.07 0 0 1 22.648-20.92z"/><path fill="#cb2821" stroke="#cb2821" d="M111.758 355.157c2.925-5.008 5.578-10.183 6.132-16.048.575-6.011-.564-12.012-1.682-17.898-.198-.983 1.316-1.401 1.505-.408 1.18 6.168 2.392 12.493 1.692 18.797-.658 5.97-3.301 11.228-6.299 16.341-.502.878-1.86.083-1.348-.784Z"/><path fill="#cb2821" d="M151.905 121.035a32.2 32.2 0 0 1-8.107-6.095c.042.241.053.492.032.743-.021.272-.147.512-.356.648-.062.46-.24.909-.522 1.296-.157.22-.345.418-.543.575a.74.74 0 0 1 .115.45c-.251 6.022 3.291 11.458 7.96 15.013 4.816 3.648 10.677 5.52 16.433 7.203a57.5 57.5 0 0 0-14.855-19.634.5.5 0 0 1-.157-.199m-6.602-9.315a.8.8 0 0 1-.262.021c-.49.199-.981.377-1.472.565l.052.052c2.622 3.001 6.017 5.761 9.506 7.548 6.665 3.419 14.49 4.517 21.865 2.802-8.211-6.983-18.417-13.978-29.689-10.988m-6.373 5.51-.01-.01h.01zm1.254-6.398c.031.094.052.188.073.293.052.25 0 .47-.125.627.114 0 .229.01.344.042a.44.44 0 0 1 .178-.105c6.028-2.133 11.867-4.569 15.221-10.36 1.494-2.593 2.434-5.447 3.165-8.333.355-1.411.648-2.822.919-4.244.22-1.108.92-3.032.449-4.234-9.349 6.022-16.411 15.242-19.806 25.843a.76.76 0 0 1-.418.471m-5.046-51.688c-5.422 2.457-11.575 3.325-17.185 1.213a3.9 3.9 0 0 1 .084 2.31c2.57 2.175 5.192 4.34 8.138 6.001 1.525.868 3.134 1.527 4.784 2.04 1.735.532 3.521.898 5.339 1.15 6.696.92 13.591.982 20.36.69a79.1 79.1 0 0 0-21.196-13.163 1 1 0 0 1-.324-.24m-12.682 69.837c-.084 1.129 2.591 1.213 3.353 1.16 1.223-.083 2.403-.512 3.469-1.097 4.189-2.258 6.288-6.785 9.464-10.183a3 3 0 0 1-.877-.502c-.575-.46-.972-1.139-1.181-1.871-1.086 0-2.914.073-3.437.094a.72.72 0 0 1-.365.784 25.5 25.5 0 0 0-6.477 5.353 25.4 25.4 0 0 0-2.236 3.021 32 32 0 0 0-.951 1.641c-.229.44-.72 1.109-.762 1.6m6.999-25.091a28.2 28.2 0 0 0-15.367.293c-.721.219-1.473.324-.71 1.118.365.377.804.722 1.222 1.056a23 23 0 0 0 2.821 1.934 24.8 24.8 0 0 0 6.111 2.541c4.126 1.108 10.624.815 14.918-.293-1.358-3.69-5.349-5.677-8.995-6.649M116.94 71.48c-.094 3.9-.94 7.957-1.671 11.762-.053.24-.094.492-.147.732-.167 5.823 2.225 11.437 6.456 15.379 1.578-7.59.993-15.452-1.629-22.729a38 38 0 0 1-.523-1.118.8.8 0 0 1 .042-.743c.24-.428.836-.637 1.181-.25.01 0 .021.01.031.02.125.084.23.21.303.377.146.366.282.732.418 1.098 4.168 8.332 11.951 13.946 19.692 18.86a91 91 0 0 0-11.074-22.812h-.01a26 26 0 0 1-4.827-2.143c-2.82-1.62-5.348-3.68-7.824-5.771a4.76 4.76 0 0 1-2.173 1.798c1.254 1.432 1.797 3.565 1.755 5.54m11-55.68a100.7 100.7 0 0 0-15.774 24.558c2.288 4.129 3.761 8.551 3.792 13.381v.021a23.6 23.6 0 0 1-.272 3.89c.335.188.638.407.92.658a.75.75 0 0 1 .595.042c5.756 2.791 12.275 1.819 17.895-.92a31.2 31.2 0 0 0 6.07-3.868c6.571-5.343 11.293-12.483 16.694-18.923-14.824.48-26.995 10.486-37.87 19.633-.585.492-1.368-.03-1.368-.595 0-.178.073-.356.261-.513l.982-.826a.8.8 0 0 1 .167-.428c7.95-10.037 10.771-23.69 7.908-36.11m-23.86 73.778a40.2 40.2 0 0 0 1.881 11.751c3.98-4.663 6.069-10.518 7.375-16.456.073-.355.157-.71.219-1.066v-.021c.032-.094.053-.178.063-.272.554-2.74.961-5.51 1.348-8.28.355-2.52 1.023-7.402-1.588-8.95a4.3 4.3 0 0 1-2.309-.72.72.72 0 0 1-.125.501c-4.545 6.827-6.885 14.919-6.874 23.021a.65.65 0 0 1 .01.492m-12.327-7.193c4.45-1.777 8.661-4.077 12.599-6.817a.7.7 0 0 1 .324-.125 41.7 41.7 0 0 1 4.91-10.172c.188-.272.449-.377.71-.356a4.8 4.8 0 0 1-1.18-2.153c-.126.25-.429.365-.711.345-.042.052-.094.083-.146.125-7.146 4.736-12.787 11.448-16.506 19.153m3.552-45.049a54.4 54.4 0 0 0 6.373 13.988.7.7 0 0 1 .125.387 45.6 45.6 0 0 1 9.412 5.917 4.9 4.9 0 0 1 1.714-.564 4 4 0 0 1 1.274.042c.752-5.51-.783-10.925-3.343-15.797a.82.82 0 0 1-.428-.784 44 44 0 0 0-2.758-4.339c-4.283-5.959-9.684-10.998-14.52-16.487a53.6 53.6 0 0 0 1.305 14.386 67 67 0 0 1 1.974.428c.596.147.742.9.355 1.318a49 49 0 0 1-1.483 1.505m1.107 73.506a373.3 373.3 0 0 0-14.447 61.41 174 174 0 0 1 3.238-7.276c5.39-11.437 11.91-22.53 19.713-32.493 7.219-9.2 19.274-17.647 31.622-17.563.031-.293.084-.586.178-.858.229-.69.647-1.317 1.243-1.746.031-.021.073-.041.104-.073-4.523 1.025-10.802 1.213-14.949.105-3.917-1.046-7.73-3.011-10.697-5.803-1.129-1.066-1.651-2.718.062-3.481 2.121-.93 4.639-1.296 6.926-1.526.68-.073 1.411-.115 2.163-.126-.031-.021-.052-.031-.073-.052-3.918-3.178-6.561-7.695-7.532-12.587-1.515 5.384-3.855 10.517-7.772 14.647-.429.449-1.118.188-1.306-.356a41.2 41.2 0 0 1-2.173-9.921 356 356 0 0 0-6.3 17.699m-2.37-72.293a59.6 59.6 0 0 1-12.63 8.938c6.183-.23 12.326.9 18.03 3.2a55.6 55.6 0 0 1-5.4-12.138M77.566 183.178c.01.156.031.313.042.47.052-.178.115-.366.177-.544-.073.021-.146.053-.22.074M109.94 58.601c-8.859-7.12-20.392-10.685-31.695-9.305 5.965 9.054 16.568 14.835 27.516 13.79a31 31 0 0 1 1.703-1.203.7.7 0 0 1 .397-.136c.501-1.129 1.191-2.279 2.079-3.146M58.27 351.915c1.474 5.29 4.963 9.795 9.32 13.068 10.509 7.872 24.1 8.008 36.552 6.074 3.28-.502 6.56-1.098 9.799-1.83 2.841-.658 5.704-1.516 8.138-3.167 5.422-3.66 6.571-11.04 7.218-17.073 2.957-27.359-11.031-52.597-22.073-76.569-5.485-11.897-10.562-24.14-12.996-37.072-2.549-13.528-2.36-27.36-2.11-41.055a9 9 0 0 1-.533.104c-3.416.638-6.895.91-10.363 1.129-2.57.168-5.15.345-7.73.304.553 3.408 1.055 8.238 1.493 11.552a304 304 0 0 1 2.654 42.456c-.105 13.967-.658 28.206-4.994 41.588-2.12 6.545-4.805 12.891-7.093 19.383a223 223 0 0 0-6.132 20.387c-1.672 6.711-3.05 13.904-1.15 20.721M48.16 75.663c-.01-.084-.032-.168-.042-.24a3 3 0 0 1-.094.417c.041-.062.083-.125.136-.177m6.153-21.119c-.784.126-1.557.251-2.33.387-.188 1.652-.972 3.262-2.173 4.412 1.88.314 3.75 1.547 5.16 2.676a36.4 36.4 0 0 1 4.66 4.496c.177-.052.376-.021.575.115 9.443 6.576 21.603 4.736 32.206 2.457-4.47-5.155-9.245-10.319-15.523-13.225-4.012-1.861-8.285-2.436-12.599-2.363a58 58 0 0 1-9.976 1.045M65.71 188.635c-.752.836-1.64 2.279-1.191 3.45.533 1.411 3.03 1.62 4.304 1.829 5.453.899 11.314.22 16.777-.282 2.393-.219 4.785-.544 7.135-1.077.429-.094.846-.188 1.275-.303 2.016-.523 4.523-1.328 5.568-3.304 1.483-2.791-1.024-5.509-3.448-6.555-2.528-1.087-5.432-1.338-8.148-1.233-2.497.094-4.952.523-7.365 1.139-.083.638-.157 1.276-.23 1.924 5.14-1.108 10.927-2.028 16.057-.638 1.66.439 2.549 1.851 1.744 3.492-.773 1.6-2.402 2.561-4.032 3.084-1.995.648-4.147.753-6.205.993-2.664.314-5.328.669-8.002.931-2.623.272-5.297.502-7.95.439-1.766-.052-3.845-.533-4.492-2.436-1.348-3.962 5.599-5.144 8.608-5.405a34 34 0 0 0-.073-1.004q-.86.283-1.703.596a.8.8 0 0 1-.71.586c-.523.052-1.056.125-1.578.251-.209.073-.407.146-.616.219a.67.67 0 0 1-.397.032c-2.027.616-3.928 1.714-5.328 3.272m-13.56-101.2c1.15 4.286 2.445 8.53 3.824 12.744 8.42 25.697 20.297 50.746 23.609 77.782.47-3.618 1.003-7.224 1.577-10.821a375 375 0 0 1 21.353-77.834 43.2 43.2 0 0 1 1.484-11.615 64 64 0 0 1-13.027 6.67c-.178.073-.355.146-.533.209-.72.261-1.128-.596-.888-1.15 3.155-7.224 7.95-13.664 14.019-18.651-6.988.125-13.747-2.384-19.232-6.628a33.2 33.2 0 0 1-7.668-8.395 59 59 0 0 1-6.999 2.488c2.466.313 4.9.92 7.26 1.934 2.602 1.108 4.952 2.603 7.136 4.339 3.854 3.042 7.176 6.816 10.363 10.517.355.418.271 1.181-.345 1.317-.23.053-.46.105-.69.147-10.185 2.206-21.833 4.077-31.37-.93.03.051.072.093.104.145 3.625 5.155 5.965 11.197 6.8 17.45.408 3.083.47 6.23.073 9.325-.438 3.345-3.624 2.394-5.86 1.411-5.087-2.248-8.577-5.98-10.98-10.455zm.01-34.459h2.08c3.238-.533 6.529-.951 9.798-1.014a59.5 59.5 0 0 0 12.254-3.753.64.64 0 0 1 .429-.282c.094-.01.198-.032.292-.042a58.5 58.5 0 0 0 16.537-11.03 17 17 0 0 1-.376-1.422 56.8 56.8 0 0 0-26.994 1.663.7.7 0 0 1-.439.01c-3.719 5.541-8.712 10.047-15.304 12.41a7.8 7.8 0 0 1 1.515 3.481 1.3 1.3 0 0 1 .209-.02m-8.252-6.785c1.065-.042 2.152.23 3.113.648.846.377 1.63.879 2.319 1.495a.7.7 0 0 1 .292-.188c6.457-2.216 11.596-6.942 15.284-12.566a41 41 0 0 0 2.497-4.339c4.241-8.5 5.64-18.097 6.832-27.433a54.07 54.07 0 0 0-22.649 20.92c.01.543.01 1.087 0 1.641-.24 7.277-2.757 14.449-7.678 19.822zm6.111-21.777c-.167-7.736-2.779-15.2-5.975-22.184-2.163 2.55-4.106 5.29-5.474 8.342-1.578 3.503-2.288 7.34-2.34 11.166-.115 7.099 1.765 14.05 3.77 20.825.011.021.022.042.022.053.135.439.26.878.397 1.317.01.02 0 .031.01.052.292 1.067.543 2.133.7 3.23.063-.052.125-.114.198-.156a.71.71 0 0 1 .22-.69c5.547-5.311 8.315-12.797 8.483-20.407.01-.513.01-1.035 0-1.548zM33.754 74.67c-3.876 7.695-6.435 15.923-5.046 24.642C39.437 93.8 46.405 82.333 47.26 70.373c0-.063.01-.126.031-.178a135 135 0 0 1-.679-7.548.66.66 0 0 1 .23-.586c.418-.355 1.296-.157 1.337.586.157 2.467.335 4.966.617 7.464.031.084.042.167.031.262v.02c.543 4.81 1.504 9.577 3.531 13.968 2.225 4.82 5.746 9.22 10.52 11.678.93.47 3.896 2.174 4.513.606.428-1.077.271-2.781.292-3.941a36 36 0 0 0-.825-8.27 38.2 38.2 0 0 0-6.56-14.584 35.6 35.6 0 0 0-5.673-6.085c-1.922-1.63-5.108-4.15-7.605-2.248a.7.7 0 0 1-.418.157c-.324 0-.596-.282-.68-.617a6.43 6.43 0 0 1-4.314-1.285 9 9 0 0 1-.26 1.495.66.66 0 0 1-.084.627l-.157.25c-.877 2.792-2.622 5.385-4.158 7.81a103 103 0 0 1-3.196 4.715M13.989 24.937c.25 2.331 1.013 4.61 2.11 6.68 2.33 4.402 5.86 7.643 9.924 10.162 4.2 2.603 8.974 4.433 13.602 5.96a22 22 0 0 0-.617-3.168.7.7 0 0 1-.104-.22 84 84 0 0 1-.512-1.735 1 1 0 0 1-.031-.084c-1.066-2.823-2.664-5.436-4.764-7.632-3.583-3.753-8.368-6.23-13.017-8.405a74 74 0 0 0-4.304-1.872c-.898-.355-2.465-1.348-2.287.314m11.334 18.285c-7.48-2.028-15.356-.638-22.888.544 9.621 9.2 23.055 15.734 36.469 11.845a.7.7 0 0 1 .439 0c-.115-1.569.302-3.22.856-4.747a.25.25 0 0 1-.062-.115 2.7 2.7 0 0 1-.168-.857.73.73 0 0 1-.198-.491c-.084-.01-.188-.021-.293-.053-4.868-1.61-9.746-3.429-14.113-6.115h-.042zm9.84 14.93C21.794 62.72 12.652 76.06 11.629 89.932c6.78-1.056 12.306-5.823 16.673-10.873a75 75 0 0 0 4.22-5.352c2.131-4.234 4.66-8.312 7.166-12.243.293-1.003.46-2.038.429-3.094 0-.074 0-.136.02-.199a4.6 4.6 0 0 1-.532-1.192.7.7 0 0 1-.282.147c-1.296.376-2.58.658-3.876.846a.63.63 0 0 1-.282.178m-18.02-34.856a71 71 0 0 1 3.782 1.64c5.349 2.458 10.917 5.364 14.75 9.943.314.377.617.753.9 1.15-1.254-4.987-2.1-10.068-1.892-15.211.157-3.806.961-7.559 2.528-11.04C38.8 6.255 41.15 3.139 43.688.233c.314-.356 1.024-.283 1.223.167.114.24.23.48.334.732 3.04 6.576 5.61 13.58 6.226 20.825 5.704-8.75 13.821-15.796 23.327-20.156.47-.21 1.254.031 1.18.68l-.093.72c-.554 4.392-1.15 8.783-2.016 13.11-1.306 6.483-3.51 13.163-6.958 18.934a58.2 58.2 0 0 1 25.866-1.463 55 55 0 0 1-1.065-16.027c.041-.617.856-1.119 1.337-.554.125.146.24.282.376.428 5.64 6.566 13.037 13.32 17.78 21.077a101.6 101.6 0 0 1 16.119-24.558l.47-.533c.397-.45 1.16-.21 1.306.345 3.144 11.761 1.264 24.63-5.098 34.96 10.185-8.249 21.52-15.902 35.017-15.88.188 0 .366.01.554.01.7.02.992.836.553 1.338-2.883 3.303-5.515 6.806-8.263 10.214-4.273 5.29-8.963 10.455-15.012 13.696a80.7 80.7 0 0 1 21.917 14.02c.136.125.282.25.418.376.523.48.084 1.306-.553 1.338-7.731.386-15.691.418-23.349-.743a35 35 0 0 1-2.966-.585 92.5 92.5 0 0 1 10.739 23.22q.091.266.167.533c.073.24.021.47-.115.648-.031.052-.084.105-.125.146-.241.21-.606.283-.909.094-6.916-4.338-14.124-9.126-19.055-15.734a43.2 43.2 0 0 1-.063 18.724c-.041.22-.094.45-.146.67a.68.68 0 0 1-.251.397c6.227.052 14.093 1.892 16.893 7.443a49.5 49.5 0 0 1 5.118-10.548c.251-.387.502-.774.763-1.16 3.897-5.74 8.974-10.675 14.907-14.376.293-.177.721-.125.951.126 1.045 1.087.961 2.457.731 3.858a99 99 0 0 1-1.034 5.258c-.742 3.241-1.713 6.472-3.28 9.42-1.588 2.979-3.834 5.499-6.655 7.36-.355.24-.721.46-1.097.679 10.123-.376 19.264 6.137 26.796 12.608.178.157.355.304.533.46.459.398.198 1.161-.345 1.307-6.759 1.934-14.019 1.537-20.559-.847a58.7 58.7 0 0 1 12.703 18.704c.251.585-.167 1.359-.888 1.15l-.533-.157c-6.508-1.882-13.215-3.921-18.584-8.228-4.68-3.753-8.159-9.357-8.034-15.483-.041.021-.094.031-.135.042-2.612 2.394-4.378 5.499-6.728 8.133-1.901 2.123-4.398 3.931-7.25 4.433-1.765.314-6.477.094-5.955-2.739.23-1.296 1.181-2.666 1.87-3.774a26.7 26.7 0 0 1 2.643-3.565 26.2 26.2 0 0 1 5.433-4.705c-5.161.722-10.04 3.001-14.25 6.116-4.962 3.68-9.005 8.479-12.63 13.434-3.583 4.914-6.894 10.037-9.955 15.285a183 183 0 0 0-12.923 27.077 61 61 0 0 0-.25 1.935c4.387-1.077 8.88-1.527 13.34-.513 2.79.638 5.63 1.997 6.874 4.726 1.065 2.373.428 4.945-1.546 6.586-1.63 1.359-3.72 2.049-5.798 2.52-.052 3.387-.115 6.774-.136 10.162-.073 14.322.857 28.53 5.046 42.299 3.97 13.058 10.029 25.321 15.816 37.636 5.819 12.358 11.408 24.934 14.479 38.295 1.515 6.555 2.413 13.278 2.361 20.021-.052 6.189-.627 13.037-3.197 18.755-2.507 5.573-7.594 8.155-13.288 9.504-6.633 1.578-13.528 2.707-20.34 3-11.773.512-24.298-2.415-32.342-11.625-3.771-4.329-5.903-9.619-6.237-15.348-.407-6.952 1.463-13.883 3.28-20.532a236 236 0 0 1 6.718-20.701c2.507-6.638 5.202-13.235 6.947-20.125 1.796-7.098 2.475-14.417 2.862-21.714.397-7.381.522-14.772.366-22.164-.293-14.72-1.672-31.071-4.095-45.582 0-.031.01-.041 0-.073-.46-.021-.93-.031-1.4-.073-2.288-.219-6.31-.408-7.396-2.896-1.056-2.404.898-4.945 2.653-6.377a14.1 14.1 0 0 1 5.683-2.781c.01-.01.02-.01.042-.01a112 112 0 0 1 4.366-1.537c-.658-5.154-2.287-10.141-4.648-14.794-3.542-6.962-8.452-13.13-14.03-18.609-3.573 1.589-7.49 1.882-11.366 1.328-7.208-1.025-14.364-4.422-20.225-8.698-5.39-3.921-9.861-8.97-12.494-15.117a16 16 0 0 1-.324-.764c-.198-.47.282-.993.752-.982 7.313.156 14.375 2.279 20.883 5.541 5.756 2.875 11.053 6.586 16.036 10.621a109 109 0 0 1 5.275 4.559 150 150 0 0 1-6.508-17.627c-1.546-5.164-3.771-11.782-.522-16.675.177-.261.365-.523.574-.774.24-.303.857-.313 1.108 0 9.214 11.626 13.716 26.649 12.42 41.442a.82.82 0 0 1-.26.534c.47.533.94 1.076 1.4 1.62 6.748 8.019 12.013 17.501 13.434 27.903.334-.104.668-.209 1.003-.303-.68-7.099-1.985-14.114-3.72-21.034-7.145-28.521-20.976-54.96-26.711-83.888-.01-.042-.01-.084-.01-.126-2.477 10.622-9.445 20.22-19.432 24.903-.418.199-1.055.074-1.149-.47a21 21 0 0 1-.136-.805c-1.18-7.078.115-13.832 2.623-20.24-.147.177-.293.355-.44.522-4.857 5.615-11.01 10.633-18.625 11.448-.408.053-.805-.386-.784-.784.658-13.476 8.619-26.523 20.726-32.503C19.244 58.287 8.284 51.93.22 43.787c-.376-.387-.261-1.224.345-1.307.24-.032.47-.073.71-.115 6.832-1.056 13.936-2.352 20.82-1.39-.083-.063-.177-.126-.261-.2-4.064-3.22-7.427-7.61-8.817-12.66-.407-1.463-1.609-5.143.575-5.718 1.17-.314 2.517.47 3.551.899"/><path stroke="#cb2821" d="M141.312 117.115h-.01m10.603 3.92a32.2 32.2 0 0 1-8.107-6.095c.042.241.053.492.032.743-.021.272-.147.512-.356.648-.062.46-.24.909-.522 1.296-.157.22-.345.418-.543.575a.74.74 0 0 1 .115.45c-.251 6.022 3.291 11.458 7.96 15.013 4.816 3.648 10.677 5.52 16.433 7.203a57.5 57.5 0 0 0-14.855-19.634.5.5 0 0 1-.157-.199Zm-6.602-9.315a.8.8 0 0 1-.262.021c-.49.199-.981.377-1.472.565l.052.052c2.622 3.001 6.017 5.761 9.506 7.548 6.665 3.419 14.49 4.517 21.865 2.802-8.211-6.983-18.417-13.978-29.689-10.988Zm-6.373 5.51-.01-.01h.01zm1.254-6.398c.031.094.052.188.073.293.052.25 0 .47-.125.627.114 0 .229.01.344.042a.44.44 0 0 1 .178-.105c6.028-2.133 11.867-4.569 15.221-10.36 1.494-2.593 2.434-5.447 3.165-8.333.355-1.411.648-2.822.919-4.244.22-1.108.92-3.032.449-4.234-9.349 6.022-16.411 15.242-19.806 25.843a.76.76 0 0 1-.418.471Zm-5.046-51.688c-5.422 2.457-11.575 3.325-17.185 1.213a3.9 3.9 0 0 1 .084 2.31c2.57 2.175 5.192 4.34 8.138 6.001 1.525.868 3.134 1.527 4.784 2.04 1.735.532 3.521.898 5.339 1.15 6.696.92 13.591.982 20.36.69a79.1 79.1 0 0 0-21.196-13.163 1 1 0 0 1-.324-.24Zm-12.682 69.837c-.084 1.129 2.591 1.213 3.353 1.16 1.223-.083 2.403-.512 3.469-1.097 4.189-2.258 6.288-6.785 9.464-10.183a3 3 0 0 1-.877-.502c-.575-.46-.972-1.139-1.181-1.871-1.086 0-2.914.073-3.437.094a.72.72 0 0 1-.365.784 25.5 25.5 0 0 0-6.477 5.353 25.4 25.4 0 0 0-2.236 3.021 32 32 0 0 0-.951 1.641c-.229.44-.72 1.109-.762 1.6Zm6.999-25.091a28.2 28.2 0 0 0-15.367.293c-.721.219-1.473.324-.71 1.118.365.377.804.722 1.222 1.056a23 23 0 0 0 2.821 1.934 24.8 24.8 0 0 0 6.111 2.541c4.126 1.108 10.624.815 14.918-.293-1.358-3.69-5.349-5.677-8.995-6.649ZM116.94 71.48c-.094 3.9-.94 7.957-1.671 11.762-.053.24-.094.492-.147.732-.167 5.823 2.225 11.437 6.456 15.379 1.578-7.59.993-15.452-1.629-22.729a38 38 0 0 1-.523-1.118.8.8 0 0 1 .042-.743c.24-.428.836-.637 1.181-.25.01 0 .021.01.031.02.125.084.23.21.303.377.146.366.282.732.418 1.098 4.168 8.332 11.951 13.946 19.692 18.86a91 91 0 0 0-11.074-22.812h-.01a26 26 0 0 1-4.827-2.143c-2.82-1.62-5.348-3.68-7.824-5.771a4.76 4.76 0 0 1-2.173 1.798c1.254 1.432 1.797 3.565 1.755 5.54Zm11-55.68a100.7 100.7 0 0 0-15.774 24.558c2.288 4.129 3.761 8.551 3.792 13.381v.021a23.6 23.6 0 0 1-.272 3.89c.335.188.638.407.92.658a.75.75 0 0 1 .595.042c5.756 2.791 12.275 1.819 17.895-.92a31.2 31.2 0 0 0 6.07-3.868c6.571-5.343 11.293-12.483 16.694-18.923-14.824.48-26.995 10.486-37.87 19.633-.585.492-1.368-.03-1.368-.595 0-.178.073-.356.261-.513l.982-.826a.8.8 0 0 1 .167-.428c7.95-10.037 10.771-23.69 7.908-36.11Zm-23.86 73.778a40.2 40.2 0 0 0 1.881 11.751c3.98-4.663 6.069-10.518 7.375-16.456.073-.355.157-.71.219-1.066v-.021c.032-.094.053-.178.063-.272.554-2.74.961-5.51 1.348-8.28.355-2.52 1.023-7.402-1.588-8.95a4.3 4.3 0 0 1-2.309-.72.72.72 0 0 1-.125.501c-4.545 6.827-6.885 14.919-6.874 23.021a.65.65 0 0 1 .01.492Zm-12.327-7.193c4.45-1.777 8.661-4.077 12.599-6.817a.7.7 0 0 1 .324-.125 41.7 41.7 0 0 1 4.91-10.172c.188-.272.449-.377.71-.356a4.8 4.8 0 0 1-1.18-2.153c-.126.25-.429.365-.711.345-.042.052-.094.083-.146.125-7.146 4.736-12.787 11.448-16.506 19.153Zm3.552-45.049a54.4 54.4 0 0 0 6.373 13.988.7.7 0 0 1 .125.387 45.6 45.6 0 0 1 9.412 5.917 4.9 4.9 0 0 1 1.714-.564 4 4 0 0 1 1.274.042c.752-5.51-.783-10.925-3.343-15.797a.82.82 0 0 1-.428-.784 44 44 0 0 0-2.758-4.339c-4.283-5.959-9.684-10.998-14.52-16.487a53.6 53.6 0 0 0 1.305 14.386 67 67 0 0 1 1.974.428c.596.147.742.9.355 1.318a49 49 0 0 1-1.483 1.505Zm1.107 73.506a373.3 373.3 0 0 0-14.447 61.41 174 174 0 0 1 3.238-7.276c5.39-11.437 11.91-22.53 19.713-32.493 7.219-9.2 19.274-17.647 31.622-17.563.031-.293.084-.586.178-.858.229-.69.647-1.317 1.243-1.746.031-.021.073-.041.104-.073-4.523 1.025-10.802 1.213-14.949.105-3.917-1.046-7.73-3.011-10.697-5.803-1.129-1.066-1.651-2.718.062-3.481 2.121-.93 4.639-1.296 6.926-1.526.68-.073 1.411-.115 2.163-.126-.031-.021-.052-.031-.073-.052-3.918-3.178-6.561-7.695-7.532-12.587-1.515 5.384-3.855 10.517-7.772 14.647-.429.449-1.118.188-1.306-.356a41.2 41.2 0 0 1-2.173-9.921 356 356 0 0 0-6.3 17.699Zm-2.37-72.293a59.6 59.6 0 0 1-12.63 8.938c6.183-.23 12.326.9 18.03 3.2a55.6 55.6 0 0 1-5.4-12.138ZM77.566 183.178c.01.156.031.313.042.47.052-.178.115-.366.177-.544-.073.021-.146.053-.22.074ZM109.94 58.601c-8.859-7.12-20.392-10.685-31.695-9.305 5.965 9.054 16.568 14.835 27.516 13.79a31 31 0 0 1 1.703-1.203.7.7 0 0 1 .397-.136c.501-1.129 1.191-2.279 2.079-3.146ZM58.27 351.915c1.474 5.29 4.963 9.795 9.32 13.068 10.509 7.872 24.1 8.008 36.552 6.074 3.28-.502 6.56-1.098 9.799-1.83 2.841-.658 5.704-1.516 8.138-3.167 5.422-3.66 6.571-11.04 7.218-17.073 2.957-27.359-11.031-52.597-22.073-76.569-5.485-11.897-10.562-24.14-12.996-37.072-2.549-13.528-2.36-27.36-2.11-41.055a9 9 0 0 1-.533.104c-3.416.638-6.895.91-10.363 1.129-2.57.168-5.15.345-7.73.304.553 3.408 1.055 8.238 1.493 11.552a304 304 0 0 1 2.654 42.456c-.105 13.967-.658 28.206-4.994 41.588-2.12 6.545-4.805 12.891-7.093 19.383a223 223 0 0 0-6.132 20.387c-1.672 6.711-3.05 13.904-1.15 20.721ZM48.16 75.663c-.01-.084-.032-.168-.042-.24a3 3 0 0 1-.094.417c.041-.062.083-.125.136-.177Zm6.153-21.119c-.784.126-1.557.251-2.33.387-.188 1.652-.972 3.262-2.173 4.412 1.88.314 3.75 1.547 5.16 2.676a36.4 36.4 0 0 1 4.66 4.496c.177-.052.376-.021.575.115 9.443 6.576 21.603 4.736 32.206 2.457-4.47-5.155-9.245-10.319-15.523-13.225-4.012-1.861-8.285-2.436-12.599-2.363a58 58 0 0 1-9.976 1.045ZM65.71 188.635c-.752.836-1.64 2.279-1.191 3.45.533 1.411 3.03 1.62 4.304 1.829 5.453.899 11.314.22 16.777-.282 2.393-.219 4.785-.544 7.135-1.077.429-.094.846-.188 1.275-.303 2.016-.523 4.523-1.328 5.568-3.304 1.483-2.791-1.024-5.509-3.448-6.555-2.528-1.087-5.432-1.338-8.148-1.233-2.497.094-4.952.523-7.365 1.139-.083.638-.157 1.276-.23 1.924 5.14-1.108 10.927-2.028 16.057-.638 1.66.439 2.549 1.851 1.744 3.492-.773 1.6-2.402 2.561-4.032 3.084-1.995.648-4.147.753-6.205.993-2.664.314-5.328.669-8.002.931-2.623.272-5.297.502-7.95.439-1.766-.052-3.845-.533-4.492-2.436-1.348-3.962 5.599-5.144 8.608-5.405a34 34 0 0 0-.073-1.004q-.86.283-1.703.596a.8.8 0 0 1-.71.586c-.523.052-1.056.125-1.578.251-.209.073-.407.146-.616.219a.67.67 0 0 1-.397.032c-2.027.616-3.928 1.714-5.328 3.272Zm-13.56-101.2c1.15 4.286 2.445 8.53 3.824 12.744 8.42 25.697 20.297 50.746 23.609 77.782.47-3.618 1.003-7.224 1.577-10.821a375 375 0 0 1 21.353-77.834 43.2 43.2 0 0 1 1.484-11.615 64 64 0 0 1-13.027 6.67c-.178.073-.355.146-.533.209-.72.261-1.128-.596-.888-1.15 3.155-7.224 7.95-13.664 14.019-18.651-6.988.125-13.747-2.384-19.232-6.628a33.2 33.2 0 0 1-7.668-8.395 59 59 0 0 1-6.999 2.488c2.466.313 4.9.92 7.26 1.934 2.602 1.108 4.952 2.603 7.136 4.339 3.854 3.042 7.176 6.816 10.363 10.517.355.418.271 1.181-.345 1.317-.23.053-.46.105-.69.147-10.185 2.206-21.833 4.077-31.37-.93.03.051.072.093.104.145 3.625 5.155 5.965 11.197 6.8 17.45.408 3.083.47 6.23.073 9.325-.438 3.345-3.624 2.394-5.86 1.411-5.087-2.248-8.577-5.98-10.98-10.455zm.01-34.459h2.08c3.238-.533 6.529-.951 9.798-1.014a59.5 59.5 0 0 0 12.254-3.753.64.64 0 0 1 .429-.282c.094-.01.198-.032.292-.042a58.5 58.5 0 0 0 16.537-11.03 17 17 0 0 1-.376-1.422 56.8 56.8 0 0 0-26.994 1.663.7.7 0 0 1-.439.01c-3.719 5.541-8.712 10.047-15.304 12.41a7.8 7.8 0 0 1 1.515 3.481 1.3 1.3 0 0 1 .209-.02Zm-8.252-6.785c1.065-.042 2.152.23 3.113.648.846.377 1.63.879 2.319 1.495a.7.7 0 0 1 .292-.188c6.457-2.216 11.596-6.942 15.284-12.566a41 41 0 0 0 2.497-4.339c4.241-8.5 5.64-18.097 6.832-27.433a54.07 54.07 0 0 0-22.649 20.92c.01.543.01 1.087 0 1.641-.24 7.277-2.757 14.449-7.678 19.822zm6.111-21.777c-.167-7.736-2.779-15.2-5.975-22.184-2.163 2.55-4.106 5.29-5.474 8.342-1.578 3.503-2.288 7.34-2.34 11.166-.115 7.099 1.765 14.05 3.77 20.825.011.021.022.042.022.053.135.439.26.878.397 1.317.01.02 0 .031.01.052.292 1.067.543 2.133.7 3.23.063-.052.125-.114.198-.156a.71.71 0 0 1 .22-.69c5.547-5.311 8.315-12.797 8.483-20.407.01-.513.01-1.035 0-1.548zM33.754 74.67c-3.876 7.695-6.435 15.923-5.046 24.642C39.437 93.8 46.405 82.333 47.26 70.373c0-.063.01-.126.031-.178a135 135 0 0 1-.679-7.548.66.66 0 0 1 .23-.586c.418-.355 1.296-.157 1.337.586.157 2.467.335 4.966.617 7.464.031.084.042.167.031.262v.02c.543 4.81 1.504 9.577 3.531 13.968 2.225 4.82 5.746 9.22 10.52 11.678.93.47 3.896 2.174 4.513.606.428-1.077.271-2.781.292-3.941a36 36 0 0 0-.825-8.27 38.2 38.2 0 0 0-6.56-14.584 35.6 35.6 0 0 0-5.673-6.085c-1.922-1.63-5.108-4.15-7.605-2.248a.7.7 0 0 1-.418.157c-.324 0-.596-.282-.68-.617a6.43 6.43 0 0 1-4.314-1.285 9 9 0 0 1-.26 1.495.66.66 0 0 1-.084.627l-.157.25c-.877 2.792-2.622 5.385-4.158 7.81a103 103 0 0 1-3.196 4.715ZM13.989 24.937c.25 2.331 1.013 4.61 2.11 6.68 2.33 4.402 5.86 7.643 9.924 10.162 4.2 2.603 8.974 4.433 13.602 5.96a22 22 0 0 0-.617-3.168.7.7 0 0 1-.104-.22 84 84 0 0 1-.512-1.735 1 1 0 0 1-.031-.084c-1.066-2.823-2.664-5.436-4.764-7.632-3.583-3.753-8.368-6.23-13.017-8.405a74 74 0 0 0-4.304-1.872c-.898-.355-2.465-1.348-2.287.314Zm11.334 18.285c-7.48-2.028-15.356-.638-22.888.544 9.621 9.2 23.055 15.734 36.469 11.845a.7.7 0 0 1 .439 0c-.115-1.569.302-3.22.856-4.747a.25.25 0 0 1-.062-.115 2.7 2.7 0 0 1-.168-.857.73.73 0 0 1-.198-.491c-.084-.01-.188-.021-.293-.053-4.868-1.61-9.746-3.429-14.113-6.115h-.042zm9.84 14.93C21.794 62.72 12.652 76.06 11.629 89.932c6.78-1.056 12.306-5.823 16.673-10.873a75 75 0 0 0 4.22-5.352c2.131-4.234 4.66-8.312 7.166-12.243.293-1.003.46-2.038.429-3.094 0-.074 0-.136.02-.199a4.6 4.6 0 0 1-.532-1.192.7.7 0 0 1-.282.147c-1.296.376-2.58.658-3.876.846a.63.63 0 0 1-.282.178Zm-18.02-34.856a71 71 0 0 1 3.782 1.64c5.349 2.458 10.917 5.364 14.75 9.943.314.377.617.753.9 1.15-1.254-4.987-2.1-10.068-1.892-15.211.157-3.806.961-7.559 2.528-11.04C38.8 6.255 41.15 3.139 43.688.233c.314-.356 1.024-.283 1.223.167.114.24.23.48.334.732 3.04 6.576 5.61 13.58 6.226 20.825 5.704-8.75 13.821-15.796 23.327-20.156.47-.21 1.254.031 1.18.68l-.093.72c-.554 4.392-1.15 8.783-2.016 13.11-1.306 6.483-3.51 13.163-6.958 18.934a58.2 58.2 0 0 1 25.866-1.463 55 55 0 0 1-1.065-16.027c.041-.617.856-1.119 1.337-.554.125.146.24.282.376.428 5.64 6.566 13.037 13.32 17.78 21.077a101.6 101.6 0 0 1 16.119-24.558l.47-.533c.397-.45 1.16-.21 1.306.345 3.144 11.761 1.264 24.63-5.098 34.96 10.185-8.249 21.52-15.902 35.017-15.88.188 0 .366.01.554.01.7.02.992.836.553 1.338-2.883 3.303-5.515 6.806-8.263 10.214-4.273 5.29-8.963 10.455-15.012 13.696a80.7 80.7 0 0 1 21.917 14.02c.136.125.282.25.418.376.523.48.084 1.306-.553 1.338-7.731.386-15.691.418-23.349-.743a35 35 0 0 1-2.966-.585 92.5 92.5 0 0 1 10.739 23.22q.091.266.167.533c.073.24.021.47-.115.648-.031.052-.084.105-.125.146-.241.21-.606.283-.909.094-6.916-4.338-14.124-9.126-19.055-15.734a43.2 43.2 0 0 1-.063 18.724c-.041.22-.094.45-.146.67a.68.68 0 0 1-.251.397c6.227.052 14.093 1.892 16.893 7.443a49.5 49.5 0 0 1 5.118-10.548c.251-.387.502-.774.763-1.16 3.897-5.74 8.974-10.675 14.907-14.376.293-.177.721-.125.951.126 1.045 1.087.961 2.457.731 3.858a99 99 0 0 1-1.034 5.258c-.742 3.241-1.713 6.472-3.28 9.42-1.588 2.979-3.834 5.499-6.655 7.36-.355.24-.721.46-1.097.679 10.123-.376 19.264 6.137 26.796 12.608.178.157.355.304.533.46.459.398.198 1.161-.345 1.307-6.759 1.934-14.019 1.537-20.559-.847a58.7 58.7 0 0 1 12.703 18.704c.251.585-.167 1.359-.888 1.15l-.533-.157c-6.508-1.882-13.215-3.921-18.584-8.228-4.68-3.753-8.159-9.357-8.034-15.483-.041.021-.094.031-.135.042-2.612 2.394-4.378 5.499-6.728 8.133-1.901 2.123-4.398 3.931-7.25 4.433-1.765.314-6.477.094-5.955-2.739.23-1.296 1.181-2.666 1.87-3.774a26.7 26.7 0 0 1 2.643-3.565 26.2 26.2 0 0 1 5.433-4.705c-5.161.722-10.04 3.001-14.25 6.116-4.962 3.68-9.005 8.479-12.63 13.434-3.583 4.914-6.894 10.037-9.955 15.285a183 183 0 0 0-12.923 27.077 61 61 0 0 0-.25 1.935c4.387-1.077 8.88-1.527 13.34-.513 2.79.638 5.63 1.997 6.874 4.726 1.065 2.373.428 4.945-1.546 6.586-1.63 1.359-3.72 2.049-5.798 2.52-.052 3.387-.115 6.774-.136 10.162-.073 14.322.857 28.53 5.046 42.299 3.97 13.058 10.029 25.321 15.816 37.636 5.819 12.358 11.408 24.934 14.479 38.295 1.515 6.555 2.413 13.278 2.361 20.021-.052 6.189-.627 13.037-3.197 18.755-2.507 5.573-7.594 8.155-13.288 9.504-6.633 1.578-13.528 2.707-20.34 3-11.773.512-24.298-2.415-32.342-11.625-3.771-4.329-5.903-9.619-6.237-15.348-.407-6.952 1.463-13.883 3.28-20.532a236 236 0 0 1 6.718-20.701c2.507-6.638 5.202-13.235 6.947-20.125 1.796-7.098 2.475-14.417 2.862-21.714.397-7.381.522-14.772.366-22.164-.293-14.72-1.672-31.071-4.095-45.582 0-.031.01-.041 0-.073-.46-.021-.93-.031-1.4-.073-2.288-.219-6.31-.408-7.396-2.896-1.056-2.404.898-4.945 2.653-6.377a14.1 14.1 0 0 1 5.683-2.781c.01-.01.02-.01.042-.01a112 112 0 0 1 4.366-1.537c-.658-5.154-2.287-10.141-4.648-14.794-3.542-6.962-8.452-13.13-14.03-18.609-3.573 1.589-7.49 1.882-11.366 1.328-7.208-1.025-14.364-4.422-20.225-8.698-5.39-3.921-9.861-8.97-12.494-15.117a16 16 0 0 1-.324-.764c-.198-.47.282-.993.752-.982 7.313.156 14.375 2.279 20.883 5.541 5.756 2.875 11.053 6.586 16.036 10.621a109 109 0 0 1 5.275 4.559 150 150 0 0 1-6.508-17.627c-1.546-5.164-3.771-11.782-.522-16.675.177-.261.365-.523.574-.774.24-.303.857-.313 1.108 0 9.214 11.626 13.716 26.649 12.42 41.442a.82.82 0 0 1-.26.534c.47.533.94 1.076 1.4 1.62 6.748 8.019 12.013 17.501 13.434 27.903.334-.104.668-.209 1.003-.303-.68-7.099-1.985-14.114-3.72-21.034-7.145-28.521-20.976-54.96-26.711-83.888-.01-.042-.01-.084-.01-.126-2.477 10.622-9.445 20.22-19.432 24.903-.418.199-1.055.074-1.149-.47a21 21 0 0 1-.136-.805c-1.18-7.078.115-13.832 2.623-20.24-.147.177-.293.355-.44.522-4.857 5.615-11.01 10.633-18.625 11.448-.408.053-.805-.386-.784-.784.658-13.476 8.619-26.523 20.726-32.503C19.244 58.287 8.284 51.93.22 43.787c-.376-.387-.261-1.224.345-1.307.24-.032.47-.073.71-.115 6.832-1.056 13.936-2.352 20.82-1.39-.083-.063-.177-.126-.261-.2-4.064-3.22-7.427-7.61-8.817-12.66-.407-1.463-1.609-5.143.575-5.718 1.17-.314 2.517.47 3.551.899Z"/></svg>