<svg xmlns="http://www.w3.org/2000/svg" width="118" height="141" fill="none"><path fill="#fff8e0" stroke="#cb2821" d="M32.48 33.46a581 581 0 0 0 22.732 26.65c-.282 3.617-4.335 6.157-5.36 9.576a5.45 5.45 0 0 0 0 3.115c-1.012.24-2.036.46-3.08.565-2.821.282-5.297-.816-7.355-2.698-1.87-1.725-3.343-3.826-4.774-5.906a259 259 0 0 0-5.401-7.653 284 284 0 0 0-11.512-14.72C13.937 37.862 9.916 33.47 6.802 28.41c-2.841-4.62-4.795-9.796-4.742-15.285.031-2.655.532-5.352 1.692-7.746.48-1.014 1.556-3.534 2.967-3.22.47.104.992.616 1.39.899.741.543 1.44 1.15 2.099 1.787 2.006 1.945 3.667 4.203 5.307 6.451a654 654 0 0 0 5.516 7.454A575 575 0 0 0 32.47 33.46z"/><path fill="#cb2821" stroke="#cb2821" d="M1.098 8.246c.585-2.435 1.682-5.112 3.427-6.952 1.89-1.997 4.314.24 5.871 1.59 2.204 1.912 4.001 4.244 5.725 6.586 1.995 2.697 3.97 5.415 5.986 8.102a565 565 0 0 0 12.557 16.12 595 595 0 0 0 21.123 24.726c.26-.052.564-.01.762.178a828 828 0 0 1 32.468 32.503 779 779 0 0 1 13.8 14.981 768 768 0 0 1 6.728 7.57c1.912 2.195 3.823 4.432 5.296 6.962 2.507 4.266 3.542 9.535 1.191 14.114-2.371 4.61-7.668 5.917-12.327 4.161-5.4-2.039-8.503-7.088-11.334-11.803a236 236 0 0 0-10.593-16.142c-6.979-9.723-14.73-18.881-23.119-27.402-.209.032-.417-.031-.605-.24-2.205-2.551-4.503-5.04-6.613-7.674a9.3 9.3 0 0 1-.95-1.39c-1.881.46-3.762.899-5.715.71-2.737-.282-5.098-1.787-7.01-3.7-2.173-2.175-3.834-4.799-5.578-7.318a289 289 0 0 0-6.634-9.19c-4.032-5.363-8.315-10.507-12.64-15.63-3.95-4.683-7.846-9.566-10.228-15.263C.65 18.983-.155 13.41 1.098 8.246ZM6.73 2.162c-1.41-.314-2.486 2.206-2.967 3.22-1.16 2.394-1.66 5.091-1.692 7.747-.052 5.488 1.901 10.663 4.743 15.284 3.113 5.06 7.135 9.451 10.927 13.978a284 284 0 0 1 11.512 14.72c1.85 2.52 3.646 5.07 5.401 7.653 1.431 2.08 2.904 4.182 4.774 5.907 2.058 1.882 4.534 2.98 7.355 2.697 1.044-.105 2.068-.324 3.081-.564a5.3 5.3 0 0 1 0-3.116c1.024-3.419 5.077-5.96 5.36-9.576a581 581 0 0 1-22.732-26.65c-3.897-4.84-7.7-9.743-11.44-14.709a654 654 0 0 1-5.515-7.454c-1.64-2.248-3.301-4.506-5.307-6.45a20 20 0 0 0-2.1-1.788c-.397-.282-.92-.795-1.39-.9z"/><path fill="#fff8e0" stroke="#cb2821" d="M64.374 79.64c1.5 0 2.716-1.218 2.716-2.719a2.717 2.717 0 1 0-2.716 2.718Zm16.391 17.992c1.5 0 2.716-1.217 2.716-2.719a2.717 2.717 0 1 0-2.716 2.719Zm17.717 19.929a2.717 2.717 0 1 0-.002-5.434 2.717 2.717 0 0 0 .002 5.434Z"/></svg>