<svg xmlns="http://www.w3.org/2000/svg" width="94" height="186" fill="none"><path fill="#cb2821" stroke="#cb2821" d="M1.223 21.194C.858 34.231 3.47 47.257 8.672 59.207a88.3 88.3 0 0 0 9.82 17.083c3.896 5.3 8.106 10.13 13.225 13.988 5.066 3.826 11.052 6.043 17.456 5.666s12.17-2.802 17.112-6.482c10.645-7.924 16.234-20.888 20.12-33.183 5.056-16.026 7.01-32.994 5.766-49.753-.073-1.003-1.64-1.003-1.567 0 1.056 14.354-.219 28.844-3.833 42.78-3.218 12.41-7.919 25.677-17.039 35.034-8.66 8.897-22.282 13.413-33.67 6.931-5.525-3.147-10.028-7.987-13.998-12.89-4-4.956-7.427-10.371-10.248-16.09C5.538 49.568 2.383 35.37 2.77 21.173c.032-1.014-1.535-1.004-1.567 0z"/><path fill="#cb2821" stroke="#cb2821" d="M3.867 22.107c26.148.01 52.839-1.191 77.837-9.545 2.936-.982 12.63-3.23 9.35-8.3-1.118-1.736-3.458-2.552-5.4-2.865-3.229-.523-6.55-.711-9.82-.826C62.096.08 48.4 2.2 35.008 5.056 28.092 6.53 21.02 7.921 14.271 10.064 8.903 11.778 3.647 14.424.607 19.368c-.198.324-.094.68.126.952 1.097 1.4 2.914 1.913 4.596 1.348.95-.313.543-1.83-.418-1.516-1.201.408-2.287.042-3.07-.94l.124.95c2.643-4.296 7.167-6.7 11.805-8.28 5.338-1.818 10.948-2.926 16.443-4.17 12.599-2.855 25.385-5.238 38.34-5.604 3.185-.084 6.372-.053 9.558.125 2.862.167 6.028.178 8.775 1.056.961.303 2.037.774 2.695 1.579.993 1.192.303 2.52-.846 3.282-1.076.722-2.382 1.109-3.594 1.548a145 145 0 0 1-4.523 1.578c-11.543 3.795-23.536 6.085-35.602 7.423-13.654 1.516-27.412 1.85-41.15 1.84-1.013 0-1.013 1.568 0 1.568Zm45.734 74.376a2691 2691 0 0 0 3.061 61.588c.355 5.802.731 11.594 1.118 17.397.063 1.003 1.64 1.014 1.567 0a2694 2694 0 0 1-3.468-61.567 2420 2420 0 0 1-.721-17.418c-.042-1.003-1.61-1.014-1.567 0z"/><path fill="#cb2821" stroke="#cb2821" d="M52.476 160.4c-10.29-.345-22.22-.418-29.846 7.736-1.494 1.6-2.852 3.534-3.542 5.635-.804 2.457.502 4.454 2.288 6.054 3.594 3.241 8.514 4.338 13.194 4.84 6.195.669 12.442.356 18.637-.167a326 326 0 0 0 18.135-2.06c5.015-.711 11.272-.951 14.96-4.934 3.312-3.576 2.518-8.322-.773-11.605-3.97-3.952-9.903-5.238-15.304-5.603-6.435-.429-12.965.031-19.41.177-1.003.021-1.014 1.589 0 1.568 5.16-.115 10.342-.345 15.503-.313 4.659.031 9.517.376 13.8 2.383 3.802 1.778 8.555 5.928 6.236 10.601-2.235 4.517-8.012 5.102-12.42 5.761-10.771 1.62-21.824 3.115-32.74 2.99-4.764-.052-9.8-.335-14.281-2.102-2.12-.836-4.19-2.101-5.63-3.91-.983-1.244-1.077-2.467-.44-3.92a14.8 14.8 0 0 1 1.662-2.833c6.821-9.284 19.66-9.096 29.96-8.751 1.014.032 1.003-1.536 0-1.568z"/><path fill="#cb2821" d="M8.703 58.808a99.5 99.5 0 0 0 12.505 19.194c5.683 6.838 12.526 13.048 20.883 15.996 2.173.774 4.46 1.317 6.77 1.202 1.713-.083 3.384-.533 5.003-1.076 7.992-2.677 15.127-7.894 20.13-14.72.816-1.109 1.568-2.259 2.33-3.409.91-1.38 1.829-2.77 2.737-4.15 1.494-2.258 2.988-4.537 4.116-7.005 1.452-3.178 2.246-6.618 3.03-10.026.094-.407.188-.836.104-1.244-.094-.428-.365-.784-.679-1.087-1.995-1.945-5.16-1.736-7.918-1.36-7.344 1.004-14.667 2.259-22.074 2.489-10.133.324-20.413-1.265-30.358.753-4.586.93-9.078 2.624-13.758 2.561-1.107-.01-2.371-.073-3.155.711.742.92 1.473 1.85 2.215 2.77"/><path stroke="#cb2821" d="M8.703 58.808a99.5 99.5 0 0 0 12.505 19.194c5.683 6.838 12.526 13.048 20.883 15.996 2.173.774 4.46 1.317 6.77 1.202 1.713-.083 3.384-.533 5.003-1.076 7.992-2.677 15.127-7.894 20.13-14.72.816-1.109 1.568-2.259 2.33-3.409.91-1.38 1.829-2.77 2.737-4.15 1.494-2.258 2.988-4.537 4.116-7.005 1.452-3.178 2.246-6.618 3.03-10.026.094-.407.188-.836.104-1.244-.094-.428-.365-.784-.679-1.087-1.995-1.945-5.16-1.736-7.918-1.36-7.344 1.004-14.667 2.259-22.074 2.489-10.133.324-20.413-1.265-30.358.753-4.586.93-9.078 2.624-13.758 2.561-1.107-.01-2.371-.073-3.155.711.742.92 1.473 1.85 2.215 2.77"/><path fill="#cb2821" stroke="#cb2821" d="M8.024 59.197A101.2 101.2 0 0 0 18.89 76.363c3.813 4.861 8.064 9.42 13.068 13.068 5.004 3.649 11.533 7.193 17.822 6.461 5.767-.669 11.596-3.826 16.161-7.276 5.077-3.827 8.681-8.636 12.15-13.894 1.9-2.886 3.927-5.74 5.453-8.855 1.525-3.116 2.33-6.22 3.092-9.462.292-1.244.836-2.645.094-3.837-.606-.972-1.703-1.63-2.748-2.007-2.695-.972-5.735-.314-8.472.073-7.26 1.025-14.51 2.154-21.854 2.227-8.138.073-16.318-.857-24.435.094-3.823.45-7.48 1.495-11.22 2.352-1.963.45-3.959.805-5.985.837-1.546.02-2.946-.094-4.2.94-.355.293-.24.806 0 1.109.742.92 1.473 1.85 2.215 2.77.627.784 1.734-.324 1.107-1.108-.742-.92-1.473-1.85-2.214-2.77v1.108c1.086-.9 3.207-.44 4.533-.554 1.515-.126 3.009-.387 4.492-.711 3.176-.7 6.29-1.662 9.517-2.164 6.676-1.046 13.476-.607 20.194-.408a123 123 0 0 0 19.806-1.014c3.25-.429 6.477-.91 9.716-1.36 2.392-.334 6.028-.982 7.908 1.046 1.003 1.088-.073 3.523-.407 4.83a50 50 0 0 1-1.359 4.569c-1.117 3.105-2.862 5.875-4.659 8.625-3.332 5.07-6.498 10.183-11.073 14.24-4.262 3.773-9.35 6.721-14.803 8.363-3.333 1.004-6.456.899-9.768-.178-2.81-.91-5.474-2.248-7.96-3.826-5.495-3.503-10.092-8.249-14.166-13.288-4.47-5.541-8.305-11.584-11.49-17.94-.45-.9-1.808-.105-1.359.794z"/></svg>