<svg xmlns="http://www.w3.org/2000/svg" width="93" height="112" fill="none"><path fill="#fff8e0" stroke="#cb2821" d="M46.371 59.378c.616.648.94 1.609 1.118 2.518a.73.73 0 0 0-.7.365c-.46.742-1.337.982-1.818.147-.428-.763-.313-1.88.042-2.654.146-.313.366-.627.606-.71a.46.46 0 0 1 .386.031c.094.042.261.188.366.303Zm-2.205 20.676c-.177-.847.303-1.829.857-2.445.157-.178.45-.522.72-.48.283.041.502.5.607.73.365.795.407 1.735.438 2.612q.015.015 0 .032a.79.79 0 0 0-.793-.052c-.69.323-1.61.616-1.829-.397Z"/><path fill="#fff8e0" stroke="#cb2821" stroke-width=".5" d="m88.93 49.019-18.27-.846c-9.664-.45-19.285-1.024-28.896-2.1-1.295-.147-2.58-.303-3.875-.47-10.99-1.41-21.98-3.04-33.084-2.925h-.01c-2.56 9.715-3.01 20.067-2.592 29.97.188 4.315.533 8.619.951 12.912.125 1.275.24 2.56.355 3.845 6.279.762 12.536 1.514 18.814 2.141 9.642.961 19.285 1.306 28.958 1.62 1.713.062 3.437.114 5.15.177 11.084.366 22.126 1.567 33.22 1.786.522-7.27.95-14.552 1.003-21.843.052-8.055-.366-16.255-1.724-24.267Zm-37.001 6.727c.041-.418.323-.783.783-.783.397 0 .825.365.784.783a59 59 0 0 0-.24 8.692c.041 1.013-1.526 1.002-1.568 0a59 59 0 0 1 .24-8.692Zm-8.765 5.035c.105-1.128.533-2.434 1.567-3.04 1.066-.626 2.173-.125 2.904.721-.01-.668-.042-1.327-.073-1.985-.031-.48-.052-.971-.104-1.452-.032-.271-.063-.73-.262-.95-.323-.356-1.138.501-1.358.72-.72.7-1.828-.407-1.107-1.107.7-.69 1.682-1.473 2.747-1.222 1.118.261 1.421 1.504 1.536 2.486.272 2.528.261 5.108.157 7.647-.032.71-.7.909-1.16.637-.773 1.108-2.246 1.724-3.5.91-1.096-.722-1.462-2.121-1.347-3.365ZM33.135 49.186c.157-.836 1.275-.638 1.515 0a43 43 0 0 0 2.173 4.91c.146.292.303.574.46.867.062.115.188.26.271.407l.387-.762c.292-.565.585-1.129.877-1.703.575-1.129 1.16-2.267 1.745-3.395.136-.261.418-.387.7-.387a.72.72 0 0 1 .533.23c1.358 1.494.93 4.137.919 5.975 0 2.591-.01 5.182-.01 7.772 0 1.003-1.568 1.003-1.568 0 0-2.319.01-4.638.01-6.957 0-1.107.011-2.225.011-3.332 0-.303 0-.648-.02-.993l-1.536 2.977c-.45.878-1.128 3.072-2.528 2.424-.564-.261-.857-.95-1.139-1.462-.366-.658-.7-1.317-1.024-1.985q-.36-.752-.69-1.505a72 72 0 0 0-.208 1.578.63.63 0 0 1 .146.501c-.23 2.539-.46 5.088-.679 7.626-.052.502-.449.752-.836.752s-.73-.24-.73-.752a77 77 0 0 1 1.221-12.786Zm1.463 19.921c-.418-.668-1.15-2.13-2.131-2.016-.95.115-1.014 1.536-.961 2.257.167 2.214 1.953 3.781 2.643 5.818.365 1.066.512 2.257.46 3.385-.042.94-.178 2.079-1.077 2.611-.773.46-1.723.188-2.36-.365-.732-.637-1.045-1.713-1.87-2.236-.847-.543-.063-1.901.794-1.347.94.595 1.253 1.65 2.058 2.36.94.847.898-.94.898-1.493-.01-1.254-.293-2.466-.888-3.562-.543-.983-1.233-1.87-1.682-2.905-.72-1.671-.982-4.283.606-5.568a2.34 2.34 0 0 1 1.473-.512c.397 0 .783.094 1.149.272 1.013.522 1.661 1.578 2.236 2.518a.77.77 0 0 1 .125.397c0 .668-1.034 1.107-1.473.386Zm7.47 12.494c-.993.752-2.33 1.327-3.375.335-.961-.91-.836-2.456-.794-3.646.052-1.515.115-3.03.167-4.545-.334-.02-.658-.03-.992-.052-.439-.02-.773-.344-.784-.783-.02-.408.366-.805.784-.784.355.021.7.032 1.055.052.042-1.128.083-2.256.115-3.374.01-.052.01-.104.01-.157.032-1.013 1.599-1.013 1.567 0-.042 1.202-.094 2.414-.136 3.615l1.839.094c.439.02.773.345.783.784.021.407-.365.804-.783.783l-1.89-.094-.095 2.403c-.042 1.16-.167 2.36-.084 3.52.021.355.053.95.429 1.128.439.21 1.076-.386 1.39-.626.459-.345.919-.053 1.075.376a.6.6 0 0 1 .042.146c.042.292-.042.616-.324.825Zm5.055-.136a.6.6 0 0 1-.334.335c-.752.365-1.567.7-2.413.49-.658-.156-1.233-.658-1.515-1.263a5 5 0 0 1-.136-.345c-.01-.052-.031-.094-.041-.146-.366-1.306.208-2.748 1.023-3.782.46-.585 1.076-1.118 1.85-1.18a1.8 1.8 0 0 1 1.086.271c-.01-.282-.021-.574-.042-.856-.021-.45-.052-.91-.084-1.359-.031-.438 0-.96-.156-1.378-.188-.512-.721-.178-1.076.01-.899.47-1.682-.877-.794-1.348.762-.407 1.723-.741 2.538-.26.95.574.982 1.796 1.045 2.778a140 140 0 0 1 .293 7.417c.01.72-.784.93-1.244.616Zm8.64-1.285c-.147 2.591-.303 5.286-.847 7.835-.365 1.734-1.577 3.657-3.583 3.542-1.953-.105-3.019-2.225-3.322-3.918-.188-.982 1.327-1.4 1.505-.407.219 1.19 1.159 3.562 2.757 2.486 1.505-1.024 1.41-3.813 1.588-5.411q.33-3.103.408-6.237c-.303.71-.752 1.38-1.515 1.39-1.212.01-1.682-1.693-1.954-2.601a10.7 10.7 0 0 1-.417-2.382 12 12 0 0 1 .052-2.215c.115-.992 1.682-1.003 1.567 0-.115 1.097-.115 2.204.094 3.28q.141.753.407 1.473c.042.136.146.303.199.45.146-.377.418-.826.512-1.118.156-.46.282-.93.397-1.4a44 44 0 0 0 .595-3.05l.031-.21c.157-.919 1.505-.626 1.546.21a84 84 0 0 1-.02 8.283Zm5.62-7.845c-.564-.553-1.212-.062-1.494.533-.324.7-.355 1.567-.136 2.288.261.856 1.097 1.264 1.62 1.943.584.741.866 1.66.97 2.58.189 1.473-.104 3.928-1.744 4.544-1.817.69-2.768-1.577-3.249-2.893-.355-.94 1.16-1.348 1.515-.408.157.418.543 1.776 1.118 1.86 0-.01.125-.042.157-.084.094-.083.156-.167.219-.272.22-.334.324-.73.407-1.107a4.7 4.7 0 0 0-.26-2.632c-.346-.836-1.129-1.243-1.662-1.943-1.003-1.285-1.024-3.322-.271-4.733.783-1.493 2.653-2.016 3.917-.783.731.7-.387 1.807-1.107 1.107Zm.23-6.592a45 45 0 0 0-.324-6.173 37 37 0 0 0-.48-2.999c-.084-.396-.147-.835-.314-1.211-.178-.397-.21-.293-.564-.042-1.139.804-1.88 2.152-2.33 3.437-.115.334-.22.679-.292 1.023-.094 1.275-.178 2.55-.262 3.824-.073 1.024-1.462.992-1.567 0a11.8 11.8 0 0 1 .272-4.053c.042-.669.094-1.348.136-2.017.042-.522.48-.772.877-.752a8.4 8.4 0 0 1 1.515-2.11c.502-.501 1.18-1.076 1.912-1.149.762-.084 1.347.418 1.671 1.087.366.773.491 1.66.637 2.496.157.93.293 1.86.397 2.8.22 1.932.314 3.886.282 5.84-.01 1.013-1.577 1.013-1.567 0Z"/><path fill="#fff8e0" stroke="#cb2821" d="M83.204 17.657c.303 1.567.365 3.166-.157 4.701-1.066 3.134-4.095 3.05-6.905 3.364-6.049.669-12.14 1.233-18.23.846-6.027-.376-11.95-1.65-17.894-2.674-5.882-1.013-11.7-1.4-17.665-1.63a62 62 0 0 1-4.994-.365c-.919-.105-2.162-.168-3.196-.512-.084-.021-.157-.053-.24-.084-.68-.261-1.254-.668-1.536-1.327-.596-1.358-.815-3.029-.992-4.523.511.543 1.117.961 1.796 1.191.021.376.272.752.763.763 12.431.397 24.59 3.228 36.907 4.69 6.007.71 12.076 1.086 18.115.627 2.893-.21 5.808-.585 8.639-1.233 1.86-.439 3.792-1.253 4.983-2.81.26-.334.46-.679.606-1.024Z"/><path fill="#fff8e0" stroke="#cb2821" d="M81.783 14.347c.522 1.504.313 3.009-1.275 4.21-1.744 1.327-4.105 1.63-6.194 1.974-2.727.45-5.474.7-8.222.784-5.338.177-10.666-.22-15.952-.878-11.501-1.4-22.856-3.948-34.452-4.523-.01-.376-.261-.71-.742-.648-2.455.324-3.792-2.381-3.813-4.533-.01-.157 0-.303.01-.45.178-2.246 1.568-4.377 3.406-5.63 2.236-1.536 4.983-1.88 7.616-2.131 2.726-.261 5.474-.397 8.21-.439 11.43-.167 22.805 1.348 34.098 2.883 3.96.543 8.075 1.222 11.606 3.207 1.901 1.076 4.837 3.625 5.704 6.174Z"/><path fill="#cb2821" d="M62.344 79.678c.188 1.473-.105 3.928-1.745 4.544-1.817.69-2.768-1.577-3.249-2.893-.355-.94 1.16-1.348 1.515-.408.157.418.543 1.776 1.118 1.86 0 0 .125-.042.157-.084.094-.083.156-.167.219-.271.22-.335.324-.731.407-1.108a4.7 4.7 0 0 0-.26-2.632c-.346-.836-1.129-1.243-1.662-1.943-1.003-1.285-1.023-3.322-.271-4.732.783-1.494 2.653-2.017 3.917-.784.731.7-.386 1.807-1.107 1.107-.564-.553-1.212-.062-1.494.533-.324.7-.355 1.567-.136 2.288.261.857 1.097 1.264 1.62 1.943.584.742.866 1.661.97 2.58m.553-19.778c.22 1.932.314 3.886.282 5.84 0 1.013-1.577 1.013-1.567 0a45 45 0 0 0-.324-6.175 37 37 0 0 0-.48-2.998c-.084-.397-.146-.835-.314-1.212-.177-.396-.209-.292-.564-.041-1.138.804-1.88 2.152-2.33 3.437a9 9 0 0 0-.292 1.023c-.094 1.275-.177 2.55-.26 3.824-.074 1.023-1.463.992-1.568 0a11.8 11.8 0 0 1 .272-4.053c.042-.669.094-1.348.136-2.017.041-.522.48-.773.877-.752a8.4 8.4 0 0 1 1.515-2.11c.501-.501 1.18-1.076 1.911-1.15.763-.083 1.348.419 1.672 1.087.366.773.49 1.661.637 2.497.157.93.293 1.86.397 2.8m-11.208 4.536a59 59 0 0 1 .24-8.692c.042-.417.325-.783.784-.783.397 0 .825.366.784.783a59 59 0 0 0-.24 8.692c.041 1.013-1.526 1.003-1.568 0m4.076 15.741c-.147 2.59-.303 5.286-.847 7.835-.365 1.734-1.577 3.656-3.583 3.541-1.953-.104-3.019-2.225-3.322-3.917-.188-.982 1.327-1.4 1.505-.408.219 1.191 1.16 3.563 2.757 2.487 1.505-1.024 1.41-3.813 1.588-5.412q.33-3.102.408-6.236c-.303.71-.753 1.379-1.515 1.39-1.212 0-1.682-1.693-1.954-2.602a10.7 10.7 0 0 1-.417-2.382 12 12 0 0 1 .052-2.214c.115-.993 1.682-1.003 1.567 0-.115 1.097-.115 2.204.094 3.28q.141.752.407 1.473c.042.135.147.303.199.449.146-.376.417-.825.512-1.118.156-.46.282-.93.396-1.4.24-1.002.429-2.037.596-3.05 0-.073.02-.136.031-.209.157-.92 1.505-.627 1.546.209a84 84 0 0 1-.02 8.284m-8.276-18.282c-.178-.909-.502-1.87-1.118-2.518-.105-.114-.272-.26-.366-.303a.46.46 0 0 0-.386-.03c-.24.083-.46.396-.606.71-.355.773-.47 1.89-.042 2.653.48.836 1.358.595 1.818-.146a.73.73 0 0 1 .7-.366m-4.325-1.118c.104-1.128.533-2.434 1.567-3.04 1.065-.626 2.173-.125 2.904.721a62 62 0 0 0-.073-1.985c-.032-.48-.053-.971-.105-1.452-.031-.271-.062-.731-.26-.95-.325-.355-1.14.501-1.359.72-.72.7-1.828-.407-1.107-1.107.7-.69 1.682-1.473 2.747-1.222 1.118.261 1.42 1.504 1.536 2.486.271 2.528.261 5.108.157 7.647-.032.71-.7.909-1.16.637-.773 1.108-2.246 1.724-3.5.909-1.096-.72-1.462-2.12-1.347-3.364m-.438 19.903c0-.053-.032-.094-.042-.147-.366-1.305.209-2.747 1.023-3.781.46-.585 1.076-1.118 1.85-1.18a1.8 1.8 0 0 1 1.086.27c0-.281-.02-.574-.042-.856-.02-.449-.052-.909-.083-1.358-.032-.439 0-.96-.157-1.379-.188-.512-.72-.177-1.076.01-.898.47-1.682-.877-.794-1.347.763-.407 1.724-.742 2.538-.261.951.575.983 1.797 1.045 2.779.032.397.052.783.073 1.18.126 2.079.188 4.158.22 6.237 0 .72-.784.93-1.243.616a.6.6 0 0 1-.335.334c-.752.366-1.567.7-2.413.491-.658-.156-1.233-.658-1.515-1.264a5 5 0 0 1-.136-.344m2.298-3.072c-.554.617-1.034 1.599-.857 2.445.22 1.013 1.139.72 1.828.397a.79.79 0 0 1 .794.052q.015-.015 0-.031c-.031-.878-.073-1.818-.438-2.612-.105-.23-.324-.69-.606-.731-.272-.042-.565.303-.721.48m-3.749 2.641c.46-.345.92-.052 1.076.376.02.042.031.094.042.146.041.293-.042.617-.324.825-.993.753-2.33 1.327-3.374.335-.962-.91-.836-2.455-.794-3.646.052-1.515.114-3.03.167-4.544-.335-.021-.658-.032-.993-.053-.438-.02-.773-.344-.783-.783-.021-.407.366-.804.783-.784.355.021.7.032 1.056.053.041-1.129.083-2.257.114-3.375.01-.052.01-.104.01-.156.032-1.014 1.6-1.014 1.568 0-.042 1.201-.094 2.413-.136 3.614l1.839.094c.438.021.773.345.783.784.02.407-.366.804-.783.783l-1.891-.094-.094 2.403c-.042 1.16-.167 2.36-.084 3.52.021.356.052.951.428 1.129.44.209 1.076-.387 1.39-.627m1.441-24.919c0 2.59-.01 5.182-.01 7.772 0 1.003-1.567 1.003-1.567 0 0-2.319.01-4.638.01-6.957v-3.332c0-.303 0-.648-.02-.993l-1.536 2.977c-.45.878-1.128 3.072-2.528 2.424-.564-.261-.857-.95-1.139-1.462-.365-.659-.7-1.317-1.023-1.985q-.36-.753-.69-1.505c-.073.523-.146 1.045-.209 1.578a.63.63 0 0 1 .146.501c-.23 2.539-.46 5.088-.679 7.626-.052.502-.449.752-.835.752-.387 0-.732-.24-.732-.752.053-4.283.46-8.566 1.223-12.786.156-.836 1.274-.638 1.514 0a43 43 0 0 0 2.173 4.91c.146.292.303.574.46.867.063.114.188.26.271.407.126-.25.262-.512.387-.763.292-.564.585-1.128.877-1.702.575-1.129 1.16-2.267 1.745-3.395.136-.262.418-.387.7-.387h.136a.7.7 0 0 1 .397.22c1.358 1.493.93 4.136.919 5.975zM32.153 79.571c.94.847.898-.94.898-1.493-.01-1.254-.292-2.466-.888-3.563-.543-.982-1.232-1.87-1.681-2.904-.721-1.671-.982-4.283.605-5.568a2.34 2.34 0 0 1 1.473-.512c.397 0 .784.094 1.15.272 1.013.522 1.66 1.577 2.235 2.517a.77.77 0 0 1 .125.397c0 .669-1.034 1.108-1.473.387-.417-.669-1.149-2.131-2.13-2.016-.951.115-1.014 1.535-.962 2.256.168 2.215 1.954 3.782 2.643 5.819.366 1.065.512 2.256.46 3.385-.042.94-.178 2.078-1.076 2.611-.773.46-1.724.188-2.361-.366-.731-.637-1.045-1.713-1.87-2.235-.846-.543-.063-1.901.794-1.348.94.596 1.254 1.65 2.058 2.361"/><path fill="#cb2821" stroke="#cb2821" d="M2.056 90.11c-.02-.187-.042-.365-.052-.553l1.504-.157c6.279.763 12.536 1.515 18.814 2.142 9.642.96 19.284 1.305 28.958 1.619 1.713.063 3.437.115 5.15.177 11.084.366 22.126 1.567 33.22 1.787.522-7.27.95-14.552 1.003-21.844h1.556c-.01 2.664-.083 5.317-.188 7.95-.177 4.628-.47 9.235-.794 13.852l-.062.846a224 224 0 0 1-.44 5.902c-.156 1.724-.407 3.469-1.232 5.025-1.431 2.674-4.241 3.907-7.124 4.315-3.866.553-7.908.25-11.794.229a726 726 0 0 1-27.799-.689c-4.67-.199-9.35-.449-14.008-.742-4.283-.271-8.619-.428-12.85-1.138-3.551-.606-7.646-1.641-10.206-4.367-2.611-2.8-2.83-6.811-3.228-10.415-.146-1.316-.292-2.622-.428-3.939Z"/><path fill="#cb2821" stroke="#cb2821" d="M50.862 22.096c-12.316-1.463-24.476-4.294-36.907-4.69-.49 0-.742-.387-.762-.763-.68-.23-1.285-.648-1.797-1.191.177 1.494.397 3.165.992 4.523.282.658.857 1.066 1.536 1.327.083.031.156.063.24.083 1.034.345 2.277.408 3.197.512 1.66.199 3.332.303 4.993.366 5.965.23 11.784.616 17.665 1.63 5.944 1.023 11.867 2.298 17.895 2.674 6.09.386 12.18-.178 18.229-.846 2.81-.314 5.84-.23 6.905-3.364.522-1.536.46-3.134.157-4.701-.147.345-.345.69-.606 1.024-1.191 1.556-3.124 2.371-4.983 2.81-2.831.648-5.746 1.024-8.64 1.233-6.038.46-12.107.083-18.114-.627ZM27.807.586C40.51.096 53.223 1.777 65.76 3.574c4.314.616 8.827 1.536 12.452 4.095 1.755 1.233 3.845 3.333 4.816 5.61.334-.021.669.136.794.543.888 2.998 1.766 6.258.606 9.308-.345.92-.815 1.62-1.39 2.162a.2.2 0 0 1 .053.084 71 71 0 0 1 2.423 5.37c2.236 5.557 3.792 11.323 4.827 17.205 1.483 8.336 1.932 16.87 1.87 25.343h-1.557c.052-8.065-.366-16.265-1.724-24.278l-18.27-.846c-9.664-.45-19.285-1.024-28.895-2.1-1.296-.146-2.58-.303-3.876-.47-10.99-1.41-21.98-3.04-33.084-2.925h-.01c-2.56 9.716-3.01 20.068-2.591 29.971.188 4.315.533 8.618.95 12.912.126 1.274.24 2.56.356 3.844l-1.505.157C1.19 81.881.51 74.161.5 66.441c0-8.284.794-16.882 3.03-24.988 1.88-6.832 4.784-13.309 9.088-18.981a1.6 1.6 0 0 1-.23-.115c-1.003-.585-1.441-1.588-1.755-2.664-.898-3.176-1.16-6.613-1.086-9.903a.77.77 0 0 1 .156-.47 9.25 9.25 0 0 1 1.65-3.698C15.022.66 22.25.795 27.808.586ZM11.135 10.73c.02 2.152 1.358 4.858 3.813 4.534.48-.063.73.271.741.647 11.596.575 22.951 3.124 34.453 4.524 5.285.658 10.613 1.055 15.951.877a62 62 0 0 0 8.222-.783c2.089-.345 4.45-.648 6.195-1.975 1.587-1.201 1.796-2.705 1.274-4.21-.867-2.548-3.803-5.097-5.704-6.173-3.53-1.985-7.647-2.664-11.606-3.207-11.293-1.536-22.669-3.05-34.097-2.884-2.737.042-5.485.178-8.211.439-2.633.25-5.38.595-7.616 2.131-1.838 1.254-3.228 3.385-3.405 5.63-.01.147-.02.293-.01.45Z"/></svg>