<svg xmlns="http://www.w3.org/2000/svg" width="208" height="108" fill="none"><path fill="#fff8e0" stroke="#cb2821" d="M59.893 27.534c.334.387.835.522 1.379.543-1.202.44-2.403.9-3.605 1.37-.386.146-.783.303-1.17.45-.115-.576-.25-1.161-.376-1.736l-.846-3.9c-.22-1.024-.271-2.707-1.452-3.115-.24-.094-.48-.105-.731-.105 1.65-.71 3.311-1.411 4.972-2.08.157 1.066.418 2.133.658 3.189.115.616.22 1.233.335 1.86l.313 1.799c.105.575.126 1.265.523 1.725Zm11.115-4.694c.104.595.146 1.285.595 1.745a218 218 0 0 0-4.857 1.579c.062-.262.062-.534.01-.816-.115-.68-.293-1.37-.439-2.049l-.846-3.889c-.188-.889-.25-2.248-1.024-2.886.93-.334 1.86-.679 2.8-1.003.731-.262 1.483-.481 2.225-.732.084.617.261 1.234.387 1.83.104.512.209 1.014.324 1.515.146.816.281 1.642.428 2.468.135.742.26 1.495.397 2.237Zm13.487-2.159c.146.094.292.157.449.199-.867.22-1.745.418-2.612.648-.877.23-1.755.48-2.643.721-.01-.073-.01-.146-.02-.22-.126-.762-.335-1.526-.502-2.289-.324-1.495-.658-2.98-.982-4.474-.198-.89-.282-2.175-.95-2.886 1.692-.491 3.405-.962 5.118-1.411-.01.083-.031.157-.031.25.01.722.261 1.464.407 2.165.105.45.199.899.293 1.348.146.805.282 1.61.428 2.415l.345 2.008c.104.575.188 1.16.7 1.526Zm12.285-2.465c-.116.021-.22.042-.335.074q-2.1.407-4.2.878c.199-.324.23-.711.167-1.119-.125-.721-.323-1.432-.49-2.153-.303-1.36-.606-2.73-.92-4.099-.209-.951-.324-2.185-1.201-2.676 1.577-.356 3.144-.7 4.732-1.035a2 2 0 0 0-.084.596c.021.721.262 1.463.418 2.164.094.45.188.91.293 1.359.136.795.282 1.6.418 2.405.115.669.24 1.338.355 2.007.094.575.188 1.16.7 1.526.042.032.094.042.146.073Zm12.629-2.343.063.031c-1.63.262-3.249.533-4.879.826-.104.01-.219.031-.323.052.292-.355.355-.794.271-1.275-.125-.721-.324-1.432-.48-2.143-.314-1.37-.617-2.74-.93-4.109-.199-.92-.314-2.112-1.139-2.624 1.787-.324 3.573-.627 5.37-.92a1.6 1.6 0 0 0-.126.7c.011.722.251 1.464.408 2.164.094.45.188.91.292 1.36.136.794.282 1.6.418 2.404.126.67.24 1.338.355 2.007.105.575.188 1.16.7 1.527Zm15.368-2.249.021.136q-4.027.47-8.054 1.035c.031-.021.073-.032.104-.063.47-.376.575-.91.47-1.495-.115-.722-.313-1.432-.48-2.143-.303-1.37-.617-2.74-.92-4.109-.188-.805-.292-1.83-.877-2.425.24-.032.481-.063.721-.105l4.105-.533v.052c.011.722.251 1.464.408 2.164.094.45.198.9.292 1.36.136.794.282 1.599.418 2.404.126.669.24 1.338.355 2.007.105.575.188 1.16.7 1.526.491.345 1.108.293 1.672.272.355-.02.71-.042 1.065-.083ZM144.06 1.959c1.63-.02 3.259-.02 4.879.021-.105.031-.22.052-.314.084-.658.25-1.003.857-1.034 1.536-.031.732.167 1.495.272 2.206.052.398.114.805.167 1.203.083.805.167 1.6.25 2.394.074.68.136 1.348.209 2.028.021.209.042.418.073.627-1.608 0-3.217.031-4.836.084-.094 0-.199.01-.293.01.136-.073.261-.146.376-.23.481-.387.575-.92.47-1.495-.115-.721-.313-1.442-.48-2.153-.303-1.37-.617-2.729-.92-4.099-.156-.71-.261-1.578-.668-2.185.616-.01 1.233-.031 1.849-.031Zm16.757 1.017c-.115.638-.115 1.297-.146 1.924-.031.46-.063.93-.084 1.39-.094.858-.177 1.704-.261 2.562l-.188 1.892c-.062.627-.136 1.296.355 1.788.115.115.251.209.397.282a67 67 0 0 0-3.562-.376c-.178-.021-.345-.042-.522-.053.376-.397.407-.91.334-1.453a129 129 0 0 0-.334-2.174l-.627-4.15c-.115-.795-.188-1.674-.648-2.249 1.766.147 3.531.366 5.286.617Zm13.591 3.262s-.042.052-.053.083c-.282.554-.344 1.223-.459 1.82l-.282 1.327c-.188.763-.387 1.537-.575 2.3-.167.648-.345 1.286-.491 1.945-.136.596-.104 1.17.376 1.62a52 52 0 0 0-2.183-.617 69 69 0 0 0-4.565-1.066c.606 0 1.358.042 1.891-.293.48-.303.606-.815.647-1.359.063-.763.073-1.537.115-2.31.073-1.412.157-2.813.23-4.214.01-.271.031-.554.031-.826 1.797.46 3.573.983 5.318 1.59Zm12.65 5.86c-.146.105-.282.24-.397.429-.355.554-.501 1.265-.7 1.882l-.407 1.223c-.282.742-.575 1.484-.857 2.237-.229.606-.491 1.213-.7 1.83-.01.031-.01.062-.02.094a57 57 0 0 0-3.02-1.464 72 72 0 0 0-3.092-1.307c.094.021.178.053.272.063.554.084 1.201.24 1.755.115.585-.125.888-.596 1.013-1.14.157-.648.261-1.306.387-1.965.261-1.307.512-2.614.773-3.92.042-.23.104-.471.157-.722a66 66 0 0 1 4.836 2.645Zm11.012 8.355s-.094 0-.146.031c-.564.21-.919.753-1.285 1.192-.292.345-.595.7-.888 1.056-.512.554-1.034 1.108-1.546 1.662-.428.46-.982.941-1.285 1.485a40 40 0 0 0-2.309-1.882c.042 0 .084.01.115.01 1.348.011 1.536-1.683 1.86-2.665.397-1.244.794-2.478 1.191-3.722.083-.23.167-.47.24-.722 1.4 1.109 2.779 2.29 4.053 3.555Zm6.957 11.11c.669 2.54.794 5.196.544 7.851-.345-.167-.711-.303-1.055-.439-.251-.104-.502-.198-.753-.303-.491-.23-.992-.45-1.483-.68l-1.191-.532c-.47-.22-.961-.398-1.462-.116-.345.21-.554.586-.753.92-.02.042-.041.095-.073.147.094-1.506-.01-3-.397-4.454a13 13 0 0 0-.689-1.903c1.107.565 1.755-.428 2.413-1.233.794-.972 1.588-1.934 2.382-2.896.219-.272.48-.554.689-.847.784 1.422 1.411 2.907 1.828 4.485Zm-.501 13.311a40 40 0 0 1-2.622 6.806c-.303-.283-.679-.523-1.013-.764-.251-.177-.491-.355-.731-.533-.397-.303-.794-.617-1.191-.93-.376-.293-.752-.596-1.128-.889-.439-.334-.888-.596-1.453-.376-.334.125-.595.397-.835.658a31 31 0 0 0 1.577-3.397c.157-.387.303-.785.449-1.182.126-.376.251-.763.366-1.15.397.293.951.46 1.41.638.899.355 1.797.7 2.696 1.056.814.324 1.755.815 2.475.063Zm-6.299 11.85c.241.115.481.146.721.125a51 51 0 0 1-2.988 3.983c-.261-.293-.543-.585-.814-.867-.22-.241-.45-.471-.669-.712-.408-.46-.815-.93-1.233-1.4-.313-.356-.637-.722-.961-1.088s-.658-.763-1.18-.794a1.86 1.86 0 0 0-.826.209 38 38 0 0 0 2.967-3.649c-.031.878.909 1.338 1.567 1.809.794.564 1.588 1.129 2.382 1.683.334.24.669.523 1.034.7Zm-7.773 7.411c.366.386.783.92 1.274 1.223a66 66 0 0 1-2.559 2.31c-.355-.836-.815-1.641-1.243-2.457-.22-.45-.429-.899-.637-1.348a59 59 0 0 1-.7-1.485c-.209-.428-.387-.951-.805-1.233a1.3 1.3 0 0 0-.585-.2 67 67 0 0 0 1.849-1.578c-.512 1.046.585 1.84 1.223 2.499.731.753 1.452 1.516 2.183 2.269Zm-7.583 4.9c.418.794.794 1.997 1.755 2.227a98 98 0 0 1-4.367 3.031c-.146-.501-.366-.993-.554-1.484-.115-.293-.229-.596-.344-.9-.209-.616-.418-1.233-.638-1.84l-.501-1.473c-.157-.46-.282-1.004-.658-1.338-.24-.23-.564-.325-.919-.335a76 76 0 0 0 3.854-2.478c.188.575.575 1.14.815 1.61.523.993 1.045 1.987 1.557 2.98Z"/><path fill="#cb2821" stroke="#cb2821" d="M206.48 30.942c1.16 4.182.836 8.646-.136 12.828-.188.816-.407 1.62-.647 2.405l-1.432-.418c.094-.293.178-.586.262-.879-.721.753-1.662.262-2.476-.062-.899-.356-1.797-.7-2.696-1.056-.459-.178-1.013-.345-1.41-.638-.115.387-.24.774-.365 1.15-.147.397-.293.795-.45 1.181l-1.431-.355c1.452-3.492 2.121-7.235 1.191-10.727-.836-3.157-3.071-5.697-5.526-7.767-2.706-2.3-5.788-4.213-8.943-5.823a56 56 0 0 0-2.12-1.025l.658-1.422c1.013.46 2.027.941 3.019 1.464.01-.031.01-.063.021-.094.209-.617.47-1.224.7-1.83.282-.752.574-1.495.856-2.237l.408-1.223c.198-.617.345-1.328.7-1.882a1.4 1.4 0 0 1 .397-.429 66 66 0 0 0-4.837-2.645l.669-1.411a65 65 0 0 1 9.621 5.74c.376.177.763.355 1.086.606.22.167.356.345.46.533 2.455 1.913 4.764 4.015 6.811 6.304 2.518 2.812 4.597 6.053 5.61 9.712Zm-.909 8.48c.251-2.656.126-5.312-.543-7.852-.418-1.579-1.045-3.064-1.828-4.485-.209.292-.47.575-.69.846a658 658 0 0 0-2.381 2.896c-.659.805-1.306 1.799-2.414 1.234.272.606.512 1.244.69 1.903.386 1.453.491 2.948.397 4.453.031-.052.052-.104.073-.146.198-.334.407-.71.752-.92.501-.282.992-.105 1.463.115l1.191.533c.491.23.992.45 1.483.68.251.104.501.198.752.303.345.136.71.272 1.055.44Zm-7.647-18.934.146-.032c-1.274-1.264-2.653-2.446-4.053-3.554-.073.25-.156.491-.24.721-.397 1.244-.794 2.478-1.191 3.722-.324.983-.512 2.677-1.859 2.666-.032 0-.074-.01-.115-.01a40 40 0 0 1 2.308 1.881c.303-.543.857-1.024 1.285-1.484.512-.554 1.034-1.108 1.546-1.662.293-.356.596-.711.888-1.056.366-.44.721-.983 1.285-1.192Z"/><path fill="#cb2821" stroke="#cb2821" d="m204.264 45.752 1.432.419c-1.849 6.189-5.109 11.615-9.235 16.371-.021.063-.042.136-.073.2-.199.344-.554.605-.888.856-4.524 4.977-9.977 9.221-15.691 12.839a170 170 0 0 1-11.815 6.816l-.731-1.38c-.094-.01-.178-.01-.272-.031-.502-.136-.825-.534-1.034-.983-.241-.491-.46-.983-.679-1.474l-1.379-2.98c-.303-.669-.899-1.568-.763-2.331l-2.35 1.098-.606-1.328c5.495-2.52 10.854-5.321 15.983-8.458 5.37-3.283 10.499-7.15 14.51-12.054 1.891-2.31 3.761-5.175 5.025-8.238l1.431.355a30 30 0 0 1-1.577 3.398c.24-.261.501-.533.836-.659.564-.22 1.013.042 1.452.377.376.292.752.596 1.128.888.397.314.794.628 1.191.93.24.178.48.356.731.534.335.24.711.48 1.014.763.919-1.882 1.734-3.868 2.36-5.928Zm-5.317 11.093c-.24.02-.48-.01-.721-.126-.365-.178-.7-.46-1.034-.7a331 331 0 0 1-2.382-1.683c-.658-.47-1.598-.93-1.567-1.809a38 38 0 0 1-2.967 3.649c.272-.136.554-.22.826-.21.522.032.856.43 1.18.795l.961 1.087c.418.47.826.941 1.233 1.401.219.24.449.47.669.711.271.282.553.575.814.868a51 51 0 0 0 2.988-3.983Zm-7.218 8.51c-.491-.303-.909-.837-1.275-1.224-.731-.752-1.452-1.515-2.183-2.268-.638-.659-1.734-1.453-1.223-2.499a66 66 0 0 1-1.849 1.579c.209.02.408.084.585.199.418.282.596.804.805 1.233.23.502.459.993.7 1.485.209.45.418.899.637 1.348.428.816.888 1.62 1.243 2.457a67 67 0 0 0 2.56-2.31Zm-7.104 5.907c-.961-.23-1.337-1.433-1.755-2.227a388 388 0 0 0-1.557-2.98c-.24-.47-.627-1.035-.815-1.61a76 76 0 0 1-3.854 2.478c.355.01.679.105.919.334.376.335.501.879.658 1.339l.501 1.474c.22.606.429 1.223.638 1.84.115.303.23.606.344.899.188.491.408.983.554 1.484a98 98 0 0 0 4.367-3.031Zm-9.057 5.97c-.063-.011-.115-.011-.178-.022-1.013-.272-1.264-1.641-1.598-2.477a999 999 0 0 0-1.223-3.147c-.219-.554-.626-1.276-.668-1.945-.46.24-.909.491-1.358.732-.784.408-1.567.805-2.351 1.202.188.052.376.136.523.282.355.325.491.837.668 1.266.209.512.418 1.014.627 1.515.188.44.366.879.543 1.318.439.92.909 1.84 1.243 2.791.063.199.094.408.094.617 1.244-.7 2.466-1.412 3.678-2.133Zm-2.79-7.267-.01-.02c-.449.177-.272.125.01.02Z"/><path fill="#fff8e0" stroke="#cb2821" d="M196.889 34.366c.93 3.492.261 7.235-1.191 10.727-1.264 3.063-3.134 5.927-5.025 8.238-4.011 4.903-9.141 8.771-14.51 12.054-5.129 3.136-10.489 5.938-15.983 8.458-.784.355-1.567.71-2.361 1.056-.178 0-.366.01-.544.042a10.7 10.7 0 0 0-1.964.397 12 12 0 0 0-1.619.606c-.501.22-1.097.46-1.483.868a1.2 1.2 0 0 0-.293.544q-1.551.627-3.134 1.223c-1.044.387-2.1.784-3.144 1.16-.209.032-.408.063-.585.084-.648.104-1.296.25-1.912.46-.522.178-1.201.355-1.598.753-.063.062-.094.125-.136.188l-1.849.627c-.606.199-1.222.397-1.839.596a214 214 0 0 1-10.739 3.147 231 231 0 0 1-18.219 4.035c-.198.032-.386.063-.564.084-.334.052-.668.125-1.003.209a359 359 0 0 1-5.902.962c-1.995.293-3.99.575-5.996.826a302 302 0 0 1-4.44.522c-4.44.481-8.89.847-13.351 1.12-4.46.26-8.921.428-13.393.49-3.948.063-7.897.042-11.836-.052-1.692-.042-3.426-.073-5.192-.125a172 172 0 0 1-6.08-.262 84 84 0 0 1-6.894-.732 11 11 0 0 0-1.139-.365 14 14 0 0 0-1.609-.335c-.46-.063-.971-.167-1.441-.105a49 49 0 0 1-2.142-.554c-2.11-.616-4.158-1.38-6.09-2.362a8 8 0 0 0-.805-.419 26.6 26.6 0 0 1-4.847-3.355 26 26 0 0 1-2.57-2.593 20.8 20.8 0 0 1-2.81-4.287c-.25-.501-.48-1.024-.69-1.557.01-.042.011-.094.021-.147.053-.522.084-1.055.094-1.578.01-.492-.01-.972-.03-1.464-.032-.491-.032-1.056-.2-1.526-.03-.094-.083-.157-.135-.23a28 28 0 0 1 .438-2.3c1.494-6.42 5.193-12.013 9.904-16.738 3.04-3.063 6.519-5.76 10.091-8.081a76 76 0 0 1 1.954-1.224 139 139 0 0 1 10.624-5.812c.073-.021.157-.032.23-.053a10.5 10.5 0 0 0 1.577-.47c.533-.21 1.17-.418 1.547-.857.104-.115.167-.23.219-.356 2.538-1.192 5.13-2.3 7.73-3.377.23-.052.46-.115.68-.188.47-.157 1.075-.324 1.451-.68.68-.271 1.369-.533 2.048-.804a232 232 0 0 1 9.026-3.23 259 259 0 0 1 5.505-1.757 248 248 0 0 1 7.355-2.123 266 266 0 0 1 16.652-3.94c2.684-.555 5.39-1.067 8.106-1.548a346 346 0 0 1 10.865-1.736c5.923-.857 11.94-1.693 17.978-2.258a163 163 0 0 1 10.071-.648c4.492-.146 8.974-.063 13.424.345 1.87.167 3.729.387 5.589.68 2.549.397 5.077.92 7.574 1.578 3.405.9 6.748 2.07 9.945 3.534.71.324 1.42.669 2.12 1.024 3.155 1.61 6.237 3.524 8.943 5.824 2.455 2.07 4.69 4.61 5.526 7.767Zm-27.809-3.105c.021-1.38-1.024-2.52-2.173-3.136a5.55 5.55 0 0 0-2.695-.648c.052-.084.104-.168.157-.262.679-1.348 1.044-3.032.041-4.328-.762-.983-2.037-1.286-3.217-1.098a3.9 3.9 0 0 0-2.873 2.133 5.6 5.6 0 0 0-.554 2.112c-5.745-3.67-13.956-2.07-19.493 1.432-4.147 2.645-7.595 6.2-11.105 9.618-3.52 3.44-7.229 6.576-11.46 9.127-8.169 4.914-17.466 7.674-26.879 8.97-4.826.67-9.715.941-14.594.93s-9.694-.522-14.562-.762c-4.325-.21-9.36.073-12.756 3.136-2.486 2.248-3.959 5.98-3.228 9.305.084.355.199.69.324 1.003l-.94-.564c-.721-.44-1.442-.868-2.163-1.297-.626-.386-1.337-.71-2.078-.45-1.244.44-1.588 2.019-1.045 3.106.574 1.17 1.912 1.84 3.071 2.342-.982.595-1.723 1.568-1.817 2.739-.105 1.244.7 2.352 1.807 2.854 1.128.502 2.382.47 3.51-.052 1.316-.617 2.267-1.778 3.123-2.928 1.567 2.551 4.033 4.527 6.801 5.74 4.69 2.049 9.956 1.955 14.96 1.673a171.6 171.6 0 0 0 31.434-4.684c10.31-2.52 20.37-5.99 30.044-10.35a172 172 0 0 0 14.291-7.266c4.241-2.415 8.525-4.976 12.024-8.437 3.197-3.157 5.599-7.078 6.247-11.573.282-1.966.23-3.994-.198-5.917 1.065.45 2.183.731 3.353.48 1.41-.313 2.622-1.453 2.643-2.948Z"/><path fill="#cb2821" stroke="#cb2821" d="M172.926 15.333c-.481-.45-.512-1.024-.376-1.62.146-.659.323-1.297.491-1.945.188-.763.386-1.537.574-2.3l.282-1.328c.115-.595.178-1.265.46-1.819.01-.031.042-.052.052-.083a66 66 0 0 0-5.317-1.59l.365-1.484a69 69 0 0 1 10.52 3.565c.439.146.878.303 1.285.502.125.052.251.125.355.209.429.199.857.397 1.275.606l-.669 1.412c-.052.25-.115.491-.157.721-.261 1.307-.511 2.614-.773 3.92-.125.66-.229 1.318-.386 1.966-.125.544-.428 1.014-1.013 1.14-.554.125-1.202-.032-1.755-.115-.094-.01-.178-.042-.272-.063 1.034.408 2.068.847 3.092 1.307l-.658 1.422a62 62 0 0 0-9.945-3.534l.386-1.506c.732.189 1.463.398 2.184.617Z"/><path fill="#fff8e0" stroke="#cb2821" d="M175.391 77.21a.5.5 0 0 1 .178.02 177 177 0 0 1-3.678 2.133c0-.209-.031-.418-.094-.616-.334-.952-.804-1.872-1.243-2.792a67 67 0 0 0-.543-1.317 235 235 0 0 1-.627-1.516c-.177-.429-.313-.94-.668-1.265a1.2 1.2 0 0 0-.523-.282c.784-.398 1.567-.795 2.351-1.203.449-.24.898-.49 1.358-.731.042.669.449 1.39.668 1.944.408 1.046.815 2.091 1.223 3.147.334.836.585 2.206 1.598 2.478Z"/><path fill="#cb2821" stroke="#cb2821" d="m170.742 14.717-.387 1.505a75 75 0 0 0-7.574-1.578 84 84 0 0 0-5.589-.68l.136-1.526c1.191.094 2.382.22 3.562.376a1.5 1.5 0 0 1-.397-.282c-.491-.492-.417-1.16-.355-1.788l.188-1.892c.084-.858.167-1.704.261-2.562.021-.46.053-.93.084-1.39.031-.627.031-1.286.146-1.924-1.755-.25-3.52-.47-5.286-.617l.115-1.453c2.027.168 4.053.398 6.07.7.104-.052.209-.104.334-.135.658-.147 1.421.104 2.068.22.742.135 1.494.26 2.236.397.512.094 1.055.136 1.546.313.376.136.627.335.815.575.251.063.491.126.742.188l-.366 1.485c0 .272-.021.554-.031.826-.074 1.4-.157 2.802-.23 4.213-.042.774-.052 1.547-.115 2.31-.042.544-.167 1.057-.648 1.36-.533.334-1.285.292-1.891.292 1.536.304 3.051.659 4.566 1.067Zm-3.834 13.413c1.149.617 2.194 1.757 2.173 3.137-.021 1.495-1.232 2.634-2.643 2.948-1.17.25-2.288-.031-3.353-.48.428 1.923.48 3.951.198 5.916-.647 4.496-3.05 8.416-6.247 11.574-3.499 3.46-7.782 6.021-12.024 8.436a171 171 0 0 1-14.291 7.266 173 173 0 0 1-30.044 10.35 171.6 171.6 0 0 1-31.434 4.684c-5.004.282-10.27.377-14.96-1.673-2.768-1.212-5.234-3.188-6.8-5.74-.857 1.15-1.808 2.311-3.124 2.928-1.128.523-2.382.554-3.51.052-1.107-.501-1.912-1.61-1.807-2.854.094-1.17.835-2.143 1.817-2.739-1.16-.502-2.496-1.17-3.071-2.342-.543-1.087-.198-2.666 1.045-3.105.741-.261 1.452.063 2.078.45.721.428 1.442.857 2.163 1.296l.94.565a7 7 0 0 1-.324-1.004c-.73-3.324.742-7.057 3.228-9.304 3.395-3.064 8.43-3.346 12.756-3.137 4.868.24 9.684.753 14.562.763s9.768-.261 14.594-.93c9.413-1.296 18.71-4.056 26.879-8.97 4.231-2.551 7.94-5.687 11.46-9.127 3.51-3.419 6.958-6.973 11.105-9.618 5.537-3.503 13.748-5.102 19.493-1.432.053-.722.22-1.443.554-2.112.564-1.13 1.619-1.934 2.873-2.133 1.18-.188 2.455.115 3.218 1.098 1.002 1.296.637 2.98-.042 4.328-.052.094-.105.178-.157.261.93 0 1.86.199 2.695.649Zm-.303 4.37c1.024-.501 1.16-1.578.387-2.383-.794-.805-2.027-1.213-3.145-1.067-.229.032-.48.095-.72.178a40 40 0 0 1-1.118 1.485c.156.334.292.669.428 1.014.021 0 .031 0 .052.01 1.212.617 2.758 1.443 4.116.764Zm-3.426-6.419c.428-1.024.47-2.404-.815-2.728-.961-.23-1.995.22-2.507 1.045-.523.847-.627 1.85-.533 2.823.345.314.679.638 1.003 1.004.198.22.366.47.543.7.324-.397.763-.71 1.243-.951.418-.607.794-1.244 1.066-1.893Zm-4.252 20.46c2.361-3.492 3.583-7.935 2.716-12.127a11.5 11.5 0 0 0-1.139-3.126.8.8 0 0 1-.261-.418 10 10 0 0 0-1.201-1.652c-.397.167-.919.063-1.045-.481a7 7 0 0 1-.125-.638 10.8 10.8 0 0 0-3.959-2.049c-8.692-2.478-16.454 3.283-22.356 8.95-3.259 3.136-6.393 6.376-9.987 9.126-3.458 2.635-7.229 4.85-11.188 6.65-7.846 3.564-16.318 5.509-24.863 6.376a111 111 0 0 1-13.174.513c-4.523-.084-9.025-.638-13.538-.774-4.242-.125-9.33.345-12.014 4.088-1.901 2.645-2.727 7.036.209 9.294.25.042.48.199.564.533.02.084.052.146.073.23.157.167.22.376.199.575.585 1.746 1.588 3.272 2.946 4.548 3.5 3.303 8.367 4.265 13.037 4.37 4.962.104 9.987-.376 14.918-.93a170 170 0 0 0 29.156-5.886 171.4 171.4 0 0 0 27.914-10.926c4.366-2.164 8.67-4.485 12.797-7.077 3.907-2.447 7.72-5.3 10.321-9.169ZM46.72 73.106s-.042-.084-.052-.125a.65.65 0 0 1-.585.261 16 16 0 0 1-2.55-.397c-.72-.021-1.42.094-2.016.512-.783.544-1.326 1.694-.49 2.446.668.596 1.734.659 2.538.314 1.222-.523 2.079-1.694 2.842-2.74a1 1 0 0 1 .313-.27Zm-1.191-1.568c-1.107-.67-2.225-1.328-3.333-1.997-.762-.46-1.525-.951-2.298-1.39-.407-.23-.72-.283-.804.25-.073.502.365.92.72 1.182.565.428 1.233.742 1.881 1.014a13 13 0 0 0 2.068.7c.596.032 1.191.126 1.766.24Zm121.734 10.335.732 1.38a175 175 0 0 1-11.534 5.54l-.616-1.41s-.052 0-.073-.011c-1.233-.314-1.452-1.924-1.797-2.948-.449-1.349-.898-2.687-1.347-4.036-.157-.502-.335-.993-.502-1.495q-1.395.566-2.789 1.098l-.554-1.411q1.583-.596 3.134-1.224c.052-.188.136-.386.293-.543.386-.408.982-.648 1.483-.868.533-.24 1.066-.45 1.619-.606a10.7 10.7 0 0 1 1.964-.397c.178-.032.366-.042.544-.042.794-.345 1.577-.7 2.36-1.056l.606 1.328c-.491.23-.971.449-1.462.669.146.334.23.7.324 1.035.177.627.365 1.254.543 1.881.23.784.449 1.569.679 2.353.136.418.272.836.407 1.265.22.648.491 1.317.627 1.986.011.063.011.136.021.199a170 170 0 0 0 4.764-2.384c.188-.105.386-.209.574-.303Z"/><path fill="#fff8e0" stroke="#cb2821" d="M167.264 81.877c-.188.094-.387.199-.575.303-1.577.826-3.165 1.61-4.764 2.384-.01-.063-.01-.136-.02-.199-.136-.669-.408-1.338-.627-1.986-.136-.429-.272-.847-.408-1.265-.229-.784-.449-1.568-.679-2.352-.177-.627-.365-1.255-.543-1.882-.094-.335-.178-.7-.324-1.035.491-.22.972-.44 1.463-.67l2.35-1.097c-.136.763.46 1.662.763 2.331l1.379 2.98c.219.491.439.983.679 1.474.209.45.533.847 1.034.983.094.02.178.02.272.031Zm-.273-51.766c.773.805.637 1.882-.387 2.384-1.358.68-2.904-.146-4.116-.763-.021-.01-.031-.01-.052-.01-.136-.346-.271-.68-.428-1.015.376-.48.762-.983 1.118-1.484.24-.084.491-.147.72-.178 1.118-.146 2.351.261 3.145 1.066Zm-4.627-6.762c1.285.324 1.243 1.704.815 2.729-.272.648-.648 1.286-1.066 1.892-.48.24-.919.554-1.243.951-.178-.23-.345-.48-.543-.7-.324-.366-.658-.69-1.003-1.004-.094-.972.01-1.976.533-2.822.512-.826 1.546-1.276 2.507-1.046Zm-.721 11.059c.867 4.192-.355 8.635-2.716 12.127-2.601 3.868-6.414 6.723-10.321 9.169-4.127 2.593-8.431 4.913-12.798 7.078a171.4 171.4 0 0 1-27.913 10.925 170 170 0 0 1-29.156 5.886c-4.931.554-9.956 1.035-14.918.93-4.67-.105-9.538-1.066-13.038-4.37-1.358-1.275-2.36-2.802-2.946-4.548a.73.73 0 0 0-.198-.575c-.02-.083-.052-.146-.073-.23a.67.67 0 0 0-.564-.533c-2.936-2.258-2.11-6.649-.21-9.294 2.686-3.743 7.773-4.213 12.014-4.088 4.513.136 9.016.69 13.54.774a111 111 0 0 0 13.172-.512c8.546-.868 17.018-2.813 24.863-6.378 3.96-1.798 7.731-4.014 11.189-6.649 3.593-2.75 6.727-5.99 9.987-9.127 5.902-5.666 13.664-11.426 22.355-8.949a10.8 10.8 0 0 1 3.96 2.05c.031.208.073.428.125.637.125.544.648.648 1.045.48a10 10 0 0 1 1.201 1.653.8.8 0 0 0 .261.418 11.5 11.5 0 0 1 1.139 3.126Z"/><path fill="#cb2821" stroke="#cb2821" d="m157.328 12.435-.136 1.526c-4.45-.408-8.932-.491-13.424-.345l-.041-1.474c1.619-.052 3.228-.094 4.836-.084a13 13 0 0 1-.073-.627c-.073-.68-.136-1.349-.209-2.028l-.25-2.394c-.053-.398-.115-.805-.168-1.203-.104-.71-.303-1.474-.271-2.206.031-.68.376-1.285 1.034-1.536.094-.032.209-.053.313-.084a126 126 0 0 0-4.878-.02V.515c3.865-.062 7.741.053 11.585.387l-.115 1.453c.46.575.533 1.454.648 2.248l.627 4.15c.115.722.23 1.443.334 2.175.073.544.042 1.056-.334 1.453.177.01.344.032.522.053Zm-1.483 74.945.616 1.412a172 172 0 0 1-7.03 2.927l-.094.032a206 206 0 0 1-4.806 1.798l-.522-1.453c-1.16-.47-1.222-2.206-1.452-3.252-.293-1.39-.596-2.77-.899-4.16-.125-.586-.271-1.182-.386-1.788l-1.233.408-.48-1.454 1.849-.627c.041-.063.073-.125.135-.188.397-.397 1.076-.575 1.599-.753a12 12 0 0 1 1.912-.46c.177-.02.376-.052.585-.083 1.044-.377 2.099-.774 3.144-1.16l.554 1.41-.815.314c.355.481.386 1.16.491 1.725.115.648.23 1.286.334 1.924.125.669.24 1.328.355 1.986.282 1.234.596 2.467.742 3.712a189 189 0 0 0 5.401-2.27Z"/><path fill="#fff8e0" stroke="#cb2821" d="M155.771 87.37s.042 0 .074.01a191 191 0 0 1-5.401 2.268c-.147-1.244-.46-2.477-.742-3.711-.115-.659-.23-1.317-.355-1.986-.105-.638-.22-1.276-.335-1.924-.104-.564-.135-1.244-.491-1.725l.815-.314q1.395-.533 2.79-1.097c.167.501.344.993.501 1.495.449 1.348.898 2.687 1.348 4.035.344 1.025.564 2.635 1.796 2.948Z"/><path fill="#cb2821" stroke="#cb2821" d="m144.008 92.097.522 1.453a169 169 0 0 1-6.926 2.353c-.094.344-.282.658-.606.867-.554.345-1.316.314-1.943.387l-2.194.22c-.063.01-.125.02-.188.02a195 195 0 0 1-6.863 1.851l-.376-1.516c1.629-.408 3.259-.847 4.889-1.296-.345-.732-.429-1.694-.575-2.374-.293-1.38-.595-2.77-.898-4.15-.157-.732-.345-1.453-.471-2.185a2.1 2.1 0 0 1 .032-.92c-.345.094-.69.188-1.034.272l-.397-1.485a214 214 0 0 0 10.739-3.146c.616-.2 1.232-.398 1.838-.596l.481 1.453a228 228 0 0 1-5.182 1.662c.314.084.596.22.794.46.418.491.45 1.223.554 1.83.115.637.219 1.275.334 1.923.115.659.241 1.317.356 1.987.24 1.035.491 2.07.658 3.115 2.162-.69 4.314-1.411 6.456-2.185Zm.272-81.67c.105.575.01 1.108-.47 1.495-.115.083-.24.156-.376.23.094 0 .198-.01.292-.01l.042 1.473c-3.353.105-6.717.335-10.07.648l-.126-1.442a94 94 0 0 1 2.413-.22c-.177-.324-.24-.7-.313-1.066-.115-.67-.23-1.338-.355-2.018-.136-.795-.272-1.6-.418-2.405-.094-.45-.199-.899-.293-1.348-.156-.7-.397-1.443-.407-2.175-.01-.564.178-.94.47-1.202l-.104-1.464a151 151 0 0 1 9.485-.407v1.442c-.606 0-1.222.021-1.838.032.407.606.511 1.474.668 2.185.303 1.37.617 2.728.919 4.098.168.71.366 1.432.481 2.154Z"/><path fill="#fff8e0" stroke="#cb2821" d="M142.557 88.847c.229 1.046.292 2.781 1.452 3.252a181 181 0 0 1-6.456 2.185c-.167-1.046-.418-2.081-.658-3.116-.115-.67-.241-1.328-.356-1.986-.115-.648-.219-1.286-.334-1.924-.104-.606-.136-1.338-.554-1.83-.198-.24-.48-.376-.794-.46a228 228 0 0 0 5.182-1.662c.407-.136.825-.272 1.233-.408.115.607.261 1.203.386 1.788.303 1.39.606 2.77.899 4.161Zm-6.572-76.242a94 94 0 0 0-2.414.22 254 254 0 0 0-5.745.574c-1.014.115-2.016.23-3.03.366l-.021-.136q.549-.062 1.066-.156a15 15 0 0 0 1.891-.45c.564-.167 1.274-.345 1.744-.721.481-.377.575-.91.47-1.495-.114-.722-.313-1.433-.48-2.154-.303-1.36-.616-2.729-.919-4.098-.115-.502-.199-1.077-.387-1.59a225 225 0 0 1 6.508-.574c-.292.261-.48.637-.47 1.202.011.732.251 1.474.408 2.174.094.45.198.9.292 1.35.146.804.282 1.61.418 2.404.125.68.24 1.348.355 2.017.073.366.136.743.314 1.067Z"/><path fill="#cb2821" stroke="#cb2821" d="m134.565.922.105 1.464c-2.173.156-4.346.355-6.508.575.188.512.271 1.087.386 1.589.303 1.37.617 2.739.919 4.098.168.721.366 1.432.481 2.154.104.585.01 1.118-.47 1.495-.47.376-1.181.554-1.745.72-.616.189-1.253.346-1.891.45q-.516.094-1.065.157c-.355.042-.71.063-1.066.084-.564.02-1.18.073-1.671-.272-.512-.366-.596-.951-.7-1.526-.115-.67-.23-1.338-.355-2.008-.136-.805-.282-1.61-.418-2.404-.094-.46-.199-.91-.293-1.36-.156-.7-.397-1.442-.407-2.163v-.053l-.178-1.516a309 309 0 0 1 5.433-.616c.407-.063.846-.136 1.264-.136.95-.094 1.891-.199 2.841-.293a229 229 0 0 1 5.338-.44Z"/><path fill="#cb2821" stroke="#cb2821" d="m133.573 12.819.125 1.443c-6.038.564-12.055 1.4-17.979 2.258-3.635.523-7.25 1.098-10.864 1.735l-.261-1.526c1.629-.293 3.249-.564 4.878-.826l-.062-.031c-.512-.366-.596-.952-.7-1.527-.115-.669-.23-1.338-.355-2.007-.136-.805-.283-1.61-.418-2.404-.105-.45-.199-.91-.293-1.36-.157-.7-.397-1.442-.407-2.164a1.6 1.6 0 0 1 .125-.7l-.251-1.547c4.179-.67 8.368-1.255 12.578-1.757l.178 1.516-4.106.533c-.24.042-.48.074-.721.105.585.596.69 1.62.878 2.425.303 1.37.616 2.74.919 4.109.167.71.366 1.422.481 2.143.104.586 0 1.119-.47 1.495-.032.032-.073.042-.105.063q4.028-.564 8.054-1.035c1.014-.136 2.017-.251 3.03-.366a254 254 0 0 1 5.746-.575Z"/><path fill="#fff8e0" stroke="#cb2821" d="M129.748 94.06c.146.68.23 1.641.575 2.373-1.63.45-3.26.889-4.889 1.297-.021-.67-.136-1.349-.209-2.008-.042-.45-.094-.888-.146-1.338q-.082-1.176-.178-2.352l-.157-1.997c-.041-.617 0-1.349-.324-1.903a1 1 0 0 0-.188-.24c1.056-.261 2.1-.533 3.145-.816.345-.083.689-.177 1.034-.271a2.1 2.1 0 0 0-.031.92c.125.732.313 1.453.47 2.185.303 1.38.606 2.77.898 4.15Z"/><path fill="#cb2821" stroke="#cb2821" d="m126.981 85.594.397 1.484c-1.045.283-2.089.554-3.144.816.073.073.135.146.188.24.324.554.282 1.286.324 1.903l.156 1.997c.063.784.126 1.568.178 2.352.052.45.104.889.146 1.338.073.659.188 1.338.209 2.007l.376 1.516a202 202 0 0 1-11.92 2.625l-.282-1.537a215 215 0 0 0 5.015-1.014c-.909-.67-.836-2.154-.951-3.168-.157-1.412-.324-2.812-.491-4.224l-.251-2.216v-.115c-1.389.293-2.778.585-4.178.857l-.314-1.516a231 231 0 0 0 14.553-3.345z"/><path fill="#fff8e0" stroke="#cb2821" d="M117.673 96.157c.115 1.014.042 2.498.951 3.167a207 207 0 0 1-5.014 1.014c.031-.188.041-.386.021-.585-.136-1.307-.481-2.624-.784-3.91l-.345-1.997-.344-1.924c-.073-.407-.115-.878-.262-1.285q.424-.081.847-.178c1.4-.272 2.789-.565 4.178-.857v.115c.084.742.167 1.484.251 2.216.167 1.411.334 2.812.491 4.224z"/><path fill="#cb2821" stroke="#cb2821" d="m113.61 100.333.282 1.537c-2.351.46-4.712.868-7.073 1.223l-.25-1.537c-.606-.732-.679-1.997-.857-2.823-.303-1.39-.606-2.77-.899-4.16-.167-.722-.355-1.454-.48-2.185a3 3 0 0 1-.031-.419c-.92.147-1.839.293-2.769.429l-.24-1.516a359 359 0 0 0 5.902-.962c.335-.083.669-.157 1.003-.209.178-.02.366-.052.564-.084q1.834-.328 3.667-.69l.313 1.516c-.282.063-.564.126-.846.178.147.408.188.878.261 1.286.115.648.23 1.286.345 1.924l.345 1.997c.303 1.285.648 2.603.783 3.91.021.198.011.397-.02.585Zm-6.499-96.169.25 1.547c-1.797.293-3.583.596-5.369.92.825.513.94 1.704 1.138 2.624.314 1.37.617 2.74.93 4.11.157.71.355 1.42.481 2.142.083.481.021.92-.272 1.276.105-.021.219-.042.324-.053l.261 1.527a292 292 0 0 0-8.106 1.547l-.303-1.516a4 4 0 0 1 .334-.073c-.052-.031-.105-.042-.146-.073-.512-.366-.606-.951-.7-1.526-.115-.67-.24-1.339-.356-2.008-.135-.805-.282-1.61-.417-2.404-.105-.45-.199-.91-.293-1.36-.157-.7-.397-1.442-.418-2.164 0-.23.032-.418.084-.595l-.324-1.537c4.283-.9 8.577-1.694 12.902-2.384Z"/><path fill="#cb2821" stroke="#cb2821" d="m106.567 101.557.251 1.537a222 222 0 0 1-17.007 2.028l-.126-1.579c1.003-.073 2.017-.167 3.03-.261-.606-.701-.554-1.892-.637-2.771-.136-1.317-.261-2.644-.397-3.962-.073-.721-.157-1.443-.21-2.164-.02-.24-.01-.46.043-.669-.167.02-.335.042-.502.052l-.156-1.537a302 302 0 0 0 4.44-.522c2.005-.251 4-.534 5.996-.826l.24 1.516c-.919.136-1.839.272-2.758.397.063.063.136.125.188.21.345.532.293 1.264.324 1.86s.073 1.181.104 1.777c.042.763.084 1.537.136 2.3.032.419.073.837.115 1.244.052.649.167 1.328.157 1.976 0 .115-.021.23-.042.345 2.277-.282 4.544-.606 6.811-.951Z"/><path fill="#fff8e0" stroke="#cb2821" d="M105.712 98.74c.178.827.251 2.092.857 2.823-2.267.345-4.534.67-6.812.952.021-.115.042-.23.042-.345.01-.648-.104-1.328-.157-1.976a46 46 0 0 1-.114-1.244c-.053-.763-.095-1.537-.136-2.3-.032-.596-.073-1.182-.105-1.778-.031-.595.021-1.327-.324-1.86-.052-.084-.125-.147-.188-.21q1.38-.19 2.758-.397c.93-.136 1.849-.282 2.769-.428 0 .135 0 .282.031.418.125.732.313 1.463.481 2.185.292 1.39.595 2.77.898 4.16Z"/><path fill="#cb2821" stroke="#cb2821" d="m96.445 18.287.303 1.516a266 266 0 0 0-16.652 3.942l-.407-1.495c.888-.24 1.765-.492 2.643-.722.867-.23 1.744-.428 2.611-.648a1.6 1.6 0 0 1-.449-.198c-.512-.366-.595-.952-.7-1.527l-.344-2.007c-.147-.805-.283-1.61-.429-2.415-.094-.45-.188-.9-.292-1.349-.147-.7-.397-1.443-.408-2.164 0-.094.021-.167.032-.25-1.714.449-3.427.92-5.12 1.41l-.438-1.526c.564-.167 1.139-.334 1.703-.491A239 239 0 0 1 94.21 6.547l.323 1.537c-1.588.334-3.155.68-4.732 1.035.877.491.992 1.725 1.201 2.676.314 1.37.617 2.74.92 4.098.167.722.365 1.433.49 2.154.063.408.032.794-.166 1.119q2.1-.471 4.2-.879Z"/><path fill="#fff8e0" stroke="#cb2821" d="M92.716 103.285c-1.014.094-2.027.188-3.03.261a282 282 0 0 1-3.04.23l.031-.188c.032-.659-.041-1.328-.073-1.976l-.062-1.255c-.01-.773-.021-1.536-.021-2.31-.01-.585-.021-1.181-.021-1.767-.01-.606.083-1.349-.261-1.882a2 2 0 0 0-.126-.136c1.63-.156 3.27-.313 4.9-.491.167-.01.334-.031.501-.052a2 2 0 0 0-.042.669c.053.721.136 1.443.21 2.164.135 1.317.26 2.645.396 3.962.084.878.032 2.07.638 2.771Z"/><path fill="#cb2821" stroke="#cb2821" d="m90.857 92.234.157 1.537c-1.63.178-3.27.335-4.9.492.042.041.084.083.126.135.344.534.25 1.276.26 1.882 0 .586.011 1.182.022 1.767 0 .774.01 1.537.02 2.311l.063 1.254c.031.648.105 1.317.073 1.976l-.031.188a282 282 0 0 0 3.04-.23l.125 1.579c-1.682.146-3.374.261-5.056.366-3.73.219-7.448.355-11.178.408l-.031-1.558c1.953-.032 3.907-.084 5.85-.157-.397-.721-.324-1.767-.366-2.551-.062-1.328-.136-2.645-.209-3.973-.041-.721-.094-1.453-.115-2.185-.01-.22 0-.428.063-.627-.386.02-.783.052-1.17.073l-.094-1.568c4.46-.272 8.911-.638 13.35-1.119ZM79.69 22.255l.407 1.495c-2.465.669-4.92 1.38-7.354 2.122q-2.762.847-5.506 1.756l-.49-1.463a216 216 0 0 1 4.857-1.579c-.45-.46-.491-1.15-.596-1.746-.135-.742-.26-1.495-.397-2.237-.146-.826-.282-1.652-.428-2.467a65 65 0 0 1-.324-1.516c-.125-.596-.303-1.213-.386-1.83-.742.251-1.494.47-2.225.732l-.502-1.463q1.504-.518 3.009-1.004c.125-.167.271-.324.46-.429.563-.324 1.326-.324 1.963-.376 1.536-.481 3.072-.951 4.618-1.39l.438 1.526c.67.71.753 1.997.951 2.885.324 1.495.658 2.98.982 4.475.167.763.376 1.526.502 2.29.01.072.01.146.02.219Z"/><path fill="#fff8e0" stroke="#cb2821" d="M79.031 101.637c.042.784-.03 1.829.366 2.551a270 270 0 0 1-5.85.156c-.01-.501-.042-1.003-.063-1.495l-.062-1.254c-.01-.774-.021-1.548-.021-2.31 0-.597-.021-1.182-.021-1.778-.01-.596.083-1.338-.261-1.871a1.34 1.34 0 0 0-.502-.44 266 266 0 0 0 4.983-.271c.387-.021.784-.052 1.17-.073a2 2 0 0 0-.062.627c.02.732.073 1.463.115 2.185.073 1.328.146 2.645.208 3.973Z"/><path fill="#cb2821" stroke="#cb2821" d="m77.506 93.352.094 1.568a266 266 0 0 1-4.983.272c.198.104.365.24.501.439.345.533.251 1.275.261 1.871 0 .596.01 1.181.021 1.777 0 .763.01 1.537.021 2.311l.063 1.254c.02.492.052.994.063 1.495l.03 1.558c-.124.011-.26.011-.386.011a1.46 1.46 0 0 1-.532.47c-.585.282-1.327.115-1.954.073-.72-.042-1.452-.094-2.183-.146-.48-.032-1.003-.021-1.463-.199a1.1 1.1 0 0 1-.303-.178h-.794l.021-1.557c-.062-.513-.042-1.046-.073-1.495-.073-1.328-.136-2.645-.209-3.973-.042-.721-.104-1.453-.115-2.185-.01-.491.073-.941.439-1.286-.627.02-1.254.031-1.88.042l-.032-1.62a301 301 0 0 0 13.393-.492zM66.745 14.055l.502 1.463c-.94.324-1.87.67-2.8 1.004.773.638.836 1.997 1.024 2.885l.846 3.89c.146.68.324 1.37.439 2.049.052.282.052.554-.01.815l.49 1.464a232 232 0 0 0-9.026 3.23l-.543-1.411c1.202-.47 2.403-.93 3.604-1.37-.543-.02-1.044-.157-1.379-.543-.397-.46-.418-1.15-.522-1.725l-.313-1.799c-.115-.627-.22-1.244-.335-1.86-.24-1.056-.501-2.123-.658-3.19-1.66.67-3.322 1.37-4.972 2.081l-.627-1.422a190 190 0 0 1 5.819-2.425c.094-.136.209-.261.365-.355.366-.24.846-.293 1.306-.324a175 175 0 0 1 6.79-2.457Z"/><path fill="#fff8e0" stroke="#cb2821" d="M64.144 95.464c.627-.01 1.254-.021 1.88-.042-.365.345-.449.794-.438 1.286.01.732.073 1.463.115 2.185.073 1.328.136 2.645.209 3.973.03.449 0 .982.073 1.495a265 265 0 0 1-5.788-.126 1.7 1.7 0 0 0 .23-.46c.167-.575.146-1.213.199-1.798.02-.366.052-.732.083-1.098l.25-2.038c.074-.555.147-1.109.21-1.663.073-.585 0-1.14-.512-1.505-.084-.063-.188-.115-.282-.168 1.254 0 2.518-.01 3.771-.041Z"/><path fill="#cb2821" stroke="#cb2821" d="m65.983 104.359-.021 1.558a272 272 0 0 1-6.53-.136 287 287 0 0 1-5.118-.22l.073-1.568c-.073-.021-.157-.031-.23-.063-.49-.177-.888-.501-1.055-1.003s-.042-1.098-.01-1.61l.25-3.523c.042-.596.073-1.203.136-1.799.021-.198.084-.376.157-.543a277 277 0 0 1-6.592-.21l.042-1.578c1.765.052 3.5.084 5.192.126 3.938.094 7.887.114 11.836.052l.031 1.62c-1.254.032-2.518.042-3.771.042.094.052.198.105.282.167.512.366.585.92.512 1.506a86 86 0 0 1-.21 1.662l-.25 2.039a39 39 0 0 0-.083 1.097c-.053.586-.032 1.224-.199 1.799a1.7 1.7 0 0 1-.23.46c1.922.062 3.855.104 5.788.125Zm-8.315-74.914.543 1.41c-.68.273-1.369.534-2.048.806-.376.355-.982.523-1.452.68q-.332.109-.679.188c-2.601 1.076-5.192 2.185-7.73 3.376l-.115-1.589c1.243-.575 2.497-1.16 3.76-1.714-.083-.063-.177-.126-.25-.22-.397-.46-.418-1.15-.523-1.725l-.313-1.798c-.115-.617-.22-1.244-.334-1.86-.272-1.182-.575-2.374-.71-3.555-1.296.616-2.602 1.223-3.876 1.881l-.68-1.38a176 176 0 0 1 9.204-4.328l.627 1.422c.25 0 .491.01.731.105 1.18.407 1.233 2.09 1.452 3.115l.846 3.9c.126.575.262 1.16.377 1.735.386-.146.783-.303 1.17-.45Z"/><path fill="#cb2821" stroke="#cb2821" d="m54.387 103.997-.073 1.568c-6.226-.293-12.473-.763-18.626-1.631l.208-1.516c1.61.22 3.228.408 4.837.565l-.01-.021c-.167-.502-.042-1.098-.01-1.61l.25-3.513c.042-.606.063-1.202.136-1.798.052-.481.272-.878.679-1.108-.282-.021-.575-.032-.857-.053l.084-1.474c2.037.126 4.074.21 6.08.262l-.042 1.578c.428.094.877.21 1.233.46.512.366.585.92.511 1.506-.073.554-.135 1.108-.208 1.662l-.251 2.039-.094 1.097c-.042.513-.032 1.067-.146 1.579.083.01.167.01.24.021 2.016.146 4.043.272 6.059.387Z"/><path fill="#fff8e0" stroke="#cb2821" d="M54.157 103.93c.073.031.157.042.23.063a397 397 0 0 1-6.06-.387c-.072-.011-.156-.011-.24-.021.115-.512.105-1.066.147-1.579l.094-1.097.25-2.04c.074-.553.136-1.107.21-1.661.073-.586 0-1.14-.512-1.506-.356-.25-.805-.366-1.233-.46 2.194.094 4.398.167 6.592.21a1.8 1.8 0 0 0-.157.543c-.063.596-.094 1.202-.136 1.798l-.25 3.523c-.032.513-.157 1.108.01 1.61s.564.826 1.055 1.004Zm-4.46-71.546c.074.094.168.157.251.22-1.264.554-2.517 1.14-3.76 1.714l-.408-1.526c-.345-1.276-.68-2.562-1.013-3.848-.262-.993-.387-2.592-1.547-2.98a1.6 1.6 0 0 0-.386-.072c.366-.189.731-.377 1.107-.565 1.275-.659 2.58-1.265 3.876-1.882.136 1.182.439 2.374.71 3.555.115.617.22 1.244.335 1.86.104.607.209 1.203.313 1.799.105.575.126 1.265.522 1.725Zm-3.031 40.59a1 1 0 0 0 .053.126 1 1 0 0 0-.314.272c-.763 1.045-1.62 2.216-2.841 2.739-.805.345-1.87.282-2.539-.314-.836-.753-.292-1.903.491-2.446.596-.419 1.296-.534 2.016-.513a16 16 0 0 0 2.55.398c.26.02.449-.095.584-.262Z"/><path fill="#cb2821" stroke="#cb2821" d="m46.187 34.316.115 1.59c-.052.125-.115.24-.22.355-.375.439-1.013.648-1.545.857-.512.199-1.045.355-1.578.47-.073.021-.157.032-.23.053q-1.362.675-2.726 1.38l-.721-1.349c.136-.062.272-.125.407-.198-.052-.042-.114-.084-.167-.136-.376-.45-.438-1.119-.564-1.684-.136-.596-.261-1.18-.397-1.777-.157-.732-.324-1.453-.48-2.185-.115-.408-.22-.826-.324-1.233-.136-.544-.293-1.088-.408-1.642q-1.724.972-3.447 1.976l-.773-1.307a180 180 0 0 1 4.617-2.634c.01 0 .01-.01.021-.021a1.5 1.5 0 0 1 .543-.282q2.46-1.35 4.952-2.604l.68 1.38c-.377.189-.742.377-1.108.565.136.01.261.031.386.073 1.16.387 1.285 1.986 1.547 2.98.334 1.285.668 2.571 1.013 3.847z"/><path fill="#fff8e0" stroke="#cb2821" d="M42.197 69.54c1.107.67 2.225 1.328 3.332 1.997a12 12 0 0 0-1.765-.24c-.71-.178-1.4-.408-2.069-.7-.648-.272-1.316-.586-1.88-1.015-.355-.261-.794-.68-.721-1.181.084-.533.397-.48.804-.25.773.438 1.536.93 2.299 1.39Zm-1.275 25.339c.282.02.575.031.857.052-.408.23-.627.628-.68 1.109-.072.595-.093 1.191-.135 1.798l-.25 3.512c-.032.513-.158 1.109.01 1.61l.01.021a128 128 0 0 1-4.837-.564 80 80 0 0 1-1.598-.241 1.4 1.4 0 0 0 .46-.543c.24-.502.292-1.098.407-1.631.073-.397.157-.795.24-1.192l.502-2.039c.136-.575.303-1.15.428-1.735a2.5 2.5 0 0 0 .042-.544c1.055.115 2.11.21 3.155.293.46.042.919.073 1.389.094Z"/><path fill="#cb2821" stroke="#cb2821" d="m41.004 93.403-.083 1.474a29 29 0 0 1-1.39-.094c-1.044-.083-2.1-.177-3.155-.292.01.177-.01.355-.041.543-.126.586-.293 1.16-.429 1.736l-.501 2.038c-.084.398-.167.795-.24 1.192-.115.533-.168 1.129-.408 1.631a1.4 1.4 0 0 1-.46.544c.533.083 1.066.167 1.599.24l-.21 1.516a83 83 0 0 1-1.629-.23c-3.708-.564-7.385-1.422-10.885-2.708l.522-1.421c1.818.658 3.677 1.181 5.558 1.631-.23-.095-.46-.189-.69-.293-.47-.22-.825-.617-.93-1.14-.094-.512.084-1.066.178-1.578.22-1.16.45-2.321.669-3.482.094-.512.188-1.035.292-1.537-.46-.115-.93-.24-1.39-.376l.398-1.484c.71.198 1.42.386 2.141.554.47-.063.982.041 1.442.104.543.084 1.076.188 1.609.335.386.094.762.23 1.139.366a84 84 0 0 0 6.894.731ZM39.281 37.67l.721 1.349a139 139 0 0 0-7.897 4.433c-.659.397-1.306.805-1.954 1.223l-.825-1.296c.501-.325 1.003-.638 1.504-.952-.104 0-.209 0-.324-.02-.585-.105-.867-.523-1.065-1.036-.21-.502-.397-1.014-.585-1.516-.251-.627-.491-1.254-.742-1.892-.136-.314-.272-.617-.408-.93-.23-.523-.543-1.056-.637-1.62-.01-.095 0-.168 0-.252a96 96 0 0 0-3.938 2.833l-.93-1.244c2.779-2.111 5.694-4.056 8.66-5.896.753-.47 1.505-.92 2.267-1.37l.773 1.307c-1.128.68-2.256 1.37-3.374 2.08.199-.073.397-.146.606-.219.491-.167.993-.397 1.515-.439 1.212-.105 1.567 1.004 1.974 1.903.46 1.024.93 2.06 1.39 3.084.24.533.574 1.087.72 1.652.01.052.01.104.01.157.847-.45 1.693-.9 2.54-1.339Z"/><path fill="#fff8e0" stroke="#cb2821" d="M39.69 37.477a7 7 0 0 1-.408.198c-.847.44-1.693.889-2.539 1.339 0-.053 0-.105-.01-.157-.147-.565-.48-1.119-.721-1.652-.46-1.025-.93-2.06-1.39-3.084-.407-.9-.762-2.008-1.974-1.903-.522.042-1.024.272-1.515.44-.209.072-.407.145-.606.219a159 159 0 0 1 3.375-2.08q1.724-1.005 3.447-1.977c.115.554.272 1.098.407 1.642.105.407.21.826.324 1.233.157.732.324 1.453.48 2.185.137.596.262 1.182.398 1.778.125.564.188 1.233.564 1.683.052.052.115.094.167.136Zm-8.86 4.953c-.502.314-1.003.627-1.505.951a72 72 0 0 0-1.828 1.213c-.188-.45-.543-.868-.815-1.275-.627-.941-1.243-1.882-1.87-2.823-.575-.868-1.15-2.07-2.403-1.746a2 2 0 0 0-.407.146c.376-.303.742-.606 1.128-.899a96 96 0 0 1 3.939-2.833c0 .084-.01.157 0 .251.094.565.407 1.098.637 1.62.136.314.271.617.407.93.25.639.491 1.266.742 1.893.188.502.376 1.014.585 1.516.198.512.48.93 1.066 1.035.114.021.219.021.323.021Z"/><path fill="#cb2821" stroke="#cb2821" d="m29.326 43.378.826 1.297c-3.573 2.32-7.052 5.018-10.092 8.081l-.971-1.317a48 48 0 0 1 2.517-2.321c-.846-.262-1.253-1.39-1.66-2.091-.356-.607-.711-1.223-1.077-1.83l-.637-.982c-.282-.43-.627-.868-.784-1.36a61 61 0 0 0-1.848 1.83l-1.317-.93c2.434-2.551 5.109-4.862 7.919-7.005l.93 1.244c-.387.293-.753.596-1.129.9.136-.063.272-.116.408-.147 1.253-.324 1.828.878 2.402 1.746.627.94 1.244 1.882 1.87 2.822.272.408.627.826.815 1.276a69 69 0 0 1 1.828-1.213Z"/><path fill="#fff8e0" stroke="#cb2821" d="M28.563 100.914c.23.105.46.199.69.293-1.88-.45-3.74-.972-5.558-1.63-.595-.22-1.18-.46-1.765-.712.156-.25.292-.512.449-.763.209-.345.418-.69.637-1.045.408-.607.815-1.224 1.222-1.83.335-.512.68-1.014 1.014-1.526.292-.45.46-.952.271-1.474a30 30 0 0 0 1.86.575c.46.135.93.26 1.39.376-.105.502-.2 1.025-.293 1.537-.22 1.16-.45 2.32-.669 3.481-.094.512-.271 1.067-.177 1.579.104.523.46.92.93 1.139Z"/><path fill="#cb2821" stroke="#cb2821" d="m27.779 91.317-.397 1.484a29 29 0 0 1-1.86-.575c.189.523.022 1.025-.271 1.474-.334.513-.68 1.014-1.013 1.526-.408.607-.815 1.224-1.223 1.83-.219.356-.428.7-.637 1.046-.157.25-.292.512-.45.763.586.25 1.171.491 1.766.71l-.522 1.422a37 37 0 0 1-2.424-.951 1.3 1.3 0 0 1-.877.031c-.627-.177-1.139-.752-1.63-1.15l-.209-.177a37 37 0 0 1-3.792-2.29l.93-1.307c.052.042.104.084.157.115.146-.554.511-1.087.825-1.6.637-1.065 1.264-2.132 1.901-3.188.23-.387.46-.91.763-1.338v-.01a28.4 28.4 0 0 1-3.75-2.76l.981-1.192a26.6 26.6 0 0 0 4.848 3.356 8 8 0 0 1 .804.418c1.933.983 3.98 1.746 6.09 2.363z"/><path fill="#fff8e0" stroke="#cb2821" d="M21.606 49.122a48 48 0 0 0-2.518 2.32c-.25-.564-.867-1.014-1.327-1.442l-2.476-2.29c-.449-.407-.909-.899-1.441-1.097a43 43 0 0 1 1.755-1.924c.606-.617 1.212-1.234 1.849-1.83.157.492.501.93.783 1.36.21.324.429.658.638.982.365.607.72 1.223 1.076 1.83.407.7.814 1.83 1.66 2.09Z"/><path fill="#cb2821" stroke="#cb2821" d="m19.088 51.442.972 1.317c-4.712 4.726-8.41 10.319-9.904 16.738l-1.504-.324c.157-.722.355-1.432.574-2.143-.679.041-1.389-.492-1.995-.826a149 149 0 0 0-1.755-.983c-.345-.167-.7-.345-1.045-.512q-.234-.108-.47-.23l-1.504-.44c.125-.428.261-.857.397-1.285a2.4 2.4 0 0 1 .188-.565A48.4 48.4 0 0 1 8.547 50.94c.094-.596.585-1.108 1.087-1.547a49 49 0 0 1 2.632-3.398 68 68 0 0 1 2.017-2.237l1.316.93a43 43 0 0 0-1.755 1.924c.533.199.992.69 1.442 1.098L17.76 50c.46.428 1.076.877 1.327 1.442Zm-4.764 5.53c-.909 0-1.598-1.045-2.193-1.651-.47-.492-.94-.983-1.421-1.474a64 64 0 0 1-.867-.826 21 21 0 0 0-.491-.44 45 45 0 0 0-1.818 3.074c-.313.586-.595 1.202-.888 1.809a.9.9 0 0 1 .293.01c.449.105.867.366 1.274.565.972.46 1.943.93 2.915 1.39.386.188.856.345 1.201.617a35 35 0 0 1 1.995-3.074Z"/><path fill="#fff8e0" stroke="#cb2821" d="M18.806 89.127v.01c-.303.43-.532.952-.762 1.339-.637 1.056-1.264 2.122-1.902 3.189-.313.512-.678 1.045-.825 1.599a2 2 0 0 1-.156-.115 34 34 0 0 1-4.44-3.68c.23-.188.438-.408.637-.606.292-.272.575-.544.857-.816.501-.428.992-.857 1.494-1.275.752-.648 1.775-1.286 1.337-2.405a28.4 28.4 0 0 0 3.75 2.76z"/><path fill="#cb2821" stroke="#cb2821" d="m16.037 85.176-.982 1.192c.438 1.118-.585 1.756-1.338 2.404-.5.418-.992.847-1.493 1.276-.283.272-.565.543-.857.815-.199.199-.407.418-.637.607a34 34 0 0 0 4.44 3.68l-.93 1.306a32 32 0 0 1-2.152-1.61A34.5 34.5 0 0 1 2.8 83.044l1.41-.648a32 32 0 0 0 1.755 3.157c.209-.25.46-.46.69-.68.773-.752 1.535-1.505 2.308-2.257.533-.513 1.076-1.16 1.755-1.119a22 22 0 0 1-1.504-2.614l1.442-.585a20.8 20.8 0 0 0 2.81 4.286 26 26 0 0 0 2.57 2.593Z"/><path fill="#fff8e0" stroke="#cb2821" d="M12.131 55.317c.595.607 1.285 1.642 2.194 1.652a35 35 0 0 0-1.995 3.074c-.345-.272-.815-.429-1.202-.617-.972-.46-1.943-.93-2.915-1.39-.407-.2-.825-.46-1.274-.565a1 1 0 0 0-.293-.01c.293-.607.575-1.224.888-1.81a45 45 0 0 1 1.818-3.073c.167.146.334.293.491.44.293.282.575.553.867.825.48.491.95.983 1.421 1.474Zm-1.411 26.18c-.679-.042-1.222.606-1.755 1.118-.773.753-1.535 1.506-2.308 2.258-.23.22-.48.429-.69.68a32 32 0 0 1-1.755-3.157 30 30 0 0 1-1.368-3.335c.386.052.804 0 1.18-.01.355 0 .71 0 1.066-.022l1.985.063c.49 0 1.002.073 1.493.031.251-.02.46-.104.648-.24.439.91.95 1.777 1.505 2.614Z"/><path fill="#cb2821" stroke="#cb2821" d="m10.657 78.3-1.441.585a1.25 1.25 0 0 1-.648.24c-.49.042-1.003-.02-1.494-.031L5.09 79.03c-.355.01-.71.02-1.065.02-.376.011-.794.064-1.18.011.386 1.14.846 2.248 1.368 3.335l-1.41.648a35 35 0 0 1-1.264-3.031c-.377-.021-.753-.262-.784-.743-.042-.658-.052-1.317-.063-1.975-.052-.2-.125-.387-.167-.586-.062-.272 0-.491.146-.659.021-3 .356-6 .993-8.938.22-1.035.49-2.06.794-3.074l1.504.44a43 43 0 0 0-1.42 7.171c.407-.282.887-.272 1.368-.293 1.024-.031 2.047-.062 3.082-.104.418-.01.835-.032 1.253-.042.115-.68.24-1.36.408-2.039l1.504.324a28 28 0 0 0-.439 2.3c.052.073.105.136.136.23.167.47.167 1.035.199 1.527.02.491.041.972.03 1.463a20 20 0 0 1-.093 1.579c-.01.052-.01.105-.021.146q.313.803.69 1.558Z"/><path fill="#fff8e0" stroke="#cb2821" d="M7.232 66.202c.605.334 1.316.867 1.995.826a26 26 0 0 0-.575 2.143c-.167.68-.292 1.359-.407 2.038-.418.01-.836.032-1.254.042-1.034.042-2.058.073-3.081.105-.481.02-.962.01-1.369.292.272-2.425.742-4.82 1.42-7.171.157.083.314.156.47.23.346.167.7.345 1.046.512.585.324 1.17.648 1.755.983Z"/></svg>