<svg xmlns="http://www.w3.org/2000/svg" width="54" height="91" fill="none"><path fill="#fff8e0" stroke="#cb2821" d="M44.058 6.928a1.3 1.3 0 0 0-.429.177 1.6 1.6 0 0 0-.25.199c-.084.073-.147.178-.21.261a.5.5 0 0 0-.093.293.54.54 0 0 0 .01.314c.052.177.188.376.366.46.041.031.083.031.136.052.407.188.804.387 1.211.575a.8.8 0 0 0 .397.105.6.6 0 0 0 .293-.074.74.74 0 0 0 .46-.501c.03-.157.052-.314.03-.47-.01-.116-.02-.23-.051-.335a1.5 1.5 0 0 0-.126-.293 1.2 1.2 0 0 0-.271-.377 1.3 1.3 0 0 0-.377-.282 1.6 1.6 0 0 0-.626-.157c-.157 0-.324.01-.47.053Zm-9.789-.879s.01.032.021.053c.031.073.063.157.094.23.042.062.104.125.146.188l.053.052a.85.85 0 0 0 .553.23.9.9 0 0 0 .313-.073 1.8 1.8 0 0 0 .617.084 1.8 1.8 0 0 0 .804-.23.76.76 0 0 0 .366-.47c.042-.2.031-.419-.084-.597-.062-.115-.146-.22-.219-.324-.084-.104-.157-.198-.261-.293a2 2 0 0 0-.366-.271c-.136-.063-.282-.136-.439-.157a1.4 1.4 0 0 0-.626 0 1.4 1.4 0 0 0-.376.178c-.178.125-.282.24-.418.418-.021.031-.032.062-.053.094a2 2 0 0 0-.114.272 3 3 0 0 0-.042.313c0 .105.01.21.031.303Zm7.167 2.593c-.387-.439-.993-.564-1.547-.439-.574.136-1.065.586-1.347 1.087a.83.83 0 0 0-.084.607.8.8 0 0 0 .355.47.9.9 0 0 0 .314.094c.115.094.23.188.355.262.209.125.45.24.69.282.344.052.689.042 1.013-.136.292-.167.501-.429.616-.742.094-.251.073-.544.01-.795a1.66 1.66 0 0 0-.375-.69Zm-10.207.46c.324.554.888.983 1.536.993.104 0 .22-.02.324-.031.031-.01.062-.01.104-.031.115-.042.24-.084.345-.168.073-.052.157-.104.22-.177.072-.074.125-.147.177-.22.083-.115.125-.24.177-.366a.6.6 0 0 0 .053-.188c.02-.136.052-.272.041-.408-.01-.125-.02-.272-.073-.387a2 2 0 0 0-.104-.26 2 2 0 0 0-.178-.241 1.22 1.22 0 0 0-.679-.398 1.2 1.2 0 0 0-.512-.02c-.146.02-.26.052-.397.104-.062.031-.136.052-.198.094-.094.052-.167.126-.25.188-.116.094-.2.21-.283.324-.042.053-.052.115-.073.178a.72.72 0 0 0-.303.418.8.8 0 0 0 .073.596Zm-5.745-6.105a27.8 27.8 0 0 1 6.696-.93c4.011-.063 8.263.647 11.846 2.54 1.557.815 3.02 1.882 4.085 3.314.418.543 1.254 1.662 1.243 2.394-.02 1.15-1.974 1.17-2.747 1.286a34 34 0 0 1-11.69-.23A34.7 34.7 0 0 1 23.634 7c.01-.397-.24-.784-.752-.753-.48.031-.762-.324-.846-.774-.115-.627.324-1.097.784-1.432.773-.564 1.755-.805 2.663-1.045Zm2.851 1.37c-.23-.105-.438-.178-.69-.178-.25 0-.48.073-.699.177a1.4 1.4 0 0 0-.292.22 1.6 1.6 0 0 0-.418.659c-.032.073-.042.135-.063.209a2 2 0 0 0-.031.418c0 .146.02.282.052.418a.8.8 0 0 0 .355.47c.178.105.418.147.606.084a.9.9 0 0 0 .293-.157c.209.063.417.094.637.021a1.2 1.2 0 0 0 .585-.366c.073-.083.156-.188.209-.293.094-.198.115-.303.146-.522.02-.23-.052-.502-.178-.69-.125-.188-.303-.377-.512-.47Z"/><path fill="#fff8e0" stroke="#cb2821" d="M19.529 19.202c-1.056-1.024-1.588-2.822-.502-3.993q.11.141.25.282a4.8 4.8 0 0 0 2.696 1.432c.982.178 1.41-1.338.408-1.505-.784-.136-1.526-.481-2.058-1.098-.356-.418-.199-.805-.105-1.296a92 92 0 0 1 .293-1.652c.24-1.39.49-2.77.741-4.161.115.115.251.22.397.314a.85.85 0 0 0 .25.26 36 36 0 0 0 14.532 5.416c2.58.356 5.192.46 7.793.251 1.15-.094 2.31-.24 3.437-.45.544-.093 1.17-.177 1.734-.386-.208 1.255-.428 2.51-.637 3.764-.125.763-.23 1.547-.397 2.31-.052.199-.104.502-.26.648-.137.126-.053 0-.2.094l-.01.021s-.01-.02-.052-.062c-.669-.764-1.766.345-1.107 1.108.564.648 1.577.617 2.235.136.397-.293.627-.69.773-1.13 1.024 1.234 1.703 2.76-.146 3.733-1.41.732-3.27.92-4.826 1.098-3.552.376-7.146.104-10.645-.523-3.385-.607-6.707-1.516-9.998-2.51-1.588-.48-3.364-.93-4.596-2.1Zm22.878 1.412c1.003-.053 1.003-1.62 0-1.569a37.6 37.6 0 0 1-9.925-.72c-.982-.21-1.4 1.306-.417 1.515 3.395.711 6.873.983 10.342.774Z"/><path fill="#fff8e0" stroke="#cb2821" d="M18.642 32.265s-.063.02-.094.02a109 109 0 0 1-4.23-6.951.8.8 0 0 0-.252-.272c.815-1.882 2.299-3.252 3.991-4.36a.76.76 0 0 0 .324-.46c.7.69 1.567 1.203 2.476 1.6 2.11.91 4.408 1.463 6.623 2.06 2.371.647 4.763 1.202 7.198 1.588 4.554.732 9.318.92 13.83-.22l.022.074c-.512.115-.909.816-.439 1.338 1.463 1.631 2.727 3.398 3.155 5.593v.021c-2.967 1.328-5.61 3.314-7.668 5.844-3.907-3.22-9.517-3.91-14.082-1.714a.3.3 0 0 0-.042-.084c-2.726-2.927-6.821-4.495-10.812-4.077Zm-5.214-5.343a104 104 0 0 0 3.74 6.105c-.02.042-.041.063-.052.105A2670 2670 0 0 0 6.022 78.17a101 101 0 0 1-4.074-8.092c-.021-.031-.042-.041-.063-.073a.7.7 0 0 0 .271-.366 510 510 0 0 0 7.25-25.634 488 488 0 0 0 3.082-12.839c.314-1.39.554-2.843.94-4.244Z"/><path fill="#fff8e0" stroke="#cb2821" d="M28.347 37.445s.041.032.062.042c-.031.063-.073.115-.083.199a621 621 0 0 0-8.849 50.109 96 96 0 0 1-11.783-6.733c-.188-.303-.356-.617-.544-.92a2699 2699 0 0 1 11.408-46.324c.032 0 .052.01.084.01 3.614-.376 7.229.962 9.705 3.617Zm2.205 32.435a22.8 22.8 0 0 0 4.575-7.716c.146-.398-.157-.858-.543-.962-.428-.115-.825.146-.961.543a21 21 0 0 1-4.179 7.026c-.679.742.428 1.85 1.108 1.108Zm3.175-2.49a23 23 0 0 1-4.387 6.075c-.721.71.386 1.82 1.107 1.108a24.2 24.2 0 0 0 4.628-6.388c.188-.376.104-.846-.282-1.076-.345-.199-.878-.094-1.066.282Zm8.984-27.955a.64.64 0 0 0-.24.418 388 388 0 0 0-5.693 48.458 265 265 0 0 0-15.796-.063 618 618 0 0 1 8.849-50.15c.01-.032 0-.064 0-.105 4.084-2.165 9.391-1.58 12.88 1.442Zm8.743-5.529c.115 1.631 0 3.293-.031 4.914a644 644 0 0 1-2.35 42.32 143 143 0 0 0-10.698 6.534 389 389 0 0 1 5.6-47.4.77.77 0 0 0-.074-.492c.199 0 .397-.063.523-.22 1.87-2.394 4.272-4.36 7.03-5.656Z"/><path fill="#cb2821" stroke="#cb2821" d="M44.465 8.435s.031-.052.052-.073c-.02.021-.052.042-.073.063.01 0 .01.01.01.01zm-.836-1.327c.126-.084.282-.147.429-.178.146-.042.313-.063.47-.052.24.01.407.062.626.156q.22.11.377.283c.114.104.208.24.271.376.052.094.094.188.126.293.03.104.041.22.052.334.02.157 0 .314-.032.47a.74.74 0 0 1-.46.503.6.6 0 0 1-.292.073.83.83 0 0 1-.397-.105c-.407-.188-.804-.387-1.212-.575-.052-.02-.094-.02-.135-.052-.178-.084-.314-.282-.366-.46a.54.54 0 0 1-.01-.314.5.5 0 0 1 .093-.292c.063-.084.126-.189.21-.262.073-.073.156-.136.25-.198Zm-4.502 3.36a.9.9 0 0 1-.313-.094.8.8 0 0 1-.356-.47.83.83 0 0 1 .084-.607c.282-.501.773-.95 1.348-1.087.553-.125 1.16 0 1.546.44.177.208.313.428.376.69.063.25.083.543-.01.794a1.4 1.4 0 0 1-.617.742c-.324.178-.669.188-1.013.136a2.1 2.1 0 0 1-.69-.282c-.125-.074-.24-.168-.355-.262ZM34.29 6.104s-.01-.032-.02-.052a1.4 1.4 0 0 1-.032-.304c.01-.104.021-.209.042-.313.031-.094.073-.188.115-.272.02-.031.031-.063.052-.094.136-.178.24-.293.418-.418a1.4 1.4 0 0 1 .376-.178 1.4 1.4 0 0 1 .627 0c.157.02.303.094.439.157.136.073.26.177.365.272.105.094.178.188.262.292.073.105.156.21.219.324.115.178.125.398.084.596a.76.76 0 0 1-.366.47 1.8 1.8 0 0 1-.805.23c-.135.011-.271-.01-.407-.03-.073 0-.146-.032-.209-.053a.9.9 0 0 1-.313.073.85.85 0 0 1-.554-.23l-.052-.052c-.042-.063-.105-.125-.146-.188-.032-.073-.063-.157-.095-.23Zm.785 62.079a24.2 24.2 0 0 1-4.628 6.388c-.72.711-1.828-.397-1.107-1.108a23 23 0 0 0 4.387-6.074c.188-.376.721-.481 1.066-.282.386.23.47.7.282 1.076ZM32.86 8.722h.01v-.063s0-.063-.01-.084c.01.053 0 .094 0 .147Zm-1.328-.805c.084-.115.168-.23.283-.324.083-.063.156-.136.25-.189.063-.041.136-.062.199-.094.136-.052.25-.083.397-.104a1.2 1.2 0 0 1 .512.02c.25.042.522.21.679.398.062.073.125.157.177.24.042.084.073.168.105.262.052.115.062.261.073.387 0 .135-.021.271-.042.407a.6.6 0 0 1-.052.188c-.052.126-.094.251-.178.366a1.6 1.6 0 0 1-.177.22c-.063.073-.147.125-.22.178-.104.083-.23.125-.344.167-.042.02-.074.02-.105.031-.104.01-.22.032-.324.032-.648 0-1.212-.44-1.535-.994a.8.8 0 0 1-.074-.595.72.72 0 0 1 .303-.419c.021-.062.032-.125.073-.177Zm10.876 12.697a39 39 0 0 1-10.342-.774c-.982-.209-.564-1.725.418-1.516 3.259.68 6.591.92 9.924.722 1.003-.052 1.003 1.516 0 1.568ZM30.55 69.877c-.679.742-1.786-.366-1.107-1.109a21 21 0 0 0 4.178-7.025c.136-.398.533-.659.962-.544.386.105.69.565.543.962a22.8 22.8 0 0 1-4.576 7.715ZM28.879 6.056c-.053.105-.136.21-.21.293a1.2 1.2 0 0 1-.585.366c-.219.073-.428.042-.637-.021a.9.9 0 0 1-.292.157c-.188.063-.428.02-.606-.084a.8.8 0 0 1-.355-.47 2 2 0 0 1-.052-.418c-.011-.136.01-.283.03-.419.022-.073.032-.136.063-.209a1.6 1.6 0 0 1 .418-.658c.094-.084.188-.168.293-.22.22-.105.449-.178.7-.178s.46.073.69.178c.208.094.386.282.511.47.125.189.199.46.178.69a1.5 1.5 0 0 1-.146.523Z"/><path fill="#cb2821" stroke="#cb2821" d="M17.169 33.026a104 104 0 0 1-3.74-6.105c-.387 1.4-.627 2.854-.94 4.244a488 488 0 0 1-3.082 12.838 511 511 0 0 1-7.25 25.635.7.7 0 0 1-.272.366c.021.031.042.042.063.073a101 101 0 0 0 4.074 8.092 2670 2670 0 0 1 11.094-45.038c.01-.042.032-.063.053-.105Zm26.806 7.245a389 389 0 0 0-5.6 47.401 143 143 0 0 1 10.698-6.534 644 644 0 0 0 2.35-42.32c.031-1.62.146-3.283.032-4.914-2.758 1.297-5.161 3.262-7.031 5.656-.126.157-.324.22-.522.22a.77.77 0 0 1 .073.491Zm-15.65-2.582c.011-.084.053-.136.084-.199a.2.2 0 0 1-.062-.042c-2.476-2.655-6.09-3.993-9.705-3.617-.032 0-.053-.01-.084-.01A2698 2698 0 0 0 7.15 80.145c.188.303.355.617.544.92a96 96 0 0 0 11.783 6.733 621 621 0 0 1 8.849-50.11ZM32.18 2.07a27.8 27.8 0 0 0-6.696.93c-.909.241-1.89.481-2.664 1.046-.46.335-.898.805-.783 1.432.083.45.365.805.846.774.512-.031.762.355.752.753a34.7 34.7 0 0 0 11.282 4.37c3.834.742 7.825.836 11.69.23.773-.115 2.727-.136 2.748-1.286 0-.732-.826-1.85-1.243-2.394-1.066-1.433-2.529-2.499-4.085-3.314-3.583-1.893-7.835-2.604-11.847-2.54Zm4.252 11.134A36 36 0 0 1 21.901 7.79a.85.85 0 0 1-.25-.262 2.4 2.4 0 0 1-.398-.313c-.25 1.39-.501 2.77-.741 4.16a91 91 0 0 0-.293 1.652c-.094.492-.25.879.104 1.297.533.617 1.275.962 2.059 1.098 1.002.167.574 1.683-.408 1.505a4.8 4.8 0 0 1-2.695-1.432 3 3 0 0 1-.25-.283c-1.087 1.171-.555 2.97.5 3.994 1.233 1.171 3.01 1.62 4.597 2.102 3.29.993 6.613 1.902 9.998 2.509 3.5.627 7.093.899 10.645.522 1.556-.177 3.416-.366 4.826-1.097 1.849-.973 1.17-2.499.146-3.733-.146.44-.376.837-.773 1.13-.658.48-1.671.512-2.235-.137-.659-.763.438-1.87 1.107-1.108.042.042.052.053.052.063l.01-.02c.147-.095.063.03.2-.095.156-.146.208-.45.26-.648.167-.763.272-1.547.397-2.31.21-1.255.429-2.51.638-3.764-.565.209-1.191.293-1.735.387a35 35 0 0 1-3.437.45c-2.6.208-5.212.104-7.793-.252Zm-15.45 75.043q7.898-.204 15.795.063a388 388 0 0 1 5.693-48.457.64.64 0 0 1 .24-.418c-3.489-3.022-8.796-3.607-12.88-1.443 0 .042.01.073 0 .105a618 618 0 0 0-8.848 50.15Zm16.077 1.642q-8.242-.3-16.485-.063a.7.7 0 0 1-.679-.408.77.77 0 0 1-.679 0A98.6 98.6 0 0 1 6.743 82.32a.7.7 0 0 1-.24-.26c-.042-.043-.084-.064-.115-.126l-.063-.094c-.501.104-1.118-.293-.961-.952l.125-.502a102 102 0 0 1-4.9-9.513c-.156-.345-.114-.743.178-.993a.67.67 0 0 1-.125-.66 509 509 0 0 0 7.626-27.108 503 503 0 0 0 3.207-13.59c.418-1.893.815-3.848 1.901-5.51.993-1.516 2.382-2.687 3.887-3.67a.8.8 0 0 1 .302-.115 5 5 0 0 1-.365-.721c-.606-1.548-.428-3.273.773-4.475a.69.69 0 0 1 .554-.23c.01-.502.146-1.035.24-1.516.45-2.53.898-5.06 1.348-7.58.062-.376.323-.553.605-.564.053-.125.115-.25.189-.366 1.337-2.08 4.774-2.53 6.988-2.885C33.173.043 38.835.545 43.745 2.74c2.12.941 4.116 2.29 5.547 4.15.773 1.004 1.964 2.823 1.598 4.256.188.188.262.47.22.742-.334 1.924-.658 3.847-.982 5.76.041.032.083.053.125.095 1.295 1.306 2.727 3.084 1.922 5.039-.595 1.463-2.193 2.111-3.625 2.477-.01 0-.031.01-.042.01-4.513 1.14-9.276.952-13.83.22-2.435-.386-4.827-.94-7.199-1.589-2.214-.596-4.512-1.15-6.623-2.06-.909-.397-1.776-.909-2.476-1.599a.76.76 0 0 1-.323.46c-1.693 1.108-3.176 2.478-3.991 4.36a.8.8 0 0 1 .25.271 109 109 0 0 0 4.232 6.953c.03 0 .062-.021.094-.021 3.99-.418 8.085 1.15 10.812 4.077.02.032.031.052.042.084 4.565-2.196 10.175-1.506 14.082 1.714 2.058-2.53 4.7-4.516 7.667-5.844v-.02c-.428-2.196-1.692-3.963-3.154-5.594-.47-.523-.074-1.223.438-1.338.22-.052.47 0 .669.23 1.316 1.464 2.539 3.053 3.197 4.935.69 1.996.668 4.15.637 6.23a583 583 0 0 1-.46 14.815 647 647 0 0 1-1.953 29.837c-.01.105-.053.199-.084.282a.69.69 0 0 1-.376.648 148 148 0 0 0-11.617 7.12.66.66 0 0 1-.344.126c-.21.439-.773.533-1.139.324Z"/></svg>