<svg xmlns="http://www.w3.org/2000/svg" width="249" height="137" fill="none"><path fill="#fff8e0" stroke="#cb2821" d="M48.926 81.044c-9.966 1.84-19.744 6.304-27.391 13.016-3.395 2.98-6.31 7.036-5.641 11.793.637 4.527 4.011 8.259 7.438 11.029 14.009 11.344 33.993 7.935 50.04 3.754 11.208-2.917 22.323-6.242 33.47-9.378 11.7-3.293 23.39-6.587 35.08-9.869 11.596-3.273 23.191-6.513 34.777-9.796 8.346-2.363 16.819-5.05 24.215-9.713 3.541-2.226 6.811-4.924 9.444-8.185 2.716-3.356 5.526-7.747 5.547-12.201.031-4.412-3.27-7.214-7.125-8.594-5.014-1.808-10.76-2.29-16.046-2.498a74 74 0 0 0-8.618.146.8.8 0 0 0-.376.115c.125-4.067.219-8.134.334-12.2a.66.66 0 0 0 .366.073c15.095-.868 30.389.784 44.889 5.133 5.098 1.526 10.446 3.92 13.894 8.134 1.692 2.07 2.768 4.568 2.977 7.234.282 3.701-1.086 7.298-2.821 10.497-5.756 10.559-16.119 17.166-26.743 22.09-5.798 2.687-11.773 4.987-17.697 7.36a1667 1667 0 0 1-21.185 8.353c-27.621 10.633-55.848 20.261-85.109 25.196-14.573 2.457-29.376 3.69-44.158 3.251-13.382-.397-27.725-2.342-37.618-12.273-4.262-4.297-7.396-9.734-8.483-15.724-1.17-6.409.199-13.068 3.113-18.829C11.767 76.601 23.896 69.91 36.515 65.52c2.957-1.035 5.955-1.976 8.953-2.906a201 201 0 0 0 3.562 18.42c-.03 0-.062 0-.104.011Z"/><path fill="#fff8e0" stroke="#cb2821" d="M49.345 82.553s.042-.01.063-.021a203 203 0 0 0 1.598 6.001c.439 1.537.856 3.168 2.36 3.983 1.578.868 3.73.68 5.454.742 4.596.178 9.193.272 13.8.283a375 375 0 0 0 58.501-4.527c.407-.063.658-.596.543-.962a534 534 0 0 1-3.092-10.517 761 761 0 0 1 25.751 3.398.93.93 0 0 0 .481-.053.68.68 0 0 0 .459.032 53.2 53.2 0 0 0 13.435-5.3c3.99-2.238 8.117-5.02 11.021-8.626 3.029-3.753 3.74-8.238 3.917-12.943l.063-2.017a.66.66 0 0 0 .418.094c5.672-.408 11.376-.22 16.996.658 4.012.628 9.413 1.286 12.025 4.83 2.977 4.046-.063 9.545-2.476 13.079-2.319 3.398-5.349 6.283-8.713 8.636-6.738 4.715-14.625 7.506-22.46 9.837-10.447 3.105-20.977 5.928-31.465 8.887-21.886 6.157-43.761 12.315-65.647 18.473-8.691 2.446-17.414 4.934-26.42 5.959-8.043.92-16.505.774-24.1-2.331-7.04-2.886-17.957-11.082-13.455-19.864 2.162-4.224 6.56-7.214 10.467-9.691a57.5 57.5 0 0 1 13.57-6.336 61 61 0 0 1 6.906-1.704Z"/><path fill="#fff8e0" stroke="#cb2821" d="M182.925 23.86c-.251 8.656-.491 17.323-.732 25.979-.146 4.84.136 10.162-2.476 14.448-2.371 3.89-6.445 6.743-10.269 9.075-4.46 2.718-9.287 4.704-14.343 5.97a169.8 169.8 0 0 1-6.498-39.948c9.392-1.589 18.501-4.777 26.796-9.44 2.747-1.547 5.652-3.45 7.522-6.085ZM45.104 42.688c1.755 2.665 4.586 4.411 7.573 5.572 4.461 1.725 9.34 2.572 14.04 3.335A122 122 0 0 0 81.96 53.1c10.3.366 20.664-.564 30.734-2.78 2.351-.513 4.68-1.109 6.989-1.767a524 524 0 0 0 7.051 28.175 485 485 0 0 0 3.166 10.893 374 374 0 0 1-51.92 4.318 387 387 0 0 1-13.027-.063c-2.215-.052-4.43-.115-6.644-.209-.961-.031-1.953-.02-2.904-.167-1.358-.199-2.09-.847-2.518-2.122-1.327-3.942-2.225-8.103-3.134-12.159a195 195 0 0 1-2.434-12.765 93 93 0 0 1-.428-2.917 197 197 0 0 1-1.787-18.85Z"/><path fill="#fff8e0" stroke="#cb2821" d="M183.187 17.794a.76.76 0 0 0-.105.387c-.02.606-.031 1.202-.052 1.808-.574 2.27-2.319 4.308-4.178 5.824-3.396 2.76-7.595 4.683-11.575 6.419a80.6 80.6 0 0 1-13.361 4.474 82 82 0 0 1-6.906 1.36.8.8 0 0 0-.23.073c-2.402-1.328-5.035-2.07-7.688-2.76a176 176 0 0 1-10.019-2.875 167 167 0 0 1-19.263-7.507l-.345-.157c-.731-.334-1.41.346-1.076 1.077a251 251 0 0 0 10.917 20.951c0 .052.021.105.042.157-18.648 5.28-38.517 6.032-57.488 2.07-4.053-.836-8.378-1.694-11.93-3.91-2.883-1.798-4.66-4.579-4.994-7.799-.02-.627-.031-1.244-.041-1.871l.03-.356c.847-8.96 9.486-13.612 16.862-16.769 17.738-7.59 36.48-13.434 55.712-15.504 18.699-2.028 37.994-.408 55.628 6.377 3.385 1.307 7.542 2.938 9.36 6.336a6.1 6.1 0 0 1 .7 2.195Z"/><path fill="#cb2821" stroke="#cb2821" d="M155.106 79.33c5.056-1.266 9.882-3.252 14.343-5.97 3.823-2.332 7.897-5.186 10.269-9.075 2.612-4.286 2.329-9.608 2.476-14.448.24-8.657.48-17.323.731-25.98-1.87 2.635-4.774 4.538-7.522 6.085-8.294 4.663-17.404 7.851-26.795 9.44a169.7 169.7 0 0 0 6.498 39.947ZM28.869 90.588c-3.907 2.478-8.305 5.468-10.468 9.691-4.502 8.782 6.414 16.979 13.455 19.864 7.595 3.105 16.057 3.251 24.1 2.331 9.006-1.024 17.729-3.512 26.42-5.959 21.886-6.157 43.761-12.315 65.647-18.473 10.488-2.959 21.018-5.781 31.465-8.886 7.835-2.332 15.722-5.123 22.46-9.838 3.364-2.352 6.394-5.238 8.713-8.636 2.413-3.533 5.453-9.032 2.476-13.078-2.612-3.544-8.013-4.203-12.024-4.83-5.621-.878-11.325-1.067-16.997-.659a.66.66 0 0 1-.418-.094l-.063 2.018c-.177 4.704-.888 9.19-3.917 12.943-2.904 3.606-7.031 6.387-11.021 8.624a53.2 53.2 0 0 1-13.435 5.301.68.68 0 0 1-.459-.031.93.93 0 0 1-.481.052 761 761 0 0 0-25.751-3.398 534 534 0 0 0 3.092 10.517c.115.366-.135.9-.543.962a375 375 0 0 1-58.5 4.527c-4.608-.01-9.204-.104-13.8-.282-1.725-.063-3.877.125-5.454-.742-1.504-.816-1.922-2.447-2.361-3.984a203 203 0 0 1-1.598-6 .2.2 0 0 1-.063.02 61 61 0 0 0-6.905 1.704 57.6 57.6 0 0 0-13.57 6.336Zm32.99-41.494c18.971 3.962 38.841 3.21 57.488-2.07a1 1 0 0 1-.042-.157 251 251 0 0 1-10.917-20.951c-.334-.732.345-1.412 1.076-1.077l.345.157a167 167 0 0 0 19.264 7.506 176 176 0 0 0 10.018 2.875c2.653.69 5.286 1.433 7.689 2.76a.7.7 0 0 1 .229-.073 82 82 0 0 0 6.906-1.359 80.6 80.6 0 0 0 13.361-4.475c3.98-1.735 8.18-3.659 11.575-6.419 1.859-1.516 3.604-3.554 4.178-5.823.021-.606.032-1.202.053-1.809 0-.146.041-.282.104-.386a6.1 6.1 0 0 0-.7-2.196c-1.817-3.398-5.975-5.029-9.36-6.335-17.634-6.785-36.929-8.406-55.628-6.378C98.266 4.955 79.524 10.8 61.786 18.39c-7.375 3.157-16.015 7.81-16.86 16.769l-.032.355c.01.627.02 1.244.041 1.872.335 3.22 2.11 6 4.994 7.799 3.552 2.216 7.877 3.073 11.93 3.91Zm64.874 27.631a523 523 0 0 1-7.052-28.175 114 114 0 0 1-6.989 1.767 123 123 0 0 1-30.734 2.78 122 122 0 0 1-15.241-1.505c-4.701-.763-9.58-1.61-14.04-3.335-2.988-1.16-5.82-2.906-7.574-5.572.292 6.304.888 12.598 1.786 18.85.125.972.272 1.944.428 2.916a195 195 0 0 0 2.434 12.766c.91 4.056 1.808 8.217 3.134 12.158.429 1.276 1.16 1.924 2.518 2.123.95.146 1.943.135 2.904.167 2.215.094 4.43.157 6.644.209 4.346.094 8.681.115 13.027.063a374 374 0 0 0 51.92-4.318 480 480 0 0 1-3.165-10.894ZM3.348 115.66C-2.41 103.772 1.06 90.234 9.292 80.448 18.38 69.638 32.19 65.09 45.239 61.044a202 202 0 0 1-1.87-23.418 10.6 10.6 0 0 1-.032-1.997c-.01-.104-.01-.209-.01-.313q0-.188.062-.345c.178-1.861.732-3.69 1.526-5.374 3.875-8.155 13.476-11.584 21.29-14.72C85.27 7.193 105.42 1.62 126.043.648c10.029-.47 20.131.167 29.992 2.091 4.952.972 9.841 2.28 14.615 3.952 3.845 1.338 8.034 2.75 11.115 5.54 2.32 2.102 3.479 5.082 2.821 8.05-.157 5.584-.313 11.177-.481 16.77.094-.042.209-.073.335-.084 3.802-.22 7.605-.282 11.418-.177a133.3 133.3 0 0 1 23.39 2.739c6.383 1.317 13.048 2.822 18.772 6.074 4.513 2.561 8.577 6.503 9.538 11.803 1.191 6.555-2.371 13.1-6.247 18.139-7.375 9.587-18.449 15.243-29.355 19.843-14.051 5.927-28.3 11.458-42.58 16.8-28.927 10.81-58.689 20.157-89.465 23.732-7.689.899-15.42 1.422-23.16 1.505-7.438.084-14.97-.083-22.325-1.254-12.807-2.049-25.218-8.395-31.078-20.512Zm12.546-9.806c-.669-4.757 2.246-8.814 5.641-11.793 7.647-6.712 17.425-11.176 27.391-13.016a.4.4 0 0 1 .105-.01 201 201 0 0 1-3.563-18.422c-2.998.93-5.996 1.872-8.952 2.907C23.896 69.909 11.768 76.6 5.5 88.958c-2.915 5.76-4.284 12.42-3.114 18.829 1.087 5.99 4.22 11.427 8.483 15.723 9.893 9.932 24.236 11.877 37.618 12.274 14.782.439 29.585-.794 44.158-3.251 29.261-4.935 57.488-14.564 85.109-25.196a1666 1666 0 0 0 21.186-8.353c5.923-2.373 11.898-4.673 17.696-7.36 10.624-4.924 20.987-11.531 26.744-22.09 1.734-3.2 3.102-6.796 2.82-10.497-.209-2.666-1.285-5.165-2.977-7.235-3.447-4.213-8.796-6.607-13.894-8.133-14.5-4.35-29.794-6.001-44.889-5.133a.66.66 0 0 1-.366-.074c-.115 4.067-.209 8.134-.334 12.2a.84.84 0 0 1 .376-.114 74 74 0 0 1 8.618-.147c5.286.21 11.032.69 16.046 2.5 3.855 1.38 7.156 4.181 7.125 8.593-.021 4.454-2.831 8.844-5.547 12.2-2.633 3.262-5.903 5.96-9.444 8.186-7.396 4.663-15.868 7.35-24.215 9.713-11.586 3.282-23.181 6.523-34.777 9.795-11.69 3.283-23.38 6.576-35.08 9.87-11.146 3.136-22.261 6.461-33.47 9.377-16.047 4.182-36.031 7.59-50.04-3.753-3.427-2.77-6.8-6.503-7.438-11.029Z"/></svg>