<svg xmlns="http://www.w3.org/2000/svg" width="341" height="295" fill="none"><path fill="#fff8e0" stroke="#cb2821" d="M147.924 135.556c.188.429.261.878.25 1.338-.01.272-.125.721-.25.962-.053.094-.105.178-.157.272l-.021.021s0 .021-.021.021v.02l-.073.074c-.063.073-.115.115-.178.177 0 0 0 .011-.01.011h-.011l-.01.01c-.052.042-.105.073-.157.105-.021.01-.052.021-.083.042h-.021s-.011.01-.032.021h-.02s-.147.031-.189.052h-.146s-.042 0-.062-.011c-.011 0-.032-.01-.063-.021l-.021-.01h-.031a.27.27 0 0 0-.126-.094h-.01s0-.021-.011-.021c-.031-.042-.104-.105-.114-.115l-.021-.021h-.011v-.021s-.052-.073-.063-.083c0-.032-.031-.053-.041-.084.344-.146.606-.575.47-.951-.188-.492-.408-1.025-.429-1.569 0-.219 0-.418.084-.627.031-.063.073-.167.094-.188 0-.011.021-.021.021-.031a1 1 0 0 1 .209-.22h.021l.021-.031c.031-.011.062-.032.094-.053 0 0 .062-.01.073-.021h.01s.084-.01.115-.01a.01.01 0 0 1 .011.01c.02.011.052.011.062.021.021 0 .053.011.063.011h.01l.011.021c.115.073.083.042.177.136.063.052.178.177.199.198.125.157.292.439.387.659Zm11.595-27.492c.188.418.261.878.251 1.338a2.9 2.9 0 0 1-.251.962c-.052.083-.104.177-.167.261 0 0-.01.011-.01.031 0 .011-.011.011-.011.011l-.021.031a.4.4 0 0 0-.062.073l-.178.178h-.011l-.02.021h-.011c-.052.031-.094.063-.146.094-.021.011-.052.032-.084.052h-.021s-.01 0-.02.011c-.011-.011-.021 0-.021 0-.021.01-.199.042-.199.042-.042 0-.094 0-.125.01h-.011s-.041-.021-.062-.021c-.011 0-.032-.01-.063-.021h-.031v-.021h-.021s-.073-.052-.126-.083c-.01 0-.02 0-.031-.021-.042-.052-.094-.094-.104-.115-.011-.011-.032-.031-.042-.052 0 0-.011 0-.011-.011a.3.3 0 0 0-.041-.063l-.053-.083c.345-.136.617-.565.481-.941-.188-.502-.408-1.035-.428-1.579-.011-.219 0-.407.083-.617.032-.062.073-.167.094-.188 0 0 .021-.031.032-.052 0 0 .083-.105.125-.136a1 1 0 0 1 .073-.063h.021l.021-.031a.4.4 0 0 1 .094-.052h.031l.042-.011c.031-.01.052-.01.063-.01h.073s.052.01.062.021c.011 0 .032 0 .042.021 0 0 .011 0 .042.021.115.062.084.031.178.125.062.052.177.178.198.209.126.146.293.439.387.659zm17.487-2.742c.01.136.01.261 0 .387 0 .01-.011.031 0 .041l-.011.021c0 .063-.021.126-.031.178-.031.136-.073.261-.115.387-.01.021-.01.042-.021.063 0 .01-.01.01-.01.02v.021a.7.7 0 0 1-.063.126c-.063.115-.125.23-.199.334-.01.011-.02.032-.031.042l-.031.032-.011.02c-.031.032-.062.074-.094.105-.083.105-.188.188-.282.272l-.031.031s-.094.063-.146.094c-.063.042-.126.074-.178.105l-.063.031h-.01s-.031.021-.052.021c-.094.031-.178.063-.282.084a.4.4 0 0 1-.115.021 1 1 0 0 0-.157.021c-.063 0-.125 0-.188-.011h-.042s-.021 0-.031-.01h-.042c-.104-.032-.209-.053-.313-.084-.021-.01-.053-.021-.084-.042-.052-.01-.094-.042-.146-.062a1 1 0 0 1-.167-.105c-.021 0-.084-.052-.115-.073h-.021l-.125-.126a2 2 0 0 1-.157-.146c-.052-.052-.094-.115-.146-.167-.011-.011-.032-.032-.042-.053h-.011c-.083-.146-.167-.271-.24-.418a.5.5 0 0 1-.052-.115l-.063-.157a4 4 0 0 1-.115-.46v-.062c-.01-.074-.01-.147-.01-.22s.01-.136.01-.209c.011-.031.011-.063.021-.094l.063-.22s.021-.052.031-.083v-.021s.042-.084.052-.136c.032-.021.053-.063.074-.094.031-.052.062-.094.094-.147l.02-.02c.095-.105.189-.199.293-.283h.01-.02a.1.1 0 0 1 .041-.021c.053-.021.084-.052.136-.083l.146-.084c.021-.01.053-.031.094-.042.011 0 .021-.01.032-.01l.021-.011c.083-.031.167-.062.261-.083.052-.021.115-.032.167-.042.031-.011.104-.011.146-.021h-.063c.084-.01.095-.01.074 0 .219-.021.428-.031.658-.01h.021s.021.01.031.01l.167.031c.126.032.251.063.366.105h.021l.021.01.021.011c.052.021.094.052.146.073s.094.052.146.084c.01.01.042.031.073.052h.011s.083.073.104.084c.042.041.084.073.115.115.042.041.083.094.125.135 0 0 0 .011.011.021s.021.032.031.053a.5.5 0 0 1 .094.156.3.3 0 0 1 .042.063l.01.021s.011.011.011.021c.01.031.021.084.031.094q.031.107.063.23c.01.011.021.063.021.094.01.011 0 .021 0 .021 0 .031.01.073.01.084zm-4.303 14.126c.01.125.01.261 0 .386 0 0-.01.032 0 .042l-.01.021-.032.178a5 5 0 0 1-.115.376c-.01.021-.01.042-.021.063 0 .01-.01.01-.01.021 0 .01-.011.01-.011.021a.6.6 0 0 1-.062.125c-.063.115-.126.23-.209.345-.011.011-.011.021-.021.032-.031.031-.042.052-.042.052a1 1 0 0 1-.094.115c-.083.094-.177.167-.271.272h-.011l-.01.01s-.011 0-.021.011c-.052.031-.094.073-.146.104-.063.031-.126.073-.188.105-.021.01-.053.021-.074.031-.104.031-.219.073-.323.105-.032.01-.063.01-.105.02h-.021s-.115.011-.146.011h-.188s-.052-.011-.073-.011h-.021l-.021-.01a3 3 0 0 1-.314-.084l-.083-.031c-.052-.021-.094-.042-.157-.073l-.156-.094s-.084-.063-.115-.084h-.021l-.126-.115-.156-.157c-.052-.052-.094-.104-.147-.157-.01-.01-.01-.02-.02-.02v-.021s-.011-.021-.021-.032c-.084-.136-.167-.261-.241-.407-.01-.021-.041-.074-.052-.105l-.01-.021s-.042-.094-.052-.146c-.053-.147-.084-.303-.115-.45v-.063c-.011-.083-.011-.146-.011-.219s.011-.146.011-.22c.01-.031.01-.062.02-.094.021-.073.032-.146.063-.209 0-.031.021-.063.032-.094v-.021l.062-.146a2 2 0 0 0 .157-.23l.021-.021c.094-.094.188-.188.292-.282h.021s.094-.074.146-.105c.053-.031.094-.063.147-.084l.083-.041h.011s.041-.021.052-.021c.083-.042.167-.073.261-.094.052-.011.115-.032.167-.042.032-.011.105-.011.147-.021h.01c.219-.021.428-.021.658-.011h.021s.021 0 .031.011l.167.031c.126.032.241.073.366.115h.011s0 .011.01.011h.01s.032.021.042.021c.042.021.094.041.136.062a.7.7 0 0 0 .146.084c.011.01.042.031.073.052l.021.021h.021l.063.052a.7.7 0 0 1 .125.126 1 1 0 0 1 .136.146c.01.011.021.032.031.053a.6.6 0 0 1 .094.156.4.4 0 0 1 .053.094c.01.021.031.084.041.105l.063.23c.011.01.021.063.021.105.01.01 0 .02 0 .02 0 .032.01.074.01.084zM160.03 32.725c.481 4.433-3.301 8.416-5.453 11.918a55 55 0 0 0-3.186 5.949c2.256-6.67 3.123-13.78 2.423-20.794-.021-.304-.261-1.035-.094-1.328.157-.272.93-.418 1.202-.44.783-.083 1.588.189 2.256.576 1.484.836 2.674 2.394 2.852 4.119Zm3.25 37.595c1.19 4.997-1.588 10.423-6.718 11.635-2.778.659-5.85.063-8.023-1.819-.355-.313-.804-.23-1.076.021a11.7 11.7 0 0 0-1.368-2.227c-1.766-2.248-4.252-3.868-6.968-4.673 2.841-.805 5.202-2.614 7.083-5.102 1.535-2.007 2.684-4.39 3.175-6.89l1.056.22c-.157.481.25 1.192.95 1.098 5.161-.711 10.645 2.561 11.889 7.736Z"/><path fill="#fff8e0" stroke="#cb2821" d="M147.912 56.39c1.295 7.108-4.262 15.43-11.659 15.775a.75.75 0 0 0-.689.502 13.5 13.5 0 0 0-3.604.355c.877-2.216.94-4.673.501-7.046-.532-2.948-1.608-6.126-3.092-8.75.376-.021.731-.272.752-.743.22-4.244 3.416-7.82 7.679-8.311 3.875-.44 7.312 1.809 9.078 5.175a10.3 10.3 0 0 1 .846 2.227.76.76 0 0 0 .188.815Zm-34.997-.506.366.46c-2.768 2.341-4.858 5.582-5.599 9.126a9 9 0 0 0-.784-1.024c-.313-.356-.721-.303-.992-.063-2.8-2.268-7.02-2.101-10.144-.209-.031 0-.063 0-.104.01-4.534.92-7.22-3.94-6.488-7.861.742-3.869 3.886-6.848 7.177-8.74 3.333-1.903 7.783-3.022 11.366-1.13 3.04 1.6 5.171 5.186 4.001 8.615-.261.763.658 1.171 1.201.816Z"/><path fill="#fff8e0" stroke="#cb2821" d="M108.539 73.996c0 1.725-.272 3.429-.805 4.903-.679 1.871-2.026 3.335-3.458 4.683a11.6 11.6 0 0 0-2.193 1.997c-1.432 1.223-3.061 2.3-4.942 2.478-3.03.282-5.599-1.673-6.999-4.234v-.324a.72.72 0 0 0-.47-.68 9.1 9.1 0 0 1-.616-2.54c-.418-4.621 1.953-9.514 5.098-12.786.668-.69 1.4-1.328 2.204-1.84 1.201-.784 2.538-1.318 3.991-1.39 2.225-.126 4.502.7 5.724 2.634.22.334.564.418.867.334.167.304.324.617.45.941 0 .262.01.534.02.795.094 1.735.523 3.419 1.129 5.029Zm22.104-9.023c.659 2.582.794 5.311-.25 7.737a.6.6 0 0 0-.178.219 20.4 20.4 0 0 1-2.298 3.45c-.011.01-.021.031-.042.042-.7.669-1.368 1.37-1.985 2.09-2.152 1.945-4.743 3.367-7.5 3.597-2.811.24-4.722-1.526-6.08-3.795-.899-1.505-1.714-3.136-2.309-4.809 0-.303-.021-.606-.042-.91-.104-1.589-.407-3.157-.961-4.61.115-3.774 1.943-7.391 4.764-9.984 3.447-3.189 10.06-5.792 13.497-1.192 1.703 2.29 2.684 5.437 3.384 8.165Zm-17.894 16.502a11.6 11.6 0 0 0-4.815.376c.01-.02.031-.042.041-.063 1.014-1.442 1.588-3.115 1.849-4.85.126.271.262.543.397.805.669 1.317 1.484 2.655 2.528 3.732Zm10.405.72c-.856 1.464-1.504 3.064-1.682 4.726a12.1 12.1 0 0 0-3.113-3.22c1.651-.115 3.301-.711 4.795-1.506Z"/><path fill="#cb2821" stroke="#cb2821" d="M338.501 176.719c2.82 17.041 2.173 34.646-3.573 51.039-4.576 13.089-11.92 25.195-21.457 35.263-9.413 9.942-20.946 17.794-33.659 22.854-15.273 6.074-32.093 8.05-48.431 7.694-17.31-.376-34.516-3.429-51.189-7.987a254 254 0 0 1-47.02-18.013c-14.991-7.538-29.229-16.55-42.497-26.816a264 264 0 0 1-35.873-33.528C43.895 194.92 34.18 181.58 25.718 167.466c-8.545-14.249-15.816-29.419-20.37-45.446-4.21-14.856-6.154-30.694-3.897-46.052 1.88-12.901 6.623-25.583 14.218-36.215 6.508-9.116 15.158-16.55 25.416-20.91 0 0 .01 0 .01-.01a150.6 150.6 0 0 1 23.59-10.11C81.19 3.278 98.572.654 115.924.508c17.352-.147 34.693 2.174 51.46 6.575 16.182 4.245 31.852 10.371 46.832 17.825 15.064 7.497 29.428 16.351 43.155 26.095 13.873 9.828 27.579 20.24 38.757 33.162 11.074 12.807 19.212 27.809 26.2 43.146 7.198 15.787 13.33 32.232 16.172 49.409Zm-.032 24.693c.888-17.083-2.653-34.082-8.158-50.171-2.821-8.238-6.174-16.289-9.81-24.192-3.468-7.538-7.208-14.961-11.449-22.091-4.294-7.192-9.12-14.082-14.647-20.386-5.505-6.263-11.627-11.95-18.041-17.26-12.787-10.58-26.576-20.168-40.752-28.782-14.114-8.583-28.906-16.1-44.325-22.049-15.743-6.074-32.134-10.528-48.859-12.754-16.997-2.248-34.338-2.3-51.293.303-15.304 2.342-30.253 6.827-44.179 13.58.084.366-.062.784-.522.92a58 58 0 0 0-4.565 1.662c-.021.01-.042.021-.053.021-.041.032-.094.042-.135.063a54 54 0 0 0-11.847 6.88c-10.28 7.861-17.686 19.12-22.21 31.144-4.888 12.974-6.34 26.763-5.087 40.532 1.494 16.414 6.603 32.346 13.529 47.223 6.863 14.752 15.471 28.75 25.113 41.85 9.559 12.995 20.371 25.091 32.176 36.089a262.7 262.7 0 0 0 38.673 29.817c14.02 8.855 28.896 16.372 44.367 22.341 15.587 6.001 31.831 10.507 48.316 13.256 16.976 2.834 34.474 3.701 51.533 1.056 14.489-2.237 28.331-7.088 40.522-15.316 11.262-7.59 20.779-17.668 27.851-29.251 8.211-13.445 13.037-28.74 13.852-44.485Z"/><path fill="#fff8e0" stroke="#cb2821" d="M330.31 151.238c5.505 16.089 9.046 33.088 8.158 50.171-.814 15.745-5.641 31.04-13.852 44.484-7.072 11.584-16.589 21.662-27.851 29.252-12.191 8.228-26.033 13.079-40.522 15.316-17.059 2.645-34.557 1.778-51.533-1.056-16.485-2.749-32.729-7.255-48.316-13.256-15.471-5.97-30.347-13.486-44.367-22.341a262.7 262.7 0 0 1-38.673-29.817c-11.805-10.998-22.617-23.094-32.176-36.089-9.642-13.1-18.25-27.098-25.113-41.85-6.926-14.877-12.035-30.81-13.529-47.223-1.253-13.769.199-27.558 5.088-40.533 4.523-12.022 11.93-23.282 22.21-31.144a54 54 0 0 1 11.846-6.879c.042-.02.094-.031.136-.063.01 0 .03-.01.052-.02a58 58 0 0 1 4.565-1.663c.46-.136.606-.554.522-.92 13.926-6.754 28.875-11.239 44.18-13.58 16.954-2.604 34.295-2.551 51.292-.304 16.725 2.227 33.116 6.68 48.859 12.755 15.419 5.949 30.212 13.465 44.325 22.049 14.176 8.614 27.966 18.201 40.752 28.781 6.414 5.311 12.536 10.998 18.042 17.26 5.526 6.305 10.352 13.194 14.646 20.387 4.241 7.13 7.981 14.553 11.449 22.091 3.636 7.903 6.989 15.953 9.81 24.192Zm-8.379 65.999c10.228-30.109.105-61.797-13.131-89.219-6.529-13.507-14.218-26.596-24.508-37.595-10.426-11.144-22.888-20.135-35.477-28.645-25.113-16.958-52.64-30.758-82.183-37.982-30.201-7.391-62.565-7.632-92.338 1.903a139.4 139.4 0 0 0-21.3 8.824C32.162 43.012 19.344 64.61 16.43 86.45c-3.865 28.99 8.671 57.949 23.975 81.828a237.7 237.7 0 0 0 59.954 63.699 238.6 238.6 0 0 0 82.152 38.557c15.126 3.816 30.681 6.304 46.31 6.419 14.646.115 29.678-1.809 43.343-7.297 23.233-9.315 41.703-28.688 49.767-52.42Z"/><path fill="#fff8e0" stroke="#cb2821" d="M316.186 149.127c5.265 14.218 8.838 29.283 8.378 44.515-.825 26.586-15.231 51.531-37.242 66.261-24.153 16.184-54.814 17.71-82.79 13.508-29.605-4.454-58.323-14.846-84.074-30.078-25.114-14.856-47.511-34.312-65.542-57.281-8.984-11.437-17.05-23.763-23.589-36.779-6.592-13.121-11.627-27.245-13.34-41.881-1.462-12.504-.387-25.07 4.032-36.894 4.064-10.852 10.813-20.951 20.1-27.998a49.7 49.7 0 0 1 15.032-7.82.75.75 0 0 0 .544-.742c26.827-12.702 57.31-16.226 86.633-12.65 29.909 3.638 58.481 14.793 84.461 29.785 12.965 7.475 25.574 15.839 37.358 25.08 5.902 4.621 11.564 9.577 16.714 15.034s9.663 11.448 13.685 17.773c7.971 12.535 14.49 26.252 19.64 40.167Zm-13.194 54.614c1.003-1.307 2.873-3.439 1.337-5.028-.261-.272-.637-.272-.951-.126-.815.377-1.619.784-2.413 1.234.408-.492.815-.993 1.201-1.506.857-1.118 1.609-2.373 1.923-3.763.24-1.108.041-2.603-1.379-2.687-1.306-.084-2.518 1.234-3.448 1.997-.417.345-.835.69-1.243 1.045a79 79 0 0 0 3.322-4.955c.418-.69.836-1.38 1.243-2.07.314-.544.721-1.161.648-1.819-.146-1.307-1.504-1.474-2.507-1.025-1.108.502-2.163 1.349-3.113 2.154a82 82 0 0 0 2.319-3.9c.804-1.443 2.141-3.251.919-4.809-.146-.199-.533-.293-.762-.199a13.3 13.3 0 0 0-3.301 1.861c.679-1.087 1.337-2.174 1.901-3.314.773-1.547 1.232-3.168.804-4.882-.094-.376-.585-.711-.971-.554-3.208 1.328-5.036 4.788-6.78 7.6a66 66 0 0 0-1.4 2.342 67 67 0 0 0 1.201-3.732c.502-1.715.93-3.45 1.285-5.196.24-1.181 1.087-3.314-.063-4.245-.94-.752-2.277-.24-2.831.722-.376.637-.48 1.401-.626 2.101-.199.941-.387 1.882-.585 2.823-.7 3.324-1.39 6.638-2.1 9.963-.24-1.265-.481-2.53-.731-3.785-.105-.533-.596-.658-.993-.512a64 64 0 0 0-2.099-4.652c-.638-1.276-1.275-2.645-2.111-3.806-.637-.888-1.535-1.651-2.695-1.515-.47.052-.731.324-.784.784-.208 1.61.345 3.115.92 4.589a126 126 0 0 0 1.838 4.412c.46 1.046.93 2.08 1.421 3.115-.94.063-1.588.983-1.776 1.851-.282 1.265.209 2.551.606 3.743a718 718 0 0 0 1.557 4.547c.125.356.25.722.376 1.077-.982-.062-1.839.68-2.11 1.642-.418 1.453.376 3.272.731 4.662.47 1.83.94 3.659 1.4 5.489l.156.627c-.438-1.087-.961-2.132-1.608-3.063-.585-.826-1.484-1.568-2.56-1.349-.971.21-1.483 1.077-1.598 2.018-.146 1.202.209 2.467.459 3.649a47 47 0 0 0 1.108 4.265 51 51 0 0 0 1.912 5.144l-.115.052c-.867-2.038-2.048-3.889-3.981-5.227a18 18 0 0 0-.48-.314c-.627-.386-1.254.251-1.149.889 1.003 5.813 3.458 11.249 7.072 15.901.408.523 1.024.22 1.222-.271l.345.146a231 231 0 0 1-2.559 5.99 13 13 0 0 1-.773-1.683c.438-.209.71-.815.271-1.265l-.95-.983c-.481-1.808-.847-3.669-1.661-5.363-1.432-3-3.646-5.551-5.809-8.05-.209-.24-.689-.313-.95-.125-1.223.888-.742 2.383-.335 3.596a20 20 0 0 0 2.152 4.422c1.505 2.321 3.354 4.391 5.265 6.388.356 1.359.763 2.697 1.473 3.931a.71.71 0 0 0 .773.366c-.188.397-.365.805-.543 1.213-.324.742-.647 1.474-.971 2.216a33.9 33.9 0 0 0-6.529-11.908c-.679-.805-1.442-1.808-2.518-2.08-1.003-.272-1.954.345-2.246 1.328-.334 1.129.324 2.153.93 3.042a65 65 0 0 0 2.267 3.105 61.5 61.5 0 0 0 5.683 6.346c.25.24.543.272.783.167.115.335.219.669.313 1.014.105.356.377.533.669.544a85 85 0 0 0-1.818 4.684 16 16 0 0 0-.449-.983.65.65 0 0 0-.23-.46 59 59 0 0 0-6.738-10.737c-.355-.45-.71-.899-1.076-1.338-.344-.408-.689-.941-1.201-1.14-1.087-.397-1.651.805-1.766 1.673-.334 2.415 1.599 4.443 3.114 6.074a113 113 0 0 0 6.424 6.43c.314.637.606 1.286.899 1.934.094.219.24.334.407.387a58 58 0 0 0-1.076 3.732c-.24.983 1.274 1.401 1.515.418.637-2.561 1.462-5.039 2.413-7.485.042.449.397.846.94.637 2.455-.941 4.91-1.892 7.375-2.843 2.257-.868 4.597-1.673 6.676-2.959.773-.491 1.64-1.119 1.65-2.133 0-.92-.741-1.693-1.598-1.923-1.097-.304-2.309.125-3.364.407-1.138.314-2.267.68-3.384 1.077a44.5 44.5 0 0 0-6.3 2.886c.272-.638.554-1.265.836-1.903a.63.63 0 0 0 .46.021c2.455-.669 4.899-1.338 7.344-2.008 1.253-.345 2.496-.679 3.739-1.024 1.035-.282 2.163-.512 3.061-1.119 1.39-.951 2.131-3.241.45-4.338a2.4 2.4 0 0 0-.742-.314c.909-.251 1.87-.491 2.643-1.056 1.441-1.045 1.609-3.377-.272-4.046-.752-.261-1.609-.157-2.361.021-1.044.251-2.068.606-3.081.962a54 54 0 0 0-6.958 2.969c.052-.136.105-.261.157-.387a.7.7 0 0 0 .48-.23l.147-.146h.01c.052-.011.105-.021.167-.052a306 306 0 0 0 9.705-4.621c1.557-.764 3.145-1.506 4.659-2.353 1.045-.585 2.131-1.756 1.379-2.979a.815.815 0 0 0-.888-.366 34.8 34.8 0 0 0-6.894 2.572 68 68 0 0 0 6.863-4.715c1.421-1.098 3.009-2.436 2.873-4.412-.021-.356-.23-.648-.575-.753-1.222-.387-2.34.136-3.364.784-1.306.837-2.58 1.715-3.844 2.593a149 149 0 0 0-3.938 2.844c2.058-1.778 4.116-3.545 6.079-5.416 1.703-1.631 3.323-3.345 4.764-5.217zm-15.566-69.847c.763-.209.679-1.192.126-1.463a.83.83 0 0 0-.188-.387 366 366 0 0 1-30.975-43.293 25 25 0 0 1-.397-.637c-.25-.419-.877-.544-1.222-.157-1.295 1.432-3.802 1.746-5.401.606-1.859-1.328-1.295-3.973.512-5.018.334-.199.533-.732.282-1.077a100.3 100.3 0 0 0-13.706-14.699c-.115-.22-.334-.366-.668-.335a762 762 0 0 0-34.067 4.412c-.407.063-.574.356-.564.67-.428-.178-.909.209-.982.69a.73.73 0 0 0-.386.668c.135 13.811 0 27.621-.377 41.422-.02.585.491.825.93.731.011.011.021.011.032.021l5.327 2.541c.878.418 1.755.857 2.643 1.254.867.387 1.703.648 2.664.502.032-.01.063-.01.094-.031.324.157.731.104.94-.314.554-1.077 1.306-2.028 2.267-2.76.805-.606 1.985-1.401 2.988-.815 1.013.585 1.306 1.819 1.306 2.916.01 1.422-.355 2.792-.178 4.203a.6.6 0 0 0 .303.669c.032.021.073.053.115.063a2590 2590 0 0 0 40.606 18.651c.126.052.23.084.345.084.157.198.418.292.742.156a244 244 0 0 1 26.889-9.273ZM243.06 253.526c4.805-3.293 12.379-10.204 8.054-16.581-1.881-2.77-5.307-4.255-8.514-4.778-4.409-.721-8.963-.198-13.142 1.339a.8.8 0 0 0-.47.46c-5.526 1.547-10.489 5.049-13.529 9.984-1.796 2.916-2.82 6.607-1.253 9.848 1.442 2.99 4.617 4.736 7.783 5.269 7.187 1.181 15.179-1.516 21.071-5.541Zm7.991-65.853c3.155-10.455-1.024-22.394-9.496-29.127-2.037-1.61-4.283-2.917-6.717-3.826-1.295-.492-2.633-.826-3.991-.387-1.702.554-3.248 1.85-4.721 2.812a360 360 0 0 0-5.297 3.513 137.7 137.7 0 0 1-2.079-23.523c.011-.021.032-.031.042-.052.251-.324.178-.638-.042-.857v-.314a.75.75 0 0 0-.083-.356c.585.011 1.128-.773.595-1.348-6.822-7.308-17.477-8.28-26.9-8.468-2.309-.042-4.816-.126-6.299 1.955-.752 1.066-1.16 2.394-1.64 3.586-.648 1.61-1.285 3.22-1.933 4.819-2.434 6.106-4.879 12.222-7.323 18.327-2.758 6.9-5.516 13.811-8.284 20.721-.147.355-.011.638.23.795 0 .167.052.334.177.501a381 381 0 0 0 16.715 20.021c.522.596 1.316.042 1.316-.586l.554-.02c.136 4.15.365 8.3.689 12.43.084 1.004 1.651 1.014 1.567 0v-.042l.596-.042v.042c.02.366.271.743.762.763 9.841.419 19.682.837 29.522 1.245 4.827.209 9.663.418 14.5.616 4.962.209 9.935.471 14.887.074a.8.8 0 0 0 .679-.481.7.7 0 0 0 .407-.69 157.5 157.5 0 0 1 1.212-21.39c.01-.095.01-.178 0-.262a.77.77 0 0 0 .355-.449Zm-49.496 64.557c4.806-3.294 12.369-10.214 8.054-16.581-1.88-2.781-5.307-4.255-8.524-4.778-4.398-.721-8.953-.199-13.131 1.338a.76.76 0 0 0-.47.46c-5.527 1.547-10.499 5.039-13.539 9.984-1.797 2.917-2.821 6.608-1.254 9.848 1.442 2.991 4.628 4.736 7.783 5.259 7.187 1.192 15.189-1.505 21.081-5.53Zm-22.815-32.075c1.41-.69 2.005-2.342 1.786-3.826-.219-1.401-1.306-2.624-2.716-2.875-1.389-.241-2.957.282-3.625 1.599-.721 1.432-.334 3.241.992 4.172a.6.6 0 0 0 .303.104c.209.356.523.648.899.847.762.387 1.598.355 2.361-.021Zm-2.131-111.237c1.222-.69 2.037-2.153 1.964-3.565-.074-1.495-1.118-2.697-2.56-3.063-1.546-.387-3.301.136-4.158 1.526a1 1 0 0 0-.073.168s0 .01-.01.021a.2.2 0 0 0-.042.052c-.658 1.422-.272 3.053.794 4.171 1.065 1.108 2.716 1.453 4.085.69Zm-4.304 14.114c1.222-.69 2.037-2.154 1.964-3.555-.074-1.505-1.118-2.707-2.56-3.073-1.546-.387-3.301.146-4.158 1.537a.3.3 0 0 0-.062.135.24.24 0 0 0-.063.095c-.658 1.421-.272 3.063.794 4.171 1.065 1.108 2.716 1.453 4.085.69Zm-9.319-43.575c3.583-4.945 2.476-12.085-2.298-15.807-2.758-2.154-6.258-3.053-9.716-2.572-.292.042-.47.199-.532.408l-1.055-.22a13 13 0 0 0 .25-1.777.8.8 0 0 0 .199-.345 57.3 57.3 0 0 1 6.581-14.49c2.319-3.638 5.861-7.747 5.129-12.4-.48-3.083-3.624-6.199-6.905-5.76a4 4 0 0 0-1.953.795c-.93.732-.512 1.662-.408 2.739.241 2.624.272 5.28.084 7.914a48.8 48.8 0 0 1-3.719 15.557c-2.236-5.113-7.835-8.48-13.56-6.252-3.698 1.432-6.132 4.871-6.487 8.76-1.358-1.829-3.259-3.031-5.641-3.23-2.873-.24-5.819.857-8.18 2.436-.512.345-1.013.721-1.494 1.13l-.365-.46a.75.75 0 0 0 .313-.409c1.044-3.084-.136-6.387-2.382-8.635-2.559-2.561-6.184-3.304-9.684-2.697-6.926 1.191-15.054 7.84-13.518 15.598.606 3.073 3.06 5.52 6.028 6-2.225 2.008-3.99 4.716-5.067 7.58a1.1 1.1 0 0 0-.094-.334c-.95-1.882-2.706-2.687-4.617-2.844 1.504-3.23.856-7.339-1.85-9.775-3.415-3.084-8.43-2.676-12.42-1.098-4.064 1.6-8.19 4.005-10.76 7.622-2.403 3.387-3.322 8.227-.951 11.876a9 9 0 0 0 1.264 1.547c-4.043.962-6.707 5.29-7.553 9.17-1.024 4.693.073 9.649 3.04 13.423a.7.7 0 0 0 .313.23 27 27 0 0 0-.208 2.551c-.126 3.575.72 6.973 3.123 9.503-1.42.031-2.81.293-4.074.857-4.837 2.154-5.338 8.866-4.879 13.413.46 4.601 2.163 11.082 6.801 13.215 2.1.972 4.19.439 6.06-.763a4 4 0 0 0-.116.324c-1.598 4.746-.648 10.225 2.016 14.406 2.633 4.12 7.355 7.549 12.327 5.28 5.161-2.352 6.697-8.207 5.767-13.413-.533-2.99-1.766-6.304-3.75-8.887 1.65.764 3.426 1.213 5.265 1.035a.1.1 0 0 0-.042.042c-1.766 2.352-.146 5.144 1.504 7.015.888.993 1.807 2.06 2.998 2.677 1.15.595 2.445.794 3.72.648 5.202-.586 9.809-5.468 11.188-10.34.721-2.54.616-5.279-.366-7.715 2.455 1.223 5.391 1.735 7.929.543 2.612-1.212 4.44-3.784 6.132-6.011 1.358-1.798 2.633-3.806 3.27-5.991a9 9 0 0 0 3.124 2.447c4.513 2.164 9.861 1.056 13.507-2.258 3.74-3.409 6.404-9.577 5.495-14.679-.585-3.251-3.197-4.882-5.829-6.45-1.421-.857-2.831-1.82-4.315-2.603.721.188 1.421.334 2.1.428 5.453.753 10.76-1.6 13.34-6.576 1.62-3.115 2.017-6.785 1.014-10.078 4.607 3.377 11.522 2.394 14.907-2.3Zm-2.538 32.305c.898-1.098 1.097-2.603.647-3.942-.47-1.38-1.755-2.916-3.374-2.195-.679.314-1.201 1.004-1.358 1.735-.146.67-.052 1.339.136 1.976-.648.879-.282 2.175.533 2.854.522.44 1.149.638 1.817.523.627-.104 1.202-.47 1.599-.951Zm-3.719 87.651c1.232-.282 1.89-1.641 1.755-2.823a4.65 4.65 0 0 0-.648-1.808c-.313-.523-.71-1.046-1.254-1.338-1.128-.628-2.434-.032-2.946 1.097-.626 1.401.084 2.771.857 3.942a.65.65 0 0 0 .188.188s.011 0 .011.021c.083.104.167.188.261.272.501.418 1.138.606 1.776.449Zm-7.877-60.156c.898-1.097 1.097-2.592.647-3.931-.47-1.39-1.755-2.927-3.374-2.195-.679.303-1.201 1.004-1.358 1.725-.146.68-.052 1.338.136 1.976-.648.878-.282 2.185.533 2.865.522.439 1.149.627 1.818.522.626-.104 1.201-.47 1.598-.962Zm-7.219 58.201c7.752-10.58 9.434-26.377 1.494-37.365-7.971-11.04-22.857-10.82-34.202-5.582-.763.355-1.525.731-2.267 1.139-.136-.063-.303-.052-.491.021-6.049 2.499-10.917 6.921-14.677 12.222-3.991 5.635-7.282 12.482-8.17 19.372-.856 6.649 1.358 12.964 6.33 17.469 4.556 4.13 10.573 6.493 16.632 7.256 13.225 1.673 27.38-3.649 35.351-14.532Zm-.156 31.834c.898-1.097 1.096-2.603.637-3.941-.47-1.38-1.755-2.917-3.364-2.196-.679.314-1.212 1.004-1.369 1.736-.146.669-.052 1.328.126 1.965-.637.889-.272 2.185.553 2.875.523.44 1.139.628 1.818.513.617-.105 1.202-.471 1.599-.952Z"/><path fill="#cb2821" stroke="#cb2821" d="M308.802 128.024c13.235 27.422 23.358 59.11 13.131 89.219-8.065 23.732-26.534 43.104-49.768 52.419-13.664 5.489-28.697 7.413-43.343 7.298-15.628-.115-31.183-2.604-46.31-6.42a238.6 238.6 0 0 1-82.152-38.556 237.7 237.7 0 0 1-59.953-63.7c-15.304-23.878-27.84-52.837-23.975-81.828 2.915-21.84 15.732-43.439 36.563-51.928a139.4 139.4 0 0 1 21.3-8.823c29.774-9.535 62.137-9.295 92.338-1.903 29.544 7.224 57.07 21.024 82.184 37.981 12.588 8.51 25.051 17.501 35.477 28.646 10.29 10.998 17.978 24.087 24.508 37.595Zm15.764 65.623c.459-15.232-3.114-30.297-8.379-44.516-5.15-13.915-11.669-27.631-19.639-40.166-4.022-6.325-8.535-12.316-13.685-17.773S272.05 80.78 266.148 76.158c-11.784-9.242-24.393-17.605-37.357-25.08-25.981-14.992-54.552-26.147-84.461-29.785-29.324-3.576-59.807-.052-86.634 12.65a.75.75 0 0 1-.543.742 49.7 49.7 0 0 0-15.033 7.82c-9.287 7.046-16.035 17.146-20.1 27.997-4.418 11.825-5.494 24.391-4.032 36.895 1.714 14.636 6.749 28.76 13.34 41.881 6.54 13.016 14.605 25.342 23.59 36.779 18.03 22.969 40.428 42.425 65.541 57.281 25.751 15.232 54.469 25.624 84.075 30.077 27.976 4.203 58.637 2.677 82.789-13.507 22.011-14.73 36.417-39.675 37.243-66.261Z"/><path fill="#cb2821" d="M292.15 214.375a149 149 0 0 1 3.938-2.843 121 121 0 0 1 3.844-2.593c1.024-.648 2.142-1.171 3.364-.784.345.104.554.397.575.752.135 1.976-1.452 3.315-2.873 4.412a67 67 0 0 1-4.994 3.555c-.616.397-1.243.784-1.87 1.16a35 35 0 0 1 6.895-2.572c.345-.083.7.063.888.366.752 1.224-.334 2.395-1.379 2.98-1.515.847-3.103 1.589-4.659 2.352a303 303 0 0 1-9.705 4.621.6.6 0 0 1-.167.052h-.011l-.146.147a.72.72 0 0 1-.48.23c-.053.125-.105.251-.157.387a54 54 0 0 1 6.957-2.969c1.014-.356 2.037-.711 3.082-.962.752-.178 1.609-.283 2.361-.021 1.88.669 1.713 3 .272 4.046-.773.564-1.734.805-2.643 1.056.261.062.512.167.741.313 1.682 1.098.941 3.388-.449 4.339-.898.606-2.026.836-3.061 1.119-1.243.345-2.486.679-3.74 1.024-2.444.669-4.889 1.338-7.344 2.007a.62.62 0 0 1-.459-.021c-.282.638-.564 1.265-.836 1.903a44.6 44.6 0 0 1 6.299-2.885 49 49 0 0 1 3.385-1.077c1.055-.282 2.267-.711 3.364-.408.857.23 1.598 1.004 1.598 1.924-.01 1.014-.877 1.641-1.65 2.133-2.079 1.285-4.419 2.09-6.676 2.958-2.465.952-4.92 1.903-7.375 2.844-.543.209-.898-.188-.94-.638-.951 2.447-1.776 4.924-2.413 7.486-.241.982-1.755.564-1.515-.419a58 58 0 0 1 1.076-3.732.64.64 0 0 1-.407-.387 68 68 0 0 0-.899-1.934 113 113 0 0 1-6.425-6.429c-1.514-1.631-3.447-3.659-3.113-6.074.115-.868.679-2.07 1.766-1.673.512.198.856.732 1.201 1.139.366.439.721.889 1.076 1.339a59.3 59.3 0 0 1 6.738 10.726.7.7 0 0 1 .23.47c.157.325.313.649.449.983a85 85 0 0 1 1.818-4.683c-.293-.011-.564-.189-.669-.544-.094-.345-.198-.68-.313-1.014-.24.104-.533.073-.784-.168a61.7 61.7 0 0 1-7.949-9.45c-.606-.889-1.264-1.914-.93-3.043.292-.982 1.243-1.599 2.246-1.327 1.076.271 1.838 1.275 2.518 2.08a33.9 33.9 0 0 1 6.529 11.908c.324-.743.647-1.474.971-2.217.178-.407.355-.815.543-1.212a.71.71 0 0 1-.773-.366c-.71-1.234-1.117-2.572-1.473-3.931-1.911-1.997-3.76-4.067-5.265-6.388A20 20 0 0 1 270.18 220c-.407-1.213-.888-2.708.335-3.597.261-.188.741-.115.95.126 2.163 2.499 4.377 5.049 5.809 8.05.814 1.694 1.18 3.554 1.661 5.363l.95.983c.439.449.167 1.056-.271 1.265.219.575.47 1.139.773 1.683a232 232 0 0 0 2.559-5.99 93 93 0 0 0 1.943-5.228c-.063.021-.115.053-.177.073-.941.387-1.338-1.129-.418-1.505.407-.167.815-.335 1.211-.512.074-.23.147-.471.209-.711-1.17-.356-1.42-2.164-1.734-3.158-.459-1.495-.867-3.021-1.285-4.526-.428-1.506-.867-3.011-1.41-4.475-.501-1.39-1.076-3.042-2.037-4.182-.491-.596-1.045-.648-1.149.209-.094.732.115 1.495.261 2.206.303 1.61.7 3.199 1.17 4.757a48.2 48.2 0 0 0 3.855 9.148c.48.889-.878 1.683-1.358.794a54 54 0 0 1-1.996-4.066 51 51 0 0 1-1.911-5.144 46 46 0 0 1-1.108-4.266c-.25-1.181-.606-2.446-.459-3.648.115-.941.626-1.809 1.598-2.018 1.076-.219 1.975.523 2.56 1.349.647.93 1.169 1.976 1.608 3.063l-.156-.627c-.46-1.83-.93-3.659-1.4-5.489-.356-1.39-1.149-3.21-.732-4.663.272-.962 1.129-1.704 2.111-1.641-.126-.356-.251-.721-.376-1.077a740 740 0 0 1-1.557-4.548c-.397-1.192-.888-2.477-.606-3.742.188-.868.836-1.788 1.776-1.851-.491-1.035-.961-2.07-1.421-3.115a128 128 0 0 1-1.838-4.412c-.575-1.474-1.128-2.98-.92-4.59.053-.46.314-.732.784-.784 1.16-.136 2.058.627 2.695 1.516.836 1.161 1.473 2.53 2.11 3.806a64 64 0 0 1 2.1 4.652c.397-.147.888-.021.993.512.25 1.255.49 2.52.731 3.785.71-3.325 1.4-6.639 2.1-9.964.198-.94.386-1.881.585-2.822.146-.701.25-1.464.626-2.102.554-.962 1.891-1.474 2.831-.721 1.15.93.303 3.063.063 4.245a64 64 0 0 1-1.285 5.195 67 67 0 0 1-1.201 3.733c.449-.795.919-1.568 1.4-2.342 1.744-2.812 3.572-6.273 6.779-7.601.387-.156.878.178.972.555.428 1.714-.031 3.335-.804 4.882-.564 1.139-1.223 2.227-1.902 3.314a13.3 13.3 0 0 1 3.301-1.861c.23-.094.617 0 .763.199 1.222 1.557-.115 3.366-.919 4.809a82 82 0 0 1-2.319 3.899c.95-.805 2.005-1.652 3.113-2.153 1.003-.45 2.361-.283 2.507 1.024.073.659-.334 1.276-.648 1.819-.407.69-.825 1.38-1.243 2.07a79 79 0 0 1-3.322 4.956c.407-.356.825-.701 1.243-1.046.93-.763 2.142-2.08 3.448-1.996 1.42.083 1.619 1.578 1.379 2.686-.314 1.391-1.066 2.645-1.923 3.764a41 41 0 0 1-1.201 1.505 33 33 0 0 1 2.413-1.233c.314-.147.69-.147.951.125 1.536 1.589-.334 3.722-1.337 5.029-1.442 1.871-3.061 3.586-4.764 5.217-1.964 1.871-4.022 3.638-6.08 5.415zm10.101-19.215c.136-.314.606-1.37.303-1.621-.282-.24-1.274.701-1.514.889a53.6 53.6 0 0 0-10.457 11.061c-.377.523-1.076.387-1.369-.011 0 .816-.021 1.621-.063 2.436a47 47 0 0 0 5.715-4.234 49 49 0 0 0 5.296-5.353c.815-.961 1.609-1.996 2.089-3.167m-.114 7.13c.25-.345 1.086-1.265 1.211-1.945a42 42 0 0 0-13.173 10.172c-.386.46-.93.251-1.17-.146a56 56 0 0 1-.679 5.28c2.445-2.196 4.973-4.297 7.407-6.503 1.515-1.38 2.977-2.812 4.345-4.339.721-.815 1.421-1.641 2.059-2.519m-.397-15.954c-.126-.063-1.035.523-1.097.565-.732.48-1.432.993-2.09 1.557-1.191 1.004-2.288 2.123-3.311 3.304-2.225 2.572-4.085 5.447-5.923 8.301a.8.8 0 0 1-.283.272c.074.962.126 1.923.147 2.875a89.3 89.3 0 0 0 11.961-15.975c.052-.084.543-.899.596-.899m-2.737 26.555c1.076-.805 2.841-1.851 3.217-3.283-.961.115-1.943.972-2.685 1.474a118 118 0 0 0-3.238 2.216 141 141 0 0 0-6.404 4.768c-.543.428-1.253.021-1.358-.481-.251.219-.491.449-.731.679a45 45 0 0 1-.376 1.569 68 68 0 0 0 6.947-3.785 71 71 0 0 0 4.628-3.157m-.168-30.841c.178-.345.867-1.297.982-1.966-5.536 2.572-7.678 9.137-10.551 14.082a.72.72 0 0 1-.825.356q.141 1.019.251 2.039a79 79 0 0 0 5.766-7.423 84 84 0 0 0 2.998-4.673q.705-1.208 1.379-2.415m-1.546 36.664c.209-.105 1.525-.69 2.424-1.234a33.2 33.2 0 0 0-9.266 4.579c1.003-.46 2.005-.941 2.998-1.432 1.285-.627 2.57-1.265 3.844-1.913m-2.099 7.412c.699-.198 2.308-.512 2.277-1.526-.042-1.443-4.513.408-5.119.617a53 53 0 0 0-6.404 2.76c-.491.251-.94-.032-1.118-.419-.125.335-.261.659-.397.994l.126-.032a93 93 0 0 0 7.166-1.463 81 81 0 0 0 3.469-.931m1.462-48.844c.71-1.212 1.421-2.519 1.442-3.91-1.129.722-1.964 1.861-2.727 2.949a95 95 0 0 0-2.873 4.432 95 95 0 0 0-4.784 9.012c.115.627.219 1.265.313 1.903l5.631-9.388c1.003-1.663 2.016-3.325 2.998-4.998m-1.379 53.151c.533-1.181-.721-1.275-1.546-1.097-1.17.251-2.34.627-3.468 1.035a34 34 0 0 0-6.623 3.22c-.533.334-1.045-.063-1.139-.544-.282.596-.543 1.192-.815 1.798 2.35-.637 4.711-1.286 7.051-1.934 1.296-.355 2.591-.7 3.887-1.056.888-.251 2.225-.47 2.653-1.422m-2.204 5.74c.585-1.119-2.403-.314-2.737-.22a37 37 0 0 0-3.646 1.161 41.6 41.6 0 0 0-6.937 3.335.73.73 0 0 1-.553.094 58 58 0 0 0-.815 2.007 1 1 0 0 1 .24-.136 6457 6457 0 0 1 7.793-3.01c1.212-.471 2.445-.921 3.636-1.464a21 21 0 0 0 1.671-.837c.387-.23 1.128-.522 1.348-.93m-1.431-65.822c0-.094.24-.92 0-.972-.293-.063-.47.512-.523.7-.219.648-.313 1.359-.449 2.028-.313 1.474-.616 2.938-.93 4.412l-.909 4.37a68 68 0 0 0 2.8-10.538zm-.648 49.45a68 68 0 0 1-4.106 1.997c-.135.481-.292.962-.449 1.443a34 34 0 0 1 4.555-3.44m-3.291-12.807c.011-.512.011-1.024.011-1.547a.72.72 0 0 1-.011-.606 74 74 0 0 0-.313-5.886c.01-.011 0-.021 0-.021a.76.76 0 0 1-.073-.732 98 98 0 0 0-.408-3.481c-.365.345-1.128.324-1.358-.314-.909-2.436-1.817-4.882-2.758-7.318-.209-.544-.417-1.098-.637-1.652-.094-.251-.355-1.38-.648-1.453-.428-.115-.407 1.307-.376 1.516.063.481.22.951.376 1.401 1.588 4.861 3.333 9.67 5.088 14.469.146.397-.031.711-.324.847.428 1.515.857 3.031 1.295 4.537.021.083.042.167.042.24 0 .795-1.285 1.067-1.546.178-.815-2.781-1.64-5.562-2.455-8.353-.198-.669-.386-1.359-.595-2.028-.052-.157-.094-.356-.157-.565-.115-.334-.261-.669-.501-.847-1.014-.711-.805 1.182-.7 1.642.167.69.355 1.38.532 2.07l4.357 17.093c.156.606-.366.993-.836.972.115.429.272 1.035.449 1.265a.6.6 0 0 0 .042-.125c-.125-.262-.094-.575.167-.826.011-.011.031-.032.042-.032a45.4 45.4 0 0 0 1.159-7.391c.011-.105.011-.209.021-.314-.125-.251-.135-.564.042-.805.042-.648.063-1.286.073-1.934m.742 22.404c-1.149.23-2.309.44-3.468.628-.47.073-.805-.22-.93-.575-.387.93-.784 1.861-1.191 2.781a35 35 0 0 1 5.589-2.834m-3.458-40.929a319 319 0 0 1 1.661 4.443c-.115-.826-.251-1.652-.386-2.478-.209-.23-.324-.564-.157-.92-.115-.679-.24-1.359-.366-2.038a192 192 0 0 0-.668-3.555.87.87 0 0 1-.303-.408 65 65 0 0 0-2.883-7.015 63 63 0 0 0-1.724-3.324c-.334-.607-.752-1.548-1.41-1.934.073 1.223.553 2.373 1.013 3.533a144 144 0 0 0 1.818 4.318c1.243 2.791 2.59 5.53 4.032 8.207a.7.7 0 0 1 .083.188c.126.502-.282.92-.71.983m-8.2 39.152a17 17 0 0 0-.732-1.986c-1.128-2.499-2.82-4.652-4.586-6.722.105.313.209.585.241.679.208.638.47 1.255.762 1.861.564 1.171 1.264 2.279 2.027 3.335.71.983 1.473 1.924 2.288 2.833m-1.024 8.353a34 34 0 0 0-1.703-3.439c-1.212-2.122-2.664-4.307-4.45-6.012-.272-.261-.93-.815-1.076-.146-.126.575.438 1.213.731 1.641a54 54 0 0 0 2.392 3.283 58 58 0 0 0 4.106 4.673m-6.843 1.098a88 88 0 0 0 2.539 2.645 57 57 0 0 0-5.109-7.245l-.407-.429c-.01.063-.01.126-.01.189-.021.596.188 1.16.459 1.683.627 1.202 1.609 2.174 2.528 3.157"/><path fill="#fff8e0" d="M302.553 193.539c.303.251-.167 1.307-.303 1.621-.48 1.17-1.274 2.205-2.089 3.167a49 49 0 0 1-5.296 5.353 47 47 0 0 1-5.715 4.234c.042-.815.063-1.62.063-2.436.293.397.992.533 1.369.011a53.5 53.5 0 0 1 10.457-11.061c.24-.188 1.232-1.129 1.514-.889m.795 6.805c-.125.679-.961 1.599-1.211 1.944-.638.879-1.338 1.704-2.058 2.52-1.369 1.526-2.831 2.959-4.346 4.339-2.434 2.205-4.962 4.307-7.407 6.502.314-1.746.533-3.512.679-5.279.241.397.784.606 1.17.146a42 42 0 0 1 13.173-10.172m-2.707-13.439c.063-.042.972-.627 1.097-.564-.052 0-.543.815-.595.899a89.2 89.2 0 0 1-11.962 15.974 53 53 0 0 0-.146-2.875.76.76 0 0 0 .282-.271c1.839-2.855 3.698-5.73 5.923-8.301a30 30 0 0 1 3.312-3.304 20 20 0 0 1 2.089-1.558m1.579 22.704c-.376 1.433-2.141 2.478-3.217 3.283a67.6 67.6 0 0 1-11.575 6.942q.204-.785.376-1.568c.24-.23.48-.46.731-.68.105.502.815.91 1.358.481a141 141 0 0 1 6.404-4.767 118 118 0 0 1 3.238-2.217c.742-.501 1.724-1.359 2.685-1.474m-2.404-29.523c-.115.669-.804 1.62-.982 1.965q-.674 1.207-1.379 2.415a85 85 0 0 1-2.998 4.674 79 79 0 0 1-5.767 7.422 67 67 0 0 0-.251-2.038.725.725 0 0 0 .826-.356c2.873-4.945 5.014-11.51 10.551-14.082m-.105 37.398c-.898.544-2.214 1.129-2.423 1.234-1.275.648-2.56 1.286-3.845 1.913-.992.492-1.995.972-2.998 1.432a33.2 33.2 0 0 1 9.266-4.579m-2.244 7.116c.031 1.015-1.577 1.328-2.277 1.527a81 81 0 0 1-3.469.93 92 92 0 0 1-7.166 1.464l-.125.031c.135-.334.271-.658.397-.993.177.387.627.669 1.118.418a53 53 0 0 1 6.403-2.76c.606-.209 5.077-2.059 5.119-.617m.626-51.225c-.021 1.39-.731 2.697-1.442 3.91-.982 1.673-1.995 3.335-2.998 4.997-1.88 3.137-3.75 6.252-5.631 9.389a55 55 0 0 0-.313-1.903 95 95 0 0 1 4.784-9.012c.92-1.506 1.87-2.98 2.873-4.433.763-1.087 1.599-2.227 2.727-2.948m-4.366 55.96c.825-.177 2.078-.083 1.546 1.098-.429.951-1.766 1.171-2.654 1.422-1.295.355-2.591.7-3.886 1.056-2.34.648-4.701 1.296-7.051 1.934.271-.606.532-1.202.815-1.798.094.481.605.878 1.138.543a34 34 0 0 1 6.623-3.22c1.129-.407 2.299-.784 3.469-1.035m-3.395 6.619c.334-.094 3.322-.899 2.737.22-.22.407-.961.7-1.348.93-.543.303-1.107.585-1.671.836-1.191.544-2.424.994-3.636 1.464-2.601 1.004-5.202 2.007-7.793 3.011-.094.031-.167.084-.24.136a56 56 0 0 1 .815-2.007.73.73 0 0 0 .553-.095 41.6 41.6 0 0 1 6.937-3.335 37 37 0 0 1 3.646-1.16m1.315-66.574c.23.052 0 .878 0 .972a68 68 0 0 1-2.799 10.538l.909-4.37c.313-1.474.616-2.938.929-4.412.136-.669.23-1.38.45-2.028.052-.188.229-.763.522-.7zm-4.762 52.422a68 68 0 0 0 4.105-1.997 34 34 0 0 0-4.554 3.439c.156-.481.313-.962.449-1.442"/><path fill="#cb2821" stroke="#cb2821" d="M287.553 132.43c.554.272.637 1.255-.126 1.464a244 244 0 0 0-26.889 9.273c-.324.136-.585.042-.742-.157a.9.9 0 0 1-.345-.084 2585 2585 0 0 1-40.606-18.651c-.041-.01-.083-.041-.115-.062a.6.6 0 0 1-.302-.669c-.178-1.412.188-2.781.177-4.203 0-1.098-.292-2.331-1.306-2.917-1.003-.585-2.183.209-2.987.816-.962.731-1.714 1.683-2.267 2.76-.209.418-.617.47-.94.313-.032.021-.063.021-.095.032-.961.146-1.796-.115-2.663-.502-.888-.398-1.766-.837-2.643-1.255l-5.328-2.54s-.021-.011-.032-.021c-.438.094-.95-.147-.929-.732.386-13.8.512-27.61.376-41.421 0-.324.167-.554.386-.67.073-.48.554-.867.982-.69-.01-.313.157-.605.564-.668a762 762 0 0 1 34.067-4.412c.334-.031.554.115.668.335a100.3 100.3 0 0 1 13.706 14.699c.251.345.053.878-.282 1.076-1.807 1.046-2.371 3.69-.511 5.019 1.598 1.14 4.105.825 5.4-.607.345-.387.972-.261 1.223.157.125.21.261.429.397.638a366 366 0 0 0 30.974 43.292.84.84 0 0 1 .188.387Zm-1.661.282c-11.251-13.58-21.552-27.934-30.755-43-2.068 1.516-5.349 1.517-7.208-.313-1.975-1.955-1.505-5.029.439-6.701a98 98 0 0 0-12.839-13.664 749 749 0 0 0-33.388 4.328.6.6 0 0 1-.188 0c9.057 11.427 19.368 21.808 30.619 31.071.188.157.272.324.272.502.167.02.345.062.501.115.784-.596 1.87-.701 2.811-.356 1.264.46 2.026 1.589 2.569 2.75.794 1.672 1.421 4.004.241 5.656-.115.156-.23.292-.366.428 4.158 4.778 8.326 9.545 12.484 14.323 1.901 2.175 3.698 4.349 5.223 6.795.731 1.171 1.557 2.133 2.559 3.074.815.774 1.505 1.547 1.85 2.635.24.773-.68 1.181-1.212.836a.8.8 0 0 1-.303-.418c-.408-1.317-1.714-2.091-2.602-3.063-.773-.858-1.368-1.84-1.984-2.823-1.515-2.436-3.437-4.548-5.318-6.701-4.022-4.611-8.033-9.221-12.045-13.832a3.4 3.4 0 0 1-1.128.22c-1.139.031-2.267-.45-3.186-1.088-.972-.679-1.786-1.547-2.455-2.53-.742-1.066-1.316-2.331-1.076-3.659.167-.93.846-1.662 1.692-2.059-10.895-9.002-20.893-19.07-29.731-30.11.115 13.173 0 26.346-.365 39.508a.7.7 0 0 1 .167.063c1.598.763 3.196 1.516 4.795 2.279.773.366 1.535.732 2.308 1.098.679.324 1.536.878 2.32.753a.7.7 0 0 1 .303.01 9.1 9.1 0 0 1 2.214-2.634c.919-.743 1.996-1.433 3.186-1.548 1.15-.115 2.215.513 2.894 1.401.763.993 1.003 2.269.982 3.492-.021 1.16-.345 2.352-.24 3.513a2498 2498 0 0 0 39.551 18.17c.25.115.512.23.762.345.011.01.021.01.032.021a242 242 0 0 1 25.615-8.887Z"/><path fill="#fff8e0" d="M287.709 205.446c0 .523 0 1.035-.01 1.548h-.094c0-.073-.021-.157-.042-.241a546 546 0 0 1-1.295-4.537c.292-.136.47-.45.324-.847-1.755-4.799-3.5-9.608-5.088-14.469-.157-.45-.313-.92-.376-1.401-.031-.209-.052-1.631.376-1.516.293.073.554 1.202.648 1.453.219.554.428 1.109.637 1.652.94 2.436 1.849 4.882 2.758 7.318.23.638.992.659 1.358.314q.235 1.74.407 3.481a.76.76 0 0 0 .074.732s.01 0 0 .021c.177 1.955.292 3.921.313 5.886a.72.72 0 0 0 .01.606"/><path fill="#fff8e0" d="M287.605 206.992h.094a40 40 0 0 1-.073 1.934c-.178.24-.167.554-.042.805-.01.104-.01.209-.021.314a45 45 0 0 1-1.159 7.38l-.042.042c-.261.251-.293.565-.167.816a.5.5 0 0 1-.042.136c-.178-.23-.335-.837-.449-1.265.47.021.992-.366.835-.973l-4.356-17.093c-.178-.69-.366-1.38-.533-2.07-.104-.46-.313-2.352.7-1.641.24.177.387.512.502.847.062.209.104.407.156.564.209.669.397 1.359.596 2.028.815 2.792 1.64 5.573 2.455 8.353.261.889 1.546.617 1.546-.177m-2.633 23.034a96 96 0 0 0 3.468-.628 35 35 0 0 0-5.588 2.834c.407-.92.804-1.851 1.19-2.781.126.355.46.648.93.575m1.671-37.116a311 311 0 0 0-1.661-4.443c.429-.063.836-.481.711-.983h.042c.125.669.25 1.349.365 2.029-.167.355-.052.69.157.92.136.825.271 1.651.386 2.477m-.908-5.432h-.042s-.042-.115-.084-.178a122 122 0 0 1-4.032-8.206 144 144 0 0 1-1.818-4.318c-.459-1.161-.94-2.311-1.013-3.534.658.387 1.076 1.328 1.41 1.934a63 63 0 0 1 1.724 3.325 65 65 0 0 1 2.883 7.015.9.9 0 0 0 .303.408c.23 1.181.46 2.362.669 3.554m-.01 32.523a14 14 0 0 1-.209.711c-.397.178-.804.345-1.212.512-.919.377-.522 1.893.418 1.506.063-.021.115-.052.178-.073a91 91 0 0 1-1.943 5.217l-.345-.136a.83.83 0 0 0-.115-.837c-.073-.104-.157-.198-.23-.303.397-.094.711-.439.522-.92-1.096-2.812-1.671-6.064-2.862-8.918l.115-.052a54 54 0 0 0 1.995 4.067c.481.889 1.839.094 1.358-.795a48 48 0 0 1-3.854-9.147 46 46 0 0 1-1.17-4.757c-.147-.711-.356-1.474-.262-2.206.105-.857.659-.805 1.15-.209.961 1.139 1.535 2.791 2.037 4.182.543 1.463.982 2.969 1.41 4.474.418 1.506.825 3.032 1.285 4.527.313.993.564 2.802 1.734 3.157"/><path fill="#cb2821" d="M282.788 225.678c.188.481-.125.826-.522.92.073.104.157.199.23.303a.83.83 0 0 1 .115.836c-.199.492-.815.795-1.223.272-3.614-4.652-6.069-10.088-7.072-15.901-.104-.638.522-1.276 1.149-.889.167.105.324.209.481.314 1.932 1.338 3.113 3.189 3.98 5.227 1.191 2.854 1.765 6.106 2.862 8.918m-2.131-1.401c-1.086-3.628-1.744-7.789-4.387-10.455a34.3 34.3 0 0 0 4.387 10.455"/><path fill="#fff8e0" d="M276.27 213.82c2.643 2.666 3.301 6.827 4.387 10.455a34.3 34.3 0 0 1-4.387-10.455m-.219 11.816c.292.649.522 1.307.731 1.987a35 35 0 0 1-2.288-2.833c-.762-1.056-1.462-2.165-2.026-3.335a15 15 0 0 1-.763-1.861c-.031-.094-.136-.366-.24-.68 1.765 2.07 3.458 4.224 4.586 6.722m-1.995 6.902a34 34 0 0 1 1.703 3.44 58 58 0 0 1-4.106-4.673 54 54 0 0 1-2.392-3.283c-.293-.429-.857-1.066-.731-1.641.146-.67.804-.115 1.076.146 1.786 1.704 3.238 3.889 4.45 6.011"/><path fill="#fff8e0" stroke="#cb2821" d="M255.137 89.718c9.203 15.065 19.504 29.419 30.755 43a242 242 0 0 0-25.615 8.886c-.011-.01-.021-.01-.032-.021-.251-.115-.512-.23-.762-.345l.021-.041c.532.345 1.452-.063 1.211-.837-.344-1.087-1.034-1.861-1.849-2.634-1.003-.941-1.828-1.903-2.559-3.074-1.525-2.446-3.322-4.621-5.223-6.795-4.158-4.778-8.326-9.545-12.484-14.323.136-.136.251-.272.365-.429 1.181-1.652.554-3.983-.24-5.656-.543-1.16-1.306-2.289-2.57-2.749-.94-.345-2.026-.241-2.81.355a2.7 2.7 0 0 0-.501-.115c0-.178-.084-.345-.272-.502-11.251-9.263-21.562-19.644-30.619-31.07a.6.6 0 0 0 .188 0 749 749 0 0 1 33.388-4.329 98 98 0 0 1 12.838 13.664c-1.943 1.673-2.413 4.747-.438 6.702 1.859 1.83 5.139 1.83 7.208.313Zm11.303 40.773c1.107-1.254 1.087-3.178.094-4.495-.961-1.255-2.726-2.018-4.231-1.297-.647.303-1.191.973-1.337 1.673-.115.523-.042 1.004.199 1.411-.815 1.203-.105 2.917 1.128 3.524 1.347.669 3.155.313 4.147-.816Zm-6.289-17.438c1.755-1.652 2.549-4.234 1.693-6.534-.962-2.572-3.51-4.255-6.195-4.506-1.463-.147-3.051.23-4.106 1.317-.637.659-.94 1.464-.815 2.258a.75.75 0 0 0-.292.439c-.387 1.548-.742 3.158-.387 4.747.303 1.317 1.139 2.373 2.236 3.126 2.507 1.714 5.725 1.16 7.866-.847Zm-15.889-21.118a3.6 3.6 0 0 0-.867-2.332c-.627-.752-1.578-1.129-2.487-1.422-.867-.282-1.786-.512-2.695-.46-.877.042-1.828.366-2.214 1.224a.6.6 0 0 0-.063.177c-.282.053-.512.272-.627.565-.658 1.61-.188 3.565 1.045 4.767 1.274 1.244 3.238 1.62 4.92 1.15 1.682-.46 2.988-1.871 2.988-3.67Zm-15.148-8.395c.679-2.457-.48-5.155-2.507-6.587-1.744-1.234-4.043-1.275-5.913-.366-.23-.386-.794-.617-1.243-.22-1.88 1.694-1.536 4.674-.721 6.807.847 2.226 2.57 4.495 5.161 4.547 2.434.063 4.597-1.923 5.223-4.181Z"/><path fill="#fff8e0" d="M271.454 239.721a85 85 0 0 1-2.539-2.645c-.919-.983-1.901-1.955-2.528-3.158-.272-.522-.481-1.087-.46-1.683 0-.063 0-.125.011-.188.177.188.365.387.407.429a57 57 0 0 1 5.109 7.245"/><path fill="#cb2821" stroke="#cb2821" d="M266.535 125.99c.992 1.317 1.013 3.241-.094 4.495-.993 1.129-2.8 1.485-4.148.816-1.232-.607-1.943-2.321-1.128-3.524-.24-.407-.313-.888-.198-1.411.146-.7.689-1.37 1.337-1.673 1.504-.721 3.27.042 4.231 1.297Zm-4.692-19.477c.857 2.3.063 4.882-1.692 6.534-2.142 2.007-5.36 2.561-7.867.847-1.097-.753-1.932-1.809-2.235-3.126-.355-1.589 0-3.199.386-4.747a.75.75 0 0 1 .293-.439c-.126-.794.177-1.599.815-2.258 1.055-1.087 2.643-1.464 4.105-1.317 2.685.251 5.234 1.934 6.195 4.506Z"/><path fill="#fff8e0" stroke="#cb2821" d="m259.503 141.195-.021.042a2502 2502 0 0 1-39.551-18.17c-.104-1.16.22-2.352.24-3.513.021-1.223-.219-2.498-.981-3.491-.679-.889-1.745-1.516-2.894-1.401-1.191.115-2.267.805-3.186 1.547a9.1 9.1 0 0 0-2.215 2.634c-.094-.031-.199-.02-.303-.01-.783.125-1.64-.429-2.319-.753-.773-.366-1.536-.732-2.309-1.097-1.598-.764-3.197-1.516-4.795-2.28a.7.7 0 0 0-.167-.062c.355-13.163.48-26.335.366-39.508 8.837 11.04 18.835 21.108 29.731 30.109-.846.397-1.525 1.129-1.693 2.06-.24 1.327.335 2.592 1.076 3.659.669.982 1.484 1.85 2.455 2.53.92.637 2.048 1.118 3.186 1.087a3.5 3.5 0 0 0 1.129-.22c4.011 4.611 8.023 9.221 12.045 13.832 1.88 2.153 3.802 4.265 5.317 6.701.616.983 1.212 1.966 1.985 2.823.888.972 2.194 1.746 2.601 3.063a.8.8 0 0 0 .303.418Zm-21.353-16.131c.512-.481.836-1.171.773-1.882-.062-.774-.491-1.453-1.065-1.965-1.369-1.224-3.584-1.914-5.359-1.255-.272.105-.481.303-.544.565-1.358.46-2.329 1.881-1.796 3.324.595 1.558 2.423 2.217 3.948 2.373 1.379.136 2.999-.188 4.043-1.16Zm-23.442-15.442c.93-1.902.658-4.485-.679-6.126-1.358-1.662-4.346-2.174-5.903-.481-.198.209-.25.46-.198.68l-.428.094a.8.8 0 0 0-.366-.492c-.397-.23-.825-.073-1.076.283-1.149 1.62-1.389 3.805-.522 5.614.846 1.756 2.695 2.697 4.586 2.781 1.786.094 3.761-.659 4.586-2.353Z"/><path fill="#cb2821" stroke="#cb2821" d="M251.115 236.949c4.325 6.377-3.249 13.288-8.054 16.581-5.892 4.025-13.884 6.722-21.071 5.541-3.166-.533-6.341-2.279-7.783-5.269-1.567-3.241-.543-6.932 1.253-9.849 3.04-4.934 8.003-8.436 13.529-9.984a.8.8 0 0 1 .47-.46c4.179-1.537 8.733-2.059 13.142-1.338 3.207.523 6.633 2.007 8.514 4.778Zm-1.087 7.119c1.432-3.01.648-6.126-2.026-8.102-4.106-3.021-9.914-3.084-14.908-1.913-.031.366-.282.732-.731.794-6.727.889-13.455 5.176-16.391 11.438-1.399 3.011-1.399 6.408 1.118 8.813 2.528 2.425 6.226 2.812 9.569 2.582 6.268-.418 12.411-2.864 17.321-6.764 2.35-1.861 4.743-4.108 6.048-6.848Zm-8.473-85.521c8.472 6.733 12.651 18.672 9.496 29.127a.77.77 0 0 1-.355.449c.01.084.01.168 0 .262a157.5 157.5 0 0 0-1.212 21.39.7.7 0 0 1-.407.69.8.8 0 0 1-.679.481c-4.952.397-9.925.136-14.887-.074-4.837-.198-9.673-.407-14.5-.616-9.84-.408-19.681-.826-29.522-1.244-.491-.021-.742-.398-.762-.764v-.041c0-.398.25-.785.762-.764 9.841.419 19.682.837 29.522 1.244 4.827.21 9.663.419 14.5.617 4.806.199 9.611.45 14.406.105a155 155 0 0 1 1.212-21.024c0-.032.01-.053.021-.084a572 572 0 0 1-61.52-.47.8.8 0 0 1-.335-.084.79.79 0 0 1-.407-.565c-.679.042-1.295-.784-.648-1.286a523 523 0 0 1 20.8-15.702 510 510 0 0 1 12.368-8.584 140 140 0 0 1-2.204-22.466c-8.953 11.615-17.905 23.24-26.858 34.855-.606.795-1.964.011-1.358-.784 9.402-12.211 18.804-24.401 28.195-36.601v-.701c0-.523.418-.774.815-.763-3.614-3.774-8.441-5.74-13.487-6.743-4.533-.899-9.349-1.244-13.967-1.108-1.64.041-2.862.501-3.635 2.038-.616 1.223-1.045 2.551-1.557 3.816-1.159 2.886-2.308 5.781-3.468 8.677-4.471 11.187-8.953 22.384-13.424 33.581a379 379 0 0 0 16.652 19.947.78.78 0 0 1 .209.523c0 .627-.794 1.181-1.316.585a382 382 0 0 1-16.715-20.02.82.82 0 0 1-.177-.502c-.241-.157-.377-.439-.23-.795 2.768-6.91 5.526-13.821 8.284-20.721 2.444-6.105 4.889-12.221 7.323-18.327.648-1.599 1.285-3.209 1.933-4.819.48-1.192.888-2.52 1.64-3.586 1.483-2.081 3.99-1.997 6.299-1.955 9.423.188 20.078 1.16 26.9 8.468.533.575-.01 1.359-.595 1.349a.75.75 0 0 1 .083.355v.314c.22.219.293.533.042.857-.01.021-.031.031-.042.052.021 7.894.711 15.755 2.079 23.523a360 360 0 0 1 5.297-3.513c1.473-.961 3.019-2.258 4.721-2.812 1.358-.439 2.696-.104 3.991.387 2.434.909 4.68 2.216 6.717 3.826Zm8.138 28.154c1.504-5.446.951-11.259-1.253-16.445-1.985-4.694-5.276-8.886-9.538-11.709-2.1-1.39-5.683-3.722-8.211-2.446-2.978 1.505-5.767 3.69-8.556 5.551-.439.293-.878.586-1.306.889a516 516 0 0 0-32.583 23.753 568 568 0 0 0 61.447.407Z"/><path fill="#fff8e0" stroke="#cb2821" d="M248.001 235.963c2.674 1.976 3.458 5.091 2.027 8.102-1.306 2.739-3.698 4.987-6.049 6.848-4.91 3.899-11.052 6.346-17.32 6.764-3.343.23-7.041-.157-9.569-2.582-2.518-2.405-2.518-5.803-1.118-8.814 2.935-6.262 9.663-10.548 16.391-11.437.449-.063.699-.428.731-.794 4.993-1.171 10.802-1.109 14.907 1.913Zm-1.389 5.373c.209-1.714-.523-3.575-1.849-4.694-1.442-1.202-3.427-1.61-5.213-1.035a.9.9 0 0 0-.261.136 2.5 2.5 0 0 0-.533.136c-1.463.523-2.486 1.987-2.842 3.461s-.146 3.126.721 4.391c.825 1.212 2.142 2.09 3.594 2.352a5.26 5.26 0 0 0 3.113-.376c1.724-.743 3.04-2.363 3.27-4.371Zm1.828-71.077c2.204 5.185 2.757 10.998 1.253 16.445a568 568 0 0 1-61.447-.408 517 517 0 0 1 32.583-23.753c.428-.303.867-.596 1.306-.888 2.789-1.861 5.578-4.046 8.556-5.552 2.528-1.275 6.111 1.056 8.211 2.447 4.262 2.822 7.553 7.015 9.538 11.709Zm.71 18.043s-.021.052-.021.083a155 155 0 0 0-1.212 21.024c-4.795.345-9.6.094-14.406-.104-4.837-.199-9.673-.408-14.5-.617-9.84-.408-19.681-.826-29.522-1.244-.512-.021-.763.366-.763.763l-.595.042a280 280 0 0 1-.836-19.874c0-.314-.146-.533-.365-.648l.365.02a.8.8 0 0 0 .335.084 573 573 0 0 0 61.52.471Z"/><path fill="#cb2821" stroke="#cb2821" d="M244.763 236.644c1.327 1.118 2.058 2.979 1.849 4.694-.23 2.007-1.546 3.628-3.27 4.37a5.24 5.24 0 0 1-3.113.376c-1.452-.261-2.768-1.139-3.593-2.352-.867-1.265-1.076-2.917-.721-4.391s1.379-2.938 2.841-3.46a2.5 2.5 0 0 1 .533-.136.9.9 0 0 1 .261-.136c1.787-.575 3.772-.167 5.213 1.035Zm-2.497 7.642c.857-.826.617-2.101.303-3.126-.344-1.108-.856-2.331-1.64-3.188-.282-.314-.627-.617-1.065-.68-.053-.01-.094-.01-.157-.01-.46 0-.888.261-1.222.575-.784.752-1.181 1.84-1.17 2.916.021 2.227 1.943 3.931 4.137 3.848a4 4 0 0 0 .637-.084.8.8 0 0 1 .177-.251ZM243.395 89.6c.554.648.867 1.474.867 2.332 0 1.798-1.306 3.21-2.987 3.67-1.682.47-3.646.093-4.921-1.15-1.233-1.203-1.703-3.158-1.045-4.768.115-.293.345-.512.627-.565a.6.6 0 0 1 .063-.177c.386-.858 1.337-1.182 2.215-1.224.908-.052 1.828.178 2.695.46.909.293 1.859.67 2.486 1.422Z"/><path fill="#fff8e0" stroke="#cb2821" d="M242.569 241.16c.314 1.024.554 2.3-.303 3.126a.8.8 0 0 0-.177.251 4 4 0 0 1-.638.083c-2.193.084-4.115-1.62-4.136-3.847-.011-1.077.386-2.164 1.17-2.917.334-.313.762-.575 1.222-.575.063 0 .104 0 .157.011.438.062.783.366 1.065.679.784.858 1.296 2.081 1.64 3.189Z"/><path fill="#cb2821" stroke="#cb2821" d="M238.923 123.178c.063.711-.261 1.401-.773 1.882-1.045.972-2.664 1.296-4.043 1.16-1.525-.157-3.353-.815-3.949-2.373-.533-1.443.439-2.865 1.797-3.325.063-.261.272-.46.543-.564 1.776-.659 3.991.031 5.359 1.254.575.513 1.003 1.192 1.066 1.966Zm-12.317-46.231c2.027 1.432 3.187 4.13 2.507 6.587-.626 2.258-2.789 4.244-5.223 4.181-2.591-.052-4.314-2.32-5.161-4.547-.814-2.133-1.159-5.113.721-6.806.45-.398 1.014-.168 1.243.22 1.87-.91 4.169-.869 5.913.365Z"/><path fill="#fff8e0" stroke="#cb2821" d="M217.999 135.153c-.397-.01-.815.241-.815.764v.7c-9.392 12.201-18.793 24.391-28.195 36.602-.606.794.752 1.578 1.358.784 8.952-11.615 17.905-23.241 26.858-34.856.125 7.538.867 15.044 2.204 22.467a512 512 0 0 0-12.369 8.583 523 523 0 0 0-20.799 15.703c-.648.502-.031 1.328.648 1.286a.78.78 0 0 0 .407.564l-.365-.02c-.46-.262-1.202-.042-1.202.648.021 2.498.063 4.997.147 7.485l-.554.021a.78.78 0 0 0-.209-.523 379 379 0 0 1-16.652-19.947c4.471-11.197 8.953-22.394 13.424-33.58 1.159-2.896 2.309-5.792 3.468-8.677.512-1.265.94-2.593 1.557-3.816.773-1.537 1.995-1.997 3.635-2.039 4.618-.136 9.433.209 13.967 1.108 5.046 1.004 9.872 2.969 13.487 6.743Z"/><path fill="#cb2821" stroke="#cb2821" d="M214.029 103.495c1.337 1.641 1.608 4.223.679 6.126-.826 1.694-2.8 2.447-4.586 2.352-1.891-.083-3.74-1.024-4.587-2.78-.867-1.809-.626-3.994.523-5.615.251-.355.679-.512 1.076-.282a.8.8 0 0 1 .365.492l.429-.095a.73.73 0 0 1 .198-.679c1.557-1.694 4.545-1.181 5.903.481Zm-4.419 132.157c4.314 6.367-3.249 13.288-8.055 16.581-5.892 4.025-13.894 6.722-21.081 5.53-3.155-.522-6.341-2.268-7.783-5.258-1.567-3.241-.543-6.932 1.254-9.848 3.04-4.945 8.013-8.437 13.539-9.985a.76.76 0 0 1 .47-.46c4.178-1.536 8.733-2.059 13.131-1.338 3.218.523 6.644 1.997 8.525 4.778Zm-1.097 7.12c1.441-3.011.647-6.137-2.027-8.103-4.105-3.021-9.903-3.094-14.897-1.913-.031.366-.282.732-.741.795-6.728.888-13.456 5.175-16.381 11.437-1.41 3-1.4 6.409 1.108 8.813 2.538 2.426 6.226 2.812 9.579 2.582 6.258-.418 12.411-2.875 17.321-6.764 2.34-1.861 4.732-4.108 6.038-6.847Z"/><path fill="#fff8e0" stroke="#cb2821" d="M206.486 234.671c2.674 1.965 3.468 5.091 2.027 8.102-1.306 2.739-3.698 4.987-6.038 6.848-4.91 3.889-11.063 6.345-17.321 6.764-3.353.23-7.041-.157-9.579-2.583-2.508-2.404-2.518-5.812-1.108-8.813 2.925-6.262 9.653-10.548 16.381-11.437.459-.063.71-.429.741-.795 4.994-1.181 10.792-1.108 14.897 1.914Zm-1.379 5.373c.209-1.725-.533-3.575-1.859-4.694a5.53 5.53 0 0 0-5.213-1.035.7.7 0 0 0-.24.126c-.178.02-.366.062-.554.135-1.463.534-2.476 1.997-2.831 3.471s-.157 3.126.71 4.391a5.64 5.64 0 0 0 3.604 2.353 5.3 5.3 0 0 0 3.103-.377c1.724-.753 3.04-2.373 3.28-4.37Z"/><path fill="#cb2821" stroke="#cb2821" d="M203.247 235.347c1.327 1.119 2.069 2.969 1.86 4.694-.24 1.997-1.557 3.617-3.28 4.37a5.3 5.3 0 0 1-3.103.376 5.63 5.63 0 0 1-3.604-2.352c-.867-1.265-1.066-2.917-.711-4.391s1.369-2.938 2.831-3.471c.189-.073.377-.115.554-.136a.8.8 0 0 1 .24-.125 5.53 5.53 0 0 1 5.213 1.035Zm-2.496 7.632c.856-.826.626-2.102.303-3.126-.335-1.098-.847-2.321-1.63-3.189-.282-.313-.637-.606-1.076-.669-.052-.01-.094-.01-.157-.01-.459 0-.888.261-1.212.575-.794.752-1.18 1.84-1.18 2.916.021 2.227 1.943 3.931 4.137 3.848a4 4 0 0 0 .637-.084.8.8 0 0 1 .178-.261Z"/><path fill="#fff8e0" stroke="#cb2821" d="M201.054 239.853c.323 1.024.553 2.3-.303 3.125a.8.8 0 0 0-.178.262 4 4 0 0 1-.637.084c-2.194.083-4.116-1.621-4.137-3.848 0-1.077.386-2.164 1.18-2.917.324-.313.752-.575 1.212-.575.063 0 .105 0 .157.011.439.063.794.355 1.076.669.783.868 1.295 2.091 1.63 3.189Z"/><path fill="#cb2821" stroke="#cb2821" d="M188.131 208.288c.084 1.014-1.483 1.004-1.567 0a274 274 0 0 1-.689-12.43 291 291 0 0 1-.146-7.486c0-.69.741-.909 1.201-.648.219.115.366.335.366.648.041 6.639.323 13.267.835 19.874zm-7.604 8.042c.22 1.485-.376 3.137-1.786 3.827-.763.376-1.599.407-2.361.02a2.26 2.26 0 0 1-.899-.846.5.5 0 0 1-.302-.105c-1.327-.93-1.714-2.739-.993-4.171.669-1.318 2.236-1.84 3.625-1.6 1.41.251 2.497 1.474 2.716 2.875Zm-1.515.826v-.136c.011-.094 0-.178-.01-.272v-.125c-.01-.073-.031-.136-.042-.209-.031-.105-.073-.209-.104-.314q-.032-.047-.032-.063c-.031-.062-.062-.125-.094-.177-.041-.063-.073-.115-.115-.178-.01-.01-.01-.021-.02-.031l-.011-.011h-.01a1.6 1.6 0 0 0-.209-.23c-.021-.021-.053-.042-.073-.063 0-.01-.011-.01-.011-.01l-.01-.01s-.073-.053-.084-.063c-.104-.052-.198-.115-.303-.157-.01-.011-.021-.01-.042-.021a1 1 0 0 0-.188-.052c-.083-.032-.177-.042-.261-.063h-.021s-.021-.01-.031-.01h-.219c-.084 0-.157 0-.23.01h-.053a3 3 0 0 0-.323.073.6.6 0 0 1-.126.042c-.01 0-.021.011-.041.011 0 .01-.011.01-.011.01-.094.052-.188.094-.282.157l-.104.073c-.032.031-.063.052-.094.084-.042.052-.084.083-.136.136l-.021.031v.021c-.052.083-.105.167-.146.251h-.011v.021s0 .01-.01.021c0 .041-.021.083-.042.135a2 2 0 0 0-.073.293s-.011.199-.011.23v.188s.011.042.011.063a.2.2 0 0 1 .01.063c.011.073.031.146.052.219.021.063.042.126.053.178 0 .011.01.021.021.042.041.073.073.136.104.199h.01a.9.9 0 0 1 .283-.063c.428-.021.773.376.783.784v.031s.011.063.021.094v.021l.021.042a.5.5 0 0 0 .073.126c.01.01.021.031.031.041.021.021.042.053.052.053.011.01.053.041.084.073.052.031.094.063.146.094.021.01.032.021.042.031h.021c.073.021.136.032.209.053h.219s.147-.032.168-.042c.062-.011.114-.032.167-.053.041-.031.135-.073.146-.083.042-.021.083-.052.125-.073a.3.3 0 0 0 .052-.042c.021-.021.042-.042.074-.063l.104-.104s.084-.095.115-.136.063-.074.084-.115c.073-.094.125-.199.177-.304h.011v-.02s.01-.032.01-.042c.021-.074.052-.136.063-.199.031-.084.041-.188.062-.282v-.052c0-.053.011-.105.011-.126zm-3.791-109.393s.083-.01.115-.02c.104-.021.188-.053.282-.084.021 0 .031-.011.052-.021h.011l.062-.031s.115-.063.178-.105c.052-.031.094-.063.146-.094l.031-.031c.094-.084.199-.168.282-.272.032-.032.063-.073.094-.105 0 0 0-.01.011-.01 0 0 .021-.032.031-.042.011-.01.021-.031.032-.042.073-.104.135-.219.198-.334.021-.032.042-.074.063-.115v-.032c0-.01.01 0 .01-.021.011-.021.011-.041.021-.062.042-.126.084-.251.115-.387l.031-.178.011-.021v-.042c.01-.125.01-.251 0-.386 0-.011-.011-.053-.011-.084 0 0 .011-.011 0-.021 0-.031 0-.084-.021-.094a5 5 0 0 0-.062-.23c0-.011-.021-.063-.032-.094 0-.011-.01-.021-.01-.021-.01-.011-.01-.021-.01-.021a.4.4 0 0 0-.042-.063.5.5 0 0 0-.094-.157c-.011-.02-.021-.041-.032-.052s-.01-.021-.01-.021c-.042-.042-.084-.094-.125-.136-.032-.042-.074-.073-.115-.115-.021-.01-.073-.052-.105-.073h-.01s-.063-.052-.073-.063c-.053-.031-.094-.062-.147-.083s-.094-.052-.146-.073c-.01-.011-.021-.011-.021-.011l-.021-.01h-.021a2 2 0 0 0-.365-.115c-.052-.011-.115-.021-.167-.032-.011 0-.021-.01-.032-.01h-.021a3.4 3.4 0 0 0-.658.01c.021-.01.011-.01-.073 0h.063s-.115.011-.146.021c-.053.011-.115.021-.168.042a2 2 0 0 0-.261.084l-.021.01s-.02.011-.031.011c-.042.01-.073.031-.094.041-.052.032-.094.053-.146.084s-.084.063-.136.084a.1.1 0 0 0-.042.021h.021-.01a4 4 0 0 0-.293.292l-.021.021s-.062.094-.094.147c-.021.031-.042.073-.073.094a.5.5 0 0 1-.052.136v.021s-.021.062-.032.083l-.062.22s-.011.062-.021.094c0 .073-.01.136-.01.209s0 .146.01.219v.053c.031.167.063.313.115.47l.062.157s.032.084.053.115c.073.146.156.272.24.408h.01s.032.052.042.062c.053.053.094.115.147.168.052.052.104.104.156.146.011.011.084.073.126.115h.01l.01.011c.032.02.095.062.115.073a1 1 0 0 0 .168.104c.052.021.094.053.146.063.031.021.062.031.083.042.105.031.209.052.314.083h.042s.021.011.031.011h.042c.062.01.125.01.188.01a1 1 0 0 1 .156-.021zm3.353-2.404c.073 1.411-.741 2.875-1.964 3.565-1.368.763-3.019.418-4.084-.69-1.066-1.119-1.452-2.75-.794-4.172.01-.02.021-.031.041-.052.011-.01.011-.021.011-.021a1 1 0 0 1 .073-.167c.857-1.39 2.612-1.913 4.158-1.526 1.441.366 2.486 1.568 2.559 3.063Z"/><path fill="#cb2821" d="m169.704 118.045-.083.042s-.094.052-.147.084c-.052.031-.093.062-.146.094h-.021c-.104.094-.198.188-.292.282l-.021.021s-.063.104-.094.146a1 1 0 0 1-.063.084c-.021.052-.031.104-.062.146v.021s-.032.063-.032.094c-.031.063-.041.136-.062.209-.011.032-.011.063-.021.094 0 .074-.011.147-.011.22s0 .136.011.209v.073c.031.147.062.303.115.45.01.052.031.094.052.146l.01.021.053.105c.073.146.156.271.24.407.01.011.021.032.021.032v.021c.01 0 .01.01.021.021.052.052.094.104.146.156l.156.157s.084.073.126.105h.01l.011.01c.031.021.094.073.115.084l.156.094c.063.031.105.052.157.073.031.011.063.021.084.031.104.032.209.063.313.084l.021.011h.021s.052.01.073.01h.188s.105-.01.146-.01h.021s.073-.011.105-.021c.104-.032.219-.074.323-.105.021 0 .053-.021.074-.031.062-.032.125-.073.188-.105.052-.031.094-.073.146-.104 0-.011.021 0 .021 0l.01-.011h.011c.094-.115.188-.188.271-.282a1 1 0 0 0 .094-.115s.011-.021.042-.052c.011 0 .01-.021.021-.032.084-.115.146-.23.209-.345.021-.031.042-.073.063-.115 0 0 .01-.021.01-.031 0-.011.01 0 .01-.021.011-.021.011-.042.021-.063a5 5 0 0 0 .115-.376c.011-.063.021-.126.032-.178l.01-.021v-.042a2.3 2.3 0 0 0 0-.386c0-.011-.01-.053-.01-.084 0 0 .01-.01 0-.021 0-.042-.011-.094-.021-.104l-.063-.23c-.01-.021-.031-.084-.042-.105a.4.4 0 0 0-.052-.094.6.6 0 0 0-.094-.157.2.2 0 0 0-.031-.052c-.042-.052-.084-.105-.136-.147a.7.7 0 0 0-.126-.125c-.01-.01-.031-.031-.062-.052h-.021c-.01-.021-.021-.021-.021-.021-.031-.021-.063-.042-.073-.052a.7.7 0 0 1-.146-.084c-.042-.021-.094-.042-.136-.063a.1.1 0 0 1-.042-.021h-.01s-.011 0-.011-.01h-.01c-.126-.042-.241-.084-.366-.115-.052-.011-.115-.021-.167-.032-.011-.01-.021-.01-.031-.01H171a5 5 0 0 0-.658.01h-.011s-.115.011-.146.021c-.052.011-.115.032-.167.042a1 1 0 0 0-.261.094s-.032.011-.053.021m4.566 1.432c.073 1.401-.742 2.865-1.964 3.555-1.369.763-3.02.418-4.085-.69-1.066-1.108-1.452-2.75-.794-4.171a.23.23 0 0 1 .063-.094.3.3 0 0 1 .062-.136c.857-1.391 2.612-1.924 4.158-1.537 1.442.366 2.486 1.568 2.56 3.073"/><path stroke="#cb2821" d="m169.704 118.045-.083.042s-.094.052-.147.084c-.052.031-.093.062-.146.094h-.021c-.104.094-.198.188-.292.282l-.021.021s-.063.104-.094.146a1 1 0 0 1-.063.084c-.021.052-.031.104-.062.146v.021s-.032.063-.032.094c-.031.063-.041.136-.062.209-.011.032-.011.063-.021.094 0 .074-.011.147-.011.22s0 .136.011.209v.073c.031.147.062.303.115.45.01.052.031.094.052.146l.01.021.053.105c.073.146.156.271.24.407.01.011.021.032.021.032v.021c.01 0 .01.01.021.021.052.052.094.104.146.156l.156.157s.084.073.126.105h.01l.011.01c.031.021.094.073.115.084l.156.094c.063.031.105.052.157.073.031.011.063.021.084.031.104.032.209.063.313.084l.021.011h.021s.052.01.073.01h.188s.105-.01.146-.01h.021s.073-.011.105-.021c.104-.032.219-.074.323-.105.021 0 .053-.021.074-.031.062-.032.125-.073.188-.105.052-.031.094-.073.146-.104 0-.011.021 0 .021 0l.01-.011h.011c.094-.115.188-.188.271-.282a1 1 0 0 0 .094-.115s.011-.021.042-.052c.011 0 .01-.021.021-.032.084-.115.146-.23.209-.345.021-.031.042-.073.063-.115 0 0 .01-.021.01-.031 0-.011.01 0 .01-.021.011-.021.011-.042.021-.063a5 5 0 0 0 .115-.376c.011-.063.021-.126.032-.178l.01-.021v-.042a2.3 2.3 0 0 0 0-.386c0-.011-.01-.053-.01-.084 0 0 .01-.01 0-.021 0-.042-.011-.094-.021-.104l-.063-.23c-.01-.021-.031-.084-.042-.105a.4.4 0 0 0-.052-.094.6.6 0 0 0-.094-.157.2.2 0 0 0-.031-.052c-.042-.052-.084-.105-.136-.147a.7.7 0 0 0-.126-.125c-.01-.01-.031-.031-.062-.052h-.021c-.01-.021-.021-.021-.021-.021-.031-.021-.063-.042-.073-.052a.7.7 0 0 1-.146-.084c-.042-.021-.094-.042-.136-.063a.1.1 0 0 1-.042-.021h-.01s-.011 0-.011-.01h-.01c-.126-.042-.241-.084-.366-.115-.052-.011-.115-.021-.167-.032-.011-.01-.021-.01-.031-.01H171a5 5 0 0 0-.658.01h-.011s-.115.011-.146.021c-.052.011-.115.032-.167.042a1 1 0 0 0-.261.094s-.032.011-.053.021Zm0 0h-.01m4.576 1.432c.073 1.401-.742 2.865-1.964 3.555-1.369.763-3.02.418-4.085-.69-1.066-1.108-1.452-2.75-.794-4.171a.23.23 0 0 1 .063-.094.3.3 0 0 1 .062-.136c.857-1.391 2.612-1.924 4.158-1.537 1.442.366 2.486 1.568 2.56 3.073Zm-.346-12.094h-.01"/><path fill="#cb2821" stroke="#cb2821" d="M160.689 63.65c4.774 3.722 5.882 10.863 2.299 15.808-3.385 4.694-10.301 5.677-14.908 2.3 1.003 3.293.606 6.962-1.013 10.078-2.58 4.976-7.887 7.329-13.34 6.576a18 18 0 0 1-2.1-.429c1.483.784 2.893 1.746 4.314 2.603 2.633 1.569 5.245 3.199 5.83 6.451.908 5.102-1.756 11.27-5.495 14.678-3.646 3.314-8.995 4.422-13.508 2.258a9 9 0 0 1-3.123-2.446c-.638 2.185-1.912 4.192-3.27 5.99-1.693 2.227-3.521 4.799-6.132 6.012-2.539 1.192-5.474.679-7.929-.544.982 2.436 1.086 5.175.365 7.716-1.379 4.871-5.986 9.754-11.188 10.339-1.275.147-2.57-.052-3.72-.648-1.19-.617-2.11-1.683-2.997-2.676-1.65-1.872-3.27-4.663-1.505-7.015a.08.08 0 0 1 .042-.042c-1.839.177-3.614-.272-5.265-1.035 1.985 2.582 3.218 5.896 3.75 8.886.93 5.207-.606 11.061-5.766 13.413-4.973 2.269-9.695-1.16-12.327-5.279-2.664-4.182-3.615-9.66-2.016-14.407.031-.104.073-.219.115-.324-1.87 1.203-3.96 1.736-6.06.763-4.638-2.132-6.34-8.614-6.8-13.214-.46-4.548.041-11.26 4.878-13.413 1.264-.565 2.654-.826 4.075-.858-2.403-2.53-3.25-5.927-3.124-9.503.031-.847.094-1.693.209-2.551a.7.7 0 0 1-.313-.23c-2.967-3.774-4.064-8.73-3.04-13.423.846-3.88 3.51-8.207 7.552-9.17a9 9 0 0 1-1.264-1.546c-2.37-3.649-1.452-8.49.951-11.877 2.57-3.617 6.696-6.022 10.76-7.621 3.99-1.579 9.005-1.987 12.421 1.098 2.706 2.435 3.353 6.544 1.85 9.775 1.91.156 3.666.961 4.616 2.843.053.115.084.23.095.335 1.076-2.865 2.841-5.572 5.066-7.58-2.967-.48-5.422-2.927-6.028-6-1.535-7.758 6.592-14.407 13.518-15.599 3.5-.606 7.125.136 9.684 2.697 2.246 2.248 3.427 5.552 2.382 8.636a.74.74 0 0 1-.313.407c-.543.356-1.463-.052-1.201-.815 1.17-3.429-.962-7.015-4.002-8.614-3.583-1.893-8.033-.774-11.365 1.129-3.291 1.892-6.436 4.871-7.177 8.74-.732 3.92 1.953 8.781 6.487 7.861.042-.01.073-.01.104-.01 3.124-1.892 7.344-2.06 10.144.21.272-.241.679-.294.993.062.282.324.553.669.783 1.024.742-3.544 2.831-6.785 5.6-9.126.48-.408.981-.785 1.493-1.13 2.361-1.578 5.307-2.676 8.18-2.435 2.382.198 4.283 1.4 5.641 3.23.356-3.89 2.79-7.329 6.488-8.761 5.724-2.227 11.324 1.14 13.559 6.252 2.079-4.945 3.354-10.204 3.719-15.556.188-2.635.157-5.29-.083-7.915-.105-1.076-.523-2.007.407-2.739a4 4 0 0 1 1.954-.794c3.28-.44 6.424 2.676 6.905 5.76.731 4.652-2.81 8.761-5.129 12.4a57.2 57.2 0 0 0-6.582 14.49.8.8 0 0 1-.198.344 13 13 0 0 1-.251 1.778c-.491 2.498-1.64 4.882-3.176 6.89-1.88 2.487-4.241 4.296-7.083 5.101 2.717.805 5.203 2.425 6.968 4.673q.818 1.05 1.369 2.227c.271-.25.721-.334 1.076-.02 2.173 1.881 5.244 2.477 8.023 1.818 5.129-1.213 7.908-6.638 6.717-11.636-1.243-5.175-6.728-8.447-11.888-7.736-.7.094-1.108-.617-.951-1.098.063-.209.24-.366.533-.407 3.458-.481 6.957.418 9.715 2.571Zm-6.111-19.006c2.152-3.502 5.934-7.486 5.453-11.918-.177-1.725-1.368-3.283-2.852-4.12-.668-.386-1.473-.658-2.256-.575-.272.021-1.045.168-1.202.44-.167.292.073 1.024.094 1.327.7 7.015-.167 14.125-2.423 20.795a55 55 0 0 1 3.186-5.95ZM136.255 72.16c7.396-.345 12.954-8.666 11.658-15.776a.76.76 0 0 1-.188-.815 10.3 10.3 0 0 0-.846-2.227c-1.766-3.366-5.203-5.614-9.078-5.175-4.262.491-7.459 4.067-7.678 8.311-.021.47-.377.722-.753.743 1.484 2.624 2.56 5.802 3.093 8.75.438 2.373.376 4.83-.502 7.047a13.5 13.5 0 0 1 3.604-.356.75.75 0 0 1 .69-.502Zm10.227 17.02c1.358-4.244.313-8.792-3.03-11.782-2.925-2.624-7.062-3.722-10.875-2.896a.7.7 0 0 1-.156.147 34 34 0 0 0-3.364 2.78 17.6 17.6 0 0 1-1.891 1.956 25 25 0 0 0-1.609 1.996c-1.723 2.384-3.269 5.53-2.235 8.5.856 2.478 3.311 4.213 5.547 5.363 2.298 1.181 4.899 1.84 7.49 1.746 4.774-.178 8.681-3.293 10.123-7.81Zm-7.114 24.84c.741-2.153 1.326-4.683.815-6.952-.585-2.603-2.915-3.868-5.036-5.133a1390 1390 0 0 0-3.834-2.29c-1.034-.616-2.392-1.484-3.604-.899-.031.021-.062.032-.094.053l-.062.031s-.063.031-.094.042c0 0-.032.01-.042.01-5.411 1.788-8.765 7.015-9.047 12.598a17 17 0 0 0 0 1.788v.01c1.16 1.485 1.724 3.377 1.713 5.311 0 .262-.01.523-.042.784.972 1.621 2.403 2.927 4.398 3.607 4.148 1.411 8.556 0 11.502-3.147 1.546-1.652 2.685-3.68 3.427-5.813Zm-8.974-41.316c1.045-2.425.909-5.154.251-7.736-.7-2.73-1.682-5.876-3.385-8.165-3.437-4.6-10.05-1.997-13.497 1.191-2.821 2.593-4.649 6.21-4.764 9.984.554 1.454.857 3.022.961 4.611.021.303.042.606.042.91.596 1.672 1.411 3.303 2.309 4.809 1.358 2.268 3.27 4.035 6.08 3.795 2.758-.23 5.349-1.652 7.501-3.597a29 29 0 0 1 1.984-2.09c.021-.011.032-.032.042-.042a20.4 20.4 0 0 0 2.298-3.45.64.64 0 0 1 .178-.22Zm-3.479 24.704a3.43 3.43 0 0 1 1.975-.387c-1.964-.857-3.834-2.07-5.203-3.606a13.6 13.6 0 0 1-1.055 6.325 14 14 0 0 1 4.283-2.332Zm-5.453 1.046c1.536-4.339.512-9.232-2.779-12.483-3.426-3.388-8.827-4.036-12.901-1.432a.9.9 0 0 1-.251.104 30 30 0 0 1-2.455 2.175c-2.068 2.477-3.27 5.854-3.134 9.043.752 1.056 1.275 2.31 1.661 3.565.251.826.449 1.662.564 2.509a10.94 10.94 0 0 0 4.931 3.555 10 10 0 0 1 3.761.627c4.774-.084 9.015-3.168 10.603-7.663Zm.011-11.532c.177-1.662.825-3.262 1.682-4.725-1.494.794-3.145 1.39-4.795 1.505a12.1 12.1 0 0 1 3.113 3.22Zm-4.503 22.875c.241-1.631.711-3.21 1.411-4.673a13 13 0 0 1-5.109 2.279c1.369 1.003 2.445 2.404 2.998 4.119.115 0 .22.042.335.115l.188.125c.031-.669.083-1.327.177-1.965Zm1.411 9.827c-.92-1.746-1.411-3.774-1.547-5.802a6 6 0 0 0-.814-.68c-.408.178-.941.073-1.066-.481-.512-2.289-2.162-4.087-4.283-4.986q-.909 0-1.818-.126c-.7-.104-1.389-.261-2.058-.491-1.494.125-2.946.637-4.252 1.411a12 12 0 0 0-2.235 1.725 10.4 10.4 0 0 1-1.233 1.38c-2.079 2.666-3.134 6.116-2.946 9.482.261 4.705 3.301 9.169 7.72 10.905 2.695 1.066 5.401.836 7.605-1.119 1.808-1.61 3.364-3.691 4.701-5.698 1.024-1.537 1.912-3.533 2.226-5.52Zm-10.447-37.772a11.6 11.6 0 0 1 4.816-.377c-1.045-1.076-1.86-2.415-2.528-3.732a19 19 0 0 1-.397-.805c-.262 1.736-.836 3.408-1.849 4.851-.011.02-.032.042-.042.063Zm-.199-2.959c.533-1.474.805-3.178.805-4.903-.606-1.61-1.034-3.293-1.128-5.029a19 19 0 0 1-.021-.794 8 8 0 0 0-.45-.941.76.76 0 0 1-.867-.335c-1.222-1.934-3.499-2.76-5.724-2.634-1.453.073-2.79.606-3.991 1.39-.804.512-1.536 1.15-2.204 1.84-3.145 3.272-5.516 8.165-5.098 12.786.073.857.292 1.715.616 2.54a.72.72 0 0 1 .47.68v.324c1.4 2.562 3.97 4.517 7 4.234 1.88-.177 3.51-1.254 4.941-2.477a11.6 11.6 0 0 1 2.194-1.997c1.431-1.349 2.778-2.812 3.457-4.684Zm-3.374 27.036a12.7 12.7 0 0 1-2.037-1.527 10.5 10.5 0 0 1-.407 2.603 12.7 12.7 0 0 1 2.444-1.076Zm-4.273 1.557c.7-1.578.805-3.261.596-4.924-1.034-1.411-1.776-3.032-2.11-4.778-.094-.47-.157-.95-.188-1.432a4.9 4.9 0 0 0-1.348-1.181h-.01a.9.9 0 0 1-.366-.032c-3.552-1.244-7.553-1.704-11.22-.815-.01.01-.02.01-.031.01a17 17 0 0 1-1.599.701c-.637.25-1.316.502-2.026.732-.355.209-.71.428-1.045.669-3.395 2.373-5.829 6.691-5.181 10.894a.77.77 0 0 1 .334.564c.042.314.052.617.052.92.794 2.133 2.528 3.21 4.806 3.837 1.588.439 3.207.794 4.847 1.004.052.01.105.02.146.02.982.126 1.975.189 2.967.178 3.301-.031 6.822-1.098 9.235-3.377.345-.439.72-.867 1.118-1.265h.02a9 9 0 0 0 1.003-1.714zm-4.157 40.041c4.617-3.397 7.469-9.827 4.325-15.159a.72.72 0 0 1-.053-.679c-2.841-2.143-4.753-5.343-5.411-8.824.188 1.568-.094 3.231-.45 4.788-.751 3.241-1.87 6.503-4.032 9.085-1.525 1.798-3.614 3.22-5.923 3.753.345.199.543.596.24 1.004-.982 1.307-.46 2.854.408 4.067.804 1.14 1.87 2.404 3.04 3.189 2.465 1.672 5.704.376 7.856-1.224Zm2.486-53.287c.157-1.85.679-3.7 1.515-5.405-1.578.722-3.29 1.004-5.056.607-1.944-.44-3.552-1.506-4.764-2.927-.094 1.484-.355 2.948-.982 4.286a6.6 6.6 0 0 1-1.003 1.537c2.695-.188 5.453.198 8.034.982.146-.073.313-.083.511-.01a6.2 6.2 0 0 1 1.745.93Zm-3.803 24.495a16.3 16.3 0 0 1 1.39-5.028c-1.599.805-3.385 1.317-5.182 1.547 1.65 1.025 2.852 2.593 2.988 4.642 0 .042 0 .084-.01.115.428.627.7 1.317.856 2.018a14.5 14.5 0 0 1-.042-3.294Zm-1.734 8.291c.48-2.133.91-4.778-.679-6.566-.303-.345-.24-.752-.02-1.035-.523-2.937-4.064-3.795-6.624-4.098-2.83-.324-5.808-.575-8.556.324-2.308.743-4.084 2.29-5.004 4.548a20.1 20.1 0 0 0-1.41 5.959c-.031.293-.042.586-.052.868-.073 2.394.48 4.746 2.037 6.618 1.536 1.829 3.677 3.335 5.798 4.401 2.152 1.098 4.534 1.464 6.832.565 2.236-.889 4.001-2.677 5.202-4.726 1.233-2.112 1.944-4.485 2.476-6.858Zm-7.908-34.197c3.28-1.725 3.657-5.238 3.615-8.656a11.95 11.95 0 0 1-1.097-6.012 17.3 17.3 0 0 1 .93-4.317c-.314.397-.972.512-1.254-.063-1.89-3.743-7.459-1.861-10.04-.073-3.415 2.383-4.878 6.251-5.787 10.162-.762 3.324-1.776 8.248 1.682 10.444 2.225 1.421 5.067 1.097 7.689.271a15 15 0 0 1 4.262-1.756ZM82.35 69.777c1.828-3.44.355-7.862-3.207-9.451-3.74-1.652-7.94-.23-11.377 1.484-3.207 1.61-6.393 3.733-8.22 6.921-1.777 3.095-2.142 7.172.302 10.016.45.522.961.972 1.515 1.37 1.932 1.369 4.408 1.912 6.727 1.275.68-.188 1.087.502.94 1.014l-.062.157a.8.8 0 0 1-.46.334c-2.611.711-5.39.188-7.626-1.234-.02.011-.052.011-.073.011-4.346.052-6.989 4.778-7.73 8.53-.742 3.765.052 7.821 2.235 10.968.543-2.478 1.505-4.862 3.113-6.827 2.34-2.854 6.08-4.495 9.747-3.66.292.064.46.241.533.46.146.513-.261 1.203-.95 1.046-4.347-.982-8.17 2.206-9.842 5.98-1.671 3.754-2.33 9.002-.856 12.901.668 1.798 1.943 3.231 3.5 4.308 2.34.376 4.659 1.265 6.644 2.404.083-.01.167-.021.24-.042 1.055-.272 1.911-1.192 2.674-1.913.7-.659 1.4-1.338 2.027-2.07 1.19-1.39 2.09-2.938 2.214-4.725a8 8 0 0 1-.303-1.234c-.69-4.13 1.066-8.249 3.991-11.124-2.747.377-5.464-.031-7.375-2.373-.773-.962-1.233-2.06-1.473-3.23-.533-2.645.083-5.677.773-8.249.031-.126.073-.261.104-.387.073-.282.157-.564.23-.836 1.285-4.569 3.865-8.583 8.347-10.517 1.066-.46 2.33-.816 3.604-.92a.7.7 0 0 1 .094-.387Zm-5.067 89.501c3.845-3.324 3.74-8.75 2.267-13.214-1.285-3.91-3.76-8.123-8.033-9.148-.292-.073-.47-.261-.533-.481-4.659-.951-7.918 4.966-8.399 8.928-.49 4.109.763 8.406 3.29 11.647 1.328 1.704 3.093 3.324 5.214 3.889 2.214.585 4.492-.157 6.194-1.621Zm1.484-45.634c-.094-.021-.178-.063-.261-.094-1.264-.523-2.267-1.307-3.02-2.3-1.034 2.927-3.645 5.478-5.975 7.172-.22.157-.439.293-.679.408.136.083.272.188.397.282a.83.83 0 0 1 .324.805c.198.073.355.24.418.512l.094.471c.49-1.558 1.201-3.043 2.298-4.214 1.671-1.777 4.022-2.686 6.404-3.042Zm-11.073 21.62c1.232-.512 2.58-.658 3.98-.272a10.5 10.5 0 0 1-1.766-2.676 9 9 0 0 1-.439-1.192 21 21 0 0 1-1.775 4.14Zm-.565-2.342c1.703-3.763 2.205-8.029 1.327-12.075a.9.9 0 0 1 0-.366c-.01 0-.01-.01-.02-.01a20 20 0 0 0-1.704-1.15c-2.256.084-4.721-1.066-6.612-2.331-2.372-.335-5.15-.283-6.968 1.327-3.343 2.969-3.124 9.054-2.372 13.016.658 3.523 2.643 10.267 7.219 10.298 2.235.01 4.252-1.955 5.672-3.481a19.4 19.4 0 0 0 3.458-5.228Zm93.967-25.097c.45 1.338.251 2.844-.647 3.941-.397.481-.972.847-1.599.952-.668.115-1.295-.084-1.817-.523-.815-.68-1.181-1.976-.533-2.854-.188-.638-.282-1.307-.136-1.976.157-.732.679-1.422 1.358-1.735 1.619-.722 2.904.815 3.374 2.195Zm-1.326 1.579a3.1 3.1 0 0 0-.638-1.997 1.6 1.6 0 0 0-.198-.209c-.094-.094-.063-.063-.178-.126-.031-.021-.041-.021-.041-.021 0-.01-.032-.021-.042-.021-.011-.01-.042-.01-.063-.02h-.073s-.031 0-.063.01c0 0-.021.01-.042.01h-.031l-.094.063-.021.021h-.021l-.073.073-.125.126-.031.062c-.021.021-.063.126-.094.178-.084.22-.095.408-.084.627.021.544.24 1.077.428 1.579.136.376-.136.805-.48.941a1 1 0 0 1 .052.084c.01.01.031.041.042.062 0 .011.01.011.01.011a.2.2 0 0 0 .042.052c.01.021.063.063.104.115.011.011.021.021.032.021.052.031.083.052.125.084h.021l.01.021h.021s.053.02.063.02c.021 0 .042.011.063.021h.01s.084-.01.125-.01c0 0 .178-.031.199-.042 0 0 .01-.01.021 0 .01-.01.021-.01.021-.01h.021s.062-.042.083-.053c.053-.031.094-.062.147-.083h.01l.021-.021h.01c.063-.073.115-.126.178-.188a.4.4 0 0 1 .063-.074l.02-.02s.011-.011.011-.021a.05.05 0 0 1 .01-.032c.063-.083.115-.177.168-.261.125-.251.24-.69.25-.962zm-2.006.857h.01zm-1.035 85.792s-.031-.073-.042-.084a1 1 0 0 0-.073-.146c-.042-.084-.083-.167-.136-.241-.052-.094-.104-.177-.156-.261-.021-.031-.042-.052-.053-.073 0 0-.031-.052-.041-.063-.084-.094-.168-.178-.251-.261 0 0-.021-.011-.031-.021l-.011-.011-.01-.01s-.032-.031-.042-.031a1 1 0 0 1-.115-.063h-.01v-.011c-.032 0-.063-.02-.105-.031h-.073s-.031 0-.052.011h-.042c-.011 0-.021.01-.042.02-.031.021-.073.042-.104.063-.042.052-.105.105-.147.157-.01.01-.01.021-.021.031-.02.032-.041.063-.062.105l-.063.125-.063.189v.041s-.01.042-.01.063c0 .115 0 .22.01.324 0 0 .032.157.042.188.021.094.052.199.094.293 0 .011.011.042.021.073h.011v.042c.01.031.02.063.031.073.021.053.052.094.083.147.032 0 .053.01.074.01.407.084.595.512.553.889h.011v.073h.01v.021h.011v.021c.01.01.031.031.031.052.01.01.021.021.031.021l.021.021.094.063s.021.01.042.01l.021.01s.042 0 .052.021h.021s.052 0 .084-.01h.02s.042-.021.074-.021l.02-.01.021-.011h.021s.021-.021.032-.021a.3.3 0 0 0 .041-.031l.053-.052s.073-.063.104-.105c0 0 .011-.01.011-.021 0-.01.01-.01.01-.021.031-.052.063-.115.104-.167 0 0 .011-.011.011-.031 0-.011.01-.011.01-.011 0-.042.021-.073.032-.115l.031-.125s.011-.011.011-.032v-.021s.01-.031.01-.041v-.23s-.01-.084-.01-.126v-.031s-.011-.021-.011-.032c-.052-.198-.094-.386-.178-.575l-.01-.021zm1.755.544c.136 1.181-.522 2.54-1.755 2.822-.637.157-1.274-.031-1.776-.449a2 2 0 0 1-.261-.272c0-.011-.01-.021-.01-.021a.65.65 0 0 1-.189-.188c-.773-1.171-1.483-2.541-.856-3.942.512-1.129 1.818-1.725 2.946-1.097.543.292.94.815 1.253 1.338.335.554.565 1.16.648 1.809Zm-2.601 1.045v-.021s0 .011-.011.021zm-6.382-62.312c.449 1.338.25 2.833-.648 3.93-.397.492-.972.858-1.598.962-.669.105-1.296-.083-1.818-.522-.815-.68-1.181-1.987-.533-2.865-.188-.638-.282-1.296-.136-1.976.157-.721.679-1.422 1.358-1.725 1.62-.732 2.904.805 3.375 2.196Zm-1.327 1.568c0-.46-.063-.91-.251-1.338a3.3 3.3 0 0 0-.386-.659c-.021-.021-.136-.146-.199-.199-.094-.094-.063-.062-.177-.136h-.011l-.01-.021s-.042-.01-.063-.01c-.01-.01-.042-.01-.063-.021 0 0 0-.01-.01-.01-.031 0-.073 0-.115.01h-.01l-.074.021a.4.4 0 0 1-.094.052l-.02.021h-.021l-.073.073a1 1 0 0 0-.136.157c0 .011-.021.021-.021.032-.021.02-.063.125-.094.177-.084.22-.094.418-.084.638.021.544.24 1.077.429 1.568.135.377-.126.805-.471.952.011.031.032.052.042.083a1 1 0 0 1 .063.084v.021s.021 0 .031.021c.011.021.084.073.115.115l.011.01h.01s.084.052.125.094h.021l.011.011.021.01s.052.021.062.021c.021.01.042.01.063.01h.146s.167-.041.188-.052h.021l.031-.01h.021s.063-.042.084-.053c.052-.031.104-.062.157-.104h.021l.01-.021c.063-.063.115-.105.178-.178a.5.5 0 0 0 .062-.073h.011v-.021l.021-.021.021-.021c.052-.094.104-.177.156-.271.126-.241.241-.69.251-.962Z"/><path fill="#fff8e0" stroke="#cb2821" d="M143.453 77.4c3.342 2.99 4.387 7.538 3.029 11.783-1.442 4.516-5.349 7.631-10.123 7.81-2.591.093-5.192-.565-7.49-1.747-2.236-1.15-4.691-2.885-5.547-5.363-1.034-2.969.512-6.116 2.235-8.5a25 25 0 0 1 1.609-1.996 17.6 17.6 0 0 0 1.891-1.955 34 34 0 0 1 3.364-2.781.7.7 0 0 0 .157-.147c3.813-.826 7.949.272 10.875 2.896Z"/><path fill="#cb2821" stroke="#cb2821" d="M143.128 160.096c7.939 10.988 6.257 26.785-1.494 37.365-7.971 10.883-22.126 16.204-35.352 14.532-6.059-.763-12.076-3.126-16.63-7.256-4.973-4.506-7.188-10.82-6.331-17.469.888-6.89 4.178-13.738 8.169-19.373 3.76-5.3 8.629-9.723 14.677-12.221.188-.073.356-.084.492-.021a38 38 0 0 1 2.266-1.14c11.345-5.237 26.232-5.457 34.203 5.583Zm-.303 32.524c5.829-10.904 5.704-26.607-4.221-35.2-9.297-8.04-23.526-5.154-33.116.721-.313.188-.626.136-.835-.052-5.547 2.823-9.956 7.517-13.257 12.775-3.907 6.221-7.417 14.009-6.602 21.526 1.379 12.776 15.701 18.536 26.983 18.338 12.641-.23 25.01-6.796 31.048-18.108Z"/><path fill="#fff8e0" stroke="#cb2821" d="M138.605 157.42c9.924 8.593 10.05 24.296 4.22 35.2-6.038 11.312-18.407 17.878-31.047 18.108-11.282.198-25.605-5.562-26.984-18.338-.814-7.517 2.696-15.305 6.603-21.526 3.3-5.258 7.71-9.953 13.256-12.775.209.188.523.24.836.052 9.59-5.875 23.819-8.761 33.116-.721Zm2.277 29.429c1.108-1.85 1.024-4.579-.658-6.084-1.139-1.025-2.737-1.318-4.126-.878-.22-.272-.585-.398-.961-.157-2.1 1.307-4.252 2.854-4.513 5.509-.115 1.161.303 2.373 1.18 3.147.909.784 2.069 1.15 3.249 1.244 2.225.167 4.649-.815 5.829-2.781Zm-4.617-17.856c.366-1.589-.387-3.137-1.766-3.952-1.462-.857-3.342-.826-4.669.272a.56.56 0 0 0-.199.355.86.86 0 0 0-.407.314c-.888 1.202-.804 2.885-.136 4.171.742 1.422 2.236 2.269 3.824 2.018 1.598-.24 2.998-1.62 3.353-3.178Zm-13.81 14.448c1.587-.523 2.622-1.944 2.611-3.628-.01-1.693-1.013-3.397-2.559-4.108-1.003-.46-2.215-.575-3.186.042-.366.23-.669.533-.888.878a.67.67 0 0 0-.293.418c-.376 1.599-.7 3.502.199 4.997.856 1.401 2.59 1.913 4.116 1.401Zm2.559 14.302c.272-1.516-.282-3.314-1.755-4.015-1.473-.711-3.531-.282-4.294 1.276a.83.83 0 0 0-.073.564c-.835.858-1.034 2.185-.574 3.315.271.669.731 1.254 1.379 1.589.731.355 1.525.428 2.308.271 1.473-.292 2.737-1.515 3.009-3Zm-5.756-32.085c.073-.952-.199-1.924-.805-2.666-.48-.586-1.211-.868-1.943-.951-1.17-.126-2.549.439-3.05 1.495a.57.57 0 0 0-.188-.335c-.282-.293-.825-.324-1.107 0-1.327 1.485-1.923 3.764-.878 5.572.982 1.704 3.113 2.499 4.91 1.621 1.703-.847 2.904-2.865 3.061-4.736Zm-9.224 27.182c1.483-.638 2.663-2.07 2.663-3.722 0-.836-.292-1.652-.846-2.279-.543-.627-1.347-.952-2.162-1.035-1.943-.209-3.552 1.066-4.827 2.373a.72.72 0 0 0-.146.847c-.313 1.056-.031 2.258.742 3.115 1.139 1.255 3.103 1.328 4.576.701Zm-.805 12.66c1.181-1.484.919-3.492-.376-4.809-1.619-1.641-4.095-1.578-6.111-.794a.76.76 0 0 0-.7.031c-1.504.805-2.016 2.802-1.4 4.339.7 1.746 2.518 2.686 4.304 2.864 1.525.157 3.301-.418 4.283-1.631Zm-5.631-26.147c1.369-1.15 1.661-3.408 1.452-5.081-.219-1.746-1.243-3.565-3.165-3.711-1.295-.105-2.674.638-3.123 1.788a.92.92 0 0 0-.429.502c-.658 1.902-.867 4.223.533 5.865 1.16 1.369 3.301 1.85 4.732.637Zm-7.385 12.598c1.086-1.882 1.514-4.297.125-6.147-1.139-1.527-3.228-2.091-4.847-.952-1.703 1.192-2.382 3.409-2.633 5.374-.042.324.21.606.512.732.073 1.307.512 2.519 1.755 3.335.888.585 2.016.659 2.936.136.94-.533 1.619-1.558 2.152-2.478Z"/><path fill="#cb2821" d="M139.764 224.593h-.021s-.031-.021-.042-.031c-.01-.011-.052 0-.073-.021h-.062s-.032 0-.074.01h-.042c-.01 0-.02.011-.02.011a.5.5 0 0 1-.094.052l-.032.021s-.073.063-.094.073a1 1 0 0 0-.104.115c0 .01-.042.063-.042.073a4 4 0 0 0-.104.199h-.011a1.7 1.7 0 0 0-.073.606c.031.544.251 1.077.439 1.579.135.376-.136.805-.491.941a1 1 0 0 0 .062.083c.011.011.042.063.063.095 0 0 .011.02.021.031.021.021.073.063.115.115.01.01.021.021.031.021.042.031.073.052.126.083h.021l.01.021h.01s.063.021.074.021c.02 0 .041.011.062.021 0-.01.073 0 .136 0 0 0 .167-.042.188-.052 0 0 .01-.011.021 0 .01-.011.021-.011.021-.011.031-.02.073-.041.104-.062.053-.032.094-.063.147-.084h.01l.021-.021c.063-.073.115-.125.177-.188a.3.3 0 0 1 .074-.073s0-.011.031-.042a.1.1 0 0 1 .01-.031c.053-.084.115-.168.157-.262.136-.251.24-.69.251-.962a3.1 3.1 0 0 0-.251-1.338 3.5 3.5 0 0 0-.376-.658c-.031-.032-.136-.157-.198-.21-.105-.094-.063-.062-.178-.125-.011-.01-.021-.01-.021-.01zm2.35.763c.46 1.338.262 2.844-.637 3.942-.397.481-.982.846-1.598.951-.679.115-1.296-.073-1.818-.512-.825-.69-1.191-1.987-.554-2.875-.177-.638-.271-1.297-.125-1.966.157-.732.69-1.422 1.369-1.735 1.608-.722 2.893.815 3.363 2.195"/><path stroke="#cb2821" d="M139.764 224.593h-.021s-.031-.021-.042-.031c-.01-.011-.052 0-.073-.021h-.062s-.032 0-.074.01h-.042c-.01 0-.02.011-.02.011a.5.5 0 0 1-.094.052l-.032.021s-.073.063-.094.073a1 1 0 0 0-.104.115c0 .01-.042.063-.042.073a4 4 0 0 0-.104.199h-.011a1.7 1.7 0 0 0-.073.606c.031.544.251 1.077.439 1.579.135.376-.136.805-.491.941a1 1 0 0 0 .062.083c.011.011.042.063.063.095 0 0 .011.02.021.031.021.021.073.063.115.115.01.01.021.021.031.021.042.031.073.052.126.083h.021l.01.021h.01s.063.021.074.021c.02 0 .041.011.062.021 0-.01.073 0 .136 0 0 0 .167-.042.188-.052 0 0 .01-.011.021 0 .01-.011.021-.011.021-.011.031-.02.073-.041.104-.062.053-.032.094-.063.147-.084h.01l.021-.021c.063-.073.115-.125.177-.188a.3.3 0 0 1 .074-.073s0-.011.031-.042a.1.1 0 0 1 .01-.031c.053-.084.115-.168.157-.262.136-.251.24-.69.251-.962a3.1 3.1 0 0 0-.251-1.338 3.5 3.5 0 0 0-.376-.658c-.031-.032-.136-.157-.198-.21-.105-.094-.063-.062-.178-.125Zm0 0c-.011-.01-.021-.01-.021-.01zm2.35.763c.46 1.338.262 2.844-.637 3.942-.397.481-.982.846-1.598.951-.679.115-1.296-.073-1.818-.512-.825-.69-1.191-1.987-.554-2.875-.177-.638-.271-1.297-.125-1.966.157-.732.69-1.422 1.369-1.735 1.608-.722 2.893.815 3.363 2.195Z"/><path fill="#cb2821" stroke="#cb2821" d="M140.225 180.764c1.681 1.506 1.765 4.234.658 6.085-1.181 1.965-3.604 2.948-5.829 2.781-1.181-.094-2.341-.46-3.249-1.244-.878-.774-1.296-1.987-1.181-3.147.261-2.656 2.413-4.203 4.513-5.51.376-.24.742-.115.961.157 1.39-.439 2.988-.146 4.127.878Z"/><path fill="#fff8e0" stroke="#cb2821" d="M140.182 107.071c.512 2.268-.073 4.798-.815 6.952-.742 2.133-1.881 4.161-3.427 5.813-2.946 3.147-7.354 4.558-11.501 3.147-1.996-.68-3.427-1.987-4.398-3.607.031-.262.041-.523.041-.784.011-1.934-.553-3.827-1.713-5.311v-.011a17 17 0 0 1 0-1.788c.282-5.582 3.636-10.81 9.047-12.597.01 0 .031-.01.042-.01.031-.011.062-.022.094-.043l.062-.03s.063-.032.094-.053c1.212-.586 2.57.282 3.605.899 1.285.763 2.559 1.526 3.833 2.289 2.121 1.265 4.451 2.53 5.036 5.134Z"/><path fill="#cb2821" stroke="#cb2821" d="M134.5 165.039c1.378.816 2.131 2.363 1.765 3.952-.355 1.558-1.755 2.938-3.353 3.178-1.588.251-3.082-.596-3.824-2.018-.668-1.285-.752-2.969.136-4.171a.86.86 0 0 1 .407-.314.56.56 0 0 1 .199-.355c1.327-1.098 3.207-1.129 4.67-.272Z"/><path fill="#fff8e0" stroke="#cb2821" d="M128.888 97.02a3.43 3.43 0 0 0-1.974.388 13.9 13.9 0 0 0-4.283 2.331 13.6 13.6 0 0 0 1.055-6.325c1.368 1.537 3.238 2.75 5.202 3.607Z"/><path fill="#cb2821" stroke="#cb2821" d="M125.066 179.812c.01 1.684-1.024 3.105-2.612 3.628-1.525.512-3.259 0-4.116-1.401-.898-1.495-.574-3.398-.198-4.997a.67.67 0 0 1 .292-.418c.219-.345.522-.649.888-.879.972-.616 2.183-.501 3.186-.041 1.546.711 2.549 2.415 2.56 4.108Zm-1.807 13.919c1.473.701 2.027 2.499 1.755 4.015-.271 1.484-1.536 2.708-3.008 3-.784.157-1.578.084-2.309-.271-.648-.335-1.108-.92-1.379-1.59-.46-1.129-.261-2.456.574-3.314a.83.83 0 0 1 .074-.564c.762-1.558 2.82-1.987 4.293-1.276Z"/><path fill="#fff8e0" stroke="#cb2821" d="M118.683 85.975c3.291 3.252 4.315 8.144 2.779 12.483-1.588 4.496-5.829 7.58-10.603 7.663a10 10 0 0 0-3.761-.627 10.94 10.94 0 0 1-4.931-3.555 16 16 0 0 0-.564-2.509c-.386-1.254-.909-2.509-1.661-3.565-.136-3.188 1.066-6.565 3.134-9.043.846-.669 1.671-1.4 2.455-2.174a.9.9 0 0 0 .251-.105c4.074-2.603 9.475-1.955 12.901 1.432Z"/><path fill="#cb2821" stroke="#cb2821" d="M118.453 162.992c.606.742.878 1.715.805 2.666-.157 1.871-1.358 3.889-3.061 4.736-1.797.878-3.928.084-4.91-1.621-1.045-1.808-.449-4.087.878-5.572.282-.324.825-.293 1.107 0a.57.57 0 0 1 .188.335c.501-1.056 1.88-1.621 3.05-1.495.732.083 1.463.366 1.943.951Z"/><path fill="#fff8e0" stroke="#cb2821" d="M118.38 105.125a16.3 16.3 0 0 0-1.41 4.673 20 20 0 0 0-.178 1.966l-.188-.126a.6.6 0 0 0-.334-.115c-.554-1.714-1.63-3.115-2.999-4.119a12.95 12.95 0 0 0 5.109-2.279Zm-1.546 8.702c.136 2.028.627 4.056 1.546 5.802-.313 1.986-1.201 3.983-2.225 5.52-1.337 2.007-2.894 4.088-4.701 5.698-2.204 1.955-4.91 2.185-7.605 1.118-4.419-1.735-7.459-6.199-7.72-10.904-.188-3.366.867-6.816 2.946-9.482.45-.418.856-.878 1.232-1.38a12 12 0 0 1 2.236-1.725c1.306-.774 2.758-1.286 4.252-1.412.668.231 1.358.387 2.058.492q.909.125 1.818.125c2.12.899 3.771 2.698 4.283 4.987.125.554.658.659 1.065.481.303.209.575.439.815.68Z"/><path fill="#cb2821" stroke="#cb2821" d="M112.697 189.118c0 1.652-1.181 3.084-2.664 3.722-1.473.627-3.437.554-4.576-.701-.773-.857-1.055-2.059-.741-3.115-.126-.261-.115-.575.146-.847 1.274-1.307 2.883-2.582 4.826-2.373.815.084 1.619.408 2.163 1.035.553.627.846 1.443.846 2.279Zm-3.844 11.569c1.296 1.318 1.557 3.325.376 4.809-.982 1.213-2.758 1.788-4.283 1.631-1.786-.177-3.604-1.118-4.304-2.864-.616-1.537-.104-3.534 1.4-4.339a.76.76 0 0 1 .7-.031c2.016-.784 4.492-.847 6.111.794Zm-3.803-26.411c.209 1.673-.084 3.931-1.452 5.081-1.432 1.213-3.573.732-4.733-.638-1.4-1.641-1.19-3.962-.532-5.865a.87.87 0 0 1 .428-.491c.449-1.161 1.828-1.903 3.123-1.799 1.923.147 2.946 1.966 3.166 3.712Z"/><path fill="#fff8e0" stroke="#cb2821" d="M102.323 104.406a12.7 12.7 0 0 0 2.037 1.527c-.856.271-1.671.637-2.444 1.076a10.5 10.5 0 0 0 .407-2.603Zm-1.639-1.844c.209 1.662.104 3.345-.596 4.924a9 9 0 0 1-1.002 1.715h-.021a14 14 0 0 0-1.118 1.265c-2.413 2.279-5.934 3.345-9.235 3.376a22 22 0 0 1-2.967-.177c-.042 0-.094-.011-.146-.021-1.64-.209-3.26-.565-4.847-1.004-2.278-.627-4.012-1.704-4.806-3.837 0-.303-.01-.606-.052-.92a.77.77 0 0 0-.334-.564c-.648-4.203 1.786-8.52 5.181-10.894.335-.24.69-.46 1.045-.669.71-.23 1.39-.48 2.026-.732a17 17 0 0 0 1.599-.7c.01 0 .02 0 .031-.01 3.667-.89 7.668-.43 11.22.815.136.042.25.052.365.031h.011c.522.303.972.711 1.348 1.181.031.481.094.962.188 1.433.334 1.746 1.076 3.366 2.11 4.778zm-.429 29.808c3.145 5.332.293 11.762-4.324 15.16-2.153 1.599-5.391 2.895-7.856 1.223-1.17-.784-2.236-2.049-3.04-3.189-.867-1.213-1.39-2.76-.408-4.067.303-.407.105-.805-.24-1.003 2.309-.534 4.398-1.955 5.923-3.754 2.163-2.582 3.28-5.844 4.033-9.085.355-1.557.637-3.22.449-4.788.658 3.482 2.57 6.681 5.411 8.824a.73.73 0 0 0 .052.679Zm-.323-43.533a15.3 15.3 0 0 0-1.515 5.405 6.2 6.2 0 0 0-1.745-.93c-.198-.074-.365-.064-.511.01-2.58-.785-5.339-1.171-8.034-.983.386-.45.731-.951 1.003-1.537.627-1.338.888-2.802.982-4.286 1.212 1.421 2.82 2.488 4.764 2.927 1.765.397 3.478.115 5.056-.606Z"/><path fill="#cb2821" stroke="#cb2821" d="M96.338 185.804c1.39 1.851.961 4.266-.125 6.148-.533.92-1.212 1.944-2.152 2.477-.92.523-2.048.45-2.936-.136-1.243-.815-1.682-2.028-1.755-3.335-.303-.125-.554-.407-.512-.731.25-1.966.93-4.182 2.633-5.374 1.619-1.14 3.708-.575 4.847.951Z"/><path fill="#fff8e0" stroke="#cb2821" d="M96.004 113.711a16.3 16.3 0 0 0-1.39 5.029 14.5 14.5 0 0 0 .042 3.293 5.8 5.8 0 0 0-.857-2.018c.011-.031.011-.073.011-.115-.136-2.049-1.337-3.617-2.988-4.642 1.797-.23 3.583-.742 5.182-1.547Zm-3.804 6.751c1.588 1.787 1.16 4.432.679 6.565-.533 2.373-1.243 4.746-2.476 6.858-1.201 2.049-2.967 3.837-5.202 4.726-2.298.899-4.68.533-6.832-.565-2.121-1.066-4.263-2.572-5.798-4.401-1.557-1.872-2.11-4.224-2.037-6.618.01-.282.02-.575.052-.868a20.1 20.1 0 0 1 1.41-5.959c.92-2.258 2.696-3.805 5.004-4.548 2.748-.899 5.725-.648 8.556-.324 2.56.303 6.1 1.161 6.623 4.099-.22.282-.282.69.021 1.035Zm-3.615-36.29c.042 3.419-.334 6.932-3.614 8.657a15 15 0 0 0-4.263 1.756c-2.622.826-5.463 1.15-7.688-.272-3.458-2.195-2.445-7.12-1.682-10.444.909-3.91 2.371-7.778 5.787-10.162 2.58-1.787 8.149-3.67 10.04.073.282.575.94.46 1.253.063a17.3 17.3 0 0 0-.93 4.318c-.167 2.038.22 4.15 1.097 6.011Z"/><path fill="#fff8e0" stroke="#cb2821" d="M79.142 60.327c3.563 1.589 5.036 6.011 3.208 9.45a.7.7 0 0 0-.094.388c-1.275.104-2.539.46-3.605.92-4.481 1.934-7.061 5.948-8.346 10.517-.074.272-.157.554-.23.836-.032.126-.073.261-.105.387l-1.003-.261.063-.157c.146-.513-.261-1.203-.94-1.014-2.32.637-4.795.094-6.728-1.276a8.6 8.6 0 0 1-1.515-1.37c-2.444-2.843-2.078-6.92-.302-10.015 1.828-3.188 5.014-5.31 8.221-6.92 3.437-1.715 7.636-3.137 11.376-1.485Zm.407 85.74c1.473 4.464 1.577 9.89-2.267 13.214-1.703 1.464-3.98 2.206-6.195 1.621-2.12-.565-3.886-2.185-5.213-3.889-2.528-3.241-3.781-7.538-3.29-11.647.48-3.962 3.74-9.879 8.399-8.928.062.219.24.408.532.481 4.273 1.024 6.749 5.238 8.034 9.148Zm-1.043-32.517c.083.031.167.073.26.094-2.381.356-4.732 1.265-6.403 3.042-1.097 1.171-1.807 2.656-2.298 4.214l-.094-.471c-.063-.272-.22-.439-.418-.512a.83.83 0 0 0-.324-.805c-.125-.094-.261-.199-.397-.282.24-.115.46-.251.68-.408 2.329-1.694 4.94-4.245 5.975-7.172.752.993 1.755 1.777 3.019 2.3ZM70.67 94.309c1.911 2.341 4.627 2.75 7.375 2.373-2.925 2.875-4.68 6.994-3.99 11.123.072.429.166.837.302 1.234-.125 1.788-1.023 3.335-2.214 4.726-.627.731-1.327 1.411-2.027 2.07-.763.721-1.62 1.641-2.674 1.913-.073.021-.157.031-.24.042-1.986-1.14-4.305-2.029-6.645-2.405-1.556-1.077-2.83-2.509-3.5-4.307-1.472-3.9-.814-9.148.857-12.901 1.672-3.774 5.495-6.963 9.84-5.98.69.157 1.098-.533.952-1.046l.49-.073c.24 1.171.7 2.269 1.474 3.23Z"/><path fill="#fff8e0" stroke="#cb2821" d="m68.967 82.563 1.002.261c-.689 2.572-1.305 5.604-.772 8.25l-.492.072a.68.68 0 0 0-.532-.46c-3.667-.836-7.407.805-9.747 3.66-1.609 1.965-2.57 4.349-3.113 6.826-2.183-3.147-2.977-7.203-2.236-10.967.742-3.753 3.385-8.478 7.73-8.53.022 0 .053 0 .074-.01 2.236 1.42 5.014 1.944 7.626 1.233a.8.8 0 0 0 .46-.335Zm-.511 38.288c.878 4.046.376 8.311-1.327 12.075a19.4 19.4 0 0 1-3.457 5.227c-1.421 1.527-3.437 3.492-5.673 3.482-4.576-.032-6.56-6.775-7.218-10.298-.753-3.962-.972-10.047 2.37-13.016 1.819-1.61 4.597-1.662 6.969-1.328 1.89 1.265 4.356 2.415 6.613 2.332.584.355 1.149.731 1.702 1.15.01 0 .01.01.021.01a.9.9 0 0 0 0 .366Z"/></svg>