<svg xmlns="http://www.w3.org/2000/svg" width="147" height="119" fill="none"><path fill="#fff8e0" stroke="#cb2821" d="M137.737 22.414a2368 2368 0 0 0-3.155 29.68c-.125 1.286-.021 2.896-.407 4.13-.324 1.046-1.525 2.091-2.236 2.938a110 110 0 0 1-4.795 5.353 113 113 0 0 1-4.492 4.453c.105-7.004.22-14.009.324-21.013a.7.7 0 0 0 .199-.23c4.857-8.437 9.715-16.874 14.562-25.31Zm-16.329 25.744-.344 21.975c0 .094.021.178.052.262a113 113 0 0 1-4.649 3.993 111 111 0 0 1-9.924 7.183c.031-.586.042-1.14.073-1.569 1.003-12.64 1.045-25.352.178-38.002 4.753 2.039 9.506 4.067 14.259 6.095a.7.7 0 0 0 .355.063Zm-13.57-7.397a118.3 118.3 0 0 1 29.271-20.386l-15.2 26.408c-.02-.01-.041-.031-.073-.052-4.659-1.986-9.328-3.983-13.998-5.97Z"/><path fill="#fff8e0" stroke="#cb2821" d="M144.787 68.604c.188 7.872-3.165 15.337-7.992 21.421-10.248 12.901-26.284 20.899-42.183 24.192-17.415 3.607-35.581 1.495-52.202-4.589-7.898-2.886-15.68-6.597-22.596-11.417-6.55-4.568-12.442-10.517-15.45-18.034-3.176-7.956-3.103-17.24.355-25.09 3.05-6.943 8.639-12.672 15.419-16.049 1.535-.763 5.087-2.645 7.093-3.397.261 8.405.533 16.8.794 25.195l.125 4.172c.042 1.223 0 2.52.366 3.7.637 2.018 2.476 2.938 4.314 3.67 5.109 2.06 10.374 3.764 15.702 5.186a143.5 143.5 0 0 0 32.353 4.767c5.463.188 10.98.104 16.39.993 1.338.22 2.664.502 3.981.857.355.094.731.23 1.118.366.01.544.553 1.077 1.159.722.167-.105.324-.21.491-.304.188.01.376.01.554-.01.815-.105 1.285-.617 1.567-1.286a115 115 0 0 0 25.887-22.206 94 94 0 0 0 2.444-2.937c.334-.408.794-.847 1.045-1.307.261-.45.219-.993.271-1.506.178-1.777.366-3.544.544-5.321 5.505 4.318 8.294 11.312 8.451 18.212Zm-17.571 20.355c.679-.742-.429-1.85-1.108-1.108-12.567 13.716-32.416 17.292-50.206 17.083-9.956-.115-20.1-1.213-29.69-3.973-9.443-2.718-18.647-7.34-25.05-14.971-6.498-7.736-9.987-18.421-6.415-28.217.345-.951-1.17-1.36-1.514-.418-3.187 8.75-.993 18.369 4.011 25.98 5.474 8.342 13.936 13.894 23.16 17.354 9.945 3.743 20.737 5.217 31.309 5.698 9.61.428 19.368-.167 28.718-2.488 10.07-2.51 19.702-7.204 26.785-14.94Z"/><path fill="#fff8e0" stroke="#cb2821" d="M105.175 41.233a257 257 0 0 1 .324 32.075 242 242 0 0 1-.575 8.227c-.021.24 0 .68-.052 1.067-.376.24-.752.47-1.139.7-.428-.105-.877-.293-1.138-.376a38 38 0 0 0-3.72-.91c-4.972-.951-10.049-1.045-15.095-1.17-10.31-.252-20.527-1.37-30.587-3.733a143 143 0 0 1-14.929-4.37c-2.256-.795-4.94-1.464-6.936-2.823-2.173-1.484-1.609-4.966-1.682-7.266l-1.128-36.068a3086 3086 0 0 0 76.657 14.647Zm31.412-22.352a120.3 120.3 0 0 0-30.19 21.077.54.54 0 0 0-.272-.147A3031 3031 0 0 1 45.67 28.447a2807 2807 0 0 1-16.276-3.283C43.363 17.491 57.319 9.806 71.287 2.133a891 891 0 0 0 52.253 13.831 940 940 0 0 0 13.048 2.917Z"/><path fill="#cb2821" stroke="#cb2821" d="M71.715 106.386c-10.572-.481-21.364-1.955-31.309-5.698-9.224-3.46-17.686-9.012-23.16-17.355-5.004-7.61-7.198-17.229-4.012-25.98.345-.94 1.86-.532 1.515.419-3.573 9.796-.084 20.48 6.414 28.217 6.404 7.632 15.608 12.252 25.051 14.971 9.59 2.76 19.734 3.857 29.69 3.972 17.79.21 37.639-3.366 50.206-17.082.679-.743 1.787.366 1.108 1.108-7.083 7.736-16.715 12.43-26.786 14.939-9.35 2.321-19.106 2.917-28.717 2.489Z"/><path fill="#cb2821" stroke="#cb2821" d="M134.581 52.098c.982-9.9 2.048-19.79 3.155-29.68-4.847 8.436-9.704 16.873-14.562 25.31-.052.105-.126.167-.199.23-.104 7.005-.219 14.01-.323 21.014a113 113 0 0 0 4.491-4.454 109 109 0 0 0 4.795-5.353c.711-.846 1.912-1.892 2.236-2.937.387-1.234.282-2.844.407-4.13Zm2.529-31.72a118.3 118.3 0 0 0-29.272 20.387c4.67 1.987 9.339 3.983 13.999 5.97.031.02.052.042.073.052zm-16.046 49.754.344-21.975c-.115.01-.24 0-.355-.063a8742 8742 0 0 1-14.26-6.095 258 258 0 0 1-.177 38.002c-.031.429-.042.983-.073 1.569 3.437-2.217 6.748-4.6 9.924-7.183a113 113 0 0 0 4.649-3.993.7.7 0 0 1-.052-.262Zm-91.67-44.965A2797 2797 0 0 0 45.67 28.45a3030 3030 0 0 0 60.455 11.364.54.54 0 0 1 .272.146 120.3 120.3 0 0 1 30.19-21.076 940 940 0 0 1-13.048-2.917A891 891 0 0 1 71.285 2.136c-13.967 7.673-27.923 15.357-41.89 23.031Zm59.787 91.572c-18.575 2.551-37.546-1.004-54.584-8.594C19.428 101.381 3.372 90.769.844 72.965c-1.191-8.405.72-17.135 5.6-24.118C10.872 42.51 19.73 36.249 27.18 34c-.084-2.666-.157-5.332-.24-8.008-.397-.303-.533-.972.041-1.286A61300 61300 0 0 1 70.774.63c.156-.125.365-.167.626-.094a1064 1064 0 0 0 14.96 4.318 898 898 0 0 0 52.797 12.984.8.8 0 0 1 .355.199.65.65 0 0 1 .22.565 2064 2064 0 0 0-2.152 19.57c-.366 3.471-.711 6.942-1.055 10.413 1.389.993 2.674 2.123 3.792 3.43 4.826 5.614 6.717 13.423 5.839 20.7-.961 8.07-5.244 15.357-10.676 21.243-11.888 12.87-29.157 20.418-46.3 22.781ZM31.326 69.923c1.995 1.36 4.68 2.028 6.937 2.823a143 143 0 0 0 14.928 4.37c10.06 2.363 20.277 3.481 30.588 3.732 5.045.126 10.122.22 15.095 1.171a38 38 0 0 1 3.719.91c.261.083.71.271 1.139.376.386-.23.762-.46 1.138-.7.053-.387.032-.826.053-1.067.24-2.739.428-5.489.574-8.228a257 257 0 0 0-.324-32.074 3086 3086 0 0 1-76.657-14.647l1.128 36.068c.073 2.3-.49 5.782 1.682 7.266Zm-11.512 28.29c6.916 4.82 14.698 8.531 22.596 11.417 16.62 6.084 34.787 8.196 52.202 4.589 15.899-3.293 31.935-11.291 42.183-24.192 4.827-6.084 8.18-13.549 7.992-21.421-.157-6.9-2.946-13.894-8.451-18.212-.178 1.777-.366 3.544-.544 5.321-.052.513-.01 1.056-.271 1.506-.251.46-.711.899-1.045 1.307a94 94 0 0 1-2.444 2.937 115 115 0 0 1-25.887 22.206c-.282.669-.752 1.181-1.567 1.286-.178.02-.366.02-.554.01-.167.094-.324.199-.491.303-.606.356-1.149-.177-1.159-.72-.387-.137-.763-.273-1.118-.367a40 40 0 0 0-3.98-.857c-5.412-.889-10.928-.805-16.391-.993a143.5 143.5 0 0 1-32.353-4.768C43.205 76.144 37.94 74.44 32.83 72.38c-1.838-.732-3.677-1.652-4.314-3.67-.366-1.181-.324-2.477-.366-3.7l-.125-4.172c-.261-8.395-.533-16.79-.794-25.196-2.006.753-5.558 2.635-7.093 3.398-6.78 3.377-12.369 9.106-15.42 16.048-3.457 7.851-3.53 17.135-.355 25.091 3.009 7.517 8.9 13.465 15.45 18.034Z"/></svg>