<svg xmlns="http://www.w3.org/2000/svg" width="53" height="92" fill="none"><path fill="#fff8e0" stroke="#cb2821" d="M45.569 48.005a643 643 0 0 1 4.805 27.84 148 148 0 0 0-8.858 8.887A387 387 0 0 1 35.812 37.3a.72.72 0 0 0-.167-.43.67.67 0 0 0 .449-.354 19.45 19.45 0 0 1 5.495-7.141c.49 1.558.773 3.21 1.117 4.788a570 570 0 0 1 2.863 13.842ZM32.218 66.126a23 23 0 0 1-2.832 6.92c-.532.868.826 1.652 1.348.795a24.4 24.4 0 0 0 2.998-7.297c.22-.983-1.285-1.412-1.514-.418Zm-2.487 3.126a23 23 0 0 0 2.633-8.584c.042-.418-.387-.784-.784-.784-.46 0-.741.366-.783.784a21 21 0 0 1-2.413 7.79c-.481.888.867 1.682 1.347.794Zm4.513-31.95a391 391 0 0 0 5.86 48.416 267 267 0 0 0-15.366 3.648 621 621 0 0 1-3.176-50.84c0-.032-.021-.053-.021-.084 3.458-3.074 8.754-3.732 12.86-1.62a.7.7 0 0 0-.157.48Zm-14.217.994c-.01.073-.042.146-.031.23a615 615 0 0 0 3.176 50.767 99 99 0 0 1-13.038-3.774c-.25-.251-.49-.512-.731-.763-.084-15.902-.02-31.813.188-47.715h.115a11.64 11.64 0 0 1 10.269 1.244c.02.01.042.01.052.021zM3.073 36.205c-.02-1.527-.157-3.116-.104-4.674 1.64 1.746 3.343 3.44 5.087 5.07 0 .053-.02.084-.02.137a2541 2541 0 0 0-.2 46.366 103 103 0 0 1-5.88-6.921c-.011-.021-.043-.032-.063-.053a.76.76 0 0 0 .177-.439 490 490 0 0 0 1.003-39.487Z"/><path fill="#fff8e0" stroke="#cb2821" d="M36.732 21.735c-.46.24-.669 1.024-.094 1.421 1.776 1.224 3.395 2.625 4.325 4.61.02.032.02.064.041.095-2.57 1.997-4.67 4.548-6.08 7.485C30.37 33.13 24.76 33.8 20.842 36.999c-.031-.02-.041-.052-.083-.073-3.343-2.216-7.689-2.75-11.47-1.411-.021.01-.042.031-.063.042a116 116 0 0 1-5.767-5.782.8.8 0 0 0-.303-.178c.01-.041.01-.094.021-.136.376-1.975 1.504-3.627 2.863-5.07a.74.74 0 0 0 .198-.491c.961.575 2.1.867 3.218 1.024 4.607.638 9.537.596 14.165.21 4.503-.387 9.068-1.328 13.08-3.461z"/><path fill="#fff8e0" stroke="#cb2821" d="M36.543 15.774c1.191.857 2.288 2.08.972 3.45-1.16 1.202-3.134 1.871-4.67 2.425-3.249 1.171-6.686 1.746-10.133 1.976-3.416.23-6.843.147-10.259-.031-1.65-.094-3.468-.084-4.993-.805-1.442-.68-2.643-2.394-1.787-3.952.063.042.115.094.178.136.898.638 2.027.92 3.113.847 1.003-.063 1.013-1.631 0-1.568-.825.063-1.692-.115-2.35-.659-.345-.282-.272-.732-.293-1.15l-.094-1.589c-.094-1.432-.178-2.875-.272-4.318.147.094.303.157.47.21a.8.8 0 0 0 .324.208 35.85 35.85 0 0 0 15.9 1.788c2.601-.303 5.16-.857 7.637-1.714a36 36 0 0 0 3.311-1.339c.334-.156.669-.334.982-.533.094 1.255.178 2.51.261 3.764.052.774.136 1.547.157 2.32.01.241.042.586-.104.785-.042.063-.095.073-.136.115 0 .02-.021.02-.042.02 0-.01-.021-.02-.063-.041-.345-.24-.877-.063-1.076.282-.23.387-.062.826.282 1.067.71.502 1.682.22 2.205-.408.313-.376.438-.816.48-1.286Zm-6.853 2.823c.972-.293.554-1.809-.407-1.516a37.8 37.8 0 0 1-9.82 1.62c-1.003.032-1.013 1.6 0 1.569a39.4 39.4 0 0 0 10.227-1.673Z"/><path fill="#fff8e0" stroke="#cb2821" d="M23.329 9.129a.84.84 0 0 0 .46.366c.104.02.219.02.323.01.324.157.68.272 1.045.282.627.01 1.201-.345 1.4-.95.188-.534-.053-1.172-.481-1.506a2 2 0 0 0-.512-.314 1.5 1.5 0 0 0-.428-.084c-.293-.02-.606.074-.857.21-.522.271-.877.825-1.034 1.38a.82.82 0 0 0 .083.606ZM12.745 8.25c.063-.063.115-.136.167-.21a.2.2 0 0 0 .042-.062c.052-.084.084-.167.115-.251 0-.031.02-.052.02-.084.032-.083.032-.177.043-.261.01-.031.01-.063.01-.094-.01-.084-.02-.178-.042-.272a1.3 1.3 0 0 0-.303-.544l-.052-.052c-.073-.052-.146-.115-.22-.157a1.3 1.3 0 0 0-.323-.146h-.084c-.094-.01-.188-.031-.282-.031-.125 0-.25.01-.365.041-.115.021-.23.074-.335.126-.115.042-.209.125-.292.198a1.1 1.1 0 0 0-.25.283 1.2 1.2 0 0 0-.126.261 1.3 1.3 0 0 0-.105.303c-.01.136-.042.272-.031.418.01.136.031.283.063.419.041.136.094.261.156.386a.6.6 0 0 0 .21.22.6.6 0 0 0 .26.146.64.64 0 0 0 .314.01.6.6 0 0 0 .292-.093.9.9 0 0 0 .23-.21c.22 0 .428-.02.627-.125.01-.01.031-.02.052-.042a1.6 1.6 0 0 0 .21-.167zm5.641-1.82c.042.063.094.126.146.189.053.052.126.094.188.146.021.01.032.021.053.031a.83.83 0 0 0 .606.084 1 1 0 0 0 .271-.136q.11.015.22 0a1.8 1.8 0 0 0 1.139-.491.64.64 0 0 0 .156-.251.6.6 0 0 0 .073-.303.85.85 0 0 0-.23-.554 2 2 0 0 0-.24-.21c-.136-.104-.261-.219-.418-.292-.146-.063-.303-.136-.46-.167a1.7 1.7 0 0 0-.689.01c-.094.02-.178.063-.261.105-.042.01-.063.03-.094.052a1.4 1.4 0 0 0-.408.408 1.2 1.2 0 0 0-.177.365c-.01.032-.01.063-.021.095-.01.094-.031.198-.031.292 0 .21.052.398.146.575.01.021.02.032.031.053Zm-.324 4.13a.6.6 0 0 0 .178-.084c.105-.062.209-.146.293-.24.083-.104.167-.199.219-.324.052-.115.104-.23.125-.356.042-.271.052-.522-.02-.784-.021-.062-.042-.125-.074-.188-.02-.052-.041-.115-.073-.167-.052-.084-.115-.157-.167-.23-.031-.021-.052-.052-.073-.073a1.4 1.4 0 0 0-.909-.366c-.063 0-.136.01-.199.02-.073.011-.146.022-.209.043a1.53 1.53 0 0 0-.72.46l-.188.25a1.5 1.5 0 0 0-.126.293c-.02.052-.02.115-.031.178-.125.146-.209.314-.198.512.01.21.073.397.23.554.449.46 1.096.732 1.744.575a.7.7 0 0 0 .198-.073ZM29.92 5.22a1.4 1.4 0 0 0-.783-.47 1.7 1.7 0 0 0-.648 0c-.157.02-.303.093-.439.156-.26.136-.522.387-.637.659a.7.7 0 0 0-.094.293.65.65 0 0 0 .021.313.8.8 0 0 0 .355.47q.157.079.345.095c.428.083.867.177 1.306.261.25.052.47.021.679-.136a.74.74 0 0 0 .303-.617 1.62 1.62 0 0 0-.408-1.024Zm2.476 3.314c-3.76 1.673-7.877 2.614-11.982 2.833a34.6 34.6 0 0 1-12.18-1.579c-.105-.376-.45-.69-.941-.543-.606.178-1.086-.523-1.076-1.056 0-.544.47-1.077.846-1.411.69-.638 1.567-1.088 2.392-1.516a27.6 27.6 0 0 1 5.746-2.238c3.73-.993 7.825-1.317 11.627-.522 1.65.355 3.27.93 4.68 1.871a8.7 8.7 0 0 1 1.943 1.777c.397.502.617 1.255.178 1.778-.24.282-.909.45-1.233.606Z"/><path fill="#cb2821" stroke="#cb2821" d="M33.733 66.546a24.4 24.4 0 0 1-2.998 7.297c-.522.857-1.88.073-1.348-.795a23 23 0 0 0 2.831-6.92c.23-.994 1.734-.565 1.515.418Zm-5.348 1.91a21 21 0 0 0 2.413-7.79c.042-.417.324-.783.784-.783.397 0 .825.366.783.784a23 23 0 0 1-2.632 8.583c-.48.889-1.828.094-1.348-.794Zm.752-63.706c.293.052.596.24.784.47.25.293.397.638.407 1.025a.75.75 0 0 1-.303.617c-.209.157-.428.188-.679.136-.439-.084-.877-.178-1.306-.262a.9.9 0 0 1-.344-.094.8.8 0 0 1-.356-.47.64.64 0 0 1-.02-.314.7.7 0 0 1 .093-.292c.115-.272.377-.523.638-.66.136-.062.282-.135.439-.156.24-.042.407-.042.647 0Zm.553 13.85a39.4 39.4 0 0 1-10.227 1.673c-1.013.031-1.003-1.537 0-1.568a37.8 37.8 0 0 0 9.82-1.62c.961-.294 1.379 1.222.407 1.515ZM23.246 8.522c.156-.554.511-1.108 1.034-1.38.25-.136.564-.23.856-.21.147 0 .293.032.429.084.209.094.334.168.512.314.428.334.668.972.48 1.505-.198.607-.773.962-1.4.952-.365-.01-.72-.126-1.044-.283-.105 0-.22 0-.324-.01a.84.84 0 0 1-.46-.366.82.82 0 0 1-.084-.606Zm-2.007-2.823a.6.6 0 0 1-.074.303.64.64 0 0 1-.156.25 1.8 1.8 0 0 1-1.139.492.8.8 0 0 1-.22 0 1 1 0 0 1-.271.136.83.83 0 0 1-.606-.084c-.02-.01-.031-.02-.052-.031-.063-.052-.136-.094-.188-.146-.052-.063-.105-.126-.146-.189 0-.02-.021-.03-.032-.052a1.2 1.2 0 0 1-.146-.575c0-.094.02-.198.031-.293.01-.03.01-.062.021-.094.042-.125.094-.261.178-.366.125-.177.22-.282.407-.407.032-.021.052-.042.094-.053.084-.041.167-.083.261-.104.251-.052.45-.052.69-.01.157.03.313.104.46.167.156.073.282.188.417.292.084.063.168.136.24.21.147.156.22.345.23.554Zm-2.383 3.076c.073.26.063.512.021.784-.02.125-.073.24-.125.355-.052.126-.136.22-.22.324a1.3 1.3 0 0 1-.292.24c-.052.043-.115.063-.178.084a.6.6 0 0 1-.198.074c-.648.156-1.295-.115-1.745-.575a.8.8 0 0 1-.23-.555c-.01-.198.074-.366.199-.512.01-.063.01-.125.031-.178a1.5 1.5 0 0 1 .126-.292l.188-.251a1.53 1.53 0 0 1 .72-.46c.063-.021.136-.032.21-.042.062 0 .135-.021.198-.021.345.01.648.136.909.366.02.02.042.052.073.073.052.073.115.146.167.23.031.052.052.115.073.167.032.063.052.126.073.189Zm-5.943-.737c-.053.074-.105.147-.168.21a1.6 1.6 0 0 1-.209.167c-.02.02-.041.031-.052.042a1.2 1.2 0 0 1-.627.125.9.9 0 0 1-.23.21.6.6 0 0 1-.292.093.64.64 0 0 1-.313-.01.6.6 0 0 1-.261-.146.6.6 0 0 1-.21-.22 2.5 2.5 0 0 1-.156-.387 3 3 0 0 1-.063-.418c-.01-.146.021-.282.031-.418.021-.115.063-.21.105-.303a1.2 1.2 0 0 1 .125-.262c.073-.104.147-.209.251-.282.084-.073.178-.157.293-.199.104-.052.219-.104.334-.125.115-.032.24-.052.365-.042.095 0 .188.02.282.031h.084c.115.032.22.084.324.147.073.042.146.104.22.157l.052.052a1.3 1.3 0 0 1 .302.543c.021.095.032.189.042.272 0 .032 0 .063-.01.094-.01.084-.01.178-.042.262 0 .031-.01.052-.02.083a1.3 1.3 0 0 1-.116.251c-.01.021-.02.042-.042.063z"/><path fill="#cb2821" stroke="#cb2821" d="M3.072 36.206c.063 4.328.073 8.656.021 12.995A498 498 0 0 1 2.07 75.692a.76.76 0 0 1-.177.44c.02.02.052.03.062.052a103 103 0 0 0 5.882 6.92c-.073-15.451-.01-30.903.198-46.365 0-.053.021-.084.021-.136a111 111 0 0 1-5.087-5.07c-.052 1.557.083 3.146.104 4.672Zm31.57-20.042s.042.021.063 0zM50.374 75.85a643 643 0 0 0-4.805-27.84 570 570 0 0 0-2.862-13.842c-.345-1.579-.627-3.23-1.118-4.788a19.45 19.45 0 0 0-5.495 7.14c-.084.188-.261.303-.45.356.095.115.157.25.168.428a387 387 0 0 0 5.704 47.433 148 148 0 0 1 8.859-8.887ZM23.172 89.294a615 615 0 0 1-3.176-50.768c-.01-.083.02-.156.031-.23-.01-.01-.031-.01-.052-.02a11.64 11.64 0 0 0-10.27-1.245h-.114a2595 2595 0 0 0-.188 47.715c.24.251.48.512.731.763a99 99 0 0 0 13.038 3.774zm-1.61-50.768a621 621 0 0 0 3.176 50.841 267 267 0 0 1 15.368-3.649 391 391 0 0 1-5.861-48.415.7.7 0 0 1 .157-.48c-4.106-2.112-9.402-1.454-12.86 1.62 0 .031.02.052.02.083Zm1.15-14.897c3.447-.23 6.884-.805 10.133-1.976 1.536-.554 3.51-1.223 4.67-2.426 1.316-1.37.219-2.593-.972-3.45-.042.47-.167.91-.48 1.286-.523.627-1.494.91-2.205.408-.344-.24-.511-.68-.282-1.067.199-.344.732-.522 1.076-.282.042.021.063.032.063.042.02 0 .031 0 .042-.02.042-.043.094-.053.136-.116.146-.198.114-.543.104-.784-.02-.774-.104-1.547-.157-2.32q-.123-1.883-.26-3.764a9 9 0 0 1-.983.533 36 36 0 0 1-3.311 1.338c-2.476.857-5.036 1.411-7.637 1.714a35.85 35.85 0 0 1-15.9-1.787.8.8 0 0 1-.323-.21 2 2 0 0 1-.47-.208c.093 1.442.177 2.885.271 4.317l.094 1.59c.021.418-.052.867.293 1.15.658.543 1.525.72 2.35.658 1.013-.063 1.003 1.506 0 1.568-1.086.073-2.215-.209-3.113-.847-.063-.041-.115-.094-.178-.136-.856 1.558.345 3.273 1.787 3.952 1.525.722 3.343.711 4.993.805 3.416.178 6.843.262 10.259.032Zm1.264 67.139a.78.78 0 0 1-.658.167 98.5 98.5 0 0 1-13.79-3.962c-.062-.02-.094-.063-.146-.094a.9.9 0 0 1-.303-.188c-.031-.032-.063-.073-.094-.105-.46.22-1.15.01-1.15-.659v-.543a103 103 0 0 1-6.988-8.092c-.23-.303-.292-.68-.073-1.004a.64.64 0 0 1-.272-.596c.606-9.346.951-18.692 1.035-28.05.041-4.683.02-9.367-.074-14.04-.041-1.955-.125-3.951.544-5.823.616-1.714 1.682-3.178 2.914-4.495a.74.74 0 0 1 .282-.188 5.5 5.5 0 0 1-.512-.596c-.96-1.36-1.201-3.084-.334-4.538.136-.209.314-.324.502-.355-.105-.481-.094-.993-.126-1.474-.156-2.572-.313-5.154-.48-7.737a.665.665 0 0 1 .48-.71 3 3 0 0 1 .157-.565c.94-2.237 3.96-3.408 6.017-4.276C15.64.848 21.01.012 26.107.785c2.173.335 4.356 1.004 6.195 2.238 1.264.836 3.468 2.624 3.385 4.401a.76.76 0 0 1 .386.617l.407 5.854c.042.021.084.021.126.053 1.368.836 2.988 1.986 3.102 3.742.126 1.903-1.452 3.158-2.966 3.963-.01 0-.032 0-.042.02-4.012 2.133-8.577 3.074-13.08 3.461-4.627.387-9.558.429-14.165-.209-1.118-.157-2.256-.45-3.217-1.024a.74.74 0 0 1-.199.49c-1.358 1.444-2.486 3.095-2.862 5.071-.01.042-.01.094-.021.136.115.042.22.094.303.178a116 116 0 0 0 5.766 5.781c.021-.01.042-.031.063-.041 3.782-1.339 8.127-.805 11.47 1.41.042.022.053.053.084.074 3.917-3.199 9.527-3.868 14.082-1.652 1.41-2.937 3.51-5.488 6.08-7.485-.021-.032-.021-.063-.042-.094-.93-1.987-2.549-3.388-4.325-4.61-.574-.398-.365-1.182.094-1.423.199-.104.439-.104.69.063 1.63 1.119 3.186 2.373 4.272 4.046 1.108 1.704 1.599 3.722 2.037 5.687 1.087 4.83 2.1 9.692 3.061 14.553a660 660 0 0 1 5.14 29.618.8.8 0 0 1-.02.282.66.66 0 0 1-.189.753 144 144 0 0 0-9.61 9.65.8.8 0 0 1-.325.209c-.115.47-.647.721-1.055.596a254 254 0 0 0-15.994 3.805.73.73 0 0 1-.762-.23Zm-3.562-79.403c4.105-.22 8.221-1.16 11.982-2.833.324-.157.992-.324 1.233-.606.438-.523.219-1.276-.178-1.777a8.7 8.7 0 0 0-1.943-1.778c-1.41-.94-3.03-1.516-4.68-1.871-3.803-.795-7.898-.47-11.627.523A27.6 27.6 0 0 0 9.455 5.26c-.825.429-1.703.878-2.392 1.516-.376.334-.846.868-.846 1.411-.01.533.47 1.234 1.076 1.056.49-.146.835.167.94.544a34.6 34.6 0 0 0 12.18 1.578Z"/></svg>