<svg xmlns="http://www.w3.org/2000/svg" width="94" height="305" fill="none"><path fill="#cb2821" stroke="#cb2821" d="M92.515 272.613c.68 8.217 1.432 18.661-5.881 24.307-3.458 2.676-7.96 3.91-12.129 4.945a68.4 68.4 0 0 1-14.771 1.997c-9.987.25-20.089-1.705-29.24-5.74-8.013-3.534-14.322-9.305-17.436-17.626-1.723-4.601-2.549-9.493-3.207-14.344-.72-5.342-1.316-10.706-1.943-16.058-1.316-11.124-2.59-22.258-3.698-33.392-1.546-15.609-2.779-31.249-3.343-46.921l1.557-.062c.48 13.152 1.43 26.272 2.632 39.372a61 61 0 0 0 4.106 2.31 101 101 0 0 0 13.382 4.935c3.228.951 6.519 1.714 9.82 2.342 3.698.533 7.438.836 11.157.899 13.486.23 26.9-2.436 39.78-6.43.815-.251 1.797-.439 2.602-.272-.21-2.53-.429-5.06-.638-7.59l1.557-.136c1.89 22.488 3.813 44.976 5.693 67.464Zm-87.27-63.062c.334.167.678.324 1.013.481l-1.202-.931c.01.136.032.272.042.408.052.021.094.021.146.042Z"/><path fill="#cb2821" stroke="#cb2821" d="m86.821 205.152-1.556.136c-.575-6.795-1.15-13.58-1.724-20.376-.637-7.58-1.274-15.159-1.922-22.739-.376.544-.92.983-1.484 1.37-1.671 1.129-3.52 1.997-5.38 2.823a132.7 132.7 0 0 1-32.677 9.607c-4.523.722-9.13 1.213-13.706.826-5.066-.418-9.976-1.902-14.823-3.366-1.766-.533-3.552-1.087-5.286-1.725a87 87 0 0 1-5.725-1.913c-.042-.021-.073-.053-.115-.073l-1.557.062c-.03-.617-.052-1.244-.073-1.861a.2.2 0 0 0-.083-.021c.01-.324.031-.637.052-.951a506 506 0 0 1-.261-17.355c.042-9.597.042-19.351 1.765-28.833 1.296-7.162 3.709-15.212 9.653-19.916 3.249-2.582 7.845-3.482 9.538-7.674.93-2.3 1.055-4.872 1.138-7.329.084-2.78.115-5.561.178-8.342.24-11.208.48-22.404.71-33.601a.74.74 0 0 1 .272-.575.7.7 0 0 1-.376-.638V29.965a.8.8 0 0 1 .094-.366 45 45 0 0 1-2.392-.178c-.805-.084-1.505-.366-1.797-1.181-.46-1.297-.313-2.99-.408-4.36l-.344-4.6c-.021-.303.26-.71.574-.753a355 355 0 0 1 5.715-.763c-.053-.01-.115-.02-.178-.042-.846-.22-.658-1.359.031-1.516a.9.9 0 0 1 .376.01c2.017.513 4.085.785 6.153.816.418-.041.836-.104 1.254-.146 1.42-.146 2.852-.261 4.273-.387.877-.188 1.598-.366 1.4-1.474-.136-.763-.387-1.516-.585-2.269-.46-1.725-.91-3.46-1.369-5.185-.23-.9-.47-1.788-.7-2.676-.157-.586-.25-1.443-.679-1.903-.49-.512-1.452-.544-2.11-.638a33 33 0 0 0-2.497-.24 34 34 0 0 0-5.244.125c-.825.094-1.724.157-2.528.387-.45.125-.523.188-.428.669.073.376.198.742.303 1.098.94 3.335 1.87 6.67 2.81 10.005.167.585-.314.962-.784.962-.313 0-.627-.168-.731-.554-.68-2.395-1.348-4.8-2.027-7.204-.303-1.097-.616-2.185-.92-3.282-.24-.879-.49-1.903.23-2.635.596-.606 1.568-.67 2.351-.784a34 34 0 0 1 2.904-.324 33 33 0 0 1 6.425.188c1.609.21 3.26.408 3.949 2.08.783 1.872 1.118 4.025 1.63 5.98.292 1.12.585 2.227.877 3.346.25.94.585 1.903.71 2.865.053.47.01.867-.094 1.202.91-.073 1.818-.136 2.727-.21.93-.062 1.995-.292 2.915-.125 1.556.283 1.504 2.018 1.598 3.252.146 2.195.303 4.38.45 6.565.083 1.338.156 3.021-1.275 3.69-.648.304-1.337.21-2.027.22-.731.01-1.41.167-2.047.44.438-.137 1.065.093 1.128.71.616 5.51 1.222 11.009 1.838 16.518.617 5.594 1.233 11.197 1.86 16.79.564 5.134.742 10.539 2.152 15.526.627 2.205 1.63 4.286 3.29 5.896 1.484 1.443 3.333 2.415 5.193 3.283 3.322 1.536 6.487 3.01 9.193 5.54 5.348 5.04 8.336 12.201 10.32 19.143 2.34 8.165 3.448 16.654 4.242 25.091.178 1.84.334 3.669.501 5.509q.189-.06.377-.104c.02 1.694.041 3.387.073 5.081 1.66 18.682 3.113 37.406 4.69 56.099Zm-25.803-55.765 19.117-4.924c-.564-6.816-1.211-13.632-2.402-20.376-1.358-7.736-3.333-15.692-7.386-22.498-1.776-2.98-4.011-5.74-6.822-7.8-3.06-2.247-6.748-3.25-9.934-5.247-3.573-2.248-5.537-5.698-6.477-9.754-1.118-4.872-1.369-9.995-1.922-14.96L41.524 30.78c-.042-.345.125-.564.365-.669-.449.199-.888.45-1.285.774-.773.637-1.89-.47-1.107-1.109 1.066-.878 2.267-1.494 3.656-1.662.836-.094 2.184.293 2.591-.68.25-.574 0-1.61-.042-2.216l-.376-5.561c-.052-.701.168-2.008-.69-2.206-.783-.189-1.995.125-2.788.188-1.62.115-3.218.25-4.827.387-.062.02-.125.03-.188.052a27 27 0 0 1-5.589.512 303 303 0 0 0-11.094 1.37l.439 5.959c.031.355-.073 1.212.115 1.537.376.616 1.243.45 1.838.49 1.129.064 2.257.137 3.385.2 1.003.062 1.003 1.63 0 1.568-.345-.021-.7-.032-1.045-.052a.7.7 0 0 1 .063.303v12.723a.72.72 0 0 1-.25.564.68.68 0 0 1 .354.649c-.114 5.342-.219 10.684-.334 16.026-.125 5.51-.24 11.02-.355 16.54-.063 2.75-.115 5.51-.178 8.27-.052 2.278-.115 4.6-.606 6.837-.449 2.007-1.295 3.92-2.768 5.394-1.379 1.38-3.134 2.258-4.847 3.168-3.312 1.756-5.808 4.203-7.678 7.464-4.075 7.099-5.182 15.797-5.725 23.847-.47 7.005-.575 14.062-.523 21.098 9.883.669 19.797-.272 29.7-.178 5.046.052 10.102.387 15.127-.105 4.805-.46 9.496-1.672 14.155-2.875Z"/><path fill="#fff8e0" stroke="#cb2821" d="M85.266 205.287c.209 2.53.428 5.06.637 7.59-.805-.168-1.787.021-2.601.271-12.881 3.994-26.295 6.66-39.781 6.43a89 89 0 0 1-11.157-.899c-3.301-.627-6.592-1.391-9.82-2.342a101 101 0 0 1-13.382-4.934 61 61 0 0 1-4.106-2.311c-1.201-13.1-2.152-26.22-2.632-39.372.042.021.073.052.115.073a87 87 0 0 0 5.725 1.913c1.734.638 3.52 1.192 5.286 1.725 4.847 1.464 9.757 2.949 14.823 3.367 4.576.387 9.183-.105 13.706-.826a132.7 132.7 0 0 0 32.677-9.608c1.86-.826 3.709-1.693 5.38-2.823.564-.386 1.108-.825 1.484-1.369q.969 11.369 1.922 22.739zm-16.35.481c.617.271 1.317-.178 1.15-.889a203 203 0 0 1-3.803-20.909c-.125-.993-1.692-1.004-1.567 0a204 204 0 0 0 3.479 19.592c-4.879-3.137-7.125-9.368-12.066-12.546-.47-.303-1.233.084-1.18.68.396 4.129.783 8.259 1.18 12.399.094.993 1.661 1.003 1.567 0-.345-3.576-.679-7.151-1.024-10.727 4.492 3.722 6.718 9.901 12.265 12.4Zm-24.79 1.495c.116.993 1.683 1.003 1.568 0-.491-4.235-.993-8.469-1.484-12.703-.115-.993-1.682-1.003-1.567 0 .491 4.234.993 8.468 1.484 12.703ZM33.618 187.88c.23-.983-1.284-1.401-1.504-.418-1.264 5.499-2.528 10.998-3.792 16.486a69.4 69.4 0 0 1-7.125-13.841c-.355-.941-1.87-.534-1.514.418 2.12 5.572 4.889 10.862 8.326 15.744.355.513 1.264.523 1.43-.188 1.39-6.064 2.79-12.138 4.18-18.201Z"/><path fill="#cb2821" stroke="#cb2821" d="M70.066 204.877c.167.711-.533 1.16-1.15.888-5.547-2.498-7.772-8.677-12.264-12.399.345 3.576.68 7.151 1.024 10.727.094 1.003-1.473.993-1.567 0-.397-4.14-.784-8.27-1.18-12.399-.053-.596.71-.983 1.18-.68 4.941 3.178 7.187 9.409 12.066 12.545a204 204 0 0 1-3.48-19.591c-.124-1.004 1.443-.994 1.568 0a203 203 0 0 0 3.802 20.909Zm-24.373 2.387c.115 1.003-1.452.993-1.567 0-.49-4.234-.992-8.469-1.483-12.703-.115-1.003 1.452-.993 1.567 0 .49 4.234.992 8.469 1.483 12.703Z"/><path fill="#fff8e0" stroke="#cb2821" d="M38.13 15.023c.198 1.108-.523 1.286-1.4 1.474-1.421.125-2.853.24-4.273.387-.418.041-.836.104-1.254.146a26.6 26.6 0 0 1-6.153-.815.9.9 0 0 0-.376-.01l-.355-.848c.47 0 .95-.376.783-.961-.94-3.336-1.87-6.67-2.81-10.006-.104-.355-.23-.72-.303-1.097-.094-.481-.02-.544.428-.67.805-.23 1.703-.292 2.528-.386 1.745-.178 3.5-.22 5.245-.126.835.053 1.671.126 2.497.24.658.095 1.619.126 2.11.639.428.46.522 1.317.679 1.902.23.889.47 1.778.7 2.677.46 1.725.908 3.46 1.368 5.185.199.753.45 1.506.585 2.269Z"/><path fill="#cb2821" stroke="#cb2821" d="M32.112 187.467c.22-.983 1.734-.565 1.504.418-1.39 6.063-2.789 12.138-4.178 18.201-.168.711-1.076.701-1.432.188-3.436-4.882-6.205-10.172-8.326-15.744-.355-.952 1.16-1.359 1.515-.418a69.4 69.4 0 0 0 7.125 13.842c1.264-5.489 2.528-10.988 3.792-16.487Z"/></svg>