<svg xmlns="http://www.w3.org/2000/svg" fill="none" viewBox="0 0 140 140"><g fill="#1f4920" stroke="#1f4920" stroke-linejoin="round" clip-path="url(#a)"><path d="M48.036 31.216c1.413 6.33 5.359 11.937 10.64 15.698a26.7 26.7 0 0 0 4.92 2.77c.494.212.92-.512.427-.723-5.875-2.537-10.751-7.187-13.464-12.95a24.8 24.8 0 0 1-1.716-5.018c-.112-.523-.93-.3-.807.223Z"/><path d="M62.645 49.217c-1.02 5.785.202 11.693-.706 17.49-.078.522.729.756.807.222.908-5.797-.314-11.704.706-17.49.09-.523-.717-.745-.807-.222Z"/><path d="M63.372 49.106c1.357-3.116 4.53-4.796 7.77-5.363 4.248-.756 8.554.523 12.702 1.29 2.175.401 4.372.557 6.558.89 2.186.334 4.103.98 5.964 2.037 3.263 1.869 6.032 4.606 8.072 7.732 2.041 3.126 3.319 6.397 3.935 9.924.314 1.813.437 3.66.348 5.496-.101 2.058-.55 4.072-.785 6.119-.123 1.08-.179 2.17-.056 3.249.101.968.325 1.924.471 2.892.325 2.125.033 4.139-1.951 5.34-1.76 1.069-3.957 1.335-5.987 1.391-2.197.056-4.394-.144-6.58-.3-8.24-.579-17.422-1.458-24.082-6.842a21.5 21.5 0 0 1-2.085-1.947c-.37-.4-.964.2-.594.59 6.02 6.497 15.404 8.088 23.846 8.81 2.331.2 4.663.379 6.995.49s4.586.067 6.783-.567c1.67-.479 3.374-1.413 4.148-3.038.897-1.89.314-4.005 0-5.963-.404-2.447.045-4.817.404-7.242.291-1.936.414-3.883.291-5.852-.247-3.716-1.3-7.377-3.027-10.681-1.726-3.304-4.204-6.342-7.22-8.656-1.681-1.29-3.542-2.38-5.56-3.07-2.186-.746-4.496-.901-6.772-1.168-4.63-.557-9.182-2.17-13.89-1.98-3.33.133-6.929 1.3-9.137 3.904a8.6 8.6 0 0 0-1.3 2.08c-.214.49.515.913.728.423z"/><path d="m102.31 62.412.516 2.425c.045.212.314.356.516.29.224-.078.347-.29.291-.512l-.515-2.426c-.045-.211-.314-.356-.516-.289-.224.078-.348.29-.292.512ZM103.99 70.433c.057.2.113.4.157.601.023.1.045.2.057.3 0 .056.011.1.022.156v.089c.045.4.067.801.056 1.202 0 .2-.022.39-.034.59 0 .055-.011.11-.022.178v.066c-.011.1-.034.2-.056.3-.079.401-.179.802-.325 1.191-.079.211.078.467.291.512.236.056.437-.067.516-.29a8.28 8.28 0 0 0 .134-5.106c-.067-.211-.302-.356-.515-.29-.213.067-.359.29-.292.513zM50.828 24.229c5.246 5.696 13.666 7.254 21.043 8.177 8.374 1.046 16.95.768 25.19-1.101a61 61 0 0 0 13.286-4.684c.482-.234.056-.957-.426-.723-7.388 3.627-15.516 5.596-23.723 6.13s-16.29-.145-23.991-2.336c-4.025-1.146-7.915-2.949-10.785-6.053-.37-.4-.964.19-.594.59Z"/><path d="M71.623 31.65c12.063-8.344 26.929-14.408 41.772-10.703 3.89.968 7.579 2.615 10.841 4.94.437.311.863-.412.426-.723-5.875-4.184-13.094-6.108-20.281-6.164-7.556-.055-14.955 2.025-21.749 5.23-4.002 1.89-7.803 4.182-11.446 6.697-.438.3-.023 1.023.426.723z"/><path d="M70.64 31.928c2.286 2.881 5.672 4.65 9.159 5.752 3.811 1.201 7.859 1.568 11.838 1.346 8.252-.456 16.043-3.427 23.51-6.764 2.029-.902 4.092-1.78 6.065-2.804 1.592-.823 3.05-1.891 3.756-3.594.213-.49-.606-.712-.807-.222-.651 1.535-2.119 2.459-3.554 3.182-1.648.834-3.352 1.568-5.045 2.336-3.666 1.658-7.388 3.238-11.211 4.484-7.31 2.38-15.303 3.582-22.87 1.646-3.868-.99-7.714-2.77-10.236-5.94-.337-.424-.93.177-.594.589zM51.1 22.404a111.2 111.2 0 0 0-7.355 29.672c-.056.534.785.534.84 0a110.5 110.5 0 0 1 7.322-29.45c.201-.5-.617-.711-.808-.222Z"/><path d="M45.145 52.988c6.166-1.401 10.897 3.916 13.61 8.667 1.514 2.648 2.882 5.396 4.16 8.166s2.5 5.863 3.24 8.956c2.533 10.536-.953 22.096-8.935 29.505-1.895 1.758-4.092 3.182-5.92 5.018-.84.856-1.614 1.813-2.152 2.892a7.5 7.5 0 0 0-.595 1.614c-.179.689-.246 1.446-.616 2.069-.807 1.346-2.904 1.446-4.283 1.201-1.502-.267-2.87-.99-4.058-1.924-2.433-1.903-4.384-4.473-6.424-6.765-3.946-4.416-8.218-8.766-11.099-13.973-1.356-2.448-2.377-5.13-2.657-7.933-.325-3.226.437-6.386 1.357-9.456.863-2.882 1.715-5.819 3.015-8.534 1.3-2.714 3.117-4.873 5.393-6.83 2.276-1.959 4.35-3.617 6.009-5.975 1.66-2.359 3.06-5.073 5.774-6.364 1.267-.6 2.657-.779 3.98-.267.504.19.728-.612.224-.801-2.657-1.023-5.527.434-7.332 2.38-2.085 2.237-3.364 5.063-5.56 7.221-2.198 2.159-4.867 3.905-6.817 6.342s-3.06 5.118-4.025 7.932c-1.087 3.182-2.209 6.475-2.702 9.802a18.5 18.5 0 0 0 .751 8.745c1.895 5.629 5.931 10.257 9.832 14.63 2.377 2.659 4.709 5.351 7.13 7.977 1.996 2.169 4.35 4.238 7.4 4.65 1.312.178 2.825.033 3.957-.712 1.222-.823 1.29-2.214 1.67-3.504.797-2.682 3.095-4.551 5.203-6.231s4.294-3.538 6.065-5.729a31.9 31.9 0 0 0 4.327-7.054c2.254-5.05 3.229-10.68 2.624-16.176-.718-6.509-3.588-12.505-6.57-18.257-2.646-5.107-5.987-10.881-12.164-12.116a9.6 9.6 0 0 0-4.014.044c-.526.123-.302.924.225.801zM47.062 33.686a45.5 45.5 0 0 1-12.646 5.073c-2.242.534-4.518.89-6.816 1.068a46 46 0 0 1-3.274.145c-1.099.01-2.31.1-3.218-.579-.437-.323-.852.4-.426.723.853.634 1.918.679 2.949.69a46 46 0 0 0 3.509-.1 46.567 46.567 0 0 0 20.36-6.297c.459-.278.044-.99-.427-.723z"/><path d="M37.554 37.513c-2.376-2.036-5.359-3.271-8.498-3.55a14.9 14.9 0 0 0-4.764.379c-1.794.434-3.543 1.135-5.382 1.346-.986.111-1.95.056-2.903-.222-.628-.178-1.413-.345-1.884.233-.336.412.258 1.013.594.59.27-.334.785-.1 1.133 0 .482.133.975.234 1.48.278.964.078 1.94-.056 2.88-.256 2.064-.434 4.037-1.268 6.144-1.49 3.8-.401 7.714.8 10.606 3.281.404.345 1.009-.233.594-.59Z"/><path d="M14.012 36.11c.908 4.084 3.677 7.767 7.59 9.458 2.006.867 4.237 1.235 6.424.968 2.387-.279 4.596-1.291 6.648-2.482 2.051-1.19 4.125-3.003 3.598-5.618-.1-.523-.919-.3-.807.223.448 2.236-1.614 3.749-3.307 4.728-1.895 1.09-3.935 2.047-6.121 2.314-3.935.478-7.848-1.146-10.393-4.127-1.401-1.636-2.343-3.605-2.803-5.697-.112-.523-.93-.3-.807.223h-.022zM55.64 66.15a32.3 32.3 0 0 1 5.549 12.25c.112.522.93.3.807-.224a32.9 32.9 0 0 0-5.628-12.449c-.314-.434-1.043-.011-.729.423Z"/></g><defs><clipPath id="a"><path fill="#fff" d="M13 18h113v105H13z"/></clipPath></defs></svg>