<svg xmlns="http://www.w3.org/2000/svg" fill="none" viewBox="0 0 140 140"><g clip-path="url(#a)"><path fill="#1f4920" stroke="#1f4920" stroke-linejoin="round" d="M59.538 13.091c.044 2.334.35 4.653.607 6.977s.401 4.534.653 6.808c.506 4.574 1.173 9.118 1.903 13.667.37 2.325.777 4.634 1.135 6.96.344 2.189.414 4.419-.18 6.567s-1.585 3.883-2.627 5.724c-1.043 1.842-2.037 3.552-2.638 5.51-1.228 4.036-1.065 8.228-.88 12.393.202 4.555.579 9.104.919 13.657.694 9.243 1.461 18.466 2.754 27.647.157 1.133.328 2.278.51 3.41.157 1.02.198 2.242.552 3.216.546 1.472 2.103 2.724 3.376 3.551 1.652 1.078 3.322 1.964 5.21 2.536 1.748.537 3.544.829 5.364.865 3.515.073 7.583-.822 10.342-3.135 1.31-1.098 2.168-2.541 2.366-4.255.243-2.124-.423-4.267-.769-6.354-1.464-9.011-1.07-18.217-1.885-27.296-.4-4.534-1.079-9.064-1.802-13.55-.647-3.99-1.14-8.199-2.756-11.935-.719-1.682-1.667-3.263-2.86-4.642-1.191-1.38-2.476-2.445-3.716-3.68-1.41-1.407-2.512-3.136-3.007-5.081-.54-2.143-.495-4.474-.637-6.671-.616-9.214-.994-18.452-1.46-27.682-.112-2.276-.237-4.538-.362-6.813-.038-.603-.974-.505-.936.098.504 8.998.871 18.01 1.363 27.01q.183 3.356.402 6.707c.147 2.235.156 4.358.493 6.484a11.4 11.4 0 0 0 2.162 5.095c.47.633 1.01 1.208 1.572 1.756.662.65 1.26 1.308 1.955 1.918 2.766 2.427 4.432 5.804 5.32 9.339 1.066 4.249 1.646 8.688 2.253 13.023s1.136 8.767 1.399 13.19c.263 4.421.385 8.947.616 13.422.12 2.225.252 4.436.534 6.644s.769 4.432 1.102 6.647c.291 1.929.027 3.853-1.345 5.324-1.292 1.387-3.2 2.195-4.984 2.749-3.688 1.146-7.734.939-11.365-.361-.944-.343-1.737-.803-2.605-1.268-.829-.444-1.635-.915-2.379-1.507a8.2 8.2 0 0 1-1.687-1.769c-.698-1.001-.727-2.477-.914-3.659-1.422-8.85-2.236-17.791-2.934-26.717-.355-4.45-.67-8.892-1-13.345s-.714-8.837-.149-13.182a21 21 0 0 1 .512-2.695c.268-1.053.58-2.274 1.207-3.161.536-.777.853-1.72 1.334-2.542s.965-1.745 1.44-2.617c.949-1.78 1.673-3.652 1.914-5.674.242-2.023-.02-4.03-.357-6.043-.749-4.485-1.485-8.97-2.11-13.48-.626-4.511-.944-8.978-1.479-13.46-.248-2.123-.495-4.233-.544-6.377-.013-.605-.948-.507-.935.098z"/><path fill="#1f4920" stroke="#1f4920" stroke-linejoin="round" d="M57.664 77.959c2.707 2.597 6.54 3.307 10.157 3.268 4.145-.044 8.448-.989 11.753-3.624 1.654-1.312 2.98-2.98 3.837-4.904.244-.556-.617-.946-.861-.39-1.478 3.341-4.46 5.69-7.856 6.868-3.395 1.179-7.638 1.498-11.267.692-1.937-.429-3.729-1.277-5.173-2.655-.435-.422-1.027.31-.592.732zM60.208 107.562a64 64 0 0 0 7.821 1.567c2.636.355 5.148.61 7.727.427 4.509-.31 8.72-2.37 10.981-6.413.297-.537-.562-.914-.86-.39-2.24 4.015-6.56 5.759-10.972 5.906-2.451.081-4.914-.191-7.337-.556a69 69 0 0 1-7.206-1.48c-.584-.153-.739.773-.155.927z"/><path fill="#1f4920" stroke="#1f4920" stroke-linejoin="round" d="M72.77 88.696c-1.624-.449-3.364.038-4.668 1.072-1.41 1.11-2.259 2.753-2.528 4.513-.572 3.802 1.296 7.651 4.568 9.62 3.272 1.97 7.734 2.057 10.112-1.126 1.172-1.564 1.73-3.582 1.856-5.504s-.149-3.814-.958-5.512c-.81-1.697-2.252-3.189-4.12-3.789-1.735-.55-3.677-.309-5.072.938-.45.401.11 1.164.559.763 2.316-2.09 5.748-.756 7.296 1.61 1.82 2.791 1.808 6.762.417 9.727-.753 1.596-2.041 2.781-3.792 3.167-1.602.358-3.294.106-4.787-.546-3.093-1.344-5.113-4.355-5.24-7.73-.063-1.8.474-3.652 1.762-4.95 1.164-1.172 2.83-1.764 4.44-1.326.584.153.739-.773.155-.927Z"/><path fill="#1f4920" stroke="#1f4920" stroke-linejoin="round" d="M71.129 85.57a6.1 6.1 0 0 1 1.627 3.241l.036-.016c.04.261-.187.5-.424.525-.274.029-.485-.177-.524-.425a1.5 1.5 0 0 1-.05-.235c-.017-.049-.021-.087-.025-.124l-.003-.025a5.5 5.5 0 0 0-.464-1.177q-.002-.009-.014-.024c.01.021.017.038 0 .013-.016-.037-.032-.06-.048-.097a1 1 0 0 1-.106-.165c-.075-.119-.137-.226-.224-.33l-1.079-1.025c-.218-.154-.213-.47-.07-.663.154-.218.458-.212.662-.07.258.176.494.379.706.596Z"/><path fill="#1f4920" d="m71.81 86.294-.01-.1-.007-.062c-.008-.075-.001-.013 0 0l-.005-.05c-.004-.038-.008-.075 0-.114.01-.153.02-.293.042-.447.034-.282.09-.578.175-.853-.002-.025.019-.065.029-.091-.019.065 0 0-.002-.013.019-.065.05-.131.068-.196.049-.132.097-.276.159-.409.05-.119.112-.252.175-.372.022-.028.03-.067.053-.094 0 0 .01-.027.021-.04l-.02.04c.044-.056.075-.122.12-.177l.133-.166s.024-.015.035-.03c.046-.042 0 0-.022.029.023-.016.046-.043.07-.058a.3.3 0 0 1 .094-.06s.025-.003.035-.03c.047-.03-.025.003-.036.017.072-.033.132-.065.205-.085l-.634-.515c-.014.23.008.442.07.663.041.16.097.33.14.49l.005.05c-.03-.034-.008-.074-.003-.024l.012.112.023.225.012.113c.003.025-.016.09-.002-.025 0 .012.004.037.005.05-.005.076-.01.152-.026.23-.006.064-.025.129-.042.207.004.037-.03.079-.027.104 0 0 .04-.106-.002-.025.002.025-.009.038-.019.065-.049.131-.11.264-.172.397l-.032.054s.054-.082.02-.04c-.022.028-.044.055-.065.095a1 1 0 0 1-.145.18 1 1 0 0 1-.148.154s-.024.016-.035.03c0 0 .069-.071.035-.03-.035.03-.057.057-.092.086-.115.1-.257.191-.387.28a.1.1 0 0 0-.047.031c-.07.045-.012.001 0 0s.06-.031 0 0a.1.1 0 0 0-.06.032c-.072.032-.157.067-.229.1-.229.1-.376.38-.264.609s.367.366.608.264c.604-.253 1.168-.653 1.538-1.21.391-.598.605-1.328.491-2.05a3 3 0 0 0-.17-.651c-.005-.05-.021-.087-.039-.135l-.008-.075.003.025-.016-.15c-.004-.038.005-.19-.006-.063.006-.177-.035-.325-.172-.437-.138-.112-.303-.12-.463-.078-.624.18-1.025.803-1.294 1.363a6.7 6.7 0 0 0-.642 3.013c0 .252.286.45.523.425.275-.03.415-.259.425-.525z"/><path stroke="#1f4920" stroke-linejoin="round" d="m71.793 86.132.007.062.01.1-.02.053c-.01.266-.149.496-.424.525-.237.025-.522-.173-.523-.425a6.734 6.734 0 0 1 .642-3.013c.269-.56.67-1.183 1.294-1.363.16-.042.325-.034.463.078.137.112.178.26.172.437.011-.127.002.025.006.063l.016.15c.006.062 0 0-.003-.025l.008.075c.018.048.034.085.04.135.072.207.145.427.17.652.113.721-.1 1.451-.492 2.049-.37.557-.934.957-1.538 1.21-.241.102-.495-.036-.608-.264-.112-.229.035-.51.264-.61.072-.032.157-.067.23-.1a.1.1 0 0 1 .06-.03m.226.24c-.008-.074-.001-.012 0 0Zm0 0-.005-.05c-.004-.037-.008-.074 0-.113.01-.153.02-.293.042-.447.034-.282.09-.578.175-.853-.002-.025.019-.065.029-.091-.019.065 0 0-.002-.013.019-.065.05-.131.068-.196.049-.132.097-.276.159-.409.05-.119.112-.252.175-.372.022-.028.03-.067.053-.094m0 0s.01-.027.021-.04zm0 0c.045-.056.076-.122.12-.177l.134-.166s.024-.015.035-.03c.046-.042 0 0-.022.029.023-.016.046-.043.07-.058a.3.3 0 0 1 .094-.06s.025-.003.035-.03c.047-.03-.025.003-.036.017.072-.033.132-.065.205-.085l-.634-.515c-.014.23.008.442.07.663.041.16.097.33.14.49l.005.05c-.03-.034-.008-.074-.003-.024l.012.112.023.225.012.113c.003.025-.016.09-.002-.025 0 .012.004.037.005.05-.005.076-.01.152-.026.23-.006.064-.025.129-.042.207.004.037-.03.079-.027.104 0 0 .04-.106-.002-.025.002.025-.009.038-.019.065-.049.131-.11.264-.172.397l-.032.054s.054-.082.02-.04c-.022.028-.044.055-.065.095a1 1 0 0 1-.145.18 1 1 0 0 1-.148.154m0 0s-.024.016-.035.03c0 0 .069-.071.035-.03Zm0 0c-.035.03-.057.057-.092.086-.115.1-.257.191-.387.28a.1.1 0 0 0-.047.031m0 0c-.07.045-.012.001 0 0Zm0 0c.013-.001.06-.031 0 0Z"/><path fill="#1f4920" stroke="#1f4920" stroke-linejoin="round" d="M68.19 8.769a7.6 7.6 0 0 0-5.182-.227c-1.564.48-3.597 1.668-3.603 3.527-.001.948.65 1.625 1.523 1.887.873.263 1.862.197 2.76.102 1.036-.109 2.06-.33 3.08-.589.835-.214 1.758-.425 2.368-1.108.666-.74.587-1.857.122-2.68s-1.419-1.495-2.391-1.266c-.246.064-.455.237-.424.525.023.225.264.478.524.425 1.144-.272 2.232 1.434 1.472 2.361-.425.525-1.243.661-1.856.827-.846.228-1.698.406-2.569.523-.785.095-1.61.169-2.402.063-.563-.068-1.18-.293-1.259-.93-.084-.686.372-1.265.871-1.671a6.1 6.1 0 0 1 1.848-1.029 6.62 6.62 0 0 1 4.73.122c.554.233.943-.63.389-.862ZM60.817 20.453c1.617.386 3.26.77 4.939.669 1.491-.093 2.964-.602 4.052-1.652.184-.171.11-.517-.07-.663-.22-.179-.477-.101-.66.07-.941.895-2.29 1.264-3.558 1.322-1.544.073-3.06-.31-4.548-.673-.247-.062-.501.154-.54.386-.047.27.138.478.385.54Z"/><path fill="#1f4920" stroke="#1f4920" stroke-linejoin="round" d="M60.465 19.15c1.65.332 3.361.532 5.034.368 1.56-.151 3.283-.572 4.382-1.75.17-.182.124-.506-.07-.662-.206-.168-.49-.113-.66.07-.466.49-1.09.796-1.724 1.002a8.8 8.8 0 0 1-2.189.42c-1.55.125-3.097-.067-4.618-.374-.593-.128-.747.811-.155.926ZM59.943 15.994c1.308.444 2.683.565 4.049.472 1.277-.084 2.62-.275 3.801-.792.652-.283 1.241-.673 1.702-1.215.393-.458-.338-1.051-.731-.593-.922 1.07-2.456 1.358-3.786 1.548-1.541.213-3.168.22-4.658-.281-.236-.077-.506-.01-.62.23-.091.211-.006.543.23.62z"/></g><defs><clipPath id="a"><path fill="#fff" d="m47.45 9.02 31.824-3.345L92.549 131.98l-31.825 3.345z"/></clipPath></defs></svg>