<svg width="140" height="140" fill="none" xmlns="http://www.w3.org/2000/svg"><g clip-path="url(#a)" fill="#3F3226" stroke="#3F3226" stroke-linejoin="round"><path d="M93.57 31.576c5.668-.063 9.5 5.17 11.792 9.804 2.97 6.005 4.856 12.682 6.026 19.285 1.171 6.602 1.738 13.616.986 20.33-.678 6.142-3.105 12.371-8.552 15.697-2.477 1.52-5.373 2.193-8.244 1.682-3.155-.573-5.99-2.267-8.577-4.11-4.83-3.452-9.033-7.787-12.385-12.708-6.605-9.68-10.622-22.486-7.677-34.184 1.405-5.556 4.486-10.54 9.267-13.703 4.202-2.779 9.501-4.186 14.455-3.015 1.257.299 2.452.76 3.586 1.358.53.286.998-.524.468-.81-4.756-2.542-10.388-2.355-15.28-.312-5.213 2.18-9.341 6.267-11.707 11.424-5.287 11.574-2.181 25.564 3.882 36.178a52.327 52.327 0 0 0 11.94 14.264c4.782 3.974 10.598 7.935 16.908 6.378 5.902-1.457 9.981-6.764 11.707-12.408 1.01-3.301 1.343-6.79 1.404-10.24a83.29 83.29 0 0 0-.554-10.95c-.826-7.226-2.563-14.364-5.299-21.092-2.058-5.057-5.003-10.863-10.314-13.055a9.825 9.825 0 0 0-3.82-.723c-.592 0-.592.947 0 .934l-.013-.024Z"/><path d="M93.854 30.778c2.193-2.055 5.126-3.687 8.207-3.4 1.688.149 3.216.921 4.683 1.743 1.466.823 2.785 1.595 4.128 2.48 2.674 1.744 5.175 3.762 7.246 6.216 1.947 2.317 3.512 4.958 4.719 7.749 2.662 6.129 3.463 12.918 3.18 19.558-.247 5.943-1.146 12.11-3.549 17.578-1.257 2.853-2.958 5.52-5.225 7.65-2.502 2.354-5.965 4.285-9.477 3.388-.579-.15-.825.748-.246.897 6.075 1.557 11.559-3.887 14.356-8.733 3.081-5.332 4.301-11.586 4.855-17.665.641-7.176.173-14.588-2.378-21.365-2.329-6.204-6.272-11.374-11.657-15.161-1.652-1.159-3.377-2.205-5.139-3.202-1.565-.884-3.204-1.757-5.016-2.018-3.5-.486-6.851 1.27-9.353 3.613-.431.41.222 1.07.653.66l.013.012ZM92.979 29.682l-2.884-7.45c-.246-.635-.492-1.283-.739-1.918-.197-.51-.37-1.01.037-1.445.394-.411 1.91-1.607 2.02-.386.05.51-.307.909-.69 1.195a5.395 5.395 0 0 1-.714.461c-.099.063-.197.088-.308.125-.074.037-.11-.012-.074.05l-.727.56.493.536c.407.449 1.06-.224.653-.66l-.493-.536c-.357-.386-1.01.125-.727.56.37.574 1.048.474 1.578.2.579-.299 1.158-.71 1.552-1.246.715-1.009.345-2.815-1.121-2.74-.715.037-1.356.535-1.873.984-.555.486-.863 1.096-.74 1.843.062.387.234.76.382 1.134l.48 1.246.913 2.367 2.082 5.357c.087.236.309.398.567.324.222-.063.42-.337.32-.573l.013.012Z"/><path d="M91.352 18.645a85.022 85.022 0 0 0 2.92 13.23c.173.573 1.072.324.888-.25a85.346 85.346 0 0 1-2.92-13.23c-.038-.249-.346-.386-.568-.323-.27.074-.357.323-.32.573ZM39.975 73.122c-9.66 1.42-16.315 11.237-17.548 20.456-.64 4.808.087 9.754 1.948 14.227a27.804 27.804 0 0 0 3.585 6.253 27.062 27.062 0 0 0 2.28 2.629c.345.336.715.785 1.233.822.517.038 1.022-.386 1.454-.635 4.411-2.679 8.749-5.656 12.163-9.593 3.413-3.936 5.532-8.346 6.1-13.305.566-4.958-1.048-10.016-3.87-14.251a40.352 40.352 0 0 0-2.23-3.015c-.74-.91-1.504-2.056-2.527-2.654-2.107-1.233-4.005.922-5.163 2.467-6.186 8.197-10.216 18.898-6.876 29.139.394 1.208.9 2.392 1.49 3.513.284.536 1.073.062.802-.473-4.658-8.87-2.428-19.41 2.563-27.582a53.41 53.41 0 0 1 1.96-2.965c.677-.96 1.38-1.98 2.279-2.753.444-.386 1.01-.748 1.614-.76.715-.025 1.257.473 1.713.972.764.834 1.479 1.731 2.181 2.628 2.896 3.775 5.164 8.172 5.275 13.043.11 4.871-1.565 9.282-4.203 13.081-2.637 3.8-6.543 7.039-10.511 9.667-.986.661-1.996 1.284-3.007 1.907-.567.348-.998.759-1.614.261-.431-.349-.813-.822-1.183-1.233-1.503-1.682-2.76-3.588-3.783-5.594-2.034-4.011-3.106-8.558-2.97-13.08.259-8.783 5.36-18.04 13.703-21.353a14.65 14.65 0 0 1 3.389-.897c.591-.087.333-.984-.247-.897v-.025Z"/><path d="M38.41 69.148c.173 1.869 1.122 3.376 3.13 3.351 2.01-.025 3.956-1.084 5.706-1.956.85-.423 1.7-.884 2.575-1.245.875-.362 1.849-.436 2.835-.262 2.76.473 4.793 2.641 6.223 4.933 1.43 2.293 2.44 4.946 3.266 7.575.887 2.815 1.564 5.718 1.897 8.658.629 5.58 0 11.473-3.253 16.182-1.8 2.604-4.338 4.747-7.184 6.105-3.29 1.582-6.95 2.105-10.426 3.127-1.65.486-3.278 1.071-4.793 1.893-1.331.723-2.563 1.595-3.845 2.405-1.134.722-2.317 1.432-3.635 1.719-1.491.324-2.958-.063-4.252-.822-2.994-1.732-5.102-4.747-6.691-7.762-1.59-3.014-2.834-6.303-3.931-9.567-2.28-6.827-3.032-14.227-.444-21.066 1.75-4.635 4.449-9.17 7.986-12.645 3.142-3.09 7.566-5.444 11.817-3.127 1.196.648 2.218 1.545 3.143 2.541.406.436 1.06-.224.653-.66-1.713-1.844-3.845-3.363-6.371-3.7-2.194-.299-4.363.337-6.248 1.445-4.412 2.567-7.628 7.176-9.957 11.636-1.084 2.068-2.02 4.248-2.662 6.503-1.047 3.725-1.17 7.686-.665 11.498.505 3.813 1.787 7.811 3.216 11.561 1.232 3.239 2.625 6.478 4.646 9.306 1.836 2.579 4.51 5.357 7.763 5.83 2.822.412 5.25-1.345 7.493-2.815 1.454-.947 2.933-1.831 4.56-2.467 1.774-.697 3.622-1.158 5.47-1.607 3.624-.884 7.222-1.819 10.315-4.011 4.905-3.476 7.677-8.808 8.293-14.787.616-5.98-.702-12.147-2.71-17.765-1.714-4.772-4.819-11.013-10.598-11.162-1.935-.05-3.599 1.07-5.287 1.906-.998.485-2.009.971-3.068 1.308-.838.261-1.849.535-2.7.236-.96-.336-1.244-1.37-1.33-2.292-.062-.598-.986-.598-.924 0h-.013Z"/><path d="M28.738 66.096c2.526-3.077 6.974-1.258 9.834.224 1.712.885 3.438 1.844 5.335 2.23 1.898.387 3.808-.025 5.718-.548 2.021-.548 3.968-.91 6.014-.236 1.713.56 3.204 1.681 4.46 2.965 2.613 2.69 4.29 6.204 5.423 9.754 2.292 7.176 2.267 15.099-.16 22.237-2.428 7.138-7.11 12.807-13.47 16.419-6.9 3.925-15.292 5.071-22.883 2.654-.567-.174-.814.723-.247.897 7.037 2.23 14.739 1.495 21.405-1.62a30.472 30.472 0 0 0 15.182-15.771c3.044-7.188 3.562-15.423 1.652-22.985-.962-3.775-2.49-7.537-4.868-10.626-2.169-2.828-5.287-5.282-8.983-5.257-2.527.012-4.843 1.308-7.345 1.37-2.502.062-4.818-1.27-7-2.404-3.179-1.632-7.972-3.29-10.72.037-.382.46.27 1.121.653.66Z"/><path d="M43.807 67.977c1.22-2.878 2.477-5.73 3.66-8.62.272-.648.333-1.321-.098-1.92a4.101 4.101 0 0 0-1.565-1.232c-.58-.25-1.22-.15-1.614.336-.333.424-.42 1.034-.26 1.545.21.685.802 1.158 1.38 1.532.58.374 1.307.673 1.788 0 .308-.436-.37-.934-.727-.56-.16.161-.308.323-.469.473-.419.423.234 1.084.654.66.16-.162.308-.324.468-.473l-.727-.56c.086-.126.123-.026 0-.076-.087-.037-.16-.05-.234-.1a5.716 5.716 0 0 1-.641-.423c-.284-.212-.58-.51-.641-.872-.037-.274.05-.66.37-.698.394-.037.813.35 1.096.586.37.324.641.61.481 1.134-.16.56-.444 1.096-.665 1.62l-1.418 3.35-1.614 3.8c-.099.237-.074.498.16.635.197.112.53.063.629-.162l-.013.025Z"/><path d="M43.93 57.363a76.553 76.553 0 0 1-3.03 11.96c-.198.573.702.81.886.249a76.89 76.89 0 0 0 3.032-11.96c.099-.585-.789-.834-.887-.249Z"/></g><defs><clipPath id="a"><path fill="#fff" transform="translate(11 16)" d="M0 0h118v109H0z"/></clipPath></defs></svg>