<svg xmlns="http://www.w3.org/2000/svg" fill="none" viewBox="0 0 140 140"><path fill="#1f4920" stroke="#1f4920" stroke-linejoin="round" d="M48.63 60.578c-3.284-2.625-5.72-6.23-6.82-10.299-.43-1.587-1.003-4.272.741-5.31 1.935-1.146 4.097 1.205 5.16 2.565.31.394.991-.13.705-.537-2.15-3.078-3.25-6.814-3.034-10.573.095-1.61.334-3.604 1.529-4.81.56-.56 1.278-.835 2.066-.667.693.143 1.361.584 1.385 1.348l.884-.12c-.585-2.553-1.206-5.274-.55-7.875.514-2.017 2.055-3.867 4.11-4.428 4.538-1.253 5.828 4.392 6.138 7.638l.884-.12c-.263-1.36 1.075-2.243 2.245-2.494 1.53-.334 2.831.382 3.763 1.575.991 1.277 1.48 2.888 1.91 4.428.586 2.076 1.147 4.165 1.72 6.241.072.239.311.358.55.31 1.66-.346 1.266-2.637 2.723-3.138 2.257-.764 3.26 2.064 3.583 3.711.956 4.857 1.278 9.834 1.063 14.774-.024.573.872.573.896 0a65 65 0 0 0-.167-8.365c-.227-2.566-.466-5.287-1.183-7.77-.513-1.777-1.803-3.484-3.858-3.317a2.4 2.4 0 0 0-1.85 1.122c-.419.656-.574 1.945-1.434 2.124l.55.31c-.693-2.506-1.302-5.036-2.09-7.506-.574-1.778-1.386-3.568-2.939-4.69-1.278-.93-2.938-1.014-4.371-.37-1.326.597-2.234 1.802-1.947 3.294.096.49.932.382.884-.12-.287-3.054-.98-7.1-4.24-8.365-3.63-1.408-7.154 1.945-7.847 5.323-.55 2.649.048 5.358.633 7.947.108.49.896.382.884-.119-.036-1.623-1.768-2.482-3.237-2.255-1.959.298-2.902 2.398-3.248 4.129-.92 4.582.203 9.475 2.866 13.282l.705-.537c-1.23-1.575-3.333-3.652-5.554-3.007-2.222.644-2.484 2.995-2.222 4.88.681 4.858 3.631 9.416 7.417 12.435.442.358 1.087-.274.633-.632z"/><path fill="#1f4920" stroke="#1f4920" stroke-linejoin="round" d="M80.497 49.468c.537-1.957.871-4.416 2.65-5.68 1.279-.908 3.906-.55 3.74 1.431-.049.526.728.573.883.12 1.242-3.712 3.344-7.351 6.462-9.798 1.684-1.324 3.833-2.387 6.031-2.005 2.007.358 3.918 1.97 3.882 4.13 0 .489.585.548.836.226 1.576-2.053 3.487-4.582 6.198-5.084 2.306-.43 6.127 1.838 4.646 4.523-.167.31.12.812.502.657 1.971-.788 3.643-2.136 5.542-3.08 1.899-.942 4.574-1.336 6.127.585 1.373 1.695-.729 3.82-1.887 4.965-1.469 1.444-3.285 2.84-3.309 5.096 0 .31.287.477.562.43 4.12-.753 7.548 3.806 5.482 7.53-2.066 3.723-6.999 3.52-10.068 5.751-.311.227-.263.883.226.836 1.876-.203 3.261 1.647 3.213 3.4-.048 1.755-1.457 3.235-2.95 4.046-2.711 1.468-5.972 1.301-8.922 1.886-.334.072-.418.525-.203.752 1.565 1.599 1.553 3.926.036 5.573s-3.834 1.933-5.589.513c-.442-.358-1.087.275-.633.632 2.126 1.719 4.992 1.516 6.855-.513s1.887-4.88-.036-6.838l-.203.752c3.559-.716 7.68-.43 10.57-2.995 1.469-1.301 2.365-3.27 1.744-5.215-.537-1.671-2.066-3.091-3.905-2.888l.226.835c2.855-2.088 6.856-2.148 9.388-4.75s2.245-6.48-.346-8.77c-1.433-1.266-3.285-1.743-5.148-1.397l.561.43c.024-2.053 1.947-3.342 3.249-4.666 1.051-1.063 2.257-2.4 2.389-3.974.143-1.719-1.362-2.924-2.831-3.45-1.648-.584-3.368-.154-4.885.574-1.899.907-3.559 2.29-5.518 3.078l.502.657c1.612-2.924-1.684-5.884-4.515-5.943-3.487-.072-5.96 3.114-7.882 5.609l.836.226c.035-2.148-1.517-3.89-3.44-4.666-2.317-.93-4.85-.226-6.868 1.074-3.857 2.495-6.401 6.731-7.835 11.015l.884.12c.203-2.304-2.52-3.294-4.383-2.578-2.592 1.002-3.105 4.248-3.762 6.587-.156.561.704.788.86.239z"/><path fill="#1f4920" d="M85.058 72.44c4.79-.489 9.65.239 14.105 2.053a29.7 29.7 0 0 1 6.39 3.568c1.839 1.337 3.905 2.983 5.112 4.952.561.907 1.182 2.28.633 3.33-.777 1.492-2.795.8-3.977.346-.49-.179-.765.561-.347.824a21.2 21.2 0 0 1 7.537 7.876c.441.8.836 1.623 1.158 2.482.323.86.609 1.957-.131 2.661-.872.824-2.532.752-3.106-.37l-.704.537c1.672 1.814 2.508 4.141 2.986 6.528.43 2.172.692 4.451.489 6.671-.179 1.945-.764 4.081-2.377 5.334-2.125 1.659-5.028 1.015-7.201-.226-2.544-1.444-4.491-3.7-6.963-5.263-.37-.227-.872.239-.61.608 1.04 1.468 2.7 4.106 1.207 5.788-1.374 1.552-3.894.466-5.34-.405-3.75-2.28-6.903-5.514-9.208-9.237-.274-.442-.92-.143-.824.346.335 1.683.789 4.606-1.469 5.191-.967.251-1.72-.608-2.34-1.217a37 37 0 0 1-1.864-1.981 32.6 32.6 0 0 1-5.661-9.428c-.215-.549-.944-.334-.86.239.191 1.408.096 3.306-.776 4.511-1.016 1.408-2.46-.74-2.89-1.587-1.23-2.387-2.127-4.953-2.736-7.578a33.96 33.96 0 0 1 .251-16.242c.143-.56-.717-.8-.86-.239-1.29 4.881-1.48 10-.609 14.965a34.4 34.4 0 0 0 2.162 7.351c.669 1.599 1.66 4.464 3.738 4.666 1.17.12 1.804-.871 2.162-1.837.513-1.361.609-2.817.418-4.249l-.86.239c1.636 4.201 4.073 8.055 7.226 11.277.657.669 1.373 1.516 2.27 1.874.895.358 1.779.119 2.495-.442 1.804-1.396 1.47-3.807 1.063-5.764l-.824.346a29.5 29.5 0 0 0 8.217 8.688c1.47 1.027 3.094 2.017 4.933 2.148 1.553.108 3.069-.716 3.511-2.267.55-1.957-.68-4.081-1.767-5.621l-.61.609c2.497 1.575 4.479 3.878 7.071 5.322 2.234 1.241 5.076 1.874 7.417.549 4.109-2.327 3.703-8.258 3.093-12.22-.453-2.936-1.361-5.871-3.415-8.103-.359-.382-.932.107-.705.537.681 1.325 2.389 1.659 3.691 1.086 2.042-.895 1.624-3.067.907-4.762a21.87 21.87 0 0 0-8.826-10.203l-.346.824c1.17.441 2.544.883 3.762.357.943-.405 1.505-1.312 1.541-2.327.095-2.482-2.007-4.523-3.679-6.062-4.013-3.711-9.065-6.3-14.416-7.447-3.034-.644-6.15-.835-9.232-.513-.574.06-.574.955 0 .895z"/><path stroke="#1f4920" stroke-linejoin="round" d="M72.553 103.408a32.6 32.6 0 0 0 5.661 9.428c.597.68 1.242 1.372 1.863 1.981s1.374 1.468 2.341 1.217c2.258-.585 1.804-3.508 1.47-5.191-.096-.489.549-.788.823-.346 2.305 3.723 5.459 6.957 9.209 9.237 1.445.871 3.965 1.957 5.339.405 1.493-1.682-.168-4.32-1.207-5.788-.262-.369.24-.835.61-.608 2.472 1.563 4.419 3.819 6.963 5.263 2.173 1.241 5.076 1.885 7.201.226 1.613-1.253 2.198-3.389 2.377-5.334.203-2.22-.059-4.499-.489-6.671-.478-2.387-1.314-4.714-2.986-6.528l.704-.537c.574 1.122 2.234 1.194 3.106.37.74-.704.454-1.802.131-2.661a19 19 0 0 0-1.158-2.482 21.2 21.2 0 0 0-7.537-7.876c-.418-.263-.143-1.003.347-.824 1.182.454 3.2 1.146 3.977-.346.549-1.05-.072-2.422-.633-3.33-1.207-1.969-3.273-3.615-5.112-4.952a29.7 29.7 0 0 0-6.39-3.568c-4.455-1.814-9.316-2.542-14.105-2.053l.012-.012c-.574.06-.574-.835 0-.895 3.081-.322 6.198-.131 9.232.513 5.35 1.146 10.403 3.736 14.416 7.447 1.672 1.54 3.774 3.58 3.679 6.062-.036 1.015-.598 1.922-1.541 2.327-1.218.526-2.592.084-3.762-.358l.346-.823a21.87 21.87 0 0 1 8.826 10.203c.717 1.695 1.135 3.867-.907 4.762-1.302.573-3.01.239-3.691-1.086-.227-.43.346-.919.705-.537 2.054 2.232 2.962 5.167 3.415 8.103.61 3.962 1.016 9.893-3.093 12.22-2.341 1.325-5.183.692-7.417-.549-2.592-1.444-4.574-3.747-7.07-5.322l.609-.609c1.087 1.54 2.317 3.664 1.767 5.621-.442 1.551-1.958 2.375-3.511 2.267-1.84-.131-3.464-1.121-4.933-2.148a29.5 29.5 0 0 1-8.217-8.688l.824-.346c.406 1.958.74 4.368-1.063 5.764-.716.561-1.6.8-2.496.442s-1.612-1.205-2.27-1.874c-3.152-3.222-5.589-7.076-7.225-11.277m.86-.239c-.215-.549-.944-.334-.86.239m.86-.239c.191 1.432.095 2.888-.418 4.249-.358.966-.992 1.957-2.162 1.837-2.078-.202-3.07-3.067-3.738-4.666a34.4 34.4 0 0 1-2.162-7.35 35 35 0 0 1 .61-14.966c.142-.56 1.002-.322.859.239a33.96 33.96 0 0 0-.25 16.242c.608 2.625 1.504 5.191 2.734 7.578.43.847 1.875 2.995 2.89 1.587.873-1.205.968-3.103.777-4.511m.86-.239-.86.239"/><path fill="#1f4920" stroke="#1f4920" stroke-linejoin="round" d="M50.887 61.927c-3.69-2.256-8.217-2.924-12.422-1.946-1.994.466-4.24 1.301-5.804 2.673-1.135 1.003-1.147 2.53.227 3.27.633.346 1.35.502 2.018.728.562.18 1.386.43 1.398 1.134l.561-.43c-4.742-.906-9.746-.31-14.081 1.838-1.565.776-3.26 2.232-2.604 4.189.25.752.86 1.193 1.624 1.384s1.983 0 2.425.74l.382-.668a14.9 14.9 0 0 0-5.936 1.79c-1.84 1.014-3.583 2.387-4.574 4.2-.824 1.504-.98 3.485.454 4.679 1.05.87 2.71 1.145 3.666 0 .299-.358-.095-1.027-.537-.704a27.1 27.1 0 0 0-7.226 7.816c-.61.99-1.194 2.053-1.147 3.222.096 2.053 2.341 3.318 4.037 3.962 2.054.788 4.324.836 6.486.561 2.603-.334 5.135-1.098 7.608-1.957l-.502-.656c-.848 1.706-1.78 3.842-.872 5.716.753 1.551 2.496 2.148 4.12 2.172 2.043.024 4.061-.764 5.841-1.683 2.078-1.074 3.965-2.47 5.84-3.866l-.609-.609c-1.421 2.697.777 6.564 3.942 6.373 4.383-.275 5.482-5.621 8.289-8.056l-.753-.203c.203 1.397.514 2.936 1.803 3.736 1.386.847 2.545.107 3.488-.967a50 50 0 0 0 6.091-8.7c.275-.5-.49-.954-.776-.453a49 49 0 0 1-4.742 7.077c-.453.56-.907 1.11-1.397 1.647s-.98 1.038-1.732.835c-1.457-.382-1.696-2.16-1.887-3.413-.048-.358-.526-.394-.752-.203-2.473 2.148-3.309 6.11-6.45 7.482-1.385.609-2.83.263-3.798-.895-.884-1.05-1.23-2.565-.573-3.818.19-.358-.227-.896-.61-.61-2.973 2.221-6.198 4.691-9.948 5.323-1.41.239-3.273.156-4.264-1.038-1.314-1.575-.275-3.83.501-5.394.156-.322-.107-.8-.501-.656-3.679 1.265-7.764 2.577-11.693 1.91-1.756-.3-4.288-1.17-5.112-2.913-.525-1.122.144-2.327.717-3.282a27 27 0 0 1 1.791-2.637 26.1 26.1 0 0 1 5.244-5.084l-.538-.704c-.836 1.003-2.365.358-2.95-.608-.896-1.492.323-3.377 1.338-4.452 2.233-2.35 5.41-3.783 8.635-4.069.334-.024.573-.358.382-.668-.8-1.397-2.472-.585-3.571-1.397-.776-.584-.526-1.754 0-2.398.621-.776 1.612-1.217 2.508-1.623 3.965-1.754 8.444-2.232 12.696-1.42.275.047.573-.12.562-.43-.024-1.122-.98-1.623-1.923-1.957-.753-.263-2.855-.549-2.58-1.742.215-.907 1.564-1.504 2.305-1.886.92-.49 1.899-.871 2.902-1.157a16.3 16.3 0 0 1 5.972-.537 15.54 15.54 0 0 1 6.545 2.183c.49.299.944-.477.454-.775zM65.029 55.948a70.5 70.5 0 0 1-6.342-24.464c-.048-.573-.944-.573-.896 0A71.8 71.8 0 0 0 64.252 56.4c.24.525 1.016.072.777-.453Z"/><path fill="#1f4920" stroke="#1f4920" stroke-linejoin="round" d="M62.103 48.143a17.6 17.6 0 0 1 2.186-10.669c.286-.501-.49-.954-.777-.453-1.91 3.353-2.735 7.28-2.305 11.11.024.239.191.454.454.454.227 0 .478-.203.454-.454z"/><path fill="#1f4920" stroke="#1f4920" stroke-linejoin="round" d="m62.258 49.527-6.461-7.482-1.84-2.136c-.382-.442-1.003.203-.633.632 2.15 2.494 4.3 4.989 6.462 7.483l1.84 2.136c.382.441 1.003-.203.632-.633ZM72.864 68.991c-.62-3.77-1.182-7.65-.728-11.468.227-1.897.74-3.77 1.648-5.454.418-.775.896-1.539 1.588-2.1.562-.453 1.47-.99 2.21-.656.967.43.717 1.623.502 2.434-.24.895-.538 1.802-.442 2.745.035.406.454.573.764.322 1.803-1.456 3.56-3.055 5.482-4.368 1.47-1.002 3.595-1.945 5.112-.5 1.099 1.05 1.362 2.816 1.027 4.248-.466 2.04-1.815 3.747-2.842 5.525-.18.298.047.656.382.668 2.066.072 3.858 1.647 4.467 3.58s-.203 3.879-1.708 5.168c-1.505 1.288-3.464 1.921-5.351 2.315-2.4.501-5.076.823-7.477.227-2.4-.597-4.8-2.542-4.765-5.24 0-.572-.884-.572-.896 0-.036 2.507 1.78 4.63 4.001 5.621 2.688 1.194 5.865.895 8.683.394 2.246-.394 4.55-1.121 6.33-2.59 1.684-1.372 2.64-3.52 2.162-5.68-.561-2.53-2.83-4.594-5.446-4.678l.382.668c1.6-2.744 3.965-5.728 2.77-9.081-.453-1.265-1.396-2.34-2.734-2.673-1.696-.418-3.368.43-4.718 1.384-1.91 1.349-3.678 2.924-5.494 4.404l.764.322c-.179-1.719 1.386-3.747.215-5.335-1.17-1.587-3.344-.572-4.443.573-1.397 1.456-2.221 3.604-2.687 5.526-.501 2.1-.62 4.296-.525 6.444.107 2.53.477 5.036.883 7.53.096.573.956.322.86-.239z"/><path fill="#1f4920" d="M72.16 69.636c.43 2.196.095 4.44-.86 6.456-.884 1.862-2.222 3.855-3.953 5.036-1.589 1.074-3.631 1.695-5.518 1.134-.992-.287-1.9-.871-2.377-1.802-.502-.979-.514-2.1.167-2.984.275-.358-.18-.704-.502-.656-1.934.275-5.446 3.401-6.975.967-.62-.979.168-1.385.956-1.85s1.493-.955 1.588-1.91c.024-.238-.227-.453-.453-.453-2.556.012-6.856-.263-7-3.664-.13-3.114 4.169-3.27 6.367-3.162v-.895c-2.21.179-2.974-3.007-1.075-4.01 1.516-.811 3.583-.095 5.123.31 1.983.514 3.93 1.17 5.829 1.946.43.179.728-.454.43-.752-1.027-1.014.131-2.387 1.206-2.769s2.126.406 2.867 1.134c1.23 1.193 2.221 2.685 3.021 4.2.263.514 1.04.06.776-.453-1.027-1.957-2.436-4.129-4.323-5.322-1.206-.764-2.532-.716-3.667.19-1.134.908-1.66 2.507-.513 3.652l.43-.751c-2.294-.955-4.67-1.695-7.083-2.268-1.66-.394-3.905-.752-5.231.62-1.804 1.862-.526 5.395 2.21 5.168.573-.048.585-.871 0-.895-2.198-.107-5.327.012-6.713 2.029-.752 1.086-.693 2.613-.12 3.77.574 1.158 1.744 1.874 2.95 2.268 1.446.477 3.01.55 4.516.55l-.454-.454c-.084.883-1.589 1.3-2.174 1.813-.908.788-.693 1.886 0 2.745 2.09 2.614 5.386-.573 7.74-.919L58.842 77c-1.087 1.408-.729 3.46.406 4.738 1.134 1.277 3.2 1.766 4.897 1.551 3.905-.49 6.712-3.878 8.169-7.303.896-2.1 1.147-4.356.705-6.588-.108-.56-.98-.322-.86.239"/><path stroke="#1f4920" stroke-linejoin="round" d="M53.6 66.748c-2.198-.108-6.498.048-6.366 3.162.143 3.401 4.443 3.676 6.999 3.664.226 0 .477.215.453.454-.095.954-.8 1.444-1.588 1.909s-1.577.871-.956 1.85c1.53 2.434 5.04-.693 6.975-.967.323-.048.777.298.502.656-.68.883-.669 2.005-.167 2.984.477.93 1.385 1.515 2.377 1.802 1.887.56 3.929-.06 5.518-1.134 1.731-1.181 3.069-3.174 3.953-5.036.955-2.017 1.29-4.26.86-6.456-.12-.561.752-.8.86-.239.442 2.232.19 4.487-.705 6.588-1.457 3.425-4.264 6.814-8.17 7.303-1.695.215-3.762-.274-4.896-1.551-1.135-1.277-1.493-3.33-.406-4.738l.501.656c-2.353.346-5.649 3.533-7.74.92-.692-.86-.907-1.958 0-2.746.586-.513 2.091-.93 2.175-1.813l.453.453c-1.504 0-3.069-.072-4.514-.549-1.207-.394-2.377-1.11-2.95-2.267-.574-1.158-.633-2.685.12-3.771 1.385-2.017 4.514-2.136 6.712-2.03m0 .896v-.895m0 .895c-2.736.227-4.014-3.306-2.21-5.167 1.326-1.373 3.571-1.015 5.231-.62 2.413.572 4.79 1.312 7.083 2.267l-.43.751c-1.147-1.145-.621-2.744.513-3.651 1.135-.907 2.46-.955 3.667-.191 1.887 1.193 3.296 3.365 4.324 5.322.262.513-.514.967-.777.454-.8-1.516-1.791-3.008-3.022-4.201-.74-.728-1.791-1.516-2.866-1.134s-2.233 1.755-1.206 2.769c.298.298 0 .93-.43.752a46 46 0 0 0-5.829-1.946c-1.54-.405-3.607-1.121-5.123-.31-1.9 1.003-1.135 4.189 1.075 4.01m0 .895c.573-.048.585-.871 0-.895"/><path fill="#1f4920" stroke="#1f4920" stroke-linejoin="round" d="M63.5 71.402c1.266-2.303 3.631-3.89 6.223-4.296.335-.048.68-.084 1.027-.084h.562c.083 0 .179 0 .262.012.036 0 .096.012.132 0 .131.06.107-.012-.096-.203l.06-.226c.12-.155.25-.191.406-.12l.155.156v-.024a.8.8 0 0 0 .048.226v-.023c-.024.071-.036.155-.06.226v-.024c.287-.5-.477-.954-.764-.453-.299.56.442 1.014.872.609a.545.545 0 0 0 .095-.669c-.131-.25-.406-.346-.668-.382-.86-.107-1.756-.035-2.604.132a9.6 9.6 0 0 0-4.622 2.35 8.7 8.7 0 0 0-1.816 2.304c-.275.501.502.955.777.453z"/><path fill="#1f4920" stroke="#1f4920" stroke-linejoin="round" d="M72.506 66.605c1.66-2.113 3.69-4.13 6.497-4.44.896-.095 1.768-.155 2.604-.5.227-.096.274-.419.155-.61-.132-.226-.394-.25-.61-.155-.68.299-1.468.31-2.197.394a8.1 8.1 0 0 0-2.126.513c-1.302.537-2.436 1.408-3.428 2.41-.549.562-1.05 1.159-1.54 1.767-.156.191-.191.454 0 .633.155.155.477.19.633 0zM92.798 58.43c3.44.585 6.748-1.11 9.699-2.673a54 54 0 0 0 8.372-5.514 56 56 0 0 0 4.347-3.878c.406-.406-.227-1.038-.633-.633-4.538 4.5-9.961 8.402-15.873 10.884-1.78.752-3.714 1.289-5.66.967-.562-.096-.801.763-.24.859z"/><path fill="#1f4920" stroke="#1f4920" stroke-linejoin="round" d="M104.49 54.038a16.77 16.77 0 0 1 6.08-9.714c.191-.143.298-.382.155-.608-.108-.191-.418-.31-.609-.156a17.7 17.7 0 0 0-5.721 7.674 18 18 0 0 0-.765 2.578c-.119.56.741.8.86.238z"/><path fill="#1f4920" stroke="#1f4920" stroke-linejoin="round" d="M103.644 54.993c3.475 1.754 7.667 1.921 11.286.513a13.3 13.3 0 0 0 2.903-1.563c.465-.334.024-1.11-.454-.776-2.962 2.112-6.796 2.864-10.343 2.088a12.8 12.8 0 0 1-2.938-1.038c-.514-.262-.968.514-.454.776ZM75.027 76.927c6.557 7.77 15.562 13.163 21.605 21.397 1.637 2.22 3.01 4.619 3.978 7.197.203.537 1.063.298.86-.239-3.607-9.63-12.111-15.872-19.457-22.531-2.245-2.029-4.407-4.153-6.365-6.468-.37-.442-1.004.19-.633.632z"/><path fill="#1f4920" stroke="#1f4920" stroke-linejoin="round" d="M82.252 83.932c6.02 1.397 12.935.513 18.142 4.38.466.346.908-.43.454-.776-5.303-3.926-12.254-3.067-18.357-4.475-.562-.131-.8.728-.24.86z"/><path fill="#1f4920" stroke="#1f4920" stroke-linejoin="round" d="M81.835 83.646c-1.325 4.618-2.15 9.989.777 14.213a8.9 8.9 0 0 0 2.556 2.482c.49.311.931-.465.453-.775-2.185-1.397-3.451-3.82-3.917-6.325-.573-3.127.131-6.35 1.003-9.356.155-.55-.704-.788-.86-.239zM45.8 80.52a53.5 53.5 0 0 1-10.189 5.179 53 53 0 0 1-5.374 1.718c-.896.239-1.804.442-2.711.644-.836.18-1.6.43-2.282.955-.453.358.18.979.633.633.729-.561 1.696-.68 2.568-.871s1.78-.418 2.652-.657a50 50 0 0 0 5.267-1.754 55 55 0 0 0 9.89-5.072c.477-.31.035-1.086-.455-.776Z"/><path fill="#1f4920" stroke="#1f4920" stroke-linejoin="round" d="M41.56 82.99c-1.302.334-2.675.047-3.858-.55-1.266-.644-2.293-1.61-3.224-2.672a33 33 0 0 1-1.53-1.886c-.154-.19-.477-.155-.632 0-.191.191-.156.442 0 .633 1.815 2.315 3.893 4.833 6.963 5.394a6 6 0 0 0 2.52-.06c.561-.143.322-1.002-.239-.86Z"/><path fill="#1f4920" stroke="#1f4920" stroke-linejoin="round" d="M41.38 83.467c-2.078 2.733-3.285 6.11-3.44 9.535-.048.979 0 1.97.12 2.936.035.239.179.441.453.453.215 0 .478-.203.454-.453a16.4 16.4 0 0 1 3.201-12.03c.144-.19.024-.5-.155-.608-.227-.131-.466-.036-.61.155zM32.28 86.522a29.3 29.3 0 0 1-7.298-3.616c-.203-.131-.501-.036-.609.155-.131.227-.036.478.155.609a30 30 0 0 0 7.513 3.711c.227.072.49-.083.55-.31.071-.239-.084-.477-.311-.549Z"/><path fill="#1f4920" stroke="#1f4920" stroke-linejoin="round" d="M31.492 87.334c-1.41 1.897-2.114 4.308-2.007 6.67.036.68.132 1.361.299 2.017.143.561 1.003.323.86-.238-.693-2.745-.072-5.728 1.612-8.008.144-.19.036-.501-.155-.609-.227-.13-.466-.035-.61.156z"/></svg>