<svg width="140" height="140" fill="none" xmlns="http://www.w3.org/2000/svg"><g clip-path="url(#a)"><path d="M56.428 25.902c.747 4.913 1.292 9.87 1.643 14.825.166 2.503.298 5.02.355 7.522.057 2.502.154 4.807-.093 7.185-.218 2.183-.8 4.248-1.87 6.172-.925 1.68-2.12 3.21-3.358 4.684-2.528 3.025-5.19 5.92-6.78 9.568-3.754 8.649-1.884 18.375-.912 27.392.524 4.984 1.07 9.954 1.606 14.937.255 2.421.393 4.89.815 7.293.324 1.814 1.151 3.347 2.81 4.265 1.658.917 3.676 1.101 5.535 1.278 2.336.222 4.684.323 7.035.34 4.823.033 9.645-.282 14.454-.619 4.376-.304 8.764-.718 13.026-1.765 2.136-.525 4.23-1.225 6.226-2.167 1.777-.834 3.791-1.838 5.111-3.332 1.32-1.495 1.427-3.366 1.187-5.188-.287-2.262-.848-4.495-1.253-6.732a220.143 220.143 0 0 1-2.134-14.774c-.89-8.125-.802-16.965-4.74-24.362-1.796-3.375-4.415-5.943-7.464-8.227-3.05-2.283-6.155-4.176-8.524-7.01-2.964-3.552-3.552-8.218-4.352-12.61a215.81 215.81 0 0 1-2.207-14.886 206.653 206.653 0 0 1-.695-7.197c-.048-.571-.947-.477-.899.094a223.06 223.06 0 0 0 1.674 14.654c.717 4.868 1.403 9.32 2.547 13.867.5 1.999 1.247 3.912 2.429 5.6.967 1.362 2.146 2.558 3.422 3.635 2.78 2.372 5.956 4.246 8.693 6.67 6.17 5.47 7.632 13.632 8.416 21.432.456 4.572.84 9.15 1.442 13.719a222.964 222.964 0 0 0 2.41 14.289c.375 1.844.847 4.026-.144 5.774-.991 1.748-3.46 2.919-5.248 3.755-3.98 1.882-8.343 2.773-12.695 3.302-4.352.53-8.927.782-13.395 1.012-4.77.238-9.559.309-14.306-.152-1.884-.186-4.008-.347-5.602-1.463-1.923-1.358-1.956-3.862-2.178-5.974-.508-4.83-1.04-9.658-1.548-14.5-.51-4.841-1.081-9.593-1.525-14.393-.444-4.801-.574-9.263.56-13.786.512-2.045 1.273-4.02 2.316-5.858.97-1.71 2.2-3.255 3.46-4.755 2.346-2.79 4.928-5.534 6.376-8.925 1.746-4.12 1.408-8.835 1.264-13.2-.155-4.819-.493-9.642-1.032-14.433-.26-2.349-.578-4.69-.933-7.03-.084-.566-.982-.472-.898.095l-.027-.021Z" fill="#EB5C2E" stroke="#EB5C2E" stroke-linejoin="round"/><path d="M45.72 100.182a3560.343 3560.343 0 0 0 42.126-3.372c3.768-.324 7.707-.402 11.32-1.634.549-.19.22-1.019-.33-.829-3.261 1.11-6.787 1.206-10.195 1.504-3.408.298-6.973.6-10.455.883-6.913.582-13.843 1.13-20.762 1.666-3.94.306-7.868.599-11.81.893-.577.037-.482.939.094.89l.012-.001ZM47.931 119.603c7.07-.587 14.152-1.187 21.223-1.775 7.07-.587 14.103-1.074 21.114-1.883 3.925-.448 7.846-1.052 11.7-1.937.556-.131.474-1.022-.093-.89-6.859 1.572-13.874 2.226-20.871 2.817-6.998.592-14.14 1.186-21.211 1.774l-11.956 1.004c-.576.049-.482.939.094.89ZM56.279 15.935c-.022-.441-.288-.785-.62-1.062-.306-.256-.804-.504-.873-.928-.199-1.203 1.611-1.61 2.435-1.84a57.355 57.355 0 0 1 8.2-1.714 38.234 38.234 0 0 1 2.009-.235c.55-.058 1.13-.07 1.67.1.462.144.884.471 1.031.948.18.557-.212.862-.56 1.235-.349.372-.56.898-.362 1.393.082.208.231.36.425.472.078.052.456.192.472.226.037.128-.254.47-.302.584-.088.201-.139.41-.115.636.04.392.303.7.585.958.214.194.73.488.703.814-.014.218-.221.431-.311.609-.11.215-.195.452-.169.701.066.63.72.969.823 1.606.103.637-.099 1.366-.297 2.01-.173.547.653.916.826.37.352-1.141.704-2.51-.072-3.556-.155-.212-.44-.386-.335-.66.096-.239.28-.438.363-.687.16-.437.054-.87-.236-1.211-.25-.31-.636-.521-.874-.832-.268-.356.223-.755.293-1.123.112-.551-.249-.873-.707-1.09-.282-.138-.282-.258-.091-.518.19-.26.46-.456.638-.726.591-.938.054-2.13-.814-2.675-1.095-.736-2.511-.504-3.721-.376-3.039.355-6.05.96-9.003 1.786-1.271.35-2.891.724-3.322 2.149a1.616 1.616 0 0 0 .39 1.639c.3.316 1.009.613 1.035 1.09.036.573.934.478.898-.094l-.012.001Z" fill="#EB5C2E" stroke="#EB5C2E" stroke-linejoin="round"/><path d="M55.536 16.937c.245.262-.005.649-.173.894-.241.35-.518.715-.594 1.143-.144.819.49 1.328 1.038 1.81.12.108.186.16.272.284.083.099.117.191.13.322.014.238-.17.57-.276.82-.146.34-.266.7-.18 1.064.105.42.43.626.789.817.077.04.103.06.17.114-.04-.032.03.057.002.024 0 0-.015-.023-.004-.036.005.047.006.06.003.024-.03.063.024-.003 0 0-.02.038-.029.075-.05.1-.04.077-.093.155-.133.23-.197.322-.386.713-.178 1.075.12.216.34.349.583.251.21-.082.374-.363.254-.579l-.03-.056c.03.056-.042.064.002.023.01-.025.02-.05.04-.088.069-.151.164-.281.246-.422.182-.343.236-.744-.003-1.067-.115-.168-.283-.27-.462-.36-.116-.071-.268-.127-.336-.204-.042-.056-.028-.033-.033-.08 0 0-.009-.084-.002-.024-.004-.036.005-.061.014-.098.022-.134.09-.285.158-.448.156-.365.311-.73.305-1.136 0-.348-.167-.667-.389-.931-.233-.264-.522-.473-.778-.723-.189-.184-.342-.372-.261-.644.113-.42.49-.747.679-1.14.228-.48.296-1.098-.087-1.514-.163-.175-.414-.256-.627-.09-.18.127-.267.448-.092.622l.003.023Z" fill="#EB5C2E"/><path d="M56.713 24.217c.003.035.002.023-.003-.024-.01.013.004.035.004.035.028.034-.042-.055-.003-.023a.825.825 0 0 0-.169-.114c-.36-.19-.684-.396-.788-.817-.087-.363.033-.724.179-1.063.106-.251.29-.582.277-.821a.544.544 0 0 0-.131-.322c-.086-.123-.152-.176-.272-.284-.547-.482-1.182-.991-1.038-1.81.076-.428.353-.793.594-1.143.168-.245.418-.631.173-.894l-.003-.023c-.175-.174-.088-.495.092-.622.213-.166.464-.085.627.09.383.416.315 1.035.087 1.515-.189.392-.566.72-.68 1.139-.08.272.073.46.262.644.256.25.545.46.778.723.222.264.389.583.389.93.006.408-.15.772-.305 1.137-.067.163-.136.314-.158.448-.009.037-.018.062-.014.098-.007-.06.002.023.002.023.005.048-.01.025.033.08.068.078.22.134.336.205.179.09.347.192.462.36.24.323.185.724.003 1.067-.082.141-.178.271-.246.422-.02.038-.03.063-.04.088-.044.041.028.033-.002-.023l.03.056c.12.216-.044.497-.254.579-.244.098-.464-.035-.583-.25-.208-.363-.019-.755.178-1.075.04-.076.092-.154.133-.23.021-.026.03-.063.05-.101Zm0 0c-.03.063.024-.003 0 0Z" stroke="#EB5C2E" stroke-linejoin="round"/><path d="M57.022 26.008c2.252-.92 4.684-1.284 7.064-1.69 2.379-.407 4.907-.78 7.38-.644.57.024.733-.857.149-.88-2.568-.126-5.1.212-7.622.645-2.521.433-4.977.8-7.3 1.74-.535.212-.216 1.054.329.829ZM57.236 24.246c2.203-.928 4.576-1.285 6.919-1.687 2.343-.403 4.906-.792 7.38-.644.572.036.734-.845.15-.88-2.56-.15-5.102.2-7.624.634-2.521.433-4.882.789-7.154 1.747-.534.224-.204 1.054.33.83ZM56.85 21.143c2.242-.68 4.57-.996 6.869-1.358 2.299-.362 4.723-.688 7.103-.735.58-.013.487-.903-.093-.89-2.43.04-4.84.377-7.246.762-2.406.385-4.697.71-6.974 1.393-.552.166-.223.995.33.83l.011-.002ZM56.368 18.05c2.14-.849 4.44-1.187 6.701-1.568 2.261-.382 4.646-.729 6.994-.627.243.01.473-.11.519-.367.037-.22-.126-.503-.37-.513-2.432-.104-4.844.221-7.236.617-2.393.395-4.729.749-6.937 1.629-.535.212-.218 1.042.33.829ZM56.003 16.324c2.163-.743 4.441-1.067 6.68-1.422 2.24-.355 4.603-.688 6.942-.67.582.011.476-.877-.094-.89-2.376-.026-4.727.305-7.073.684-2.345.378-4.587.71-6.785 1.457-.55.19-.22 1.019.33.83v.011ZM51.486 103.068l9.418 9.88c.164.175.414.257.627.09.18-.127.268-.448.092-.621-3.143-3.293-6.275-6.588-9.418-9.881-.164-.175-.414-.256-.627-.09-.18.127-.268.448-.092.622Z" fill="#EB5C2E" stroke="#EB5C2E" stroke-linejoin="round"/><path d="m59.521 102.427-5.556 9.355c-.123.205.017.502.22.589.241.107.47-.014.594-.219 1.852-3.122 3.705-6.232 5.556-9.354.124-.205-.016-.503-.22-.589-.24-.107-.47.013-.594.218ZM66.64 102.447l9.147 6.261 2.636 1.799c.47.323 1.05-.374.568-.696l-9.147-6.261-2.635-1.799c-.47-.323-1.05.374-.568.696Z" fill="#EB5C2E" stroke="#EB5C2E" stroke-linejoin="round"/><path d="M75.395 101.742a100.26 100.26 0 0 0-6.667 8.8c-.136.206-.133.47.066.629.172.138.499.14.635-.067a99.963 99.963 0 0 1 5.098-6.907 58.48 58.48 0 0 1 1.57-1.892c.376-.448-.325-1.01-.702-.563ZM83.722 100.891l9.313 6.568 2.628 1.848c.47.334 1.04-.361.568-.696-3.1-2.194-6.211-4.374-9.312-6.568l-2.628-1.848c-.471-.334-1.04.362-.569.696Z" fill="#EB5C2E" stroke="#EB5C2E" stroke-linejoin="round"/><path d="M92.817 100.08a153.099 153.099 0 0 1-6.649 7.022c-.659.645-1.318 1.29-1.988 1.936-.177.163-.106.491.066.629.212.17.46.108.635-.066a146.326 146.326 0 0 0 6.77-6.903c.63-.678 1.249-1.367 1.855-2.055.39-.437-.323-.998-.701-.562l.012-.001Z" fill="#EB5C2E" stroke="#EB5C2E" stroke-linejoin="round"/></g><defs><clipPath id="a"><path fill="#fff" transform="rotate(-6 125.825 -315.612)" d="M0 0h59v124H0z"/></clipPath></defs></svg>