<svg width="140" height="140" fill="none" xmlns="http://www.w3.org/2000/svg"><g clip-path="url(#a)"><path d="m56.155 26.703-.547-5.199a.498.498 0 0 0-.547-.423c-.274.028-.475.252-.447.528l.547 5.198c.026.251.272.453.547.424.275-.029.476-.253.447-.528Z" fill="#CB2821" stroke="#CB2821" stroke-linejoin="round"/><path d="m55.774 20.575-1.565.076c-.17.018-.378.052-.554.02-.04-.009-.039.004.03.022l-.017-.15c-.011-.113-.035-.212-.06-.323-.18-.956-.348-1.927-.528-2.883l-.319.49a141.57 141.57 0 0 1 7.51-1.638c.623-.116 1.245-.233 1.869-.336.285-.056.571-.098.843-.152.092-.01.369-.014.43-.07.096-.087-.022.052-.031-.035.004.037.034.072.038.11.029.275.099.56.154.832.059.31.105.622.164.933.1.584.227 1.154.302 1.741.017.163.067.386-.085.452-.1.049-.274.03-.392.041-.157.017-.301.032-.455.074-.62.14-1.156.45-1.598.902-.441.452.32 1.03.763.591.406-.41.905-.576 1.481-.624.615-.065 1.168-.338 1.272-.982.084-.592-.129-1.228-.23-1.813-.123-.67-.234-1.343-.358-2.026-.1-.572-.309-1.171-1.033-1.146-.33.01-.65.107-.976.154l-1.13.194c-1.401.249-2.787.521-4.17.819-1.58.33-3.153.698-4.726 1.079-.194.046-.352.303-.32.49.115.583.217 1.18.332 1.763.114.583.177 1.185.33 1.751.151.567.677.663 1.217.645l1.895-.085c.632-.029.533-.968-.099-.94l.016.024ZM51.86 79.828c8.797 2.178 18.36 1.085 26.495-2.911a38.148 38.148 0 0 0 6.588-4.112c.489-.38-.08-1.144-.582-.762-9.01 6.988-21.163 9.608-32.334 6.856-.61-.151-.778.778-.167.93ZM54.411 96.544c8.859 3.147 18.646 3.549 27.814 1.218a46.154 46.154 0 0 0 7.688-2.708c.568-.262.225-1.138-.356-.874-10.854 4.915-23.554 5.477-34.733 1.51-.59-.204-1.003.65-.411.866l-.002-.012Z" fill="#CB2821" stroke="#CB2821" stroke-linejoin="round"/><path d="M54.998 15.084c-.584-1.408-1.155-2.817-1.74-4.225a1.278 1.278 0 0 1-.074-.208l-.007-.062c.014-.002-.1.048.003.025-.064.02.026-.003.026-.003.04-.004.076-.033.128-.039.347-.1.708-.188 1.057-.263.75-.155 1.509-.234 2.271-.276.37-.014.74-.015 1.11-.003.16.008.32.017.469.052.094.015.15.047.196.106.166.198.273.58.38.847.143.352.273.706.415 1.058.272.693.544 1.4.815 2.093.071.17.127.328.198.498.054.134.108.267.108.394-.003-.025-.032.08.002.025-.022.04-.047.056-.11.088.027-.003-.113.05-.14.052-.088.035-.178.057-.267.092-1.575.495-3.254.62-4.891.387-.63-.085-.798.844-.167.93 1.717.237 3.463.117 5.131-.362.373-.103.785-.21 1.074-.48.349-.329.383-.763.271-1.194-.108-.394-.292-.767-.438-1.145-.16-.4-.309-.803-.469-1.192-.16-.388-.309-.803-.469-1.191-.144-.365-.263-.745-.432-1.095-.186-.386-.454-.674-.878-.807-.382-.112-.804-.105-1.2-.102a15.3 15.3 0 0 0-3.97.48c-.374.09-.787.185-1.046.49-.351.43-.111.95.067 1.387l.549 1.323 1.1 2.67c.23.559 1.147.222.915-.35H55ZM59.959 87.437a28.628 28.628 0 0 0 4.25 6.101c.134.138.314.22.508.175.18-.044.35-.189.37-.381.34-2.544.668-5.086 1.01-7.63a.469.469 0 0 0-.401-.54c-.255-.036-.541.133-.567.39-.341 2.543-.67 5.085-1.01 7.628l.89-.207a27.23 27.23 0 0 1-4.122-5.887c-.117-.228-.37-.366-.636-.262-.229.087-.396.383-.28.612l-.012.001ZM69.925 88.024l1.187 5.13c.051.236.26.455.547.425.235-.025.5-.268.447-.528l-1.187-5.132c-.052-.235-.26-.454-.547-.424-.236.025-.501.268-.447.529ZM77.068 91.212c-.347-1.674-.695-3.347-1.03-5.021l-.69.477c1.92.913 3.05 2.846 4.762 4.047.5.352 1.032.638 1.62.817.396.123.813-.186.663-.601a79.165 79.165 0 0 1-2.515-8.335c-.066-.247-.246-.456-.547-.424-.235.024-.5.268-.447.528a83.19 83.19 0 0 0 2.568 8.583l.664-.602c-2.048-.62-3.27-2.556-4.835-3.861a7.846 7.846 0 0 0-1.548-1.015c-.32-.144-.766.131-.69.478.348 1.673.695 3.346 1.03 5.02.053.249.26.455.547.425.249-.027.488-.267.447-.529l.001.013ZM85.479 71.723c-.242-2.052-.497-4.102-.74-6.154l-8.75 3.162c-1.937.697-3.898 1.41-5.918 1.812-2.124.426-4.296.515-6.455.73-4.307.414-8.58 1.268-12.9 1.418l.042.16.291 6.163c.173.007.366.088.52.173 1.572.861 3.404 1.188 5.197 1.506 2.142.383 4.297.764 6.474.713 1.964-.055 3.919-.45 5.823-.954a58.342 58.342 0 0 0 13.54-5.4c.762-.422 1.51-.856 2.18-1.395.255-.216.522-.447.648-.752.16-.37.116-.784.075-1.173l-.027-.01Z" fill="#CB2821" stroke="#CB2821" stroke-linejoin="round"/><path d="M54.618 95.61c5.195 2.38 11.154 3.096 16.917 2.58 5.763-.518 11.378-2.197 16.71-4.417.558-.236 1.319-.417 1.66.054.106.14.14.327.17.501 1.682 9.082 3.35 18.152 5.031 27.233.126.696.253 1.392.155 2.099-.125.824-.561 1.579-1.084 2.267a11.758 11.758 0 0 1-3.773 3.221c-1.326.722-2.772 1.178-4.24 1.548a34.698 34.698 0 0 1-9.841.971c-3.03-.138-6.062-.693-8.84-1.832-1.436-.584-2.824-1.337-3.964-2.37-2.748-2.498-3.686-6.262-4.495-9.812-1.656-7.197-3.3-14.408-4.955-21.605l1.565.178" fill="#CB2821"/><path d="M54.618 95.61c5.195 2.38 11.154 3.096 16.917 2.58 5.763-.518 11.378-2.197 16.71-4.417.558-.236 1.319-.417 1.66.054.106.14.14.327.17.501 1.682 9.082 3.35 18.152 5.031 27.233.126.696.253 1.392.155 2.099-.125.824-.561 1.579-1.084 2.267a11.758 11.758 0 0 1-3.773 3.221c-1.326.722-2.772 1.178-4.24 1.548a34.698 34.698 0 0 1-9.841.971c-3.03-.138-6.062-.693-8.84-1.832-1.436-.584-2.824-1.337-3.964-2.37-2.748-2.498-3.686-6.262-4.495-9.812-1.656-7.197-3.3-14.408-4.955-21.605l1.565.178" stroke="#CB2821" stroke-linejoin="round"/><path d="m55.277 27.289 1.148 13.937c.09 1.105.191 2.197.268 3.303.077 1.107.141 2.227-.28 3.246-.654 1.576-2.55 2.156-3.724 3.318-2.29 2.241-2.95 5.654-3.19 8.643-.303 3.908.097 7.842.49 11.714.932 9.237 2.582 18.397 4.502 27.48.97 4.571 2.003 9.123 3.062 13.66.939 4.03 1.56 8.435 3.549 12.127 1.693 3.153 4.577 5.18 8.048 6.259 4.032 1.248 8.382 1.627 12.6 1.12a30.612 30.612 0 0 0 6.48-1.491c1.709-.598 3.554-1.286 4.938-2.457 2.985-2.543 2.46-6.655 1.817-10.006-1.71-9.104-3.552-18.194-5.328-27.291-1.775-9.097-3.475-18.227-5.33-27.316-.703-3.421-1.525-6.843-2.86-10.097-1.12-2.732-2.64-5.498-5.046-7.386-1.254-.982-2.66-1.531-4.192-2.016-1.9-.598-3.401-1.416-4.203-3.257-.886-2.021-1.181-4.32-1.656-6.45-.475-2.128-.997-4.454-1.494-6.669s-.997-4.454-1.495-6.67c-.127-.581-1.109-.49-.98.104l2.99 13.351c.447 1.992.769 4.048 1.449 5.99.552 1.602 1.485 2.935 3.064 3.744 1.397.714 2.994.94 4.392 1.654 1.397.714 2.439 1.694 3.351 2.826 2.07 2.582 3.276 5.76 4.2 8.88 1.064 3.587 1.715 7.267 2.431 10.94.885 4.518 1.757 9.036 2.641 13.553 1.746 8.936 3.49 17.859 5.223 26.796.436 2.259.885 4.517 1.32 6.776.394 1.985.856 3.988.988 6.001.119 1.887-.09 3.923-1.469 5.397-1.271 1.363-3.246 2.077-4.992 2.691a29.753 29.753 0 0 1-13.037 1.509c-3.798-.411-7.946-1.381-10.77-3.972-3.028-2.772-3.887-7.038-4.772-10.808a1164.854 1164.854 0 0 1-3.055-13.345c-1.945-8.813-3.684-17.686-4.836-26.633-.54-4.262-1.06-8.576-1.167-12.871-.076-3.235.055-6.77 1.54-9.75.72-1.456 1.768-2.427 3.153-3.333 1.485-.966 2.422-2.116 2.608-3.87.199-2.01-.168-4.112-.326-6.122l-.558-6.818-.538-6.504c-.05-.603-1.031-.5-.981.103l.027.01Z" fill="#CB2821" stroke="#CB2821" stroke-linejoin="round"/></g><defs><clipPath id="a"><path fill="#fff" transform="rotate(-6 112.284 -400.48)" d="M0 0h42v127H0z"/></clipPath></defs></svg>