<svg width="141" height="140" fill="none" xmlns="http://www.w3.org/2000/svg"><g clip-path="url(#a)" fill="#3F3226" stroke="#3F3226" stroke-linejoin="round"><path d="M65.346 82.576c.07 5.678 4.899 9.236 9.493 11.285 5.26 2.348 10.822 3.942 16.469 4.896 11.472 1.935 23.262 1.224 34.596-1.281 2.92-.64 5.813-1.423 8.691-2.263 1.924-.555 4.276-1.608 4.11-4.056-.055-.854-.484-1.68-1.259-2.035-1.121-.512-2.671 0-3.82.185-3.141.498-6.282.982-9.465 1.167-3.183.185-6.408.043-9.521-.754-2.879-.726-5.605-1.936-8.345-3.103-5.466-2.32-10.891-4.81-15.97-7.955-2.491-1.537-4.858-3.26-7.127-5.11-1.882-1.522-3.958-3.13-6.449-3.273-1.882-.113-4 .655-4.94 2.434-.25.484-.374 1.01-.554 1.523-.277.811-.816 1.025-1.398 1.523-.927.81-.72 2.163-1.19 3.216-.54 1.224-1.494 2.12-2.684 2.633-.61.27-.083 1.181.525.925 2.132-.925 3.17-2.79 3.599-5.024.152-.768.58-.982 1.148-1.409.401-.299.65-.683.844-1.152.43-1.04.554-2.05 1.509-2.761 1.951-1.466 4.483-.84 6.393.327 2.228 1.366 4.166 3.245 6.297 4.753 4.442 3.145 9.272 5.679 14.185 7.941 2.435 1.125 4.912 2.178 7.389 3.217 2.63 1.096 5.287 2.149 8.082 2.661 5.619 1.053 11.348.256 16.939-.612l2.145-.342c.65-.1 1.564-.384 2.145.043 1.038.783.291 2.377-.512 2.975-.996.725-2.283.981-3.432 1.309-1.37.384-2.74.754-4.11 1.11-10.642 2.718-21.727 3.885-32.66 2.775-5.41-.54-10.78-1.665-15.956-3.43-4.802-1.636-10.71-3.7-13.216-8.624a8.407 8.407 0 0 1-.927-3.757c0-.683-1.052-.683-1.038 0l.014.043Z"/><path d="M73.068 71.318c-3.321 1.552-7.127-.057-9.549-2.547-1.273-1.324-2.283-2.89-3.141-4.511-.789-1.51-1.315-3.487-2.754-4.498-.346-.242-.747.086-.775.456-.318 4.127 1.495 7.998 3.764 11.285 1.163 1.694 2.463 3.302 3.695 4.939.25.327.512.669.72 1.039.262.498.276 1.01.29 1.565.014 1.138.028 2.277.028 3.43 0 .683 1.038.683 1.038 0 0-1.139-.014-2.277-.028-3.43 0-.954-.166-1.75-.706-2.547-1.162-1.68-2.49-3.231-3.68-4.896-2.367-3.316-4.415-7.158-4.083-11.4l-.775.456c.595.413.927 1.081 1.231 1.736.333.712.665 1.438 1.024 2.135a24.267 24.267 0 0 0 2.422 3.828c1.827 2.291 4.304 4.085 7.197 4.511 1.59.243 3.155.043 4.622-.64.608-.284.083-1.21-.526-.925l-.014.014ZM81.069 79.758c3.64 3.216 8.026 5.536 12.704 6.66 1.342.327 2.698.54 4.068.669.664.071.664-1.01 0-1.067-4.58-.442-9.037-2.05-12.911-4.611a30.386 30.386 0 0 1-3.142-2.406c-.498-.44-1.245.3-.733.755h.014ZM77.441 75.716c.318.64.789 1.167 1.356 1.58.139.1.29.199.443.27.125.071.263.1.401.057a.48.48 0 0 0 .305-.242.54.54 0 0 0 .055-.413c-.041-.128-.124-.256-.235-.313a4.156 4.156 0 0 1-.581-.384l.11.085c-.249-.199-.47-.427-.664-.683l.083.114a4.304 4.304 0 0 1-.373-.598.517.517 0 0 0-.305-.242.573.573 0 0 0-.401.057.527.527 0 0 0-.236.313v.143c-.013.1 0 .185.056.27l-.014-.014ZM82.094 73.21a59.638 59.638 0 0 0 5.937-13.035c.207-.655-.789-.94-.997-.285a58.617 58.617 0 0 1-5.826 12.78c-.36.584.54 1.124.9.54h-.014Z"/><path d="M59.37 69.055c-.581 1.11-1.55 2.007-2.394 2.903-.914.968-1.772 2.192-2.81 3.017-.415.328-.774.556-1.162.954-.415.427-.844.825-1.3 1.21-1.025.854-2.132 1.608-3.267 2.291-1.051.64-2.006 1.338-3.086 1.921-.609.313-1.218.612-1.854.854-.29.1-.595.185-.886.27-.318.1-.54.27-.83.385-.415.156-.872.299-1.301.455-.567.2-1.149.313-1.744.399-1.411.213-2.837.526-4.262.555-2.56.042-5.19-.043-7.68-.74-2.492-.698-4.664-2.021-6.878-3.316-.499-.3-.886-.683-1.412-.94-.526-.256-.969-.597-1.44-.925-1.023-.725-2.047-1.451-3.113-2.12-1.924-1.224-3.972-2.32-6.172-2.903a12.96 12.96 0 0 0-3.128-.442c-.968-.014-2.477-.056-3.335.456-.609.356-.692 1.124-.443 1.75.374.911 1.481 1.352 2.312 1.68 2.214.868 4.622 1.152 6.684 2.42 2.062 1.266 3.902 3.116 5.314 5.165 2.643 3.843 5.438 7.642 9.3 10.29 4.054 2.775 8.842 4.568 13.658 5.222 5.605.769 11.237-.128 16.551-2.063 1.287-.47 2.56-.996 3.82-1.566.664-.298 1.315-.612 1.965-.925.65-.313 1.398-.583 1.951-.996 1.066-.797 2.27-1.409 3.335-2.22 1.066-.811 2.062-1.68 3.086-2.533.526-.427-.221-1.181-.733-.755-.955.783-1.896 1.609-2.879 2.363-.456.356-.94.697-1.425.996-.484.299-1.08.513-1.536.84-2.007 1.451-4.415 2.433-6.712 3.33-4.622 1.807-9.507 2.917-14.461 2.718-4.955-.199-9.687-1.636-13.991-4.056s-7.183-5.735-9.936-9.634c-1.301-1.836-2.52-3.644-4.194-5.152-1.674-1.509-3.528-2.633-5.674-3.302-1.093-.341-2.214-.612-3.307-.996-.526-.185-1.066-.37-1.522-.67-.152-.099-.443-.284-.554-.426-.443-.612.139-.64.568-.712 2.31-.412 4.65-.014 6.822.854 2.173.868 4.124 2.15 6.034 3.473.872.612 1.716 1.252 2.63 1.764.497.285.899.67 1.41.94.637.341 1.26.683 1.869 1.067 4.082 2.576 8.65 3.245 13.382 3.117 1.37-.043 2.712-.356 4.082-.541.692-.1 1.384-.2 2.035-.441.401-.142.83-.242 1.218-.384.193-.072.346-.214.525-.314.402-.199.872-.27 1.287-.426a17.475 17.475 0 0 0 1.827-.812c1.19-.612 2.228-1.366 3.363-2.063a31.974 31.974 0 0 0 3.03-2.078c.54-.427 1.052-.882 1.55-1.366.443-.441.914-.755 1.37-1.153 1.01-.91 1.883-2.02 2.81-3.017.927-.996 1.923-1.936 2.56-3.117.318-.597-.581-1.138-.9-.54l-.027-.015ZM73.248 51.494c-2.062 1.039-3.68 2.718-5.106 4.554-1.66 2.134-3.017 4.497-4.428 6.802-.803 1.31-1.633 2.605-2.56 3.829-.18.227-.208.526 0 .754.18.185.567.228.733 0 3.1-4.113 5.175-9.066 8.815-12.737.913-.925 1.924-1.694 3.072-2.277.595-.3.07-1.224-.526-.925Z"/><path d="M73.762 52.646c.858 1.267 2.132.911 3.405 1.153 1.508.285 1.397 2.362 2.837 2.704.775.185 1.508-.342 2.283-.157.858.2 1.508.925 2.048 1.609.747.953 1.605 2.29 2.934 2.376 1.453.1 1.868-1.494 1.162-2.576-.415-.64-.982-1.138-1.342-1.821a6.274 6.274 0 0 1-.72-2.69c-.11-3.359 2.311-6.077 5.12-7.415 1.315-.626 2.935-1.096 4.36-.598 1.702.598 2.242 2.377 2.934 3.9.443.953 1.135 2.334 2.394 1.893 1.259-.441 1.494-2.15 1.536-3.273.111-3.032-1.868-5.821-4.54-6.974-2.988-1.295-6.49-.655-9.243.925-1.62.925-3.031 2.192-4.318 3.544a56.318 56.318 0 0 0-1.896 2.163c-.623.74-1.26 1.665-2.186 2.106-1.827.868-3.958.071-5.854.64-.623.186-1.509.527-1.647 1.267-.125.655.318 1.181.94 1.238.665.057.665-1.01 0-1.067.264.014.845-.37 1.094-.441.346-.1.706-.142 1.066-.157.816-.042 1.633.029 2.45 0 1.494-.057 2.795-.498 3.846-1.622 2.076-2.234 3.806-4.697 6.394-6.362s5.715-2.419 8.566-1.38c2.671.968 4.719 3.885 4.193 6.874-.083.44-.235 1.28-.678 1.494-.553.27-.913-.683-1.093-1.082-.581-1.21-.969-2.533-1.896-3.529-1.868-2.007-4.747-1.508-6.961-.455-2.214 1.053-4.276 3.002-5.176 5.479a7.69 7.69 0 0 0-.318 4.07c.263 1.352.955 2.476 1.827 3.544.235.284.775.953.276 1.224-.332.185-.844-.171-1.107-.385-.498-.412-.885-.967-1.273-1.48-.858-1.138-2.048-2.234-3.542-2.12-.402.028-.9.299-1.287.242-.443-.057-.637-.498-.817-.854-.304-.584-.636-1.11-1.19-1.48-.554-.37-1.121-.427-1.73-.456-.664-.028-1.522.057-1.951-.569-.388-.555-1.287-.028-.9.54v-.042ZM61.916 72.599a39.304 39.304 0 0 1-4.705 4.839c-.47.398-.969.825-1.412 1.167-.221.17-.346.47-.18.725.139.214.485.37.706.186a41.105 41.105 0 0 0 5.065-4.697c.43-.484.858-.968 1.273-1.466.18-.213.222-.555 0-.754-.193-.185-.553-.228-.733 0h-.014ZM66.028 66.48a41.297 41.297 0 0 1-2.104 3.444.61.61 0 0 0-.055.412.489.489 0 0 0 .235.313c.263.143.54.057.706-.185a41.309 41.309 0 0 0 2.103-3.444c.139-.242.07-.597-.18-.726-.249-.128-.567-.07-.705.186ZM71.105 59.577l-1.094 1.395-.304.398s-.083.1-.11.17a.465.465 0 0 0-.042.2c0 .128.055.285.152.384.097.1.235.157.374.157a.494.494 0 0 0 .373-.157l1.094-1.394.304-.399s.083-.1.11-.17a.465.465 0 0 0 .042-.2.585.585 0 0 0-.152-.384.527.527 0 0 0-.374-.157.494.494 0 0 0-.373.157Z"/></g><defs><clipPath id="a"><path fill="#fff" transform="translate(0 39)" d="M0 0h140v62H0z"/></clipPath></defs></svg>