<svg width="140" height="140" fill="none" xmlns="http://www.w3.org/2000/svg"><g clip-path="url(#a)"><path d="M96.695 85.547c1.407-5.071 1.49-10.376 1.265-15.6-.213-4.908-1.064-9.898-3.56-14.212-2.354-4.08-5.902-7.392-9.698-10.166-4.116-3.009-8.682-5.457-13.554-7.054-5.618-1.83-11.698-2.332-17.422-.676-.544.163-.32 1.002.236.839 9.9-2.868 20.379.933 28.587 6.447 3.915 2.624 7.629 5.783 10.254 9.7 2.626 3.918 3.868 8.873 4.2 13.712.39 5.573.354 11.367-1.148 16.777-.154.548.71.782.851.234h-.011ZM51.868 38.678c-4.364.466-8.492 1.959-12.348 3.988-3.855 2.028-7.557 4.418-10.822 7.24-5.96 5.141-10.597 12.067-11.933 19.867-1.337 7.8.59 16.38 5.05 23.248a37.96 37.96 0 0 0 3.725 4.827 33.045 33.045 0 0 0 2.307 2.32c.804.735 1.55 1.539 2.412 2.215 1.952 1.528 4.034 2.927 6.115 4.268.946.606 1.987 1.049 3.028 1.504 1.04.454 2.093 1.014 3.17 1.457 4.187 1.749 8.752 2.985 13.33 3.113 4.576.128 9.508-.933 13.955-2.53a58.103 58.103 0 0 0 3.1-1.213c.52-.221.07-.967-.45-.757-4.258 1.783-8.764 3.171-13.4 3.544-4.637.373-9.084-.443-13.377-1.889-2.117-.711-4.08-1.702-6.127-2.588-2.046-.886-4.01-2.18-5.913-3.498-1.03-.711-2.082-1.411-3.04-2.203-.804-.665-1.514-1.435-2.283-2.122-1.537-1.388-2.921-2.95-4.175-4.594-4.79-6.273-7.475-14.038-6.93-21.92.543-7.88 4.364-14.934 9.899-20.426 2.897-2.88 6.233-5.235 9.734-7.357 3.5-2.122 7.545-4.104 11.732-5.072a28.048 28.048 0 0 1 3.241-.547c.556-.059.568-.933 0-.875Z" fill="#EB5C2E" stroke="#EB5C2E" stroke-linejoin="round"/><path d="M53.04 45.452c.414-.163.372.361.75.641.225.163 1-.035.74.222-.189.198-.697.268-.958.35-1.1.326-2.27.466-3.418.36-.402-.034-.863-.116-1.194-.36-.52-.397-.39-.992-.083-1.481.509-.84 1.325-1.516 1.963-2.274 1.266-1.48 2.224-3.16 1.976-5.165-.142-1.107-.544-2.168-.805-3.253-.284-1.189-.45-2.39-.496-3.602-.048-1.213-.071-2.565.33-3.743.367-1.084 1.42-2.087 2.65-1.667l-.26-.641c-1.36 3.136-1.952 6.587-1.632 9.992.177 1.807.71 3.579.65 5.41-.059 1.83-.847 4.01-.752 5.76.024.559.87-.118.847-.677-.083-1.668.686-3.218.78-4.874.107-1.76-.39-3.486-.603-5.211a19.39 19.39 0 0 1 1.467-9.946c.118-.268.035-.536-.26-.64-1.112-.386-2.319.116-3.052.99-.828 1.003-.993 2.344-1.053 3.591a19.692 19.692 0 0 0 .308 4.489c.272 1.48.91 2.903 1.029 4.395.106 1.341-.461 2.53-1.265 3.591-.805 1.061-1.846 1.877-2.543 2.973-.604.956-.627 2.169.425 2.81 1.053.642 2.543.525 3.69.362a9.835 9.835 0 0 0 2.307-.583c.532-.21.97-.56.958-1.178-.047-1.282-1.668-1.889-2.732-1.457-.52.21-.296 1.06.236.84v-.024Z" fill="#EB5C2E" stroke="#EB5C2E" stroke-linejoin="round"/><path d="M34.387 57.904a.848.848 0 0 0-.627.28c-.094.116-.154.21-.2.35a1.257 1.257 0 0 0-.06.303v.104c0 .07.012.152.035.222.036.117.083.222.142.326.107.175.249.339.379.49.13.152.284.292.461.397a.964.964 0 0 0 .32.128c.141.023.295.035.437 0a.893.893 0 0 0 .355-.198c.106-.094.154-.21.213-.327a1.09 1.09 0 0 0 .035-.583 1.176 1.176 0 0 0-.366-.594c-.178-.164-.343-.257-.533-.373a.443.443 0 0 0-.449 0c-.13.07-.237.233-.225.373.012.186.036.361.048.547l.662-.373a1.154 1.154 0 0 1-.284-.174l.095.07c-.107-.082-.19-.175-.272-.269l.07.094a1.873 1.873 0 0 1-.2-.327l.047.105s-.047-.117-.06-.175a.445.445 0 0 0-.2-.256c-.095-.047-.237-.082-.343-.047a.45.45 0 0 0-.26.198c-.048.094-.083.222-.048.338.083.28.225.525.414.747.095.105.201.198.32.28.094.07.189.128.283.174a.494.494 0 0 0 .225.059.494.494 0 0 0 .225-.059c.13-.07.236-.233.224-.373-.011-.186-.035-.361-.047-.548l-.662.373c.118.07.248.14.355.222l-.095-.07c.083.058.154.128.213.198l-.071-.093s.07.105.095.163l-.048-.105s.036.105.048.152v-.117s0 .117-.012.175v-.117s0 .094-.024.14l.047-.105s-.035.07-.059.094l.071-.094-.07.07.094-.07-.083.047.106-.047s-.07.024-.094.024h.118s-.07-.012-.118-.012h.118s-.094 0-.142-.023l.107.046c-.071-.035-.142-.081-.213-.128l.094.07a2.669 2.669 0 0 1-.437-.455l.07.094a1.397 1.397 0 0 1-.188-.315l.047.105c-.024-.07-.047-.14-.06-.21v.116s0-.093.013-.14v.117s0-.105.023-.163l-.047.105s.047-.082.07-.128l-.07.093s.059-.07.094-.093l-.094.07s.059-.035.094-.047l-.106.047s.06-.024.095-.024h-.119s.024.012.048.012a.46.46 0 0 0 .319-.128.447.447 0 0 0 0-.63.44.44 0 0 0-.32-.128h-.023Z" fill="#EB5C2E"/><path d="M33.56 58.533c.046-.14.106-.233.2-.35a.848.848 0 0 1 .627-.28h.024a.44.44 0 0 1 .45.444.447.447 0 0 1-.131.315.46.46 0 0 1-.32.128c-.023 0-.047-.012-.047-.012h.119c-.036 0-.095.024-.095.024l.106-.047c-.035.012-.094.047-.094.047l.094-.07c-.035.023-.094.093-.094.093l.07-.093c-.023.046-.07.128-.07.128l.047-.105c-.023.058-.023.163-.023.163v-.116c-.012.046-.012.14-.012.14v-.117c.011.07.035.14.059.21l-.047-.105c.047.116.118.221.189.315l-.071-.094c.13.164.272.327.437.455l-.094-.07c.07.047.142.093.213.128l-.107-.046a.422.422 0 0 0 .142.023h-.118c.047 0 .118.012.118.012h-.118c.024 0 .094-.024.094-.024l-.106.047c.024-.012.083-.047.083-.047l-.095.07.071-.07-.07.094a.516.516 0 0 0 .058-.094l-.047.105c.024-.046.024-.14.024-.14v.117c.012-.058.012-.175.012-.175v.117c-.012-.047-.048-.152-.048-.152l.048.105c-.024-.058-.095-.163-.095-.163l.07.093c-.058-.07-.13-.14-.212-.198l.095.07c-.107-.082-.237-.152-.355-.222l.662-.373c.012.187.036.362.047.548.012.14-.094.303-.224.373a.494.494 0 0 1-.225.059.494.494 0 0 1-.225-.059 1.863 1.863 0 0 1-.284-.175 1.823 1.823 0 0 1-.319-.28 2.023 2.023 0 0 1-.414-.746Zm0 0a1.257 1.257 0 0 0-.06.303v.105c0 .07.012.152.035.222.036.117.083.222.142.326.107.175.249.339.379.49.13.152.284.292.461.397a.964.964 0 0 0 .32.128c.141.023.295.035.437 0a.893.893 0 0 0 .355-.198c.106-.094.154-.21.213-.327a1.09 1.09 0 0 0 .035-.583 1.176 1.176 0 0 0-.366-.594c-.178-.164-.343-.257-.533-.373a.443.443 0 0 0-.449 0c-.13.07-.237.233-.225.373.012.186.036.361.048.547l.662-.373a1.154 1.154 0 0 1-.284-.174l.095.07c-.107-.082-.19-.175-.272-.269l.07.094a1.873 1.873 0 0 1-.2-.327l.047.105s-.047-.117-.06-.175a.445.445 0 0 0-.2-.256c-.095-.047-.237-.082-.343-.047a.45.45 0 0 0-.26.198c-.048.094-.083.222-.048.338Z" stroke="#EB5C2E" stroke-linejoin="round"/><path d="M27.905 66.951c.048.117.107.245.166.35.059.105.142.222.225.315.142.175.319.326.508.466.379.269.828.42 1.29.467.26.023.52 0 .768-.059.225-.046.39-.326.308-.536a.722.722 0 0 0-.166-.291 1.459 1.459 0 0 0-.248-.222 1.266 1.266 0 0 0-.45-.187 2.705 2.705 0 0 0-.52-.046c-.166 0-.343 0-.52-.012h.118a.712.712 0 0 1-.272-.058l.106.047s-.095-.047-.13-.07l.095.07s-.071-.059-.095-.094l.071.094s-.06-.082-.083-.129l.047.105s-.035-.105-.047-.163v.117s0-.082.012-.117v.117-.094l-.047.105s.023-.046.047-.07l-.071.094s.035-.035.06-.047l-.096.07s.036-.023.048-.023c.2-.105.284-.409.154-.595a.446.446 0 0 0-.604-.152.743.743 0 0 0-.378.502c-.035.233 0 .443.106.664.213.42.698.56 1.148.572.2 0 .402 0 .603.011h-.118a.79.79 0 0 1 .319.07l-.107-.046c.06.023.119.058.178.105l-.095-.07s.071.058.095.093l-.071-.093s.047.07.07.116l-.047-.105v.024l.308-.537-.177.035h.118c-.177 0-.355 0-.532-.011h.118a1.35 1.35 0 0 1-.556-.14l.107.046a2.128 2.128 0 0 1-.497-.291l.094.07a2.28 2.28 0 0 1-.378-.373l.07.093a1.518 1.518 0 0 1-.248-.42l.048.105s-.012-.035-.024-.046c-.047-.105-.094-.199-.2-.257a.442.442 0 0 0-.344-.047.449.449 0 0 0-.26.199c-.047.093-.083.233-.047.338l.023-.059Z" fill="#EB5C2E"/><path d="M29.088 67.115c.035.023.13.07.13.07l-.106-.047a.712.712 0 0 0 .272.058h-.119c.178.012.355.012.52.012.166 0 .344.012.521.046.154.035.32.094.45.187.094.07.165.128.248.222.083.093.13.175.166.291.082.21-.083.49-.308.536a2.424 2.424 0 0 1-.769.059 2.693 2.693 0 0 1-1.289-.467 2.757 2.757 0 0 1-.508-.466 1.927 1.927 0 0 1-.225-.315 3.197 3.197 0 0 1-.166-.35l-.023.059c-.036-.105 0-.245.047-.338a.449.449 0 0 1 .26-.199.442.442 0 0 1 .343.047c.107.058.154.152.201.257a.166.166 0 0 1 .024.046l-.048-.105c.06.152.142.292.249.42l-.071-.093c.118.14.236.268.378.373l-.094-.07c.154.116.32.221.497.291l-.107-.046c.177.081.367.14.556.14h-.118c.177.011.355.011.532.011h-.118l.177-.035-.308.537v-.024l.048.105c-.024-.046-.071-.116-.071-.116l.07.093c-.023-.035-.094-.093-.094-.093l.095.07a.709.709 0 0 0-.178-.105l.107.046a.79.79 0 0 0-.32-.07h.119c-.201-.011-.402-.011-.603-.011-.45-.012-.935-.152-1.148-.572-.106-.221-.141-.431-.106-.664a.743.743 0 0 1 .378-.502.446.446 0 0 1 .604.152c.13.186.047.49-.154.595-.012 0-.047.023-.047.023l.094-.07c-.024.012-.059.047-.059.047l.071-.094c-.024.024-.047.07-.047.07l.047-.105v.094Zm0 0 .095.07s-.071-.059-.095-.094l.071.094s-.06-.082-.083-.129l.047.105s-.035-.105-.047-.163v.117s0-.082.012-.117v.117Z" stroke="#EB5C2E" stroke-linejoin="round"/><path d="M25.728 79.904c.13-.571-.13-1.189-.65-1.48-.166-.094-.402-.07-.532.07a1.66 1.66 0 0 0-.45 1.236c.024.442.201.897.473 1.27.142.198.296.373.462.548.165.175.319.362.532.467.165.081.343.128.532.081.225-.046.367-.221.438-.42.047-.116.059-.256.07-.373 0-.093.012-.186 0-.28-.023-.326-.165-.64-.473-.792-.248-.128-.532-.128-.804-.163h.118s-.118 0-.165-.024l.106.047s-.07-.035-.106-.058l.095.07s-.072-.059-.095-.094l.07.094s-.047-.059-.058-.094l.047.105s-.024-.058-.024-.081v.116s.012-.046.012-.07v.117-.047l-.047.105s.012-.023.023-.035l-.07.093.035-.035-.095.07s.024-.011.036-.023l-.603-.151c.189.291.366.582.556.874.118.198.402.291.603.151.2-.14.296-.384.154-.594-.19-.292-.367-.583-.556-.874a.446.446 0 0 0-.604-.152.627.627 0 0 0-.33.56c0 .21.106.396.248.56a.88.88 0 0 0 .46.267c.178.035.356.035.533.059h-.118c.07 0 .13 0 .2.035l-.106-.047s.072.035.107.058l-.095-.07.071.07-.07-.093s.047.07.058.105l-.047-.105s.036.117.047.175v-.117c0 .117 0 .234-.023.362v-.117c0 .07 0 .14-.036.21l.048-.105s-.012.023-.024.035l.07-.093s-.023.035-.046.046l.094-.07s-.023.012-.035.024l.106-.047s-.035 0-.059.012h.118s-.035-.012-.059-.023h.118-.082l.106.046s-.095-.046-.13-.081l.095.07c-.13-.106-.237-.222-.355-.339a5.002 5.002 0 0 1-.331-.373l.07.094a2.974 2.974 0 0 1-.342-.56l.047.105a1.906 1.906 0 0 1-.13-.443v.116c0-.14 0-.28.012-.42v.117a.76.76 0 0 1 .07-.315l-.047.105c.036-.081.083-.163.142-.245l-.07.094s.058-.058.082-.093l-.532.07s.083.046.118.081l-.095-.07s.107.093.154.152l-.07-.094c.047.07.094.129.118.21l-.048-.105c.036.082.06.164.071.245v-.116c0 .07 0 .14-.012.221v-.117.082c-.047.222.071.478.308.537.225.046.497-.07.544-.304l.047-.035Z" fill="#EB5C2E" stroke="#EB5C2E" stroke-linejoin="round"/><path d="M27.814 91.68c.355.42.828.723 1.348.91.13.046.26.081.402.105.118.023.237.023.343-.047a.392.392 0 0 0 .177-.21.464.464 0 0 0 .024-.28.445.445 0 0 0-.2-.256c-.45-.233-.888-.49-1.326-.77l-.106.805s.06-.012.083-.023h-.119s.083 0 .13.011h-.118s.095 0 .142.023l-.106-.046s.095.046.142.082l-.095-.07.107.104-.071-.093s.059.082.07.128l-.047-.105s.024.07.036.117v-.117s-.012.036 0 .047l.33-.42s-.082.024-.13.035h.12c-.072 0-.131 0-.202-.011h.118a.558.558 0 0 1-.2-.035l.106.046s-.119-.058-.166-.093l.095.07s-.095-.082-.13-.128l.07.093s-.035-.047-.047-.07a.439.439 0 0 0-.26-.198.5.5 0 0 0-.343.047.434.434 0 0 0-.201.256.432.432 0 0 0 .047.338c.071.105.142.198.237.28.059.047.118.093.19.14.07.046.141.07.212.093.118.047.248.058.367.058.118 0 .248-.011.366-.058a.51.51 0 0 0 .225-.151.436.436 0 0 0 .095-.269.884.884 0 0 0-.13-.454 1.012 1.012 0 0 0-.332-.338c-.035-.024-.082-.047-.118-.07a.977.977 0 0 0-.71-.07.504.504 0 0 0-.2.116l-.072.094s-.047.104-.047.163v.116c0 .035 0 .082.036.105a.44.44 0 0 0 .177.21c.426.28.863.537 1.325.77l.343-.805a3.038 3.038 0 0 1-.532-.151l.106.046a2.8 2.8 0 0 1-.603-.35l.094.07a2.21 2.21 0 0 1-.414-.396.46.46 0 0 0-.638 0 .447.447 0 0 0-.13.315v.116c.035.07.07.14.13.199v-.024Z" fill="#EB5C2E"/><path d="M28.57 91.925c-.047-.011-.13-.011-.13-.011h.119c-.024.011-.083.023-.083.023l.107-.805c.437.28.875.537 1.324.77a.445.445 0 0 1 .201.256.464.464 0 0 1-.024.28.392.392 0 0 1-.177.21c-.106.07-.225.07-.343.047a2.26 2.26 0 0 1-.402-.105 3.136 3.136 0 0 1-1.348-.91v.024a.721.721 0 0 1-.13-.199v-.116c0-.117.047-.233.13-.315a.46.46 0 0 1 .639 0c.118.152.26.28.413.397l-.094-.07c.177.14.39.256.603.35l-.107-.047c.178.07.355.116.533.151l-.343.805a13.47 13.47 0 0 1-1.325-.77.44.44 0 0 1-.177-.21c-.036-.023-.036-.07-.036-.105v-.116c0-.059.047-.163.047-.163l.071-.094a.504.504 0 0 1 .201-.116.977.977 0 0 1 .71.07c.036.023.083.046.118.07.142.093.249.198.332.338.082.14.13.291.13.454a.436.436 0 0 1-.095.269.51.51 0 0 1-.225.151 1.007 1.007 0 0 1-.366.058c-.119 0-.249-.011-.367-.058-.07-.023-.142-.047-.213-.093-.07-.047-.13-.093-.19-.14a1.36 1.36 0 0 1-.236-.28.432.432 0 0 1-.047-.338.434.434 0 0 1 .201-.256.5.5 0 0 1 .343-.047.439.439 0 0 1 .26.198.69.69 0 0 0 .048.07l-.071-.093c.035.046.13.128.13.128l-.095-.07c.047.035.166.093.166.093l-.107-.046c.06.023.13.035.201.035h-.118c.071.011.13.011.201.011h-.118c.047-.011.13-.035.13-.035l-.331.42c-.012-.011 0-.047 0-.047v.117a1.953 1.953 0 0 0-.036-.117m-.023-.023h-.119s.095 0 .142.023m-.023-.023.07.093a98.439 98.439 0 0 1-.106-.105l.095.07c-.047-.035-.142-.081-.142-.081l.106.046m-.023-.023s.059.082.07.128l-.047-.105" stroke="#EB5C2E" stroke-linejoin="round"/><path d="M36.067 84.009c-.32-.059-.638-.024-.922.151a.454.454 0 0 0-.213.315c-.024.14.023.257.118.373.473.548 1.266.595 1.94.513.189-.023.378-.047.556-.081.272-.07.508-.245.591-.513a.672.672 0 0 0-.19-.665 1.035 1.035 0 0 0-.555-.268 1.279 1.279 0 0 0-.367.011 1.558 1.558 0 0 0-.32.14c-.153.094-.295.21-.472.28l.106-.046s-.118.035-.177.046h.118s-.023-.011-.035-.011a.483.483 0 0 0-.32.128.447.447 0 0 0-.13.315c0 .244.19.431.45.443.2 0 .402.011.615.023.236 0 .45-.21.45-.443 0-.245-.19-.431-.45-.443-.201 0-.402-.012-.615-.023v.874a.802.802 0 0 0 .33-.07c.107-.047.214-.093.308-.152.142-.093.272-.186.426-.256l-.106.047.106-.035h-.118s.094 0 .142.011h-.118s.106 0 .153.024l-.106-.047s.083.035.118.07l-.095-.07.071.07-.07-.093a.7.7 0 0 0 .035.058l-.047-.105s.011.047.011.058v-.116s-.011.023-.011.046v-.116.058l.047-.105s-.024.035-.036.058l.071-.093s-.023.035-.047.047l.095-.07s-.048.035-.083.047l.106-.047c-.165.07-.354.081-.52.105h.118a4.049 4.049 0 0 1-.84 0h.119c-.142 0-.272-.035-.402-.082l.106.047a.855.855 0 0 1-.248-.14l.094.07s-.106-.093-.165-.152l-.095.688s.083-.046.118-.058l-.106.046c.07-.023.13-.046.201-.058h-.118c.07 0 .142 0 .213.012h-.119s.024-.012.036 0c.118.023.236.023.343-.047a.434.434 0 0 0 .2-.256c.025-.117.025-.234-.046-.338-.06-.094-.154-.187-.26-.199l.011.024Z" fill="#EB5C2E"/><path d="M36.245 84.254a.12.12 0 0 1 .035.011h-.118c.059-.011.177-.046.177-.046l-.106.046c.177-.07.32-.186.473-.28.094-.058.213-.105.32-.14.117-.023.236-.023.366-.011.201.035.402.116.556.268.177.175.26.431.189.665-.083.268-.32.443-.591.513a7.975 7.975 0 0 1-.556.081c-.674.082-1.467.035-1.94-.513-.094-.116-.142-.233-.118-.373a.454.454 0 0 1 .213-.315c.284-.175.603-.21.922-.151l-.012-.024c.107.012.202.105.26.199.072.105.072.221.048.338a.434.434 0 0 1-.201.256c-.107.07-.225.07-.343.047-.012-.012-.036 0-.036 0h.119c-.071-.012-.142-.012-.213-.012h.118c-.07.012-.13.035-.201.058l.106-.046a1.05 1.05 0 0 0-.118.058l.095-.688c.059.059.165.152.165.152l-.094-.07a.855.855 0 0 0 .248.14l-.106-.047c.13.047.26.082.402.082h-.119c.284.035.568.023.84 0h-.118c.166-.024.355-.035.52-.105l-.106.047c.035-.012.083-.047.083-.047l-.095.07c.024-.012.047-.047.047-.047l-.07.093c.011-.023.035-.058.035-.058l-.047.105v-.058.116c0-.023.011-.046.011-.046v.116c0-.011-.011-.058-.011-.058l.047.105a.7.7 0 0 0-.036-.058l.071.093-.07-.07.094.07c-.035-.035-.118-.07-.118-.07l.106.047c-.047-.024-.154-.024-.154-.024h.119c-.048-.011-.142-.011-.142-.011h.118l-.106.035.106-.047c-.154.07-.284.163-.426.256a2.489 2.489 0 0 1-.307.152.802.802 0 0 1-.331.07v-.874Zm0 0a.483.483 0 0 0-.32.128.447.447 0 0 0-.13.315c0 .244.19.431.45.443.2 0 .402.011.615.023.236 0 .45-.21.45-.443 0-.245-.19-.431-.45-.443-.201 0-.402-.012-.615-.023Z" stroke="#EB5C2E" stroke-linejoin="round"/><path d="m43.529 89.255-.45.385a.437.437 0 0 0-.036.583c.06.07.143.14.226.152.118.023.236.023.343-.047l.142-.07-.107.047c.118-.047.237-.07.355-.082h-.118c.319-.023.65-.012.958-.128.189-.07.366-.163.508-.303.118-.129.213-.292.248-.455.012-.093.024-.175.012-.257 0-.058-.011-.116-.023-.174-.012-.059-.048-.117-.071-.175a.708.708 0 0 0-.343-.35.871.871 0 0 0-.343-.082c-.06 0-.118 0-.178.024-.023 0-.047 0-.059.011-.154.059-.284.14-.39.245-.154.152-.248.35-.426.478l.095-.07s-.071.047-.107.059l.107-.047s-.06.023-.095.023h.118s-.035-.012-.047-.012a.46.46 0 0 0-.32.129.447.447 0 0 0 0 .63.44.44 0 0 0 .32.128c.284 0 .532-.152.71-.362.118-.14.213-.291.355-.396l-.095.07s.06-.047.095-.059l-.107.047s.06-.023.083-.023h-.118s.059 0 .094.011h-.118.083l-.107-.046.071.035-.094-.07s.047.035.059.058l-.071-.093s.035.058.047.093l-.047-.105.035.128v-.116s0 .093-.011.14v-.117s0 .082-.024.128l.047-.105s-.035.059-.047.094l.07-.094s-.07.082-.117.117l.094-.07s-.118.082-.19.105l.107-.047a1.387 1.387 0 0 1-.378.094h.118c-.414.035-.851.023-1.23.245l.532.687.45-.384a.447.447 0 0 0 0-.63.46.46 0 0 0-.32-.128h-.118c-.07.035-.142.07-.2.128l.023.023Z" fill="#EB5C2E"/><path d="M44.735 89.162a.642.642 0 0 0-.047-.093l.07.093c-.011-.023-.058-.058-.058-.058l.094.07-.07-.035.106.046h-.083.118c-.035-.011-.094-.011-.094-.011h.118c-.024 0-.083.023-.083.023l.107-.047a.45.45 0 0 0-.095.059l.095-.07c-.142.105-.237.256-.355.396-.178.21-.426.362-.71.362a.44.44 0 0 1-.45-.443c0-.117.048-.234.13-.315a.46.46 0 0 1 .32-.129c.012 0 .047.012.047.012h-.118c.036 0 .095-.023.095-.023l-.107.047c.036-.012.107-.059.107-.059l-.095.07c.178-.128.272-.326.426-.478.106-.105.236-.186.39-.245.012-.011.036-.011.06-.011.059-.024.118-.024.177-.024.13 0 .224.035.343.082.154.07.284.21.343.35.023.058.059.116.07.175.013.058.024.116.024.174.012.082 0 .164-.011.257-.036.163-.13.326-.249.455-.142.14-.32.233-.508.303-.308.116-.64.105-.958.128h.118a1.298 1.298 0 0 0-.355.082l.107-.047a62.39 62.39 0 0 1-.142.07c-.107.07-.225.07-.343.047-.083-.012-.166-.082-.225-.152a.437.437 0 0 1 .035-.583l.45-.385-.024-.023c.06-.058.13-.093.201-.128h.118a.46.46 0 0 1 .32.128.447.447 0 0 1 0 .63l-.45.384-.532-.688c.379-.221.816-.21 1.23-.244h-.118c.13-.012.26-.047.378-.094l-.106.047c.07-.023.19-.105.19-.105Zm0 0-.047-.105.035.128v-.116s0 .093-.011.14v-.117s0 .082-.024.128l.047-.105s-.035.059-.047.094l.07-.094s-.07.082-.117.117l.094-.07Z" stroke="#EB5C2E" stroke-linejoin="round"/><path d="M40.729 100.401c.07.047.153.082.236.105.13.023.237.023.367 0 .213-.035.378-.175.497-.338.082-.117.07-.268.023-.385a.471.471 0 0 0-.284-.256c-.272-.094-.567-.082-.851-.058-.237.023-.473.058-.71.023h.119a.76.76 0 0 1-.273-.059l.107.047s-.107-.047-.154-.093l.095.07-.107-.105.071.093s-.059-.093-.083-.14l.048.105s-.036-.105-.047-.151v.116s0-.093.011-.128v.117s0-.07.012-.105l-.047.105s.035-.059.047-.082l-.07.093s.011-.023.023-.023l-.532.07c.485.326.97.653 1.443.979.094.058.236.07.343.047a.406.406 0 0 0 .26-.198.426.426 0 0 0-.154-.595c-.485-.326-.97-.653-1.443-.98l-.106-.046s-.119-.023-.178 0a.443.443 0 0 0-.26.117.832.832 0 0 0-.225.71c.036.234.13.444.308.607.343.338.863.373 1.313.327.236-.024.473-.059.71-.024h-.119c.07 0 .142 0 .213.035l-.26-.641s0 .012-.012.023l.07-.093s-.035.035-.058.047l.094-.07s-.047.035-.07.046l.106-.046s-.06.023-.095.023h.118s-.07 0-.106-.012h.118-.083l.107.047-.071-.035c-.083-.058-.237-.07-.343-.047a.407.407 0 0 0-.26.199.426.426 0 0 0-.048.338l.048.105a.38.38 0 0 0 .153.151l-.011-.035Z" fill="#EB5C2E" stroke="#EB5C2E" stroke-linejoin="round"/><path d="M49.444 102.5a1.473 1.473 0 0 0-.591-.152c-.107 0-.201 0-.296.023-.07 0-.142.024-.213.047-.13.047-.236.117-.284.257-.047.14-.047.268.024.384.331.548.946.898 1.585.921.165 0 .331-.011.485-.046.189-.047.378-.14.52-.268a.78.78 0 0 0 .248-.583.716.716 0 0 0-.33-.607 1.164 1.164 0 0 0-.178-.081c-.071-.024-.142-.024-.213-.024a.933.933 0 0 0-.414.14c-.094.07-.177.14-.248.222a1.115 1.115 0 0 1-.166.163l.095-.07s-.06.047-.095.058l.107-.046s-.06.023-.083.023h.118s-.035-.012-.06-.012h.12-.048l.106.047s-.035-.023-.059-.035l.095.07-.047-.047.07.094s-.023-.035-.035-.059l.047.105v-.035.117s.012-.023.012-.035v.117-.035l-.047.105s0-.012.012-.024l-.071.094.023-.024a.448.448 0 0 0 0-.629.46.46 0 0 0-.319-.129h-.118c-.071.035-.142.07-.201.129a.465.465 0 0 0-.166.338.523.523 0 0 0 .071.373c.047.105.142.175.237.245.094.07.212.093.33.105.226.011.427-.105.58-.234.095-.081.178-.186.272-.268l-.094.07s.082-.058.13-.07l-.107.047s.048-.012.071-.023h-.118s.047.011.071.011h-.118.059l-.107-.046s.036.011.048.023l-.095-.07.047.047-.07-.094s.023.035.035.059l-.047-.105s.011.046.023.081v-.116s0 .058-.011.093v-.117.094l.047-.105s-.024.058-.047.081l.07-.093s-.047.058-.082.082l.094-.07s-.094.058-.154.081l.107-.046a1.047 1.047 0 0 1-.272.07h.118c-.118 0-.248 0-.366-.012h.118a.918.918 0 0 1-.39-.093l.106.046c-.118-.046-.225-.116-.331-.186l.094.07a1.762 1.762 0 0 1-.26-.257l.071.094s-.07-.094-.094-.14l-.26.641c.07-.023.141-.047.212-.047H48.7c.083 0 .166 0 .248.012h-.118c.083 0 .166.012.237.047l-.107-.047s.036.023.06.023a.44.44 0 0 0 .342.047.406.406 0 0 0 .26-.198.425.425 0 0 0 .048-.338.446.446 0 0 0-.201-.257l-.024-.023Z" fill="#EB5C2E"/><path d="m50.106 103.223.107.046h-.06.119a.447.447 0 0 1-.07-.011h.117c-.023.011-.07.023-.07.023l.106-.047c-.047.012-.13.07-.13.07l.094-.07c-.094.082-.177.187-.272.268-.153.129-.354.245-.58.234a.656.656 0 0 1-.33-.105c-.095-.07-.19-.14-.237-.245-.07-.117-.095-.245-.07-.373a.465.465 0 0 1 .165-.338c.059-.059.13-.094.2-.129h.119a.46.46 0 0 1 .32.129c.082.081.13.209.13.314a.448.448 0 0 1-.13.315l-.024.024.07-.094c-.011.012-.011.024-.011.024l.047-.105v.035-.117c0 .012-.012.035-.012.035v-.117.035l-.047-.105a.64.64 0 0 0 .036.059l-.072-.094.048.047-.095-.07c.024.012.06.035.06.035l-.107-.047h.047-.118c.024 0 .06.012.06.012h-.12a.374.374 0 0 0 .084-.023l-.107.046a.424.424 0 0 0 .095-.058l-.095.07c.06-.047.118-.105.166-.163.07-.082.154-.152.248-.222a.933.933 0 0 1 .414-.14c.071 0 .142 0 .213.024.06.023.118.046.177.081.213.14.331.362.331.607a.78.78 0 0 1-.248.583 1.237 1.237 0 0 1-.52.268c-.154.035-.32.046-.485.046a1.955 1.955 0 0 1-1.585-.921c-.071-.116-.071-.244-.024-.384.048-.14.154-.21.284-.257.071-.023.142-.047.213-.047.095-.023.19-.023.296-.023.213.012.402.058.591.152l.024.023a.446.446 0 0 1 .2.257.425.425 0 0 1-.047.338.406.406 0 0 1-.26.198.44.44 0 0 1-.343-.047c-.023 0-.059-.023-.059-.023l.107.047a.536.536 0 0 0-.237-.047h.118c-.082-.012-.165-.012-.248-.012h.118c-.07 0-.142.024-.213.047l.26-.641c.024.046.095.14.095.14l-.07-.094c.082.094.165.187.26.257l-.095-.07c.106.07.213.14.331.186l-.106-.046c.118.058.26.093.39.093h-.118c.118.012.248.012.366.012H49.8c.095-.012.19-.035.272-.07l-.106.046a1.29 1.29 0 0 0 .153-.081l-.094.07m.082.14s.036.011.048.023l-.095-.07.047.047Zm0 0-.07-.094s.023.035.035.059l-.047-.105m0 0s.011.046.023.081v-.116s0 .058-.011.093v-.117.094l.047-.105s-.024.058-.047.081l.07-.093s-.047.058-.082.082Z" stroke="#EB5C2E" stroke-linejoin="round"/><path d="m57.888 100.739-.497.082c-.154.023-.272.175-.308.303a.425.425 0 0 0 .119.42c.224.21.461.42.733.559.142.07.284.14.438.164.094.011.189.035.284.035.094 0 .177-.012.272-.024.059 0 .106-.023.165-.046.083-.035.166-.059.237-.105.07-.047.142-.093.2-.163.06-.07.119-.14.166-.222.118-.233.142-.501.012-.734a.812.812 0 0 0-.248-.245.826.826 0 0 0-.343-.094c-.095 0-.19 0-.284.035-.095.035-.178.07-.26.117-.142.093-.26.222-.39.326l.094-.07s-.095.07-.142.094l.106-.047s-.059.023-.094.023h.118s-.035-.011-.059-.011h.118-.083l.107.046s-.047-.023-.071-.046l.095.07-.06-.059.071.094s-.023-.035-.035-.059l.047.105s0-.035-.012-.046v.116s.012-.023.012-.035v.117-.035l-.047.105s0-.023.024-.035l-.071.093.023-.023a.448.448 0 0 0 0-.63.463.463 0 0 0-.319-.128.485.485 0 0 0-.32.128.594.594 0 0 0-.082.735c.106.163.284.315.485.35.13.023.26.023.378-.024.095-.035.178-.07.26-.128a3.22 3.22 0 0 0 .237-.187c.047-.046.095-.093.154-.128l-.095.07s.083-.058.13-.07l-.106.047s.094-.035.142-.035h-.119s.071 0 .095.012h-.118.07l-.106-.047s.036.023.06.035l-.095-.07.035.035-.07-.093s.023.035.035.058l-.047-.105s.011.035.011.058v-.116s-.011.046-.011.081v-.116s0 .07-.012.105l.047-.105s-.035.081-.071.105l.071-.094s-.071.082-.106.105l.094-.07s-.094.07-.154.094l.107-.047c-.071.023-.142.047-.213.058h.118c-.083 0-.177 0-.26-.011h.118a.653.653 0 0 1-.26-.059l.106.047a1.968 1.968 0 0 1-.378-.222l.095.07c-.13-.093-.249-.209-.367-.314l-.201.734.497-.081c.106-.012.213-.117.26-.199a.425.425 0 0 0 .047-.338.44.44 0 0 0-.2-.256l-.107-.047a.414.414 0 0 0-.237 0l-.035-.012Z" fill="#EB5C2E"/><path d="m58.349 101.182-.106-.046h.082-.118c.024 0 .06.011.06.011h-.12c.036 0 .096-.023.096-.023l-.107.047c.047-.024.142-.094.142-.094l-.095.07c.13-.104.249-.233.39-.326.084-.047.166-.082.26-.117.096-.035.19-.035.285-.035.13.012.236.035.343.094.094.058.189.151.248.245.13.233.106.501-.012.734-.047.082-.106.152-.165.222-.06.07-.13.116-.201.163-.071.046-.154.07-.237.105-.06.023-.106.046-.166.046-.094.012-.177.024-.271.024-.095 0-.19-.024-.284-.035a1.55 1.55 0 0 1-.438-.164c-.272-.139-.509-.349-.733-.559-.119-.105-.154-.268-.119-.42.036-.128.154-.28.308-.303l.497-.082.035.012a.414.414 0 0 1 .237 0l.106.047a.44.44 0 0 1 .201.256.425.425 0 0 1-.047.338c-.047.082-.154.187-.26.199l-.497.081.201-.734c.118.105.237.221.367.314l-.095-.07c.118.082.237.164.378.222l-.106-.047a.653.653 0 0 0 .26.059h-.118c.083.011.177.011.26.011h-.118c.07-.011.142-.035.213-.058l-.107.047a.978.978 0 0 0 .154-.094l-.094.07c.035-.023.106-.105.106-.105l-.071.094c.035-.024.071-.105.071-.105l-.047.105a.446.446 0 0 0 .011-.105v.116c0-.035.012-.081.012-.081v.116c0-.023-.011-.058-.011-.058l.047.105m-.627-.292s-.047-.023-.071-.046l.095.07-.06-.059.071.094m-.035-.059a.649.649 0 0 0 .035.059m-.035-.059.047.105s0-.035-.012-.046m0 0v.116s.012-.023.012-.035v.117-.035l-.047.105s0-.023.024-.035l-.071.093.023-.023a.448.448 0 0 0 0-.63.463.463 0 0 0-.319-.128.485.485 0 0 0-.32.128.594.594 0 0 0-.082.735c.106.163.284.315.485.35.13.023.26.023.378-.024.095-.035.178-.07.26-.128a3.22 3.22 0 0 0 .237-.187c.047-.046.095-.093.154-.128l-.095.07s.083-.058.13-.07l-.106.047s.094-.035.142-.035h-.119m0 0s.071 0 .095.012h-.118.07l-.106-.047m.06.035c-.024-.012-.06-.035-.06-.035m.06.035-.095-.07m.035.035-.035-.035m.035.035-.07-.093s.023.035.035.058" stroke="#EB5C2E" stroke-linejoin="round"/><path d="M53.408 28.534c2.933 2.542 7.167 2.344 10.692 1.271 2.2-.676 4.27-1.667 6.422-2.448 2.294-.828 4.6-1.283 7.049-1.131 2.791.175 5.523.851 8.326.84.568 0 .568-.875 0-.875-2.389 0-4.719-.466-7.084-.723-2.224-.245-4.388-.163-6.54.42-4.07 1.096-7.771 3.486-12.053 3.777-2.212.152-4.482-.268-6.185-1.748-.426-.374-1.053.244-.627.617Z" fill="#EB5C2E" stroke="#EB5C2E" stroke-linejoin="round"/><path d="M62.62 29.28c-.354-2.121.675-4.232 2.248-5.642 1.68-1.516 3.962-2.215 6.174-2.53 2.46-.35 5.003-.28 7.451.151 2.448.432 4.577 1.283 6.872 1.947 2.294.665 4.695.991 6.907-.093l-.662-.373c.023 1.982.035 4.15-.887 5.958-1.16 2.285-3.761 2.891-6.056 3.568a63.666 63.666 0 0 1-7.652 1.737c-2.579.42-5.382.71-7.972.035-2.377-.618-4.53-2.099-5.523-4.372-.225-.514-.994-.07-.769.443 2.153 4.943 8.208 5.596 12.95 4.978a60.851 60.851 0 0 0 8.67-1.807c2.354-.665 5.145-1.271 6.66-3.346 1.513-2.076 1.513-4.78 1.478-7.17 0-.35-.367-.525-.663-.374-2.342 1.154-4.98.42-7.333-.338-2.353-.758-4.73-1.527-7.238-1.819-4.412-.513-10.018-.198-13.33 3.125-1.632 1.644-2.53 3.894-2.152 6.191.095.56.946.315.852-.233l-.024-.035ZM51.017 29.526c-2.106-1.201-4.637-1.586-7.002-.968-2.484.653-4.483 2.332-6.706 3.521-4.53 2.425-10.077 2.623-14.82.664-.52-.221-.757.63-.236.84 4.447 1.83 9.591 1.807 14.027-.047 2.306-.967 4.222-2.588 6.493-3.602 2.52-1.131 5.393-1.015 7.794.361.497.28.946-.478.45-.758v-.011Z" fill="#EB5C2E" stroke="#EB5C2E" stroke-linejoin="round"/><path d="M39.64 31.134c-1.184 3.487-3.81 6.798-7.452 7.964-2.165.7-4.388.431-6.54-.164-2.307-.63-4.578-1.422-6.896-2.04a93.668 93.668 0 0 0-8.22-1.772l.107.804c4.565-3.38 9.627-6.26 14.985-8.208 2.637-.956 5.582-1.655 8.362-.92 2.247.606 4.317 2.11 5.026 4.372.166.536 1.017.303.852-.234-1.195-3.835-5.429-5.561-9.225-5.281-2.449.175-4.779.98-7.014 1.912a63.837 63.837 0 0 0-6.434 3.09 63.642 63.642 0 0 0-7.002 4.512c-.272.198-.307.722.107.804 2.625.443 5.227.991 7.806 1.656 2.578.664 5.026 1.55 7.57 2.215 2.187.571 4.458.793 6.646.116 1.821-.56 3.442-1.644 4.766-2.984 1.562-1.586 2.697-3.533 3.407-5.62.177-.536-.675-.77-.852-.233v.011ZM64.395 70.215a974.365 974.365 0 0 0 64.932 30.978c.521.222.97-.524.45-.757a979.704 979.704 0 0 1-50.964-23.808 1048.178 1048.178 0 0 1-13.968-7.17c-.509-.269-.958.49-.45.757Z" fill="#EB5C2E" stroke="#EB5C2E" stroke-linejoin="round"/><path d="M64.312 69.69c-1.16 3.732-2.33 7.52-2.448 11.45-.119 3.93 1.052 7.392 2.365 10.936 2.377 6.413 4.861 13.058 10.018 17.862 2.673 2.483 5.795 4.675 8.989 6.459 3.193 1.784 6.741 2.74 10.42 3.218 3.678.478 7.77.595 11.579-.14 3.808-.734 7.226-2.273 10.561-4.022 6.08-3.195 12.159-7.707 14.169-14.516.166-.536-.697-.769-.851-.233-1.751 5.911-6.777 10.027-11.993 13.012-3.028 1.737-6.233 3.311-9.604 4.302-3.607 1.061-7.38 1.271-11.117 1.002-3.738-.268-7.487-.862-10.87-2.425-3.382-1.562-6.233-3.591-8.965-5.806a27.68 27.68 0 0 1-6.611-7.73c-1.727-2.973-2.91-5.993-4.093-9.094-1.43-3.778-3.027-7.637-3.122-11.717-.095-4.081 1.17-8.325 2.413-12.324.165-.536-.686-.77-.852-.233h.012Z" fill="#EB5C2E" stroke="#EB5C2E" stroke-linejoin="round"/><path d="M67.953 72.011c-1.029 3.276-2.058 6.61-2.212 10.062-.153 3.451.911 6.856 2.141 10.143 2.176 5.853 4.459 11.881 9.225 16.206 2.401 2.181 5.193 4.128 8.043 5.69 2.85 1.562 6.15 2.414 9.485 2.822 3.336.408 7.061.478 10.515-.222 3.264-.664 6.339-2.052 9.273-3.591 5.476-2.88 10.94-6.937 12.761-13.058.166-.536-.697-.77-.851-.233-1.585 5.305-6.103 8.989-10.787 11.67-2.661 1.516-5.464 2.892-8.397 3.79-3.229.991-6.612 1.224-9.97 1.002-3.36-.221-6.837-.734-9.924-2.11-2.91-1.306-5.63-3.206-8.101-5.188-2.472-1.982-4.4-4.209-5.95-6.856-1.549-2.646-2.672-5.433-3.749-8.254-1.289-3.405-2.744-6.89-2.827-10.575-.082-3.684 1.065-7.474 2.189-11.065.165-.536-.686-.77-.852-.233h-.012Z" fill="#EB5C2E" stroke="#EB5C2E" stroke-linejoin="round"/><path d="M93.726 84.183A1165.355 1165.355 0 0 1 69.28 94.21c-.52.21-.295 1.05.237.84a1186.723 1186.723 0 0 0 24.66-10.12c.52-.222.07-.98-.45-.759v.012ZM98.315 86.608c-4.932 8.558-9.852 17.104-14.784 25.662-.284.489.484.932.768.443 4.932-8.558 9.853-17.104 14.785-25.662.283-.49-.485-.933-.77-.443ZM100.941 88.474c2.874 8.58 5.748 17.174 8.622 25.755.178.536 1.041.303.852-.233-2.874-8.582-5.748-17.174-8.622-25.755-.178-.537-1.041-.303-.852.233Z" fill="#EB5C2E" stroke="#EB5C2E" stroke-linejoin="round"/></g><defs><clipPath id="a"><path fill="#fff" transform="translate(9 19)" d="M0 0h122v102H0z"/></clipPath></defs></svg>