<svg width="140" height="140" fill="none" xmlns="http://www.w3.org/2000/svg"><path d="M42.475 96.893a147.803 147.803 0 0 0 19.219 3.381c.528.055.528-.768 0-.823a148.61 148.61 0 0 1-18.999-3.348c-.517-.132-.738.67-.22.79ZM75.994 98.288c9.502-2.055 20.794-3.068 30.504-3.382.528-.013.508-.836-.021-.823-9.786.326-21.155 1.352-30.722 3.42-.515.111-.276.896.24.785Z" fill="#EB5C2E" stroke="#EB5C2E" stroke-linejoin="round"/><path d="M88.105 96.026c1.905-3.228 5.903-4.084 9.394-3.744 4.13.395 7.974 2.152 12.093 2.646l-.11-.812c-3.844 1.097-7.148 3.689-11.146 4.303-3.69.571-7.6-.603-10.386-3.074-.396-.351-.98.23-.583.582a13.738 13.738 0 0 0 8.007 3.404c3.238.263 6.156-.835 9.02-2.207 1.729-.824 3.447-1.69 5.286-2.218.474-.132.331-.758-.11-.812-4.383-.527-8.48-2.493-12.919-2.701-3.535-.176-7.39 1.01-9.284 4.205-.276.46.44.867.715.417l.023.01ZM80.009 95.235c.727-2.733 2.687-4.874 4.703-6.752a48.74 48.74 0 0 1 7.07-5.467 51.566 51.566 0 0 1 4.428-2.514l-.617-.352c-.033 1.724-.727 3.437-1.52 4.952a18.663 18.663 0 0 1-2.51 3.689 19.654 19.654 0 0 1-7.292 5.237 18.776 18.776 0 0 1-4.945 1.295c-.518.066-.529.89 0 .824 6.355-.758 12.192-4.656 15.254-10.266.958-1.745 1.784-3.733 1.828-5.742 0-.33-.352-.494-.617-.351a49.444 49.444 0 0 0-7.874 4.919c-2.467 1.888-4.692 3.754-6.52 6.093-.992 1.262-1.785 2.668-2.192 4.216-.132.516.66.735.793.22h.01Z" fill="#EB5C2E" stroke="#EB5C2E" stroke-linejoin="round"/><path d="M77.993 97.321c1.73-1.701 3.9-2.821 5.926-4.128a26.456 26.456 0 0 0 7.874-7.795c.298-.439-.418-.856-.715-.417a25.75 25.75 0 0 1-4.648 5.303c-1.784 1.548-3.833 2.712-5.826 3.985-1.135.725-2.236 1.504-3.194 2.448-.375.374.209.956.583.582v.022ZM82.287 95.832c6.124 1.867 11.906 4.853 16.917 8.816 1.355 1.065 2.82 2.174 3.624 3.733.242.472.958.055.716-.417-.716-1.394-1.928-2.415-3.128-3.404a54.704 54.704 0 0 0-3.976-2.953 52.51 52.51 0 0 0-8.679-4.688 52.587 52.587 0 0 0-5.254-1.9c-.506-.153-.726.637-.22.791v.022Z" fill="#EB5C2E" stroke="#EB5C2E" stroke-linejoin="round"/><path d="M90.966 99.049c2.4.033 4.868.428 6.982 1.625 2.115 1.197 3.591 2.975 5.067 4.765.958 1.164 1.916 2.338 2.885 3.502l.187-.692c-2.478.901-5.242.681-7.632-.406-2.39-1.087-4.24-2.931-5.551-5.138a16.423 16.423 0 0 1-1.707-4.018c-.143-.505-.936-.297-.793.22.738 2.623 2.06 5.104 3.976 7.059 1.916 1.954 4.493 3.271 7.258 3.601 1.564.186 3.172.022 4.659-.516.308-.11.385-.439.187-.692-1.663-2.02-3.249-4.139-5.077-6.005-1.74-1.768-3.79-3.041-6.212-3.634-1.377-.34-2.798-.472-4.218-.494-.529 0-.529.812 0 .823h-.011ZM77.074 106.827c5.496 1.987 9.714 6.302 12.996 10.99.992 1.416 1.906 2.877 2.798 4.348l.242-.604c-3.029.955-6.41.516-9.108-1.153-1.465-.911-2.621-2.185-3.646-3.557-1.024-1.372-2.037-2.898-2.72-4.523-.76-1.823-1.101-3.799-.54-5.72.144-.505-.65-.725-.793-.22-1.068 3.7.826 7.422 2.963 10.364 1.09 1.493 2.269 2.954 3.8 4.019 1.376.966 2.995 1.613 4.647 1.91 1.873.329 3.811.241 5.629-.33.253-.076.385-.373.242-.603-3.117-5.16-6.74-10.233-11.895-13.548a22.285 22.285 0 0 0-4.383-2.174c-.496-.176-.716.615-.22.79l-.012.011Z" fill="#EB5C2E" stroke="#EB5C2E" stroke-linejoin="round"/><path d="M75.416 107.356c3.172 3.371 6.927 6.291 9.471 10.2.705 1.087 1.31 2.239 1.751 3.458.177.494.98.286.793-.219-1.63-4.535-5.198-7.894-8.58-11.166A86.187 86.187 0 0 1 76 106.774c-.363-.384-.947.198-.583.582ZM51.1 98.694c6.817-.121 10.639-6.752 15.727-10.222 1.487-1.01 3.106-1.767 4.89-2.042.529-.077.298-.878-.22-.79-6.498 1.01-9.945 7.476-15.243 10.638-1.575.933-3.304 1.57-5.154 1.592-.529 0-.529.834 0 .823Z" fill="#EB5C2E" stroke="#EB5C2E" stroke-linejoin="round"/><path d="M61.464 92.578c-.275-1.932.86-3.831 2.39-4.94 1.751-1.263 3.92-1.713 6.025-1.9 1.365-.12 2.73-.153 4.097-.252l-.21-.769a12.158 12.158 0 0 0-2.566 1.779c-.815.736-1.476 1.603-2.114 2.492-1.157 1.625-2.412 3.623-4.483 4.161-.98.253-2.115.121-2.886-.582-.396-.362-.98.22-.583.582 1.597 1.46 3.987 1.054 5.595-.165 1.872-1.416 2.852-3.612 4.438-5.291a11.16 11.16 0 0 1 3.007-2.251c.352-.187.198-.79-.21-.769-2.522.176-5.11.132-7.566.857-2.092.615-4.075 1.833-5.121 3.81-.573 1.075-.804 2.261-.639 3.469.033.22.309.34.507.285.242-.066.32-.285.286-.505l.033-.01ZM75.209 96.311c-1.09-1.295-2.72-1.987-4.384-2.14-1.806-.165-3.601.383-5.176 1.24-1.575.856-3.271 2.086-3.954 3.876-.562 1.471-.606 3.107-.298 4.633.628 3.03 2.809 5.742 5.75 6.796.914.329 1.86.428 2.819.241.958-.187 1.927-.593 2.797-1.043 1.575-.812 2.897-2.053 3.745-3.612 1.928-3.491 1.179-7.927-1.773-10.628-.386-.362-.98.22-.584.582 2.346 2.152 3.227 5.545 2.137 8.542a8.028 8.028 0 0 1-2.743 3.667 9.795 9.795 0 0 1-2.29 1.219c-.804.307-1.707.603-2.622.527-2.852-.253-5.22-2.789-6.123-5.358-.452-1.274-.628-2.679-.397-4.019.143-.812.397-1.624.87-2.305.474-.68 1.2-1.23 1.895-1.713 1.53-1.043 3.315-1.855 5.21-1.877 1.706-.022 3.413.604 4.526 1.932.341.406.925-.176.584-.582l.01.022Z" fill="#EB5C2E" stroke="#EB5C2E" stroke-linejoin="round"/><path d="M67.445 107.367c-.077-.219.088-.428.287-.505 1.769 0 2.269-4.862-1.432-3.294a.415.415 0 0 1-.562-.142c-.121-.176-.044-.461.143-.56a2.66 2.66 0 0 1 1.862-.187c.517.132 1.024.417 1.376.823.386.44.606.978.606 1.56.022 1.119-.705 2.217-1.773 2.591-.22.076-.44-.088-.507-.286Z" stroke="#EB5C2E" stroke-linejoin="round"/><path d="M77.4 100.341c1.596-2.383 5.33-2.943 7.444-.944a4.32 4.32 0 0 1 1.212 1.954c.242.867.088 1.712-.187 2.547-.276.834-.64 1.669-1.278 2.294a3.77 3.77 0 0 1-2.18 1.021c-.992.121-2.005-.131-2.875-.614-.947-.538-1.641-1.384-2.5-2.031-.177-.132-.463-.022-.562.142-.121.209-.033.428.143.56.848.648 1.52 1.482 2.456 2.009.87.494 1.884.802 2.897.78.947-.022 1.916-.308 2.687-.878.837-.615 1.366-1.494 1.751-2.449.386-.955.672-1.965.529-2.997-.121-.911-.518-1.746-1.09-2.448-1.09-1.34-2.809-2.031-4.527-1.944-1.85.1-3.634 1.01-4.67 2.57-.297.439.419.856.716.417l.033.011Z" fill="#EB5C2E" stroke="#EB5C2E" stroke-linejoin="round"/><path d="M81.594 103.459a1.997 1.997 0 0 1 1.321-1.373h.033c.22-.066.43.066.507.286.077.219-.077.439-.287.505-1.575.123-2.172 2.123.342 2.657-.044.219-.297.34-.507.285a1.897 1.897 0 0 1-.925-.549c-.452-.483-.66-1.164-.484-1.811Z" stroke="#EB5C2E" stroke-linejoin="round"/><path d="M29.59 103.48a190.949 190.949 0 0 0-13.404 7.73c-.451.285-.033.999.419.713a180.003 180.003 0 0 1 13.403-7.729c.474-.242.056-.955-.418-.714Z" fill="#EB5C2E" stroke="#EB5C2E" stroke-linejoin="round"/><path d="M40.194 96.399c3.326.505 6.234 2.953 7.258 6.159s-.077 6.851-2.5 9.135c-2.874 2.69-7.445 3.085-10.793 1.054a8.31 8.31 0 0 1-3.459-4.172c-.715-1.922-.594-3.964.078-5.885.671-1.921 1.905-3.843 3.623-5.04 1.828-1.273 4.196-1.712 6.3-.867.495.198.705-.604.22-.79-2.004-.802-4.306-.527-6.19.494-1.773.966-3.139 2.569-4.053 4.337-1.002 1.965-1.553 4.204-1.2 6.411.308 1.965 1.343 3.821 2.808 5.171 3.205 2.932 8.272 3.283 11.906.934 3.106-2.01 4.868-5.852 4.373-9.508-.562-4.117-4.053-7.565-8.162-8.19-.517-.077-.748.713-.22.79l.011-.033Z" fill="#EB5C2E" stroke="#EB5C2E" stroke-linejoin="round"/><path d="M43.455 109.091c-.187.12-.451.044-.562-.143-1.104-2.552-3.395-1.448-4.691.219l-.055.044c-.089.198-.386.253-.562.143-.198-.121-.242-.362-.143-.56a3.427 3.427 0 0 1 1.024-1.251 3.506 3.506 0 0 1 2.775-.67c.97.187 1.85.812 2.357 1.658.121.186.044.439-.143.56Z" stroke="#EB5C2E" stroke-linejoin="round"/><path d="M42.54 96.696a275.666 275.666 0 0 0 32.788-23.11c.408-.341-.176-.912-.584-.583a274.818 274.818 0 0 1-32.622 22.968c-.452.275-.044.988.419.714v.01Z" fill="#EB5C2E" stroke="#EB5C2E" stroke-linejoin="round"/><path d="M85.339 66.338c-1.784-1.086-4.064-.45-5.727.55-1.663.998-3.073 2.59-4.053 4.314-1.069 1.878-1.553 3.964-.672 6.006.815 1.877 2.456 3.348 4.207 4.336 1.751.989 3.635 1.373 5.595 1.076 1.817-.274 3.568-1.142 4.868-2.437 2.687-2.668 3.073-7.07 1.156-10.276-2.158-3.612-7.004-4.952-10.793-3.24-.485.22-.066.934.418.715 2.996-1.362 6.818-.517 8.977 1.965 2.158 2.481 2.39 6.576.462 9.32-1.927 2.746-5.639 3.898-8.756 2.834-1.762-.604-3.458-1.79-4.57-3.283-.529-.703-.936-1.482-1.124-2.339-.209-.966-.055-1.943.276-2.865.694-1.889 2.037-3.69 3.634-4.897 1.509-1.142 3.855-2.547 5.65-1.45.452.275.903-.065.452-.35v.022Z" fill="#EB5C2E" stroke="#EB5C2E" stroke-linejoin="round"/><path d="M87.266 78.965c-.198.131-.43.032-.561-.143-1.834-2.543-3.488-.496-4.086.845-.055.22-.287.33-.507.286-.22-.044-.341-.297-.286-.505.132-.505.396-.967.749-1.34.616-.659 1.52-1.054 2.423-.999a3.252 3.252 0 0 1 2.412 1.296c.143.175.022.45-.144.56Z" stroke="#EB5C2E" stroke-linejoin="round"/><path d="M95.714 49.047c2.511-2.723 5.981-4.205 9.56-4.952 1.872-.384 3.778-.56 5.683-.636 2.159-.088 4.328-.121 6.443-.604.518-.121.297-.911-.22-.79-3.282.746-6.708.438-10.034.889-2.841.384-5.661 1.141-8.183 2.525a15.13 15.13 0 0 0-3.833 2.986c-.363.384.22.977.584.582Z" fill="#EB5C2E" stroke="#EB5C2E" stroke-linejoin="round"/><path d="M102.951 44.469c1.752-2.097 4.274-3.25 6.928-3.678a16.864 16.864 0 0 1 4.141-.132c1.597.143 3.161.55 4.758.714 1.696.175 3.48 0 4.934-.966l-.561-.56c-1.763 2.777-3.657 5.698-6.443 7.575-2.787 1.878-6.168 2.207-9.186.78a9.141 9.141 0 0 1-2.225-1.483c-.704-.647-1.608-1.537-1.531-2.558.045-.527-.781-.527-.826 0-.132 1.757 1.785 3.316 3.117 4.172a10.25 10.25 0 0 0 4.901 1.57c3.701.22 6.884-1.844 9.23-4.534 1.388-1.58 2.544-3.349 3.667-5.116.221-.34-.22-.79-.561-.56-2.853 1.877-6.421.34-9.516.12-2.665-.197-5.441.176-7.864 1.33a10.604 10.604 0 0 0-3.568 2.744c-.342.406.242.988.583.582h.022ZM93.037 53.702c2.203-9.003-4.372-17.314-3.117-26.295.078-.516-.726-.746-.793-.22-.627 4.436.595 8.773 1.774 13.01 1.178 4.239 2.434 8.817 1.332 13.274-.12.516.672.736.793.22l.011.01Z" fill="#EB5C2E" stroke="#EB5C2E" stroke-linejoin="round"/><path d="M92.84 46.412c-1.234-.977-2.49-1.965-3.525-3.162-1.035-1.197-1.751-2.635-2.137-4.172-.76-3.041-.462-6.324-.132-9.398.088-.823.21-1.647.407-2.448.122-.505.518-2.558 1.278-2.141.55.307 1.024.966 1.443 1.427.54.604 1.046 1.23 1.509 1.9 1.75 2.492 2.984 5.401 3.26 8.453.308 3.404-.496 6.873-2.478 9.684-.309.439.407.845.716.417 4.02-5.676 3.139-13.296-.683-18.818-.463-.67-.97-1.317-1.51-1.943-.539-.626-1.067-1.263-1.706-1.724-1.685-1.208-2.346 1.35-2.632 2.536-.43 1.746-.54 3.568-.661 5.358-.121 1.79-.154 3.513.077 5.259.242 1.855.815 3.689 1.894 5.226 1.146 1.647 2.72 2.898 4.284 4.128.408.33 1.003-.253.584-.582h.011Z" fill="#EB5C2E" stroke="#EB5C2E" stroke-linejoin="round"/><path d="M83.201 66.438A73.512 73.512 0 0 0 98.918 41.9a72.697 72.697 0 0 0 2.577-7.993c.132-.516-.661-.736-.793-.22a72.603 72.603 0 0 1-12.644 25.889 71.93 71.93 0 0 1-5.43 6.28c-.374.384.21.966.584.582h-.01Z" fill="#EB5C2E" stroke="#EB5C2E" stroke-linejoin="round"/><path d="M100.129 38.386c-1.96-2.975-1.333-6.818.451-9.716 1.906-3.085 4.879-5.292 7.655-7.543 1.641-1.328 3.249-2.711 4.626-4.325l-.694-.396c-.815 3.821.253 7.686-.21 11.528-.462 3.843-2.918 6.752-6.189 8.531-1.961 1.065-4.13 1.669-6.322 2.02-.529.088-.297.878.22.79 3.822-.614 7.633-2.096 10.265-5.028 1.178-1.317 2.081-2.876 2.533-4.589.518-1.943.474-3.974.363-5.962-.132-2.36-.352-4.753.144-7.081.077-.373-.408-.735-.694-.395-4.692 5.5-13.349 8.959-14.142 17.017-.187 1.944.198 3.92 1.278 5.555.286.44 1.002.033.716-.417v.011Z" fill="#EB5C2E" stroke="#EB5C2E" stroke-linejoin="round"/><path d="M101.306 34.346c1.134-3.184 3.073-6.071 5.562-8.366a19.691 19.691 0 0 1 2.258-1.79c.44-.296.022-1.01-.419-.713a21.884 21.884 0 0 0-7.005 7.894 22.69 22.69 0 0 0-1.2 2.756c-.176.505.617.713.793.22h.011ZM85.195 64.319a49.716 49.716 0 0 1 14.076-1.208c2.445.143 4.868.45 7.269.944 1.872.384 3.92.768 5.517 1.877.959.66 1.653 1.614 1.774 2.789.132 1.306-.331 2.591-.771 3.799-.188.494.616.713.793.22.749-2.043 1.365-4.392-.077-6.292-1.157-1.515-3.073-2.228-4.857-2.69-4.979-1.284-10.232-1.756-15.353-1.46a50.314 50.314 0 0 0-8.591 1.241c-.518.12-.297.911.22.79v-.01Z" fill="#EB5C2E" stroke="#EB5C2E" stroke-linejoin="round"/><path d="M92.77 62.935c3.459-3.03 8.206-4.15 12.721-3.7 4.516.45 10.43 2.68 11.598 7.521.617 2.547-.848 5.555-3.712 5.71-.528.021-.528.855 0 .823 2.39-.121 4.318-2.076 4.637-4.403.385-2.778-1.211-5.369-3.326-7.027-4.075-3.184-9.923-4.172-14.924-3.172-2.797.56-5.43 1.789-7.577 3.666-.397.352.187.934.584.582Z" fill="#EB5C2E" stroke="#EB5C2E" stroke-linejoin="round"/><path d="M114.645 69.588c.055-1.449-1.2-2.525-2.511-2.887-.826-.22-1.696-.22-2.544-.198-.958.022-1.905.066-2.863.088-1.95.066-3.91.132-5.86.187-1.729.055-3.568.23-5.242-.319-1.52-.494-3.161-2.053-2.577-3.798.165-.505-.628-.725-.793-.22-.43 1.296.143 2.635 1.068 3.568 1.145 1.142 2.753 1.537 4.317 1.625 1.85.11 3.734-.055 5.584-.11 1.95-.066 3.91-.131 5.859-.186 1.036-.033 2.126-.11 3.117.241.859.297 1.663 1.043 1.619 2.01-.022.526.804.526.826 0ZM55.198 74.529c-3.128-1.965-7.258-2.7-10.496-.549-1.465.977-2.5 2.426-2.897 4.15-.43 1.877-.198 3.909.342 5.742.507 1.69 1.41 3.173 2.841 4.227 1.3.955 2.908 1.482 4.516 1.548 3.326.143 6.377-1.888 7.974-4.72 1.035-1.834 1.509-4.052 1.068-6.127-.396-1.888-1.64-3.634-3.458-4.403-.485-.208-.903.505-.419.714 3.338 1.416 3.811 5.577 2.5 8.575-1.156 2.656-3.69 4.852-6.663 5.116-2.974.263-5.958-1.285-7.192-4.063-.694-1.58-1.002-3.447-.903-5.17.1-1.636.705-3.163 1.928-4.282 2.94-2.69 7.29-1.999 10.407-.044.452.285.87-.428.419-.714h.033Z" fill="#EB5C2E" stroke="#EB5C2E" stroke-linejoin="round"/><path d="M50.77 80.886c-.165-.154-.143-.417 0-.582 1.405-1.427 3.117-4.282-1.277-4.282-.232-.033-.419-.175-.419-.417 0-.208.199-.439.419-.417.639.077 1.244.23 1.839.483.474.198 1.002.461 1.3.9.319.472.209 1.12.099 1.636a5.637 5.637 0 0 1-1.377 2.68c-.154.175-.43.142-.584 0Z" stroke="#EB5C2E" stroke-linejoin="round"/><path d="M46.978 93.82a34.776 34.776 0 0 0 3.08-3.707c.13-.174.106-.452-.08-.573-.186-.12-.443-.105-.574.079a34.775 34.775 0 0 1-3.08 3.707c-.15.16-.085.466.08.573.207.133.423.08.574-.08ZM62.102 49.958c.76-7.202 3.524-14.13 7.908-19.905.32-.428-.397-.834-.716-.417a40.78 40.78 0 0 0-7.236 15.535 41.295 41.295 0 0 0-.782 4.787c-.055.527.771.527.826 0Z" fill="#EB5C2E" stroke="#EB5C2E" stroke-linejoin="round"/><path d="M56.366 75.275c2.291-6.74 2.225-14.009 4.439-20.76 2.214-6.753 5.87-12.275 8.734-18.446 1.608-3.48 3.05-7.19 2.82-11.088-.023-.319-.331-.505-.618-.352-3.337 1.713-6.674 3.821-8.513 7.214-.947 1.745-1.487 3.678-1.939 5.61-.484 2.086-.936 4.205-1.057 6.346a17.098 17.098 0 0 0 1.135 7.081c.187.494.99.275.793-.22-1.917-4.973-.98-10.33.528-15.304.705-2.328 1.817-4.425 3.59-6.126 1.774-1.702 3.778-2.822 5.87-3.887l-.616-.351c.22 3.634-1.068 7.092-2.555 10.342-1.41 3.085-3.04 6.06-4.593 9.069-1.553 3.008-2.951 5.884-4.053 8.98-1.156 3.25-1.784 6.632-2.313 10.035-.616 3.93-1.156 7.883-2.445 11.66-.165.505.628.713.793.22v-.023Z" fill="#EB5C2E" stroke="#EB5C2E" stroke-linejoin="round"/><path d="M60.185 56.578a20.705 20.705 0 0 0-.837-6.72c-.65-2.173-1.828-4.259-3.006-6.301-1.179-2.042-2.005-4.26-2.38-6.642-.374-2.383-.396-4.798-.418-7.203l-.705.297c3.767 4.501 5.408 10.606 4.384 16.38-.088.517.705.736.793.22 1.068-6.082-.628-12.439-4.604-17.182-.231-.285-.705-.044-.705.297.044 4.6.198 9.255 2.434 13.394 1.145 2.119 2.467 4.095 3.227 6.39.76 2.294 1.08 4.666.98 7.07-.022.527.804.527.826 0h.011ZM57.324 72.103c5.187-9.53 14.758-15.327 22.148-22.946 2.06-2.13 3.965-4.414 5.562-6.906.287-.45-.43-.867-.716-.417-5.826 9.145-15.485 14.755-22.61 22.737-1.95 2.185-3.701 4.545-5.1 7.114-.253.462.463.879.716.418Z" fill="#EB5C2E" stroke="#EB5C2E" stroke-linejoin="round"/><path d="M84.097 42.02c-1.465 1.373-3.459 1.823-5.364 2.218-1.905.395-3.8.801-5.485 1.8-1.685 1-3.205 2.526-4.284 4.227-1.145 1.79-1.861 3.81-2.544 5.808-.793 2.317-1.553 4.666-2.908 6.73-.297.44.419.857.716.418 2.368-3.601 2.908-8.004 4.978-11.737 1.014-1.823 2.423-3.436 4.185-4.556 1.763-1.12 3.624-1.471 5.562-1.889 2.06-.439 4.153-.966 5.727-2.437.386-.362-.198-.944-.583-.582Z" fill="#EB5C2E" stroke="#EB5C2E" stroke-linejoin="round"/><path d="M84.177 42.119c-2.28 3.392-2.49 7.586-4.01 11.286-.77 1.867-1.96 3.503-3.59 4.71-1.63 1.208-3.48 1.977-5.385 2.602-2.478.813-5.022 1.406-7.533 2.053-.518.132-.298.933.22.79 2.313-.603 4.637-1.152 6.916-1.855 1.96-.603 3.91-1.35 5.628-2.48 1.718-1.132 3.062-2.57 3.987-4.37.925-1.801 1.443-3.821 1.96-5.797.595-2.273 1.212-4.557 2.534-6.533.297-.439-.419-.856-.716-.417l-.011.01ZM55.22 74.53a89.075 89.075 0 0 0-7.544-25.505 87.716 87.716 0 0 0-3.535-6.763c-.265-.461-.98-.044-.716.417a88.263 88.263 0 0 1 9.659 24.692 87.94 87.94 0 0 1 1.332 7.389c.078.527.87.296.793-.22l.011-.01Z" fill="#EB5C2E" stroke="#EB5C2E" stroke-linejoin="round"/><path d="M43.193 42.185c.749 2.064.033 4.435.033 6.576 0 1.933.231 3.876.66 5.764a27.486 27.486 0 0 0 4.902 10.53 26.172 26.172 0 0 0 4.648 4.71c.418.318 1.002-.253.583-.583-6.156-4.808-9.879-12.417-9.956-20.201-.011-1.098.066-2.185.176-3.272.121-1.262.198-2.525-.242-3.733-.176-.494-.98-.285-.793.22l-.011-.011Z" fill="#EB5C2E" stroke="#EB5C2E" stroke-linejoin="round"/><path d="m44.217 42.855-.11-.846-.705.297c1.96 1.888 3.932 3.777 5.892 5.665 1.74 1.669 3.679 3.338 4.56 5.643.88 2.306.727 4.83.506 7.235-.253 2.734-.561 5.457-.837 8.19-.055.528.771.528.826 0l.694-6.708c.21-1.987.44-3.996.254-5.994-.177-1.9-.75-3.69-1.884-5.226-1.134-1.537-2.61-2.844-3.998-4.183l-5.418-5.204c-.232-.22-.75-.088-.705.296l.11.846c.066.516.892.527.826 0l-.011-.011Z" fill="#EB5C2E" stroke="#EB5C2E" stroke-linejoin="round"/></svg>