<svg width="140" height="140" fill="none" xmlns="http://www.w3.org/2000/svg"><g clip-path="url(#a)"><path d="M72.738 92.38c3.916 1.136 8.274 2.201 12.262.785 3.197-1.137 5.532-3.774 7.136-6.714 1.15-2.105 1.988-4.355 2.79-6.617.192-.557-.67-.787-.862-.242-1.221 3.411-2.538 6.992-5.005 9.714-1.078 1.186-2.371 2.19-3.856 2.807-1.76.726-3.7.895-5.58.762-2.263-.157-4.478-.75-6.657-1.379-.551-.157-.79.714-.24.871l.012.012ZM77.014 41.858c.574.193.323 1.052.036 1.391-.527.605-1.425.363-2.048.085-1.389-.605-2.658-1.621-3.94-2.42-2.741-1.718-5.699-3.012-8.98-2.468-5.46.908-8.897 6.376-10.297 11.36-1.174 4.174-1.318 8.602-1.006 12.909.036.58.946.58.898 0-.491-6.836.084-14.82 4.933-20.107 1.976-2.153 4.61-3.52 7.556-3.387 3.592.157 6.49 2.589 9.423 4.379 1.174.714 2.97 1.524 4.095.29.803-.87.826-2.48-.43-2.915-.552-.182-.791.69-.24.87v.013Z" fill="#3F3226" stroke="#3F3226" stroke-linejoin="round"/><path d="M74.021 42.693c-.922-2.759-1.856-5.505-3.065-8.154-.599-1.307-1.257-2.59-2.024-3.811-.826-1.32-1.772-2.553-2.682-3.8l-.263.666c1.041-.375 1.796.68 2.514 1.406.718.726 1.21 1.556 1.629 2.5.467 1.053 1.269 1.962 1.616 3.05.443 1.404.886 2.795 1.33 4.199.514 1.609 1.017 3.206 1.532 4.815.18.556 1.042.314.862-.242-.97-3.05-1.94-6.11-2.91-9.159-.694-2.19-1.4-4.621-3.113-6.242-.934-.883-2.407-1.682-3.7-1.21-.24.085-.455.411-.263.665.886 1.21 1.808 2.408 2.61 3.678a31.538 31.538 0 0 1 2.036 3.799c1.197 2.613 2.12 5.347 3.03 8.07.179.544 1.053.314.861-.243v.013Z" fill="#3F3226" stroke="#3F3226" stroke-linejoin="round"/><path d="m71.505 40.999.718-.726.204-.206s.072-.084.096-.145a.39.39 0 0 0 .036-.17c0-.06 0-.12-.036-.169a.308.308 0 0 0-.096-.145.46.46 0 0 0-.323-.133h-.12c-.072.037-.144.073-.204.133l-.718.726-.204.206s-.072.085-.096.145a.389.389 0 0 0-.035.17c0 .06 0 .12.035.169.024.06.048.109.096.145a.46.46 0 0 0 .324.133h.12a.74.74 0 0 0 .203-.133ZM74.14 38.93c1.988-2.492 5.16-3.46 8.226-3.654 3.065-.193 6.059.255 8.933 1.198 5.819 1.912 10.98 5.88 14.476 10.949 3.832 5.553 5.7 12.304 5.891 19.018a41.63 41.63 0 0 1-.922 9.98c-.742 3.473-2.023 6.86-4.49 9.474-2.467 2.613-5.676 4.294-8.98 5.48-2.695.968-6.957 2.468-9.16-.23-.372-.447-.994.194-.635.641 1.904 2.347 5.34 1.912 7.915 1.162 3.185-.944 6.346-2.275 9.04-4.259 2.826-2.093 4.861-4.851 6.083-8.178 1.221-3.327 1.82-7.15 1.999-10.78.36-7.113-1.065-14.42-4.622-20.614-3.256-5.674-8.333-10.247-14.344-12.764-3.317-1.391-6.921-2.13-10.525-2.02-3.605.109-7.257 1.089-9.532 3.944-.359.447.276 1.1.635.641l.012.012ZM70.954 31.43c1.808 1.294 4.25.762 5.903-.533 2-1.56 2.874-4.089 3.94-6.303 1.185-2.48 2.754-4.573 5.603-5.069 3.066-.52 6.19.315 9.256.387 2.658.06 5.413-.472 7.436-2.31.431-.388-.203-1.029-.635-.642-4.214 3.835-10.429 1.113-15.398 1.585-2.37.23-4.275 1.246-5.676 3.206-1.4 1.96-2.071 4.307-3.316 6.351-1.318 2.166-4.18 4.332-6.67 2.553-.467-.339-.922.448-.455.787l.012-.013Z" fill="#3F3226" stroke="#3F3226" stroke-linejoin="round"/><path d="M78.797 26.82c-1.593-1.887-1.03-4.803.479-6.557 1.652-1.9 4.143-2.783 6.514-3.34 5.352-1.245 10.908-.689 16.32-1.415 1.485-.206 2.958-.496 4.382-.943.994-.315 2.06-.763 2.144-1.948.048-.581-.85-.581-.898 0-.048.726-1.066.943-1.605 1.113-.682.205-1.377.387-2.083.532-1.413.29-2.838.472-4.263.58-2.838.23-5.676.218-8.513.424-2.838.206-5.46.533-8.023 1.452-2.107.75-4.227 1.984-5.388 3.992-1.162 2.008-1.281 4.864.311 6.751.371.448 1.006-.194.635-.641h-.012Z" fill="#3F3226" stroke="#3F3226" stroke-linejoin="round"/><path d="M78.93 27.97c4.537 2.346 9.818 1.766 14.368-.23 4.55-1.997 8.573-4.912 11.687-8.542 1.688-1.96 3.029-4.186 3.843-6.654.18-.556-.682-.798-.862-.242-1.401 4.247-4.478 7.634-7.939 10.308-3.688 2.843-8.022 5.347-12.704 5.892-2.706.314-5.496-.06-7.927-1.32-.515-.265-.97.521-.455.787h-.012ZM89.67 52.165c4.441 5.71 6.669 13.09 5.543 20.325-.084.569.778.823.862.242.898-5.807-.203-11.735-2.957-16.9a30.155 30.155 0 0 0-2.814-4.308c-.36-.46-.994.182-.635.641ZM88.471 97.726c1.006 1.851 2.814 2.928 4.742 3.593 2.24.787 4.802 1.355 7.172 1.283 2.108-.061 4.287-.847 5.556-2.626 1.27-1.778.647-4.863 2.79-6.097 1.222-.702 2.79-.871 4.143-1.173 1.653-.363 3.293-.726 4.946-1.09l-.503-.205c1.784 2.698 2.742 5.795 3.245 8.977.502 3.182.85 6.932.203 10.259-1.197 6.146-6.669 10.441-12.118 12.727-5.448 2.287-11.662 2.831-17.41 1.403-1.496-.375-3.053-.834-4.406-1.584-1.437-.787-2.347-1.997-2.946-3.521-1.257-3.194-2-6.69-2.502-10.078-.42-2.855-.515-6.037.634-8.734.563-1.307 1.485-2.54 2.719-3.255 1.233-.714 3.125-.956 4.047.327.335.472 1.113.012.778-.46-1.676-2.298-4.91-1.294-6.622.4-1.927 1.923-2.61 4.73-2.718 7.379-.143 3.424.587 6.908 1.437 10.211.85 3.303 1.629 6.823 4.718 8.517 2.814 1.549 6.262 2.202 9.435 2.432 3.173.23 6.526-.109 9.651-.968 5.975-1.646 12.405-5.456 15.123-11.324 1.737-3.738 1.557-8.045 1.102-12.05-.455-4.004-1.413-7.803-3.604-11.106a.448.448 0 0 0-.503-.205c-2.574.568-5.221 1.016-7.759 1.742-.898.254-1.82.641-2.479 1.355-.658.714-.946 1.645-1.137 2.577-.228 1.1-.371 2.226-1.078 3.145-.706.92-1.64 1.476-2.67 1.803-2.383.762-5.065.169-7.424-.436s-4.61-1.5-5.783-3.653c-.276-.508-1.054-.049-.779.46v-.025Z" fill="#3F3226" stroke="#3F3226" stroke-linejoin="round"/><path d="M85.634 96.263c-2.467-.037-4.945 1.076-6.801 2.685-2.12 1.839-3.221 4.646-3.892 7.32-.718 2.915-1.197 6.085-.538 9.049.598 2.746 2.286 5.093 4.31 6.956 8.226 7.525 21.074 8.784 30.725 3.46 5.161-2.843 9.364-7.379 11.615-12.884.216-.544-.647-.774-.862-.242-3.856 9.412-13.579 15.522-23.565 15.51a26.547 26.547 0 0 1-14.848-4.561c-2.13-1.452-4.107-3.267-5.388-5.541-1.473-2.613-1.592-5.602-1.173-8.517.419-2.916 1.245-6.352 3.185-8.808 1.664-2.105 4.538-3.556 7.22-3.508.575 0 .575-.895 0-.907l.012-.012Z" fill="#3F3226" stroke="#3F3226" stroke-linejoin="round"/><path d="M88.819 98.706c-.335 1.924-.755 3.859-1.006 5.795-.12.907.287 2.492 1.52 1.972.611-.254 1.03-.992 1.378-1.512.407-.605.79-1.27 1.377-1.706.311-.23.766-.496 1.017-.073.18.291.168.714.192 1.041.072 1.016.12 2.032.192 3.061.024.411.634.665.838.229.563-1.246 1.544-2.238 2.814-2.746l-.563-.435c.24 1.972.587 3.932 1.042 5.867.084.375.634.448.826.109a54.269 54.269 0 0 1 1.712-2.915c.252-.4 1.329-2.481 1.928-2.118.383.242.192 1.319.215 1.706.036.581.192 1.198.707 1.537.575.387 1.317.242 1.832-.158.659-.508.838-1.33.862-2.129.024-.798-.215-2.141.611-2.637.574-.351 1.52-.133 1.796.52.203.472.826.399.886-.121a7.209 7.209 0 0 0-.599-3.823l-.383.677c1.197.134 5.376 0 4.658-2.19-.287-.87-1.353-1.354-1.964-1.96a8.24 8.24 0 0 1-1.868-2.939c-.203-.544-1.065-.302-.862.242.587 1.597 1.557 3 2.886 4.04.287.23.658.436.862.75.335.521-.323.75-.718.872-.97.314-1.988.387-2.994.278-.371-.036-.503.411-.383.678.467 1.076.611 2.201.479 3.363l.886-.121c-.455-1.089-1.712-1.621-2.826-1.198-1.545.605-1.245 2.408-1.353 3.751-.036.423-.12.919-.467 1.197-.275.23-.706.327-.946 0-.323-.423-.168-1.21-.192-1.706-.023-.496-.095-.979-.467-1.306-.455-.399-1.113-.339-1.58 0-.754.532-1.257 1.548-1.748 2.311a47.252 47.252 0 0 0-1.712 2.915l.826.109a52.706 52.706 0 0 1-1.006-5.625c-.036-.255-.264-.557-.563-.436-1.485.593-2.682 1.682-3.353 3.158l.838.229-.18-2.818c-.035-.617-.047-1.307-.394-1.851-.85-1.295-2.395-.109-3.054.725-.43.545-.778 1.15-1.197 1.706-.168.23-.527.787-.778.484-.156-.181-.12-.617-.096-.835.096-.931.323-1.863.479-2.782l.515-2.952c.096-.569-.767-.81-.862-.242l-.06.012ZM36.302 81.672c.635-1.1 1.796-2.83 3.269-2.25.287.121.55-.17.563-.435.036-.617.802-.86 1.257-.533.252.182.563-.024.659-.266.838-2.274 3.556-2.782 5.64-2.274 2.19.532 4.31 1.814 6.07 3.23 1.617 1.294 3.03 2.88 4.012 4.718 1.149 2.142 1.52 4.513 1.352 6.932-.095 1.392-.335 2.77-.598 4.126-.204 1.028-.383 2.08-.767 3.06-.383.98-1.041 1.864-2.107 2.118-1.197.278-2.479-.049-3.688.012-1.305.072-2.598.375-3.915.399a8.777 8.777 0 0 1-3.006-.472c-1.976-.665-3.7-1.972-5.04-3.556-3.545-4.198-3.904-10.09-3.461-15.353.047-.58-.85-.58-.898 0-.444 5.226-.072 10.973 3.173 15.304 1.353 1.803 3.137 3.315 5.208 4.186 1.006.423 2.072.69 3.15.774 1.4.109 2.79-.193 4.178-.326 1.39-.133 2.742.169 4.096-.025 1.113-.157 2-.75 2.61-1.693.61-.944.862-2.009 1.09-3.061.287-1.38.562-2.77.73-4.174.335-2.686.18-5.371-.922-7.876-.958-2.141-2.49-4.004-4.275-5.504-2.06-1.73-4.646-3.364-7.316-3.823-2.467-.424-5.257.472-6.19 3.024l.658-.266c-1.042-.762-2.526.073-2.598 1.319l.563-.436c-1.892-.75-3.449 1.21-4.287 2.662-.288.508.49.968.778.46h.012Z" fill="#3F3226" stroke="#3F3226" stroke-linejoin="round"/><path d="M39.08 87.104a11.316 11.316 0 0 0 5.244 5.82c.67.35 1.377.628 2.108.834.563.157.79-.726.24-.87a10.299 10.299 0 0 1-5.76-4.211 10.895 10.895 0 0 1-.958-1.803c-.096-.23-.3-.387-.55-.314-.217.06-.408.326-.312.556l-.012-.012ZM43.342 86.258c1.09 2.19 2.802 4.053 4.85 5.359.562.363 1.16.677 1.783.944.228.096.48.072.611-.158.108-.193.06-.52-.156-.617-2.119-.919-3.975-2.407-5.292-4.282-.383-.533-.719-1.101-1.018-1.694-.108-.218-.419-.278-.61-.157a.455.455 0 0 0-.156.617l-.012-.012ZM46.278 83.862a10.072 10.072 0 0 1 4.526 5.31c.24.654.407 1.332.514 2.01.037.241.336.374.551.314.252-.073.348-.315.312-.557-.383-2.54-1.725-4.924-3.652-6.593a11.08 11.08 0 0 0-1.809-1.27c-.502-.279-.957.496-.454.786h.012ZM48.446 79.458c2.646.944 4.814 3.049 5.963 5.626.324.726.551 1.5.707 2.286.048.242.335.375.55.315.252-.073.36-.315.312-.557-.563-3.024-2.443-5.734-4.981-7.404a10.277 10.277 0 0 0-2.311-1.137c-.228-.085-.491.097-.551.315-.072.254.084.472.311.556Z" fill="#3F3226" stroke="#3F3226" stroke-linejoin="round"/><path d="M56.238 88.677c-.024-.073.024.06.024.072.012.037.035.085.047.122.036.096.06.193.096.29.06.193.096.4.132.593v.193c0 .097.012.206.024.303v.593c0 .096-.012.193-.024.278v.06c0-.06 0 .073 0 0 0 .049-.012.097-.024.145-.036.206-.084.4-.132.593a4.34 4.34 0 0 1-.191.557c0 .024-.012.036-.024.06-.024.049-.036.097-.06.133-.048.097-.084.182-.132.266a5.37 5.37 0 0 1-.347.557c0 .012-.108.133-.06.085a1.283 1.283 0 0 1-.108.133c-.072.084-.155.17-.227.254-.168.181-.18.472 0 .641.18.17.467.181.634 0 1.258-1.319 1.809-3.194 1.557-4.984a6.084 6.084 0 0 0-.407-1.452c-.096-.23-.42-.278-.61-.157-.228.133-.252.399-.156.617l-.012.048Z" fill="#3F3226"/><path d="M56.537 91.181v-.06c.012-.085.024-.182.024-.278v-.593a2.59 2.59 0 0 1-.024-.303v-.193c-.036-.194-.072-.4-.132-.593-.036-.097-.06-.194-.096-.29-.011-.037-.035-.085-.047-.121 0-.013-.048-.146-.024-.073l.012-.049c-.096-.217-.072-.483.155-.617.192-.12.515-.072.61.158.193.472.336.944.408 1.452.252 1.79-.3 3.665-1.557 4.984-.167.181-.455.17-.634 0-.18-.17-.168-.46 0-.641.072-.085.156-.17.227-.254.036-.037.072-.085.108-.133-.048.048.06-.073.06-.085a5.37 5.37 0 0 0 .347-.557c.048-.084.084-.169.132-.266.024-.036.036-.084.06-.133.012-.024.024-.036.024-.06a4.34 4.34 0 0 0 .191-.557c.048-.193.096-.387.132-.593.012-.048.024-.096.024-.145Zm0 0c0-.06 0 .073 0 0Z" stroke="#3F3226" stroke-linejoin="round"/><path d="M43.596 96.36a11.331 11.331 0 0 0 4.13 2.213c.42.121.839.218 1.27.278.227.037.49-.06.55-.314.049-.218-.06-.52-.31-.557a10.881 10.881 0 0 1-2.132-.568c-.084-.037-.168-.06-.251-.097-.012 0-.12-.049-.06-.024-.048-.025-.096-.037-.144-.06a4.093 4.093 0 0 1-.515-.255c-.323-.17-.647-.35-.958-.556-.167-.11-.347-.23-.515-.351-.036-.037-.084-.06-.12-.097-.011-.012-.035-.024-.047-.036-.06-.049.048.036-.012 0-.084-.073-.168-.133-.264-.206-.18-.157-.455-.194-.634 0-.156.17-.192.484 0 .641l.012-.012ZM50.455 96.516l2.035.593a.438.438 0 0 0 .347-.048.45.45 0 0 0 .204-.266.459.459 0 0 0-.311-.557l-2.036-.593a.439.439 0 0 0-.347.049.449.449 0 0 0-.204.266.458.458 0 0 0 .312.556ZM52.587 95.198l.324.4-.072-.097c.527.701.97 1.463 1.317 2.274l-.048-.109c.036.085.072.17.108.266.048.11.096.206.203.266.096.06.24.085.348.049a.456.456 0 0 0 .263-.206c.048-.097.084-.242.048-.35a10.565 10.565 0 0 0-1.33-2.457 14.6 14.6 0 0 0-.526-.677c-.156-.182-.48-.17-.635 0-.18.194-.167.447 0 .641Z" fill="#3F3226" stroke="#3F3226" stroke-linejoin="round"/><path d="M27.274 80.1c1.785.931 3.916.617 5.52-.557 1.892-1.38 2.42-3.375 2.012-5.626-.263-1.488-.599-2.879-.012-4.343.503-1.246 1.437-2.286 2.49-3.097 2.228-1.73 5.09-2.637 7.856-2.94 5.747-.617 11.375 1.404 15.913 4.9 4.538 3.496 8.442 8.323 9.998 13.768 1.557 5.444.204 11.977-2.706 16.997-2.466 4.259-6.094 7.804-10.333 10.223-4.24 2.42-9.268 3.738-14.213 3.4-4.946-.339-9.651-2.19-13.615-5.094-3.963-2.903-7.316-7.077-9.04-11.831-1.856-5.118-2.012-12.171 3.472-15.075 1.15-.604 2.395-.87 3.688-.75.575.049.575-.859 0-.907-2.514-.218-4.933.968-6.61 2.831-1.915 2.105-2.717 4.9-2.694 7.706.048 5.457 2.719 10.804 6.275 14.796 6.909 7.779 17.913 11.239 27.863 8.045 9.95-3.193 18.081-12.255 19.338-22.901.371-3.182.036-6.412-1.15-9.4-1.1-2.783-2.765-5.3-4.657-7.586-3.676-4.44-8.573-8.081-14.19-9.497-5.615-1.415-11.89-.762-16.224 2.989-.97.834-1.796 1.863-2.275 3.06-.527 1.307-.479 2.626-.216 3.993.264 1.367.587 2.806-.143 4.113-.563 1.004-1.521 1.766-2.587 2.154-1.065.387-2.25.374-3.28-.158-.515-.266-.97.508-.456.787h-.023Z" fill="#3F3226" stroke="#3F3226" stroke-linejoin="round"/><path d="M19.912 95.27c1.676 5.602 4.239 10.961 8.142 15.329 4.12 4.621 9.687 8.13 15.842 8.989 6.154.859 11.614-1.271 16.596-4.368 4.55-2.831 8.43-6.823 10.525-11.844 2.921-7.017 2.766-15.4.575-22.587-.168-.556-1.042-.314-.863.242 1.952 6.4 2.156 13.441.228 19.889-1.533 5.13-4.981 9.388-9.292 12.449-4.31 3.061-9.926 5.674-15.446 5.517-6.107-.17-11.83-3.218-16.141-7.465-4.55-4.488-7.46-10.295-9.292-16.393-.168-.556-1.03-.314-.862.242h-.012ZM31.18 77.91a16.958 16.958 0 0 1-3.7-2.77 17.74 17.74 0 0 1-1.545-1.743 16.377 16.377 0 0 1-.659-.931c-.203-.315-.455-.642-.563-1.004a.832.832 0 0 1-.036-.23v-.097c.024-.145.036-.17.132-.29-.024.036.06-.061.084-.085.048-.037.024-.024.096-.073.131-.084.203-.12.323-.157.24-.073.491-.097.694-.048.276.06.48.169.707.362.539.472.862 1.126 1.185 1.755.372.738.779 1.464 1.21 2.165a27.993 27.993 0 0 0 3.496 4.561c.395.424 1.03-.218.635-.641a26.837 26.837 0 0 1-3.317-4.307c-.479-.762-.898-1.56-1.305-2.359-.36-.69-.755-1.403-1.365-1.9-.61-.495-1.27-.665-2.012-.507-.634.133-1.233.568-1.413 1.21-.24.858.371 1.68.826 2.346.491.714 1.03 1.392 1.605 2.02a17.685 17.685 0 0 0 4.454 3.51c.503.277.958-.497.455-.787h.012Z" fill="#3F3226" stroke="#3F3226" stroke-linejoin="round"/></g><defs><clipPath id="a"><path fill="#fff" transform="translate(18 11)" d="M0 0h105v119H0z"/></clipPath></defs></svg>