<svg xmlns="http://www.w3.org/2000/svg" fill="none" viewBox="0 0 280 158"><path fill="#cb2821" stroke="#cb2821" stroke-linejoin="round" d="M268.17 58.52c-2.1-2.08-5.18-3.09-8-3.7-9.88-2.15-20.11-2.97-30.21-2.79-.04 0-.08.02-.12.03-4.32-4.58-8.64-9.15-12.96-13.73a.508.508 0 0 0-.79.1c-1.17 2.14-4.23 3.05-6.06 1.14-2.16-2.25.48-4.49 2.29-5.76.33-.23.31-.63 0-.86-2.1-1.57-3.85-3.5-5.18-5.75-.15-.26-.57-.35-.79-.1-.84.99-2.42 1.87-3.64.98-.69-.51-.88-1.28-.38-1.98.22-.31.5-.51.63-.88.29-.84-.3-1.6-.74-2.26-.84-1.24-1.69-2.47-2.53-3.71-.18-.27-.5-.27-.72-.14a.42.42 0 0 0-.32-.11c-7.9.25-15.72 1.58-23.25 3.98-.41.13-.42.6-.21.84-.02.03-.04.06-.06.11-2.42 8.44-4.19 17.05-5.29 25.76-.09.7-.2 1.46-.2 2.21-2.9.22-5.79.45-8.69.67-.41-.39-.82-.77-1.22-1.17-2.23-2.19-4.54-4.95-7.73-5.66-3.97-.88-7.37 2.36-10.33 4.49-4.06 2.9-8.11 5.8-12.17 8.71l-.02.02c-.52-1.07-1.05-2.15-1.57-3.22-.09-.18-.37-.31-.56-.23-4.17 1.72-8.1 3.9-11.76 6.54-.52.37-.02 1.24.5.86 3.47-2.51 7.2-4.62 11.15-6.28 2.42 4.97 4.84 9.93 7.25 14.9 1.22 2.51 2.45 5.02 3.67 7.53.98 2.01 1.99 3.98 3.41 5.7l-10.05 5.4c-1.81-4.91-3.69-9.85-6.65-14.2-2.83-4.16-6.57-7.82-8.08-12.73-.19-.61-1.15-.35-.96.27.11.35.24.67.37 1.01-12.11 10.82-25.8 19.8-40.51 26.68a170.8 170.8 0 0 1-46.7 14.16c-9.1 1.38-18.32 1.99-27.53 1.83-.64-.01-.64.99 0 1 16.48.28 32.98-1.93 48.83-6.44 15.78-4.49 30.92-11.24 44.78-20.03 7.6-4.81 14.79-10.25 21.52-16.22 1.7 3.8 4.55 6.93 6.96 10.32 2.73 3.84 4.56 8.15 6.22 12.53-.08 0-.17.02-.26.08-13.08 9.61-26.67 18.56-40.96 26.29-14.37 7.78-29.45 14.31-45.17 18.85-8.93 2.57-18.04 4.49-27.26 5.64-.63.08-.64 1.08 0 1 16.28-2.03 32.17-6.42 47.38-12.55 15.2-6.12 29.7-13.89 43.55-22.64 7.85-4.96 15.48-10.23 22.96-15.72.03-.03.05-.06.08-.09.23.6.45 1.21.67 1.81.11.31.43.46.73.3l11.08-5.95c.3-.16.31-.56.1-.79-.9-1-1.62-2.11-2.26-3.28 2.73-.57 4.8-2.66 7.48-3.32 3.48-.86 5.62 3 7.57 5.24 4.26 4.88 8.88 9.58 14.31 13.17 5.34 3.54 11.32 5.61 17.7 5.98a.4.4 0 0 0 .14.15c3.11 2.28 6.58 4.6 10.63 3.87 3.3-.6 6.13-3.01 7.23-6.17.01-.04.01-.08.02-.12 1.52-.43 3.02-.9 4.49-1.42 2.35-.82 6.82-1.88 6.54-5.16-.21-2.52-2.38-3.44-4.57-3.75 1.02-.41 2.03-.84 3-1.33 2.18-1.11 4.36-2.7 5.19-5.11.68-1.96.06-4.08-1.8-5.11-2.03-1.13-4.39-.71-6.42.17-2.78 1.21-5.26 2.68-8.27 3.31-5.97 1.23-12.14.14-17.96-1.52 1.11-.12 2.21-.33 3.26-.7 1.08-.38 2.32-.89 3.04-1.83 18.11-.88 36.24-1.77 54.21-4.34 4.55-.65 9.09-1.39 13.59-2.3 3.44-.7 7.17-1.76 9.2-4.88 1.62-2.49 1.25-5.53-.85-7.6zM198.94 19.9c.58.84 1.15 1.68 1.73 2.53.53.78 1.63 1.85 1.08 2.84-.51.9-1 1.45-.49 2.54 1.05 2.29 3.81 1.81 5.39.42 1.25 1.97 2.81 3.67 4.63 5.12-2.22 1.7-4.43 4.34-1.94 6.92 2.11 2.19 5.59 1.49 7.27-.79 5.96 6.31 11.92 12.63 17.88 18.94-4.87 1.1-9.78 1.98-14.73 2.61-4.76.6-9.69.66-14.31 2.03-.05.01-.08.04-.11.06-.02 0-.02-.02-.04-.03-.07-.03-.13-.05-.2-.08.09-.08.15-.2.15-.37-.12-2.37-1.16-4.47-2.32-6.49a49 49 0 0 0-3.88-5.79c-2.86-3.68-6.22-6.92-9.96-9.7.26-.19.52-.4.74-.63.96-.96 1.92-2.65 1.08-3.97-.5-.79-1.46-1.03-2.34-1.04-1-.01-1.99.26-2.85.75-.03.02-.05.04-.07.06-.41-.57-.83-1.14-1.24-1.7.85-.93 1.49-2.25.91-3.47-.8-1.69-2.89-1.7-4.48-1.55-.83-2.1-1.84-4.35-3.79-5.59a84.4 84.4 0 0 1 21.63-3.54c.11 0 .2-.04.27-.1zm-28.23 31.11c.83-9.04 2.92-18.11 5.41-26.82v-.03c1.92 1.03 2.88 3.09 3.66 5.05-.92.67-1.26 1.92-1.34 3.02-.1 1.36.41 2.72 1.76 3.24 1.2.46 2.46.09 3.45-.65l.97 1.33c-.97.39-1.65 1.44-1.65 2.5 0 1.47 1.3 2.63 2.67 2.89.89.18 1.77 0 2.57-.37.03.07.08.14.16.19 3.56 2.61 6.77 5.68 9.52 9.13 1.36 1.7 2.6 3.5 3.71 5.38 1.24 2.08 2.5 4.29 2.63 6.77v.02c-8.25-3.42-16.9-5.7-25.77-6.79.64-1.1 1.04-2.41.49-3.62-.46-1.02-1.6-1.82-2.75-1.65-1.27.19-1.78 1.36-2.25 2.4-.4.88-1 1.91-2.14 1.35-.77-.38-1.05-1.14-1.13-1.93.02-.1.02-.2-.01-.29-.02-.39 0-.77.04-1.12Zm27.01 54.45c-3.18.44-6-1.25-8.51-3.04 5.07.07 10.19-.69 15.12-2-1.14 2.68-3.73 4.64-6.61 5.04Zm-7.28-27.74c-1.52.96-3.5 1.38-5.27 1.51-8.08.58-14.91-4.57-21.86-7.83-.58-.27-1.09.59-.5.86 6.43 3.01 12.59 7.46 19.87 7.95.05.06.12.11.22.14 5 1.58 10.19 2.84 15.46 2.84 2.44 0 4.89-.28 7.24-.95 2.62-.75 4.84-2.25 7.37-3.2 2.14-.8 5.871-.505 6.44 1.97.66 2.87-2.36 5.18-4.53 6.35-4.9 2.62-10.76 3.97-16.25 4.58-6.32.7-12.71.26-18.88-1.27-.62-.16-.89.81-.27.96a54.7 54.7 0 0 0 18.25 1.4c3.98-.37 8.07-1.14 11.95-2.42.03 0 .06.02.1.02 1.62-.01 3.55-.06 4.82 1.12 1.53 1.42 1.04 3.28-.65 4.26-1.41.81-3.09 1.31-4.62 1.84-1.62.56-3.25 1.05-4.91 1.49-6.79 1.79-14.08 2.79-21.06 1.55-12.22-2.17-21.33-11.5-29.01-20.59-1.74-2.06-3.58-4.03-6.53-3.36-2.82.65-4.97 2.92-7.86 3.42-.39-.75-.75-1.51-1.12-2.27-1.22-2.51-2.45-5.02-3.67-7.54-1.74-3.58-3.49-7.16-5.23-10.74.03-.01.06-.02.09-.04 3.24-2.32 6.49-4.64 9.73-6.96 1.49-1.06 2.97-2.13 4.46-3.19 1.44-1.03 2.89-2.2 4.58-2.76 3.39-1.12 6.24 1.27 8.51 3.5 2.34 2.3 4.68 4.57 7.18 6.69 5 4.23 10.4 7.98 16.11 11.18 1.39.78 2.79 1.52 4.22 2.23 1.55.78 3.22 1.4 4.7 2.31 1.41.86 2.62 2.63 1.83 4.02l-.06.09c-.19.29-.46.57-.85.82zm77.91-12.42c-2.03 3.54-6.49 4.31-10.15 5.01q-6.21 1.185-12.48 2.07c-8.48 1.2-17 2.03-25.54 2.66-9.21.68-18.43 1.14-27.65 1.58.8-2.63-1.98-4.44-4.11-5.49 11.44.47 22.9.86 34.34.2 5.94-.35 11.88-.98 17.74-2.05 2.9-.53 5.79-1.16 8.64-1.92 2.25-.6 5.02-1.03 6.86-2.56 1.7-1.42 1.54-3.42-.49-4.39-2.69-1.29-5.78-1.88-8.73-2.08-.64-.04-.64.96 0 1 2.61.18 5.19.73 7.63 1.7.54.22 1.4.51 1.69 1.07.36.7-.07 1.31-.55 1.77-.96.92-2.29 1.27-3.53 1.64-5.06 1.52-10.24 2.63-15.46 3.42-10.54 1.6-21.24 1.88-31.89 1.71-6.04-.09-12.07-.34-18.1-.58-.1 0-.18.02-.25.06-6.41-3.11-12.5-6.89-18.11-11.28a99 99 0 0 1-6.27-5.34l7.79-.6c.1.54.28 1.06.63 1.52.68.88 1.89 1.42 2.95.93 1.16-.54 1.38-1.86 1.97-2.85.64-1.08 1.97-1.16 2.65 0 .69 1.18-.06 2.57-.77 3.53-.25.34.1.71.43.75a97.2 97.2 0 0 1 27.16 7.19c.18.08.34.04.48-.04.11.1.26.16.45.1 4.84-1.44 10.03-1.46 15.02-2.12 4.88-.65 9.72-1.53 14.51-2.63.37-.08.42-.44.29-.7.1-.17.11-.4-.07-.58-1.57-1.66-3.13-3.32-4.7-4.98 8.22-.1 16.45.51 24.56 1.89 3.35.57 6.89 1.08 9.92 2.72 2.85 1.54 4.95 4.46 3.11 7.66z"/><path fill="#cb2821" stroke="#cb2821" stroke-linejoin="round" d="M197.361 31.25c-.92-.79-2.34-.78-3.17.16-.85.97-.65 2.37.11 3.33.35.45.83.8 1.33 1.06.59.31 1.24.55 1.92.42 1.09-.2 1.82-1.33 1.71-2.4-.11-1.13-.85-1.92-1.78-2.41a.34.34 0 0 0-.11-.17zM192.901 26.53c.84.63 2 .56 2.92.16.91-.41 2-1.33 1.74-2.44-.22-.93-1.16-1.49-2.08-1.5a.34.34 0 0 0-.2-.11c-.98-.13-1.95.25-2.56 1.03-.32.41-.52.91-.54 1.44-.02.58.26 1.08.72 1.42ZM204.302 51.57c.59.29 1.26.57 1.92.5.69-.08 1.21-.58 1.36-1.26.14-.63.03-1.29-.12-1.91-.17-.73-.46-1.45-.96-2.02-.47-.55-1.13-.86-1.82-.99-.53-.32-1.14-.55-1.77-.49-.71.07-1.36.46-1.63 1.13-.56 1.38.34 2.9 1.31 3.84.5.49 1.08.9 1.71 1.21zM213.579 48.67c.87.33 1.89.33 2.76.01.5-.18 1.04-.45 1.04-1.06 0-.47-.28-.94-.56-1.29-.6-.75-1.58-1.21-2.54-1.15-.16 0-.3.09-.39.2-.72.06-1.39.37-1.69 1.11-.18.44-.14.95.14 1.34.3.42.76.66 1.23.84zM218.299 52.25c-.9 0-1.83.19-2.44.88-.71.8-.86 2.06.03 2.79.45.37 1.02.61 1.57.78.56.17 1.17.23 1.74.11 1.06-.23 1.93-1.14 1.86-2.26-.07-1.09-.83-1.86-1.79-2.18a.6.6 0 0 0-.27-.1h-.13c-.12-.02-.25-.04-.38-.05-.07 0-.14.01-.2.04zM191.802 54.88c.87.49 1.98.29 2.73-.32.63-.52 1.02-1.46.71-2.25-.28-.7-.9-1.06-1.57-1.26-.11-.2-.33-.28-.56-.24-.09.01-.17.05-.25.07-.1 0-.2.03-.29.08-.66.26-1.24.76-1.54 1.41-.21.46-.29.98-.12 1.46.16.44.48.82.89 1.06zM175.59 47.47c1.65 1.33 3.26-.36 4.03-1.78.88-1.62 1.26-3.56 1.03-5.39-.12-.95-.53-1.93-1.46-2.34-.68-.3-1.53-.14-1.99.43-1.32.87-2.25 2.26-2.62 3.8-.22.94-.25 1.91-.12 2.87.13.89.4 1.82 1.12 2.41z"/></svg>