<svg xmlns="http://www.w3.org/2000/svg" fill="none" viewBox="0 0 280 158"><g fill="#cb2821" stroke="#cb2821" stroke-linejoin="round" clip-path="url(#a)"><path d="M230.049 61.96c-12.96-4.63-27.18-5.72-40.8-4.15-7.35.85-14.57 2.54-21.54 5.01-3.78-9.44-8.34-18.55-13.65-27.22a.48.48 0 0 0-.51-.23c-.09 0-.19 0-.29.07-2.96 1.89-5.99 3.67-8.92 5.6-.18.12-.29.34-.23.56.04.13.09.25.13.37-5.61-1.09-11.28-1.84-16.98-2.22-3.88-.25-8-.65-11.91-.07-1.73-4.13-3.47-8.26-5.2-12.39-.02-.05-.05-.08-.08-.12 0-.01-.01-.02-.02-.03-.01-.02-.03-.03-.04-.05a.46.46 0 0 0-.47-.15c-7.5 1.57-14.88 3.66-22.08 6.27a165 165 0 0 0-15.32 6.46c-1.12.54-2.43 1.06-2.72 2.41v.04c-.01.07-.02.14 0 .22.38 1.83.81 3.66 1.26 5.48-1.44.23-2.72.95-3.85 1.84-1.14.89-2.29 1.95-2.86 3.3-.54 1.29-.34 2.71.5 3.82.89 1.19 2.25 1.82 3.68 2.09 1.91.37 3.91.37 5.84.18.13.37.25.74.38 1.11-1.59.52-3.1 1.28-4.45 2.29-1.29.97-2.56 2.17-3.06 3.75-1.14 3.57 2.94 5.65 5.87 5.81 2.03.11 4.02-.42 5.96-.98.08.17.16.35.24.52-.94 1.21-1.81 2.49-2.55 3.84-.72 1.32-1.38 2.78-1.22 4.32.14 1.34.85 2.53 2.12 3.07 1.19.51 2.54.41 3.79.23 1.29-.18 2.58-.45 3.68-1.12.22.28.43.57.66.84.51.62 1.04 1.21 1.6 1.78-.52.67-.85 1.46-1.04 2.28-.24 1.06-.4 2.27-.19 3.34.45 2.34 3.07 2.46 4.92 1.88 1.28-.4 2.45-1.05 3.49-1.89 4.18 2.23 9 3.23 13.65 2 .45-.12.88-.26 1.31-.42 4.46 11.61 8.2 23.49 11.24 35.54-.1.05-.2.09-.3.14s-.16.12-.2.19a38.8 38.8 0 0 0-7.37 5.57c-2.17 2.11-4.32 4.51-5.37 7.41-.77 2.13-.96 5.26 1.31 6.57 2.47 1.42 6.1.51 8.7-.09 5.94-1.36 11.52-4.19 16.22-8.07 2.38-1.96 4.54-4.2 6.39-6.67 1.63-2.17 2.09-4.68.38-6.97-2.02-2.71-5.69-2.9-8.71-2.2-3.47.8-6.88 2.21-10.14 3.69a310 310 0 0 0-11.24-35.48c2.42-1.05 4.52-2.69 6.28-4.66a58.5 58.5 0 0 0 22.49-4.11c6.94-2.76 14.13-6.83 18.99-12.64.14.32.28.64.41.97.11.26.47.29.68.18 3.17-1.64 6.44-3.04 9.82-4.2.24-.08.45-.35.35-.62-.32-.86-.67-1.71-1-2.57 12.23-4.31 25.12-6.07 38.06-5.43 13.58.67 27.07 4.53 38.59 11.85 6.37 4.05 12.05 9.13 16.85 14.95.41.5 1.11-.21.71-.71-8.51-10.3-19.66-17.96-32.22-22.44zm-100.9 62.92c2.73-.9 5.88-1.75 8.57-.28 1.19.65 2.1 1.74 2.42 3.07.43 1.74-.44 3.12-1.46 4.44a38.6 38.6 0 0 1-5.28 5.56c-3.93 3.41-8.56 6.04-13.53 7.63-2.51.8-5.23 1.49-7.88 1.54-1.44.03-3.27-.1-4.02-1.55-.64-1.23-.43-2.77-.02-4.04.92-2.89 3.11-5.27 5.24-7.34 2.23-2.17 4.73-4.02 7.42-5.57.59 2.37 1.16 4.74 1.69 7.12.14.63 1.1.36.96-.27-.55-2.45-1.14-4.89-1.74-7.32 2.49-1.12 5.02-2.13 7.61-2.98zm38.78-58.73c-3.1 1.09-6.11 2.37-9.04 3.86-2.07-4.87-4.15-9.74-6.51-14.47-1.19-2.37-2.46-4.69-3.81-6.97-1.31-2.22-2.6-4.44-3.38-6.9 2.72-1.77 5.5-3.43 8.24-5.17a180.5 180.5 0 0 1 14.51 29.65zm-65.14-10.73c2.11 1.5 4.83.61 7.1.06 2.99-.73 5.95-1.61 8.94-2.36.8 2.54 1.51 5.15 2.01 7.81-1.86-1.18-4.44-.88-6.47-.05-3.64 1.49-5.94 5.03-9.47 6.74-2.06 1-4.34 1.47-6.63 1.37-2.19-.09-4.29-.46-6.48-.09-2.13.36-4.15 1.18-6.08 2.12-1.43.7-3.34 1.45-4.21 2.9-.08.13-.13.26-.18.39-.67-1.3-1.3-2.62-1.9-3.94a.5.5 0 0 0-.11-.24c-.34-.75-.66-1.51-.98-2.27-3.42-8.12-6.03-16.57-7.86-25.19 3.55-.42 7-1.46 10.43-2.39 3.4-.92 6.79-1.88 10.13-2.99 6.51-2.16 12.84-4.93 18.46-8.92 1.61 3.83 3.22 7.66 4.82 11.49-1.28.25-2.53.61-3.73 1.13-4.05 1.76-9.38 4.28-9.95 9.26-.22 1.92.52 4.02 2.13 5.17zm-28.27-15.76c1.62-.76 3.24-1.48 4.88-2.19 3.31-1.42 6.66-2.72 10.06-3.91 5.98-2.09 12.08-3.8 18.25-5.18-5.21 3.47-10.99 5.96-16.93 7.93-3.21 1.06-6.46 1.99-9.72 2.88-3.38.92-6.79 1.97-10.27 2.43.87-.95 2.78-1.52 3.72-1.97zm-6.22 18.26c-1.54-.31-3.15-1.14-3.59-2.77-.45-1.67.87-3.09 2.02-4.11 1.2-1.06 2.56-1.97 4.17-2.23.8 3.13 1.71 6.24 2.73 9.3-1.76.15-3.6.16-5.33-.19Zm4.41 13.12c-1.77-.1-3.84-.79-4.74-2.44-.96-1.77.48-3.58 1.77-4.71 1.43-1.25 3.13-2.17 4.93-2.75.72 2 1.48 3.99 2.29 5.96q.63 1.515 1.29 3.03c-1.8.53-3.65 1.01-5.54.91Zm7.73 11.08c-1.3.14-2.97.17-3.81-1.03-.98-1.38-.41-3.21.27-4.57.69-1.38 1.54-2.69 2.47-3.93.69 1.46 1.43 2.9 2.22 4.3.18.39.39.77.59 1.15a29 29 0 0 0 1.95 3.08c-1.09.65-2.45.86-3.69 1Zm9.7 9.04c-.89.25-2.08.41-2.86-.21-.88-.7-.66-2.18-.52-3.15.13-.9.39-1.8.93-2.54.21.2.42.41.64.61.15.14.28.3.43.44 1.34 1.25 2.84 2.38 4.45 3.33a9.4 9.4 0 0 1-3.06 1.53zm48-9.35a57.9 57.9 0 0 1-20.98 3.92c1.53-1.95 2.76-4.15 3.63-6.43 2.08-5.43 2.19-11.26 1.3-16.96.02-.08 0-.16-.04-.25-.17-1.03-.36-2.07-.59-3.09.8.82 1.77 1.5 2.73 2.12 1.79 1.15 3.7 2.37 5.91 2.34.64 0 .64-1.01 0-1-2.02.03-3.77-1.15-5.4-2.2-1.51-.98-3.02-2.05-3.76-3.75-.03-.08-.08-.13-.13-.18-.31-1.17-.65-2.32-1.01-3.46 3.13-.72 6.65-.91 9.21 1.37.48.43 1.19-.28.71-.71-3.5-3.11-8.22-2.2-12.33-1.06-2.66.74-5.32 1.45-8 2.1-2.57.62-5.76 1.48-7.25-1.42-1.26-2.46-.06-5.24 1.76-7.05 1.72-1.71 4.03-2.78 6.21-3.8 2.52-1.19 5-1.78 7.79-1.83 2.71-.05 5.44.05 8.14.2 6.21.35 12.39 1.15 18.49 2.36h.06c.7 1.84 1.65 3.57 2.65 5.27 1.42 2.4 2.79 4.82 4.05 7.32 2.2 4.35 4.15 8.83 6.06 13.32-4.84 5.96-12.16 10.12-19.22 12.86zM73.168 31.32c.29.08.5-.09.58-.31.09-.15.08-.32-.06-.47-.03-.04-.06-.08-.11-.11-3.69-2.89-6.44-7.84-11.38-8.77-.93-.17-1.99-.15-2.67.61-.58.65-.66 1.64-.41 2.45.66 2.18 3.42 3.05 5.3 3.81 2.84 1.14 5.79 1.96 8.74 2.79zM71.882 16.37a25.3 25.3 0 0 0 1.96 3.58c1.64 2.53 3.61 4.83 5.57 7.11.09.11.2.15.3.16.31.24.9-.02.8-.53a70 70 0 0 0-2.25-8.66c-.79-2.4-1.62-5.16-3.47-6.99-.73-.72-1.82-1.34-2.85-.89-1 .43-1.33 1.59-1.24 2.59.11 1.24.67 2.5 1.17 3.63z"/><path d="M279.361 61.46c-11.29-13.81-25.93-24.5-42.89-30.2-16.72-5.62-35.04-5.91-52.2-2.17-9.58 2.09-18.84 5.55-27.52 10.1-.57.3-.07 1.16.5.86 15.05-7.9 31.64-12.1 48.64-12.42 17.63-.32 35.23 4.49 50.09 14.05 8.61 5.54 16.2 12.56 22.67 20.48.41.5 1.11-.21.71-.71z"/></g><defs><clipPath id="a"><path fill="#fff" d="M58 9h222v140H58z"/></clipPath></defs></svg>