<svg width="60" height="64" fill="none" xmlns="http://www.w3.org/2000/svg"><path d="M60 64H0V0h60v64ZM32.499 52.968v8.09h1.825v-3.057h1.766l3.218 3.058h2.662L38.557 58h.783c1.222 0 1.796-.44 1.796-1.568v-1.897c0-1.129-.574-1.568-1.796-1.568h-6.841Zm16.499 0v8.09h8.237v-1.52h-6.38V57.53h5.572v-1.379h-5.572v-1.803h6.38v-1.38h-8.237Zm-46.24 0v8.09h1.856v-3.073h5.41v-1.473h-5.41v-2.133h6.222v-1.411H2.758Zm17.25 0-4.519 8.09h1.857l.928-1.77h5.062l.959 1.77h2.089l-4.58-8.09h-1.796Zm2.553 4.86h-3.497l1.78-3.293 1.717 3.293Zm15.943-3.465c.572 0 .836.11.836.644v.973c0 .532-.264.641-.836.641h-4.18v-2.258h4.18Zm-35.746-4.67v.813l54.484-.007v-.814l-54.484.008Zm24.863-6.846v4.356h3.416c.841 0 1.267-.27 1.267-.853v-.558c0-.464-.275-.767-.776-.835.476-.059.742-.312.742-.734v-.532c0-.607-.308-.844-.966-.844H27.62Zm24.557 0v4.356h.9v-2.355c0-.127-.009-.356-.042-.693.116.134.233.244.358.355l3.158 2.693h.682v-4.356h-.899v2.288c0 .134.016.388.042.75a3.698 3.698 0 0 0-.491-.472l-3.026-2.566h-.682Zm-49.42 0v3.325c0 .819.258 1.03 1.066 1.03H6.54c.809 0 1.067-.212 1.067-1.03v-3.325h-1v3.536h-2.85v-3.536h-1Zm12.458-.001V47.2h.982v-1.646h.95l1.734 1.646h1.432l-1.848-1.646h.432c.658 0 .967-.236.967-.843V43.69c0-.607-.309-.844-.967-.844h-3.682Zm26.623 0L39.405 47.2h1l.5-.953h2.725l.517.953h1.123l-2.464-4.355h-.967Zm-10.951 2.466c.341 0 .482.067.482.388v.33c0 .319-.141.387-.482.387h-2.284v-1.105h2.284Zm12.325.15H41.33l.958-1.772.925 1.772Zm-24.765-1.864c.308 0 .45.058.45.345v.523c0 .288-.142.346-.45.346h-2.25v-1.214h2.25Zm12.44-.041c.308 0 .457.06.457.311v.413c0 .254-.15.314-.457.314h-2.284v-1.038h2.284Zm9.295-24.98v.023l-.001.022v.023l-.001.024.057 4.052.013 1.018c.002.133.108.217.236.185l3.217-.809c.128-.032.233.05.233.185v15.697h8.998v-7.77c0-.448 0-.507-.147-.631-.073-.062-.13-.163-.13-.356v-3.794c0-.134-.107-.223-.237-.198l-.598.116a.31.31 0 0 0-.236.291v2.659c0 .133-.083.172-.185.085l-.684-.587a.605.605 0 0 1-.185-.4v-3.083c0-.134.106-.271.234-.305l6.473-1.683V2.943l-17.062-.002.005 15.635ZM15.356 36.634l-1.627.238a.289.289 0 0 0-.238.278v1.845h2.103v-2.152c0-.134-.106-.229-.238-.21Zm11.64-1.051-2.181.274a.282.282 0 0 0-.239.275v2.863h2.657v-3.198a.209.209 0 0 0-.238-.214ZM2.764 2.941v36.054h4.28v-12.5c0-.135.102-.28.227-.325l9.54-3.36c.126-.044.227.03.227.164v16.021h1.994V29.56c0-.135.105-.27.234-.302l4.02-1.012a.335.335 0 0 0 .238-.302l.037-1.9.127-6.704a.745.745 0 0 0-.047-.258.556.556 0 0 0-.101-.169.886.886 0 0 0-.115-.105l-.024-.016a.612.612 0 0 1-.067-.057l-.005-.003a5.162 5.162 0 0 1-.67-.6 2.062 2.062 0 0 1-.404-.66 3.8 3.8 0 0 1-.203-.978 15.713 15.713 0 0 1-.053-1.54l-.001-.006.016-.464.03-.776.045-.928.054-.919c.02-.305.05-.66.087-1.055l.103-1.016.084-.766.037-.301v-.005a.441.441 0 0 1 .138-.308.287.287 0 0 1 .083-.055.15.15 0 0 1 .075-.011c.02.002.04.01.056.024.015.014.029.033.039.057.011.027.016.06.016.095v6.425a.33.33 0 0 0 .019.106.228.228 0 0 0 .06.088.197.197 0 0 0 .201.036.33.33 0 0 0 .096-.055.418.418 0 0 0 .13-.186.398.398 0 0 0 .025-.115l.192-6.544c0-.038.004-.077.017-.116a.477.477 0 0 1 .124-.196.289.289 0 0 1 .085-.056.162.162 0 0 1 .077-.013.102.102 0 0 1 .056.024.157.157 0 0 1 .041.058c.012.027.017.06.017.095l.052 6.466a.31.31 0 0 0 .021.115.217.217 0 0 0 .06.09c.028.023.06.038.095.044a.227.227 0 0 0 .11-.01.319.319 0 0 0 .102-.057.444.444 0 0 0 .155-.327l.052-6.536a.422.422 0 0 1 .07-.226.366.366 0 0 1 .163-.147.165.165 0 0 1 .079-.011.12.12 0 0 1 .06.024.148.148 0 0 1 .04.058c.012.028.02.06.02.096 0 .058.196 6.508.196 6.508a.28.28 0 0 0 .03.109.234.234 0 0 0 .063.079c.027.02.058.034.093.039a.23.23 0 0 0 .105-.012.29.29 0 0 0 .104-.06.437.437 0 0 0 .157-.324l.001-.007V7.395a.36.36 0 0 1 .019-.118.532.532 0 0 1 .13-.204.292.292 0 0 1 .088-.056.179.179 0 0 1 .082-.014.13.13 0 0 1 .061.023.135.135 0 0 1 .043.059.25.25 0 0 1 .018.097v.006l.039.284.092.723c.041.34.08.668.11.974a34.136 34.136 0 0 1 .153 1.95l.048.935.034.789.019.474c.001.693-.017 1.218-.058 1.649a5.522 5.522 0 0 1-.222 1.161 4.53 4.53 0 0 1-.437.96 13.19 13.19 0 0 1-.711 1.039c-.023.034-.049.069-.076.105l-.025.034a1.667 1.667 0 0 0-.116.172 1.06 1.06 0 0 0-.143.517 15354.261 15354.261 0 0 1 .166 8.58c.002.134.11.218.239.186l4.722-1.188a.336.336 0 0 0 .237-.302l.033-1.907.13-7.367a1.293 1.293 0 0 0-.035-.206.797.797 0 0 0-.07-.177.493.493 0 0 0-.106-.134.32.32 0 0 0-.138-.072 1.882 1.882 0 0 1-.782-.352 2.342 2.342 0 0 1-.621-.748 4.24 4.24 0 0 1-.41-1.186 8.54 8.54 0 0 1-.145-1.675c.003-.88.095-1.758.256-2.59a13.22 13.22 0 0 1 .671-2.329c.28-.706.61-1.327.965-1.814.36-.49.745-.845 1.137-1.017h.003l.002-.003c.394-.169.79-.151 1.163.03.377.182.728.529 1.032 1.014.305.49.561 1.118.742 1.856.18.741.285 1.593.288 2.524.002.683-.052 1.311-.154 1.884a7.67 7.67 0 0 1-.44 1.552c-.189.461-.416.87-.675 1.227-.259.356-.548.66-.86.917a.808.808 0 0 0-.144.167 1.435 1.435 0 0 0-.215.676l.151 8.364.016.911c.002.135.11.219.238.186l5.531-1.39a.333.333 0 0 0 .237-.302l.03-2.163.007-.507v-.004l-.003-.031.01.033v-.002a.337.337 0 0 0-.005-.063c-.005-.026-.01-.053-.016-.076a.39.39 0 0 0-.03-.064l.007.028c-.005-.01-.007-.02-.014-.028a.757.757 0 0 0-.161-.212c-.154-.15-.533-.343-.986-.644-.42-.279-.38-.686-.38-.697l-.001.009c-.014-.32-.054-2.194-.067-3.678-.016-1.785.05-2.69.201-5.135.153-2.45.37-4.691.881-6.71a6.119 6.119 0 0 1 .515-1.384H2.765ZM9.656 37.47l-1.378.2a.29.29 0 0 0-.238.28v1.046h1.854v-1.317c0-.134-.106-.229-.238-.21Zm13.501-1.388-1.989.214a.276.276 0 0 0-.238.27v2.43h2.466V36.3a.214.214 0 0 0-.239-.219Zm7.983-1-2.395.305a.282.282 0 0 0-.238.273v3.336h2.87v-3.7a.208.208 0 0 0-.237-.214Zm4.489-.59-2.636.373a.288.288 0 0 0-.237.278v3.853h3.111v-4.294a.206.206 0 0 0-.238-.21Zm19.066-8.692-.636.125a.306.306 0 0 0-.237.29v12.781h1.11V25.996c0-.133-.107-.223-.237-.197Zm2.357-.463-.679.134a.307.307 0 0 0-.236.289v13.236h1.105V25.4a.192.192 0 0 0-.19-.064Zm-44.637 11.73-1.497.218a.29.29 0 0 0-.238.279v1.431h1.973v-1.72a.203.203 0 0 0-.238-.209Zm28.093-3.183-2.907.412a.289.289 0 0 0-.239.277v4.422h3.383v-4.9a.205.205 0 0 0-.237-.211Zm-30.85-1.318-1.383.288a.311.311 0 0 0-.235.291v2.338c0 .134.107.226.237.203l1.381-.24a.3.3 0 0 0 .237-.286v-2.4c0-.132-.107-.22-.237-.194Zm2.759-.572-1.502.312a.312.312 0 0 0-.235.293v2.425c0 .133.107.224.237.202l1.5-.261a.3.3 0 0 0 .236-.285v-2.492c0-.133-.107-.22-.236-.194Zm2.942-.61-1.632.339a.311.311 0 0 0-.237.293v2.518c0 .134.107.225.237.202l1.63-.283a.3.3 0 0 0 .237-.285v-2.589c0-.134-.105-.222-.235-.194Zm7.284-.835a.881.881 0 0 0-.484-.026c-.168.036-.33.117-.476.23a1.75 1.75 0 0 0-.386.432c-.11.17-.198.364-.26.572a2.32 2.32 0 0 0-.095.651v1.176c0 .134.107.224.237.201l1.994-.361a.304.304 0 0 0 .236-.287v-1.217c0-.23-.036-.442-.1-.628a1.356 1.356 0 0 0-.269-.473.953.953 0 0 0-.397-.27Zm3.778-.807a.994.994 0 0 0-.52-.022c-.183.039-.356.123-.513.243a1.818 1.818 0 0 0-.416.451 2.312 2.312 0 0 0-.383 1.273v1.277c0 .135.107.227.238.205l2.184-.361a.297.297 0 0 0 .237-.283V31.16c0-.239-.039-.459-.108-.651a1.39 1.39 0 0 0-.291-.488 1.032 1.032 0 0 0-.428-.279Zm4.078-.87a1.11 1.11 0 0 0-.56-.02 1.453 1.453 0 0 0-.556.258 1.97 1.97 0 0 0-.45.473 2.377 2.377 0 0 0-.412 1.324v1.386c0 .135.107.226.237.201l2.398-.433a.304.304 0 0 0 .238-.288v-1.434c0-.249-.042-.477-.117-.677-.075-.2-.183-.37-.315-.504a1.095 1.095 0 0 0-.463-.286Zm4.414-.94a1.233 1.233 0 0 0-.607-.017 1.62 1.62 0 0 0-.603.273 2.145 2.145 0 0 0-.487.497c-.138.194-.25.415-.326.648-.077.234-.12.482-.12.733v1.5a.2.2 0 0 0 .238.205l2.639-.442a.299.299 0 0 0 .236-.284v-1.595a1.94 1.94 0 0 0-.126-.703 1.464 1.464 0 0 0-.342-.523 1.18 1.18 0 0 0-.502-.292Zm4.795-1.025a1.414 1.414 0 0 0-.662-.008 1.78 1.78 0 0 0-.653.29c-.2.139-.38.317-.53.521-.15.204-.27.434-.354.679a2.413 2.413 0 0 0-.13.766v1.661c0 .135.106.224.236.2l2.912-.527a.302.302 0 0 0 .237-.286v-1.72c-.001-.27-.05-.516-.138-.732a1.509 1.509 0 0 0-.372-.543 1.306 1.306 0 0 0-.546-.3Zm-30.045.734-1.392.397a.343.343 0 0 0-.231.31v2.338c0 .134.106.217.233.184l1.388-.35a.329.329 0 0 0 .234-.303v-2.4c0-.133-.105-.213-.232-.176Zm2.759-.791-1.51.432a.342.342 0 0 0-.232.31v2.425c0 .134.106.218.233.185l1.507-.382a.329.329 0 0 0 .233-.302v-2.49c0-.135-.104-.215-.231-.178Zm2.941-.842-1.64.47a.342.342 0 0 0-.233.31v2.519c0 .134.105.217.234.184l1.636-.414a.329.329 0 0 0 .234-.303v-2.588c0-.135-.104-.213-.23-.178Z" fill="#CB2821"/></svg>