<svg width="64" height="64" fill="none" xmlns="http://www.w3.org/2000/svg"><g clip-path="url(#a)"><path d="M43.019 33.15s-.353.024-.527.052c-.67.107-.869.289-.869 1.113v6.504c0 .887.553.94 1.332.984 1.901.108 3.006-1.582 3.006-4.313 0-2.734-1.097-4.34-2.942-4.34 0 0-.353.024-.527.052-.67.107-.869.289-.869 1.113v6.504c0 .887.553.94 1.332.984 1.901.108 3.006-1.582 3.006-4.313 0-2.734-1.097-4.34-2.942-4.34Zm-19.963.096c-1.706 0-2.76 1.627-2.76 4.324 0 2.637 1.037 4.233 2.791 4.233 1.706 0 2.776-1.658 2.776-4.262 0-2.637-1.086-4.295-2.807-4.295Zm10.18 0c-1.706 0-2.762 1.627-2.762 4.324 0 2.637 1.04 4.233 2.793 4.233 1.704 0 2.774-1.658 2.774-4.262 0-2.637-1.085-4.295-2.805-4.295Zm9.783-.096s-.353.024-.527.052c-.67.107-.869.289-.869 1.113v6.504c0 .887.553.94 1.332.984 1.901.108 3.006-1.582 3.006-4.313 0-2.734-1.097-4.34-2.942-4.34 0 0-.353.024-.527.052-.67.107-.869.289-.869 1.113v6.504c0 .887.553.94 1.332.984 1.901.108 3.006-1.582 3.006-4.313 0-2.734-1.097-4.34-2.942-4.34m-9.783.096c-1.706 0-2.762 1.627-2.762 4.324 0 2.637 1.04 4.233 2.793 4.233 1.704 0 2.774-1.658 2.774-4.262 0-2.637-1.085-4.295-2.805-4.295Zm-10.18 0c-1.706 0-2.76 1.627-2.76 4.324 0 2.637 1.037 4.233 2.791 4.233 1.706 0 2.776-1.658 2.776-4.262 0-2.637-1.086-4.295-2.807-4.295ZM24.45 48.53a73.57 73.57 0 0 1-.454-.936c-.042-.088-.148-.093-.186.004-.044.107-.421.865-.447.92-.042.089.006.148.092.148h.901c.066 0 .132-.06.094-.136Zm-1.394-15.285c-1.706 0-2.76 1.627-2.76 4.324 0 2.637 1.037 4.233 2.791 4.233 1.706 0 2.776-1.658 2.776-4.262 0-2.637-1.086-4.295-2.807-4.295Zm10.18 0c-1.706 0-2.762 1.627-2.762 4.324 0 2.637 1.04 4.233 2.793 4.233 1.704 0 2.774-1.658 2.774-4.262 0-2.637-1.085-4.295-2.805-4.295Zm9.783-.095s-.353.023-.527.051c-.67.108-.869.29-.869 1.114v6.504c0 .887.553.94 1.332.983 1.901.108 3.006-1.581 3.006-4.313 0-2.734-1.097-4.34-2.942-4.34 0 0-.353.025-.527.052-.67.108-.869.29-.869 1.114v6.504c0 .887.553.94 1.332.983 1.901.108 3.006-1.581 3.006-4.313 0-2.734-1.097-4.34-2.942-4.34Zm-9.783.095c-1.706 0-2.761 1.627-2.761 4.325 0 2.637 1.039 4.233 2.792 4.233 1.704 0 2.774-1.659 2.774-4.262 0-2.637-1.084-4.296-2.805-4.296Zm-10.18 0c-1.706 0-2.759 1.627-2.759 4.325 0 2.637 1.036 4.233 2.79 4.233 1.706 0 2.776-1.659 2.776-4.262 0-2.637-1.086-4.296-2.807-4.296Zm1.394 15.285a73.57 73.57 0 0 1-.454-.936c-.042-.088-.148-.093-.186.004-.044.107-.421.865-.447.92-.042.089.006.148.092.148h.901c.066 0 .132-.059.094-.135a77.14 77.14 0 0 1-.454-.937c-.042-.088-.148-.093-.186.004-.044.108-.421.865-.446.92-.043.09.005.148.091.148h.901c.066 0 .132-.059.094-.135m-1.394-15.286c-1.706 0-2.759 1.627-2.759 4.325 0 2.637 1.036 4.233 2.79 4.233 1.706 0 2.776-1.659 2.776-4.262 0-2.637-1.086-4.296-2.807-4.296Zm7.262 13.674h-1.149c-.119 0-.243.042-.243.19v.838c0 .131.124.208.243.208h1.149c.385 0 .7-.203.7-.618s-.315-.618-.7-.618Zm2.918-13.674c-1.706 0-2.761 1.627-2.761 4.325 0 2.637 1.039 4.233 2.792 4.233 1.704 0 2.774-1.659 2.774-4.262 0-2.637-1.084-4.296-2.805-4.296Zm9.783-.095s-.353.023-.527.051c-.67.108-.869.29-.869 1.114v6.504c0 .887.553.94 1.332.983 1.901.108 3.006-1.581 3.006-4.313 0-2.734-1.097-4.34-2.942-4.34 0 0-.353.025-.527.052-.67.108-.869.29-.869 1.114v6.504c0 .887.553.94 1.332.983 1.901.108 3.006-1.581 3.006-4.313 0-2.734-1.097-4.339-2.942-4.339m-9.783.095c-1.706 0-2.761 1.627-2.761 4.325 0 2.637 1.039 4.233 2.792 4.233 1.704 0 2.774-1.659 2.774-4.262 0-2.637-1.084-4.296-2.805-4.296Zm-10.18 0c-1.706 0-2.759 1.627-2.759 4.325 0 2.637 1.036 4.233 2.79 4.233 1.706 0 2.776-1.659 2.776-4.262 0-2.637-1.086-4.296-2.807-4.296Zm7.262 13.674h-1.149c-.119 0-.243.042-.243.19v.838c0 .131.124.208.243.208h1.149c.385 0 .7-.203.7-.618s-.315-.618-.7-.618Zm-5.868 1.612a77.14 77.14 0 0 1-.454-.937c-.042-.088-.148-.093-.186.004-.044.108-.421.865-.446.92-.043.09.005.148.091.148h.901c.066 0 .132-.059.094-.135a77.14 77.14 0 0 1-.454-.937c-.042-.088-.148-.093-.186.004-.044.108-.421.865-.446.92-.043.09.005.148.091.148h.901c.066 0 .132-.059.094-.135Zm-1.394-15.286c-1.706 0-2.759 1.627-2.759 4.325 0 2.637 1.036 4.233 2.79 4.233 1.706 0 2.776-1.659 2.776-4.262 0-2.637-1.086-4.296-2.807-4.296Zm7.262 13.674h-1.149c-.119 0-.243.042-.243.19v.838c0 .131.124.208.243.208h1.149c.385 0 .7-.203.7-.618s-.315-.618-.7-.618Zm2.918-13.674c-1.706 0-2.761 1.627-2.761 4.325 0 2.637 1.039 4.233 2.792 4.233 1.704 0 2.774-1.659 2.774-4.262 0-2.637-1.084-4.296-2.805-4.296Zm9.783-.095s-.353.024-.526.051c-.67.108-.87.29-.87 1.114v6.504c0 .887.553.94 1.332.983 1.902.108 3.007-1.581 3.007-4.313 0-2.733-1.098-4.339-2.943-4.339 0 0-.353.024-.526.051-.67.108-.87.29-.87 1.114v6.504c0 .887.553.94 1.332.983 1.902.108 3.007-1.581 3.007-4.313 0-2.733-1.098-4.339-2.943-4.339Zm-9.782.095c-1.707 0-2.762 1.628-2.762 4.325 0 2.637 1.039 4.233 2.792 4.233 1.705 0 2.774-1.659 2.774-4.262 0-2.637-1.084-4.296-2.804-4.296Zm-10.18 0c-1.706 0-2.76 1.628-2.76 4.325 0 2.637 1.037 4.233 2.79 4.233 1.707 0 2.776-1.659 2.776-4.262 0-2.637-1.086-4.296-2.807-4.296Zm7.261 13.675H29.17c-.12 0-.244.041-.244.19v.837c0 .132.125.208.244.208h1.148c.386 0 .7-.203.7-.617 0-.415-.314-.618-.7-.618Zm-5.868 1.61a77.14 77.14 0 0 1-.454-.936c-.042-.088-.148-.093-.186.004-.044.108-.421.865-.446.92-.043.09.005.148.091.148h.901c.066 0 .132-.059.094-.135Zm31.609-5.926c0-.108-.108-.134-.214-.134h-.146v.266h.11c.133 0 .25-.008.25-.132Zm0 .662-.27-.383h-.092v.383h-.161v-.944h.354c.222 0 .322.088.322.282 0 .188-.104.261-.24.276l.273.386h-.186Zm-.218-1.098c-.364 0-.635.273-.635.65 0 .376.271.647.635.647.366 0 .634-.27.634-.648 0-.376-.268-.649-.634-.649Zm-31.847 5.426c-.042-.088-.148-.093-.186.004-.044.107-.421.865-.446.92-.043.09.005.148.091.148h.901c.066 0 .132-.059.094-.136a75.776 75.776 0 0 1-.454-.936Zm-.94-14.349c-1.706 0-2.76 1.627-2.76 4.325 0 2.637 1.037 4.233 2.791 4.233 1.706 0 2.776-1.659 2.776-4.262 0-2.637-1.086-4.296-2.807-4.296Zm7.262 13.674h-1.149c-.119 0-.243.042-.243.19v.838c0 .132.124.208.243.208h1.149c.386 0 .7-.203.7-.618s-.314-.618-.7-.618Zm2.918-13.674c-1.706 0-2.761 1.627-2.761 4.325 0 2.637 1.039 4.233 2.792 4.233 1.704 0 2.774-1.659 2.774-4.263 0-2.636-1.084-4.295-2.805-4.295ZM45.96 37.49c0-2.733-1.097-4.339-2.942-4.339 0 0-.353.024-.526.051-.67.108-.87.29-.87 1.114v6.504c0 .887.553.94 1.332.984 1.902.108 3.006-1.582 3.006-4.314Zm10.707-7.526c-.062.285-.24.39-.553.39l-.396.001h-6.088c-.523 0-.7-.104-.7-.45 0-.228.177-.417.386-.417h.314c.108 0 .216-.095.249-.199.047-.126.06-.203.06-.621v-6.942c0-.402-.013-.483-.06-.608-.033-.138-.158-.23-.25-.23h-.313c-.209 0-.4-.204-.4-.434 0-.344.191-.456.714-.456h6.197c.313 0 .488.105.552.39l.22 1.079c.084.398-.057.613-.34.613-.15 0-.295-.04-.4-.242a2.257 2.257 0 0 1-.153-.335c-.151-.399-.464-.448-1.187-.448h-1.462c-.847 0-.942.112-.942.936v1.844c0 .347.05.499.143.561.071.05.186.06.63.06h.723c.65 0 .744-.047.791-.358l.012-.095c.047-.263.186-.387.42-.387.325 0 .434.184.434.729v1.304c0 .543-.109.73-.434.73-.234 0-.373-.141-.42-.405l-.017-.102c-.046-.311-.139-.357-.791-.357h-.717c-.445 0-.56.011-.631.06-.094.063-.143.213-.143.562v1.967c0 .822.05.995.294 1.09.2.075.415.108.924.108l1.543-.004c.554 0 .946-.173 1.138-.575.087-.183.115-.253.133-.284.104-.203.269-.292.42-.292.282 0 .421.214.339.612l-.24 1.205Zm-.825 13.663a.806.806 0 0 1-.806-.808.806.806 0 1 1 1.613 0c0 .446-.36.808-.807.808Zm-3.615-.7c-.573 0-1.187-.08-1.63-.22-.223-.06-.248-.076-.336-.076-.131 0-.197.03-.33.154-.147.111-.224.142-.361.142-.26 0-.388-.142-.479-.514l-.392-1.552a1.225 1.225 0 0 1-.04-.311.484.484 0 0 1 .88-.276l.223.307c.537.759 1.406 1.229 2.293 1.229 1.008 0 1.695-.564 1.695-1.384 0-.421-.174-.792-.505-1.165-.336-.371-.753-.713-1.645-1.333-1.47-1.03-1.608-1.123-2.09-1.679a2.438 2.438 0 0 1-.591-1.63c0-1.504 1.145-2.499 2.854-2.499.44 0 .887.042 1.34.14.046.016.172.045.392.094.071.014.152.03.212.03.103 0 .221-.05.357-.14.153-.111.203-.124.327-.124.229 0 .375.156.437.434l.371 1.678c.028.073.028.167.028.216 0 .203-.181.37-.446.37-.167 0-.27-.061-.412-.26-.35-.529-.415-.59-.739-.84a2.41 2.41 0 0 0-1.459-.499c-.717 0-1.18.408-1.18 1.044 0 .229.04.465.167.636.157.234.406.48.713.714.192.137.437.314.768.545 1.225.853 1.627 1.165 2.127 1.675.525.543.84 1.318.84 2.115 0 1.794-1.34 2.98-3.39 2.98Zm-3.919 4h-.903c-.124 0-.214.041-.214.191l.005 2.7c0 .191-.135.213-.347.213-.205 0-.342-.02-.342-.205v-2.704c0-.132-.048-.194-.212-.194h-.914c-.148 0-.19-.142-.19-.261 0-.132-.012-.386.184-.386h2.918c.132 0 .22.073.22.314 0 .214-.057.333-.205.333Zm-7.505.836h1.29c.155 0 .196.136.196.333 0 .172-.037.322-.182.322h-1.285c-.103 0-.196.072-.196.19v.547c0 .132.072.194.177.194h2.211c.147 0 .198.097.198.338 0 .174-.04.317-.196.317h-2.847c-.165 0-.233-.079-.233-.274v-3.208c0-.146.06-.248.23-.248h2.856c.17 0 .2.113.2.316 0 .188-.025.338-.21.338H40.78c-.09 0-.154.07-.154.166v.505c0 .106.077.164.177.164Zm-2.345-5.55c0-.233.155-.43.369-.43h.316c.106 0 .212-.083.263-.203.032-.112.048-.206.048-.611v-6.91c0-.405-.016-.5-.048-.611-.05-.119-.157-.203-.263-.203h-.316c-.214 0-.37-.197-.37-.432 0-.338.234-.386.686-.453.454-.066 1.719-.24 3.656-.24 1.934 0 3.135.42 4.086 1.383.913.916 1.408 2.327 1.408 4.004 0 1.878-.632 3.43-1.784 4.347-.894.724-2.017 1.053-3.71 1.053-1.937 0-3.202-.173-3.656-.24-.452-.065-.685-.113-.685-.453Zm-5.24.709c-2.503 0-4.295-1.414-4.87-3.692a.233.233 0 0 1-.017-.051c-.051-.256-.282-.275-.337-.002 0 .009-.007.018-.01.027-.582 2.312-2.384 3.718-4.945 3.718-3.07 0-5.07-2.125-5.07-5.366 0-3.316 1.985-5.427 5.1-5.427 2.559 0 4.378 1.427 4.936 3.752.058.267.285.247.334-.007 0-.003 0-.007.006-.009.568-2.326 2.358-3.736 4.905-3.736 3.102 0 5.117 2.094 5.117 5.35 0 3.318-2 5.443-5.148 5.443m4.298 7.111c-.315 0-.4-.049-.481-.146l-1.194-1.275c-.163-.14-.326-.162-.549-.162-.125 0-.221.128-.221.276v1.086c0 .207-.177.22-.371.22-.206 0-.313-.057-.313-.222v-3.315c0-.196.122-.229.364-.229.19 0 .32.044.32.223v1c0 .162.073.24.174.24.29 0 .353-.062.46-.155.12-.103 1.346-1.227 1.346-1.227.154-.132.31-.13.457.012.123.118.177.25.04.385-.095.093-1.17 1.066-1.17 1.066-.133.115-.1.223-.009.323 0 0 1.29 1.423 1.426 1.57.203.22.017.33-.28.33Zm-6.562-1.203.63.916c.114.172.01.286-.346.286-.2 0-.333-.035-.42-.163l-.579-.9a.336.336 0 0 0-.29-.165h-.829c-.1 0-.196.083-.196.183l.006.898c0 .177-.344.148-.457.148-.148 0-.23-.042-.23-.208l.005-3.414c0-.09.077-.143.159-.143h1.964c.759 0 1.33.488 1.33 1.271 0 .677-.489.898-.684 1.064-.097.085-.121.143-.063.227Zm-5.52 1.203c-.114 0-.285-.018-.339-.142l-.24-.5a.197.197 0 0 0-.175-.118h-1.538c-.096 0-.184.073-.24.21l-.213.408c-.047.118-.28.137-.388.137-.095 0-.407-.011-.309-.22l1.633-3.388c.046-.099.132-.174.286-.174.153 0 .237.051.288.16 0 0 1.56 3.325 1.604 3.423.08.173-.256.204-.369.204Zm-5.912 0c-.095 0-.272-.053-.272-.177l-.263-1.991c-.017-.083-.048-.12-.114-.12-.053 0-.08.026-.117.072l-.894 1.145c-.046.062-.106.1-.178.1-.102 0-.146-.026-.204-.111l-.823-1.11a.141.141 0 0 0-.12-.059c-.065 0-.098.059-.107.135l-.258 1.926c-.024.159-.22.19-.38.19-.112 0-.302-.053-.302-.195l.379-3.246c.04-.194.082-.306.362-.306.071 0 .186.02.276.16l1.022 1.437c.055.078.117.144.185.142.068-.001.137-.071.195-.148l1.08-1.466a.32.32 0 0 1 .284-.143c.13 0 .225.03.28.247l.379 3.328c.018.19-.28.19-.41.19Zm-6.43-9.03c0 .418 0 .493.036.602a.395.395 0 0 0 .33.206h.351c.244 0 .412.199.412.433 0 .342-.19.45-.763.45h-2.856c-.53 0-.717-.108-.717-.45 0-.234.187-.434.4-.434h.317c.106 0 .21-.08.262-.205.033-.109.049-.184.049-.603V34.06c0-.402-.013-.482-.062-.607-.033-.137-.157-.232-.249-.232h-.314c-.21 0-.399-.2-.399-.433 0-.342.19-.453.713-.453h6.73c.312 0 .49.104.551.389l.22 1.079c.084.396-.057.613-.339.613-.151 0-.296-.04-.4-.244a2.401 2.401 0 0 1-.154-.333c-.151-.398-.464-.45-1.186-.45h-1.993c-.849 0-.944.114-.944.937v1.845c0 .347.05.497.145.561.071.05.184.06.63.06h1.284c.651 0 .744-.047.792-.358l.01-.097c.048-.263.188-.388.42-.388.327 0 .435.187.435.73v1.306c0 .543-.108.73-.436.73-.232 0-.37-.142-.418-.405l-.017-.102c-.046-.311-.139-.359-.791-.359h-1.278c-.447 0-.56.012-.631.06-.095.065-.145.215-.145.564l.006 2.53h-.002ZM7.981 21.63c-.232-.638-.306-.715-.803-.823-.331-.06-.434-.168-.434-.419 0-.263.165-.402.521-.402h3.206c.353 0 .51.14.51.419 0 .261-.157.368-.56.402-.341.031-.48.141-.48.388 0 .106.013.218.056.346l.123.354s1.714 4.854 1.984 5.634c.046.125.187.119.234-.02.302-.865 1.12-3.244 1.15-3.34.084-.275.121-.564.022-.88-.034-.112-.56-1.659-.56-1.659-.058-.168-.093-.292-.128-.356-.091-.227-.217-.31-.575-.405-.32-.078-.443-.184-.443-.415 0-.298.18-.468.541-.468h3.047c.353 0 .524.14.524.419 0 .247-.156.368-.502.417-.413.047-.525.143-.525.42 0 .141.031.28.16.653 0 0 1.502 4.757 1.74 5.505.046.14.18.11.217-.015.234-.76 1.721-5.755 1.721-5.755.044-.155.06-.28.06-.372 0-.233-.166-.357-.543-.405-.342-.03-.499-.186-.499-.433 0-.31.178-.434.59-.434h5.38c.513 0 .683.105.683.445 0 .254-.17.439-.384.439h-.298a.35.35 0 0 0-.297.197c-.029.116-.042.223-.042.61v2.003c0 .717.062.777.637.777h2.108c.309 0 .468-.049.547-.139.071-.095.071-.155.071-.731v-1.91c0-.403 0-.494-.038-.61a.337.337 0 0 0-.284-.197h-.296a.423.423 0 0 1-.422-.44c0-.34.188-.444.718-.444h2.822c.528 0 .717.105.717.445 0 .254-.189.439-.4.439h-.317c-.106 0-.23.095-.264.197-.044.116-.054.223-.054.61v6.972c0 .403.01.495.054.621.034.108.158.185.264.185h.316c.23 0 .4.203.4.433 0 .344-.17.45-.716.45H26.42c-.53 0-.698-.106-.698-.45 0-.23.188-.433.402-.433h.296a.345.345 0 0 0 .284-.185c.038-.126.038-.218.038-.621v-2.266c0-.576 0-.637-.071-.73-.078-.091-.238-.14-.547-.14h-2.108c-.575 0-.636.06-.636.777v2.359c0 .403.012.495.041.621a.329.329 0 0 0 .297.185h.298c.214 0 .373.203.373.452 0 .325-.178.431-.671.431h-2.829c-.521 0-.71-.106-.71-.45 0-.23.189-.433.402-.433h.308c.11 0 .237-.077.267-.185.047-.126.047-.206.047-.621v-6.971c0-.792-.371-.845-.643-.808-.274.038-.435.212-.604.76l-2.474 7.966c-.223.759-.433.976-.897.976-.463 0-.7-.2-.886-.775l-1.32-3.948c-.044-.126-.175-.13-.212-.009-.035.122-1.41 3.957-1.41 3.957-.15.371-.188.48-.315.605a.935.935 0 0 1-.528.17c-.45 0-.67-.186-.885-.775L7.982 21.63Zm20.602-4.7c.52-1.927 2.394-3.873 4.466-3.278 1.757.501 1.633 1.953 2.91 2.408.46.163.423.624.023.7-.675.128-1.586-.362-2.266-.978-.795-.722-2.088-.69-2.72-.21-.275.21-.134.411.118.355.585-.127 1.576-.16 2.339.696.75.841 2.146 1.593 3.383.786.34-.22.56-.678.907-.579.37.104.374.642-.11 1.267-1.143 1.474-2.315 1.298-3.571 2.529-1.255 1.23-1.509 2.63-1.509 4.407 0 2.755 1.084 4.425 2.917 4.425 1.783 0 2.902-1.733 2.902-4.458 0-2.246-.532-3.698-1.866-4.21-.645-.24-.535-.87.297-.968.685-.08 1.357.153 2.093.696 1.272.936 1.906 2.425 1.906 4.418 0 3.47-2.09 5.69-5.38 5.69-3.21 0-5.301-2.22-5.301-5.61 0-2.179.82-3.858 2.236-4.805.593-.443 1.595-.953 2.577-1.285.203-.07.201-.43-.16-.36-.429.085-1.219.147-1.872-.116-1.464-.578-1.89-1.61-3.614-.87-.52.223-.855-.093-.705-.65ZM41.688 20h2.867c.56 0 .75.111.75.455 0 .247-.19.434-.411.434h-.339c-.142 0-.281.076-.325.203-.046.104-.046.199-.046.603v6.519c0 .682.03.841.212.947.16.11.397.139 1.02.139h.875c.553 0 .945-.174 1.137-.576.088-.185.115-.252.133-.284.105-.203.27-.294.42-.294.283 0 .422.216.34.615l-.24 1.205c-.063.285-.24.39-.553.39h-5.84c-.517 0-.687-.103-.687-.449 0-.228.17-.417.387-.417h.3c.103 0 .229-.095.26-.2.046-.114.06-.19.06-.577v-7.018c0-.42-.014-.481-.06-.604a.279.279 0 0 0-.26-.203h-.3a.423.423 0 0 1-.422-.433c0-.344.188-.455.722-.455ZM32 0c-17.673 0-32 14.327-32 32 0 17.674 14.327 32 32 32 17.676 0 32-14.326 32-32 0-17.673-14.324-32-32-32Zm24.057 42.605c0-.108-.107-.134-.214-.134h-.145v.265h.109c.134 0 .25-.007.25-.131Zm0 .661-.27-.382h-.091v.382h-.162v-.943h.355c.221 0 .322.088.322.282 0 .188-.104.26-.241.276l.273.385h-.186Zm-.217-1.097c-.364 0-.635.273-.635.65 0 .376.27.647.635.647s.634-.271.634-.648c0-.376-.268-.649-.634-.649Zm-31.394 6.362a77.14 77.14 0 0 1-.453-.936c-.042-.088-.148-.093-.186.003-.044.108-.421.866-.447.92-.042.09.006.148.092.148h.9c.067 0 .133-.058.095-.135Zm5.869-1.61h-1.149c-.119 0-.243.04-.243.189v.838c0 .131.124.208.243.208h1.149c.385 0 .7-.203.7-.618s-.315-.618-.7-.618Zm-7.262-13.675c-1.706 0-2.76 1.627-2.76 4.325 0 2.636 1.037 4.232 2.791 4.232 1.706 0 2.776-1.658 2.776-4.262 0-2.636-1.086-4.295-2.807-4.295Zm10.18 0c-1.706 0-2.762 1.627-2.762 4.325 0 2.636 1.04 4.232 2.793 4.232 1.704 0 2.774-1.658 2.774-4.262 0-2.636-1.085-4.295-2.805-4.295Zm9.783-.095s-.353.023-.527.05c-.67.109-.869.29-.869 1.115v6.504c0 .887.553.94 1.332.983 1.901.108 3.006-1.581 3.006-4.313 0-2.734-1.097-4.34-2.942-4.34Zm13.04 9.454c0-.108-.108-.134-.215-.134h-.145v.265h.109c.134 0 .25-.007.25-.131Zm0 .662-.271-.383h-.092v.383h-.16v-.944h.354c.221 0 .322.088.322.282 0 .188-.104.261-.241.276l.273.386h-.186Zm-.218-1.098c-.364 0-.635.273-.635.65 0 .376.27.647.635.647s.634-.27.634-.648c0-.376-.269-.649-.634-.649Zm-12.824-9.018s-.354.023-.527.051c-.67.108-.869.29-.869 1.114v6.504c0 .887.552.94 1.332.983 1.901.108 3.006-1.581 3.006-4.313 0-2.734-1.097-4.34-2.942-4.34Zm-9.783.095c-1.706 0-2.762 1.627-2.762 4.325 0 2.637 1.04 4.233 2.793 4.233 1.704 0 2.774-1.659 2.774-4.263 0-2.636-1.085-4.295-2.805-4.295Zm-2.919 13.674h-1.148c-.12 0-.243.042-.243.19v.838c0 .132.124.208.243.208h1.148c.386 0 .7-.203.7-.618s-.314-.618-.7-.618Zm-7.261-13.674c-1.706 0-2.76 1.627-2.76 4.325 0 2.637 1.037 4.233 2.79 4.233 1.707 0 2.777-1.659 2.777-4.262 0-2.637-1.087-4.296-2.807-4.296Zm1.393 15.285a76.497 76.497 0 0 1-.453-.936c-.042-.088-.148-.093-.187.004-.044.108-.42.865-.446.92-.042.09.005.148.092.148h.9c.067 0 .132-.059.094-.136a76.497 76.497 0 0 1-.453-.936c-.042-.088-.148-.093-.187.004-.044.108-.42.865-.446.92-.042.09.005.148.092.148h.9c.067 0 .132-.059.094-.136Zm5.868-1.61h-1.148c-.12 0-.243.041-.243.19v.837c0 .132.124.208.243.208h1.148c.386 0 .7-.203.7-.618s-.314-.618-.7-.618Zm-7.261-13.675c-1.706 0-2.76 1.627-2.76 4.325 0 2.637 1.037 4.233 2.79 4.233 1.707 0 2.777-1.659 2.777-4.262 0-2.637-1.087-4.296-2.807-4.296Zm10.18 0c-1.706 0-2.762 1.627-2.762 4.325 0 2.637 1.04 4.233 2.793 4.233 1.704 0 2.774-1.659 2.774-4.263 0-2.636-1.085-4.295-2.805-4.295Zm9.783-.095s-.354.023-.527.051c-.67.108-.869.29-.869 1.114v6.504c0 .887.552.94 1.332.983 1.901.108 3.006-1.581 3.006-4.313 0-2.734-1.097-4.34-2.942-4.34 0 0-.354.024-.527.052-.67.108-.869.29-.869 1.114v6.504c0 .887.552.94 1.332.983 1.901.108 3.006-1.581 3.006-4.313 0-2.734-1.097-4.34-2.942-4.34Zm-9.783.095c-1.706 0-2.762 1.627-2.762 4.325 0 2.637 1.04 4.233 2.793 4.233 1.704 0 2.774-1.659 2.774-4.263 0-2.636-1.085-4.295-2.805-4.295Zm-2.919 13.674h-1.148c-.12 0-.243.042-.243.19v.838c0 .132.124.208.243.208h1.148c.386 0 .7-.203.7-.618s-.314-.618-.7-.618Zm-7.261-13.674c-1.706 0-2.76 1.627-2.76 4.325 0 2.637 1.037 4.233 2.79 4.233 1.707 0 2.777-1.659 2.777-4.262 0-2.637-1.087-4.296-2.807-4.296Zm1.393 15.285a76.497 76.497 0 0 1-.453-.936c-.042-.088-.148-.093-.187.004-.044.108-.42.865-.446.92-.042.09.005.148.092.148h.9c.067 0 .132-.059.094-.136a76.497 76.497 0 0 1-.453-.936c-.042-.088-.148-.093-.187.004-.044.108-.42.865-.446.92-.042.09.005.148.092.148h.9c.067 0 .132-.059.094-.136Zm5.868-1.61h-1.148c-.12 0-.243.041-.243.19v.837c0 .132.124.208.243.208h1.148c.386 0 .7-.203.7-.618s-.314-.618-.7-.618Zm-7.261-13.675c-1.706 0-2.76 1.627-2.76 4.325 0 2.637 1.037 4.233 2.79 4.233 1.707 0 2.777-1.659 2.777-4.262 0-2.637-1.087-4.296-2.807-4.296Zm10.18 0c-1.706 0-2.762 1.627-2.762 4.325 0 2.637 1.04 4.233 2.793 4.233 1.704 0 2.774-1.659 2.774-4.263 0-2.636-1.085-4.295-2.805-4.295Zm9.783-.095s-.354.023-.527.051c-.67.108-.869.29-.869 1.114v6.504c0 .887.552.94 1.332.983 1.901.108 3.006-1.581 3.006-4.313 0-2.734-1.097-4.34-2.942-4.34 0 0-.354.024-.527.052-.67.108-.869.29-.869 1.114v6.504c0 .887.552.94 1.332.983 1.901.108 3.006-1.581 3.006-4.313 0-2.734-1.097-4.34-2.942-4.34Zm-9.783.095c-1.706 0-2.762 1.627-2.762 4.325 0 2.637 1.04 4.233 2.793 4.233 1.704 0 2.774-1.659 2.774-4.263 0-2.636-1.085-4.295-2.805-4.295Zm-2.919 13.674h-1.148c-.12 0-.243.042-.243.19v.838c0 .132.124.208.243.208h1.148c.386 0 .7-.203.7-.618s-.314-.618-.7-.618Zm-7.261-13.674c-1.706 0-2.76 1.627-2.76 4.325 0 2.637 1.037 4.233 2.79 4.233 1.707 0 2.777-1.659 2.777-4.262 0-2.637-1.087-4.296-2.807-4.296Zm1.393 15.285a76.497 76.497 0 0 1-.453-.936c-.042-.088-.148-.093-.187.004-.044.108-.42.865-.446.92-.042.09.005.148.092.148h.9c.067 0 .132-.059.094-.136Zm-1.393-15.285c-1.706 0-2.76 1.627-2.76 4.325 0 2.637 1.037 4.233 2.79 4.233 1.707 0 2.777-1.659 2.777-4.262 0-2.637-1.087-4.296-2.807-4.296Zm10.18 0c-1.707 0-2.762 1.628-2.762 4.325 0 2.637 1.039 4.233 2.792 4.233 1.705 0 2.774-1.659 2.774-4.262 0-2.637-1.084-4.296-2.804-4.296Zm9.782-.095s-.353.024-.526.051c-.67.108-.87.29-.87 1.114v6.504c0 .887.553.94 1.332.984 1.902.107 3.007-1.582 3.007-4.314 0-2.733-1.098-4.339-2.943-4.339 0 0-.353.024-.526.051-.67.108-.87.29-.87 1.114v6.504c0 .887.553.94 1.332.984 1.902.107 3.007-1.582 3.007-4.314 0-2.733-1.098-4.339-2.943-4.339Zm-9.782.095c-1.707 0-2.762 1.628-2.762 4.325 0 2.637 1.039 4.233 2.792 4.233 1.705 0 2.774-1.659 2.774-4.262 0-2.637-1.084-4.296-2.804-4.296Zm-10.18 0c-1.706 0-2.76 1.627-2.76 4.325 0 2.637 1.037 4.233 2.79 4.233 1.707 0 2.777-1.659 2.777-4.262 0-2.637-1.087-4.296-2.807-4.296-1.706 0-2.76 1.627-2.76 4.325 0 2.637 1.037 4.233 2.79 4.233 1.707 0 2.777-1.659 2.777-4.262 0-2.637-1.087-4.296-2.807-4.296Zm10.18 0c-1.707 0-2.762 1.628-2.762 4.325 0 2.637 1.039 4.233 2.792 4.233 1.705 0 2.774-1.659 2.774-4.262 0-2.637-1.084-4.296-2.804-4.296Zm9.782-.095s-.353.024-.526.051c-.67.108-.87.29-.87 1.114v6.504c0 .887.553.94 1.332.984 1.902.107 3.007-1.582 3.007-4.314 0-2.733-1.098-4.339-2.943-4.339 0 0-.353.024-.526.051-.67.108-.87.29-.87 1.114v6.504c0 .887.553.94 1.332.984 1.902.107 3.007-1.582 3.007-4.314 0-2.733-1.098-4.338-2.943-4.338m-9.782.095c-1.706 0-2.762 1.627-2.762 4.324 0 2.637 1.04 4.233 2.792 4.233 1.705 0 2.775-1.658 2.775-4.262 0-2.637-1.085-4.295-2.805-4.295Zm-10.18 0c-1.706 0-2.76 1.627-2.76 4.324 0 2.637 1.037 4.233 2.79 4.233 1.707 0 2.777-1.658 2.777-4.262 0-2.637-1.087-4.295-2.807-4.295Z" fill="#CB2821"/></g><defs><clipPath id="a"><path fill="#fff" d="M0 0h64v64H0z"/></clipPath></defs></svg>